<?xml version="1.0" encoding="UTF-8" standalone="no"?>
<!DOCTYPE svg PUBLIC "-//W3C//DTD SVG 1.1//EN"
 "http://www.w3.org/Graphics/SVG/1.1/DTD/svg11.dtd">
<!-- Generated by graphviz version 2.38.0 (20140413.2041)
 -->
<!-- Title: fl::IntegralDefuzzifier Pages: 1 -->
<svg width="612pt" height="405pt"
 viewBox="0.00 0.00 612.05 405.00" xmlns="http://www.w3.org/2000/svg" xmlns:xlink="http://www.w3.org/1999/xlink">
<g id="graph0" class="graph" transform="scale(1 1) rotate(0) translate(4 401)">
<title>fl::IntegralDefuzzifier</title>
<polygon fill="white" stroke="none" points="-4,4 -4,-401 608.048,-401 608.048,4 -4,4"/>
<!-- Node0 -->
<g id="node1" class="node"><title>Node0</title>
<polygon fill="#bfbfbf" stroke="black" points="198.594,-151.5 198.594,-255.5 322.147,-255.5 322.147,-151.5 198.594,-151.5"/>
<text text-anchor="middle" x="260.371" y="-243.5" font-family="Helvetica,sans-Serif" font-size="10.00">fl::IntegralDefuzzifier</text>
<polyline fill="none" stroke="black" points="198.594,-237.5 322.147,-237.5 "/>
<text text-anchor="middle" x="260.371" y="-225.5" font-family="Helvetica,sans-Serif" font-size="10.00"> </text>
<polyline fill="none" stroke="black" points="198.594,-219.5 322.147,-219.5 "/>
<text text-anchor="start" x="206.594" y="-207.5" font-family="Helvetica,sans-Serif" font-size="10.00">+ IntegralDefuzzifier()</text>
<text text-anchor="start" x="206.594" y="-197.5" font-family="Helvetica,sans-Serif" font-size="10.00">+ ~IntegralDefuzzifier()</text>
<text text-anchor="start" x="206.594" y="-187.5" font-family="Helvetica,sans-Serif" font-size="10.00">+ setResolution()</text>
<text text-anchor="start" x="206.594" y="-177.5" font-family="Helvetica,sans-Serif" font-size="10.00">+ getResolution()</text>
<text text-anchor="start" x="206.594" y="-167.5" font-family="Helvetica,sans-Serif" font-size="10.00">+ setDefaultResolution()</text>
<text text-anchor="start" x="206.594" y="-157.5" font-family="Helvetica,sans-Serif" font-size="10.00">+ defaultResolution()</text>
</g>
<!-- Node2 -->
<g id="node3" class="node"><title>Node2</title>
<g id="a_node3"><a xlink:href="../../da/d09/classfl_1_1_bisector.html" target="_top" xlink:title="The Bisector class is an IntegralDefuzzifier that computes the bisector of a fuzzy set represented in...">
<polygon fill="white" stroke="black" points="0,-0.5 0,-114.5 80.7412,-114.5 80.7412,-0.5 0,-0.5"/>
<text text-anchor="middle" x="40.3706" y="-102.5" font-family="Helvetica,sans-Serif" font-size="10.00">fl::Bisector</text>
<polyline fill="none" stroke="black" points="0,-96.5 80.7412,-96.5 "/>
<text text-anchor="middle" x="40.3706" y="-84.5" font-family="Helvetica,sans-Serif" font-size="10.00"> </text>
<polyline fill="none" stroke="black" points="0,-78.5 80.7412,-78.5 "/>
<text text-anchor="start" x="8" y="-66.5" font-family="Helvetica,sans-Serif" font-size="10.00">+ Bisector()</text>
<text text-anchor="start" x="8" y="-56.5" font-family="Helvetica,sans-Serif" font-size="10.00">+ ~Bisector()</text>
<text text-anchor="start" x="8" y="-46.5" font-family="Helvetica,sans-Serif" font-size="10.00">+ className()</text>
<text text-anchor="start" x="8" y="-36.5" font-family="Helvetica,sans-Serif" font-size="10.00">+ complexity()</text>
<text text-anchor="start" x="8" y="-26.5" font-family="Helvetica,sans-Serif" font-size="10.00">+ defuzzify()</text>
<text text-anchor="start" x="8" y="-16.5" font-family="Helvetica,sans-Serif" font-size="10.00">+ clone()</text>
<text text-anchor="start" x="8" y="-6.5" font-family="Helvetica,sans-Serif" font-size="10.00">+ constructor()</text>
</a>
</g>
</g>
<!-- Node0&#45;&gt;Node2 -->
<g id="edge2" class="edge"><title>Node0&#45;&gt;Node2</title>
<path fill="none" stroke="midnightblue" d="M189.244,-173.128C157.37,-158.197 120.304,-138.272 90.3706,-115 87.1649,-112.508 84.0025,-109.791 80.9197,-106.939"/>
<polygon fill="none" stroke="midnightblue" points="187.973,-176.396 198.52,-177.402 190.902,-170.038 187.973,-176.396"/>
</g>
<!-- Node3 -->
<g id="node4" class="node"><title>Node3</title>
<g id="a_node4"><a xlink:href="../../df/d91/classfl_1_1_centroid.html" target="_top" xlink:title="The Centroid class is an IntegralDefuzzifier that computes the centroid of a fuzzy set represented in...">
<polygon fill="white" stroke="black" points="99,-0.5 99,-114.5 179.741,-114.5 179.741,-0.5 99,-0.5"/>
<text text-anchor="middle" x="139.371" y="-102.5" font-family="Helvetica,sans-Serif" font-size="10.00">fl::Centroid</text>
<polyline fill="none" stroke="black" points="99,-96.5 179.741,-96.5 "/>
<text text-anchor="middle" x="139.371" y="-84.5" font-family="Helvetica,sans-Serif" font-size="10.00"> </text>
<polyline fill="none" stroke="black" points="99,-78.5 179.741,-78.5 "/>
<text text-anchor="start" x="107" y="-66.5" font-family="Helvetica,sans-Serif" font-size="10.00">+ Centroid()</text>
<text text-anchor="start" x="107" y="-56.5" font-family="Helvetica,sans-Serif" font-size="10.00">+ ~Centroid()</text>
<text text-anchor="start" x="107" y="-46.5" font-family="Helvetica,sans-Serif" font-size="10.00">+ className()</text>
<text text-anchor="start" x="107" y="-36.5" font-family="Helvetica,sans-Serif" font-size="10.00">+ complexity()</text>
<text text-anchor="start" x="107" y="-26.5" font-family="Helvetica,sans-Serif" font-size="10.00">+ defuzzify()</text>
<text text-anchor="start" x="107" y="-16.5" font-family="Helvetica,sans-Serif" font-size="10.00">+ clone()</text>
<text text-anchor="start" x="107" y="-6.5" font-family="Helvetica,sans-Serif" font-size="10.00">+ constructor()</text>
</a>
</g>
</g>
<!-- Node0&#45;&gt;Node3 -->
<g id="edge3" class="edge"><title>Node0&#45;&gt;Node3</title>
<path fill="none" stroke="midnightblue" d="M210.691,-143.377C200.413,-131.145 189.704,-118.401 179.804,-106.619"/>
<polygon fill="none" stroke="midnightblue" points="208.257,-145.921 217.37,-151.326 213.616,-141.418 208.257,-145.921"/>
</g>
<!-- Node4 -->
<g id="node5" class="node"><title>Node4</title>
<g id="a_node5"><a xlink:href="../../de/d47/classfl_1_1_largest_of_maximum.html" target="_top" xlink:title="The LargestOfMaximum class is an IntegralDefuzzifier that computes the largest value of the maximum m...">
<polygon fill="white" stroke="black" points="198.188,-0.5 198.188,-114.5 322.553,-114.5 322.553,-0.5 198.188,-0.5"/>
<text text-anchor="middle" x="260.371" y="-102.5" font-family="Helvetica,sans-Serif" font-size="10.00">fl::LargestOfMaximum</text>
<polyline fill="none" stroke="black" points="198.188,-96.5 322.553,-96.5 "/>
<text text-anchor="middle" x="260.371" y="-84.5" font-family="Helvetica,sans-Serif" font-size="10.00"> </text>
<polyline fill="none" stroke="black" points="198.188,-78.5 322.553,-78.5 "/>
<text text-anchor="start" x="206.188" y="-66.5" font-family="Helvetica,sans-Serif" font-size="10.00">+ LargestOfMaximum()</text>
<text text-anchor="start" x="206.188" y="-56.5" font-family="Helvetica,sans-Serif" font-size="10.00">+ ~LargestOfMaximum()</text>
<text text-anchor="start" x="206.188" y="-46.5" font-family="Helvetica,sans-Serif" font-size="10.00">+ className()</text>
<text text-anchor="start" x="206.188" y="-36.5" font-family="Helvetica,sans-Serif" font-size="10.00">+ complexity()</text>
<text text-anchor="start" x="206.188" y="-26.5" font-family="Helvetica,sans-Serif" font-size="10.00">+ defuzzify()</text>
<text text-anchor="start" x="206.188" y="-16.5" font-family="Helvetica,sans-Serif" font-size="10.00">+ clone()</text>
<text text-anchor="start" x="206.188" y="-6.5" font-family="Helvetica,sans-Serif" font-size="10.00">+ constructor()</text>
</a>
</g>
</g>
<!-- Node0&#45;&gt;Node4 -->
<g id="edge4" class="edge"><title>Node0&#45;&gt;Node4</title>
<path fill="none" stroke="midnightblue" d="M260.371,-141.205C260.371,-132.473 260.371,-123.526 260.371,-114.893"/>
<polygon fill="none" stroke="midnightblue" points="256.871,-141.325 260.371,-151.326 263.871,-141.326 256.871,-141.325"/>
</g>
<!-- Node5 -->
<g id="node6" class="node"><title>Node5</title>
<g id="a_node6"><a xlink:href="../../dc/d91/classfl_1_1_mean_of_maximum.html" target="_top" xlink:title="The MeanOfMaximum class is an IntegralDefuzzifier that computes the mean value of the maximum members...">
<polygon fill="white" stroke="black" points="340.358,-0.5 340.358,-114.5 456.383,-114.5 456.383,-0.5 340.358,-0.5"/>
<text text-anchor="middle" x="398.371" y="-102.5" font-family="Helvetica,sans-Serif" font-size="10.00">fl::MeanOfMaximum</text>
<polyline fill="none" stroke="black" points="340.358,-96.5 456.383,-96.5 "/>
<text text-anchor="middle" x="398.371" y="-84.5" font-family="Helvetica,sans-Serif" font-size="10.00"> </text>
<polyline fill="none" stroke="black" points="340.358,-78.5 456.383,-78.5 "/>
<text text-anchor="start" x="348.358" y="-66.5" font-family="Helvetica,sans-Serif" font-size="10.00">+ MeanOfMaximum()</text>
<text text-anchor="start" x="348.358" y="-56.5" font-family="Helvetica,sans-Serif" font-size="10.00">+ ~MeanOfMaximum()</text>
<text text-anchor="start" x="348.358" y="-46.5" font-family="Helvetica,sans-Serif" font-size="10.00">+ className()</text>
<text text-anchor="start" x="348.358" y="-36.5" font-family="Helvetica,sans-Serif" font-size="10.00">+ complexity()</text>
<text text-anchor="start" x="348.358" y="-26.5" font-family="Helvetica,sans-Serif" font-size="10.00">+ defuzzify()</text>
<text text-anchor="start" x="348.358" y="-16.5" font-family="Helvetica,sans-Serif" font-size="10.00">+ clone()</text>
<text text-anchor="start" x="348.358" y="-6.5" font-family="Helvetica,sans-Serif" font-size="10.00">+ constructor()</text>
</a>
</g>
</g>
<!-- Node0&#45;&gt;Node5 -->
<g id="edge5" class="edge"><title>Node0&#45;&gt;Node5</title>
<path fill="none" stroke="midnightblue" d="M316.391,-144.044C325.613,-134.421 335.155,-124.464 344.327,-114.893"/>
<polygon fill="none" stroke="midnightblue" points="313.805,-141.684 309.413,-151.326 318.859,-146.527 313.805,-141.684"/>
</g>
<!-- Node6 -->
<g id="node7" class="node"><title>Node6</title>
<g id="a_node7"><a xlink:href="../../dc/dba/classfl_1_1_smallest_of_maximum.html" target="_top" xlink:title="The SmallestOfMaximum class is an IntegralDefuzzifier that computes the smallest value of the maximum...">
<polygon fill="white" stroke="black" points="474.693,-0.5 474.693,-114.5 604.048,-114.5 604.048,-0.5 474.693,-0.5"/>
<text text-anchor="middle" x="539.371" y="-102.5" font-family="Helvetica,sans-Serif" font-size="10.00">fl::SmallestOfMaximum</text>
<polyline fill="none" stroke="black" points="474.693,-96.5 604.048,-96.5 "/>
<text text-anchor="middle" x="539.371" y="-84.5" font-family="Helvetica,sans-Serif" font-size="10.00"> </text>
<polyline fill="none" stroke="black" points="474.693,-78.5 604.048,-78.5 "/>
<text text-anchor="start" x="482.693" y="-66.5" font-family="Helvetica,sans-Serif" font-size="10.00">+ SmallestOfMaximum()</text>
<text text-anchor="start" x="482.693" y="-56.5" font-family="Helvetica,sans-Serif" font-size="10.00">+ ~SmallestOfMaximum()</text>
<text text-anchor="start" x="482.693" y="-46.5" font-family="Helvetica,sans-Serif" font-size="10.00">+ className()</text>
<text text-anchor="start" x="482.693" y="-36.5" font-family="Helvetica,sans-Serif" font-size="10.00">+ complexity()</text>
<text text-anchor="start" x="482.693" y="-26.5" font-family="Helvetica,sans-Serif" font-size="10.00">+ defuzzify()</text>
<text text-anchor="start" x="482.693" y="-16.5" font-family="Helvetica,sans-Serif" font-size="10.00">+ clone()</text>
<text text-anchor="start" x="482.693" y="-6.5" font-family="Helvetica,sans-Serif" font-size="10.00">+ constructor()</text>
</a>
</g>
</g>
<!-- Node0&#45;&gt;Node6 -->
<g id="edge6" class="edge"><title>Node0&#45;&gt;Node6</title>
<path fill="none" stroke="midnightblue" d="M331.889,-177.028C372.263,-161.42 422.969,-139.716 465.371,-115 468.443,-113.209 471.533,-111.309 474.617,-109.331"/>
<polygon fill="none" stroke="midnightblue" points="330.477,-173.821 322.388,-180.663 332.978,-180.359 330.477,-173.821"/>
</g>
<!-- Node1 -->
<g id="node2" class="node"><title>Node1</title>
<g id="a_node2"><a xlink:href="../../d3/d31/classfl_1_1_defuzzifier.html" target="_top" xlink:title="The Defuzzifier class is the abstract class for defuzzifiers. ">
<polygon fill="white" stroke="black" points="218.193,-292.5 218.193,-396.5 302.548,-396.5 302.548,-292.5 218.193,-292.5"/>
<text text-anchor="middle" x="260.371" y="-384.5" font-family="Helvetica,sans-Serif" font-size="10.00">fl::Defuzzifier</text>
<polyline fill="none" stroke="black" points="218.193,-378.5 302.548,-378.5 "/>
<text text-anchor="middle" x="260.371" y="-366.5" font-family="Helvetica,sans-Serif" font-size="10.00"> </text>
<polyline fill="none" stroke="black" points="218.193,-360.5 302.548,-360.5 "/>
<text text-anchor="start" x="226.193" y="-348.5" font-family="Helvetica,sans-Serif" font-size="10.00">+ Defuzzifier()</text>
<text text-anchor="start" x="226.193" y="-338.5" font-family="Helvetica,sans-Serif" font-size="10.00">+ ~Defuzzifier()</text>
<text text-anchor="start" x="226.193" y="-328.5" font-family="Helvetica,sans-Serif" font-size="10.00">+ className()</text>
<text text-anchor="start" x="226.193" y="-318.5" font-family="Helvetica,sans-Serif" font-size="10.00">+ clone()</text>
<text text-anchor="start" x="226.193" y="-308.5" font-family="Helvetica,sans-Serif" font-size="10.00">+ complexity()</text>
<text text-anchor="start" x="226.193" y="-298.5" font-family="Helvetica,sans-Serif" font-size="10.00">+ defuzzify()</text>
</a>
</g>
</g>
<!-- Node1&#45;&gt;Node0 -->
<g id="edge1" class="edge"><title>Node1&#45;&gt;Node0</title>
<path fill="none" stroke="midnightblue" d="M260.371,-281.941C260.371,-273.159 260.371,-264.206 260.371,-255.652"/>
<polygon fill="none" stroke="midnightblue" points="256.871,-282.136 260.371,-292.136 263.871,-282.136 256.871,-282.136"/>
</g>
</g>
</svg>
