<?xml version="1.0" encoding="UTF-8" standalone="no"?>
<!DOCTYPE svg PUBLIC "-//W3C//DTD SVG 1.1//EN"
 "http://www.w3.org/Graphics/SVG/1.1/DTD/svg11.dtd">
<!-- Generated by graphviz version 2.38.0 (20140413.2041)
 -->
<!-- Title: fl::AlgebraicProduct Pages: 1 -->
<svg width="111pt" height="335pt"
 viewBox="0.00 0.00 110.71 335.00" xmlns="http://www.w3.org/2000/svg" xmlns:xlink="http://www.w3.org/1999/xlink">
<g id="graph0" class="graph" transform="scale(1 1) rotate(0) translate(4 331)">
<title>fl::AlgebraicProduct</title>
<polygon fill="white" stroke="none" points="-4,4 -4,-331 106.709,-331 106.709,4 -4,4"/>
<!-- Node1 -->
<g id="node1" class="node"><title>Node1</title>
<polygon fill="#bfbfbf" stroke="black" points="0,-0.5 0,-84.5 102.709,-84.5 102.709,-0.5 0,-0.5"/>
<text text-anchor="middle" x="51.3545" y="-72.5" font-family="Helvetica,sans-Serif" font-size="10.00">fl::AlgebraicProduct</text>
<polyline fill="none" stroke="black" points="0,-66.5 102.709,-66.5 "/>
<text text-anchor="middle" x="51.3545" y="-54.5" font-family="Helvetica,sans-Serif" font-size="10.00"> </text>
<polyline fill="none" stroke="black" points="0,-48.5 102.709,-48.5 "/>
<text text-anchor="start" x="8" y="-36.5" font-family="Helvetica,sans-Serif" font-size="10.00">+ className()</text>
<text text-anchor="start" x="8" y="-26.5" font-family="Helvetica,sans-Serif" font-size="10.00">+ compute()</text>
<text text-anchor="start" x="8" y="-16.5" font-family="Helvetica,sans-Serif" font-size="10.00">+ clone()</text>
<text text-anchor="start" x="8" y="-6.5" font-family="Helvetica,sans-Serif" font-size="10.00">+ constructor()</text>
</g>
<!-- Node2 -->
<g id="node2" class="node"><title>Node2</title>
<g id="a_node2"><a xlink:href="../../d6/d29/classfl_1_1_t_norm.html" target="_top" xlink:title="The TNorm class is the base class for T&#45;Norms, and it is utilized as the conjunction fuzzy logic oper...">
<polygon fill="white" stroke="black" points="17.5195,-121.5 17.5195,-195.5 85.1895,-195.5 85.1895,-121.5 17.5195,-121.5"/>
<text text-anchor="middle" x="51.3545" y="-183.5" font-family="Helvetica,sans-Serif" font-size="10.00">fl::TNorm</text>
<polyline fill="none" stroke="black" points="17.5195,-177.5 85.1895,-177.5 "/>
<text text-anchor="middle" x="51.3545" y="-165.5" font-family="Helvetica,sans-Serif" font-size="10.00"> </text>
<polyline fill="none" stroke="black" points="17.5195,-159.5 85.1895,-159.5 "/>
<text text-anchor="start" x="25.5195" y="-147.5" font-family="Helvetica,sans-Serif" font-size="10.00">+ TNorm()</text>
<text text-anchor="start" x="25.5195" y="-137.5" font-family="Helvetica,sans-Serif" font-size="10.00">+ ~TNorm()</text>
<text text-anchor="start" x="25.5195" y="-127.5" font-family="Helvetica,sans-Serif" font-size="10.00">+ clone()</text>
</a>
</g>
</g>
<!-- Node2&#45;&gt;Node1 -->
<g id="edge1" class="edge"><title>Node2&#45;&gt;Node1</title>
<path fill="none" stroke="midnightblue" d="M51.3545,-111.365C51.3545,-102.609 51.3545,-93.4971 51.3545,-84.8984"/>
<polygon fill="none" stroke="midnightblue" points="47.8546,-111.43 51.3545,-121.43 54.8546,-111.43 47.8546,-111.43"/>
</g>
<!-- Node3 -->
<g id="node3" class="node"><title>Node3</title>
<g id="a_node3"><a xlink:href="../../d5/d22/classfl_1_1_norm.html" target="_top" xlink:title="The Norm class is the abstract class for norms. ">
<polygon fill="white" stroke="black" points="10.9863,-232.5 10.9863,-326.5 91.7227,-326.5 91.7227,-232.5 10.9863,-232.5"/>
<text text-anchor="middle" x="51.3545" y="-314.5" font-family="Helvetica,sans-Serif" font-size="10.00">fl::Norm</text>
<polyline fill="none" stroke="black" points="10.9863,-308.5 91.7227,-308.5 "/>
<text text-anchor="middle" x="51.3545" y="-296.5" font-family="Helvetica,sans-Serif" font-size="10.00"> </text>
<polyline fill="none" stroke="black" points="10.9863,-290.5 91.7227,-290.5 "/>
<text text-anchor="start" x="18.9863" y="-278.5" font-family="Helvetica,sans-Serif" font-size="10.00">+ Norm()</text>
<text text-anchor="start" x="18.9863" y="-268.5" font-family="Helvetica,sans-Serif" font-size="10.00">+ ~Norm()</text>
<text text-anchor="start" x="18.9863" y="-258.5" font-family="Helvetica,sans-Serif" font-size="10.00">+ className()</text>
<text text-anchor="start" x="18.9863" y="-248.5" font-family="Helvetica,sans-Serif" font-size="10.00">+ compute()</text>
<text text-anchor="start" x="18.9863" y="-238.5" font-family="Helvetica,sans-Serif" font-size="10.00">+ clone()</text>
</a>
</g>
</g>
<!-- Node3&#45;&gt;Node2 -->
<g id="edge2" class="edge"><title>Node3&#45;&gt;Node2</title>
<path fill="none" stroke="midnightblue" d="M51.3545,-222.379C51.3545,-213.343 51.3545,-204.203 51.3545,-195.796"/>
<polygon fill="none" stroke="midnightblue" points="47.8546,-222.491 51.3545,-232.491 54.8546,-222.492 47.8546,-222.491"/>
</g>
</g>
</svg>
