<?xml version="1.0" encoding="UTF-8" standalone="no"?>
<!DOCTYPE svg PUBLIC "-//W3C//DTD SVG 1.1//EN"
 "http://www.w3.org/Graphics/SVG/1.1/DTD/svg11.dtd">
<!-- Generated by graphviz version 2.38.0 (20140413.2041)
 -->
<!-- Title: fuzzylite/fl/imex/Exporter.h Pages: 1 -->
<svg width="946pt" height="202pt"
 viewBox="0.00 0.00 945.89 202.00" xmlns="http://www.w3.org/2000/svg" xmlns:xlink="http://www.w3.org/1999/xlink">
<g id="graph0" class="graph" transform="scale(1 1) rotate(0) translate(4 198)">
<title>fuzzylite/fl/imex/Exporter.h</title>
<polygon fill="white" stroke="none" points="-4,4 -4,-198 941.891,-198 941.891,4 -4,4"/>
<!-- Node10 -->
<g id="node1" class="node"><title>Node10</title>
<polygon fill="#bfbfbf" stroke="black" points="429.172,-175.5 429.172,-193.5 561.33,-193.5 561.33,-175.5 429.172,-175.5"/>
<text text-anchor="middle" x="495.251" y="-181.5" font-family="Helvetica,sans-Serif" font-size="10.00">fuzzylite/fl/imex/Exporter.h</text>
</g>
<!-- Node11 -->
<g id="node2" class="node"><title>Node11</title>
<g id="a_node2"><a xlink:href="../../d1/d10/_cpp_exporter_8h.html" target="_top" xlink:title="fuzzylite/fl/imex/CppExporter.h">
<polygon fill="white" stroke="black" points="0,-60.5 0,-78.5 150.502,-78.5 150.502,-60.5 0,-60.5"/>
<text text-anchor="middle" x="75.251" y="-66.5" font-family="Helvetica,sans-Serif" font-size="10.00">fuzzylite/fl/imex/CppExporter.h</text>
</a>
</g>
</g>
<!-- Node10&#45;&gt;Node11 -->
<g id="edge1" class="edge"><title>Node10&#45;&gt;Node11</title>
<path fill="none" stroke="midnightblue" d="M418.915,-175.119C366.764,-168.247 296.466,-156.721 236.251,-139 180.884,-122.706 119.017,-92.8658 90.7966,-78.5624"/>
<polygon fill="midnightblue" stroke="midnightblue" points="418.73,-178.624 429.095,-176.431 419.625,-171.681 418.73,-178.624"/>
</g>
<!-- Node13 -->
<g id="node4" class="node"><title>Node13</title>
<g id="a_node4"><a xlink:href="../../df/df9/_fcl_exporter_8h.html" target="_top" xlink:title="fuzzylite/fl/imex/FclExporter.h">
<polygon fill="white" stroke="black" points="168.507,-60.5 168.507,-78.5 313.995,-78.5 313.995,-60.5 168.507,-60.5"/>
<text text-anchor="middle" x="241.251" y="-66.5" font-family="Helvetica,sans-Serif" font-size="10.00">fuzzylite/fl/imex/FclExporter.h</text>
</a>
</g>
</g>
<!-- Node10&#45;&gt;Node13 -->
<g id="edge3" class="edge"><title>Node10&#45;&gt;Node13</title>
<path fill="none" stroke="midnightblue" d="M418.943,-179.445C355.478,-174.379 271.99,-163.212 249.251,-139 233.677,-122.418 236.814,-92.7171 239.467,-78.5048"/>
<polygon fill="midnightblue" stroke="midnightblue" points="418.708,-182.937 428.945,-180.207 419.239,-175.957 418.708,-182.937"/>
</g>
<!-- Node14 -->
<g id="node5" class="node"><title>Node14</title>
<g id="a_node5"><a xlink:href="../../d0/d09/_fis_exporter_8h.html" target="_top" xlink:title="fuzzylite/fl/imex/FisExporter.h">
<polygon fill="white" stroke="black" points="258.507,-120.5 258.507,-138.5 403.995,-138.5 403.995,-120.5 258.507,-120.5"/>
<text text-anchor="middle" x="331.251" y="-126.5" font-family="Helvetica,sans-Serif" font-size="10.00">fuzzylite/fl/imex/FisExporter.h</text>
</a>
</g>
</g>
<!-- Node10&#45;&gt;Node14 -->
<g id="edge5" class="edge"><title>Node10&#45;&gt;Node14</title>
<path fill="none" stroke="midnightblue" d="M460.711,-172.338C429.398,-162.218 384.005,-147.549 356.124,-138.538"/>
<polygon fill="midnightblue" stroke="midnightblue" points="459.751,-175.706 470.343,-175.45 461.904,-169.045 459.751,-175.706"/>
</g>
<!-- Node15 -->
<g id="node6" class="node"><title>Node15</title>
<g id="a_node6"><a xlink:href="../../d1/d85/_fld_exporter_8h.html" target="_top" xlink:title="fuzzylite/fl/imex/FldExporter.h">
<polygon fill="white" stroke="black" points="422.227,-120.5 422.227,-138.5 568.275,-138.5 568.275,-120.5 422.227,-120.5"/>
<text text-anchor="middle" x="495.251" y="-126.5" font-family="Helvetica,sans-Serif" font-size="10.00">fuzzylite/fl/imex/FldExporter.h</text>
</a>
</g>
</g>
<!-- Node10&#45;&gt;Node15 -->
<g id="edge7" class="edge"><title>Node10&#45;&gt;Node15</title>
<path fill="none" stroke="midnightblue" d="M495.251,-165.175C495.251,-156.094 495.251,-145.595 495.251,-138.55"/>
<polygon fill="midnightblue" stroke="midnightblue" points="491.751,-165.219 495.251,-175.219 498.751,-165.219 491.751,-165.219"/>
</g>
<!-- Node17 -->
<g id="node8" class="node"><title>Node17</title>
<g id="a_node8"><a xlink:href="../../d4/d88/_r_script_exporter_8h.html" target="_top" xlink:title="fuzzylite/fl/imex/RScript\lExporter.h">
<polygon fill="white" stroke="black" points="547.574,-55.5 547.574,-83.5 666.928,-83.5 666.928,-55.5 547.574,-55.5"/>
<text text-anchor="start" x="555.574" y="-71.5" font-family="Helvetica,sans-Serif" font-size="10.00">fuzzylite/fl/imex/RScript</text>
<text text-anchor="middle" x="607.251" y="-61.5" font-family="Helvetica,sans-Serif" font-size="10.00">Exporter.h</text>
</a>
</g>
</g>
<!-- Node10&#45;&gt;Node17 -->
<g id="edge17" class="edge"><title>Node10&#45;&gt;Node17</title>
<path fill="none" stroke="midnightblue" d="M528.462,-171.504C544.879,-164.199 563.967,-153.456 577.251,-139 592.009,-122.94 600.317,-98.4583 604.285,-83.5248"/>
<polygon fill="midnightblue" stroke="midnightblue" points="527.031,-168.309 519.168,-175.41 529.743,-174.762 527.031,-168.309"/>
</g>
<!-- Node18 -->
<g id="node9" class="node"><title>Node18</title>
<g id="a_node9"><a xlink:href="../../d1/d84/_fll_exporter_8h.html" target="_top" xlink:title="fuzzylite/fl/imex/FllExporter.h">
<polygon fill="white" stroke="black" points="623.896,-120.5 623.896,-138.5 766.605,-138.5 766.605,-120.5 623.896,-120.5"/>
<text text-anchor="middle" x="695.251" y="-126.5" font-family="Helvetica,sans-Serif" font-size="10.00">fuzzylite/fl/imex/FllExporter.h</text>
</a>
</g>
</g>
<!-- Node10&#45;&gt;Node18 -->
<g id="edge13" class="edge"><title>Node10&#45;&gt;Node18</title>
<path fill="none" stroke="midnightblue" d="M535.405,-172.859C573.636,-162.728 630.328,-147.705 664.918,-138.538"/>
<polygon fill="midnightblue" stroke="midnightblue" points="534.396,-169.506 525.627,-175.45 536.19,-176.272 534.396,-169.506"/>
</g>
<!-- Node19 -->
<g id="node10" class="node"><title>Node19</title>
<g id="a_node10"><a xlink:href="../../d8/d36/_java_exporter_8h.html" target="_top" xlink:title="fuzzylite/fl/imex/JavaExporter.h">
<polygon fill="white" stroke="black" points="784.611,-120.5 784.611,-138.5 937.891,-138.5 937.891,-120.5 784.611,-120.5"/>
<text text-anchor="middle" x="861.251" y="-126.5" font-family="Helvetica,sans-Serif" font-size="10.00">fuzzylite/fl/imex/JavaExporter.h</text>
</a>
</g>
</g>
<!-- Node10&#45;&gt;Node19 -->
<g id="edge15" class="edge"><title>Node10&#45;&gt;Node19</title>
<path fill="none" stroke="midnightblue" d="M560.847,-174.001C630.689,-163.887 740.018,-148.056 805.741,-138.538"/>
<polygon fill="midnightblue" stroke="midnightblue" points="560.234,-170.553 550.838,-175.45 561.237,-177.481 560.234,-170.553"/>
</g>
<!-- Node12 -->
<g id="node3" class="node"><title>Node12</title>
<g id="a_node3"><a xlink:href="../../db/d5f/_headers_8h.html" target="_top" xlink:title="fuzzylite/fl/Headers.h">
<polygon fill="white" stroke="black" points="369.842,-0.5 369.842,-18.5 478.66,-18.5 478.66,-0.5 369.842,-0.5"/>
<text text-anchor="middle" x="424.251" y="-6.5" font-family="Helvetica,sans-Serif" font-size="10.00">fuzzylite/fl/Headers.h</text>
</a>
</g>
</g>
<!-- Node11&#45;&gt;Node12 -->
<g id="edge2" class="edge"><title>Node11&#45;&gt;Node12</title>
<path fill="none" stroke="midnightblue" d="M133.529,-58.8149C201.519,-47.5157 312.673,-29.0431 376.025,-18.5147"/>
<polygon fill="midnightblue" stroke="midnightblue" points="132.702,-55.4041 123.412,-60.4962 133.85,-62.3094 132.702,-55.4041"/>
</g>
<!-- Node13&#45;&gt;Node12 -->
<g id="edge4" class="edge"><title>Node13&#45;&gt;Node12</title>
<path fill="none" stroke="midnightblue" d="M276.257,-57.4052C312.06,-46.0578 366.822,-28.7016 398.727,-18.5894"/>
<polygon fill="midnightblue" stroke="midnightblue" points="275.172,-54.0776 266.696,-60.4353 277.286,-60.7504 275.172,-54.0776"/>
</g>
<!-- Node14&#45;&gt;Node12 -->
<g id="edge6" class="edge"><title>Node14&#45;&gt;Node12</title>
<path fill="none" stroke="midnightblue" d="M343.923,-112.421C364.042,-86.8943 402.571,-38.0085 417.814,-18.6674"/>
<polygon fill="midnightblue" stroke="midnightblue" points="341.084,-110.369 337.643,-120.389 346.582,-114.702 341.084,-110.369"/>
</g>
<!-- Node15&#45;&gt;Node12 -->
<g id="edge10" class="edge"><title>Node15&#45;&gt;Node12</title>
<path fill="none" stroke="midnightblue" d="M444.675,-117.053C427.232,-110.421 409.513,-100.067 399.251,-84 385.612,-62.6445 405.488,-33.0159 417.009,-18.7824"/>
<polygon fill="midnightblue" stroke="midnightblue" points="443.693,-120.416 454.288,-120.367 445.975,-113.799 443.693,-120.416"/>
</g>
<!-- Node16 -->
<g id="node7" class="node"><title>Node16</title>
<g id="a_node7"><a xlink:href="../../dd/dc0/_benchmark_8h.html" target="_top" xlink:title="fuzzylite/fl/Benchmark.h">
<polygon fill="white" stroke="black" points="408.453,-60.5 408.453,-78.5 530.049,-78.5 530.049,-60.5 408.453,-60.5"/>
<text text-anchor="middle" x="469.251" y="-66.5" font-family="Helvetica,sans-Serif" font-size="10.00">fuzzylite/fl/Benchmark.h</text>
</a>
</g>
</g>
<!-- Node15&#45;&gt;Node16 -->
<g id="edge8" class="edge"><title>Node15&#45;&gt;Node16</title>
<path fill="none" stroke="midnightblue" d="M487.502,-111.213C482.712,-100.528 476.779,-87.2937 473.004,-78.8718"/>
<polygon fill="midnightblue" stroke="midnightblue" points="484.351,-112.742 491.636,-120.435 490.739,-109.879 484.351,-112.742"/>
</g>
<!-- Node15&#45;&gt;Node17 -->
<g id="edge11" class="edge"><title>Node15&#45;&gt;Node17</title>
<path fill="none" stroke="midnightblue" d="M519.768,-115.804C538.177,-106.27 563.31,-93.2549 581.915,-83.6203"/>
<polygon fill="midnightblue" stroke="midnightblue" points="518.095,-112.729 510.824,-120.435 521.314,-118.945 518.095,-112.729"/>
</g>
<!-- Node16&#45;&gt;Node12 -->
<g id="edge9" class="edge"><title>Node16&#45;&gt;Node12</title>
<path fill="none" stroke="midnightblue" d="M456.854,-52.5211C448.402,-41.6278 437.55,-27.641 430.746,-18.8718"/>
<polygon fill="midnightblue" stroke="midnightblue" points="454.099,-54.68 462.994,-60.4353 459.629,-50.389 454.099,-54.68"/>
</g>
<!-- Node17&#45;&gt;Node12 -->
<g id="edge12" class="edge"><title>Node17&#45;&gt;Node12</title>
<path fill="none" stroke="midnightblue" d="M556.218,-52.3256C521.525,-41.3299 477.112,-27.2536 449.678,-18.5587"/>
<polygon fill="midnightblue" stroke="midnightblue" points="555.592,-55.7988 566.182,-55.4837 557.707,-49.1259 555.592,-55.7988"/>
</g>
<!-- Node18&#45;&gt;Node12 -->
<g id="edge14" class="edge"><title>Node18&#45;&gt;Node12</title>
<path fill="none" stroke="midnightblue" d="M695.729,-110.006C695.1,-93.199 691.347,-68.9593 676.251,-55 648.199,-29.0599 544.085,-17.8888 478.781,-13.3506"/>
<polygon fill="midnightblue" stroke="midnightblue" points="692.229,-110.25 695.766,-120.237 699.229,-110.224 692.229,-110.25"/>
</g>
<!-- Node19&#45;&gt;Node12 -->
<g id="edge16" class="edge"><title>Node19&#45;&gt;Node12</title>
<path fill="none" stroke="midnightblue" d="M837.795,-115.542C806.787,-98.9762 750.019,-70.5786 698.251,-55 623.952,-32.6411 534.734,-20.8047 478.749,-15.099"/>
<polygon fill="midnightblue" stroke="midnightblue" points="836.457,-118.797 846.918,-120.474 839.786,-112.639 836.457,-118.797"/>
</g>
</g>
</svg>
