<?xml version="1.0" encoding="UTF-8" standalone="no"?>
<!DOCTYPE svg PUBLIC "-//W3C//DTD SVG 1.1//EN"
 "http://www.w3.org/Graphics/SVG/1.1/DTD/svg11.dtd">
<!-- Generated by graphviz version 2.38.0 (20140413.2041)
 -->
<!-- Title: fuzzylite/fl/rule/Consequent.h Pages: 1 -->
<svg width="178pt" height="137pt"
 viewBox="0.00 0.00 177.72 137.00" xmlns="http://www.w3.org/2000/svg" xmlns:xlink="http://www.w3.org/1999/xlink">
<g id="graph0" class="graph" transform="scale(1 1) rotate(0) translate(4 133)">
<title>fuzzylite/fl/rule/Consequent.h</title>
<polygon fill="white" stroke="none" points="-4,4 -4,-133 173.721,-133 173.721,4 -4,4"/>
<!-- Node12 -->
<g id="node1" class="node"><title>Node12</title>
<polygon fill="#bfbfbf" stroke="black" points="0,-110.5 0,-128.5 144.403,-128.5 144.403,-110.5 0,-110.5"/>
<text text-anchor="middle" x="72.2017" y="-116.5" font-family="Helvetica,sans-Serif" font-size="10.00">fuzzylite/fl/rule/Consequent.h</text>
</g>
<!-- Node13 -->
<g id="node2" class="node"><title>Node13</title>
<g id="a_node2"><a xlink:href="../../db/d5f/_headers_8h.html" target="_top" xlink:title="fuzzylite/fl/Headers.h">
<polygon fill="white" stroke="black" points="17.793,-0.5 17.793,-18.5 126.61,-18.5 126.61,-0.5 17.793,-0.5"/>
<text text-anchor="middle" x="72.2017" y="-6.5" font-family="Helvetica,sans-Serif" font-size="10.00">fuzzylite/fl/Headers.h</text>
</a>
</g>
</g>
<!-- Node12&#45;&gt;Node13 -->
<g id="edge1" class="edge"><title>Node12&#45;&gt;Node13</title>
<path fill="none" stroke="midnightblue" d="M61.1271,-101.752C56.4605,-93.7147 51.5681,-83.7325 49.2017,-74 44.2152,-53.4922 57.6118,-30.4301 66.0055,-18.5444"/>
<polygon fill="midnightblue" stroke="midnightblue" points="58.2747,-103.794 66.5223,-110.444 64.2221,-100.102 58.2747,-103.794"/>
</g>
<!-- Node14 -->
<g id="node3" class="node"><title>Node14</title>
<g id="a_node3"><a xlink:href="../../db/d10/_rule_8h.html" target="_top" xlink:title="fuzzylite/fl/rule/Rule.h">
<polygon fill="white" stroke="black" points="58.6821,-55.5 58.6821,-73.5 169.721,-73.5 169.721,-55.5 58.6821,-55.5"/>
<text text-anchor="middle" x="114.202" y="-61.5" font-family="Helvetica,sans-Serif" font-size="10.00">fuzzylite/fl/rule/Rule.h</text>
</a>
</g>
</g>
<!-- Node12&#45;&gt;Node14 -->
<g id="edge2" class="edge"><title>Node12&#45;&gt;Node14</title>
<path fill="none" stroke="midnightblue" d="M85.0849,-102.243C92.623,-92.7302 101.81,-81.1369 107.823,-73.5496"/>
<polygon fill="midnightblue" stroke="midnightblue" points="82.2319,-100.207 78.7642,-110.219 87.7181,-104.555 82.2319,-100.207"/>
</g>
<!-- Node14&#45;&gt;Node13 -->
<g id="edge3" class="edge"><title>Node14&#45;&gt;Node13</title>
<path fill="none" stroke="midnightblue" d="M101.318,-47.2426C93.7803,-37.7302 84.5932,-26.1369 78.5806,-18.5496"/>
<polygon fill="midnightblue" stroke="midnightblue" points="98.6852,-49.5551 107.639,-55.2188 104.171,-45.2075 98.6852,-49.5551"/>
</g>
</g>
</svg>
