<?xml version="1.0" encoding="UTF-8" standalone="no"?>
<!DOCTYPE svg PUBLIC "-//W3C//DTD SVG 1.1//EN"
 "http://www.w3.org/Graphics/SVG/1.1/DTD/svg11.dtd">
<!-- Generated by graphviz version 2.38.0 (20140413.2041)
 -->
<!-- Title: fuzzylite/fl/defuzzifier/WeightedDefuzzifier.h Pages: 1 -->
<svg width="618pt" height="222pt"
 viewBox="0.00 0.00 617.61 222.00" xmlns="http://www.w3.org/2000/svg" xmlns:xlink="http://www.w3.org/1999/xlink">
<g id="graph0" class="graph" transform="scale(1 1) rotate(0) translate(4 218)">
<title>fuzzylite/fl/defuzzifier/WeightedDefuzzifier.h</title>
<polygon fill="white" stroke="none" points="-4,4 -4,-218 613.606,-218 613.606,4 -4,4"/>
<!-- Node13 -->
<g id="node1" class="node"><title>Node13</title>
<polygon fill="#bfbfbf" stroke="black" points="225.189,-185.5 225.189,-213.5 341.067,-213.5 341.067,-185.5 225.189,-185.5"/>
<text text-anchor="start" x="233.189" y="-201.5" font-family="Helvetica,sans-Serif" font-size="10.00">fuzzylite/fl/defuzzifier</text>
<text text-anchor="middle" x="283.128" y="-191.5" font-family="Helvetica,sans-Serif" font-size="10.00">/WeightedDefuzzifier.h</text>
</g>
<!-- Node14 -->
<g id="node2" class="node"><title>Node14</title>
<g id="a_node2"><a xlink:href="../../d4/db7/_weighted_average_8h.html" target="_top" xlink:title="fuzzylite/fl/defuzzifier\l/WeightedAverage.h">
<polygon fill="white" stroke="black" points="0,-55.5 0,-83.5 108.256,-83.5 108.256,-55.5 0,-55.5"/>
<text text-anchor="start" x="8" y="-71.5" font-family="Helvetica,sans-Serif" font-size="10.00">fuzzylite/fl/defuzzifier</text>
<text text-anchor="middle" x="54.1279" y="-61.5" font-family="Helvetica,sans-Serif" font-size="10.00">/WeightedAverage.h</text>
</a>
</g>
</g>
<!-- Node13&#45;&gt;Node14 -->
<g id="edge1" class="edge"><title>Node13&#45;&gt;Node14</title>
<path fill="none" stroke="midnightblue" d="M214.976,-186.439C184.824,-178.938 149.971,-167.147 122.128,-149 95.5422,-131.672 73.3712,-101.067 62.1106,-83.6303"/>
<polygon fill="midnightblue" stroke="midnightblue" points="214.466,-189.915 225.004,-188.821 216.084,-183.104 214.466,-189.915"/>
</g>
<!-- Node15 -->
<g id="node3" class="node"><title>Node15</title>
<g id="a_node3"><a xlink:href="../../db/d5f/_headers_8h.html" target="_top" xlink:title="fuzzylite/fl/Headers.h">
<polygon fill="white" stroke="black" points="277.719,-0.5 277.719,-18.5 386.537,-18.5 386.537,-0.5 277.719,-0.5"/>
<text text-anchor="middle" x="332.128" y="-6.5" font-family="Helvetica,sans-Serif" font-size="10.00">fuzzylite/fl/Headers.h</text>
</a>
</g>
</g>
<!-- Node13&#45;&gt;Node15 -->
<g id="edge11" class="edge"><title>Node13&#45;&gt;Node15</title>
<path fill="none" stroke="midnightblue" d="M214.904,-183.701C175.823,-171.592 137.698,-151.279 155.128,-120 186.876,-63.0265 261.847,-31.9583 303.307,-18.5883"/>
<polygon fill="midnightblue" stroke="midnightblue" points="214.247,-187.156 224.827,-186.605 216.213,-180.437 214.247,-187.156"/>
</g>
<!-- Node16 -->
<g id="node4" class="node"><title>Node16</title>
<g id="a_node4"><a xlink:href="../../dd/d71/_weighted_average_custom_8h.html" target="_top" xlink:title="fuzzylite/fl/defuzzifier\l/WeightedAverageCustom.h">
<polygon fill="white" stroke="black" points="163.772,-120.5 163.772,-148.5 304.484,-148.5 304.484,-120.5 163.772,-120.5"/>
<text text-anchor="start" x="171.772" y="-136.5" font-family="Helvetica,sans-Serif" font-size="10.00">fuzzylite/fl/defuzzifier</text>
<text text-anchor="middle" x="234.128" y="-126.5" font-family="Helvetica,sans-Serif" font-size="10.00">/WeightedAverageCustom.h</text>
</a>
</g>
</g>
<!-- Node13&#45;&gt;Node16 -->
<g id="edge3" class="edge"><title>Node13&#45;&gt;Node16</title>
<path fill="none" stroke="midnightblue" d="M266.804,-177.512C259.356,-167.936 250.769,-156.896 244.268,-148.537"/>
<polygon fill="midnightblue" stroke="midnightblue" points="264.073,-179.702 272.975,-185.446 269.598,-175.404 264.073,-179.702"/>
</g>
<!-- Node17 -->
<g id="node5" class="node"><title>Node17</title>
<g id="a_node5"><a xlink:href="../../d0/da1/_weighted_sum_8h.html" target="_top" xlink:title="fuzzylite/fl/defuzzifier\l/WeightedSum.h">
<polygon fill="white" stroke="black" points="278,-55.5 278,-83.5 386.256,-83.5 386.256,-55.5 278,-55.5"/>
<text text-anchor="start" x="286" y="-71.5" font-family="Helvetica,sans-Serif" font-size="10.00">fuzzylite/fl/defuzzifier</text>
<text text-anchor="middle" x="332.128" y="-61.5" font-family="Helvetica,sans-Serif" font-size="10.00">/WeightedSum.h</text>
</a>
</g>
</g>
<!-- Node13&#45;&gt;Node17 -->
<g id="edge4" class="edge"><title>Node13&#45;&gt;Node17</title>
<path fill="none" stroke="midnightblue" d="M298.267,-176.799C303.575,-168.414 309.189,-158.551 313.128,-149 322.216,-126.963 327.613,-99.5772 330.213,-83.6641"/>
<polygon fill="midnightblue" stroke="midnightblue" points="295.292,-174.953 292.721,-185.231 301.14,-178.8 295.292,-174.953"/>
</g>
<!-- Node18 -->
<g id="node6" class="node"><title>Node18</title>
<g id="a_node6"><a xlink:href="../../dd/d60/_weighted_sum_custom_8h.html" target="_top" xlink:title="fuzzylite/fl/defuzzifier\l/WeightedSumCustom.h">
<polygon fill="white" stroke="black" points="360.026,-120.5 360.026,-148.5 484.229,-148.5 484.229,-120.5 360.026,-120.5"/>
<text text-anchor="start" x="368.026" y="-136.5" font-family="Helvetica,sans-Serif" font-size="10.00">fuzzylite/fl/defuzzifier</text>
<text text-anchor="middle" x="422.128" y="-126.5" font-family="Helvetica,sans-Serif" font-size="10.00">/WeightedSumCustom.h</text>
</a>
</g>
</g>
<!-- Node13&#45;&gt;Node18 -->
<g id="edge6" class="edge"><title>Node13&#45;&gt;Node18</title>
<path fill="none" stroke="midnightblue" d="M321.299,-181.199C344.064,-170.882 372.499,-157.994 393.364,-148.537"/>
<polygon fill="midnightblue" stroke="midnightblue" points="319.592,-178.13 311.929,-185.446 322.482,-184.506 319.592,-178.13"/>
</g>
<!-- Node19 -->
<g id="node7" class="node"><title>Node19</title>
<g id="a_node7"><a xlink:href="../../d3/d9c/_defuzzifier_factory_8h.html" target="_top" xlink:title="fuzzylite/fl/factory\l/DefuzzifierFactory.h">
<polygon fill="white" stroke="black" points="502.649,-120.5 502.649,-148.5 609.606,-148.5 609.606,-120.5 502.649,-120.5"/>
<text text-anchor="start" x="510.649" y="-136.5" font-family="Helvetica,sans-Serif" font-size="10.00">fuzzylite/fl/factory</text>
<text text-anchor="middle" x="556.128" y="-126.5" font-family="Helvetica,sans-Serif" font-size="10.00">/DefuzzifierFactory.h</text>
</a>
</g>
</g>
<!-- Node13&#45;&gt;Node19 -->
<g id="edge7" class="edge"><title>Node13&#45;&gt;Node19</title>
<path fill="none" stroke="midnightblue" d="M349.469,-183.19C396.42,-172.356 458.578,-158.012 502.421,-147.894"/>
<polygon fill="midnightblue" stroke="midnightblue" points="348.651,-179.787 339.694,-185.446 350.225,-186.608 348.651,-179.787"/>
</g>
<!-- Node14&#45;&gt;Node15 -->
<g id="edge2" class="edge"><title>Node14&#45;&gt;Node15</title>
<path fill="none" stroke="midnightblue" d="M118.249,-55.1223C172.469,-43.8101 248.358,-27.9773 293.645,-18.5287"/>
<polygon fill="midnightblue" stroke="midnightblue" points="117.463,-51.7107 108.389,-57.1793 118.893,-58.5631 117.463,-51.7107"/>
</g>
<!-- Node17&#45;&gt;Node15 -->
<g id="edge5" class="edge"><title>Node17&#45;&gt;Node15</title>
<path fill="none" stroke="midnightblue" d="M332.128,-45.323C332.128,-35.936 332.128,-25.7002 332.128,-18.7715"/>
<polygon fill="midnightblue" stroke="midnightblue" points="328.628,-45.3389 332.128,-55.3389 335.628,-45.3389 328.628,-45.3389"/>
</g>
<!-- Node19&#45;&gt;Node15 -->
<g id="edge10" class="edge"><title>Node19&#45;&gt;Node15</title>
<path fill="none" stroke="midnightblue" d="M523.135,-115.383C473.636,-88.203 382.184,-37.986 346.717,-18.5111"/>
<polygon fill="midnightblue" stroke="midnightblue" points="521.706,-118.592 532.156,-120.337 525.075,-112.456 521.706,-118.592"/>
</g>
<!-- Node20 -->
<g id="node8" class="node"><title>Node20</title>
<g id="a_node8"><a xlink:href="../../d8/d89/_factory_manager_8h.html" target="_top" xlink:title="fuzzylite/fl/factory\l/FactoryManager.h">
<polygon fill="white" stroke="black" points="490.438,-55.5 490.438,-83.5 589.817,-83.5 589.817,-55.5 490.438,-55.5"/>
<text text-anchor="start" x="498.438" y="-71.5" font-family="Helvetica,sans-Serif" font-size="10.00">fuzzylite/fl/factory</text>
<text text-anchor="middle" x="540.128" y="-61.5" font-family="Helvetica,sans-Serif" font-size="10.00">/FactoryManager.h</text>
</a>
</g>
</g>
<!-- Node19&#45;&gt;Node20 -->
<g id="edge8" class="edge"><title>Node19&#45;&gt;Node20</title>
<path fill="none" stroke="midnightblue" d="M550.277,-110.46C547.973,-101.388 545.412,-91.305 543.439,-83.5369"/>
<polygon fill="midnightblue" stroke="midnightblue" points="546.959,-111.616 552.813,-120.446 553.743,-109.892 546.959,-111.616"/>
</g>
<!-- Node20&#45;&gt;Node15 -->
<g id="edge9" class="edge"><title>Node20&#45;&gt;Node15</title>
<path fill="none" stroke="midnightblue" d="M483.641,-52.7488C443.994,-41.6933 392.611,-27.3656 361.028,-18.5587"/>
<polygon fill="midnightblue" stroke="midnightblue" points="482.876,-56.169 493.449,-55.4837 484.756,-49.4262 482.876,-56.169"/>
</g>
</g>
</svg>
