<?xml version="1.0" encoding="UTF-8" standalone="no"?>
<!DOCTYPE svg PUBLIC "-//W3C//DTD SVG 1.1//EN"
 "http://www.w3.org/Graphics/SVG/1.1/DTD/svg11.dtd">
<!-- Generated by graphviz version 2.38.0 (20140413.2041)
 -->
<!-- Title: fuzzylite/fl/imex/FldExporter.h Pages: 1 -->
<svg width="305pt" height="147pt"
 viewBox="0.00 0.00 305.48 147.00" xmlns="http://www.w3.org/2000/svg" xmlns:xlink="http://www.w3.org/1999/xlink">
<g id="graph0" class="graph" transform="scale(1 1) rotate(0) translate(4 143)">
<title>fuzzylite/fl/imex/FldExporter.h</title>
<polygon fill="white" stroke="none" points="-4,4 -4,-143 301.475,-143 301.475,4 -4,4"/>
<!-- Node12 -->
<g id="node1" class="node"><title>Node12</title>
<polygon fill="#bfbfbf" stroke="black" points="76.7734,-120.5 76.7734,-138.5 222.822,-138.5 222.822,-120.5 76.7734,-120.5"/>
<text text-anchor="middle" x="149.798" y="-126.5" font-family="Helvetica,sans-Serif" font-size="10.00">fuzzylite/fl/imex/FldExporter.h</text>
</g>
<!-- Node13 -->
<g id="node2" class="node"><title>Node13</title>
<g id="a_node2"><a xlink:href="../../dd/dc0/_benchmark_8h.html" target="_top" xlink:title="fuzzylite/fl/Benchmark.h">
<polygon fill="white" stroke="black" points="0,-60.5 0,-78.5 121.596,-78.5 121.596,-60.5 0,-60.5"/>
<text text-anchor="middle" x="60.7979" y="-66.5" font-family="Helvetica,sans-Serif" font-size="10.00">fuzzylite/fl/Benchmark.h</text>
</a>
</g>
</g>
<!-- Node12&#45;&gt;Node13 -->
<g id="edge1" class="edge"><title>Node12&#45;&gt;Node13</title>
<path fill="none" stroke="midnightblue" d="M128.627,-114.704C111.412,-103.484 87.7006,-88.0322 73.3547,-78.6831"/>
<polygon fill="midnightblue" stroke="midnightblue" points="127.134,-117.908 137.423,-120.435 130.956,-112.043 127.134,-117.908"/>
</g>
<!-- Node14 -->
<g id="node3" class="node"><title>Node14</title>
<g id="a_node3"><a xlink:href="../../db/d5f/_headers_8h.html" target="_top" xlink:title="fuzzylite/fl/Headers.h">
<polygon fill="white" stroke="black" points="95.3892,-0.5 95.3892,-18.5 204.207,-18.5 204.207,-0.5 95.3892,-0.5"/>
<text text-anchor="middle" x="149.798" y="-6.5" font-family="Helvetica,sans-Serif" font-size="10.00">fuzzylite/fl/Headers.h</text>
</a>
</g>
</g>
<!-- Node12&#45;&gt;Node14 -->
<g id="edge3" class="edge"><title>Node12&#45;&gt;Node14</title>
<path fill="none" stroke="midnightblue" d="M149.798,-110.367C149.798,-84.3529 149.798,-37.5017 149.798,-18.6674"/>
<polygon fill="midnightblue" stroke="midnightblue" points="146.298,-110.389 149.798,-120.389 153.298,-110.389 146.298,-110.389"/>
</g>
<!-- Node15 -->
<g id="node4" class="node"><title>Node15</title>
<g id="a_node4"><a xlink:href="../../d4/d88/_r_script_exporter_8h.html" target="_top" xlink:title="fuzzylite/fl/imex/RScript\lExporter.h">
<polygon fill="white" stroke="black" points="178.121,-55.5 178.121,-83.5 297.475,-83.5 297.475,-55.5 178.121,-55.5"/>
<text text-anchor="start" x="186.121" y="-71.5" font-family="Helvetica,sans-Serif" font-size="10.00">fuzzylite/fl/imex/RScript</text>
<text text-anchor="middle" x="237.798" y="-61.5" font-family="Helvetica,sans-Serif" font-size="10.00">Exporter.h</text>
</a>
</g>
</g>
<!-- Node12&#45;&gt;Node15 -->
<g id="edge4" class="edge"><title>Node12&#45;&gt;Node15</title>
<path fill="none" stroke="midnightblue" d="M170.674,-114.74C184.968,-105.32 203.81,-92.9014 217.891,-83.6203"/>
<polygon fill="midnightblue" stroke="midnightblue" points="168.457,-112.01 162.034,-120.435 172.31,-117.855 168.457,-112.01"/>
</g>
<!-- Node13&#45;&gt;Node14 -->
<g id="edge2" class="edge"><title>Node13&#45;&gt;Node14</title>
<path fill="none" stroke="midnightblue" d="M81.9683,-54.7035C99.1841,-43.4842 122.895,-28.0322 137.241,-18.6831"/>
<polygon fill="midnightblue" stroke="midnightblue" points="79.64,-52.0432 73.1729,-60.4353 83.4619,-57.9078 79.64,-52.0432"/>
</g>
<!-- Node15&#45;&gt;Node14 -->
<g id="edge5" class="edge"><title>Node15&#45;&gt;Node14</title>
<path fill="none" stroke="midnightblue" d="M209.345,-49.7468C193.377,-39.2226 174.275,-26.6323 162.09,-18.6018"/>
<polygon fill="midnightblue" stroke="midnightblue" points="207.554,-52.7581 217.829,-55.3389 211.406,-46.9134 207.554,-52.7581"/>
</g>
</g>
</svg>
