<?xml version="1.0" encoding="UTF-8" standalone="no"?>
<!DOCTYPE svg PUBLIC "-//W3C//DTD SVG 1.1//EN"
 "http://www.w3.org/Graphics/SVG/1.1/DTD/svg11.dtd">
<!-- Generated by graphviz version 2.38.0 (20140413.2041)
 -->
<!-- Title: fuzzylite/fl/factory/ConstructionFactory.h Pages: 1 -->
<svg width="704pt" height="222pt"
 viewBox="0.00 0.00 704.26 222.00" xmlns="http://www.w3.org/2000/svg" xmlns:xlink="http://www.w3.org/1999/xlink">
<g id="graph0" class="graph" transform="scale(1 1) rotate(0) translate(4 218)">
<title>fuzzylite/fl/factory/ConstructionFactory.h</title>
<polygon fill="white" stroke="none" points="-4,4 -4,-218 700.259,-218 700.259,4 -4,4"/>
<!-- Node25 -->
<g id="node1" class="node"><title>Node25</title>
<polygon fill="#bfbfbf" stroke="black" points="258.985,-185.5 258.985,-213.5 374.843,-213.5 374.843,-185.5 258.985,-185.5"/>
<text text-anchor="start" x="266.985" y="-201.5" font-family="Helvetica,sans-Serif" font-size="10.00">fuzzylite/fl/factory</text>
<text text-anchor="middle" x="316.914" y="-191.5" font-family="Helvetica,sans-Serif" font-size="10.00">/ConstructionFactory.h</text>
</g>
<!-- Node26 -->
<g id="node2" class="node"><title>Node26</title>
<g id="a_node2"><a xlink:href="../../d0/d04/_activation_factory_8h.html" target="_top" xlink:title="fuzzylite/fl/factory\l/ActivationFactory.h">
<polygon fill="white" stroke="black" points="24.3765,-120.5 24.3765,-148.5 127.452,-148.5 127.452,-120.5 24.3765,-120.5"/>
<text text-anchor="start" x="32.3765" y="-136.5" font-family="Helvetica,sans-Serif" font-size="10.00">fuzzylite/fl/factory</text>
<text text-anchor="middle" x="75.9141" y="-126.5" font-family="Helvetica,sans-Serif" font-size="10.00">/ActivationFactory.h</text>
</a>
</g>
</g>
<!-- Node25&#45;&gt;Node26 -->
<g id="edge1" class="edge"><title>Node25&#45;&gt;Node26</title>
<path fill="none" stroke="midnightblue" d="M257.244,-182.902C216.806,-172.331 163.98,-158.521 125.785,-148.537"/>
<polygon fill="midnightblue" stroke="midnightblue" points="256.419,-186.303 266.979,-185.446 258.189,-179.531 256.419,-186.303"/>
</g>
<!-- Node28 -->
<g id="node4" class="node"><title>Node28</title>
<g id="a_node4"><a xlink:href="../../db/d5f/_headers_8h.html" target="_top" xlink:title="fuzzylite/fl/Headers.h">
<polygon fill="white" stroke="black" points="256.505,-0.5 256.505,-18.5 365.323,-18.5 365.323,-0.5 256.505,-0.5"/>
<text text-anchor="middle" x="310.914" y="-6.5" font-family="Helvetica,sans-Serif" font-size="10.00">fuzzylite/fl/Headers.h</text>
</a>
</g>
</g>
<!-- Node25&#45;&gt;Node28 -->
<g id="edge20" class="edge"><title>Node25&#45;&gt;Node28</title>
<path fill="none" stroke="midnightblue" d="M248.295,-197.181C168.593,-194.027 44.2526,-183.539 14.9141,-149 -56.7112,-64.6791 152.524,-28.456 256.304,-15.981"/>
<polygon fill="midnightblue" stroke="midnightblue" points="248.627,-200.695 258.748,-197.562 248.883,-193.7 248.627,-200.695"/>
</g>
<!-- Node29 -->
<g id="node5" class="node"><title>Node29</title>
<g id="a_node5"><a xlink:href="../../d3/d9c/_defuzzifier_factory_8h.html" target="_top" xlink:title="fuzzylite/fl/factory\l/DefuzzifierFactory.h">
<polygon fill="white" stroke="black" points="145.436,-120.5 145.436,-148.5 252.393,-148.5 252.393,-120.5 145.436,-120.5"/>
<text text-anchor="start" x="153.436" y="-136.5" font-family="Helvetica,sans-Serif" font-size="10.00">fuzzylite/fl/factory</text>
<text text-anchor="middle" x="198.914" y="-126.5" font-family="Helvetica,sans-Serif" font-size="10.00">/DefuzzifierFactory.h</text>
</a>
</g>
</g>
<!-- Node25&#45;&gt;Node29 -->
<g id="edge5" class="edge"><title>Node25&#45;&gt;Node29</title>
<path fill="none" stroke="midnightblue" d="M283.47,-180.644C264.324,-170.422 240.729,-157.825 223.332,-148.537"/>
<polygon fill="midnightblue" stroke="midnightblue" points="281.994,-183.824 292.464,-185.446 285.291,-177.649 281.994,-183.824"/>
</g>
<!-- Node30 -->
<g id="node6" class="node"><title>Node30</title>
<g id="a_node6"><a xlink:href="../../d0/d3d/_hedge_factory_8h.html" target="_top" xlink:title="fuzzylite/fl/factory\l/HedgeFactory.h">
<polygon fill="white" stroke="black" points="270.569,-120.5 270.569,-148.5 363.259,-148.5 363.259,-120.5 270.569,-120.5"/>
<text text-anchor="start" x="278.569" y="-136.5" font-family="Helvetica,sans-Serif" font-size="10.00">fuzzylite/fl/factory</text>
<text text-anchor="middle" x="316.914" y="-126.5" font-family="Helvetica,sans-Serif" font-size="10.00">/HedgeFactory.h</text>
</a>
</g>
</g>
<!-- Node25&#45;&gt;Node30 -->
<g id="edge8" class="edge"><title>Node25&#45;&gt;Node30</title>
<path fill="none" stroke="midnightblue" d="M316.914,-175.164C316.914,-166.169 316.914,-156.221 316.914,-148.537"/>
<polygon fill="midnightblue" stroke="midnightblue" points="313.414,-175.446 316.914,-185.446 320.414,-175.446 313.414,-175.446"/>
</g>
<!-- Node31 -->
<g id="node7" class="node"><title>Node31</title>
<g id="a_node7"><a xlink:href="../../d8/d70/_s_norm_factory_8h.html" target="_top" xlink:title="fuzzylite/fl/factory\l/SNormFactory.h">
<polygon fill="white" stroke="black" points="381.569,-120.5 381.569,-148.5 474.259,-148.5 474.259,-120.5 381.569,-120.5"/>
<text text-anchor="start" x="389.569" y="-136.5" font-family="Helvetica,sans-Serif" font-size="10.00">fuzzylite/fl/factory</text>
<text text-anchor="middle" x="427.914" y="-126.5" font-family="Helvetica,sans-Serif" font-size="10.00">/SNormFactory.h</text>
</a>
</g>
</g>
<!-- Node25&#45;&gt;Node31 -->
<g id="edge11" class="edge"><title>Node25&#45;&gt;Node31</title>
<path fill="none" stroke="midnightblue" d="M348.866,-180.365C366.787,-170.194 388.729,-157.74 404.944,-148.537"/>
<polygon fill="midnightblue" stroke="midnightblue" points="346.883,-177.466 339.913,-185.446 350.338,-183.554 346.883,-177.466"/>
</g>
<!-- Node32 -->
<g id="node8" class="node"><title>Node32</title>
<g id="a_node8"><a xlink:href="../../dd/de7/_term_factory_8h.html" target="_top" xlink:title="fuzzylite/fl/factory\l/TermFactory.h">
<polygon fill="white" stroke="black" points="492.569,-120.5 492.569,-148.5 585.259,-148.5 585.259,-120.5 492.569,-120.5"/>
<text text-anchor="start" x="500.569" y="-136.5" font-family="Helvetica,sans-Serif" font-size="10.00">fuzzylite/fl/factory</text>
<text text-anchor="middle" x="538.914" y="-126.5" font-family="Helvetica,sans-Serif" font-size="10.00">/TermFactory.h</text>
</a>
</g>
</g>
<!-- Node25&#45;&gt;Node32 -->
<g id="edge14" class="edge"><title>Node25&#45;&gt;Node32</title>
<path fill="none" stroke="midnightblue" d="M372.59,-182.7C409.746,-172.156 458.014,-158.458 492.974,-148.537"/>
<polygon fill="midnightblue" stroke="midnightblue" points="371.577,-179.349 362.913,-185.446 373.488,-186.083 371.577,-179.349"/>
</g>
<!-- Node33 -->
<g id="node9" class="node"><title>Node33</title>
<g id="a_node9"><a xlink:href="../../d8/d57/_t_norm_factory_8h.html" target="_top" xlink:title="fuzzylite/fl/factory\l/TNormFactory.h">
<polygon fill="white" stroke="black" points="603.569,-120.5 603.569,-148.5 696.259,-148.5 696.259,-120.5 603.569,-120.5"/>
<text text-anchor="start" x="611.569" y="-136.5" font-family="Helvetica,sans-Serif" font-size="10.00">fuzzylite/fl/factory</text>
<text text-anchor="middle" x="649.914" y="-126.5" font-family="Helvetica,sans-Serif" font-size="10.00">/TNormFactory.h</text>
</a>
</g>
</g>
<!-- Node25&#45;&gt;Node33 -->
<g id="edge17" class="edge"><title>Node25&#45;&gt;Node33</title>
<path fill="none" stroke="midnightblue" d="M385.126,-187.478C441.328,-178.116 523.022,-163.865 593.914,-149 597.046,-148.343 600.27,-147.64 603.514,-146.911"/>
<polygon fill="midnightblue" stroke="midnightblue" points="384.229,-184.078 374.937,-189.168 385.375,-190.984 384.229,-184.078"/>
</g>
<!-- Node27 -->
<g id="node3" class="node"><title>Node27</title>
<g id="a_node3"><a xlink:href="../../d8/d89/_factory_manager_8h.html" target="_top" xlink:title="fuzzylite/fl/factory\l/FactoryManager.h">
<polygon fill="white" stroke="black" points="300.225,-55.5 300.225,-83.5 399.604,-83.5 399.604,-55.5 300.225,-55.5"/>
<text text-anchor="start" x="308.225" y="-71.5" font-family="Helvetica,sans-Serif" font-size="10.00">fuzzylite/fl/factory</text>
<text text-anchor="middle" x="349.914" y="-61.5" font-family="Helvetica,sans-Serif" font-size="10.00">/FactoryManager.h</text>
</a>
</g>
</g>
<!-- Node26&#45;&gt;Node27 -->
<g id="edge2" class="edge"><title>Node26&#45;&gt;Node27</title>
<path fill="none" stroke="midnightblue" d="M137.636,-119.308C186.706,-108.026 254.463,-92.4468 300.114,-81.9503"/>
<polygon fill="midnightblue" stroke="midnightblue" points="136.735,-115.924 127.773,-121.576 138.304,-122.746 136.735,-115.924"/>
</g>
<!-- Node26&#45;&gt;Node28 -->
<g id="edge4" class="edge"><title>Node26&#45;&gt;Node28</title>
<path fill="none" stroke="midnightblue" d="M110.204,-115.552C162.058,-88.412 258.323,-38.0265 295.608,-18.5111"/>
<polygon fill="midnightblue" stroke="midnightblue" points="108.3,-112.599 101.063,-120.337 111.546,-118.8 108.3,-112.599"/>
</g>
<!-- Node27&#45;&gt;Node28 -->
<g id="edge3" class="edge"><title>Node27&#45;&gt;Node28</title>
<path fill="none" stroke="midnightblue" d="M335.342,-46.829C328.764,-37.0462 321.385,-26.0727 316.476,-18.7715"/>
<polygon fill="midnightblue" stroke="midnightblue" points="332.58,-48.9935 341.064,-55.3389 338.389,-45.0875 332.58,-48.9935"/>
</g>
<!-- Node29&#45;&gt;Node27 -->
<g id="edge6" class="edge"><title>Node29&#45;&gt;Node27</title>
<path fill="none" stroke="midnightblue" d="M239.72,-116.475C264.558,-106.112 295.798,-93.0781 318.667,-83.5369"/>
<polygon fill="midnightblue" stroke="midnightblue" points="238.083,-113.366 230.201,-120.446 240.778,-119.826 238.083,-113.366"/>
</g>
<!-- Node29&#45;&gt;Node28 -->
<g id="edge7" class="edge"><title>Node29&#45;&gt;Node28</title>
<path fill="none" stroke="midnightblue" d="M217.786,-112.775C242.985,-85.1009 286.439,-37.3787 303.619,-18.5111"/>
<polygon fill="midnightblue" stroke="midnightblue" points="215.045,-110.586 210.9,-120.337 220.221,-115.299 215.045,-110.586"/>
</g>
<!-- Node30&#45;&gt;Node27 -->
<g id="edge9" class="edge"><title>Node30&#45;&gt;Node27</title>
<path fill="none" stroke="midnightblue" d="M328.519,-111.344C333.389,-102.048 338.884,-91.5583 343.085,-83.5369"/>
<polygon fill="midnightblue" stroke="midnightblue" points="325.291,-109.964 323.752,-120.446 331.492,-113.212 325.291,-109.964"/>
</g>
<!-- Node30&#45;&gt;Node28 -->
<g id="edge10" class="edge"><title>Node30&#45;&gt;Node28</title>
<path fill="none" stroke="midnightblue" d="M302.543,-111.68C297.869,-103.37 293.279,-93.5866 290.914,-84 287.828,-71.4861 288.212,-67.6025 290.914,-55 293.79,-41.5833 301.035,-27.327 305.968,-18.6665"/>
<polygon fill="midnightblue" stroke="midnightblue" points="299.596,-113.572 307.741,-120.348 305.599,-109.972 299.596,-113.572"/>
</g>
<!-- Node31&#45;&gt;Node27 -->
<g id="edge12" class="edge"><title>Node31&#45;&gt;Node27</title>
<path fill="none" stroke="midnightblue" d="M403.711,-113.951C391.462,-104.058 376.927,-92.3182 366.055,-83.5369"/>
<polygon fill="midnightblue" stroke="midnightblue" points="401.774,-116.886 411.752,-120.446 406.172,-111.44 401.774,-116.886"/>
</g>
<!-- Node31&#45;&gt;Node28 -->
<g id="edge13" class="edge"><title>Node31&#45;&gt;Node28</title>
<path fill="none" stroke="midnightblue" d="M427.538,-110.055C426.108,-93.0508 421.669,-70.423 408.914,-55 393.433,-36.2809 368.403,-25.098 347.515,-18.6245"/>
<polygon fill="midnightblue" stroke="midnightblue" points="424.057,-110.492 428.101,-120.284 431.046,-110.107 424.057,-110.492"/>
</g>
<!-- Node32&#45;&gt;Node27 -->
<g id="edge15" class="edge"><title>Node32&#45;&gt;Node27</title>
<path fill="none" stroke="midnightblue" d="M489.891,-117.159C458.486,-106.691 418.282,-93.2892 389.025,-83.5369"/>
<polygon fill="midnightblue" stroke="midnightblue" points="489.159,-120.604 499.753,-120.446 491.373,-113.964 489.159,-120.604"/>
</g>
<!-- Node32&#45;&gt;Node28 -->
<g id="edge16" class="edge"><title>Node32&#45;&gt;Node28</title>
<path fill="none" stroke="midnightblue" d="M515.712,-113.978C494.429,-96.7745 461.504,-71.8904 429.914,-55 400.154,-39.088 363.46,-26.3008 338.751,-18.5868"/>
<polygon fill="midnightblue" stroke="midnightblue" points="513.587,-116.761 523.542,-120.386 518.02,-111.344 513.587,-116.761"/>
</g>
<!-- Node33&#45;&gt;Node27 -->
<g id="edge18" class="edge"><title>Node33&#45;&gt;Node27</title>
<path fill="none" stroke="midnightblue" d="M593.635,-119.988C520.414,-103.843 447.311,-89.3075 400.029,-80.113"/>
<polygon fill="midnightblue" stroke="midnightblue" points="592.976,-123.427 603.496,-122.172 594.49,-116.593 592.976,-123.427"/>
</g>
<!-- Node33&#45;&gt;Node28 -->
<g id="edge19" class="edge"><title>Node33&#45;&gt;Node28</title>
<path fill="none" stroke="midnightblue" d="M612.961,-116.132C576.185,-99.2311 517.885,-73.4668 465.914,-55 424.232,-40.1893 374.959,-26.7096 343.342,-18.5596"/>
<polygon fill="midnightblue" stroke="midnightblue" points="611.739,-119.423 622.285,-120.439 614.674,-113.068 611.739,-119.423"/>
</g>
</g>
</svg>
