<?xml version="1.0" encoding="UTF-8" standalone="no"?>
<!DOCTYPE svg PUBLIC "-//W3C//DTD SVG 1.1//EN"
 "http://www.w3.org/Graphics/SVG/1.1/DTD/svg11.dtd">
<!-- Generated by graphviz version 2.38.0 (20140413.2041)
 -->
<!-- Title: fuzzylite/fl/activation/Activation.h Pages: 1 -->
<svg width="949pt" height="222pt"
 viewBox="0.00 0.00 949.21 222.00" xmlns="http://www.w3.org/2000/svg" xmlns:xlink="http://www.w3.org/1999/xlink">
<g id="graph0" class="graph" transform="scale(1 1) rotate(0) translate(4 218)">
<title>fuzzylite/fl/activation/Activation.h</title>
<polygon fill="white" stroke="none" points="-4,4 -4,-218 945.209,-218 945.209,4 -4,4"/>
<!-- Node11 -->
<g id="node1" class="node"><title>Node11</title>
<polygon fill="#bfbfbf" stroke="black" points="276,-185.5 276,-213.5 380.926,-213.5 380.926,-185.5 276,-185.5"/>
<text text-anchor="start" x="284" y="-201.5" font-family="Helvetica,sans-Serif" font-size="10.00">fuzzylite/fl/activation</text>
<text text-anchor="middle" x="328.463" y="-191.5" font-family="Helvetica,sans-Serif" font-size="10.00">/Activation.h</text>
</g>
<!-- Node12 -->
<g id="node2" class="node"><title>Node12</title>
<g id="a_node2"><a xlink:href="../../dc/d09/_first_8h.html" target="_top" xlink:title="fuzzylite/fl/activation\l/First.h">
<polygon fill="white" stroke="black" points="0,-55.5 0,-83.5 104.926,-83.5 104.926,-55.5 0,-55.5"/>
<text text-anchor="start" x="8" y="-71.5" font-family="Helvetica,sans-Serif" font-size="10.00">fuzzylite/fl/activation</text>
<text text-anchor="middle" x="52.4629" y="-61.5" font-family="Helvetica,sans-Serif" font-size="10.00">/First.h</text>
</a>
</g>
</g>
<!-- Node11&#45;&gt;Node12 -->
<g id="edge1" class="edge"><title>Node11&#45;&gt;Node12</title>
<path fill="none" stroke="midnightblue" d="M265.779,-194.158C221.818,-188.724 163.154,-176.498 118.463,-149 91.6215,-132.485 70.3459,-101.281 59.771,-83.5946"/>
<polygon fill="midnightblue" stroke="midnightblue" points="265.436,-197.641 275.771,-195.308 266.237,-190.687 265.436,-197.641"/>
</g>
<!-- Node13 -->
<g id="node3" class="node"><title>Node13</title>
<g id="a_node3"><a xlink:href="../../db/d5f/_headers_8h.html" target="_top" xlink:title="fuzzylite/fl/Headers.h">
<polygon fill="white" stroke="black" points="484.054,-0.5 484.054,-18.5 592.872,-18.5 592.872,-0.5 484.054,-0.5"/>
<text text-anchor="middle" x="538.463" y="-6.5" font-family="Helvetica,sans-Serif" font-size="10.00">fuzzylite/fl/Headers.h</text>
</a>
</g>
</g>
<!-- Node11&#45;&gt;Node13 -->
<g id="edge19" class="edge"><title>Node11&#45;&gt;Node13</title>
<path fill="none" stroke="midnightblue" d="M278.017,-181.982C210.435,-157.317 104.163,-108.05 151.463,-55 173.207,-30.6121 382.654,-17.686 484.025,-12.8144"/>
<polygon fill="midnightblue" stroke="midnightblue" points="277.091,-185.368 287.685,-185.44 279.448,-178.777 277.091,-185.368"/>
</g>
<!-- Node14 -->
<g id="node4" class="node"><title>Node14</title>
<g id="a_node4"><a xlink:href="../../df/d22/_general_8h.html" target="_top" xlink:title="fuzzylite/fl/activation\l/General.h">
<polygon fill="white" stroke="black" points="160,-55.5 160,-83.5 264.926,-83.5 264.926,-55.5 160,-55.5"/>
<text text-anchor="start" x="168" y="-71.5" font-family="Helvetica,sans-Serif" font-size="10.00">fuzzylite/fl/activation</text>
<text text-anchor="middle" x="212.463" y="-61.5" font-family="Helvetica,sans-Serif" font-size="10.00">/General.h</text>
</a>
</g>
</g>
<!-- Node11&#45;&gt;Node14 -->
<g id="edge3" class="edge"><title>Node11&#45;&gt;Node14</title>
<path fill="none" stroke="midnightblue" d="M300.785,-179.188C289.493,-170.625 276.71,-160.004 266.463,-149 247.073,-128.178 229.362,-99.8996 219.827,-83.5835"/>
<polygon fill="midnightblue" stroke="midnightblue" points="298.941,-182.178 309.063,-185.308 303.103,-176.549 298.941,-182.178"/>
</g>
<!-- Node15 -->
<g id="node5" class="node"><title>Node15</title>
<g id="a_node5"><a xlink:href="../../d6/da5/_highest_8h.html" target="_top" xlink:title="fuzzylite/fl/activation\l/Highest.h">
<polygon fill="white" stroke="black" points="283,-55.5 283,-83.5 387.926,-83.5 387.926,-55.5 283,-55.5"/>
<text text-anchor="start" x="291" y="-71.5" font-family="Helvetica,sans-Serif" font-size="10.00">fuzzylite/fl/activation</text>
<text text-anchor="middle" x="335.463" y="-61.5" font-family="Helvetica,sans-Serif" font-size="10.00">/Highest.h</text>
</a>
</g>
</g>
<!-- Node11&#45;&gt;Node15 -->
<g id="edge5" class="edge"><title>Node11&#45;&gt;Node15</title>
<path fill="none" stroke="midnightblue" d="M298.895,-179.1C289.237,-171.056 279.664,-160.823 274.463,-149 269.273,-137.202 268.92,-131.636 274.463,-120 281.912,-104.363 296.983,-92.0581 310.28,-83.6281"/>
<polygon fill="midnightblue" stroke="midnightblue" points="296.885,-181.97 306.934,-185.328 301.173,-176.437 296.885,-181.97"/>
</g>
<!-- Node16 -->
<g id="node6" class="node"><title>Node16</title>
<g id="a_node6"><a xlink:href="../../da/de8/_last_8h.html" target="_top" xlink:title="fuzzylite/fl/activation\l/Last.h">
<polygon fill="white" stroke="black" points="406,-55.5 406,-83.5 510.926,-83.5 510.926,-55.5 406,-55.5"/>
<text text-anchor="start" x="414" y="-71.5" font-family="Helvetica,sans-Serif" font-size="10.00">fuzzylite/fl/activation</text>
<text text-anchor="middle" x="458.463" y="-61.5" font-family="Helvetica,sans-Serif" font-size="10.00">/Last.h</text>
</a>
</g>
</g>
<!-- Node11&#45;&gt;Node16 -->
<g id="edge7" class="edge"><title>Node11&#45;&gt;Node16</title>
<path fill="none" stroke="midnightblue" d="M313.463,-176.702C303.904,-159.857 295.381,-136.676 307.463,-120 313.715,-111.371 367.419,-95.1281 409.023,-83.6044"/>
<polygon fill="midnightblue" stroke="midnightblue" points="310.543,-178.635 318.756,-185.328 316.509,-174.974 310.543,-178.635"/>
</g>
<!-- Node17 -->
<g id="node7" class="node"><title>Node17</title>
<g id="a_node7"><a xlink:href="../../de/d0a/_lowest_8h.html" target="_top" xlink:title="fuzzylite/fl/activation\l/Lowest.h">
<polygon fill="white" stroke="black" points="316,-120.5 316,-148.5 420.926,-148.5 420.926,-120.5 316,-120.5"/>
<text text-anchor="start" x="324" y="-136.5" font-family="Helvetica,sans-Serif" font-size="10.00">fuzzylite/fl/activation</text>
<text text-anchor="middle" x="368.463" y="-126.5" font-family="Helvetica,sans-Serif" font-size="10.00">/Lowest.h</text>
</a>
</g>
</g>
<!-- Node11&#45;&gt;Node17 -->
<g id="edge9" class="edge"><title>Node11&#45;&gt;Node17</title>
<path fill="none" stroke="midnightblue" d="M342.158,-176.93C348.151,-167.491 354.985,-156.727 360.185,-148.537"/>
<polygon fill="midnightblue" stroke="midnightblue" points="339.156,-175.128 336.751,-185.446 345.066,-178.88 339.156,-175.128"/>
</g>
<!-- Node18 -->
<g id="node8" class="node"><title>Node18</title>
<g id="a_node8"><a xlink:href="../../d1/d2e/_proportional_8h.html" target="_top" xlink:title="fuzzylite/fl/activation\l/Proportional.h">
<polygon fill="white" stroke="black" points="439,-120.5 439,-148.5 543.926,-148.5 543.926,-120.5 439,-120.5"/>
<text text-anchor="start" x="447" y="-136.5" font-family="Helvetica,sans-Serif" font-size="10.00">fuzzylite/fl/activation</text>
<text text-anchor="middle" x="491.463" y="-126.5" font-family="Helvetica,sans-Serif" font-size="10.00">/Proportional.h</text>
</a>
</g>
</g>
<!-- Node11&#45;&gt;Node18 -->
<g id="edge11" class="edge"><title>Node11&#45;&gt;Node18</title>
<path fill="none" stroke="midnightblue" d="M371.801,-181.75C398.726,-171.343 432.828,-158.163 457.732,-148.537"/>
<polygon fill="midnightblue" stroke="midnightblue" points="370.302,-178.577 362.237,-185.446 372.826,-185.106 370.302,-178.577"/>
</g>
<!-- Node19 -->
<g id="node9" class="node"><title>Node19</title>
<g id="a_node9"><a xlink:href="../../d9/d96/_threshold_8h.html" target="_top" xlink:title="fuzzylite/fl/activation\l/Threshold.h">
<polygon fill="white" stroke="black" points="562,-120.5 562,-148.5 666.926,-148.5 666.926,-120.5 562,-120.5"/>
<text text-anchor="start" x="570" y="-136.5" font-family="Helvetica,sans-Serif" font-size="10.00">fuzzylite/fl/activation</text>
<text text-anchor="middle" x="614.463" y="-126.5" font-family="Helvetica,sans-Serif" font-size="10.00">/Threshold.h</text>
</a>
</g>
</g>
<!-- Node11&#45;&gt;Node19 -->
<g id="edge13" class="edge"><title>Node11&#45;&gt;Node19</title>
<path fill="none" stroke="midnightblue" d="M391.203,-184.68C442.369,-173.409 513.81,-157.672 561.981,-147.061"/>
<polygon fill="midnightblue" stroke="midnightblue" points="390.266,-181.302 381.253,-186.871 391.772,-188.138 390.266,-181.302"/>
</g>
<!-- Node20 -->
<g id="node10" class="node"><title>Node20</title>
<g id="a_node10"><a xlink:href="../../d0/d04/_activation_factory_8h.html" target="_top" xlink:title="fuzzylite/fl/factory\l/ActivationFactory.h">
<polygon fill="white" stroke="black" points="684.925,-120.5 684.925,-148.5 788,-148.5 788,-120.5 684.925,-120.5"/>
<text text-anchor="start" x="692.925" y="-136.5" font-family="Helvetica,sans-Serif" font-size="10.00">fuzzylite/fl/factory</text>
<text text-anchor="middle" x="736.463" y="-126.5" font-family="Helvetica,sans-Serif" font-size="10.00">/ActivationFactory.h</text>
</a>
</g>
</g>
<!-- Node11&#45;&gt;Node20 -->
<g id="edge15" class="edge"><title>Node11&#45;&gt;Node20</title>
<path fill="none" stroke="midnightblue" d="M390.916,-191.045C460.564,-182.394 576.453,-166.991 675.463,-149 678.451,-148.457 681.515,-147.871 684.603,-147.259"/>
<polygon fill="midnightblue" stroke="midnightblue" points="390.479,-187.572 380.984,-192.272 391.337,-194.52 390.479,-187.572"/>
</g>
<!-- Node22 -->
<g id="node12" class="node"><title>Node22</title>
<g id="a_node12"><a xlink:href="../../d8/d17/_rule_block_8h.html" target="_top" xlink:title="fuzzylite/fl/rule/RuleBlock.h">
<polygon fill="white" stroke="black" points="805.717,-125.5 805.717,-143.5 941.209,-143.5 941.209,-125.5 805.717,-125.5"/>
<text text-anchor="middle" x="873.463" y="-131.5" font-family="Helvetica,sans-Serif" font-size="10.00">fuzzylite/fl/rule/RuleBlock.h</text>
</a>
</g>
</g>
<!-- Node11&#45;&gt;Node22 -->
<g id="edge20" class="edge"><title>Node11&#45;&gt;Node22</title>
<path fill="none" stroke="midnightblue" d="M391.06,-193.31C481.144,-185.519 652.465,-169.504 797.463,-149 808.476,-147.443 820.337,-145.476 831.338,-143.529"/>
<polygon fill="midnightblue" stroke="midnightblue" points="390.676,-189.83 381.012,-194.174 391.276,-196.804 390.676,-189.83"/>
</g>
<!-- Node12&#45;&gt;Node13 -->
<g id="edge2" class="edge"><title>Node12&#45;&gt;Node13</title>
<path fill="none" stroke="midnightblue" d="M115.143,-55.5274C116.258,-55.3461 117.365,-55.1701 118.463,-55 248.892,-34.7989 403.547,-21.0055 483.878,-14.596"/>
<polygon fill="midnightblue" stroke="midnightblue" points="114.235,-52.1323 104.977,-57.2839 115.427,-59.0301 114.235,-52.1323"/>
</g>
<!-- Node14&#45;&gt;Node13 -->
<g id="edge4" class="edge"><title>Node14&#45;&gt;Node13</title>
<path fill="none" stroke="midnightblue" d="M275.358,-54.8848C354.644,-39.7292 435.072,-26.6141 486.236,-18.5548"/>
<polygon fill="midnightblue" stroke="midnightblue" points="274.352,-51.5141 265.193,-56.8404 275.674,-58.388 274.352,-51.5141"/>
</g>
<!-- Node15&#45;&gt;Node13 -->
<g id="edge6" class="edge"><title>Node15&#45;&gt;Node13</title>
<path fill="none" stroke="midnightblue" d="M391.085,-52.6081C429.711,-41.572 479.564,-27.3283 510.257,-18.5587"/>
<polygon fill="midnightblue" stroke="midnightblue" points="389.674,-49.3711 381.02,-55.4837 391.597,-56.1017 389.674,-49.3711"/>
</g>
<!-- Node16&#45;&gt;Node13 -->
<g id="edge8" class="edge"><title>Node16&#45;&gt;Node13</title>
<path fill="none" stroke="midnightblue" d="M485.086,-49.1983C499.342,-38.8623 516.161,-26.6687 527.054,-18.7715"/>
<polygon fill="midnightblue" stroke="midnightblue" points="482.658,-46.6355 476.616,-55.3389 486.767,-52.3028 482.658,-46.6355"/>
</g>
<!-- Node17&#45;&gt;Node13 -->
<g id="edge10" class="edge"><title>Node17&#45;&gt;Node13</title>
<path fill="none" stroke="midnightblue" d="M431.221,-119.369C466.923,-110.129 506.954,-97.3334 519.463,-84 536.777,-65.5447 538.807,-33.4286 538.74,-18.524"/>
<polygon fill="midnightblue" stroke="midnightblue" points="430.129,-116.035 421.292,-121.879 431.845,-122.822 430.129,-116.035"/>
</g>
<!-- Node18&#45;&gt;Node13 -->
<g id="edge12" class="edge"><title>Node18&#45;&gt;Node13</title>
<path fill="none" stroke="midnightblue" d="M525.209,-114.525C535.962,-106.603 546.585,-96.3388 552.463,-84 562.965,-61.9527 550.492,-32.6483 543.125,-18.636"/>
<polygon fill="midnightblue" stroke="midnightblue" points="522.931,-111.843 516.646,-120.372 526.878,-117.624 522.931,-111.843"/>
</g>
<!-- Node19&#45;&gt;Node13 -->
<g id="edge14" class="edge"><title>Node19&#45;&gt;Node13</title>
<path fill="none" stroke="midnightblue" d="M602.356,-111.182C593.575,-95.3013 581.225,-73.5744 569.463,-55 561.202,-41.9541 550.803,-27.3605 544.396,-18.5561"/>
<polygon fill="midnightblue" stroke="midnightblue" points="599.445,-113.153 607.325,-120.235 605.581,-109.784 599.445,-113.153"/>
</g>
<!-- Node20&#45;&gt;Node13 -->
<g id="edge18" class="edge"><title>Node20&#45;&gt;Node13</title>
<path fill="none" stroke="midnightblue" d="M706.751,-115.043C662.874,-87.7859 582.578,-37.905 551.359,-18.5111"/>
<polygon fill="midnightblue" stroke="midnightblue" points="704.932,-118.033 715.273,-120.337 708.626,-112.087 704.932,-118.033"/>
</g>
<!-- Node21 -->
<g id="node11" class="node"><title>Node21</title>
<g id="a_node11"><a xlink:href="../../d8/d89/_factory_manager_8h.html" target="_top" xlink:title="fuzzylite/fl/factory\l/FactoryManager.h">
<polygon fill="white" stroke="black" points="685.773,-55.5 685.773,-83.5 785.152,-83.5 785.152,-55.5 685.773,-55.5"/>
<text text-anchor="start" x="693.773" y="-71.5" font-family="Helvetica,sans-Serif" font-size="10.00">fuzzylite/fl/factory</text>
<text text-anchor="middle" x="735.463" y="-61.5" font-family="Helvetica,sans-Serif" font-size="10.00">/FactoryManager.h</text>
</a>
</g>
</g>
<!-- Node20&#45;&gt;Node21 -->
<g id="edge16" class="edge"><title>Node20&#45;&gt;Node21</title>
<path fill="none" stroke="midnightblue" d="M736.092,-110.164C735.95,-101.169 735.792,-91.2205 735.67,-83.5369"/>
<polygon fill="midnightblue" stroke="midnightblue" points="732.597,-110.503 736.256,-120.446 739.596,-110.392 732.597,-110.503"/>
</g>
<!-- Node21&#45;&gt;Node13 -->
<g id="edge17" class="edge"><title>Node21&#45;&gt;Node13</title>
<path fill="none" stroke="midnightblue" d="M681.485,-52.6081C644,-41.572 595.621,-27.3283 565.835,-18.5587"/>
<polygon fill="midnightblue" stroke="midnightblue" points="680.671,-56.0168 691.252,-55.4837 682.648,-49.3018 680.671,-56.0168"/>
</g>
<!-- Node22&#45;&gt;Node13 -->
<g id="edge21" class="edge"><title>Node22&#45;&gt;Node13</title>
<path fill="none" stroke="midnightblue" d="M862.024,-117.231C848.225,-98.9496 823.261,-69.8891 794.463,-55 730.548,-21.9551 646.901,-12.8129 592.921,-10.616"/>
<polygon fill="midnightblue" stroke="midnightblue" points="859.303,-119.44 868.026,-125.453 864.957,-115.313 859.303,-119.44"/>
</g>
</g>
</svg>
