<?xml version="1.0" encoding="UTF-8" standalone="no"?>
<!DOCTYPE svg PUBLIC "-//W3C//DTD SVG 1.1//EN"
 "http://www.w3.org/Graphics/SVG/1.1/DTD/svg11.dtd">
<!-- Generated by graphviz version 2.38.0 (20140413.2041)
 -->
<!-- Title: fl::LargestOfMaximum Pages: 1 -->
<svg width="132pt" height="405pt"
 viewBox="0.00 0.00 132.36 405.00" xmlns="http://www.w3.org/2000/svg" xmlns:xlink="http://www.w3.org/1999/xlink">
<g id="graph0" class="graph" transform="scale(1 1) rotate(0) translate(4 401)">
<title>fl::LargestOfMaximum</title>
<polygon fill="white" stroke="none" points="-4,4 -4,-401 128.364,-401 128.364,4 -4,4"/>
<!-- Node0 -->
<g id="node1" class="node"><title>Node0</title>
<polygon fill="#bfbfbf" stroke="black" points="0,-0.5 0,-114.5 124.364,-114.5 124.364,-0.5 0,-0.5"/>
<text text-anchor="middle" x="62.1821" y="-102.5" font-family="Helvetica,sans-Serif" font-size="10.00">fl::LargestOfMaximum</text>
<polyline fill="none" stroke="black" points="0,-96.5 124.364,-96.5 "/>
<text text-anchor="middle" x="62.1821" y="-84.5" font-family="Helvetica,sans-Serif" font-size="10.00"> </text>
<polyline fill="none" stroke="black" points="0,-78.5 124.364,-78.5 "/>
<text text-anchor="start" x="8" y="-66.5" font-family="Helvetica,sans-Serif" font-size="10.00">+ LargestOfMaximum()</text>
<text text-anchor="start" x="8" y="-56.5" font-family="Helvetica,sans-Serif" font-size="10.00">+ ~LargestOfMaximum()</text>
<text text-anchor="start" x="8" y="-46.5" font-family="Helvetica,sans-Serif" font-size="10.00">+ className()</text>
<text text-anchor="start" x="8" y="-36.5" font-family="Helvetica,sans-Serif" font-size="10.00">+ complexity()</text>
<text text-anchor="start" x="8" y="-26.5" font-family="Helvetica,sans-Serif" font-size="10.00">+ defuzzify()</text>
<text text-anchor="start" x="8" y="-16.5" font-family="Helvetica,sans-Serif" font-size="10.00">+ clone()</text>
<text text-anchor="start" x="8" y="-6.5" font-family="Helvetica,sans-Serif" font-size="10.00">+ constructor()</text>
</g>
<!-- Node1 -->
<g id="node2" class="node"><title>Node1</title>
<g id="a_node2"><a xlink:href="../../d9/d95/classfl_1_1_integral_defuzzifier.html" target="_top" xlink:title="The IntegralDefuzzifier class is the base class for defuzzifiers which integrate over the fuzzy set...">
<polygon fill="white" stroke="black" points="0.405273,-151.5 0.405273,-255.5 123.959,-255.5 123.959,-151.5 0.405273,-151.5"/>
<text text-anchor="middle" x="62.1821" y="-243.5" font-family="Helvetica,sans-Serif" font-size="10.00">fl::IntegralDefuzzifier</text>
<polyline fill="none" stroke="black" points="0.405273,-237.5 123.959,-237.5 "/>
<text text-anchor="middle" x="62.1821" y="-225.5" font-family="Helvetica,sans-Serif" font-size="10.00"> </text>
<polyline fill="none" stroke="black" points="0.405273,-219.5 123.959,-219.5 "/>
<text text-anchor="start" x="8.40527" y="-207.5" font-family="Helvetica,sans-Serif" font-size="10.00">+ IntegralDefuzzifier()</text>
<text text-anchor="start" x="8.40527" y="-197.5" font-family="Helvetica,sans-Serif" font-size="10.00">+ ~IntegralDefuzzifier()</text>
<text text-anchor="start" x="8.40527" y="-187.5" font-family="Helvetica,sans-Serif" font-size="10.00">+ setResolution()</text>
<text text-anchor="start" x="8.40527" y="-177.5" font-family="Helvetica,sans-Serif" font-size="10.00">+ getResolution()</text>
<text text-anchor="start" x="8.40527" y="-167.5" font-family="Helvetica,sans-Serif" font-size="10.00">+ setDefaultResolution()</text>
<text text-anchor="start" x="8.40527" y="-157.5" font-family="Helvetica,sans-Serif" font-size="10.00">+ defaultResolution()</text>
</a>
</g>
</g>
<!-- Node1&#45;&gt;Node0 -->
<g id="edge1" class="edge"><title>Node1&#45;&gt;Node0</title>
<path fill="none" stroke="midnightblue" d="M62.1821,-141.205C62.1821,-132.473 62.1821,-123.526 62.1821,-114.893"/>
<polygon fill="none" stroke="midnightblue" points="58.6822,-141.325 62.1821,-151.326 65.6822,-141.326 58.6822,-141.325"/>
</g>
<!-- Node2 -->
<g id="node3" class="node"><title>Node2</title>
<g id="a_node3"><a xlink:href="../../d3/d31/classfl_1_1_defuzzifier.html" target="_top" xlink:title="The Defuzzifier class is the abstract class for defuzzifiers. ">
<polygon fill="white" stroke="black" points="20.0049,-292.5 20.0049,-396.5 104.359,-396.5 104.359,-292.5 20.0049,-292.5"/>
<text text-anchor="middle" x="62.1821" y="-384.5" font-family="Helvetica,sans-Serif" font-size="10.00">fl::Defuzzifier</text>
<polyline fill="none" stroke="black" points="20.0049,-378.5 104.359,-378.5 "/>
<text text-anchor="middle" x="62.1821" y="-366.5" font-family="Helvetica,sans-Serif" font-size="10.00"> </text>
<polyline fill="none" stroke="black" points="20.0049,-360.5 104.359,-360.5 "/>
<text text-anchor="start" x="28.0049" y="-348.5" font-family="Helvetica,sans-Serif" font-size="10.00">+ Defuzzifier()</text>
<text text-anchor="start" x="28.0049" y="-338.5" font-family="Helvetica,sans-Serif" font-size="10.00">+ ~Defuzzifier()</text>
<text text-anchor="start" x="28.0049" y="-328.5" font-family="Helvetica,sans-Serif" font-size="10.00">+ className()</text>
<text text-anchor="start" x="28.0049" y="-318.5" font-family="Helvetica,sans-Serif" font-size="10.00">+ clone()</text>
<text text-anchor="start" x="28.0049" y="-308.5" font-family="Helvetica,sans-Serif" font-size="10.00">+ complexity()</text>
<text text-anchor="start" x="28.0049" y="-298.5" font-family="Helvetica,sans-Serif" font-size="10.00">+ defuzzify()</text>
</a>
</g>
</g>
<!-- Node2&#45;&gt;Node1 -->
<g id="edge2" class="edge"><title>Node2&#45;&gt;Node1</title>
<path fill="none" stroke="midnightblue" d="M62.1821,-281.941C62.1821,-273.159 62.1821,-264.206 62.1821,-255.652"/>
<polygon fill="none" stroke="midnightblue" points="58.6822,-282.136 62.1821,-292.136 65.6822,-282.136 58.6822,-282.136"/>
</g>
</g>
</svg>
