<?xml version="1.0" encoding="UTF-8" standalone="no"?>
<!DOCTYPE svg PUBLIC "-//W3C//DTD SVG 1.1//EN"
 "http://www.w3.org/Graphics/SVG/1.1/DTD/svg11.dtd">
<!-- Generated by graphviz version 2.38.0 (20140413.2041)
 -->
<!-- Title: fl::Proportional Pages: 1 -->
<svg width="99pt" height="304pt"
 viewBox="0.00 0.00 99.04 304.00" xmlns="http://www.w3.org/2000/svg" xmlns:xlink="http://www.w3.org/1999/xlink">
<g id="graph0" class="graph" transform="scale(1 1) rotate(0) translate(4 300)">
<title>fl::Proportional</title>
<polygon fill="white" stroke="none" points="-4,4 -4,-300 95.0391,-300 95.0391,4 -4,4"/>
<!-- Node2 -->
<g id="node1" class="node"><title>Node2</title>
<polygon fill="#bfbfbf" stroke="black" points="0,-0.5 0,-134.5 91.0391,-134.5 91.0391,-0.5 0,-0.5"/>
<text text-anchor="middle" x="45.5195" y="-122.5" font-family="Helvetica,sans-Serif" font-size="10.00">fl::Proportional</text>
<polyline fill="none" stroke="black" points="0,-116.5 91.0391,-116.5 "/>
<text text-anchor="middle" x="45.5195" y="-104.5" font-family="Helvetica,sans-Serif" font-size="10.00"> </text>
<polyline fill="none" stroke="black" points="0,-98.5 91.0391,-98.5 "/>
<text text-anchor="start" x="8" y="-86.5" font-family="Helvetica,sans-Serif" font-size="10.00">+ Proportional()</text>
<text text-anchor="start" x="8" y="-76.5" font-family="Helvetica,sans-Serif" font-size="10.00">+ ~Proportional()</text>
<text text-anchor="start" x="8" y="-66.5" font-family="Helvetica,sans-Serif" font-size="10.00">+ className()</text>
<text text-anchor="start" x="8" y="-56.5" font-family="Helvetica,sans-Serif" font-size="10.00">+ parameters()</text>
<text text-anchor="start" x="8" y="-46.5" font-family="Helvetica,sans-Serif" font-size="10.00">+ configure()</text>
<text text-anchor="start" x="8" y="-36.5" font-family="Helvetica,sans-Serif" font-size="10.00">+ complexity()</text>
<text text-anchor="start" x="8" y="-26.5" font-family="Helvetica,sans-Serif" font-size="10.00">+ activate()</text>
<text text-anchor="start" x="8" y="-16.5" font-family="Helvetica,sans-Serif" font-size="10.00">+ clone()</text>
<text text-anchor="start" x="8" y="-6.5" font-family="Helvetica,sans-Serif" font-size="10.00">+ constructor()</text>
</g>
<!-- Node3 -->
<g id="node2" class="node"><title>Node3</title>
<g id="a_node2"><a xlink:href="../../df/d4b/classfl_1_1_activation.html" target="_top" xlink:title="The Activation class is the abstract class for RuleBlock activation methods. ">
<polygon fill="white" stroke="black" points="4.59229,-171.5 4.59229,-295.5 86.4468,-295.5 86.4468,-171.5 4.59229,-171.5"/>
<text text-anchor="middle" x="45.5195" y="-283.5" font-family="Helvetica,sans-Serif" font-size="10.00">fl::Activation</text>
<polyline fill="none" stroke="black" points="4.59229,-277.5 86.4468,-277.5 "/>
<text text-anchor="middle" x="45.5195" y="-265.5" font-family="Helvetica,sans-Serif" font-size="10.00"> </text>
<polyline fill="none" stroke="black" points="4.59229,-259.5 86.4468,-259.5 "/>
<text text-anchor="start" x="12.5923" y="-247.5" font-family="Helvetica,sans-Serif" font-size="10.00">+ Activation()</text>
<text text-anchor="start" x="12.5923" y="-237.5" font-family="Helvetica,sans-Serif" font-size="10.00">+ ~Activation()</text>
<text text-anchor="start" x="12.5923" y="-227.5" font-family="Helvetica,sans-Serif" font-size="10.00">+ className()</text>
<text text-anchor="start" x="12.5923" y="-217.5" font-family="Helvetica,sans-Serif" font-size="10.00">+ parameters()</text>
<text text-anchor="start" x="12.5923" y="-207.5" font-family="Helvetica,sans-Serif" font-size="10.00">+ configure()</text>
<text text-anchor="start" x="12.5923" y="-197.5" font-family="Helvetica,sans-Serif" font-size="10.00">+ complexity()</text>
<text text-anchor="start" x="12.5923" y="-187.5" font-family="Helvetica,sans-Serif" font-size="10.00">+ activate()</text>
<text text-anchor="start" x="12.5923" y="-177.5" font-family="Helvetica,sans-Serif" font-size="10.00">+ clone()</text>
</a>
</g>
</g>
<!-- Node3&#45;&gt;Node2 -->
<g id="edge1" class="edge"><title>Node3&#45;&gt;Node2</title>
<path fill="none" stroke="midnightblue" d="M45.5195,-161.162C45.5195,-152.326 45.5195,-143.322 45.5195,-134.57"/>
<polygon fill="none" stroke="midnightblue" points="42.0196,-161.432 45.5195,-171.432 49.0196,-161.432 42.0196,-161.432"/>
</g>
</g>
</svg>
