<?xml version="1.0" encoding="UTF-8" standalone="no"?>
<!DOCTYPE svg PUBLIC "-//W3C//DTD SVG 1.1//EN"
 "http://www.w3.org/Graphics/SVG/1.1/DTD/svg11.dtd">
<!-- Generated by graphviz version 2.38.0 (20140413.2041)
 -->
<!-- Title: fl::HedgeFunction Pages: 1 -->
<svg width="107pt" height="264pt"
 viewBox="0.00 0.00 107.10 264.00" xmlns="http://www.w3.org/2000/svg" xmlns:xlink="http://www.w3.org/1999/xlink">
<g id="graph0" class="graph" transform="scale(1 1) rotate(0) translate(4 260)">
<title>fl::HedgeFunction</title>
<polygon fill="white" stroke="none" points="-4,4 -4,-260 103.101,-260 103.101,4 -4,4"/>
<!-- Node1 -->
<g id="node1" class="node"><title>Node1</title>
<polygon fill="#bfbfbf" stroke="black" points="0,-0.5 0,-124.5 99.1006,-124.5 99.1006,-0.5 0,-0.5"/>
<text text-anchor="middle" x="49.5503" y="-112.5" font-family="Helvetica,sans-Serif" font-size="10.00">fl::HedgeFunction</text>
<polyline fill="none" stroke="black" points="0,-106.5 99.1006,-106.5 "/>
<text text-anchor="middle" x="49.5503" y="-94.5" font-family="Helvetica,sans-Serif" font-size="10.00"> </text>
<polyline fill="none" stroke="black" points="0,-88.5 99.1006,-88.5 "/>
<text text-anchor="start" x="8" y="-76.5" font-family="Helvetica,sans-Serif" font-size="10.00">+ HedgeFunction()</text>
<text text-anchor="start" x="8" y="-66.5" font-family="Helvetica,sans-Serif" font-size="10.00">+ name()</text>
<text text-anchor="start" x="8" y="-56.5" font-family="Helvetica,sans-Serif" font-size="10.00">+ function()</text>
<text text-anchor="start" x="8" y="-46.5" font-family="Helvetica,sans-Serif" font-size="10.00">+ setFormula()</text>
<text text-anchor="start" x="8" y="-36.5" font-family="Helvetica,sans-Serif" font-size="10.00">+ getFormula()</text>
<text text-anchor="start" x="8" y="-26.5" font-family="Helvetica,sans-Serif" font-size="10.00">+ hedge()</text>
<text text-anchor="start" x="8" y="-16.5" font-family="Helvetica,sans-Serif" font-size="10.00">+ clone()</text>
<text text-anchor="start" x="8" y="-6.5" font-family="Helvetica,sans-Serif" font-size="10.00">+ constructor()</text>
</g>
<!-- Node2 -->
<g id="node2" class="node"><title>Node2</title>
<g id="a_node2"><a xlink:href="../../d3/dba/classfl_1_1_hedge.html" target="_top" xlink:title="The Hedge class is the abstract class for hedges. ">
<polygon fill="white" stroke="black" points="16.2573,-161.5 16.2573,-255.5 82.8433,-255.5 82.8433,-161.5 16.2573,-161.5"/>
<text text-anchor="middle" x="49.5503" y="-243.5" font-family="Helvetica,sans-Serif" font-size="10.00">fl::Hedge</text>
<polyline fill="none" stroke="black" points="16.2573,-237.5 82.8433,-237.5 "/>
<text text-anchor="middle" x="49.5503" y="-225.5" font-family="Helvetica,sans-Serif" font-size="10.00"> </text>
<polyline fill="none" stroke="black" points="16.2573,-219.5 82.8433,-219.5 "/>
<text text-anchor="start" x="24.2573" y="-207.5" font-family="Helvetica,sans-Serif" font-size="10.00">+ Hedge()</text>
<text text-anchor="start" x="24.2573" y="-197.5" font-family="Helvetica,sans-Serif" font-size="10.00">+ ~Hedge()</text>
<text text-anchor="start" x="24.2573" y="-187.5" font-family="Helvetica,sans-Serif" font-size="10.00">+ name()</text>
<text text-anchor="start" x="24.2573" y="-177.5" font-family="Helvetica,sans-Serif" font-size="10.00">+ hedge()</text>
<text text-anchor="start" x="24.2573" y="-167.5" font-family="Helvetica,sans-Serif" font-size="10.00">+ clone()</text>
</a>
</g>
</g>
<!-- Node2&#45;&gt;Node1 -->
<g id="edge1" class="edge"><title>Node2&#45;&gt;Node1</title>
<path fill="none" stroke="midnightblue" d="M49.5503,-150.871C49.5503,-142.295 49.5503,-133.415 49.5503,-124.747"/>
<polygon fill="none" stroke="midnightblue" points="46.0504,-151.145 49.5503,-161.145 53.0504,-151.145 46.0504,-151.145"/>
</g>
</g>
</svg>
