<?xml version="1.0" encoding="UTF-8" standalone="no"?>
<!DOCTYPE svg PUBLIC "-//W3C//DTD SVG 1.1//EN"
 "http://www.w3.org/Graphics/SVG/1.1/DTD/svg11.dtd">
<!-- Generated by graphviz version 2.38.0 (20140413.2041)
 -->
<!-- Title: fuzzylite/fl/defuzzifier/Centroid.h Pages: 1 -->
<svg width="294pt" height="222pt"
 viewBox="0.00 0.00 293.98 222.00" xmlns="http://www.w3.org/2000/svg" xmlns:xlink="http://www.w3.org/1999/xlink">
<g id="graph0" class="graph" transform="scale(1 1) rotate(0) translate(4 218)">
<title>fuzzylite/fl/defuzzifier/Centroid.h</title>
<polygon fill="white" stroke="none" points="-4,4 -4,-218 289.978,-218 289.978,4 -4,4"/>
<!-- Node14 -->
<g id="node1" class="node"><title>Node14</title>
<polygon fill="#bfbfbf" stroke="black" points="0,-185.5 0,-213.5 108.256,-213.5 108.256,-185.5 0,-185.5"/>
<text text-anchor="start" x="8" y="-201.5" font-family="Helvetica,sans-Serif" font-size="10.00">fuzzylite/fl/defuzzifier</text>
<text text-anchor="middle" x="54.1279" y="-191.5" font-family="Helvetica,sans-Serif" font-size="10.00">/Centroid.h</text>
</g>
<!-- Node15 -->
<g id="node2" class="node"><title>Node15</title>
<g id="a_node2"><a xlink:href="../../db/d5f/_headers_8h.html" target="_top" xlink:title="fuzzylite/fl/Headers.h">
<polygon fill="white" stroke="black" points="27.7192,-0.5 27.7192,-18.5 136.537,-18.5 136.537,-0.5 27.7192,-0.5"/>
<text text-anchor="middle" x="82.1279" y="-6.5" font-family="Helvetica,sans-Serif" font-size="10.00">fuzzylite/fl/Headers.h</text>
</a>
</g>
</g>
<!-- Node14&#45;&gt;Node15 -->
<g id="edge1" class="edge"><title>Node14&#45;&gt;Node15</title>
<path fill="none" stroke="midnightblue" d="M48.4182,-175.162C46.6737,-166.946 44.9893,-157.613 44.1279,-149 39.9313,-107.034 42.483,-94.5511 57.1279,-55 62.1127,-41.5378 70.7999,-27.2936 76.5075,-18.6481"/>
<polygon fill="midnightblue" stroke="midnightblue" points="45.0608,-176.183 50.6819,-185.164 51.8882,-174.638 45.0608,-176.183"/>
</g>
<!-- Node16 -->
<g id="node3" class="node"><title>Node16</title>
<g id="a_node3"><a xlink:href="../../d4/d25/_variable_8h.html" target="_top" xlink:title="fuzzylite/fl/variable\l/Variable.h">
<polygon fill="white" stroke="black" points="53.2783,-120.5 53.2783,-148.5 150.978,-148.5 150.978,-120.5 53.2783,-120.5"/>
<text text-anchor="start" x="61.2783" y="-136.5" font-family="Helvetica,sans-Serif" font-size="10.00">fuzzylite/fl/variable</text>
<text text-anchor="middle" x="102.128" y="-126.5" font-family="Helvetica,sans-Serif" font-size="10.00">/Variable.h</text>
</a>
</g>
</g>
<!-- Node14&#45;&gt;Node16 -->
<g id="edge2" class="edge"><title>Node14&#45;&gt;Node16</title>
<path fill="none" stroke="midnightblue" d="M70.3401,-177.221C77.5845,-167.713 85.8905,-156.812 92.195,-148.537"/>
<polygon fill="midnightblue" stroke="midnightblue" points="67.35,-175.371 64.0736,-185.446 72.918,-179.613 67.35,-175.371"/>
</g>
<!-- Node16&#45;&gt;Node15 -->
<g id="edge3" class="edge"><title>Node16&#45;&gt;Node15</title>
<path fill="none" stroke="midnightblue" d="M80.7359,-112.76C73.7163,-104.544 66.7826,-94.544 63.1279,-84 55.0995,-60.8374 68.7673,-32.5328 76.8422,-18.7856"/>
<polygon fill="midnightblue" stroke="midnightblue" points="78.3334,-115.319 87.6658,-120.334 83.4981,-110.594 78.3334,-115.319"/>
</g>
<!-- Node17 -->
<g id="node4" class="node"><title>Node17</title>
<g id="a_node4"><a xlink:href="../../d8/dd7/_input_variable_8h.html" target="_top" xlink:title="fuzzylite/fl/variable\l/InputVariable.h">
<polygon fill="white" stroke="black" points="72.2783,-55.5 72.2783,-83.5 169.978,-83.5 169.978,-55.5 72.2783,-55.5"/>
<text text-anchor="start" x="80.2783" y="-71.5" font-family="Helvetica,sans-Serif" font-size="10.00">fuzzylite/fl/variable</text>
<text text-anchor="middle" x="121.128" y="-61.5" font-family="Helvetica,sans-Serif" font-size="10.00">/InputVariable.h</text>
</a>
</g>
</g>
<!-- Node16&#45;&gt;Node17 -->
<g id="edge4" class="edge"><title>Node16&#45;&gt;Node17</title>
<path fill="none" stroke="midnightblue" d="M108.987,-110.756C111.746,-101.608 114.828,-91.3894 117.196,-83.5369"/>
<polygon fill="midnightblue" stroke="midnightblue" points="105.601,-109.862 106.065,-120.446 112.303,-111.883 105.601,-109.862"/>
</g>
<!-- Node18 -->
<g id="node5" class="node"><title>Node18</title>
<g id="a_node5"><a xlink:href="../../dd/d9b/_output_variable_8h.html" target="_top" xlink:title="fuzzylite/fl/variable\l/OutputVariable.h">
<polygon fill="white" stroke="black" points="188.278,-55.5 188.278,-83.5 285.978,-83.5 285.978,-55.5 188.278,-55.5"/>
<text text-anchor="start" x="196.278" y="-71.5" font-family="Helvetica,sans-Serif" font-size="10.00">fuzzylite/fl/variable</text>
<text text-anchor="middle" x="237.128" y="-61.5" font-family="Helvetica,sans-Serif" font-size="10.00">/OutputVariable.h</text>
</a>
</g>
</g>
<!-- Node16&#45;&gt;Node18 -->
<g id="edge6" class="edge"><title>Node16&#45;&gt;Node18</title>
<path fill="none" stroke="midnightblue" d="M139.201,-116.199C161.31,-105.882 188.927,-92.9937 209.192,-83.5369"/>
<polygon fill="midnightblue" stroke="midnightblue" points="137.682,-113.046 130.1,-120.446 140.642,-119.389 137.682,-113.046"/>
</g>
<!-- Node17&#45;&gt;Node15 -->
<g id="edge5" class="edge"><title>Node17&#45;&gt;Node15</title>
<path fill="none" stroke="midnightblue" d="M106.556,-46.829C99.978,-37.0462 92.5992,-26.0727 87.6898,-18.7715"/>
<polygon fill="midnightblue" stroke="midnightblue" points="103.794,-48.9935 112.278,-55.3389 109.603,-45.0875 103.794,-48.9935"/>
</g>
<!-- Node18&#45;&gt;Node15 -->
<g id="edge7" class="edge"><title>Node18&#45;&gt;Node15</title>
<path fill="none" stroke="midnightblue" d="M192.793,-51.9103C163.672,-41.0135 126.852,-27.2353 103.89,-18.6434"/>
<polygon fill="midnightblue" stroke="midnightblue" points="191.75,-55.257 202.343,-55.4837 194.204,-48.701 191.75,-55.257"/>
</g>
</g>
</svg>
