<?xml version="1.0" encoding="UTF-8" standalone="no"?>
<!DOCTYPE svg PUBLIC "-//W3C//DTD SVG 1.1//EN"
 "http://www.w3.org/Graphics/SVG/1.1/DTD/svg11.dtd">
<!-- Generated by graphviz version 2.38.0 (20140413.2041)
 -->
<!-- Title: fl::Operator Pages: 1 -->
<svg width="189pt" height="336pt"
 viewBox="0.00 0.00 189.34 336.00" xmlns="http://www.w3.org/2000/svg" xmlns:xlink="http://www.w3.org/1999/xlink">
<g id="graph0" class="graph" transform="scale(1 1) rotate(0) translate(4 332)">
<title>fl::Operator</title>
<polygon fill="white" stroke="none" points="-4,4 -4,-332 185.341,-332 185.341,4 -4,4"/>
<!-- Node1 -->
<g id="node1" class="node"><title>Node1</title>
<polygon fill="#bfbfbf" stroke="black" points="38.0024,-0.5 38.0024,-84.5 114.583,-84.5 114.583,-0.5 38.0024,-0.5"/>
<text text-anchor="middle" x="76.293" y="-72.5" font-family="Helvetica,sans-Serif" font-size="10.00">fl::Operator</text>
<polyline fill="none" stroke="black" points="38.0024,-66.5 114.583,-66.5 "/>
<text text-anchor="middle" x="76.293" y="-54.5" font-family="Helvetica,sans-Serif" font-size="10.00"> </text>
<polyline fill="none" stroke="black" points="38.0024,-48.5 114.583,-48.5 "/>
<text text-anchor="start" x="46.0024" y="-36.5" font-family="Helvetica,sans-Serif" font-size="10.00">+ Operator()</text>
<text text-anchor="start" x="46.0024" y="-26.5" font-family="Helvetica,sans-Serif" font-size="10.00">+ ~Operator()</text>
<text text-anchor="start" x="46.0024" y="-16.5" font-family="Helvetica,sans-Serif" font-size="10.00">+ type()</text>
<text text-anchor="start" x="46.0024" y="-6.5" font-family="Helvetica,sans-Serif" font-size="10.00">+ toString()</text>
</g>
<!-- Node2 -->
<g id="node2" class="node"><title>Node2</title>
<g id="a_node2"><a xlink:href="../../d2/d7f/classfl_1_1_expression.html" target="_top" xlink:title="The Expression class is the base class to build an expression tree. ">
<polygon fill="white" stroke="black" points="0,-141.5 0,-225.5 86.5859,-225.5 86.5859,-141.5 0,-141.5"/>
<text text-anchor="middle" x="43.293" y="-213.5" font-family="Helvetica,sans-Serif" font-size="10.00">fl::Expression</text>
<polyline fill="none" stroke="black" points="0,-207.5 86.5859,-207.5 "/>
<text text-anchor="middle" x="43.293" y="-195.5" font-family="Helvetica,sans-Serif" font-size="10.00"> </text>
<polyline fill="none" stroke="black" points="0,-189.5 86.5859,-189.5 "/>
<text text-anchor="start" x="8" y="-177.5" font-family="Helvetica,sans-Serif" font-size="10.00">+ Expression()</text>
<text text-anchor="start" x="8" y="-167.5" font-family="Helvetica,sans-Serif" font-size="10.00">+ ~Expression()</text>
<text text-anchor="start" x="8" y="-157.5" font-family="Helvetica,sans-Serif" font-size="10.00">+ type()</text>
<text text-anchor="start" x="8" y="-147.5" font-family="Helvetica,sans-Serif" font-size="10.00">+ toString()</text>
</a>
</g>
</g>
<!-- Node2&#45;&gt;Node1 -->
<g id="edge1" class="edge"><title>Node2&#45;&gt;Node1</title>
<path fill="none" stroke="midnightblue" d="M51.2567,-131.321C53.0259,-121.857 55.0512,-112.093 57.293,-103 58.7724,-96.9987 60.535,-90.7201 62.3813,-84.5852"/>
<polygon fill="none" stroke="midnightblue" points="47.7646,-130.965 49.4393,-141.426 54.6541,-132.204 47.7646,-130.965"/>
</g>
<!-- Node2&#45;&gt;Node1 -->
<g id="edge4" class="edge"><title>Node2&#45;&gt;Node1</title>
<path fill="none" stroke="#404040" d="M53.1047,-141.172C56.3999,-127.292 60.1234,-111.608 63.607,-96.935"/>
<polygon fill="none" stroke="#404040" points="63.6901,-96.5845 61.1842,-89.8228 66.462,-84.909 68.9679,-91.6707 63.6901,-96.5845"/>
<text text-anchor="middle" x="76.3286" y="-115" font-family="Helvetica,sans-Serif" font-size="10.00"> +right</text>
<text text-anchor="middle" x="76.3286" y="-105" font-family="Helvetica,sans-Serif" font-size="10.00">+left</text>
</g>
<!-- Node3 -->
<g id="node3" class="node"><title>Node3</title>
<g id="a_node3"><a xlink:title="STL class. ">
<polygon fill="white" stroke="#bfbfbf" points="104.618,-156.5 104.618,-210.5 163.968,-210.5 163.968,-156.5 104.618,-156.5"/>
<text text-anchor="middle" x="134.293" y="-198.5" font-family="Helvetica,sans-Serif" font-size="10.00">std::string</text>
<polyline fill="none" stroke="#bfbfbf" points="104.618,-192.5 163.968,-192.5 "/>
<text text-anchor="middle" x="134.293" y="-180.5" font-family="Helvetica,sans-Serif" font-size="10.00"> </text>
<polyline fill="none" stroke="#bfbfbf" points="104.618,-174.5 163.968,-174.5 "/>
<text text-anchor="middle" x="134.293" y="-162.5" font-family="Helvetica,sans-Serif" font-size="10.00"> </text>
</a>
</g>
</g>
<!-- Node3&#45;&gt;Node1 -->
<g id="edge2" class="edge"><title>Node3&#45;&gt;Node1</title>
<path fill="none" stroke="#404040" d="M123.384,-156.355C116.268,-139.302 106.733,-116.451 98.104,-95.7713"/>
<polygon fill="none" stroke="#404040" points="98.0457,-95.6314 92.0436,-91.6345 93.4246,-84.5568 99.4267,-88.5537 98.0457,-95.6314"/>
<text text-anchor="middle" x="126.109" y="-110" font-family="Helvetica,sans-Serif" font-size="10.00"> +name</text>
</g>
<!-- Node4 -->
<g id="node4" class="node"><title>Node4</title>
<g id="a_node4"><a xlink:title="STL class. ">
<polygon fill="white" stroke="#bfbfbf" points="87.2451,-263.5 87.2451,-327.5 181.341,-327.5 181.341,-263.5 87.2451,-263.5"/>
<text text-anchor="start" x="95.2451" y="-315.5" font-family="Helvetica,sans-Serif" font-size="10.00">std::basic_string&lt;</text>
<text text-anchor="middle" x="134.293" y="-305.5" font-family="Helvetica,sans-Serif" font-size="10.00"> char &gt;</text>
<polyline fill="none" stroke="#bfbfbf" points="87.2451,-299.5 181.341,-299.5 "/>
<text text-anchor="middle" x="134.293" y="-287.5" font-family="Helvetica,sans-Serif" font-size="10.00"> </text>
<polyline fill="none" stroke="#bfbfbf" points="87.2451,-281.5 181.341,-281.5 "/>
<text text-anchor="middle" x="134.293" y="-269.5" font-family="Helvetica,sans-Serif" font-size="10.00"> </text>
</a>
</g>
</g>
<!-- Node4&#45;&gt;Node3 -->
<g id="edge3" class="edge"><title>Node4&#45;&gt;Node3</title>
<path fill="none" stroke="midnightblue" d="M134.293,-253.17C134.293,-238.895 134.293,-223.309 134.293,-210.599"/>
<polygon fill="none" stroke="midnightblue" points="130.793,-253.273 134.293,-263.273 137.793,-253.273 130.793,-253.273"/>
</g>
</g>
</svg>
