<?xml version="1.0" encoding="UTF-8" standalone="no"?>
<!DOCTYPE svg PUBLIC "-//W3C//DTD SVG 1.1//EN"
 "http://www.w3.org/Graphics/SVG/1.1/DTD/svg11.dtd">
<!-- Generated by graphviz version 2.38.0 (20140413.2041)
 -->
<!-- Title: fuzzylite/fl/rule Pages: 1 -->
<svg width="94pt" height="150pt"
 viewBox="0.00 0.00 94.00 150.00" xmlns="http://www.w3.org/2000/svg" xmlns:xlink="http://www.w3.org/1999/xlink">
<g id="graph0" class="graph" transform="scale(1 1) rotate(0) translate(4 146)">
<title>fuzzylite/fl/rule</title>
<polygon fill="white" stroke="none" points="-4,4 -4,-146 90,-146 90,4 -4,4"/>
<g id="clust1" class="cluster"><title>clusterdir_42763f13e63a58817570562f5348db6a</title>
<g id="a_clust1"><a xlink:href="dir_42763f13e63a58817570562f5348db6a.html" target="_top" xlink:title="fl">
<polygon fill="#ddddee" stroke="black" points="8,-64 8,-134 78,-134 78,-64 8,-64"/>
<text text-anchor="middle" x="43" y="-122" font-family="Helvetica,sans-Serif" font-size="10.00">fl</text>
</a>
</g>
</g>
<!-- dir_a23581e96f960bad4b58c37b90438a4d -->
<g id="node1" class="node"><title>dir_a23581e96f960bad4b58c37b90438a4d</title>
<g id="a_node1"><a xlink:href="dir_a23581e96f960bad4b58c37b90438a4d.html" target="_top" xlink:title="rule">
<polygon fill="#eeeeff" stroke="black" points="70,-108 16,-108 16,-72 70,-72 70,-108"/>
<text text-anchor="middle" x="43" y="-87" font-family="Helvetica,sans-Serif" font-size="10.00">rule</text>
</a>
</g>
</g>
<!-- dir_09b7e7d2a1bd37ecb43174b85ad46d92 -->
<g id="node2" class="node"><title>dir_09b7e7d2a1bd37ecb43174b85ad46d92</title>
<g id="a_node2"><a xlink:href="dir_09b7e7d2a1bd37ecb43174b85ad46d92.html" target="_top" xlink:title="activation">
<polygon fill="none" stroke="black" points="72.2466,-36 13.7534,-36 13.7534,-0 72.2466,-0 72.2466,-36"/>
<text text-anchor="middle" x="43" y="-15" font-family="Helvetica,sans-Serif" font-size="10.00">activation</text>
</a>
</g>
</g>
<!-- dir_a23581e96f960bad4b58c37b90438a4d&#45;&gt;dir_09b7e7d2a1bd37ecb43174b85ad46d92 -->
<g id="edge1" class="edge"><title>dir_a23581e96f960bad4b58c37b90438a4d&#45;&gt;dir_09b7e7d2a1bd37ecb43174b85ad46d92</title>
<path fill="none" stroke="black" d="M43,-71.6966C43,-63.9827 43,-54.7125 43,-46.1124"/>
<polygon fill="black" stroke="black" points="46.5001,-46.1043 43,-36.1043 39.5001,-46.1044 46.5001,-46.1043"/>
<g id="a_edge1&#45;headlabel"><a xlink:href="dir_000010_000002.html" target="_top" xlink:title="1">
<text text-anchor="middle" x="49.3393" y="-46.699" font-family="Helvetica,sans-Serif" font-size="10.00">1</text>
</a>
</g>
</g>
</g>
</svg>
