<?xml version="1.0" encoding="UTF-8" standalone="no"?>
<!DOCTYPE svg PUBLIC "-//W3C//DTD SVG 1.1//EN"
 "http://www.w3.org/Graphics/SVG/1.1/DTD/svg11.dtd">
<!-- Generated by graphviz version 2.38.0 (20140413.2041)
 -->
<!-- Title: fuzzylite/fl/norm Pages: 1 -->
<svg width="254pt" height="110pt"
 viewBox="0.00 0.00 254.00 110.00" xmlns="http://www.w3.org/2000/svg" xmlns:xlink="http://www.w3.org/1999/xlink">
<g id="graph0" class="graph" transform="scale(1 1) rotate(0) translate(4 106)">
<title>fuzzylite/fl/norm</title>
<polygon fill="white" stroke="none" points="-4,4 -4,-106 250,-106 250,4 -4,4"/>
<g id="clust1" class="cluster"><title>clusterdir_42763f13e63a58817570562f5348db6a</title>
<g id="a_clust1"><a xlink:href="dir_42763f13e63a58817570562f5348db6a.html" target="_top" xlink:title="fl">
<polygon fill="#ddddee" stroke="black" points="8,-8 8,-94 238,-94 238,-8 8,-8"/>
<text text-anchor="middle" x="123" y="-82" font-family="Helvetica,sans-Serif" font-size="10.00">fl</text>
</a>
</g>
</g>
<g id="clust2" class="cluster"><title>clusterdir_4ae40836603d8d2c882db10066959a4d</title>
<g id="a_clust2"><a xlink:href="dir_4ae40836603d8d2c882db10066959a4d.html" target="_top">
<polygon fill="#eeeeff" stroke="black" points="16,-16 16,-68 230,-68 230,-16 16,-16"/>
</a>
</g>
</g>
<!-- dir_4ae40836603d8d2c882db10066959a4d -->
<g id="node1" class="node"><title>dir_4ae40836603d8d2c882db10066959a4d</title>
<text text-anchor="middle" x="195" y="-39" font-family="Helvetica,sans-Serif" font-size="10.00">norm</text>
</g>
<!-- dir_1c32e16ee862a64d79bd4677b5f5fcf4 -->
<g id="node2" class="node"><title>dir_1c32e16ee862a64d79bd4677b5f5fcf4</title>
<g id="a_node2"><a xlink:href="dir_1c32e16ee862a64d79bd4677b5f5fcf4.html" target="_top" xlink:title="s">
<polygon fill="white" stroke="black" points="150,-60 96,-60 96,-24 150,-24 150,-60"/>
<text text-anchor="middle" x="123" y="-39" font-family="Helvetica,sans-Serif" font-size="10.00">s</text>
</a>
</g>
</g>
<!-- dir_8ad8067bf1928b5545a39e7e198b7091 -->
<g id="node3" class="node"><title>dir_8ad8067bf1928b5545a39e7e198b7091</title>
<g id="a_node3"><a xlink:href="dir_8ad8067bf1928b5545a39e7e198b7091.html" target="_top" xlink:title="t">
<polygon fill="white" stroke="black" points="78,-60 24,-60 24,-24 78,-24 78,-60"/>
<text text-anchor="middle" x="51" y="-39" font-family="Helvetica,sans-Serif" font-size="10.00">t</text>
</a>
</g>
</g>
</g>
</svg>
