<?xml version="1.0" encoding="UTF-8" standalone="no"?>
<!DOCTYPE svg PUBLIC "-//W3C//DTD SVG 1.1//EN"
 "http://www.w3.org/Graphics/SVG/1.1/DTD/svg11.dtd">
<!-- Generated by graphviz version 2.38.0 (20140413.2041)
 -->
<!-- Title: fuzzylite/fl/factory Pages: 1 -->
<svg width="267pt" height="294pt"
 viewBox="0.00 0.00 266.52 294.00" xmlns="http://www.w3.org/2000/svg" xmlns:xlink="http://www.w3.org/1999/xlink">
<g id="graph0" class="graph" transform="scale(1 1) rotate(0) translate(4 290)">
<title>fuzzylite/fl/factory</title>
<polygon fill="white" stroke="none" points="-4,4 -4,-290 262.52,-290 262.52,4 -4,4"/>
<g id="clust1" class="cluster"><title>clusterdir_42763f13e63a58817570562f5348db6a</title>
<g id="a_clust1"><a xlink:href="dir_42763f13e63a58817570562f5348db6a.html" target="_top" xlink:title="fl">
<polygon fill="#ddddee" stroke="black" points="69.5195,-208 69.5195,-278 139.52,-278 139.52,-208 69.5195,-208"/>
<text text-anchor="middle" x="104.52" y="-266" font-family="Helvetica,sans-Serif" font-size="10.00">fl</text>
</a>
</g>
</g>
<!-- dir_f3c49cc73028b792ed43a22e46d953a5 -->
<g id="node1" class="node"><title>dir_f3c49cc73028b792ed43a22e46d953a5</title>
<g id="a_node1"><a xlink:href="dir_f3c49cc73028b792ed43a22e46d953a5.html" target="_top" xlink:title="factory">
<polygon fill="#eeeeff" stroke="black" points="131.52,-252 77.5195,-252 77.5195,-216 131.52,-216 131.52,-252"/>
<text text-anchor="middle" x="104.52" y="-231" font-family="Helvetica,sans-Serif" font-size="10.00">factory</text>
</a>
</g>
</g>
<!-- dir_e49c8fc1bb5e843b8a0f8c8265f1d380 -->
<g id="node2" class="node"><title>dir_e49c8fc1bb5e843b8a0f8c8265f1d380</title>
<g id="a_node2"><a xlink:href="dir_e49c8fc1bb5e843b8a0f8c8265f1d380.html" target="_top" xlink:title="defuzzifier">
<polygon fill="none" stroke="black" points="91.0972,-36 29.9419,-36 29.9419,-0 91.0972,-0 91.0972,-36"/>
<text text-anchor="middle" x="60.5195" y="-15" font-family="Helvetica,sans-Serif" font-size="10.00">defuzzifier</text>
</a>
</g>
</g>
<!-- dir_f3c49cc73028b792ed43a22e46d953a5&#45;&gt;dir_e49c8fc1bb5e843b8a0f8c8265f1d380 -->
<g id="edge1" class="edge"><title>dir_f3c49cc73028b792ed43a22e46d953a5&#45;&gt;dir_e49c8fc1bb5e843b8a0f8c8265f1d380</title>
<path fill="none" stroke="black" d="M77.4194,-226.122C54.8212,-218.798 24.0555,-204.755 9.51954,-180 -16.3749,-135.902 16.6877,-77.16 40.3914,-44.1972"/>
<polygon fill="black" stroke="black" points="43.3215,-46.1221 46.4731,-36.0069 37.7014,-41.949 43.3215,-46.1221"/>
<g id="a_edge1&#45;headlabel"><a xlink:href="dir_000004_000003.html" target="_top" xlink:title="4">
<text text-anchor="middle" x="43.4581" y="-47.7007" font-family="Helvetica,sans-Serif" font-size="10.00">4</text>
</a>
</g>
</g>
<!-- dir_09b7e7d2a1bd37ecb43174b85ad46d92 -->
<g id="node3" class="node"><title>dir_09b7e7d2a1bd37ecb43174b85ad46d92</title>
<g id="a_node3"><a xlink:href="dir_09b7e7d2a1bd37ecb43174b85ad46d92.html" target="_top" xlink:title="activation">
<polygon fill="none" stroke="black" points="76.7662,-180 18.2729,-180 18.2729,-144 76.7662,-144 76.7662,-180"/>
<text text-anchor="middle" x="47.5195" y="-159" font-family="Helvetica,sans-Serif" font-size="10.00">activation</text>
</a>
</g>
</g>
<!-- dir_f3c49cc73028b792ed43a22e46d953a5&#45;&gt;dir_09b7e7d2a1bd37ecb43174b85ad46d92 -->
<g id="edge2" class="edge"><title>dir_f3c49cc73028b792ed43a22e46d953a5&#45;&gt;dir_09b7e7d2a1bd37ecb43174b85ad46d92</title>
<path fill="none" stroke="black" d="M90.4296,-215.697C83.5961,-207.305 75.2627,-197.07 67.7638,-187.861"/>
<polygon fill="black" stroke="black" points="70.4757,-185.649 61.4474,-180.104 65.0476,-190.069 70.4757,-185.649"/>
<g id="a_edge2&#45;headlabel"><a xlink:href="dir_000004_000002.html" target="_top" xlink:title="1">
<text text-anchor="middle" x="74.9471" y="-183.643" font-family="Helvetica,sans-Serif" font-size="10.00">1</text>
</a>
</g>
</g>
<!-- dir_2ef7176460cbb016c0cce1054d48250f -->
<g id="node4" class="node"><title>dir_2ef7176460cbb016c0cce1054d48250f</title>
<g id="a_node4"><a xlink:href="dir_2ef7176460cbb016c0cce1054d48250f.html" target="_top" xlink:title="term">
<polygon fill="none" stroke="black" points="158.52,-108 104.52,-108 104.52,-72 158.52,-72 158.52,-108"/>
<text text-anchor="middle" x="131.52" y="-87" font-family="Helvetica,sans-Serif" font-size="10.00">term</text>
</a>
</g>
</g>
<!-- dir_f3c49cc73028b792ed43a22e46d953a5&#45;&gt;dir_2ef7176460cbb016c0cce1054d48250f -->
<g id="edge3" class="edge"><title>dir_f3c49cc73028b792ed43a22e46d953a5&#45;&gt;dir_2ef7176460cbb016c0cce1054d48250f</title>
<path fill="none" stroke="black" d="M107.776,-215.871C112.378,-191.67 120.832,-147.211 126.311,-118.393"/>
<polygon fill="black" stroke="black" points="129.822,-118.667 128.251,-108.189 122.945,-117.359 129.822,-118.667"/>
<g id="a_edge3&#45;headlabel"><a xlink:href="dir_000004_000011.html" target="_top" xlink:title="3">
<text text-anchor="middle" x="131.939" y="-119.729" font-family="Helvetica,sans-Serif" font-size="10.00">3</text>
</a>
</g>
</g>
<!-- dir_292910e210eb6613ddae6c928ce8cc0b -->
<g id="node5" class="node"><title>dir_292910e210eb6613ddae6c928ce8cc0b</title>
<g id="a_node5"><a xlink:href="dir_292910e210eb6613ddae6c928ce8cc0b.html" target="_top" xlink:title="hedge">
<polygon fill="none" stroke="black" points="186.52,-180 132.52,-180 132.52,-144 186.52,-144 186.52,-180"/>
<text text-anchor="middle" x="159.52" y="-159" font-family="Helvetica,sans-Serif" font-size="10.00">hedge</text>
</a>
</g>
</g>
<!-- dir_f3c49cc73028b792ed43a22e46d953a5&#45;&gt;dir_292910e210eb6613ddae6c928ce8cc0b -->
<g id="edge4" class="edge"><title>dir_f3c49cc73028b792ed43a22e46d953a5&#45;&gt;dir_292910e210eb6613ddae6c928ce8cc0b</title>
<path fill="none" stroke="black" d="M118.115,-215.697C124.642,-207.389 132.588,-197.277 139.766,-188.141"/>
<polygon fill="black" stroke="black" points="142.654,-190.13 146.08,-180.104 137.15,-185.805 142.654,-190.13"/>
<g id="a_edge4&#45;headlabel"><a xlink:href="dir_000004_000005.html" target="_top" xlink:title="2">
<text text-anchor="middle" x="142.666" y="-191.711" font-family="Helvetica,sans-Serif" font-size="10.00">2</text>
</a>
</g>
</g>
<!-- dir_4ae40836603d8d2c882db10066959a4d -->
<g id="node6" class="node"><title>dir_4ae40836603d8d2c882db10066959a4d</title>
<g id="a_node6"><a xlink:href="dir_4ae40836603d8d2c882db10066959a4d.html" target="_top" xlink:title="norm">
<polygon fill="white" stroke="red" points="258.52,-180 204.52,-180 204.52,-144 258.52,-144 258.52,-180"/>
<text text-anchor="middle" x="231.52" y="-159" font-family="Helvetica,sans-Serif" font-size="10.00">norm</text>
</a>
</g>
</g>
<!-- dir_f3c49cc73028b792ed43a22e46d953a5&#45;&gt;dir_4ae40836603d8d2c882db10066959a4d -->
<g id="edge5" class="edge"><title>dir_f3c49cc73028b792ed43a22e46d953a5&#45;&gt;dir_4ae40836603d8d2c882db10066959a4d</title>
<path fill="none" stroke="black" d="M131.764,-217.983C150.346,-207.741 175.158,-194.066 195.387,-182.916"/>
<polygon fill="black" stroke="black" points="197.252,-185.884 204.32,-177.992 193.873,-179.754 197.252,-185.884"/>
<g id="a_edge5&#45;headlabel"><a xlink:href="dir_000004_000007.html" target="_top" xlink:title="4">
<text text-anchor="middle" x="195.474" y="-187.106" font-family="Helvetica,sans-Serif" font-size="10.00">4</text>
</a>
</g>
</g>
<!-- dir_2ef7176460cbb016c0cce1054d48250f&#45;&gt;dir_e49c8fc1bb5e843b8a0f8c8265f1d380 -->
<g id="edge6" class="edge"><title>dir_2ef7176460cbb016c0cce1054d48250f&#45;&gt;dir_e49c8fc1bb5e843b8a0f8c8265f1d380</title>
<path fill="none" stroke="black" d="M113.969,-71.6966C105.285,-63.135 94.6566,-52.6562 85.1712,-43.3045"/>
<polygon fill="black" stroke="black" points="87.4466,-40.6327 77.8682,-36.1043 82.532,-45.6175 87.4466,-40.6327"/>
<g id="a_edge6&#45;headlabel"><a xlink:href="dir_000011_000003.html" target="_top" xlink:title="1">
<text text-anchor="middle" x="91.9996" y="-38.1345" font-family="Helvetica,sans-Serif" font-size="10.00">1</text>
</a>
</g>
</g>
<!-- dir_292910e210eb6613ddae6c928ce8cc0b&#45;&gt;dir_2ef7176460cbb016c0cce1054d48250f -->
<g id="edge7" class="edge"><title>dir_292910e210eb6613ddae6c928ce8cc0b&#45;&gt;dir_2ef7176460cbb016c0cce1054d48250f</title>
<path fill="none" stroke="black" d="M152.598,-143.697C149.445,-135.813 145.641,-126.304 142.138,-117.546"/>
<polygon fill="black" stroke="black" points="145.325,-116.089 138.361,-108.104 138.826,-118.689 145.325,-116.089"/>
<g id="a_edge7&#45;headlabel"><a xlink:href="dir_000005_000011.html" target="_top" xlink:title="1">
<text text-anchor="middle" x="149.296" y="-115.372" font-family="Helvetica,sans-Serif" font-size="10.00">1</text>
</a>
</g>
</g>
<!-- dir_4ae40836603d8d2c882db10066959a4d&#45;&gt;dir_2ef7176460cbb016c0cce1054d48250f -->
<g id="edge8" class="edge"><title>dir_4ae40836603d8d2c882db10066959a4d&#45;&gt;dir_2ef7176460cbb016c0cce1054d48250f</title>
<path fill="none" stroke="black" d="M207.057,-143.876C194.224,-134.893 178.323,-123.763 164.425,-114.034"/>
<polygon fill="black" stroke="black" points="166.276,-111.057 156.076,-108.19 162.262,-116.792 166.276,-111.057"/>
<g id="a_edge8&#45;headlabel"><a xlink:href="dir_000007_000011.html" target="_top" xlink:title="2">
<text text-anchor="middle" x="170.849" y="-107.792" font-family="Helvetica,sans-Serif" font-size="10.00">2</text>
</a>
</g>
</g>
</g>
</svg>
