<?xml version="1.0" encoding="UTF-8" standalone="no"?>
<!DOCTYPE svg PUBLIC "-//W3C//DTD SVG 1.1//EN"
 "http://www.w3.org/Graphics/SVG/1.1/DTD/svg11.dtd">
<!-- Generated by graphviz version 2.38.0 (20140413.2041)
 -->
<!-- Title: fuzzylite/fl Pages: 1 -->
<svg width="410pt" height="254pt"
 viewBox="0.00 0.00 410.00 254.00" xmlns="http://www.w3.org/2000/svg" xmlns:xlink="http://www.w3.org/1999/xlink">
<g id="graph0" class="graph" transform="scale(1 1) rotate(0) translate(4 250)">
<title>fuzzylite/fl</title>
<polygon fill="white" stroke="none" points="-4,4 -4,-250 406,-250 406,4 -4,4"/>
<g id="clust1" class="cluster"><title>clusterdir_6163a6fedd5edff7549d25fe1b85e33d</title>
<g id="a_clust1"><a xlink:href="dir_6163a6fedd5edff7549d25fe1b85e33d.html" target="_top" xlink:title="fuzzylite">
<polygon fill="#ddddee" stroke="black" points="8,-8 8,-238 394,-238 394,-8 8,-8"/>
<text text-anchor="middle" x="201" y="-226" font-family="Helvetica,sans-Serif" font-size="10.00">fuzzylite</text>
</a>
</g>
</g>
<g id="clust2" class="cluster"><title>clusterdir_42763f13e63a58817570562f5348db6a</title>
<g id="a_clust2"><a xlink:href="dir_42763f13e63a58817570562f5348db6a.html" target="_top">
<polygon fill="#eeeeff" stroke="black" points="16,-16 16,-212 386,-212 386,-16 16,-16"/>
</a>
</g>
</g>
<!-- dir_42763f13e63a58817570562f5348db6a -->
<g id="node1" class="node"><title>dir_42763f13e63a58817570562f5348db6a</title>
<text text-anchor="middle" x="241" y="-183" font-family="Helvetica,sans-Serif" font-size="10.00">fl</text>
</g>
<!-- dir_f3c49cc73028b792ed43a22e46d953a5 -->
<g id="node4" class="node"><title>dir_f3c49cc73028b792ed43a22e46d953a5</title>
<g id="a_node4"><a xlink:href="dir_f3c49cc73028b792ed43a22e46d953a5.html" target="_top" xlink:title="factory">
<polygon fill="white" stroke="black" points="160,-132 106,-132 106,-96 160,-96 160,-132"/>
<text text-anchor="middle" x="133" y="-111" font-family="Helvetica,sans-Serif" font-size="10.00">factory</text>
</a>
</g>
</g>
<!-- dir_42763f13e63a58817570562f5348db6a&#45;&gt;dir_f3c49cc73028b792ed43a22e46d953a5 -->
<g id="edge2" class="edge"><title>dir_42763f13e63a58817570562f5348db6a&#45;&gt;dir_f3c49cc73028b792ed43a22e46d953a5</title>
<path fill="none" stroke="black" d="M214.58,-167.876C200.59,-158.808 183.224,-147.552 168.114,-137.759"/>
<polygon fill="black" stroke="black" points="169.817,-134.692 159.521,-132.19 166.009,-140.566 169.817,-134.692"/>
<g id="a_edge2&#45;headlabel"><a xlink:href="dir_000001_000004.html" target="_top" xlink:title="10">
<text text-anchor="middle" x="174.377" y="-131.264" font-family="Helvetica,sans-Serif" font-size="10.00">10</text>
</a>
</g>
</g>
<!-- dir_446885192105908f1b7b797a1e5cae29 -->
<g id="node6" class="node"><title>dir_446885192105908f1b7b797a1e5cae29</title>
<g id="a_node6"><a xlink:href="dir_446885192105908f1b7b797a1e5cae29.html" target="_top" xlink:title="imex">
<polygon fill="white" stroke="black" points="232,-132 178,-132 178,-96 232,-96 232,-132"/>
<text text-anchor="middle" x="205" y="-111" font-family="Helvetica,sans-Serif" font-size="10.00">imex</text>
</a>
</g>
</g>
<!-- dir_42763f13e63a58817570562f5348db6a&#45;&gt;dir_446885192105908f1b7b797a1e5cae29 -->
<g id="edge3" class="edge"><title>dir_42763f13e63a58817570562f5348db6a&#45;&gt;dir_446885192105908f1b7b797a1e5cae29</title>
<path fill="none" stroke="black" d="M232.101,-167.697C228.003,-159.728 223.051,-150.1 218.507,-141.264"/>
<polygon fill="black" stroke="black" points="221.483,-139.396 213.797,-132.104 215.258,-142.598 221.483,-139.396"/>
<g id="a_edge3&#45;headlabel"><a xlink:href="dir_000001_000006.html" target="_top" xlink:title="9">
<text text-anchor="middle" x="225.651" y="-138.295" font-family="Helvetica,sans-Serif" font-size="10.00">9</text>
</a>
</g>
</g>
<!-- dir_a23581e96f960bad4b58c37b90438a4d -->
<g id="node8" class="node"><title>dir_a23581e96f960bad4b58c37b90438a4d</title>
<g id="a_node8"><a xlink:href="dir_a23581e96f960bad4b58c37b90438a4d.html" target="_top" xlink:title="rule">
<polygon fill="white" stroke="black" points="304,-132 250,-132 250,-96 304,-96 304,-132"/>
<text text-anchor="middle" x="277" y="-111" font-family="Helvetica,sans-Serif" font-size="10.00">rule</text>
</a>
</g>
</g>
<!-- dir_42763f13e63a58817570562f5348db6a&#45;&gt;dir_a23581e96f960bad4b58c37b90438a4d -->
<g id="edge1" class="edge"><title>dir_42763f13e63a58817570562f5348db6a&#45;&gt;dir_a23581e96f960bad4b58c37b90438a4d</title>
<path fill="none" stroke="black" d="M249.899,-167.697C253.997,-159.728 258.949,-150.1 263.493,-141.264"/>
<polygon fill="black" stroke="black" points="266.742,-142.598 268.203,-132.104 260.517,-139.396 266.742,-142.598"/>
<g id="a_edge1&#45;headlabel"><a xlink:href="dir_000001_000010.html" target="_top" xlink:title="5">
<text text-anchor="middle" x="267.623" y="-144.093" font-family="Helvetica,sans-Serif" font-size="10.00">5</text>
</a>
</g>
</g>
<!-- dir_53b9dbd17d072b7c8dd4f4b1c179ccd4 -->
<g id="node10" class="node"><title>dir_53b9dbd17d072b7c8dd4f4b1c179ccd4</title>
<g id="a_node10"><a xlink:href="dir_53b9dbd17d072b7c8dd4f4b1c179ccd4.html" target="_top" xlink:title="variable">
<polygon fill="white" stroke="black" points="376,-132 322,-132 322,-96 376,-96 376,-132"/>
<text text-anchor="middle" x="349" y="-111" font-family="Helvetica,sans-Serif" font-size="10.00">variable</text>
</a>
</g>
</g>
<!-- dir_42763f13e63a58817570562f5348db6a&#45;&gt;dir_53b9dbd17d072b7c8dd4f4b1c179ccd4 -->
<g id="edge4" class="edge"><title>dir_42763f13e63a58817570562f5348db6a&#45;&gt;dir_53b9dbd17d072b7c8dd4f4b1c179ccd4</title>
<path fill="none" stroke="black" d="M267.42,-167.876C281.41,-158.808 298.776,-147.552 313.886,-137.759"/>
<polygon fill="black" stroke="black" points="315.991,-140.566 322.479,-132.19 312.183,-134.692 315.991,-140.566"/>
<g id="a_edge4&#45;headlabel"><a xlink:href="dir_000001_000012.html" target="_top" xlink:title="3">
<text text-anchor="middle" x="314.519" y="-141.903" font-family="Helvetica,sans-Serif" font-size="10.00">3</text>
</a>
</g>
</g>
<!-- dir_09b7e7d2a1bd37ecb43174b85ad46d92 -->
<g id="node2" class="node"><title>dir_09b7e7d2a1bd37ecb43174b85ad46d92</title>
<g id="a_node2"><a xlink:href="dir_09b7e7d2a1bd37ecb43174b85ad46d92.html" target="_top" xlink:title="activation">
<polygon fill="white" stroke="black" points="82.2466,-60 23.7534,-60 23.7534,-24 82.2466,-24 82.2466,-60"/>
<text text-anchor="middle" x="53" y="-39" font-family="Helvetica,sans-Serif" font-size="10.00">activation</text>
</a>
</g>
</g>
<!-- dir_e49c8fc1bb5e843b8a0f8c8265f1d380 -->
<g id="node3" class="node"><title>dir_e49c8fc1bb5e843b8a0f8c8265f1d380</title>
<g id="a_node3"><a xlink:href="dir_e49c8fc1bb5e843b8a0f8c8265f1d380.html" target="_top" xlink:title="defuzzifier">
<polygon fill="white" stroke="black" points="377.578,-60 316.422,-60 316.422,-24 377.578,-24 377.578,-60"/>
<text text-anchor="middle" x="347" y="-39" font-family="Helvetica,sans-Serif" font-size="10.00">defuzzifier</text>
</a>
</g>
</g>
<!-- dir_f3c49cc73028b792ed43a22e46d953a5&#45;&gt;dir_09b7e7d2a1bd37ecb43174b85ad46d92 -->
<g id="edge6" class="edge"><title>dir_f3c49cc73028b792ed43a22e46d953a5&#45;&gt;dir_09b7e7d2a1bd37ecb43174b85ad46d92</title>
<path fill="none" stroke="black" d="M113.225,-95.6966C103.246,-86.9655 90.9891,-76.2405 80.1432,-66.7503"/>
<polygon fill="black" stroke="black" points="82.3784,-64.0554 72.5478,-60.1043 77.7688,-69.3234 82.3784,-64.0554"/>
<g id="a_edge6&#45;headlabel"><a xlink:href="dir_000004_000002.html" target="_top" xlink:title="1">
<text text-anchor="middle" x="86.9532" y="-61.2857" font-family="Helvetica,sans-Serif" font-size="10.00">1</text>
</a>
</g>
</g>
<!-- dir_f3c49cc73028b792ed43a22e46d953a5&#45;&gt;dir_e49c8fc1bb5e843b8a0f8c8265f1d380 -->
<g id="edge5" class="edge"><title>dir_f3c49cc73028b792ed43a22e46d953a5&#45;&gt;dir_e49c8fc1bb5e843b8a0f8c8265f1d380</title>
<path fill="none" stroke="black" d="M160.294,-99.4687C163.202,-98.2208 166.141,-97.0376 169,-96 225.673,-75.4294 245.107,-79.9239 306.386,-59.9156"/>
<polygon fill="black" stroke="black" points="307.798,-63.1336 316.165,-56.6338 305.571,-56.4974 307.798,-63.1336"/>
<g id="a_edge5&#45;headlabel"><a xlink:href="dir_000004_000003.html" target="_top" xlink:title="4">
<text text-anchor="middle" x="305.294" y="-63.969" font-family="Helvetica,sans-Serif" font-size="10.00">4</text>
</a>
</g>
</g>
<!-- dir_292910e210eb6613ddae6c928ce8cc0b -->
<g id="node5" class="node"><title>dir_292910e210eb6613ddae6c928ce8cc0b</title>
<g id="a_node5"><a xlink:href="dir_292910e210eb6613ddae6c928ce8cc0b.html" target="_top" xlink:title="hedge">
<polygon fill="white" stroke="black" points="154,-60 100,-60 100,-24 154,-24 154,-60"/>
<text text-anchor="middle" x="127" y="-39" font-family="Helvetica,sans-Serif" font-size="10.00">hedge</text>
</a>
</g>
</g>
<!-- dir_f3c49cc73028b792ed43a22e46d953a5&#45;&gt;dir_292910e210eb6613ddae6c928ce8cc0b -->
<g id="edge8" class="edge"><title>dir_f3c49cc73028b792ed43a22e46d953a5&#45;&gt;dir_292910e210eb6613ddae6c928ce8cc0b</title>
<path fill="none" stroke="black" d="M131.517,-95.6966C130.856,-87.9827 130.061,-78.7125 129.324,-70.1124"/>
<polygon fill="black" stroke="black" points="132.807,-69.7689 128.466,-60.1043 125.833,-70.3667 132.807,-69.7689"/>
<g id="a_edge8&#45;headlabel"><a xlink:href="dir_000004_000005.html" target="_top" xlink:title="2">
<text text-anchor="middle" x="135.943" y="-70.1079" font-family="Helvetica,sans-Serif" font-size="10.00">2</text>
</a>
</g>
</g>
<!-- dir_4ae40836603d8d2c882db10066959a4d -->
<g id="node7" class="node"><title>dir_4ae40836603d8d2c882db10066959a4d</title>
<g id="a_node7"><a xlink:href="dir_4ae40836603d8d2c882db10066959a4d.html" target="_top" xlink:title="norm">
<polygon fill="white" stroke="red" points="226,-60 172,-60 172,-24 226,-24 226,-60"/>
<text text-anchor="middle" x="199" y="-39" font-family="Helvetica,sans-Serif" font-size="10.00">norm</text>
</a>
</g>
</g>
<!-- dir_f3c49cc73028b792ed43a22e46d953a5&#45;&gt;dir_4ae40836603d8d2c882db10066959a4d -->
<g id="edge9" class="edge"><title>dir_f3c49cc73028b792ed43a22e46d953a5&#45;&gt;dir_4ae40836603d8d2c882db10066959a4d</title>
<path fill="none" stroke="black" d="M149.315,-95.6966C157.307,-87.2198 167.072,-76.8636 175.822,-67.5826"/>
<polygon fill="black" stroke="black" points="178.559,-69.7813 182.873,-60.1043 173.466,-64.9792 178.559,-69.7813"/>
<g id="a_edge9&#45;headlabel"><a xlink:href="dir_000004_000007.html" target="_top" xlink:title="4">
<text text-anchor="middle" x="178.159" y="-71.3445" font-family="Helvetica,sans-Serif" font-size="10.00">4</text>
</a>
</g>
</g>
<!-- dir_2ef7176460cbb016c0cce1054d48250f -->
<g id="node9" class="node"><title>dir_2ef7176460cbb016c0cce1054d48250f</title>
<g id="a_node9"><a xlink:href="dir_2ef7176460cbb016c0cce1054d48250f.html" target="_top" xlink:title="term">
<polygon fill="white" stroke="black" points="298,-60 244,-60 244,-24 298,-24 298,-60"/>
<text text-anchor="middle" x="271" y="-39" font-family="Helvetica,sans-Serif" font-size="10.00">term</text>
</a>
</g>
</g>
<!-- dir_f3c49cc73028b792ed43a22e46d953a5&#45;&gt;dir_2ef7176460cbb016c0cce1054d48250f -->
<g id="edge7" class="edge"><title>dir_f3c49cc73028b792ed43a22e46d953a5&#45;&gt;dir_2ef7176460cbb016c0cce1054d48250f</title>
<path fill="none" stroke="black" d="M160.264,-99.1703C181.528,-88.3844 211.262,-73.3019 234.565,-61.4813"/>
<polygon fill="black" stroke="black" points="236.457,-64.4462 243.792,-56.801 233.291,-58.2034 236.457,-64.4462"/>
<g id="a_edge7&#45;headlabel"><a xlink:href="dir_000004_000011.html" target="_top" xlink:title="3">
<text text-anchor="middle" x="234.536" y="-65.6044" font-family="Helvetica,sans-Serif" font-size="10.00">3</text>
</a>
</g>
</g>
<!-- dir_53b9dbd17d072b7c8dd4f4b1c179ccd4&#45;&gt;dir_e49c8fc1bb5e843b8a0f8c8265f1d380 -->
<g id="edge10" class="edge"><title>dir_53b9dbd17d072b7c8dd4f4b1c179ccd4&#45;&gt;dir_e49c8fc1bb5e843b8a0f8c8265f1d380</title>
<path fill="none" stroke="black" d="M348.506,-95.6966C348.285,-87.9827 348.02,-78.7125 347.775,-70.1124"/>
<polygon fill="black" stroke="black" points="351.273,-70.0003 347.489,-60.1043 344.276,-70.2002 351.273,-70.0003"/>
<g id="a_edge10&#45;headlabel"><a xlink:href="dir_000012_000003.html" target="_top" xlink:title="1">
<text text-anchor="middle" x="354.214" y="-70.5124" font-family="Helvetica,sans-Serif" font-size="10.00">1</text>
</a>
</g>
</g>
</g>
</svg>
