<?xml version="1.0" encoding="UTF-8" standalone="no"?>
<!DOCTYPE svg PUBLIC "-//W3C//DTD SVG 1.1//EN"
 "http://www.w3.org/Graphics/SVG/1.1/DTD/svg11.dtd">
<!-- Generated by graphviz version 2.38.0 (20140413.2041)
 -->
<!-- Title: fuzzylite/fl/factory Pages: 1 -->
<svg width="362pt" height="150pt"
 viewBox="0.00 0.00 361.79 150.00" xmlns="http://www.w3.org/2000/svg" xmlns:xlink="http://www.w3.org/1999/xlink">
<g id="graph0" class="graph" transform="scale(1 1) rotate(0) translate(4 146)">
<title>fuzzylite/fl/factory</title>
<polygon fill="white" stroke="none" points="-4,4 -4,-146 357.788,-146 357.788,4 -4,4"/>
<g id="clust1" class="cluster"><title>clusterdir_42763f13e63a58817570562f5348db6a</title>
<g id="a_clust1"><a xlink:href="dir_42763f13e63a58817570562f5348db6a.html" target="_top" xlink:title="fl">
<polygon fill="#ddddee" stroke="black" points="147.788,-64 147.788,-134 217.788,-134 217.788,-64 147.788,-64"/>
<text text-anchor="middle" x="182.788" y="-122" font-family="Helvetica,sans-Serif" font-size="10.00">fl</text>
</a>
</g>
</g>
<!-- dir_f3c49cc73028b792ed43a22e46d953a5 -->
<g id="node1" class="node"><title>dir_f3c49cc73028b792ed43a22e46d953a5</title>
<g id="a_node1"><a xlink:href="dir_f3c49cc73028b792ed43a22e46d953a5.html" target="_top" xlink:title="factory">
<polygon fill="#eeeeff" stroke="black" points="209.788,-108 155.788,-108 155.788,-72 209.788,-72 209.788,-108"/>
<text text-anchor="middle" x="182.788" y="-87" font-family="Helvetica,sans-Serif" font-size="10.00">factory</text>
</a>
</g>
</g>
<!-- dir_e49c8fc1bb5e843b8a0f8c8265f1d380 -->
<g id="node2" class="node"><title>dir_e49c8fc1bb5e843b8a0f8c8265f1d380</title>
<g id="a_node2"><a xlink:href="dir_e49c8fc1bb5e843b8a0f8c8265f1d380.html" target="_top" xlink:title="defuzzifier">
<polygon fill="none" stroke="black" points="61.3657,-36 0.210465,-36 0.210465,-0 61.3657,-0 61.3657,-36"/>
<text text-anchor="middle" x="30.7881" y="-15" font-family="Helvetica,sans-Serif" font-size="10.00">defuzzifier</text>
</a>
</g>
</g>
<!-- dir_f3c49cc73028b792ed43a22e46d953a5&#45;&gt;dir_e49c8fc1bb5e843b8a0f8c8265f1d380 -->
<g id="edge1" class="edge"><title>dir_f3c49cc73028b792ed43a22e46d953a5&#45;&gt;dir_e49c8fc1bb5e843b8a0f8c8265f1d380</title>
<path fill="none" stroke="black" d="M155.614,-76.4854C131.934,-65.5804 97.2881,-49.625 70.501,-37.2888"/>
<polygon fill="black" stroke="black" points="71.9319,-34.0945 61.3847,-33.0905 69.0037,-40.4527 71.9319,-34.0945"/>
<g id="a_edge1&#45;headlabel"><a xlink:href="dir_000004_000003.html" target="_top" xlink:title="4">
<text text-anchor="middle" x="76.3845" y="-30.0192" font-family="Helvetica,sans-Serif" font-size="10.00">4</text>
</a>
</g>
</g>
<!-- dir_09b7e7d2a1bd37ecb43174b85ad46d92 -->
<g id="node3" class="node"><title>dir_09b7e7d2a1bd37ecb43174b85ad46d92</title>
<g id="a_node3"><a xlink:href="dir_09b7e7d2a1bd37ecb43174b85ad46d92.html" target="_top" xlink:title="activation">
<polygon fill="none" stroke="black" points="138.035,-36 79.5415,-36 79.5415,-0 138.035,-0 138.035,-36"/>
<text text-anchor="middle" x="108.788" y="-15" font-family="Helvetica,sans-Serif" font-size="10.00">activation</text>
</a>
</g>
</g>
<!-- dir_f3c49cc73028b792ed43a22e46d953a5&#45;&gt;dir_09b7e7d2a1bd37ecb43174b85ad46d92 -->
<g id="edge2" class="edge"><title>dir_f3c49cc73028b792ed43a22e46d953a5&#45;&gt;dir_09b7e7d2a1bd37ecb43174b85ad46d92</title>
<path fill="none" stroke="black" d="M164.496,-71.6966C155.356,-63.0503 144.148,-52.4486 134.188,-43.027"/>
<polygon fill="black" stroke="black" points="136.54,-40.4337 126.87,-36.1043 131.729,-45.519 136.54,-40.4337"/>
<g id="a_edge2&#45;headlabel"><a xlink:href="dir_000004_000002.html" target="_top" xlink:title="1">
<text text-anchor="middle" x="141.102" y="-37.8413" font-family="Helvetica,sans-Serif" font-size="10.00">1</text>
</a>
</g>
</g>
<!-- dir_2ef7176460cbb016c0cce1054d48250f -->
<g id="node4" class="node"><title>dir_2ef7176460cbb016c0cce1054d48250f</title>
<g id="a_node4"><a xlink:href="dir_2ef7176460cbb016c0cce1054d48250f.html" target="_top" xlink:title="term">
<polygon fill="none" stroke="black" points="209.788,-36 155.788,-36 155.788,-0 209.788,-0 209.788,-36"/>
<text text-anchor="middle" x="182.788" y="-15" font-family="Helvetica,sans-Serif" font-size="10.00">term</text>
</a>
</g>
</g>
<!-- dir_f3c49cc73028b792ed43a22e46d953a5&#45;&gt;dir_2ef7176460cbb016c0cce1054d48250f -->
<g id="edge3" class="edge"><title>dir_f3c49cc73028b792ed43a22e46d953a5&#45;&gt;dir_2ef7176460cbb016c0cce1054d48250f</title>
<path fill="none" stroke="black" d="M182.788,-71.6966C182.788,-63.9827 182.788,-54.7125 182.788,-46.1124"/>
<polygon fill="black" stroke="black" points="186.288,-46.1043 182.788,-36.1043 179.288,-46.1044 186.288,-46.1043"/>
<g id="a_edge3&#45;headlabel"><a xlink:href="dir_000004_000011.html" target="_top" xlink:title="3">
<text text-anchor="middle" x="189.127" y="-46.699" font-family="Helvetica,sans-Serif" font-size="10.00">3</text>
</a>
</g>
</g>
<!-- dir_292910e210eb6613ddae6c928ce8cc0b -->
<g id="node5" class="node"><title>dir_292910e210eb6613ddae6c928ce8cc0b</title>
<g id="a_node5"><a xlink:href="dir_292910e210eb6613ddae6c928ce8cc0b.html" target="_top" xlink:title="hedge">
<polygon fill="none" stroke="black" points="281.788,-36 227.788,-36 227.788,-0 281.788,-0 281.788,-36"/>
<text text-anchor="middle" x="254.788" y="-15" font-family="Helvetica,sans-Serif" font-size="10.00">hedge</text>
</a>
</g>
</g>
<!-- dir_f3c49cc73028b792ed43a22e46d953a5&#45;&gt;dir_292910e210eb6613ddae6c928ce8cc0b -->
<g id="edge4" class="edge"><title>dir_f3c49cc73028b792ed43a22e46d953a5&#45;&gt;dir_292910e210eb6613ddae6c928ce8cc0b</title>
<path fill="none" stroke="black" d="M200.586,-71.6966C209.392,-63.135 220.17,-52.6562 229.789,-43.3045"/>
<polygon fill="black" stroke="black" points="232.465,-45.5846 237.195,-36.1043 227.585,-40.5657 232.465,-45.5846"/>
<g id="a_edge4&#45;headlabel"><a xlink:href="dir_000004_000005.html" target="_top" xlink:title="2">
<text text-anchor="middle" x="231.867" y="-47.1261" font-family="Helvetica,sans-Serif" font-size="10.00">2</text>
</a>
</g>
</g>
<!-- dir_4ae40836603d8d2c882db10066959a4d -->
<g id="node6" class="node"><title>dir_4ae40836603d8d2c882db10066959a4d</title>
<g id="a_node6"><a xlink:href="dir_4ae40836603d8d2c882db10066959a4d.html" target="_top" xlink:title="norm">
<polygon fill="white" stroke="red" points="353.788,-36 299.788,-36 299.788,-0 353.788,-0 353.788,-36"/>
<text text-anchor="middle" x="326.788" y="-15" font-family="Helvetica,sans-Serif" font-size="10.00">norm</text>
</a>
</g>
</g>
<!-- dir_f3c49cc73028b792ed43a22e46d953a5&#45;&gt;dir_4ae40836603d8d2c882db10066959a4d -->
<g id="edge5" class="edge"><title>dir_f3c49cc73028b792ed43a22e46d953a5&#45;&gt;dir_4ae40836603d8d2c882db10066959a4d</title>
<path fill="none" stroke="black" d="M209.873,-75.8335C232.557,-64.8066 265.145,-48.9655 290.156,-36.8072"/>
<polygon fill="black" stroke="black" points="291.871,-39.8652 299.335,-32.3454 288.811,-33.5696 291.871,-39.8652"/>
<g id="a_edge5&#45;headlabel"><a xlink:href="dir_000004_000007.html" target="_top" xlink:title="4">
<text text-anchor="middle" x="289.88" y="-40.9902" font-family="Helvetica,sans-Serif" font-size="10.00">4</text>
</a>
</g>
</g>
</g>
</svg>
