<?xml version="1.0" encoding="UTF-8" standalone="no"?>
<!DOCTYPE svg PUBLIC "-//W3C//DTD SVG 1.1//EN"
 "http://www.w3.org/Graphics/SVG/1.1/DTD/svg11.dtd">
<!-- Generated by graphviz version 2.38.0 (20140413.2041)
 -->
<!-- Title: fuzzylite/fl/norm Pages: 1 -->
<svg width="254pt" height="158pt"
 viewBox="0.00 0.00 254.00 158.00" xmlns="http://www.w3.org/2000/svg" xmlns:xlink="http://www.w3.org/1999/xlink">
<g id="graph0" class="graph" transform="scale(1 1) rotate(0) translate(4 154)">
<title>fuzzylite/fl/norm</title>
<polygon fill="white" stroke="none" points="-4,4 -4,-154 250,-154 250,4 -4,4"/>
<g id="clust1" class="cluster"><title>clusterdir_42763f13e63a58817570562f5348db6a</title>
<g id="a_clust1"><a xlink:href="dir_42763f13e63a58817570562f5348db6a.html" target="_top" xlink:title="fl">
<polygon fill="#ddddee" stroke="black" points="8,-56 8,-142 238,-142 238,-56 8,-56"/>
<text text-anchor="middle" x="123" y="-130" font-family="Helvetica,sans-Serif" font-size="10.00">fl</text>
</a>
</g>
</g>
<g id="clust2" class="cluster"><title>clusterdir_4ae40836603d8d2c882db10066959a4d</title>
<g id="a_clust2"><a xlink:href="dir_4ae40836603d8d2c882db10066959a4d.html" target="_top">
<polygon fill="#eeeeff" stroke="black" points="16,-64 16,-116 230,-116 230,-64 16,-64"/>
</a>
</g>
</g>
<!-- dir_4ae40836603d8d2c882db10066959a4d -->
<g id="node1" class="node"><title>dir_4ae40836603d8d2c882db10066959a4d</title>
<text text-anchor="middle" x="195" y="-87" font-family="Helvetica,sans-Serif" font-size="10.00">norm</text>
</g>
<!-- dir_1c32e16ee862a64d79bd4677b5f5fcf4 -->
<g id="node2" class="node"><title>dir_1c32e16ee862a64d79bd4677b5f5fcf4</title>
<g id="a_node2"><a xlink:href="dir_1c32e16ee862a64d79bd4677b5f5fcf4.html" target="_top" xlink:title="s">
<polygon fill="white" stroke="black" points="150,-108 96,-108 96,-72 150,-72 150,-108"/>
<text text-anchor="middle" x="123" y="-87" font-family="Helvetica,sans-Serif" font-size="10.00">s</text>
</a>
</g>
</g>
<!-- dir_2ef7176460cbb016c0cce1054d48250f -->
<g id="node4" class="node"><title>dir_2ef7176460cbb016c0cce1054d48250f</title>
<g id="a_node4"><a xlink:href="dir_2ef7176460cbb016c0cce1054d48250f.html" target="_top" xlink:title="term">
<polygon fill="none" stroke="black" points="114,-36 60,-36 60,-0 114,-0 114,-36"/>
<text text-anchor="middle" x="87" y="-15" font-family="Helvetica,sans-Serif" font-size="10.00">term</text>
</a>
</g>
</g>
<!-- dir_1c32e16ee862a64d79bd4677b5f5fcf4&#45;&gt;dir_2ef7176460cbb016c0cce1054d48250f -->
<g id="edge2" class="edge"><title>dir_1c32e16ee862a64d79bd4677b5f5fcf4&#45;&gt;dir_2ef7176460cbb016c0cce1054d48250f</title>
<path fill="none" stroke="black" d="M114.101,-71.6966C110.003,-63.7284 105.051,-54.0995 100.507,-45.2641"/>
<polygon fill="black" stroke="black" points="103.483,-43.3965 95.7965,-36.1043 97.2575,-46.598 103.483,-43.3965"/>
<g id="a_edge2&#45;headlabel"><a xlink:href="dir_000008_000011.html" target="_top" xlink:title="1">
<text text-anchor="middle" x="107.651" y="-42.2946" font-family="Helvetica,sans-Serif" font-size="10.00">1</text>
</a>
</g>
</g>
<!-- dir_8ad8067bf1928b5545a39e7e198b7091 -->
<g id="node3" class="node"><title>dir_8ad8067bf1928b5545a39e7e198b7091</title>
<g id="a_node3"><a xlink:href="dir_8ad8067bf1928b5545a39e7e198b7091.html" target="_top" xlink:title="t">
<polygon fill="white" stroke="black" points="78,-108 24,-108 24,-72 78,-72 78,-108"/>
<text text-anchor="middle" x="51" y="-87" font-family="Helvetica,sans-Serif" font-size="10.00">t</text>
</a>
</g>
</g>
<!-- dir_8ad8067bf1928b5545a39e7e198b7091&#45;&gt;dir_2ef7176460cbb016c0cce1054d48250f -->
<g id="edge1" class="edge"><title>dir_8ad8067bf1928b5545a39e7e198b7091&#45;&gt;dir_2ef7176460cbb016c0cce1054d48250f</title>
<path fill="none" stroke="black" d="M59.8989,-71.6966C63.9968,-63.7284 68.9488,-54.0995 73.4927,-45.2641"/>
<polygon fill="black" stroke="black" points="76.7425,-46.598 78.2035,-36.1043 70.5174,-43.3965 76.7425,-46.598"/>
<g id="a_edge1&#45;headlabel"><a xlink:href="dir_000009_000011.html" target="_top" xlink:title="1">
<text text-anchor="middle" x="77.6235" y="-48.0931" font-family="Helvetica,sans-Serif" font-size="10.00">1</text>
</a>
</g>
</g>
</g>
</svg>
