<?xml version="1.0" encoding="UTF-8" standalone="no"?>
<!DOCTYPE svg PUBLIC "-//W3C//DTD SVG 1.1//EN"
 "http://www.w3.org/Graphics/SVG/1.1/DTD/svg11.dtd">
<!-- Generated by graphviz version 2.38.0 (20140413.2041)
 -->
<!-- Title: fuzzylite/fl Pages: 1 -->
<svg width="370pt" height="398pt"
 viewBox="0.00 0.00 370.00 398.00" xmlns="http://www.w3.org/2000/svg" xmlns:xlink="http://www.w3.org/1999/xlink">
<g id="graph0" class="graph" transform="scale(1 1) rotate(0) translate(4 394)">
<title>fuzzylite/fl</title>
<polygon fill="white" stroke="none" points="-4,4 -4,-394 366,-394 366,4 -4,4"/>
<g id="clust1" class="cluster"><title>clusterdir_6163a6fedd5edff7549d25fe1b85e33d</title>
<g id="a_clust1"><a xlink:href="dir_6163a6fedd5edff7549d25fe1b85e33d.html" target="_top" xlink:title="fuzzylite">
<polygon fill="#ddddee" stroke="black" points="8,-8 8,-382 354,-382 354,-8 8,-8"/>
<text text-anchor="middle" x="181" y="-370" font-family="Helvetica,sans-Serif" font-size="10.00">fuzzylite</text>
</a>
</g>
</g>
<g id="clust2" class="cluster"><title>clusterdir_42763f13e63a58817570562f5348db6a</title>
<g id="a_clust2"><a xlink:href="dir_42763f13e63a58817570562f5348db6a.html" target="_top">
<polygon fill="#eeeeff" stroke="black" points="16,-16 16,-356 346,-356 346,-16 16,-16"/>
</a>
</g>
</g>
<!-- dir_42763f13e63a58817570562f5348db6a -->
<g id="node1" class="node"><title>dir_42763f13e63a58817570562f5348db6a</title>
<text text-anchor="middle" x="201" y="-327" font-family="Helvetica,sans-Serif" font-size="10.00">fl</text>
</g>
<!-- dir_f3c49cc73028b792ed43a22e46d953a5 -->
<g id="node4" class="node"><title>dir_f3c49cc73028b792ed43a22e46d953a5</title>
<g id="a_node4"><a xlink:href="dir_f3c49cc73028b792ed43a22e46d953a5.html" target="_top" xlink:title="factory">
<polygon fill="white" stroke="black" points="119,-276 65,-276 65,-240 119,-240 119,-276"/>
<text text-anchor="middle" x="92" y="-255" font-family="Helvetica,sans-Serif" font-size="10.00">factory</text>
</a>
</g>
</g>
<!-- dir_42763f13e63a58817570562f5348db6a&#45;&gt;dir_f3c49cc73028b792ed43a22e46d953a5 -->
<g id="edge2" class="edge"><title>dir_42763f13e63a58817570562f5348db6a&#45;&gt;dir_f3c49cc73028b792ed43a22e46d953a5</title>
<path fill="none" stroke="black" d="M174.336,-311.876C160.216,-302.808 142.689,-291.552 127.439,-281.759"/>
<polygon fill="black" stroke="black" points="129.073,-278.648 118.767,-276.19 125.29,-284.538 129.073,-278.648"/>
<g id="a_edge2&#45;headlabel"><a xlink:href="dir_000001_000004.html" target="_top" xlink:title="10">
<text text-anchor="middle" x="133.631" y="-275.202" font-family="Helvetica,sans-Serif" font-size="10.00">10</text>
</a>
</g>
</g>
<!-- dir_446885192105908f1b7b797a1e5cae29 -->
<g id="node6" class="node"><title>dir_446885192105908f1b7b797a1e5cae29</title>
<g id="a_node6"><a xlink:href="dir_446885192105908f1b7b797a1e5cae29.html" target="_top" xlink:title="imex">
<polygon fill="white" stroke="black" points="192,-276 138,-276 138,-240 192,-240 192,-276"/>
<text text-anchor="middle" x="165" y="-255" font-family="Helvetica,sans-Serif" font-size="10.00">imex</text>
</a>
</g>
</g>
<!-- dir_42763f13e63a58817570562f5348db6a&#45;&gt;dir_446885192105908f1b7b797a1e5cae29 -->
<g id="edge3" class="edge"><title>dir_42763f13e63a58817570562f5348db6a&#45;&gt;dir_446885192105908f1b7b797a1e5cae29</title>
<path fill="none" stroke="black" d="M192.101,-311.697C188.003,-303.728 183.051,-294.1 178.507,-285.264"/>
<polygon fill="black" stroke="black" points="181.483,-283.396 173.797,-276.104 175.258,-286.598 181.483,-283.396"/>
<g id="a_edge3&#45;headlabel"><a xlink:href="dir_000001_000006.html" target="_top" xlink:title="11">
<text text-anchor="middle" x="185.651" y="-282.295" font-family="Helvetica,sans-Serif" font-size="10.00">11</text>
</a>
</g>
</g>
<!-- dir_a23581e96f960bad4b58c37b90438a4d -->
<g id="node8" class="node"><title>dir_a23581e96f960bad4b58c37b90438a4d</title>
<g id="a_node8"><a xlink:href="dir_a23581e96f960bad4b58c37b90438a4d.html" target="_top" xlink:title="rule">
<polygon fill="white" stroke="black" points="264,-276 210,-276 210,-240 264,-240 264,-276"/>
<text text-anchor="middle" x="237" y="-255" font-family="Helvetica,sans-Serif" font-size="10.00">rule</text>
</a>
</g>
</g>
<!-- dir_42763f13e63a58817570562f5348db6a&#45;&gt;dir_a23581e96f960bad4b58c37b90438a4d -->
<g id="edge1" class="edge"><title>dir_42763f13e63a58817570562f5348db6a&#45;&gt;dir_a23581e96f960bad4b58c37b90438a4d</title>
<path fill="none" stroke="black" d="M209.899,-311.697C213.997,-303.728 218.949,-294.1 223.493,-285.264"/>
<polygon fill="black" stroke="black" points="226.742,-286.598 228.203,-276.104 220.517,-283.396 226.742,-286.598"/>
<g id="a_edge1&#45;headlabel"><a xlink:href="dir_000001_000010.html" target="_top" xlink:title="5">
<text text-anchor="middle" x="227.623" y="-288.093" font-family="Helvetica,sans-Serif" font-size="10.00">5</text>
</a>
</g>
</g>
<!-- dir_53b9dbd17d072b7c8dd4f4b1c179ccd4 -->
<g id="node10" class="node"><title>dir_53b9dbd17d072b7c8dd4f4b1c179ccd4</title>
<g id="a_node10"><a xlink:href="dir_53b9dbd17d072b7c8dd4f4b1c179ccd4.html" target="_top" xlink:title="variable">
<polygon fill="white" stroke="black" points="338,-204 284,-204 284,-168 338,-168 338,-204"/>
<text text-anchor="middle" x="311" y="-183" font-family="Helvetica,sans-Serif" font-size="10.00">variable</text>
</a>
</g>
</g>
<!-- dir_42763f13e63a58817570562f5348db6a&#45;&gt;dir_53b9dbd17d072b7c8dd4f4b1c179ccd4 -->
<g id="edge4" class="edge"><title>dir_42763f13e63a58817570562f5348db6a&#45;&gt;dir_53b9dbd17d072b7c8dd4f4b1c179ccd4</title>
<path fill="none" stroke="black" d="M228.098,-313.96C242.945,-304.617 260.761,-291.452 273,-276 287.611,-257.554 297.609,-232.651 303.668,-213.878"/>
<polygon fill="black" stroke="black" points="307.062,-214.746 306.633,-204.159 300.367,-212.703 307.062,-214.746"/>
<g id="a_edge4&#45;headlabel"><a xlink:href="dir_000001_000012.html" target="_top" xlink:title="3">
<text text-anchor="middle" x="308.729" y="-216.012" font-family="Helvetica,sans-Serif" font-size="10.00">3</text>
</a>
</g>
</g>
<!-- dir_09b7e7d2a1bd37ecb43174b85ad46d92 -->
<g id="node2" class="node"><title>dir_09b7e7d2a1bd37ecb43174b85ad46d92</title>
<g id="a_node2"><a xlink:href="dir_09b7e7d2a1bd37ecb43174b85ad46d92.html" target="_top" xlink:title="activation">
<polygon fill="white" stroke="black" points="266.247,-204 207.753,-204 207.753,-168 266.247,-168 266.247,-204"/>
<text text-anchor="middle" x="237" y="-183" font-family="Helvetica,sans-Serif" font-size="10.00">activation</text>
</a>
</g>
</g>
<!-- dir_e49c8fc1bb5e843b8a0f8c8265f1d380 -->
<g id="node3" class="node"><title>dir_e49c8fc1bb5e843b8a0f8c8265f1d380</title>
<g id="a_node3"><a xlink:href="dir_e49c8fc1bb5e843b8a0f8c8265f1d380.html" target="_top" xlink:title="defuzzifier">
<polygon fill="white" stroke="black" points="157.578,-60 96.4224,-60 96.4224,-24 157.578,-24 157.578,-60"/>
<text text-anchor="middle" x="127" y="-39" font-family="Helvetica,sans-Serif" font-size="10.00">defuzzifier</text>
</a>
</g>
</g>
<!-- dir_f3c49cc73028b792ed43a22e46d953a5&#45;&gt;dir_09b7e7d2a1bd37ecb43174b85ad46d92 -->
<g id="edge7" class="edge"><title>dir_f3c49cc73028b792ed43a22e46d953a5&#45;&gt;dir_09b7e7d2a1bd37ecb43174b85ad46d92</title>
<path fill="none" stroke="black" d="M119.273,-243.834C141.678,-233.017 173.678,-217.569 198.662,-205.508"/>
<polygon fill="black" stroke="black" points="200.375,-208.568 207.859,-201.068 197.332,-202.264 200.375,-208.568"/>
<g id="a_edge7&#45;headlabel"><a xlink:href="dir_000004_000002.html" target="_top" xlink:title="1">
<text text-anchor="middle" x="198.372" y="-209.687" font-family="Helvetica,sans-Serif" font-size="10.00">1</text>
</a>
</g>
</g>
<!-- dir_f3c49cc73028b792ed43a22e46d953a5&#45;&gt;dir_e49c8fc1bb5e843b8a0f8c8265f1d380 -->
<g id="edge6" class="edge"><title>dir_f3c49cc73028b792ed43a22e46d953a5&#45;&gt;dir_e49c8fc1bb5e843b8a0f8c8265f1d380</title>
<path fill="none" stroke="black" d="M71.6214,-239.531C62.1934,-230.092 51.9936,-217.597 47,-204 41.484,-188.981 42.6664,-183.402 47,-168 57.7995,-129.618 84.7766,-91.9614 104.426,-68.1795"/>
<polygon fill="black" stroke="black" points="107.247,-70.2635 111.032,-60.3677 101.902,-65.7435 107.247,-70.2635"/>
<g id="a_edge6&#45;headlabel"><a xlink:href="dir_000004_000003.html" target="_top" xlink:title="4">
<text text-anchor="middle" x="107.094" y="-71.8416" font-family="Helvetica,sans-Serif" font-size="10.00">4</text>
</a>
</g>
</g>
<!-- dir_292910e210eb6613ddae6c928ce8cc0b -->
<g id="node5" class="node"><title>dir_292910e210eb6613ddae6c928ce8cc0b</title>
<g id="a_node5"><a xlink:href="dir_292910e210eb6613ddae6c928ce8cc0b.html" target="_top" xlink:title="hedge">
<polygon fill="white" stroke="black" points="118,-204 64,-204 64,-168 118,-168 118,-204"/>
<text text-anchor="middle" x="91" y="-183" font-family="Helvetica,sans-Serif" font-size="10.00">hedge</text>
</a>
</g>
</g>
<!-- dir_f3c49cc73028b792ed43a22e46d953a5&#45;&gt;dir_292910e210eb6613ddae6c928ce8cc0b -->
<g id="edge9" class="edge"><title>dir_f3c49cc73028b792ed43a22e46d953a5&#45;&gt;dir_292910e210eb6613ddae6c928ce8cc0b</title>
<path fill="none" stroke="black" d="M91.7528,-239.697C91.6426,-231.983 91.5102,-222.712 91.3873,-214.112"/>
<polygon fill="black" stroke="black" points="94.8869,-214.053 91.2443,-204.104 87.8876,-214.153 94.8869,-214.053"/>
<g id="a_edge9&#45;headlabel"><a xlink:href="dir_000004_000005.html" target="_top" xlink:title="2">
<text text-anchor="middle" x="97.7772" y="-214.607" font-family="Helvetica,sans-Serif" font-size="10.00">2</text>
</a>
</g>
</g>
<!-- dir_4ae40836603d8d2c882db10066959a4d -->
<g id="node7" class="node"><title>dir_4ae40836603d8d2c882db10066959a4d</title>
<g id="a_node7"><a xlink:href="dir_4ae40836603d8d2c882db10066959a4d.html" target="_top" xlink:title="norm">
<polygon fill="white" stroke="red" points="190,-204 136,-204 136,-168 190,-168 190,-204"/>
<text text-anchor="middle" x="163" y="-183" font-family="Helvetica,sans-Serif" font-size="10.00">norm</text>
</a>
</g>
</g>
<!-- dir_f3c49cc73028b792ed43a22e46d953a5&#45;&gt;dir_4ae40836603d8d2c882db10066959a4d -->
<g id="edge10" class="edge"><title>dir_f3c49cc73028b792ed43a22e46d953a5&#45;&gt;dir_4ae40836603d8d2c882db10066959a4d</title>
<path fill="none" stroke="black" d="M109.551,-239.697C118.234,-231.135 128.863,-220.656 138.348,-211.304"/>
<polygon fill="black" stroke="black" points="140.988,-213.617 145.651,-204.104 136.073,-208.633 140.988,-213.617"/>
<g id="a_edge10&#45;headlabel"><a xlink:href="dir_000004_000007.html" target="_top" xlink:title="4">
<text text-anchor="middle" x="140.421" y="-215.163" font-family="Helvetica,sans-Serif" font-size="10.00">4</text>
</a>
</g>
</g>
<!-- dir_2ef7176460cbb016c0cce1054d48250f -->
<g id="node9" class="node"><title>dir_2ef7176460cbb016c0cce1054d48250f</title>
<g id="a_node9"><a xlink:href="dir_2ef7176460cbb016c0cce1054d48250f.html" target="_top" xlink:title="term">
<polygon fill="white" stroke="black" points="154,-132 100,-132 100,-96 154,-96 154,-132"/>
<text text-anchor="middle" x="127" y="-111" font-family="Helvetica,sans-Serif" font-size="10.00">term</text>
</a>
</g>
</g>
<!-- dir_f3c49cc73028b792ed43a22e46d953a5&#45;&gt;dir_2ef7176460cbb016c0cce1054d48250f -->
<g id="edge8" class="edge"><title>dir_f3c49cc73028b792ed43a22e46d953a5&#45;&gt;dir_2ef7176460cbb016c0cce1054d48250f</title>
<path fill="none" stroke="black" d="M76.0262,-239.934C61.0584,-221.767 42.693,-192.341 55,-168 62.6983,-152.774 77.0602,-140.852 90.9438,-132.204"/>
<polygon fill="black" stroke="black" points="93.0318,-135.039 99.9235,-126.992 89.5178,-128.985 93.0318,-135.039"/>
<g id="a_edge8&#45;headlabel"><a xlink:href="dir_000004_000011.html" target="_top" xlink:title="3">
<text text-anchor="middle" x="91.3483" y="-136.299" font-family="Helvetica,sans-Serif" font-size="10.00">3</text>
</a>
</g>
</g>
<!-- dir_292910e210eb6613ddae6c928ce8cc0b&#45;&gt;dir_2ef7176460cbb016c0cce1054d48250f -->
<g id="edge14" class="edge"><title>dir_292910e210eb6613ddae6c928ce8cc0b&#45;&gt;dir_2ef7176460cbb016c0cce1054d48250f</title>
<path fill="none" stroke="black" d="M99.8989,-167.697C103.997,-159.728 108.949,-150.1 113.493,-141.264"/>
<polygon fill="black" stroke="black" points="116.742,-142.598 118.203,-132.104 110.517,-139.396 116.742,-142.598"/>
<g id="a_edge14&#45;headlabel"><a xlink:href="dir_000005_000011.html" target="_top" xlink:title="1">
<text text-anchor="middle" x="117.623" y="-144.093" font-family="Helvetica,sans-Serif" font-size="10.00">1</text>
</a>
</g>
</g>
<!-- dir_4ae40836603d8d2c882db10066959a4d&#45;&gt;dir_2ef7176460cbb016c0cce1054d48250f -->
<g id="edge15" class="edge"><title>dir_4ae40836603d8d2c882db10066959a4d&#45;&gt;dir_2ef7176460cbb016c0cce1054d48250f</title>
<path fill="none" stroke="black" d="M154.101,-167.697C150.003,-159.728 145.051,-150.1 140.507,-141.264"/>
<polygon fill="black" stroke="black" points="143.483,-139.396 135.797,-132.104 137.258,-142.598 143.483,-139.396"/>
<g id="a_edge15&#45;headlabel"><a xlink:href="dir_000007_000011.html" target="_top" xlink:title="2">
<text text-anchor="middle" x="147.651" y="-138.295" font-family="Helvetica,sans-Serif" font-size="10.00">2</text>
</a>
</g>
</g>
<!-- dir_a23581e96f960bad4b58c37b90438a4d&#45;&gt;dir_09b7e7d2a1bd37ecb43174b85ad46d92 -->
<g id="edge5" class="edge"><title>dir_a23581e96f960bad4b58c37b90438a4d&#45;&gt;dir_09b7e7d2a1bd37ecb43174b85ad46d92</title>
<path fill="none" stroke="black" d="M237,-239.697C237,-231.983 237,-222.712 237,-214.112"/>
<polygon fill="black" stroke="black" points="240.5,-214.104 237,-204.104 233.5,-214.104 240.5,-214.104"/>
<g id="a_edge5&#45;headlabel"><a xlink:href="dir_000010_000002.html" target="_top" xlink:title="1">
<text text-anchor="middle" x="243.339" y="-214.699" font-family="Helvetica,sans-Serif" font-size="10.00">1</text>
</a>
</g>
</g>
<!-- dir_2ef7176460cbb016c0cce1054d48250f&#45;&gt;dir_e49c8fc1bb5e843b8a0f8c8265f1d380 -->
<g id="edge13" class="edge"><title>dir_2ef7176460cbb016c0cce1054d48250f&#45;&gt;dir_e49c8fc1bb5e843b8a0f8c8265f1d380</title>
<path fill="none" stroke="black" d="M127,-95.6966C127,-87.9827 127,-78.7125 127,-70.1124"/>
<polygon fill="black" stroke="black" points="130.5,-70.1043 127,-60.1043 123.5,-70.1044 130.5,-70.1043"/>
<g id="a_edge13&#45;headlabel"><a xlink:href="dir_000011_000003.html" target="_top" xlink:title="1">
<text text-anchor="middle" x="133.339" y="-70.699" font-family="Helvetica,sans-Serif" font-size="10.00">1</text>
</a>
</g>
</g>
<!-- dir_53b9dbd17d072b7c8dd4f4b1c179ccd4&#45;&gt;dir_e49c8fc1bb5e843b8a0f8c8265f1d380 -->
<g id="edge11" class="edge"><title>dir_53b9dbd17d072b7c8dd4f4b1c179ccd4&#45;&gt;dir_e49c8fc1bb5e843b8a0f8c8265f1d380</title>
<path fill="none" stroke="black" d="M288.805,-167.871C255.926,-142.497 194.192,-94.8544 157.215,-66.3181"/>
<polygon fill="black" stroke="black" points="159.328,-63.5281 149.273,-60.1893 155.052,-69.0697 159.328,-63.5281"/>
<g id="a_edge11&#45;headlabel"><a xlink:href="dir_000012_000003.html" target="_top" xlink:title="2">
<text text-anchor="middle" x="163.909" y="-60.4764" font-family="Helvetica,sans-Serif" font-size="10.00">2</text>
</a>
</g>
</g>
<!-- dir_53b9dbd17d072b7c8dd4f4b1c179ccd4&#45;&gt;dir_2ef7176460cbb016c0cce1054d48250f -->
<g id="edge12" class="edge"><title>dir_53b9dbd17d072b7c8dd4f4b1c179ccd4&#45;&gt;dir_2ef7176460cbb016c0cce1054d48250f</title>
<path fill="none" stroke="black" d="M284,-171.905C280.982,-170.544 277.938,-169.216 275,-168 237.618,-152.523 193.902,-137.199 163.723,-127.04"/>
<polygon fill="black" stroke="black" points="164.629,-123.653 154.035,-123.8 162.409,-130.291 164.629,-123.653"/>
<g id="a_edge12&#45;headlabel"><a xlink:href="dir_000012_000011.html" target="_top" xlink:title="2">
<text text-anchor="middle" x="168.939" y="-119.1" font-family="Helvetica,sans-Serif" font-size="10.00">2</text>
</a>
</g>
</g>
</g>
</svg>
