<?xml version="1.0" encoding="UTF-8" standalone="no"?>
<!DOCTYPE svg PUBLIC "-//W3C//DTD SVG 1.1//EN"
 "http://www.w3.org/Graphics/SVG/1.1/DTD/svg11.dtd">
<!-- Generated by graphviz version 2.38.0 (20140413.2041)
 -->
<!-- Title: Graphical Class Hierarchy Pages: 1 -->
<svg width="301pt" height="545pt"
 viewBox="0.00 0.00 300.67 545.00" xmlns="http://www.w3.org/2000/svg" xmlns:xlink="http://www.w3.org/1999/xlink">
<g id="graph0" class="graph" transform="scale(1 1) rotate(0) translate(4 541)">
<title>Graphical Class Hierarchy</title>
<polygon fill="white" stroke="none" points="-4,4 -4,-541 296.666,-541 296.666,4 -4,4"/>
<!-- Node1 -->
<g id="node1" class="node"><title>Node1</title>
<g id="a_node1"><a xlink:href="d5/d22/classfl_1_1_norm.html" target="_top" xlink:title="The Norm class is the abstract class for norms. ">
<polygon fill="white" stroke="black" points="0,-258.5 0,-276.5 51,-276.5 51,-258.5 0,-258.5"/>
<text text-anchor="middle" x="25.5" y="-264.5" font-family="Helvetica,sans-Serif" font-size="10.00">fl::Norm</text>
</a>
</g>
</g>
<!-- Node2 -->
<g id="node2" class="node"><title>Node2</title>
<g id="a_node2"><a xlink:href="d4/df8/classfl_1_1_s_norm.html" target="_top" xlink:title="The SNorm class is the base class for all S&#45;Norms, and it is utilized as the disjunction fuzzy logic ...">
<polygon fill="white" stroke="black" points="87,-370.5 87,-388.5 144.67,-388.5 144.67,-370.5 87,-370.5"/>
<text text-anchor="middle" x="115.835" y="-376.5" font-family="Helvetica,sans-Serif" font-size="10.00">fl::SNorm</text>
</a>
</g>
</g>
<!-- Node1&#45;&gt;Node2 -->
<g id="edge1" class="edge"><title>Node1&#45;&gt;Node2</title>
<path fill="none" stroke="midnightblue" d="M39.9623,-284.569C58.8783,-308.552 92.6681,-351.395 107.506,-370.208"/>
<polygon fill="midnightblue" stroke="midnightblue" points="42.6697,-282.35 33.7288,-276.665 37.1735,-286.685 42.6697,-282.35"/>
</g>
<!-- Node11 -->
<g id="node11" class="node"><title>Node11</title>
<g id="a_node11"><a xlink:href="d6/d29/classfl_1_1_t_norm.html" target="_top" xlink:title="The TNorm class is the base class for T&#45;Norms, and it is utilized as the conjunction fuzzy logic oper...">
<polygon fill="white" stroke="black" points="87.2808,-129.5 87.2808,-147.5 144.389,-147.5 144.389,-129.5 87.2808,-129.5"/>
<text text-anchor="middle" x="115.835" y="-135.5" font-family="Helvetica,sans-Serif" font-size="10.00">fl::TNorm</text>
</a>
</g>
</g>
<!-- Node1&#45;&gt;Node11 -->
<g id="edge10" class="edge"><title>Node1&#45;&gt;Node11</title>
<path fill="none" stroke="midnightblue" d="M38.5935,-249.839C57.6392,-222.026 93.9535,-168.994 108.54,-147.693"/>
<polygon fill="midnightblue" stroke="midnightblue" points="35.615,-247.994 32.8528,-258.223 41.3907,-251.949 35.615,-247.994"/>
</g>
<!-- Node3 -->
<g id="node3" class="node"><title>Node3</title>
<g id="a_node3"><a xlink:href="d9/d37/classfl_1_1_algebraic_sum.html" target="_top" xlink:title="The AlgebraicSum class is an SNorm that computes the algebraic sum of values any two values...">
<polygon fill="white" stroke="black" points="192.264,-518.5 192.264,-536.5 281.072,-536.5 281.072,-518.5 192.264,-518.5"/>
<text text-anchor="middle" x="236.668" y="-524.5" font-family="Helvetica,sans-Serif" font-size="10.00">fl::AlgebraicSum</text>
</a>
</g>
</g>
<!-- Node2&#45;&gt;Node3 -->
<g id="edge2" class="edge"><title>Node2&#45;&gt;Node3</title>
<path fill="none" stroke="midnightblue" d="M121.111,-398.349C128.462,-426.525 146.152,-479.51 180.67,-509.5 184.917,-513.19 189.938,-516.127 195.19,-518.464"/>
<polygon fill="midnightblue" stroke="midnightblue" points="124.49,-397.435 118.714,-388.553 117.691,-399.098 124.49,-397.435"/>
</g>
<!-- Node4 -->
<g id="node4" class="node"><title>Node4</title>
<g id="a_node4"><a xlink:href="d0/d06/classfl_1_1_bounded_sum.html" target="_top" xlink:title="The BoundedSum class is an SNorm that computes the bounded sum of any two values. ...">
<polygon fill="white" stroke="black" points="193.089,-481.5 193.089,-499.5 280.247,-499.5 280.247,-481.5 193.089,-481.5"/>
<text text-anchor="middle" x="236.668" y="-487.5" font-family="Helvetica,sans-Serif" font-size="10.00">fl::BoundedSum</text>
</a>
</g>
</g>
<!-- Node2&#45;&gt;Node4 -->
<g id="edge3" class="edge"><title>Node2&#45;&gt;Node4</title>
<path fill="none" stroke="midnightblue" d="M124.864,-397.758C134.973,-418.713 154.267,-452.728 180.67,-472.5 185.575,-476.174 191.266,-479.118 197.088,-481.473"/>
<polygon fill="midnightblue" stroke="midnightblue" points="128.022,-396.248 120.648,-388.64 121.668,-399.185 128.022,-396.248"/>
</g>
<!-- Node5 -->
<g id="node5" class="node"><title>Node5</title>
<g id="a_node5"><a xlink:href="df/d91/classfl_1_1_drastic_sum.html" target="_top" xlink:title="The DrasticSum class is an SNorm that computes the drastic sum of any two values. ...">
<polygon fill="white" stroke="black" points="197.552,-444.5 197.552,-462.5 275.784,-462.5 275.784,-444.5 197.552,-444.5"/>
<text text-anchor="middle" x="236.668" y="-450.5" font-family="Helvetica,sans-Serif" font-size="10.00">fl::DrasticSum</text>
</a>
</g>
</g>
<!-- Node2&#45;&gt;Node5 -->
<g id="edge4" class="edge"><title>Node2&#45;&gt;Node5</title>
<path fill="none" stroke="midnightblue" d="M132.115,-396.143C144.242,-408.495 162.18,-424.957 180.67,-435.5 186.867,-439.033 193.856,-441.991 200.723,-444.421"/>
<polygon fill="midnightblue" stroke="midnightblue" points="134.472,-393.543 125.037,-388.723 129.407,-398.375 134.472,-393.543"/>
</g>
<!-- Node6 -->
<g id="node6" class="node"><title>Node6</title>
<g id="a_node6"><a xlink:href="d6/d71/classfl_1_1_einstein_sum.html" target="_top" xlink:title="The EinsteinSum class is an SNorm that computes the einstein sum of any two values. ">
<polygon fill="white" stroke="black" points="195.321,-407.5 195.321,-425.5 278.015,-425.5 278.015,-407.5 195.321,-407.5"/>
<text text-anchor="middle" x="236.668" y="-413.5" font-family="Helvetica,sans-Serif" font-size="10.00">fl::EinsteinSum</text>
</a>
</g>
</g>
<!-- Node2&#45;&gt;Node6 -->
<g id="edge5" class="edge"><title>Node2&#45;&gt;Node6</title>
<path fill="none" stroke="midnightblue" d="M154.302,-391.166C171.246,-396.441 190.961,-402.58 206.741,-407.493"/>
<polygon fill="midnightblue" stroke="midnightblue" points="155.284,-387.806 144.696,-388.175 153.203,-394.49 155.284,-387.806"/>
</g>
<!-- Node7 -->
<g id="node7" class="node"><title>Node7</title>
<g id="a_node7"><a xlink:href="d1/db2/classfl_1_1_hamacher_sum.html" target="_top" xlink:title="The HamacherSum class is an SNorm that computes the hamacher sum of any two values. ">
<polygon fill="white" stroke="black" points="190.045,-370.5 190.045,-388.5 283.291,-388.5 283.291,-370.5 190.045,-370.5"/>
<text text-anchor="middle" x="236.668" y="-376.5" font-family="Helvetica,sans-Serif" font-size="10.00">fl::HamacherSum</text>
</a>
</g>
</g>
<!-- Node2&#45;&gt;Node7 -->
<g id="edge6" class="edge"><title>Node2&#45;&gt;Node7</title>
<path fill="none" stroke="midnightblue" d="M154.939,-379.5C166.052,-379.5 178.312,-379.5 189.849,-379.5"/>
<polygon fill="midnightblue" stroke="midnightblue" points="154.696,-376 144.696,-379.5 154.696,-383 154.696,-376"/>
</g>
<!-- Node8 -->
<g id="node8" class="node"><title>Node8</title>
<g id="a_node8"><a xlink:href="d8/dc0/classfl_1_1_maximum.html" target="_top" xlink:title="The Maximum class is an SNorm that computes the maximum of any two values. ">
<polygon fill="white" stroke="black" points="201.722,-333.5 201.722,-351.5 271.614,-351.5 271.614,-333.5 201.722,-333.5"/>
<text text-anchor="middle" x="236.668" y="-339.5" font-family="Helvetica,sans-Serif" font-size="10.00">fl::Maximum</text>
</a>
</g>
</g>
<!-- Node2&#45;&gt;Node8 -->
<g id="edge7" class="edge"><title>Node2&#45;&gt;Node8</title>
<path fill="none" stroke="midnightblue" d="M154.302,-367.834C171.246,-362.559 190.961,-356.42 206.741,-351.507"/>
<polygon fill="midnightblue" stroke="midnightblue" points="153.203,-364.51 144.696,-370.825 155.284,-371.194 153.203,-364.51"/>
</g>
<!-- Node9 -->
<g id="node9" class="node"><title>Node9</title>
<g id="a_node9"><a xlink:href="d0/d72/classfl_1_1_nilpotent_maximum.html" target="_top" xlink:title="The NilpotentMaximum class is an SNorm that computes the nilpotent maximum of any two values...">
<polygon fill="white" stroke="black" points="181.988,-296.5 181.988,-314.5 291.348,-314.5 291.348,-296.5 181.988,-296.5"/>
<text text-anchor="middle" x="236.668" y="-302.5" font-family="Helvetica,sans-Serif" font-size="10.00">fl::NilpotentMaximum</text>
</a>
</g>
</g>
<!-- Node2&#45;&gt;Node9 -->
<g id="edge8" class="edge"><title>Node2&#45;&gt;Node9</title>
<path fill="none" stroke="midnightblue" d="M132.636,-362.841C144.809,-350.809 162.57,-334.909 180.67,-324.5 187.5,-320.572 195.274,-317.273 202.783,-314.586"/>
<polygon fill="midnightblue" stroke="midnightblue" points="130.018,-360.511 125.496,-370.092 135.006,-365.422 130.018,-360.511"/>
</g>
<!-- Node10 -->
<g id="node10" class="node"><title>Node10</title>
<g id="a_node10"><a xlink:href="d1/d5c/classfl_1_1_normalized_sum.html" target="_top" xlink:title="The NormalizedSum class is an SNorm that computes the normalized sum of any two values. ">
<polygon fill="white" stroke="black" points="187.823,-259.5 187.823,-277.5 285.513,-277.5 285.513,-259.5 187.823,-259.5"/>
<text text-anchor="middle" x="236.668" y="-265.5" font-family="Helvetica,sans-Serif" font-size="10.00">fl::NormalizedSum</text>
</a>
</g>
</g>
<!-- Node2&#45;&gt;Node10 -->
<g id="edge9" class="edge"><title>Node2&#45;&gt;Node10</title>
<path fill="none" stroke="midnightblue" d="M125.11,-361.231C135.358,-340.551 154.689,-307.186 180.67,-287.5 186.065,-283.412 192.403,-280.163 198.821,-277.593"/>
<polygon fill="midnightblue" stroke="midnightblue" points="121.837,-359.966 120.706,-370.5 128.159,-362.97 121.837,-359.966"/>
</g>
<!-- Node12 -->
<g id="node12" class="node"><title>Node12</title>
<g id="a_node12"><a xlink:href="dd/d8a/classfl_1_1_algebraic_product.html" target="_top" xlink:title="The AlgebraicProduct class is a TNorm that computes the algebraic product of any two values...">
<polygon fill="white" stroke="black" points="185.313,-222.5 185.313,-240.5 288.022,-240.5 288.022,-222.5 185.313,-222.5"/>
<text text-anchor="middle" x="236.668" y="-228.5" font-family="Helvetica,sans-Serif" font-size="10.00">fl::AlgebraicProduct</text>
</a>
</g>
</g>
<!-- Node11&#45;&gt;Node12 -->
<g id="edge11" class="edge"><title>Node11&#45;&gt;Node12</title>
<path fill="none" stroke="midnightblue" d="M127.74,-156.239C139.027,-173.208 158.147,-198.388 180.67,-213.5 186.093,-217.138 192.307,-220.09 198.562,-222.468"/>
<polygon fill="midnightblue" stroke="midnightblue" points="130.652,-154.296 122.304,-147.773 124.762,-158.079 130.652,-154.296"/>
</g>
<!-- Node13 -->
<g id="node13" class="node"><title>Node13</title>
<g id="a_node13"><a xlink:href="dc/d0b/classfl_1_1_bounded_difference.html" target="_top" xlink:title="The BoundedDifference class is a TNorm that computes the bounded difference between any two values...">
<polygon fill="white" stroke="black" points="180.67,-185.5 180.67,-203.5 292.666,-203.5 292.666,-185.5 180.67,-185.5"/>
<text text-anchor="middle" x="236.668" y="-191.5" font-family="Helvetica,sans-Serif" font-size="10.00">fl::BoundedDifference</text>
</a>
</g>
</g>
<!-- Node11&#45;&gt;Node13 -->
<g id="edge12" class="edge"><title>Node11&#45;&gt;Node13</title>
<path fill="none" stroke="midnightblue" d="M138.544,-153.054C150.601,-160.714 166.074,-169.866 180.67,-176.5 188.078,-179.867 196.305,-182.906 204.09,-185.486"/>
<polygon fill="midnightblue" stroke="midnightblue" points="140.357,-150.058 130.062,-147.554 136.548,-155.931 140.357,-150.058"/>
</g>
<!-- Node14 -->
<g id="node14" class="node"><title>Node14</title>
<g id="a_node14"><a xlink:href="db/d0f/classfl_1_1_drastic_product.html" target="_top" xlink:title="The DrasticProduct class is a TNorm that computes the drastic product of any two values. ">
<polygon fill="white" stroke="black" points="190.602,-148.5 190.602,-166.5 282.734,-166.5 282.734,-148.5 190.602,-148.5"/>
<text text-anchor="middle" x="236.668" y="-154.5" font-family="Helvetica,sans-Serif" font-size="10.00">fl::DrasticProduct</text>
</a>
</g>
</g>
<!-- Node11&#45;&gt;Node14 -->
<g id="edge13" class="edge"><title>Node11&#45;&gt;Node14</title>
<path fill="none" stroke="midnightblue" d="M154.508,-144.524C165.967,-146.356 178.677,-148.388 190.573,-150.29"/>
<polygon fill="midnightblue" stroke="midnightblue" points="154.824,-141.03 144.396,-142.907 153.718,-147.942 154.824,-141.03"/>
</g>
<!-- Node15 -->
<g id="node15" class="node"><title>Node15</title>
<g id="a_node15"><a xlink:href="d9/d5a/classfl_1_1_einstein_product.html" target="_top" xlink:title="The EinsteinProduct class is a TNorm that computes the einstein product of any two values...">
<polygon fill="white" stroke="black" points="188.37,-111.5 188.37,-129.5 284.966,-129.5 284.966,-111.5 188.37,-111.5"/>
<text text-anchor="middle" x="236.668" y="-117.5" font-family="Helvetica,sans-Serif" font-size="10.00">fl::EinsteinProduct</text>
</a>
</g>
</g>
<!-- Node11&#45;&gt;Node15 -->
<g id="edge14" class="edge"><title>Node11&#45;&gt;Node15</title>
<path fill="none" stroke="midnightblue" d="M154.316,-132.823C165.077,-131.193 176.955,-129.393 188.232,-127.685"/>
<polygon fill="midnightblue" stroke="midnightblue" points="153.759,-129.367 144.396,-134.325 154.808,-136.288 153.759,-129.367"/>
</g>
<!-- Node16 -->
<g id="node16" class="node"><title>Node16</title>
<g id="a_node16"><a xlink:href="da/d4b/classfl_1_1_hamacher_product.html" target="_top" xlink:title="The HamacherProduct class is a TNorm that computes the hamacher product of any two values...">
<polygon fill="white" stroke="black" points="183.094,-74.5 183.094,-92.5 290.242,-92.5 290.242,-74.5 183.094,-74.5"/>
<text text-anchor="middle" x="236.668" y="-80.5" font-family="Helvetica,sans-Serif" font-size="10.00">fl::HamacherProduct</text>
</a>
</g>
</g>
<!-- Node11&#45;&gt;Node16 -->
<g id="edge15" class="edge"><title>Node11&#45;&gt;Node16</title>
<path fill="none" stroke="midnightblue" d="M139.972,-124.111C151.867,-117.062 166.755,-108.765 180.67,-102.5 188.776,-98.8503 197.808,-95.4646 206.171,-92.5927"/>
<polygon fill="midnightblue" stroke="midnightblue" points="137.904,-121.271 131.15,-129.434 141.52,-127.265 137.904,-121.271"/>
</g>
<!-- Node17 -->
<g id="node17" class="node"><title>Node17</title>
<g id="a_node17"><a xlink:href="d2/de2/classfl_1_1_minimum.html" target="_top" xlink:title="The Minimum class is a TNorm that computes the minimum of any two values. ">
<polygon fill="white" stroke="black" points="203.111,-37.5 203.111,-55.5 270.225,-55.5 270.225,-37.5 203.111,-37.5"/>
<text text-anchor="middle" x="236.668" y="-43.5" font-family="Helvetica,sans-Serif" font-size="10.00">fl::Minimum</text>
</a>
</g>
</g>
<!-- Node11&#45;&gt;Node17 -->
<g id="edge16" class="edge"><title>Node11&#45;&gt;Node17</title>
<path fill="none" stroke="midnightblue" d="M128.587,-120.336C140.069,-103.907 158.954,-80.1171 180.67,-65.5 187.374,-60.9872 195.259,-57.4395 202.932,-54.6943"/>
<polygon fill="midnightblue" stroke="midnightblue" points="125.41,-118.786 122.716,-129.033 131.212,-122.703 125.41,-118.786"/>
</g>
<!-- Node18 -->
<g id="node18" class="node"><title>Node18</title>
<g id="a_node18"><a xlink:href="d3/dfe/classfl_1_1_nilpotent_minimum.html" target="_top" xlink:title="The NilpotentMinimum class is a TNorm that computes the nilpotent minimum of any two values...">
<polygon fill="white" stroke="black" points="183.377,-0.5 183.377,-18.5 289.958,-18.5 289.958,-0.5 183.377,-0.5"/>
<text text-anchor="middle" x="236.668" y="-6.5" font-family="Helvetica,sans-Serif" font-size="10.00">fl::NilpotentMinimum</text>
</a>
</g>
</g>
<!-- Node11&#45;&gt;Node18 -->
<g id="edge17" class="edge"><title>Node11&#45;&gt;Node18</title>
<path fill="none" stroke="midnightblue" d="M122.99,-119.845C131.943,-95.4885 150.824,-53.0727 180.67,-28.5 185.661,-24.3906 191.594,-21.1484 197.686,-18.5966"/>
<polygon fill="midnightblue" stroke="midnightblue" points="119.661,-118.761 119.664,-129.356 126.269,-121.072 119.661,-118.761"/>
</g>
</g>
</svg>
