<?xml version="1.0" encoding="UTF-8" standalone="no"?>
<!DOCTYPE svg PUBLIC "-//W3C//DTD SVG 1.1//EN"
 "http://www.w3.org/Graphics/SVG/1.1/DTD/svg11.dtd">
<!-- Generated by graphviz version 2.38.0 (20140413.2041)
 -->
<!-- Title: Graphical Class Hierarchy Pages: 1 -->
<svg width="410pt" height="323pt"
 viewBox="0.00 0.00 409.81 323.00" xmlns="http://www.w3.org/2000/svg" xmlns:xlink="http://www.w3.org/1999/xlink">
<g id="graph0" class="graph" transform="scale(1 1) rotate(0) translate(4 319)">
<title>Graphical Class Hierarchy</title>
<polygon fill="white" stroke="none" points="-4,4 -4,-319 405.807,-319 405.807,4 -4,4"/>
<!-- Node0 -->
<g id="node1" class="node"><title>Node0</title>
<g id="a_node1"><a xlink:href="d3/d31/classfl_1_1_defuzzifier.html" target="_top" xlink:title="The Defuzzifier class is the abstract class for defuzzifiers. ">
<polygon fill="white" stroke="black" points="0,-138.5 0,-156.5 73.793,-156.5 73.793,-138.5 0,-138.5"/>
<text text-anchor="middle" x="36.8965" y="-144.5" font-family="Helvetica,sans-Serif" font-size="10.00">fl::Defuzzifier</text>
</a>
</g>
</g>
<!-- Node1 -->
<g id="node2" class="node"><title>Node1</title>
<g id="a_node2"><a xlink:href="d9/d95/classfl_1_1_integral_defuzzifier.html" target="_top" xlink:title="The IntegralDefuzzifier class is the base class for defuzzifiers which integrate over the fuzzy set...">
<polygon fill="white" stroke="black" points="114.151,-203.5 114.151,-221.5 221.298,-221.5 221.298,-203.5 114.151,-203.5"/>
<text text-anchor="middle" x="167.725" y="-209.5" font-family="Helvetica,sans-Serif" font-size="10.00">fl::IntegralDefuzzifier</text>
</a>
</g>
</g>
<!-- Node0&#45;&gt;Node1 -->
<g id="edge1" class="edge"><title>Node0&#45;&gt;Node1</title>
<path fill="none" stroke="midnightblue" d="M64.8098,-161.079C89.93,-173.753 126.725,-192.318 148.548,-203.329"/>
<polygon fill="midnightblue" stroke="midnightblue" points="66.3141,-157.918 55.8095,-156.538 63.1608,-164.167 66.3141,-157.918"/>
</g>
<!-- Node7 -->
<g id="node8" class="node"><title>Node7</title>
<g id="a_node8"><a xlink:href="d5/d8d/classfl_1_1_weighted_defuzzifier.html" target="_top" xlink:title="The WeightedDefuzzifier class is the base class for defuzzifiers which compute a weighted function on...">
<polygon fill="white" stroke="black" points="109.793,-74.5 109.793,-92.5 225.656,-92.5 225.656,-74.5 109.793,-74.5"/>
<text text-anchor="middle" x="167.725" y="-80.5" font-family="Helvetica,sans-Serif" font-size="10.00">fl::WeightedDefuzzifier</text>
</a>
</g>
</g>
<!-- Node0&#45;&gt;Node7 -->
<g id="edge7" class="edge"><title>Node0&#45;&gt;Node7</title>
<path fill="none" stroke="midnightblue" d="M65.0449,-134.013C90.0313,-121.6 126.421,-103.522 148.215,-92.6952"/>
<polygon fill="midnightblue" stroke="midnightblue" points="63.4797,-130.882 56.0812,-138.466 66.5941,-137.151 63.4797,-130.882"/>
</g>
<!-- Node2 -->
<g id="node3" class="node"><title>Node2</title>
<g id="a_node3"><a xlink:href="da/d09/classfl_1_1_bisector.html" target="_top" xlink:title="The Bisector class is an IntegralDefuzzifier that computes the bisector of a fuzzy set represented in...">
<polygon fill="white" stroke="black" points="300.392,-296.5 300.392,-314.5 363.071,-314.5 363.071,-296.5 300.392,-296.5"/>
<text text-anchor="middle" x="331.731" y="-302.5" font-family="Helvetica,sans-Serif" font-size="10.00">fl::Bisector</text>
</a>
</g>
</g>
<!-- Node1&#45;&gt;Node2 -->
<g id="edge2" class="edge"><title>Node1&#45;&gt;Node2</title>
<path fill="none" stroke="midnightblue" d="M184.373,-228.698C201.731,-245.751 231.314,-272.203 261.656,-287.5 273.607,-293.525 287.769,-297.67 300.148,-300.449"/>
<polygon fill="midnightblue" stroke="midnightblue" points="186.837,-226.211 177.299,-221.598 181.878,-231.152 186.837,-226.211"/>
</g>
<!-- Node3 -->
<g id="node4" class="node"><title>Node3</title>
<g id="a_node4"><a xlink:href="df/d91/classfl_1_1_centroid.html" target="_top" xlink:title="The Centroid class is an IntegralDefuzzifier that computes the centroid of a fuzzy set represented in...">
<polygon fill="white" stroke="black" points="299.554,-259.5 299.554,-277.5 363.909,-277.5 363.909,-259.5 299.554,-259.5"/>
<text text-anchor="middle" x="331.731" y="-265.5" font-family="Helvetica,sans-Serif" font-size="10.00">fl::Centroid</text>
</a>
</g>
</g>
<!-- Node1&#45;&gt;Node3 -->
<g id="edge3" class="edge"><title>Node1&#45;&gt;Node3</title>
<path fill="none" stroke="midnightblue" d="M198.153,-225.71C216.245,-233.535 240.028,-243.296 261.656,-250.5 273.884,-254.573 287.577,-258.307 299.526,-261.306"/>
<polygon fill="midnightblue" stroke="midnightblue" points="199.301,-222.392 188.737,-221.59 196.495,-228.805 199.301,-222.392"/>
</g>
<!-- Node4 -->
<g id="node5" class="node"><title>Node4</title>
<g id="a_node5"><a xlink:href="de/d47/classfl_1_1_largest_of_maximum.html" target="_top" xlink:title="The LargestOfMaximum class is an IntegralDefuzzifier that computes the largest value of the maximum m...">
<polygon fill="white" stroke="black" points="274.83,-222.5 274.83,-240.5 388.633,-240.5 388.633,-222.5 274.83,-222.5"/>
<text text-anchor="middle" x="331.731" y="-228.5" font-family="Helvetica,sans-Serif" font-size="10.00">fl::LargestOfMaximum</text>
</a>
</g>
</g>
<!-- Node1&#45;&gt;Node4 -->
<g id="edge4" class="edge"><title>Node1&#45;&gt;Node4</title>
<path fill="none" stroke="midnightblue" d="M231.533,-219.866C245.783,-221.537 260.825,-223.301 274.77,-224.937"/>
<polygon fill="midnightblue" stroke="midnightblue" points="231.663,-216.357 221.324,-218.669 230.848,-223.31 231.663,-216.357"/>
</g>
<!-- Node5 -->
<g id="node6" class="node"><title>Node5</title>
<g id="a_node6"><a xlink:href="dc/d91/classfl_1_1_mean_of_maximum.html" target="_top" xlink:title="The MeanOfMaximum class is an IntegralDefuzzifier that computes the mean value of the maximum members...">
<polygon fill="white" stroke="black" points="279,-185.5 279,-203.5 384.463,-203.5 384.463,-185.5 279,-185.5"/>
<text text-anchor="middle" x="331.731" y="-191.5" font-family="Helvetica,sans-Serif" font-size="10.00">fl::MeanOfMaximum</text>
</a>
</g>
</g>
<!-- Node1&#45;&gt;Node5 -->
<g id="edge5" class="edge"><title>Node1&#45;&gt;Node5</title>
<path fill="none" stroke="midnightblue" d="M231.477,-205.528C247.179,-203.783 263.847,-201.931 278.949,-200.253"/>
<polygon fill="midnightblue" stroke="midnightblue" points="230.876,-202.073 221.324,-206.656 231.649,-209.03 230.876,-202.073"/>
</g>
<!-- Node6 -->
<g id="node7" class="node"><title>Node6</title>
<g id="a_node7"><a xlink:href="dc/dba/classfl_1_1_smallest_of_maximum.html" target="_top" xlink:title="The SmallestOfMaximum class is an IntegralDefuzzifier that computes the smallest value of the maximum...">
<polygon fill="white" stroke="black" points="272.335,-148.5 272.335,-166.5 391.128,-166.5 391.128,-148.5 272.335,-148.5"/>
<text text-anchor="middle" x="331.731" y="-154.5" font-family="Helvetica,sans-Serif" font-size="10.00">fl::SmallestOfMaximum</text>
</a>
</g>
</g>
<!-- Node1&#45;&gt;Node6 -->
<g id="edge6" class="edge"><title>Node1&#45;&gt;Node6</title>
<path fill="none" stroke="midnightblue" d="M199.669,-199.608C217.609,-192.362 240.724,-183.413 261.656,-176.5 272.403,-172.95 284.238,-169.524 295.029,-166.581"/>
<polygon fill="midnightblue" stroke="midnightblue" points="198.22,-196.419 190.281,-203.435 200.862,-202.901 198.22,-196.419"/>
</g>
<!-- Node8 -->
<g id="node9" class="node"><title>Node8</title>
<g id="a_node9"><a xlink:href="d7/dde/classfl_1_1_weighted_average.html" target="_top" xlink:title="The WeightedAverage class is a WeightedDefuzzifier that computes the weighted average of a fuzzy set ...">
<polygon fill="white" stroke="black" points="278.883,-111.5 278.883,-129.5 384.58,-129.5 384.58,-111.5 278.883,-111.5"/>
<text text-anchor="middle" x="331.731" y="-117.5" font-family="Helvetica,sans-Serif" font-size="10.00">fl::WeightedAverage</text>
</a>
</g>
</g>
<!-- Node7&#45;&gt;Node8 -->
<g id="edge8" class="edge"><title>Node7&#45;&gt;Node8</title>
<path fill="none" stroke="midnightblue" d="M218.119,-94.781C241.565,-100.136 269.202,-106.448 291.229,-111.478"/>
<polygon fill="midnightblue" stroke="midnightblue" points="218.884,-91.3657 208.356,-92.5512 217.326,-98.19 218.884,-91.3657"/>
</g>
<!-- Node9 -->
<g id="node10" class="node"><title>Node9</title>
<g id="a_node10"><a xlink:href="d9/da1/classfl_1_1_weighted_average_custom.html" target="_top" xlink:title="The (experimental) WeightedAverageCustom class is a WeightedDefuzzifier that computes the weighted av...">
<polygon fill="white" stroke="black" points="261.656,-74.5 261.656,-92.5 401.807,-92.5 401.807,-74.5 261.656,-74.5"/>
<text text-anchor="middle" x="331.731" y="-80.5" font-family="Helvetica,sans-Serif" font-size="10.00">fl::WeightedAverageCustom</text>
</a>
</g>
</g>
<!-- Node7&#45;&gt;Node9 -->
<g id="edge9" class="edge"><title>Node7&#45;&gt;Node9</title>
<path fill="none" stroke="midnightblue" d="M236.028,-83.5C244.484,-83.5 253.144,-83.5 261.627,-83.5"/>
<polygon fill="midnightblue" stroke="midnightblue" points="235.842,-80.0001 225.842,-83.5 235.842,-87.0001 235.842,-80.0001"/>
</g>
<!-- Node10 -->
<g id="node11" class="node"><title>Node10</title>
<g id="a_node11"><a xlink:href="d0/dbb/classfl_1_1_weighted_sum.html" target="_top" xlink:title="The WeightedSum class is a WeightedDefuzzifier that computes the weighted sum of a fuzzy set represen...">
<polygon fill="white" stroke="black" points="287.137,-37.5 287.137,-55.5 376.326,-55.5 376.326,-37.5 287.137,-37.5"/>
<text text-anchor="middle" x="331.731" y="-43.5" font-family="Helvetica,sans-Serif" font-size="10.00">fl::WeightedSum</text>
</a>
</g>
</g>
<!-- Node7&#45;&gt;Node10 -->
<g id="edge10" class="edge"><title>Node7&#45;&gt;Node10</title>
<path fill="none" stroke="midnightblue" d="M218.119,-72.219C241.565,-66.8643 269.202,-60.5525 291.229,-55.5218"/>
<polygon fill="midnightblue" stroke="midnightblue" points="217.326,-68.81 208.356,-74.4488 218.884,-75.6343 217.326,-68.81"/>
</g>
<!-- Node11 -->
<g id="node12" class="node"><title>Node11</title>
<g id="a_node12"><a xlink:href="d9/d53/classfl_1_1_weighted_sum_custom.html" target="_top" xlink:title="The (experimental) WeightedSumCustom class is a WeightedDefuzzifier that computes the weighted sum of...">
<polygon fill="white" stroke="black" points="269.911,-0.5 269.911,-18.5 393.552,-18.5 393.552,-0.5 269.911,-0.5"/>
<text text-anchor="middle" x="331.731" y="-6.5" font-family="Helvetica,sans-Serif" font-size="10.00">fl::WeightedSumCustom</text>
</a>
</g>
</g>
<!-- Node7&#45;&gt;Node11 -->
<g id="edge11" class="edge"><title>Node7&#45;&gt;Node11</title>
<path fill="none" stroke="midnightblue" d="M190.122,-68.5999C208.421,-56.4155 235.82,-39.4661 261.656,-28.5 270.815,-24.6123 280.996,-21.299 290.665,-18.5807"/>
<polygon fill="midnightblue" stroke="midnightblue" points="187.997,-65.8118 181.678,-74.3158 191.921,-71.6086 187.997,-65.8118"/>
</g>
</g>
</svg>
