<?xml version="1.0" encoding="UTF-8" standalone="no"?>
<!DOCTYPE svg PUBLIC "-//W3C//DTD SVG 1.1//EN"
 "http://www.w3.org/Graphics/SVG/1.1/DTD/svg11.dtd">
<!-- Generated by graphviz version 2.38.0 (20140413.2041)
 -->
<!-- Title: Graphical Class Hierarchy Pages: 1 -->
<svg width="201pt" height="841pt"
 viewBox="0.00 0.00 200.86 841.00" xmlns="http://www.w3.org/2000/svg" xmlns:xlink="http://www.w3.org/1999/xlink">
<g id="graph0" class="graph" transform="scale(1 1) rotate(0) translate(4 837)">
<title>Graphical Class Hierarchy</title>
<polygon fill="white" stroke="none" points="-4,4 -4,-837 196.863,-837 196.863,4 -4,4"/>
<!-- Node0 -->
<g id="node1" class="node"><title>Node0</title>
<g id="a_node1"><a xlink:href="d4/de6/classfl_1_1_term.html" target="_top" xlink:title="The Term class is the abstract class for linguistic terms. ">
<polygon fill="white" stroke="black" points="0,-407.5 0,-425.5 48.7783,-425.5 48.7783,-407.5 0,-407.5"/>
<text text-anchor="middle" x="24.3892" y="-413.5" font-family="Helvetica,sans-Serif" font-size="10.00">fl::Term</text>
</a>
</g>
</g>
<!-- Node1 -->
<g id="node2" class="node"><title>Node1</title>
<g id="a_node2"><a xlink:href="d8/d40/classfl_1_1_activated.html" target="_top" xlink:title="The Activated class is a special Term that contains pointers to the necessary information of a term t...">
<polygon fill="white" stroke="black" points="104.976,-814.5 104.976,-832.5 172.666,-832.5 172.666,-814.5 104.976,-814.5"/>
<text text-anchor="middle" x="138.821" y="-820.5" font-family="Helvetica,sans-Serif" font-size="10.00">fl::Activated</text>
</a>
</g>
</g>
<!-- Node0&#45;&gt;Node1 -->
<g id="edge1" class="edge"><title>Node0&#45;&gt;Node1</title>
<path fill="none" stroke="midnightblue" d="M25.7563,-435.563C27.4814,-505.705 36.869,-748.339 84.7783,-805.5 89.9006,-811.611 97.1835,-815.655 104.717,-818.327"/>
<polygon fill="midnightblue" stroke="midnightblue" points="29.2544,-435.434 25.5341,-425.514 22.2561,-435.589 29.2544,-435.434"/>
</g>
<!-- Node2 -->
<g id="node3" class="node"><title>Node2</title>
<g id="a_node3"><a xlink:href="d1/d16/classfl_1_1_aggregated.html" target="_top" xlink:title="The Aggregated class is a special Term that stores a fuzzy set with the Activated terms from the Ante...">
<polygon fill="white" stroke="black" points="99.688,-777.5 99.688,-795.5 177.954,-795.5 177.954,-777.5 99.688,-777.5"/>
<text text-anchor="middle" x="138.821" y="-783.5" font-family="Helvetica,sans-Serif" font-size="10.00">fl::Aggregated</text>
</a>
</g>
</g>
<!-- Node0&#45;&gt;Node2 -->
<g id="edge2" class="edge"><title>Node0&#45;&gt;Node2</title>
<path fill="none" stroke="midnightblue" d="M26.1064,-435.836C28.9341,-501.923 41.3777,-717.533 84.7783,-768.5 88.7503,-773.164 93.9797,-776.623 99.6071,-779.187"/>
<polygon fill="midnightblue" stroke="midnightblue" points="29.5946,-435.469 25.6964,-425.618 22.6002,-435.75 29.5946,-435.469"/>
</g>
<!-- Node3 -->
<g id="node4" class="node"><title>Node3</title>
<g id="a_node4"><a xlink:href="dd/d58/classfl_1_1_bell.html" target="_top" xlink:title="The Bell class is an extended Term that represents the generalized bell curve membership function...">
<polygon fill="white" stroke="black" points="117.205,-740.5 117.205,-758.5 160.437,-758.5 160.437,-740.5 117.205,-740.5"/>
<text text-anchor="middle" x="138.821" y="-746.5" font-family="Helvetica,sans-Serif" font-size="10.00">fl::Bell</text>
</a>
</g>
</g>
<!-- Node0&#45;&gt;Node3 -->
<g id="edge3" class="edge"><title>Node0&#45;&gt;Node3</title>
<path fill="none" stroke="midnightblue" d="M26.5231,-435.759C30.507,-497.114 45.7889,-686.594 84.7783,-731.5 92.8753,-740.826 105.993,-745.328 117.157,-747.498"/>
<polygon fill="midnightblue" stroke="midnightblue" points="30.0033,-435.33 25.8903,-425.566 23.0168,-435.763 30.0033,-435.33"/>
</g>
<!-- Node4 -->
<g id="node5" class="node"><title>Node4</title>
<g id="a_node5"><a xlink:href="d8/d74/classfl_1_1_binary.html" target="_top" xlink:title="The Binary class is an edge Term that represents the binary membership function. ">
<polygon fill="white" stroke="black" points="111.37,-703.5 111.37,-721.5 166.271,-721.5 166.271,-703.5 111.37,-703.5"/>
<text text-anchor="middle" x="138.821" y="-709.5" font-family="Helvetica,sans-Serif" font-size="10.00">fl::Binary</text>
</a>
</g>
</g>
<!-- Node0&#45;&gt;Node4 -->
<g id="edge4" class="edge"><title>Node0&#45;&gt;Node4</title>
<path fill="none" stroke="midnightblue" d="M27.0437,-435.671C32.2721,-492.021 50.1763,-655.605 84.7783,-694.5 91.5651,-702.129 101.708,-706.528 111.312,-709.063"/>
<polygon fill="midnightblue" stroke="midnightblue" points="30.5223,-435.275 26.1423,-425.628 23.5503,-435.9 30.5223,-435.275"/>
</g>
<!-- Node5 -->
<g id="node6" class="node"><title>Node5</title>
<g id="a_node6"><a xlink:href="d2/d2e/classfl_1_1_concave.html" target="_top" xlink:title="The Concave class is an edge Term that represents the concave membership function. ">
<polygon fill="white" stroke="black" points="105.809,-666.5 105.809,-684.5 171.833,-684.5 171.833,-666.5 105.809,-666.5"/>
<text text-anchor="middle" x="138.821" y="-672.5" font-family="Helvetica,sans-Serif" font-size="10.00">fl::Concave</text>
</a>
</g>
</g>
<!-- Node0&#45;&gt;Node5 -->
<g id="edge5" class="edge"><title>Node0&#45;&gt;Node5</title>
<path fill="none" stroke="midnightblue" d="M27.7381,-435.759C34.3402,-486.925 54.5719,-624.592 84.7783,-657.5 90.3022,-663.518 97.9118,-667.524 105.644,-670.192"/>
<polygon fill="midnightblue" stroke="midnightblue" points="31.1958,-435.202 26.4756,-425.717 24.2504,-436.075 31.1958,-435.202"/>
</g>
<!-- Node6 -->
<g id="node7" class="node"><title>Node6</title>
<g id="a_node7"><a xlink:href="d7/d80/classfl_1_1_constant.html" target="_top" xlink:title="The Constant class is a (zero) polynomial Term that represents a constant value . ...">
<polygon fill="white" stroke="black" points="105.53,-629.5 105.53,-647.5 172.111,-647.5 172.111,-629.5 105.53,-629.5"/>
<text text-anchor="middle" x="138.821" y="-635.5" font-family="Helvetica,sans-Serif" font-size="10.00">fl::Constant</text>
</a>
</g>
</g>
<!-- Node0&#45;&gt;Node6 -->
<g id="edge6" class="edge"><title>Node0&#45;&gt;Node6</title>
<path fill="none" stroke="midnightblue" d="M25.399,-435.894C26.4833,-475.879 34.6375,-568.11 84.7783,-620.5 90.2919,-626.261 97.7155,-630.178 105.26,-632.841"/>
<polygon fill="midnightblue" stroke="midnightblue" points="28.8954,-435.617 25.2509,-425.669 21.8961,-435.719 28.8954,-435.617"/>
</g>
<!-- Node7 -->
<g id="node8" class="node"><title>Node7</title>
<g id="a_node8"><a xlink:href="da/d28/classfl_1_1_cosine.html" target="_top" xlink:title="The Cosine class is an extended Term that represents the cosine membership function. ">
<polygon fill="white" stroke="black" points="109.979,-592.5 109.979,-610.5 167.663,-610.5 167.663,-592.5 109.979,-592.5"/>
<text text-anchor="middle" x="138.821" y="-598.5" font-family="Helvetica,sans-Serif" font-size="10.00">fl::Cosine</text>
</a>
</g>
</g>
<!-- Node0&#45;&gt;Node7 -->
<g id="edge7" class="edge"><title>Node0&#45;&gt;Node7</title>
<path fill="none" stroke="midnightblue" d="M26.8655,-435.639C30.5313,-469.992 43.0345,-542.358 84.7783,-583.5 91.5658,-590.19 100.93,-594.395 109.903,-597.039"/>
<polygon fill="midnightblue" stroke="midnightblue" points="30.3382,-435.181 25.9317,-425.546 23.368,-435.826 30.3382,-435.181"/>
</g>
<!-- Node8 -->
<g id="node9" class="node"><title>Node8</title>
<g id="a_node9"><a xlink:href="db/dca/classfl_1_1_discrete.html" target="_top" xlink:title="The Discrete class is a basic Term that represents a discrete membership function. ">
<polygon fill="white" stroke="black" points="107.205,-555.5 107.205,-573.5 170.437,-573.5 170.437,-555.5 107.205,-555.5"/>
<text text-anchor="middle" x="138.821" y="-561.5" font-family="Helvetica,sans-Serif" font-size="10.00">fl::Discrete</text>
</a>
</g>
</g>
<!-- Node0&#45;&gt;Node8 -->
<g id="edge8" class="edge"><title>Node0&#45;&gt;Node8</title>
<path fill="none" stroke="midnightblue" d="M29.1077,-435.658C35.5538,-463.841 51.4427,-516.383 84.7783,-546.5 91.0561,-552.172 99.193,-556.067 107.2,-558.739"/>
<polygon fill="midnightblue" stroke="midnightblue" points="32.4564,-434.576 26.9602,-425.519 25.6083,-436.027 32.4564,-434.576"/>
</g>
<!-- Node9 -->
<g id="node10" class="node"><title>Node9</title>
<g id="a_node10"><a xlink:href="dd/d81/classfl_1_1_function.html" target="_top" xlink:title="The Function class is a polynomial Term that represents a generic function . ">
<polygon fill="white" stroke="black" points="106.365,-518.5 106.365,-536.5 171.276,-536.5 171.276,-518.5 106.365,-518.5"/>
<text text-anchor="middle" x="138.821" y="-524.5" font-family="Helvetica,sans-Serif" font-size="10.00">fl::Function</text>
</a>
</g>
</g>
<!-- Node0&#45;&gt;Node9 -->
<g id="edge9" class="edge"><title>Node0&#45;&gt;Node9</title>
<path fill="none" stroke="midnightblue" d="M32.692,-434.997C41.8564,-455.93 59.498,-489.684 84.7783,-509.5 91.0542,-514.419 98.7517,-518.034 106.316,-520.675"/>
<polygon fill="midnightblue" stroke="midnightblue" points="35.8579,-433.495 28.7771,-425.614 29.3976,-436.191 35.8579,-433.495"/>
</g>
<!-- Node10 -->
<g id="node11" class="node"><title>Node10</title>
<g id="a_node11"><a xlink:href="d6/df6/classfl_1_1_gaussian.html" target="_top" xlink:title="The Gaussian class is an extended Term that represents the Gaussian curve membership function...">
<polygon fill="white" stroke="black" points="104.419,-481.5 104.419,-499.5 173.222,-499.5 173.222,-481.5 104.419,-481.5"/>
<text text-anchor="middle" x="138.821" y="-487.5" font-family="Helvetica,sans-Serif" font-size="10.00">fl::Gaussian</text>
</a>
</g>
</g>
<!-- Node0&#45;&gt;Node10 -->
<g id="edge10" class="edge"><title>Node0&#45;&gt;Node10</title>
<path fill="none" stroke="midnightblue" d="M39.7377,-433.494C50.9173,-445.804 67.4133,-462.053 84.7783,-472.5 90.778,-476.109 97.5986,-479.112 104.304,-481.564"/>
<polygon fill="midnightblue" stroke="midnightblue" points="42.1342,-430.919 32.9021,-425.721 36.8777,-435.542 42.1342,-430.919"/>
</g>
<!-- Node11 -->
<g id="node12" class="node"><title>Node11</title>
<g id="a_node12"><a xlink:href="d6/d61/classfl_1_1_gaussian_product.html" target="_top" xlink:title="The GaussianProduct class is an extended Term that represents the two&#45;sided Gaussian membership funct...">
<polygon fill="white" stroke="black" points="87.188,-444.5 87.188,-462.5 190.454,-462.5 190.454,-444.5 87.188,-444.5"/>
<text text-anchor="middle" x="138.821" y="-450.5" font-family="Helvetica,sans-Serif" font-size="10.00">fl::GaussianProduct</text>
</a>
</g>
</g>
<!-- Node0&#45;&gt;Node11 -->
<g id="edge11" class="edge"><title>Node0&#45;&gt;Node11</title>
<path fill="none" stroke="midnightblue" d="M58.7236,-427.47C75.1631,-432.88 94.7505,-439.326 110.32,-444.45"/>
<polygon fill="midnightblue" stroke="midnightblue" points="59.5515,-424.058 48.9585,-424.256 57.3633,-430.707 59.5515,-424.058"/>
</g>
<!-- Node12 -->
<g id="node13" class="node"><title>Node12</title>
<g id="a_node13"><a xlink:href="d6/d98/classfl_1_1_linear.html" target="_top" xlink:title="The Linear class is a linear polynomial Term expressed as , where variable &#160;is not utilized...">
<polygon fill="white" stroke="black" points="111.644,-407.5 111.644,-425.5 165.998,-425.5 165.998,-407.5 111.644,-407.5"/>
<text text-anchor="middle" x="138.821" y="-413.5" font-family="Helvetica,sans-Serif" font-size="10.00">fl::Linear</text>
</a>
</g>
</g>
<!-- Node0&#45;&gt;Node12 -->
<g id="edge12" class="edge"><title>Node0&#45;&gt;Node12</title>
<path fill="none" stroke="midnightblue" d="M59.4217,-416.5C76.146,-416.5 95.9904,-416.5 111.529,-416.5"/>
<polygon fill="midnightblue" stroke="midnightblue" points="58.9585,-413 48.9585,-416.5 58.9585,-420 58.9585,-413"/>
</g>
<!-- Node13 -->
<g id="node14" class="node"><title>Node13</title>
<g id="a_node14"><a xlink:href="d5/d44/classfl_1_1_pi_shape.html" target="_top" xlink:title="The PiShape class is an extended Term that represents the Pi&#45;shaped curve membership function...">
<polygon fill="white" stroke="black" points="106.639,-370.5 106.639,-388.5 171.003,-388.5 171.003,-370.5 106.639,-370.5"/>
<text text-anchor="middle" x="138.821" y="-376.5" font-family="Helvetica,sans-Serif" font-size="10.00">fl::PiShape</text>
</a>
</g>
</g>
<!-- Node0&#45;&gt;Node13 -->
<g id="edge13" class="edge"><title>Node0&#45;&gt;Node13</title>
<path fill="none" stroke="midnightblue" d="M58.7236,-405.53C75.1631,-400.12 94.7505,-393.674 110.32,-388.55"/>
<polygon fill="midnightblue" stroke="midnightblue" points="57.3633,-402.293 48.9585,-408.744 59.5515,-408.942 57.3633,-402.293"/>
</g>
<!-- Node14 -->
<g id="node15" class="node"><title>Node14</title>
<g id="a_node15"><a xlink:href="d4/dc7/classfl_1_1_ramp.html" target="_top" xlink:title="The Ramp class is an edge Term that represents the ramp membership function. ">
<polygon fill="white" stroke="black" points="112.205,-333.5 112.205,-351.5 165.437,-351.5 165.437,-333.5 112.205,-333.5"/>
<text text-anchor="middle" x="138.821" y="-339.5" font-family="Helvetica,sans-Serif" font-size="10.00">fl::Ramp</text>
</a>
</g>
</g>
<!-- Node0&#45;&gt;Node14 -->
<g id="edge14" class="edge"><title>Node0&#45;&gt;Node14</title>
<path fill="none" stroke="midnightblue" d="M40.2314,-399.494C51.4569,-387.505 67.7944,-371.808 84.7783,-361.5 93.1404,-356.425 103.063,-352.415 112.052,-349.414"/>
<polygon fill="midnightblue" stroke="midnightblue" points="37.4642,-397.335 33.3316,-407.091 42.6459,-402.042 37.4642,-397.335"/>
</g>
<!-- Node15 -->
<g id="node16" class="node"><title>Node15</title>
<g id="a_node16"><a xlink:href="d6/d0e/classfl_1_1_rectangle.html" target="_top" xlink:title="The Rectangle class is a basic Term that represents the rectangle membership function. ">
<polygon fill="white" stroke="black" points="103.028,-296.5 103.028,-314.5 174.614,-314.5 174.614,-296.5 103.028,-296.5"/>
<text text-anchor="middle" x="138.821" y="-302.5" font-family="Helvetica,sans-Serif" font-size="10.00">fl::Rectangle</text>
</a>
</g>
</g>
<!-- Node0&#45;&gt;Node15 -->
<g id="edge15" class="edge"><title>Node0&#45;&gt;Node15</title>
<path fill="none" stroke="midnightblue" d="M32.9453,-397.96C42.2516,-377.3 59.9356,-344.213 84.7783,-324.5 90.1421,-320.244 96.5384,-316.895 103.002,-314.275"/>
<polygon fill="midnightblue" stroke="midnightblue" points="29.6884,-396.674 28.9517,-407.244 36.1186,-399.441 29.6884,-396.674"/>
</g>
<!-- Node16 -->
<g id="node17" class="node"><title>Node16</title>
<g id="a_node17"><a xlink:href="d0/dd1/classfl_1_1_sigmoid.html" target="_top" xlink:title="The Sigmoid class is an edge Term that represents the sigmoid membership function. ">
<polygon fill="white" stroke="black" points="107.479,-259.5 107.479,-277.5 170.163,-277.5 170.163,-259.5 107.479,-259.5"/>
<text text-anchor="middle" x="138.821" y="-265.5" font-family="Helvetica,sans-Serif" font-size="10.00">fl::Sigmoid</text>
</a>
</g>
</g>
<!-- Node0&#45;&gt;Node16 -->
<g id="edge16" class="edge"><title>Node0&#45;&gt;Node16</title>
<path fill="none" stroke="midnightblue" d="M29.3124,-397.151C35.9564,-369.176 52.023,-317.508 84.7783,-287.5 91.1254,-281.685 99.3766,-277.623 107.473,-274.796"/>
<polygon fill="midnightblue" stroke="midnightblue" points="25.8219,-396.726 27.0838,-407.246 32.6573,-398.235 25.8219,-396.726"/>
</g>
<!-- Node17 -->
<g id="node18" class="node"><title>Node17</title>
<g id="a_node18"><a xlink:href="d1/df5/classfl_1_1_sigmoid_difference.html" target="_top" xlink:title="The SigmoidDifference class is an extended Term that represents the difference between two sigmoidal ...">
<polygon fill="white" stroke="black" points="84.7783,-222.5 84.7783,-240.5 192.863,-240.5 192.863,-222.5 84.7783,-222.5"/>
<text text-anchor="middle" x="138.821" y="-228.5" font-family="Helvetica,sans-Serif" font-size="10.00">fl::SigmoidDifference</text>
</a>
</g>
</g>
<!-- Node0&#45;&gt;Node17 -->
<g id="edge17" class="edge"><title>Node0&#45;&gt;Node17</title>
<path fill="none" stroke="midnightblue" d="M27.0242,-397.058C30.9227,-362.824 43.7569,-291.537 84.7783,-250.5 88.9276,-246.349 94.0455,-243.1 99.4503,-240.559"/>
<polygon fill="midnightblue" stroke="midnightblue" points="23.5274,-396.851 26.0168,-407.15 30.4928,-397.547 23.5274,-396.851"/>
</g>
<!-- Node18 -->
<g id="node19" class="node"><title>Node18</title>
<g id="a_node19"><a xlink:href="d3/d5f/classfl_1_1_sigmoid_product.html" target="_top" xlink:title="The SigmoidProduct class is an extended Term that represents the product of two sigmoidal membership ...">
<polygon fill="white" stroke="black" points="90.2471,-185.5 90.2471,-203.5 187.395,-203.5 187.395,-185.5 90.2471,-185.5"/>
<text text-anchor="middle" x="138.821" y="-191.5" font-family="Helvetica,sans-Serif" font-size="10.00">fl::SigmoidProduct</text>
</a>
</g>
</g>
<!-- Node0&#45;&gt;Node18 -->
<g id="edge18" class="edge"><title>Node0&#45;&gt;Node18</title>
<path fill="none" stroke="midnightblue" d="M25.501,-397.266C26.7766,-357.6 35.2694,-266.038 84.7783,-213.5 88.6692,-209.371 93.5198,-206.138 98.6954,-203.606"/>
<polygon fill="midnightblue" stroke="midnightblue" points="21.999,-397.342 25.3018,-407.408 28.9976,-397.479 21.999,-397.342"/>
</g>
<!-- Node19 -->
<g id="node20" class="node"><title>Node19</title>
<g id="a_node20"><a xlink:href="de/dba/classfl_1_1_spike.html" target="_top" xlink:title="The Spike class is an extended Term that represents the spike membership function. ">
<polygon fill="white" stroke="black" points="113.035,-148.5 113.035,-166.5 164.606,-166.5 164.606,-148.5 113.035,-148.5"/>
<text text-anchor="middle" x="138.821" y="-154.5" font-family="Helvetica,sans-Serif" font-size="10.00">fl::Spike</text>
</a>
</g>
</g>
<!-- Node0&#45;&gt;Node19 -->
<g id="edge19" class="edge"><title>Node0&#45;&gt;Node19</title>
<path fill="none" stroke="midnightblue" d="M27.7792,-397.347C34.4842,-346.46 54.9506,-209.516 84.7783,-176.5 91.9914,-168.516 102.799,-163.885 112.78,-161.2"/>
<polygon fill="midnightblue" stroke="midnightblue" points="24.299,-396.97 26.4959,-407.334 31.2419,-397.862 24.299,-396.97"/>
</g>
<!-- Node20 -->
<g id="node21" class="node"><title>Node20</title>
<g id="a_node21"><a xlink:href="d6/dc4/classfl_1_1_s_shape.html" target="_top" xlink:title="The SShape class is an edge Term that represents the S&#45;shaped membership function. ">
<polygon fill="white" stroke="black" points="107.75,-111.5 107.75,-129.5 169.892,-129.5 169.892,-111.5 107.75,-111.5"/>
<text text-anchor="middle" x="138.821" y="-117.5" font-family="Helvetica,sans-Serif" font-size="10.00">fl::SShape</text>
</a>
</g>
</g>
<!-- Node0&#45;&gt;Node20 -->
<g id="edge20" class="edge"><title>Node0&#45;&gt;Node20</title>
<path fill="none" stroke="midnightblue" d="M27.0838,-397.424C32.424,-341.35 50.6079,-178.537 84.7783,-139.5 90.7056,-132.729 99.2231,-128.37 107.704,-125.565"/>
<polygon fill="midnightblue" stroke="midnightblue" points="23.5953,-397.139 26.1619,-407.418 30.5657,-397.782 23.5953,-397.139"/>
</g>
<!-- Node21 -->
<g id="node22" class="node"><title>Node21</title>
<g id="a_node22"><a xlink:href="d0/d26/classfl_1_1_trapezoid.html" target="_top" xlink:title="The Trapezoid class is a basic Term that represents the trapezoidal membership function. ">
<polygon fill="white" stroke="black" points="103.492,-74.5 103.492,-92.5 174.15,-92.5 174.15,-74.5 103.492,-74.5"/>
<text text-anchor="middle" x="138.821" y="-80.5" font-family="Helvetica,sans-Serif" font-size="10.00">fl::Trapezoid</text>
</a>
</g>
</g>
<!-- Node0&#45;&gt;Node21 -->
<g id="edge21" class="edge"><title>Node0&#45;&gt;Node21</title>
<path fill="none" stroke="midnightblue" d="M26.5627,-397.328C30.6669,-336.247 46.2729,-147.582 84.7783,-102.5 89.67,-96.7728 96.4178,-92.7719 103.463,-89.9771"/>
<polygon fill="midnightblue" stroke="midnightblue" points="23.0593,-397.271 25.9095,-407.476 30.0448,-397.721 23.0593,-397.271"/>
</g>
<!-- Node22 -->
<g id="node23" class="node"><title>Node22</title>
<g id="a_node23"><a xlink:href="d8/dc9/classfl_1_1_triangle.html" target="_top" xlink:title="The Triangle class is a basic Term that represents the triangular membership function. ">
<polygon fill="white" stroke="black" points="107.662,-37.5 107.662,-55.5 169.98,-55.5 169.98,-37.5 107.662,-37.5"/>
<text text-anchor="middle" x="138.821" y="-43.5" font-family="Helvetica,sans-Serif" font-size="10.00">fl::Triangle</text>
</a>
</g>
</g>
<!-- Node0&#45;&gt;Node22 -->
<g id="edge22" class="edge"><title>Node0&#45;&gt;Node22</title>
<path fill="none" stroke="midnightblue" d="M26.1456,-397.245C29.1017,-331.431 41.9143,-116.678 84.7783,-65.5 90.5566,-58.601 99.0322,-54.2068 107.52,-51.408"/>
<polygon fill="midnightblue" stroke="midnightblue" points="22.641,-397.282 25.7154,-407.421 29.6348,-397.578 22.641,-397.282"/>
</g>
<!-- Node23 -->
<g id="node24" class="node"><title>Node23</title>
<g id="a_node24"><a xlink:href="d5/d67/classfl_1_1_z_shape.html" target="_top" xlink:title="The ZShape class is an edge Term that represents the Z&#45;shaped membership function. ">
<polygon fill="white" stroke="black" points="108.03,-0.5 108.03,-18.5 169.611,-18.5 169.611,-0.5 108.03,-0.5"/>
<text text-anchor="middle" x="138.821" y="-6.5" font-family="Helvetica,sans-Serif" font-size="10.00">fl::ZShape</text>
</a>
</g>
</g>
<!-- Node0&#45;&gt;Node23 -->
<g id="edge23" class="edge"><title>Node0&#45;&gt;Node23</title>
<path fill="none" stroke="midnightblue" d="M25.8068,-397.055C27.6977,-326.593 37.5618,-85.7836 84.7783,-28.5 90.6266,-21.4048 99.3316,-16.9584 108.007,-14.1723"/>
<polygon fill="midnightblue" stroke="midnightblue" points="22.3049,-397.095 25.5601,-407.178 29.3028,-397.266 22.3049,-397.095"/>
</g>
</g>
</svg>
