<?xml version="1.0" encoding="UTF-8" standalone="no"?>
<!DOCTYPE svg PUBLIC "-//W3C//DTD SVG 1.1//EN"
 "http://www.w3.org/Graphics/SVG/1.1/DTD/svg11.dtd">
<!-- Generated by graphviz version 2.38.0 (20140413.2041)
 -->
<!-- Title: Graphical Class Hierarchy Pages: 1 -->
<svg width="197pt" height="64pt"
 viewBox="0.00 0.00 196.61 64.00" xmlns="http://www.w3.org/2000/svg" xmlns:xlink="http://www.w3.org/1999/xlink">
<g id="graph0" class="graph" transform="scale(1 1) rotate(0) translate(4 60)">
<title>Graphical Class Hierarchy</title>
<polygon fill="white" stroke="none" points="-4,4 -4,-60 192.61,-60 192.61,4 -4,4"/>
<!-- Node1 -->
<g id="node1" class="node"><title>Node1</title>
<g id="a_node1"><a xlink:href="d2/d7f/classfl_1_1_expression.html" target="_top" xlink:title="The Expression class is the base class to build an expression tree. ">
<polygon fill="white" stroke="black" points="0,-18.5 0,-36.5 76.0244,-36.5 76.0244,-18.5 0,-18.5"/>
<text text-anchor="middle" x="38.0122" y="-24.5" font-family="Helvetica,sans-Serif" font-size="10.00">fl::Expression</text>
</a>
</g>
</g>
<!-- Node2 -->
<g id="node2" class="node"><title>Node2</title>
<g id="a_node2"><a xlink:href="dc/dfa/classfl_1_1_operator.html" target="_top" xlink:title="The Operator class is an Expression that represents a non&#45;terminal node in the expression tree as a b...">
<polygon fill="white" stroke="black" points="117.308,-37.5 117.308,-55.5 183.327,-55.5 183.327,-37.5 117.308,-37.5"/>
<text text-anchor="middle" x="150.317" y="-43.5" font-family="Helvetica,sans-Serif" font-size="10.00">fl::Operator</text>
</a>
</g>
</g>
<!-- Node1&#45;&gt;Node2 -->
<g id="edge1" class="edge"><title>Node1&#45;&gt;Node2</title>
<path fill="none" stroke="midnightblue" d="M85.9156,-35.5791C96.3893,-37.3832 107.269,-39.2572 116.998,-40.933"/>
<polygon fill="midnightblue" stroke="midnightblue" points="86.4981,-32.128 76.0491,-33.8796 85.3098,-39.0264 86.4981,-32.128"/>
</g>
<!-- Node3 -->
<g id="node3" class="node"><title>Node3</title>
<g id="a_node3"><a xlink:href="d7/da7/classfl_1_1_proposition.html" target="_top" xlink:title="The Proposition class is an Expression that represents a terminal node in the expression tree as vari...">
<polygon fill="white" stroke="black" points="112.024,-0.5 112.024,-18.5 188.61,-18.5 188.61,-0.5 112.024,-0.5"/>
<text text-anchor="middle" x="150.317" y="-6.5" font-family="Helvetica,sans-Serif" font-size="10.00">fl::Proposition</text>
</a>
</g>
</g>
<!-- Node1&#45;&gt;Node3 -->
<g id="edge2" class="edge"><title>Node1&#45;&gt;Node3</title>
<path fill="none" stroke="midnightblue" d="M85.9951,-19.8332C94.6185,-18.426 103.514,-16.9743 111.814,-15.6199"/>
<polygon fill="midnightblue" stroke="midnightblue" points="85.3548,-16.3913 76.0491,-21.4562 86.4823,-23.2999 85.3548,-16.3913"/>
</g>
</g>
</svg>
