<?xml version="1.0" encoding="UTF-8" standalone="no"?>
<!DOCTYPE svg PUBLIC "-//W3C//DTD SVG 1.1//EN"
 "http://www.w3.org/Graphics/SVG/1.1/DTD/svg11.dtd">
<!-- Generated by graphviz version 2.38.0 (20140413.2041)
 -->
<!-- Title: Graphical Class Hierarchy Pages: 1 -->
<svg width="194pt" height="212pt"
 viewBox="0.00 0.00 193.82 212.00" xmlns="http://www.w3.org/2000/svg" xmlns:xlink="http://www.w3.org/1999/xlink">
<g id="graph0" class="graph" transform="scale(1 1) rotate(0) translate(4 208)">
<title>Graphical Class Hierarchy</title>
<polygon fill="white" stroke="none" points="-4,4 -4,-208 189.822,-208 189.822,4 -4,4"/>
<!-- Node1 -->
<g id="node1" class="node"><title>Node1</title>
<g id="a_node1"><a xlink:href="d3/de2/classfl_1_1_exporter.html" target="_top" xlink:title="The Exporter class is the abstract class for exporters to translate an Engine into different formats...">
<polygon fill="white" stroke="black" points="0,-92.5 0,-110.5 64.3496,-110.5 64.3496,-92.5 0,-92.5"/>
<text text-anchor="middle" x="32.1748" y="-98.5" font-family="Helvetica,sans-Serif" font-size="10.00">fl::Exporter</text>
</a>
</g>
</g>
<!-- Node2 -->
<g id="node2" class="node"><title>Node2</title>
<g id="a_node2"><a xlink:href="d3/daf/classfl_1_1_cpp_exporter.html" target="_top" xlink:title="The CppExporter class is an Exporter that translates an Engine and its components to the C++ programm...">
<polygon fill="white" stroke="black" points="101.739,-185.5 101.739,-203.5 184.433,-203.5 184.433,-185.5 101.739,-185.5"/>
<text text-anchor="middle" x="143.086" y="-191.5" font-family="Helvetica,sans-Serif" font-size="10.00">fl::CppExporter</text>
</a>
</g>
</g>
<!-- Node1&#45;&gt;Node2 -->
<g id="edge1" class="edge"><title>Node1&#45;&gt;Node2</title>
<path fill="none" stroke="midnightblue" d="M45.1695,-118.769C57.4373,-135.384 77.8437,-160.304 100.35,-176.5 105.089,-179.911 110.576,-182.854 115.982,-185.314"/>
<polygon fill="midnightblue" stroke="midnightblue" points="47.9069,-116.58 39.2297,-110.501 42.2219,-120.665 47.9069,-116.58"/>
</g>
<!-- Node3 -->
<g id="node3" class="node"><title>Node3</title>
<g id="a_node3"><a xlink:href="d7/d2c/classfl_1_1_fcl_exporter.html" target="_top" xlink:title="The FclExporter class is an Exporter that translates an Engine and its components to the Fuzzy Contro...">
<polygon fill="white" stroke="black" points="104.246,-148.5 104.246,-166.5 181.926,-166.5 181.926,-148.5 104.246,-148.5"/>
<text text-anchor="middle" x="143.086" y="-154.5" font-family="Helvetica,sans-Serif" font-size="10.00">fl::FclExporter</text>
</a>
</g>
</g>
<!-- Node1&#45;&gt;Node3 -->
<g id="edge2" class="edge"><title>Node1&#45;&gt;Node3</title>
<path fill="none" stroke="midnightblue" d="M57.1127,-115.872C69.7872,-123.269 85.7187,-132.233 100.35,-139.5 106.569,-142.589 113.444,-145.681 119.789,-148.41"/>
<polygon fill="midnightblue" stroke="midnightblue" points="58.5224,-112.64 48.1307,-110.576 54.9668,-118.67 58.5224,-112.64"/>
</g>
<!-- Node4 -->
<g id="node4" class="node"><title>Node4</title>
<g id="a_node4"><a xlink:href="d1/d12/classfl_1_1_fis_exporter.html" target="_top" xlink:title="The FisExporter class is an Exporter that translates an Engine and its components into the Fuzzy Infe...">
<polygon fill="white" stroke="black" points="104.246,-111.5 104.246,-129.5 181.926,-129.5 181.926,-111.5 104.246,-111.5"/>
<text text-anchor="middle" x="143.086" y="-117.5" font-family="Helvetica,sans-Serif" font-size="10.00">fl::FisExporter</text>
</a>
</g>
</g>
<!-- Node1&#45;&gt;Node4 -->
<g id="edge3" class="edge"><title>Node1&#45;&gt;Node4</title>
<path fill="none" stroke="midnightblue" d="M74.2463,-108.665C83.9751,-110.362 94.3115,-112.166 103.906,-113.839"/>
<polygon fill="midnightblue" stroke="midnightblue" points="74.8371,-105.215 64.3844,-106.945 73.634,-112.111 74.8371,-105.215"/>
</g>
<!-- Node5 -->
<g id="node5" class="node"><title>Node5</title>
<g id="a_node5"><a xlink:href="db/d86/classfl_1_1_fld_exporter.html" target="_top" xlink:title="The FldExporter class is an Exporter that evaluates an Engine and exports its input values and output...">
<polygon fill="white" stroke="black" points="103.965,-74.5 103.965,-92.5 182.207,-92.5 182.207,-74.5 103.965,-74.5"/>
<text text-anchor="middle" x="143.086" y="-80.5" font-family="Helvetica,sans-Serif" font-size="10.00">fl::FldExporter</text>
</a>
</g>
</g>
<!-- Node1&#45;&gt;Node5 -->
<g id="edge4" class="edge"><title>Node1&#45;&gt;Node5</title>
<path fill="none" stroke="midnightblue" d="M74.5537,-94.6612C84.1926,-93.0682 94.4125,-91.3791 103.906,-89.8101"/>
<polygon fill="midnightblue" stroke="midnightblue" points="73.6798,-91.2581 64.3844,-96.3419 74.8213,-98.1644 73.6798,-91.2581"/>
</g>
<!-- Node6 -->
<g id="node6" class="node"><title>Node6</title>
<g id="a_node6"><a xlink:href="de/dda/classfl_1_1_fll_exporter.html" target="_top" xlink:title="The FllExporter class is an Exporter that translates an Engine and its components to the FuzzyLite La...">
<polygon fill="white" stroke="black" points="105.635,-37.5 105.635,-55.5 180.537,-55.5 180.537,-37.5 105.635,-37.5"/>
<text text-anchor="middle" x="143.086" y="-43.5" font-family="Helvetica,sans-Serif" font-size="10.00">fl::FllExporter</text>
</a>
</g>
</g>
<!-- Node1&#45;&gt;Node6 -->
<g id="edge5" class="edge"><title>Node1&#45;&gt;Node6</title>
<path fill="none" stroke="midnightblue" d="M58.2585,-87.5595C70.7998,-80.7173 86.2695,-72.4687 100.35,-65.5 107.199,-62.1098 114.781,-58.5904 121.582,-55.5154"/>
<polygon fill="midnightblue" stroke="midnightblue" points="56.3911,-84.5919 49.3104,-92.4732 59.7605,-90.7277 56.3911,-84.5919"/>
</g>
<!-- Node7 -->
<g id="node7" class="node"><title>Node7</title>
<g id="a_node7"><a xlink:href="d2/ddb/classfl_1_1_java_exporter.html" target="_top" xlink:title="The JavaExporter class is an Exporter that translates an Engine and its components to the Java progra...">
<polygon fill="white" stroke="black" points="100.35,-0.5 100.35,-18.5 185.822,-18.5 185.822,-0.5 100.35,-0.5"/>
<text text-anchor="middle" x="143.086" y="-6.5" font-family="Helvetica,sans-Serif" font-size="10.00">fl::JavaExporter</text>
</a>
</g>
</g>
<!-- Node1&#45;&gt;Node7 -->
<g id="edge6" class="edge"><title>Node1&#45;&gt;Node7</title>
<path fill="none" stroke="midnightblue" d="M45.7343,-84.2913C58.1654,-68.2089 78.4626,-44.36 100.35,-28.5 105.636,-24.6694 111.818,-21.3433 117.779,-18.5916"/>
<polygon fill="midnightblue" stroke="midnightblue" points="42.9016,-82.2347 39.6772,-92.3269 48.4915,-86.4482 42.9016,-82.2347"/>
</g>
</g>
</svg>
