<?xml version="1.0" encoding="UTF-8" standalone="no"?>
<!DOCTYPE svg PUBLIC "-//W3C//DTD SVG 1.1//EN"
 "http://www.w3.org/Graphics/SVG/1.1/DTD/svg11.dtd">
<!-- Generated by graphviz version 2.38.0 (20140413.2041)
 -->
<!-- Title: Graphical Class Hierarchy Pages: 1 -->
<svg width="185pt" height="101pt"
 viewBox="0.00 0.00 184.91 101.00" xmlns="http://www.w3.org/2000/svg" xmlns:xlink="http://www.w3.org/1999/xlink">
<g id="graph0" class="graph" transform="scale(1 1) rotate(0) translate(4 97)">
<title>Graphical Class Hierarchy</title>
<polygon fill="white" stroke="none" points="-4,4 -4,-97 180.906,-97 180.906,4 -4,4"/>
<!-- Node1 -->
<g id="node1" class="node"><title>Node1</title>
<g id="a_node1"><a xlink:href="df/d9d/classfl_1_1_importer.html" target="_top" xlink:title="The Importer class is the abstract class for importers to configure an Engine and its components from...">
<polygon fill="white" stroke="black" points="0,-37.5 0,-55.5 63.7881,-55.5 63.7881,-37.5 0,-37.5"/>
<text text-anchor="middle" x="31.894" y="-43.5" font-family="Helvetica,sans-Serif" font-size="10.00">fl::Importer</text>
</a>
</g>
</g>
<!-- Node2 -->
<g id="node2" class="node"><title>Node2</title>
<g id="a_node2"><a xlink:href="df/d9b/classfl_1_1_fcl_importer.html" target="_top" xlink:title="The FclImporter class is an Importer that configures an Engine and its components utilizing the Fuzzy...">
<polygon fill="white" stroke="black" points="99.7881,-74.5 99.7881,-92.5 176.906,-92.5 176.906,-74.5 99.7881,-74.5"/>
<text text-anchor="middle" x="138.347" y="-80.5" font-family="Helvetica,sans-Serif" font-size="10.00">fl::FclImporter</text>
</a>
</g>
</g>
<!-- Node1&#45;&gt;Node2 -->
<g id="edge1" class="edge"><title>Node1&#45;&gt;Node2</title>
<path fill="none" stroke="midnightblue" d="M67.9823,-58.9292C82.2911,-63.9977 98.5301,-69.75 111.697,-74.414"/>
<polygon fill="midnightblue" stroke="midnightblue" points="69.0409,-55.5911 58.4462,-55.5512 66.7036,-62.1894 69.0409,-55.5911"/>
</g>
<!-- Node3 -->
<g id="node3" class="node"><title>Node3</title>
<g id="a_node3"><a xlink:href="d4/d1b/classfl_1_1_fis_importer.html" target="_top" xlink:title="The FisImporter class is an Importer that configures an Engine and its components from utilizing the ...">
<polygon fill="white" stroke="black" points="99.7881,-37.5 99.7881,-55.5 176.906,-55.5 176.906,-37.5 99.7881,-37.5"/>
<text text-anchor="middle" x="138.347" y="-43.5" font-family="Helvetica,sans-Serif" font-size="10.00">fl::FisImporter</text>
</a>
</g>
</g>
<!-- Node1&#45;&gt;Node3 -->
<g id="edge2" class="edge"><title>Node1&#45;&gt;Node3</title>
<path fill="none" stroke="midnightblue" d="M73.9784,-46.5C82.4165,-46.5 91.2615,-46.5 99.5761,-46.5"/>
<polygon fill="midnightblue" stroke="midnightblue" points="73.9507,-43.0001 63.9506,-46.5 73.9506,-50.0001 73.9507,-43.0001"/>
</g>
<!-- Node4 -->
<g id="node4" class="node"><title>Node4</title>
<g id="a_node4"><a xlink:href="d8/d7d/classfl_1_1_fll_importer.html" target="_top" xlink:title="The FllImporter class is an Importer that configures an Engine and its components utilizing the Fuzzy...">
<polygon fill="white" stroke="black" points="101.177,-0.5 101.177,-18.5 175.517,-18.5 175.517,-0.5 101.177,-0.5"/>
<text text-anchor="middle" x="138.347" y="-6.5" font-family="Helvetica,sans-Serif" font-size="10.00">fl::FllImporter</text>
</a>
</g>
</g>
<!-- Node1&#45;&gt;Node4 -->
<g id="edge3" class="edge"><title>Node1&#45;&gt;Node4</title>
<path fill="none" stroke="midnightblue" d="M67.9823,-34.0708C82.2911,-29.0023 98.5301,-23.25 111.697,-18.586"/>
<polygon fill="midnightblue" stroke="midnightblue" points="66.7036,-30.8106 58.4462,-37.4488 69.0409,-37.4089 66.7036,-30.8106"/>
</g>
</g>
</svg>
