<?xml version="1.0" encoding="UTF-8" standalone="no"?>
<!DOCTYPE svg PUBLIC "-//W3C//DTD SVG 1.1//EN"
 "http://www.w3.org/Graphics/SVG/1.1/DTD/svg11.dtd">
<!-- Generated by graphviz version 2.38.0 (20140413.2041)
 -->
<!-- Title: Graphical Class Hierarchy Pages: 1 -->
<svg width="205pt" height="249pt"
 viewBox="0.00 0.00 205.48 249.00" xmlns="http://www.w3.org/2000/svg" xmlns:xlink="http://www.w3.org/1999/xlink">
<g id="graph0" class="graph" transform="scale(1 1) rotate(0) translate(4 245)">
<title>Graphical Class Hierarchy</title>
<polygon fill="white" stroke="none" points="-4,4 -4,-245 201.482,-245 201.482,4 -4,4"/>
<!-- Node0 -->
<g id="node1" class="node"><title>Node0</title>
<g id="a_node1"><a xlink:href="d3/de2/classfl_1_1_exporter.html" target="_top" xlink:title="The Exporter class is the abstract class for exporters to translate an Engine into different formats...">
<polygon fill="white" stroke="black" points="0,-111.5 0,-129.5 64.3496,-129.5 64.3496,-111.5 0,-111.5"/>
<text text-anchor="middle" x="32.1748" y="-117.5" font-family="Helvetica,sans-Serif" font-size="10.00">fl::Exporter</text>
</a>
</g>
</g>
<!-- Node1 -->
<g id="node2" class="node"><title>Node1</title>
<g id="a_node2"><a xlink:href="d3/daf/classfl_1_1_cpp_exporter.html" target="_top" xlink:title="The CppExporter class is an Exporter that translates an Engine and its components to the C++ programm...">
<polygon fill="white" stroke="black" points="107.569,-222.5 107.569,-240.5 190.263,-240.5 190.263,-222.5 107.569,-222.5"/>
<text text-anchor="middle" x="148.916" y="-228.5" font-family="Helvetica,sans-Serif" font-size="10.00">fl::CppExporter</text>
</a>
</g>
</g>
<!-- Node0&#45;&gt;Node1 -->
<g id="edge1" class="edge"><title>Node0&#45;&gt;Node1</title>
<path fill="none" stroke="midnightblue" d="M42.0269,-138.539C53.048,-159.287 73.7139,-193.104 100.35,-213.5 104.976,-217.043 110.379,-219.956 115.85,-222.327"/>
<polygon fill="midnightblue" stroke="midnightblue" points="45.0814,-136.825 37.4075,-129.52 38.851,-140.016 45.0814,-136.825"/>
</g>
<!-- Node2 -->
<g id="node3" class="node"><title>Node2</title>
<g id="a_node3"><a xlink:href="d7/d2c/classfl_1_1_fcl_exporter.html" target="_top" xlink:title="The FclExporter class is an Exporter that translates an Engine and its components to the Fuzzy Contro...">
<polygon fill="white" stroke="black" points="110.076,-185.5 110.076,-203.5 187.756,-203.5 187.756,-185.5 110.076,-185.5"/>
<text text-anchor="middle" x="148.916" y="-191.5" font-family="Helvetica,sans-Serif" font-size="10.00">fl::FclExporter</text>
</a>
</g>
</g>
<!-- Node0&#45;&gt;Node2 -->
<g id="edge2" class="edge"><title>Node0&#45;&gt;Node2</title>
<path fill="none" stroke="midnightblue" d="M49.1863,-136.506C62.1136,-148.739 81.2376,-165.344 100.35,-176.5 106.221,-179.927 112.864,-182.921 119.283,-185.433"/>
<polygon fill="midnightblue" stroke="midnightblue" points="51.6125,-133.983 41.9936,-129.542 46.7432,-139.012 51.6125,-133.983"/>
</g>
<!-- Node3 -->
<g id="node4" class="node"><title>Node3</title>
<g id="a_node4"><a xlink:href="d1/d12/classfl_1_1_fis_exporter.html" target="_top" xlink:title="The FisExporter class is an Exporter that translates an Engine and its components into the Fuzzy Infe...">
<polygon fill="white" stroke="black" points="110.076,-148.5 110.076,-166.5 187.756,-166.5 187.756,-148.5 110.076,-148.5"/>
<text text-anchor="middle" x="148.916" y="-154.5" font-family="Helvetica,sans-Serif" font-size="10.00">fl::FisExporter</text>
</a>
</g>
</g>
<!-- Node0&#45;&gt;Node3 -->
<g id="edge3" class="edge"><title>Node0&#45;&gt;Node3</title>
<path fill="none" stroke="midnightblue" d="M70.8147,-132.638C86.7498,-137.776 104.998,-143.66 119.739,-148.414"/>
<polygon fill="midnightblue" stroke="midnightblue" points="71.8353,-129.289 61.2437,-129.551 69.6869,-135.951 71.8353,-129.289"/>
</g>
<!-- Node4 -->
<g id="node5" class="node"><title>Node4</title>
<g id="a_node5"><a xlink:href="db/d86/classfl_1_1_fld_exporter.html" target="_top" xlink:title="The FldExporter class is an Exporter that evaluates an Engine and exports its input values and output...">
<polygon fill="white" stroke="black" points="109.795,-111.5 109.795,-129.5 188.037,-129.5 188.037,-111.5 109.795,-111.5"/>
<text text-anchor="middle" x="148.916" y="-117.5" font-family="Helvetica,sans-Serif" font-size="10.00">fl::FldExporter</text>
</a>
</g>
</g>
<!-- Node0&#45;&gt;Node4 -->
<g id="edge4" class="edge"><title>Node0&#45;&gt;Node4</title>
<path fill="none" stroke="midnightblue" d="M74.6963,-120.5C86.1087,-120.5 98.4291,-120.5 109.649,-120.5"/>
<polygon fill="midnightblue" stroke="midnightblue" points="74.5284,-117 64.5283,-120.5 74.5283,-124 74.5284,-117"/>
</g>
<!-- Node5 -->
<g id="node6" class="node"><title>Node5</title>
<g id="a_node6"><a xlink:href="de/dda/classfl_1_1_fll_exporter.html" target="_top" xlink:title="The FllExporter class is an Exporter that translates an Engine and its components to the FuzzyLite La...">
<polygon fill="white" stroke="black" points="111.465,-74.5 111.465,-92.5 186.367,-92.5 186.367,-74.5 111.465,-74.5"/>
<text text-anchor="middle" x="148.916" y="-80.5" font-family="Helvetica,sans-Serif" font-size="10.00">fl::FllExporter</text>
</a>
</g>
</g>
<!-- Node0&#45;&gt;Node5 -->
<g id="edge5" class="edge"><title>Node0&#45;&gt;Node5</title>
<path fill="none" stroke="midnightblue" d="M70.8147,-108.362C86.7498,-103.224 104.998,-97.3397 119.739,-92.586"/>
<polygon fill="midnightblue" stroke="midnightblue" points="69.6869,-105.049 61.2437,-111.449 71.8353,-111.711 69.6869,-105.049"/>
</g>
<!-- Node6 -->
<g id="node7" class="node"><title>Node6</title>
<g id="a_node7"><a xlink:href="d2/ddb/classfl_1_1_java_exporter.html" target="_top" xlink:title="The JavaExporter class is an Exporter that translates an Engine and its components to the Java progra...">
<polygon fill="white" stroke="black" points="106.18,-37.5 106.18,-55.5 191.652,-55.5 191.652,-37.5 106.18,-37.5"/>
<text text-anchor="middle" x="148.916" y="-43.5" font-family="Helvetica,sans-Serif" font-size="10.00">fl::JavaExporter</text>
</a>
</g>
</g>
<!-- Node0&#45;&gt;Node6 -->
<g id="edge6" class="edge"><title>Node0&#45;&gt;Node6</title>
<path fill="none" stroke="midnightblue" d="M50.1068,-104.148C63.0709,-92.2719 81.8206,-76.4325 100.35,-65.5 106.783,-61.7042 114.116,-58.3537 121.065,-55.565"/>
<polygon fill="midnightblue" stroke="midnightblue" points="47.3893,-101.898 42.4834,-111.288 52.1746,-107.007 47.3893,-101.898"/>
</g>
<!-- Node7 -->
<g id="node8" class="node"><title>Node7</title>
<g id="a_node8"><a xlink:href="df/df2/classfl_1_1_r_script_exporter.html" target="_top" xlink:title="The RScriptExporter class is an Exporter that creates an R script to plot one or more surfaces of an ...">
<polygon fill="white" stroke="black" points="100.35,-0.5 100.35,-18.5 197.482,-18.5 197.482,-0.5 100.35,-0.5"/>
<text text-anchor="middle" x="148.916" y="-6.5" font-family="Helvetica,sans-Serif" font-size="10.00">fl::RScriptExporter</text>
</a>
</g>
</g>
<!-- Node0&#45;&gt;Node7 -->
<g id="edge7" class="edge"><title>Node0&#45;&gt;Node7</title>
<path fill="none" stroke="midnightblue" d="M42.3108,-102.428C53.4798,-81.9603 74.1694,-48.8215 100.35,-28.5 105.548,-24.4651 111.715,-21.1752 117.857,-18.5369"/>
<polygon fill="midnightblue" stroke="midnightblue" points="39.1767,-100.868 37.6102,-111.346 45.3692,-104.132 39.1767,-100.868"/>
</g>
</g>
</svg>
