<?xml version="1.0" encoding="UTF-8" standalone="no"?>
<!DOCTYPE svg PUBLIC "-//W3C//DTD SVG 1.1//EN"
 "http://www.w3.org/Graphics/SVG/1.1/DTD/svg11.dtd">
<!-- Generated by graphviz version 2.38.0 (20140413.2041)
 -->
<!-- Title: Graphical Class Hierarchy Pages: 1 -->
<svg width="282pt" height="138pt"
 viewBox="0.00 0.00 281.93 138.00" xmlns="http://www.w3.org/2000/svg" xmlns:xlink="http://www.w3.org/1999/xlink">
<g id="graph0" class="graph" transform="scale(1 1) rotate(0) translate(4 134)">
<title>Graphical Class Hierarchy</title>
<polygon fill="white" stroke="none" points="-4,4 -4,-134 277.931,-134 277.931,4 -4,4"/>
<!-- Node44 -->
<g id="node1" class="node"><title>Node44</title>
<g id="a_node1"><a xlink:href="d2/d7f/classfl_1_1_expression.html" target="_top" xlink:title="The Expression class is the base class to build an expression tree. ">
<polygon fill="white" stroke="black" points="87,-111.5 87,-129.5 163.024,-129.5 163.024,-111.5 87,-111.5"/>
<text text-anchor="middle" x="125.012" y="-117.5" font-family="Helvetica,sans-Serif" font-size="10.00">fl::Expression</text>
</a>
</g>
</g>
<!-- Node4 -->
<g id="node2" class="node"><title>Node4</title>
<g id="a_node2"><a xlink:href="d0/d96/classfl_1_1_f_l___i_f_i_n_a_l.html" target="_top" xlink:title="The Extremely class is a Hedge located fifth in the ordered set (Not, Seldom, Somewhat, Very, Extremely, Any). ">
<polygon fill="white" stroke="black" points="199.024,-55.5 199.024,-73.5 273.931,-73.5 273.931,-55.5 199.024,-55.5"/>
<text text-anchor="middle" x="236.478" y="-61.5" font-family="Helvetica,sans-Serif" font-size="10.00">fl::FL_IFINAL</text>
</a>
</g>
</g>
<!-- Node44&#45;&gt;Node4 -->
<g id="edge1" class="edge"><title>Node44&#45;&gt;Node4</title>
<path fill="none" stroke="midnightblue" d="M153.946,-107.027C157.016,-105.513 160.091,-103.982 163.024,-102.5 182.167,-92.8279 203.935,-81.3451 218.571,-73.5527"/>
<polygon fill="midnightblue" stroke="midnightblue" points="152.342,-103.916 144.896,-111.453 155.417,-110.204 152.342,-103.916"/>
</g>
<!-- Node40 -->
<g id="node3" class="node"><title>Node40</title>
<g id="a_node3"><a xlink:href="d3/dba/classfl_1_1_hedge.html" target="_top" xlink:title="The Hedge class is the abstract class for hedges. ">
<polygon fill="white" stroke="black" points="97,-0.5 97,-18.5 153.024,-18.5 153.024,-0.5 97,-0.5"/>
<text text-anchor="middle" x="125.012" y="-6.5" font-family="Helvetica,sans-Serif" font-size="10.00">fl::Hedge</text>
</a>
</g>
</g>
<!-- Node40&#45;&gt;Node4 -->
<g id="edge3" class="edge"><title>Node40&#45;&gt;Node4</title>
<path fill="none" stroke="midnightblue" d="M153.93,-23.0053C157.003,-24.5133 160.083,-26.0337 163.024,-27.5 181.859,-36.888 203.313,-47.8819 217.957,-55.4321"/>
<polygon fill="midnightblue" stroke="midnightblue" points="155.398,-19.8271 144.876,-18.5863 152.328,-26.1178 155.398,-19.8271"/>
</g>
<!-- Node41 -->
<g id="node4" class="node"><title>Node41</title>
<g id="a_node4"><a xlink:href="df/d7c/classfl_1_1_any.html" target="_top" xlink:title="The Any class is a special Hedge that always returns 1.0. ">
<polygon fill="white" stroke="black" points="214.583,-0.5 214.583,-18.5 258.372,-18.5 258.372,-0.5 214.583,-0.5"/>
<text text-anchor="middle" x="236.478" y="-6.5" font-family="Helvetica,sans-Serif" font-size="10.00">fl::Any</text>
</a>
</g>
</g>
<!-- Node40&#45;&gt;Node41 -->
<g id="edge2" class="edge"><title>Node40&#45;&gt;Node41</title>
<path fill="none" stroke="midnightblue" d="M163.33,-9.5C180.445,-9.5 200.095,-9.5 214.562,-9.5"/>
<polygon fill="midnightblue" stroke="midnightblue" points="163.071,-6.0001 153.071,-9.5 163.071,-13.0001 163.071,-6.0001"/>
</g>
<!-- Node0 -->
<g id="node5" class="node"><title>Node0</title>
<g id="a_node5"><a xlink:href="d5/d22/classfl_1_1_norm.html" target="_top" xlink:title="The Norm class is the abstract class for norms. ">
<polygon fill="white" stroke="black" points="0,-55.5 0,-73.5 51,-73.5 51,-55.5 0,-55.5"/>
<text text-anchor="middle" x="25.5" y="-61.5" font-family="Helvetica,sans-Serif" font-size="10.00">fl::Norm</text>
</a>
</g>
</g>
<!-- Node1 -->
<g id="node6" class="node"><title>Node1</title>
<g id="a_node6"><a xlink:href="d4/df8/classfl_1_1_s_norm.html" target="_top" xlink:title="The SNorm class is the base class for all S&#45;Norms, and it is utilized as the disjunction fuzzy logic ...">
<polygon fill="white" stroke="black" points="96.1772,-74.5 96.1772,-92.5 153.847,-92.5 153.847,-74.5 96.1772,-74.5"/>
<text text-anchor="middle" x="125.012" y="-80.5" font-family="Helvetica,sans-Serif" font-size="10.00">fl::SNorm</text>
</a>
</g>
</g>
<!-- Node0&#45;&gt;Node1 -->
<g id="edge4" class="edge"><title>Node0&#45;&gt;Node1</title>
<path fill="none" stroke="midnightblue" d="M61.1834,-71.258C72.5875,-73.48 85.1151,-75.921 95.963,-78.0347"/>
<polygon fill="midnightblue" stroke="midnightblue" points="61.5913,-67.7717 51.1064,-69.2945 60.2525,-74.6425 61.5913,-67.7717"/>
</g>
<!-- Node3 -->
<g id="node7" class="node"><title>Node3</title>
<g id="a_node7"><a xlink:href="d6/d29/classfl_1_1_t_norm.html" target="_top" xlink:title="The TNorm class is the base class for T&#45;Norms, and it is utilized as the conjunction fuzzy logic oper...">
<polygon fill="white" stroke="black" points="96.458,-37.5 96.458,-55.5 153.566,-55.5 153.566,-37.5 96.458,-37.5"/>
<text text-anchor="middle" x="125.012" y="-43.5" font-family="Helvetica,sans-Serif" font-size="10.00">fl::TNorm</text>
</a>
</g>
</g>
<!-- Node0&#45;&gt;Node3 -->
<g id="edge6" class="edge"><title>Node0&#45;&gt;Node3</title>
<path fill="none" stroke="midnightblue" d="M61.27,-58.0817C72.774,-55.9582 85.413,-53.6251 96.3137,-51.6129"/>
<polygon fill="midnightblue" stroke="midnightblue" points="60.3049,-54.7007 51.1064,-59.9578 61.5757,-61.5844 60.3049,-54.7007"/>
</g>
<!-- Node1&#45;&gt;Node4 -->
<g id="edge5" class="edge"><title>Node1&#45;&gt;Node4</title>
<path fill="none" stroke="midnightblue" d="M163.965,-76.9126C175.298,-74.9453 187.695,-72.7936 198.937,-70.8424"/>
<polygon fill="midnightblue" stroke="midnightblue" points="163.172,-73.4977 153.918,-78.6563 164.369,-80.3946 163.172,-73.4977"/>
</g>
<!-- Node3&#45;&gt;Node4 -->
<g id="edge7" class="edge"><title>Node3&#45;&gt;Node4</title>
<path fill="none" stroke="midnightblue" d="M163.688,-52.6953C175.038,-54.5615 187.474,-56.6066 198.761,-58.4625"/>
<polygon fill="midnightblue" stroke="midnightblue" points="164.07,-49.2112 153.635,-51.0422 162.934,-56.1184 164.07,-49.2112"/>
</g>
</g>
</svg>
