<?xml version="1.0" encoding="UTF-8" standalone="no"?>
<!DOCTYPE svg PUBLIC "-//W3C//DTD SVG 1.1//EN"
 "http://www.w3.org/Graphics/SVG/1.1/DTD/svg11.dtd">
<!-- Generated by graphviz version 2.38.0 (20140413.2041)
 -->
<!-- Title: Graphical Class Hierarchy Pages: 1 -->
<svg width="199pt" height="64pt"
 viewBox="0.00 0.00 199.04 64.00" xmlns="http://www.w3.org/2000/svg" xmlns:xlink="http://www.w3.org/1999/xlink">
<g id="graph0" class="graph" transform="scale(1 1) rotate(0) translate(4 60)">
<title>Graphical Class Hierarchy</title>
<polygon fill="white" stroke="none" points="-4,4 -4,-60 195.037,-60 195.037,4 -4,4"/>
<!-- Node1 -->
<g id="node1" class="node"><title>Node1</title>
<g id="a_node1"><a xlink:href="d0/d27/classfl_1_1_variable.html" target="_top" xlink:title="The Variable class is an abstract class for linguistic variables. ">
<polygon fill="white" stroke="black" points="0,-18.5 0,-36.5 62.5088,-36.5 62.5088,-18.5 0,-18.5"/>
<text text-anchor="middle" x="31.2544" y="-24.5" font-family="Helvetica,sans-Serif" font-size="10.00">fl::Variable</text>
</a>
</g>
</g>
<!-- Node2 -->
<g id="node2" class="node"><title>Node2</title>
<g id="a_node2"><a xlink:href="db/d6c/classfl_1_1_input_variable.html" target="_top" xlink:title="The InputVariable class is a Variable that represents an input of the fuzzy logic controller...">
<polygon fill="white" stroke="black" points="102.398,-37.5 102.398,-55.5 187.148,-55.5 187.148,-37.5 102.398,-37.5"/>
<text text-anchor="middle" x="144.773" y="-43.5" font-family="Helvetica,sans-Serif" font-size="10.00">fl::InputVariable</text>
</a>
</g>
</g>
<!-- Node1&#45;&gt;Node2 -->
<g id="edge1" class="edge"><title>Node1&#45;&gt;Node2</title>
<path fill="none" stroke="midnightblue" d="M72.7585,-34.4009C82.2898,-36.0248 92.4654,-37.7585 102.049,-39.3913"/>
<polygon fill="midnightblue" stroke="midnightblue" points="73.1731,-30.9212 62.7273,-32.6918 71.9974,-37.8217 73.1731,-30.9212"/>
</g>
<!-- Node3 -->
<g id="node3" class="node"><title>Node3</title>
<g id="a_node3"><a xlink:href="d1/db0/classfl_1_1_output_variable.html" target="_top" xlink:title="The OutputVariable class is a Variable that represents an output of the fuzzy logic controller...">
<polygon fill="white" stroke="black" points="98.5088,-0.5 98.5088,-18.5 191.037,-18.5 191.037,-0.5 98.5088,-0.5"/>
<text text-anchor="middle" x="144.773" y="-6.5" font-family="Helvetica,sans-Serif" font-size="10.00">fl::OutputVariable</text>
</a>
</g>
</g>
<!-- Node1&#45;&gt;Node3 -->
<g id="edge2" class="edge"><title>Node1&#45;&gt;Node3</title>
<path fill="none" stroke="midnightblue" d="M72.8685,-20.9445C81.1248,-19.6119 89.8604,-18.2019 98.2733,-16.844"/>
<polygon fill="midnightblue" stroke="midnightblue" points="72.0418,-17.5326 62.7273,-22.5814 73.1573,-24.4432 72.0418,-17.5326"/>
</g>
</g>
</svg>
