<?xml version="1.0" encoding="UTF-8" standalone="no"?>
<!DOCTYPE svg PUBLIC "-//W3C//DTD SVG 1.1//EN"
 "http://www.w3.org/Graphics/SVG/1.1/DTD/svg11.dtd">
<!-- Generated by graphviz version 2.38.0 (20140413.2041)
 -->
<!-- Title: Graphical Class Hierarchy Pages: 1 -->
<svg width="174pt" height="212pt"
 viewBox="0.00 0.00 173.83 212.00" xmlns="http://www.w3.org/2000/svg" xmlns:xlink="http://www.w3.org/1999/xlink">
<g id="graph0" class="graph" transform="scale(1 1) rotate(0) translate(4 208)">
<title>Graphical Class Hierarchy</title>
<polygon fill="white" stroke="none" points="-4,4 -4,-208 169.827,-208 169.827,4 -4,4"/>
<!-- Node1 -->
<g id="node1" class="node"><title>Node1</title>
<g id="a_node1"><a xlink:href="d3/dba/classfl_1_1_hedge.html" target="_top" xlink:title="The Hedge class is the abstract class for hedges. ">
<polygon fill="white" stroke="black" points="0,-92.5 0,-110.5 56.0244,-110.5 56.0244,-92.5 0,-92.5"/>
<text text-anchor="middle" x="28.0122" y="-98.5" font-family="Helvetica,sans-Serif" font-size="10.00">fl::Hedge</text>
</a>
</g>
</g>
<!-- Node2 -->
<g id="node2" class="node"><title>Node2</title>
<g id="a_node2"><a xlink:href="df/d7c/classfl_1_1_any.html" target="_top" xlink:title="The Any class is a special Hedge that always returns 1.0. ">
<polygon fill="white" stroke="black" points="107.032,-185.5 107.032,-203.5 150.82,-203.5 150.82,-185.5 107.032,-185.5"/>
<text text-anchor="middle" x="128.926" y="-191.5" font-family="Helvetica,sans-Serif" font-size="10.00">fl::Any</text>
</a>
</g>
</g>
<!-- Node1&#45;&gt;Node2 -->
<g id="edge1" class="edge"><title>Node1&#45;&gt;Node2</title>
<path fill="none" stroke="midnightblue" d="M40.9288,-119.529C52.4836,-135.965 71.272,-160.113 92.0244,-176.5 96.5115,-180.043 101.808,-183.163 106.934,-185.768"/>
<polygon fill="midnightblue" stroke="midnightblue" points="43.5346,-117.139 35.0012,-110.859 37.7561,-121.09 43.5346,-117.139"/>
</g>
<!-- Node3 -->
<g id="node3" class="node"><title>Node3</title>
<g id="a_node3"><a xlink:href="dc/d30/classfl_1_1_extremely.html" target="_top" xlink:title="The Extremely class is a Hedge located fifth in the ordered set (Not, Seldom, Somewhat, Very, Extremely, Any). ">
<polygon fill="white" stroke="black" points="93.4209,-148.5 93.4209,-166.5 164.431,-166.5 164.431,-148.5 93.4209,-148.5"/>
<text text-anchor="middle" x="128.926" y="-154.5" font-family="Helvetica,sans-Serif" font-size="10.00">fl::Extremely</text>
</a>
</g>
</g>
<!-- Node1&#45;&gt;Node3 -->
<g id="edge2" class="edge"><title>Node1&#45;&gt;Node3</title>
<path fill="none" stroke="midnightblue" d="M52.1192,-116.025C63.9292,-123.298 78.6055,-132.105 92.0244,-139.5 97.5202,-142.529 103.589,-145.653 109.149,-148.431"/>
<polygon fill="midnightblue" stroke="midnightblue" points="53.6835,-112.877 43.341,-110.578 49.9926,-118.825 53.6835,-112.877"/>
</g>
<!-- Node4 -->
<g id="node4" class="node"><title>Node4</title>
<g id="a_node4"><a xlink:href="d1/dca/classfl_1_1_not.html" target="_top" xlink:title="The Not class is a Hedge located first in the ordered set (Not, Seldom, Somewhat, Very...">
<polygon fill="white" stroke="black" points="107.867,-111.5 107.867,-129.5 149.985,-129.5 149.985,-111.5 107.867,-111.5"/>
<text text-anchor="middle" x="128.926" y="-117.5" font-family="Helvetica,sans-Serif" font-size="10.00">fl::Not</text>
</a>
</g>
</g>
<!-- Node1&#45;&gt;Node4 -->
<g id="edge3" class="edge"><title>Node1&#45;&gt;Node4</title>
<path fill="none" stroke="midnightblue" d="M66.029,-108.61C80.1996,-111.332 95.8274,-114.334 107.835,-116.641"/>
<polygon fill="midnightblue" stroke="midnightblue" points="66.5215,-105.141 56.0408,-106.692 65.201,-112.015 66.5215,-105.141"/>
</g>
<!-- Node5 -->
<g id="node5" class="node"><title>Node5</title>
<g id="a_node5"><a xlink:href="d4/dc0/classfl_1_1_seldom.html" target="_top" xlink:title="The Seldom class is a Hedge located second in the ordered set (Not, Seldom, Somewhat, Very, Extremely, Any). ">
<polygon fill="white" stroke="black" points="98.6943,-74.5 98.6943,-92.5 159.157,-92.5 159.157,-74.5 98.6943,-74.5"/>
<text text-anchor="middle" x="128.926" y="-80.5" font-family="Helvetica,sans-Serif" font-size="10.00">fl::Seldom</text>
</a>
</g>
</g>
<!-- Node1&#45;&gt;Node5 -->
<g id="edge4" class="edge"><title>Node1&#45;&gt;Node5</title>
<path fill="none" stroke="midnightblue" d="M66.0002,-94.769C76.7307,-92.8163 88.2991,-90.7111 98.4995,-88.8549"/>
<polygon fill="midnightblue" stroke="midnightblue" points="65.2525,-91.3475 56.0408,-96.5814 66.5059,-98.2344 65.2525,-91.3475"/>
</g>
<!-- Node6 -->
<g id="node6" class="node"><title>Node6</title>
<g id="a_node6"><a xlink:href="d0/d29/classfl_1_1_somewhat.html" target="_top" xlink:title="The Somewhat class is a Hedge located third in the ordered set (Not, Seldom, Somewhat, Very, Extremely, Any). ">
<polygon fill="white" stroke="black" points="92.0244,-37.5 92.0244,-55.5 165.827,-55.5 165.827,-37.5 92.0244,-37.5"/>
<text text-anchor="middle" x="128.926" y="-43.5" font-family="Helvetica,sans-Serif" font-size="10.00">fl::Somewhat</text>
</a>
</g>
</g>
<!-- Node1&#45;&gt;Node6 -->
<g id="edge5" class="edge"><title>Node1&#45;&gt;Node6</title>
<path fill="none" stroke="midnightblue" d="M53.2119,-87.4314C64.8902,-80.7046 79.1328,-72.5915 92.0244,-65.5 97.956,-62.2371 104.488,-58.7495 110.335,-55.6646"/>
<polygon fill="midnightblue" stroke="midnightblue" points="51.3776,-84.449 44.4708,-92.483 54.8802,-90.5097 51.3776,-84.449"/>
</g>
<!-- Node7 -->
<g id="node7" class="node"><title>Node7</title>
<g id="a_node7"><a xlink:href="d2/df3/classfl_1_1_very.html" target="_top" xlink:title="The Very class is a Hedge located fourth in the ordered set (Not, Seldom, Somewhat, Very, Extremely, Any). ">
<polygon fill="white" stroke="black" points="105.64,-0.5 105.64,-18.5 152.211,-18.5 152.211,-0.5 105.64,-0.5"/>
<text text-anchor="middle" x="128.926" y="-6.5" font-family="Helvetica,sans-Serif" font-size="10.00">fl::Very</text>
</a>
</g>
</g>
<!-- Node1&#45;&gt;Node7 -->
<g id="edge6" class="edge"><title>Node1&#45;&gt;Node7</title>
<path fill="none" stroke="midnightblue" d="M41.1104,-84.0773C52.792,-68.1665 71.6647,-44.7206 92.0244,-28.5 96.7677,-24.721 102.376,-21.3368 107.732,-18.5086"/>
<polygon fill="midnightblue" stroke="midnightblue" points="38.0822,-82.2947 35.1066,-92.4631 43.7738,-86.3697 38.0822,-82.2947"/>
</g>
</g>
</svg>
