<?xml version="1.0" encoding="UTF-8" standalone="no"?>
<!DOCTYPE svg PUBLIC "-//W3C//DTD SVG 1.1//EN"
 "http://www.w3.org/Graphics/SVG/1.1/DTD/svg11.dtd">
<!-- Generated by graphviz version 2.38.0 (20140413.2041)
 -->
<!-- Title: Graphical Class Hierarchy Pages: 1 -->
<svg width="388pt" height="249pt"
 viewBox="0.00 0.00 388.45 249.00" xmlns="http://www.w3.org/2000/svg" xmlns:xlink="http://www.w3.org/1999/xlink">
<g id="graph0" class="graph" transform="scale(1 1) rotate(0) translate(4 245)">
<title>Graphical Class Hierarchy</title>
<polygon fill="white" stroke="none" points="-4,4 -4,-245 384.449,-245 384.449,4 -4,4"/>
<!-- Node1 -->
<g id="node1" class="node"><title>Node1</title>
<g id="a_node1"><a xlink:href="d3/d31/classfl_1_1_defuzzifier.html" target="_top" xlink:title="The Defuzzifier class is the abstract class for defuzzifiers. ">
<polygon fill="white" stroke="black" points="0,-83.5 0,-101.5 73.793,-101.5 73.793,-83.5 0,-83.5"/>
<text text-anchor="middle" x="36.8965" y="-89.5" font-family="Helvetica,sans-Serif" font-size="10.00">fl::Defuzzifier</text>
</a>
</g>
</g>
<!-- Node2 -->
<g id="node2" class="node"><title>Node2</title>
<g id="a_node2"><a xlink:href="d9/d95/classfl_1_1_integral_defuzzifier.html" target="_top" xlink:title="The IntegralDefuzzifier class is the base class for defuzzifiers which integrate over the fuzzy set...">
<polygon fill="white" stroke="black" points="114.151,-129.5 114.151,-147.5 221.298,-147.5 221.298,-129.5 114.151,-129.5"/>
<text text-anchor="middle" x="167.725" y="-135.5" font-family="Helvetica,sans-Serif" font-size="10.00">fl::IntegralDefuzzifier</text>
</a>
</g>
</g>
<!-- Node1&#45;&gt;Node2 -->
<g id="edge1" class="edge"><title>Node1&#45;&gt;Node2</title>
<path fill="none" stroke="midnightblue" d="M72.8413,-104.978C94.4715,-112.701 121.753,-122.442 141.325,-129.431"/>
<polygon fill="midnightblue" stroke="midnightblue" points="73.9434,-101.655 63.3488,-101.588 71.5895,-108.247 73.9434,-101.655"/>
</g>
<!-- Node8 -->
<g id="node8" class="node"><title>Node8</title>
<g id="a_node8"><a xlink:href="d5/d8d/classfl_1_1_weighted_defuzzifier.html" target="_top" xlink:title="The WeightedDefuzzifier class is the base class for defuzzifiers which compute a weighted function on...">
<polygon fill="white" stroke="black" points="109.793,-37.5 109.793,-55.5 225.656,-55.5 225.656,-37.5 109.793,-37.5"/>
<text text-anchor="middle" x="167.725" y="-43.5" font-family="Helvetica,sans-Serif" font-size="10.00">fl::WeightedDefuzzifier</text>
</a>
</g>
</g>
<!-- Node1&#45;&gt;Node8 -->
<g id="edge7" class="edge"><title>Node1&#45;&gt;Node8</title>
<path fill="none" stroke="midnightblue" d="M72.8413,-80.0224C94.4715,-72.299 121.753,-62.5577 141.325,-55.5692"/>
<polygon fill="midnightblue" stroke="midnightblue" points="71.5895,-76.7529 63.3488,-83.4119 73.9434,-83.3453 71.5895,-76.7529"/>
</g>
<!-- Node3 -->
<g id="node3" class="node"><title>Node3</title>
<g id="a_node3"><a xlink:href="da/d09/classfl_1_1_bisector.html" target="_top" xlink:title="The Bisector class is an IntegralDefuzzifier that computes the bisector of a fuzzy set represented in...">
<polygon fill="white" stroke="black" points="289.713,-222.5 289.713,-240.5 352.393,-240.5 352.393,-222.5 289.713,-222.5"/>
<text text-anchor="middle" x="321.053" y="-228.5" font-family="Helvetica,sans-Serif" font-size="10.00">fl::Bisector</text>
</a>
</g>
</g>
<!-- Node2&#45;&gt;Node3 -->
<g id="edge2" class="edge"><title>Node2&#45;&gt;Node3</title>
<path fill="none" stroke="midnightblue" d="M184.785,-154.708C202.293,-171.55 231.817,-197.622 261.656,-213.5 270.273,-218.085 280.238,-221.699 289.47,-224.448"/>
<polygon fill="midnightblue" stroke="midnightblue" points="187.219,-152.192 177.629,-147.688 182.317,-157.189 187.219,-152.192"/>
</g>
<!-- Node4 -->
<g id="node4" class="node"><title>Node4</title>
<g id="a_node4"><a xlink:href="df/d91/classfl_1_1_centroid.html" target="_top" xlink:title="The Centroid class is an IntegralDefuzzifier that computes the centroid of a fuzzy set represented in...">
<polygon fill="white" stroke="black" points="288.875,-185.5 288.875,-203.5 353.23,-203.5 353.23,-185.5 288.875,-185.5"/>
<text text-anchor="middle" x="321.053" y="-191.5" font-family="Helvetica,sans-Serif" font-size="10.00">fl::Centroid</text>
</a>
</g>
</g>
<!-- Node2&#45;&gt;Node4 -->
<g id="edge3" class="edge"><title>Node2&#45;&gt;Node4</title>
<path fill="none" stroke="midnightblue" d="M198.975,-151.668C217.019,-159.322 240.469,-168.92 261.656,-176.5 270.447,-179.645 280.094,-182.755 288.97,-185.482"/>
<polygon fill="midnightblue" stroke="midnightblue" points="200.127,-148.354 189.556,-147.642 197.375,-154.791 200.127,-148.354"/>
</g>
<!-- Node5 -->
<g id="node5" class="node"><title>Node5</title>
<g id="a_node5"><a xlink:href="de/d47/classfl_1_1_largest_of_maximum.html" target="_top" xlink:title="The LargestOfMaximum class is an IntegralDefuzzifier that computes the largest value of the maximum m...">
<polygon fill="white" stroke="black" points="264.151,-148.5 264.151,-166.5 377.954,-166.5 377.954,-148.5 264.151,-148.5"/>
<text text-anchor="middle" x="321.053" y="-154.5" font-family="Helvetica,sans-Serif" font-size="10.00">fl::LargestOfMaximum</text>
</a>
</g>
</g>
<!-- Node2&#45;&gt;Node5 -->
<g id="edge4" class="edge"><title>Node2&#45;&gt;Node5</title>
<path fill="none" stroke="midnightblue" d="M231.786,-146.418C242.498,-147.763 253.556,-149.151 264.07,-150.471"/>
<polygon fill="midnightblue" stroke="midnightblue" points="232.01,-142.918 221.652,-145.145 231.138,-149.864 232.01,-142.918"/>
</g>
<!-- Node6 -->
<g id="node6" class="node"><title>Node6</title>
<g id="a_node6"><a xlink:href="dc/d91/classfl_1_1_mean_of_maximum.html" target="_top" xlink:title="The MeanOfMaximum class is an IntegralDefuzzifier that computes the mean value of the maximum members...">
<polygon fill="white" stroke="black" points="268.321,-111.5 268.321,-129.5 373.784,-129.5 373.784,-111.5 268.321,-111.5"/>
<text text-anchor="middle" x="321.053" y="-117.5" font-family="Helvetica,sans-Serif" font-size="10.00">fl::MeanOfMaximum</text>
</a>
</g>
</g>
<!-- Node2&#45;&gt;Node6 -->
<g id="edge5" class="edge"><title>Node2&#45;&gt;Node6</title>
<path fill="none" stroke="midnightblue" d="M231.714,-131.008C243.853,-129.564 256.439,-128.067 268.176,-126.671"/>
<polygon fill="midnightblue" stroke="midnightblue" points="231.168,-127.548 221.652,-132.204 231.995,-134.499 231.168,-127.548"/>
</g>
<!-- Node7 -->
<g id="node7" class="node"><title>Node7</title>
<g id="a_node7"><a xlink:href="dc/dba/classfl_1_1_smallest_of_maximum.html" target="_top" xlink:title="The SmallestOfMaximum class is an IntegralDefuzzifier that computes the smallest value of the maximum...">
<polygon fill="white" stroke="black" points="261.656,-74.5 261.656,-92.5 380.449,-92.5 380.449,-74.5 261.656,-74.5"/>
<text text-anchor="middle" x="321.053" y="-80.5" font-family="Helvetica,sans-Serif" font-size="10.00">fl::SmallestOfMaximum</text>
</a>
</g>
</g>
<!-- Node2&#45;&gt;Node7 -->
<g id="edge6" class="edge"><title>Node2&#45;&gt;Node7</title>
<path fill="none" stroke="midnightblue" d="M200.511,-125.688C218.387,-118.609 241.164,-109.797 261.656,-102.5 271.198,-99.1026 281.7,-95.6102 291.135,-92.5611"/>
<polygon fill="midnightblue" stroke="midnightblue" points="199.126,-122.472 191.13,-129.422 201.715,-128.976 199.126,-122.472"/>
</g>
<!-- Node9 -->
<g id="node9" class="node"><title>Node9</title>
<g id="a_node9"><a xlink:href="d7/dde/classfl_1_1_weighted_average.html" target="_top" xlink:title="The WeightedAverage class is a WeightedDefuzzifier that computes the weighted average of a fuzzy set ...">
<polygon fill="white" stroke="black" points="268.204,-37.5 268.204,-55.5 373.901,-55.5 373.901,-37.5 268.204,-37.5"/>
<text text-anchor="middle" x="321.053" y="-43.5" font-family="Helvetica,sans-Serif" font-size="10.00">fl::WeightedAverage</text>
</a>
</g>
</g>
<!-- Node8&#45;&gt;Node9 -->
<g id="edge8" class="edge"><title>Node8&#45;&gt;Node9</title>
<path fill="none" stroke="midnightblue" d="M236.032,-46.5C246.664,-46.5 257.519,-46.5 267.742,-46.5"/>
<polygon fill="midnightblue" stroke="midnightblue" points="235.935,-43.0001 225.935,-46.5 235.935,-50.0001 235.935,-43.0001"/>
</g>
<!-- Node10 -->
<g id="node10" class="node"><title>Node10</title>
<g id="a_node10"><a xlink:href="d0/dbb/classfl_1_1_weighted_sum.html" target="_top" xlink:title="The WeightedSum class is a WeightedDefuzzifier that computes the weighted sum of a fuzzy set represen...">
<polygon fill="white" stroke="black" points="276.458,-0.5 276.458,-18.5 365.647,-18.5 365.647,-0.5 276.458,-0.5"/>
<text text-anchor="middle" x="321.053" y="-6.5" font-family="Helvetica,sans-Serif" font-size="10.00">fl::WeightedSum</text>
</a>
</g>
</g>
<!-- Node8&#45;&gt;Node10 -->
<g id="edge9" class="edge"><title>Node8&#45;&gt;Node10</title>
<path fill="none" stroke="midnightblue" d="M215.745,-35.0033C237.454,-29.6954 262.854,-23.4851 283.154,-18.5218"/>
<polygon fill="midnightblue" stroke="midnightblue" points="214.626,-31.6738 205.744,-37.4488 216.289,-38.4735 214.626,-31.6738"/>
</g>
</g>
</svg>
