<?xml version="1.0" encoding="UTF-8" standalone="no"?>
<!DOCTYPE svg PUBLIC "-//W3C//DTD SVG 1.1//EN"
 "http://www.w3.org/Graphics/SVG/1.1/DTD/svg11.dtd">
<!-- Generated by graphviz version 2.38.0 (20140413.2041)
 -->
<!-- Title: fl::SNormFunction Pages: 1 -->
<svg width="109pt" height="375pt"
 viewBox="0.00 0.00 108.75 375.00" xmlns="http://www.w3.org/2000/svg" xmlns:xlink="http://www.w3.org/1999/xlink">
<g id="graph0" class="graph" transform="scale(1 1) rotate(0) translate(4 371)">
<title>fl::SNormFunction</title>
<polygon fill="white" stroke="none" points="-4,4 -4,-371 104.746,-371 104.746,4 -4,4"/>
<!-- Node1 -->
<g id="node1" class="node"><title>Node1</title>
<polygon fill="#bfbfbf" stroke="black" points="0,-0.5 0,-124.5 100.746,-124.5 100.746,-0.5 0,-0.5"/>
<text text-anchor="middle" x="50.373" y="-112.5" font-family="Helvetica,sans-Serif" font-size="10.00">fl::SNormFunction</text>
<polyline fill="none" stroke="black" points="0,-106.5 100.746,-106.5 "/>
<text text-anchor="middle" x="50.373" y="-94.5" font-family="Helvetica,sans-Serif" font-size="10.00"> </text>
<polyline fill="none" stroke="black" points="0,-88.5 100.746,-88.5 "/>
<text text-anchor="start" x="8" y="-76.5" font-family="Helvetica,sans-Serif" font-size="10.00">+ SNormFunction()</text>
<text text-anchor="start" x="8" y="-66.5" font-family="Helvetica,sans-Serif" font-size="10.00">+ function()</text>
<text text-anchor="start" x="8" y="-56.5" font-family="Helvetica,sans-Serif" font-size="10.00">+ setFormula()</text>
<text text-anchor="start" x="8" y="-46.5" font-family="Helvetica,sans-Serif" font-size="10.00">+ getFormula()</text>
<text text-anchor="start" x="8" y="-36.5" font-family="Helvetica,sans-Serif" font-size="10.00">+ className()</text>
<text text-anchor="start" x="8" y="-26.5" font-family="Helvetica,sans-Serif" font-size="10.00">+ compute()</text>
<text text-anchor="start" x="8" y="-16.5" font-family="Helvetica,sans-Serif" font-size="10.00">+ clone()</text>
<text text-anchor="start" x="8" y="-6.5" font-family="Helvetica,sans-Serif" font-size="10.00">+ constructor()</text>
</g>
<!-- Node2 -->
<g id="node2" class="node"><title>Node2</title>
<g id="a_node2"><a xlink:href="../../d4/df8/classfl_1_1_s_norm.html" target="_top" xlink:title="The SNorm class is the base class for all S&#45;Norms, and it is utilized as the disjunction fuzzy logic ...">
<polygon fill="white" stroke="black" points="16.2573,-161.5 16.2573,-235.5 84.4888,-235.5 84.4888,-161.5 16.2573,-161.5"/>
<text text-anchor="middle" x="50.373" y="-223.5" font-family="Helvetica,sans-Serif" font-size="10.00">fl::SNorm</text>
<polyline fill="none" stroke="black" points="16.2573,-217.5 84.4888,-217.5 "/>
<text text-anchor="middle" x="50.373" y="-205.5" font-family="Helvetica,sans-Serif" font-size="10.00"> </text>
<polyline fill="none" stroke="black" points="16.2573,-199.5 84.4888,-199.5 "/>
<text text-anchor="start" x="24.2573" y="-187.5" font-family="Helvetica,sans-Serif" font-size="10.00">+ SNorm()</text>
<text text-anchor="start" x="24.2573" y="-177.5" font-family="Helvetica,sans-Serif" font-size="10.00">+ ~SNorm()</text>
<text text-anchor="start" x="24.2573" y="-167.5" font-family="Helvetica,sans-Serif" font-size="10.00">+ clone()</text>
</a>
</g>
</g>
<!-- Node2&#45;&gt;Node1 -->
<g id="edge1" class="edge"><title>Node2&#45;&gt;Node1</title>
<path fill="none" stroke="midnightblue" d="M50.373,-151.093C50.373,-142.539 50.373,-133.489 50.373,-124.58"/>
<polygon fill="none" stroke="midnightblue" points="46.8731,-151.238 50.373,-161.238 53.8731,-151.238 46.8731,-151.238"/>
</g>
<!-- Node3 -->
<g id="node3" class="node"><title>Node3</title>
<g id="a_node3"><a xlink:href="../../d5/d22/classfl_1_1_norm.html" target="_top" xlink:title="The Norm class is the abstract class for norms. ">
<polygon fill="white" stroke="black" points="10.0049,-272.5 10.0049,-366.5 90.7412,-366.5 90.7412,-272.5 10.0049,-272.5"/>
<text text-anchor="middle" x="50.373" y="-354.5" font-family="Helvetica,sans-Serif" font-size="10.00">fl::Norm</text>
<polyline fill="none" stroke="black" points="10.0049,-348.5 90.7412,-348.5 "/>
<text text-anchor="middle" x="50.373" y="-336.5" font-family="Helvetica,sans-Serif" font-size="10.00"> </text>
<polyline fill="none" stroke="black" points="10.0049,-330.5 90.7412,-330.5 "/>
<text text-anchor="start" x="18.0049" y="-318.5" font-family="Helvetica,sans-Serif" font-size="10.00">+ Norm()</text>
<text text-anchor="start" x="18.0049" y="-308.5" font-family="Helvetica,sans-Serif" font-size="10.00">+ ~Norm()</text>
<text text-anchor="start" x="18.0049" y="-298.5" font-family="Helvetica,sans-Serif" font-size="10.00">+ className()</text>
<text text-anchor="start" x="18.0049" y="-288.5" font-family="Helvetica,sans-Serif" font-size="10.00">+ compute()</text>
<text text-anchor="start" x="18.0049" y="-278.5" font-family="Helvetica,sans-Serif" font-size="10.00">+ clone()</text>
</a>
</g>
</g>
<!-- Node3&#45;&gt;Node2 -->
<g id="edge2" class="edge"><title>Node3&#45;&gt;Node2</title>
<path fill="none" stroke="midnightblue" d="M50.373,-262.379C50.373,-253.343 50.373,-244.203 50.373,-235.796"/>
<polygon fill="none" stroke="midnightblue" points="46.8731,-262.491 50.373,-272.491 53.8731,-262.492 46.8731,-262.491"/>
</g>
</g>
</svg>
