<?xml version="1.0" encoding="UTF-8" standalone="no"?>
<!DOCTYPE svg PUBLIC "-//W3C//DTD SVG 1.1//EN"
 "http://www.w3.org/Graphics/SVG/1.1/DTD/svg11.dtd">
<!-- Generated by graphviz version 2.38.0 (20140413.2041)
 -->
<!-- Title: fuzzylite/fl/rule/Rule.h Pages: 1 -->
<svg width="515pt" height="247pt"
 viewBox="0.00 0.00 515.29 247.00" xmlns="http://www.w3.org/2000/svg" xmlns:xlink="http://www.w3.org/1999/xlink">
<g id="graph0" class="graph" transform="scale(1 1) rotate(0) translate(4 243)">
<title>fuzzylite/fl/rule/Rule.h</title>
<polygon fill="white" stroke="none" points="-4,4 -4,-243 511.291,-243 511.291,4 -4,4"/>
<!-- Node0 -->
<g id="node1" class="node"><title>Node0</title>
<polygon fill="#bfbfbf" stroke="black" points="265.044,-220.5 265.044,-238.5 376.083,-238.5 376.083,-220.5 265.044,-220.5"/>
<text text-anchor="middle" x="320.564" y="-226.5" font-family="Helvetica,sans-Serif" font-size="10.00">fuzzylite/fl/rule/Rule.h</text>
</g>
<!-- Node1 -->
<g id="node2" class="node"><title>Node1</title>
<g id="a_node2"><a xlink:href="../../de/d53/fuzzylite_8h.html" target="_top" xlink:title="fl/fuzzylite.h">
<polygon fill="white" stroke="black" points="200.443,-55.5 200.443,-73.5 268.685,-73.5 268.685,-55.5 200.443,-55.5"/>
<text text-anchor="middle" x="234.564" y="-61.5" font-family="Helvetica,sans-Serif" font-size="10.00">fl/fuzzylite.h</text>
</a>
</g>
</g>
<!-- Node0&#45;&gt;Node1 -->
<g id="edge1" class="edge"><title>Node0&#45;&gt;Node1</title>
<path fill="none" stroke="midnightblue" d="M264.701,-225.79C234.892,-221.148 200.535,-209.993 181.564,-184 157.213,-150.635 194.896,-104.305 218.269,-80.6763"/>
<polygon fill="midnightblue" stroke="midnightblue" points="220.824,-83.0737 225.537,-73.5849 215.935,-78.0636 220.824,-83.0737"/>
</g>
<!-- Node9 -->
<g id="node10" class="node"><title>Node9</title>
<g id="a_node10"><a xlink:href="../../d6/d7c/_consequent_8h.html" target="_top" xlink:title="fl/rule/Consequent.h">
<polygon fill="white" stroke="black" points="348.813,-165.5 348.813,-183.5 454.315,-183.5 454.315,-165.5 348.813,-165.5"/>
<text text-anchor="middle" x="401.564" y="-171.5" font-family="Helvetica,sans-Serif" font-size="10.00">fl/rule/Consequent.h</text>
</a>
</g>
</g>
<!-- Node0&#45;&gt;Node9 -->
<g id="edge9" class="edge"><title>Node0&#45;&gt;Node9</title>
<path fill="none" stroke="midnightblue" d="M332.866,-220.45C345.474,-212.201 365.319,-199.216 380.445,-189.319"/>
<polygon fill="midnightblue" stroke="midnightblue" points="382.695,-192.029 389.146,-183.625 378.862,-186.172 382.695,-192.029"/>
</g>
<!-- Node12 -->
<g id="node13" class="node"><title>Node12</title>
<polygon fill="white" stroke="#bfbfbf" points="327.337,-110.5 327.337,-128.5 367.791,-128.5 367.791,-110.5 327.337,-110.5"/>
<text text-anchor="middle" x="347.564" y="-116.5" font-family="Helvetica,sans-Serif" font-size="10.00">string</text>
</g>
<!-- Node0&#45;&gt;Node12 -->
<g id="edge21" class="edge"><title>Node0&#45;&gt;Node12</title>
<path fill="none" stroke="midnightblue" d="M322.593,-220.382C326.913,-203.104 337.107,-162.329 343.048,-138.563"/>
<polygon fill="midnightblue" stroke="midnightblue" points="346.481,-139.262 345.511,-128.712 339.69,-137.564 346.481,-139.262"/>
</g>
<!-- Node13 -->
<g id="node14" class="node"><title>Node13</title>
<g id="a_node14"><a xlink:href="../../d6/df5/_antecedent_8h.html" target="_top" xlink:title="fl/rule/Antecedent.h">
<polygon fill="white" stroke="black" points="190.48,-165.5 190.48,-183.5 292.647,-183.5 292.647,-165.5 190.48,-165.5"/>
<text text-anchor="middle" x="241.564" y="-171.5" font-family="Helvetica,sans-Serif" font-size="10.00">fl/rule/Antecedent.h</text>
</a>
</g>
</g>
<!-- Node0&#45;&gt;Node13 -->
<g id="edge16" class="edge"><title>Node0&#45;&gt;Node13</title>
<path fill="none" stroke="midnightblue" d="M308.566,-220.45C296.269,-212.201 276.914,-199.216 262.162,-189.319"/>
<polygon fill="midnightblue" stroke="midnightblue" points="263.93,-186.29 253.675,-183.625 260.03,-192.103 263.93,-186.29"/>
</g>
<!-- Node14 -->
<g id="node15" class="node"><title>Node14</title>
<polygon fill="white" stroke="#bfbfbf" points="471.837,-165.5 471.837,-183.5 507.291,-183.5 507.291,-165.5 471.837,-165.5"/>
<text text-anchor="middle" x="489.564" y="-171.5" font-family="Helvetica,sans-Serif" font-size="10.00">map</text>
</g>
<!-- Node0&#45;&gt;Node14 -->
<g id="edge20" class="edge"><title>Node0&#45;&gt;Node14</title>
<path fill="none" stroke="midnightblue" d="M346.693,-220.491C373.484,-212.253 416.6,-198.922 461.963,-184.483"/>
<polygon fill="midnightblue" stroke="midnightblue" points="463.209,-187.76 471.672,-181.386 461.082,-181.09 463.209,-187.76"/>
</g>
<!-- Node2 -->
<g id="node3" class="node"><title>Node2</title>
<polygon fill="white" stroke="#bfbfbf" points="0,-0.5 0,-18.5 57.1279,-18.5 57.1279,-0.5 0,-0.5"/>
<text text-anchor="middle" x="28.564" y="-6.5" font-family="Helvetica,sans-Serif" font-size="10.00">algorithm</text>
</g>
<!-- Node1&#45;&gt;Node2 -->
<g id="edge2" class="edge"><title>Node1&#45;&gt;Node2</title>
<path fill="none" stroke="midnightblue" d="M203.277,-55.4504C166.727,-46.0468 106.259,-30.4896 66.916,-20.3673"/>
<polygon fill="midnightblue" stroke="midnightblue" points="67.7083,-16.9572 57.1516,-17.8551 65.9641,-23.7364 67.7083,-16.9572"/>
</g>
<!-- Node3 -->
<g id="node4" class="node"><title>Node3</title>
<polygon fill="white" stroke="#bfbfbf" points="74.9482,-0.5 74.9482,-18.5 118.18,-18.5 118.18,-0.5 74.9482,-0.5"/>
<text text-anchor="middle" x="96.564" y="-6.5" font-family="Helvetica,sans-Serif" font-size="10.00">cmath</text>
</g>
<!-- Node1&#45;&gt;Node3 -->
<g id="edge3" class="edge"><title>Node1&#45;&gt;Node3</title>
<path fill="none" stroke="midnightblue" d="M213.605,-55.4504C190.605,-46.6173 153.468,-32.3546 127.203,-22.267"/>
<polygon fill="midnightblue" stroke="midnightblue" points="128.311,-18.9433 117.72,-18.6253 125.801,-25.478 128.311,-18.9433"/>
</g>
<!-- Node4 -->
<g id="node5" class="node"><title>Node4</title>
<polygon fill="white" stroke="#bfbfbf" points="136.392,-0.5 136.392,-18.5 190.736,-18.5 190.736,-0.5 136.392,-0.5"/>
<text text-anchor="middle" x="163.564" y="-6.5" font-family="Helvetica,sans-Serif" font-size="10.00">iostream</text>
</g>
<!-- Node1&#45;&gt;Node4 -->
<g id="edge4" class="edge"><title>Node1&#45;&gt;Node4</title>
<path fill="none" stroke="midnightblue" d="M223.781,-55.4504C212.938,-47.3566 195.988,-34.7042 182.831,-24.8822"/>
<polygon fill="midnightblue" stroke="midnightblue" points="184.556,-21.8025 174.449,-18.6253 180.369,-27.412 184.556,-21.8025"/>
</g>
<!-- Node5 -->
<g id="node6" class="node"><title>Node5</title>
<polygon fill="white" stroke="#bfbfbf" points="208.783,-0.5 208.783,-18.5 260.345,-18.5 260.345,-0.5 208.783,-0.5"/>
<text text-anchor="middle" x="234.564" y="-6.5" font-family="Helvetica,sans-Serif" font-size="10.00">sstream</text>
</g>
<!-- Node1&#45;&gt;Node5 -->
<g id="edge5" class="edge"><title>Node1&#45;&gt;Node5</title>
<path fill="none" stroke="midnightblue" d="M234.564,-55.2188C234.564,-48.1769 234.564,-37.8083 234.564,-28.8277"/>
<polygon fill="midnightblue" stroke="midnightblue" points="238.064,-28.5495 234.564,-18.5496 231.064,-28.5496 238.064,-28.5495"/>
</g>
<!-- Node6 -->
<g id="node7" class="node"><title>Node6</title>
<polygon fill="white" stroke="#bfbfbf" points="278.177,-0.5 278.177,-18.5 316.951,-18.5 316.951,-0.5 278.177,-0.5"/>
<text text-anchor="middle" x="297.564" y="-6.5" font-family="Helvetica,sans-Serif" font-size="10.00">limits</text>
</g>
<!-- Node1&#45;&gt;Node6 -->
<g id="edge6" class="edge"><title>Node1&#45;&gt;Node6</title>
<path fill="none" stroke="midnightblue" d="M244.132,-55.4504C253.661,-47.4345 268.504,-34.9471 280.13,-25.1663"/>
<polygon fill="midnightblue" stroke="midnightblue" points="282.506,-27.7413 287.906,-18.6253 278,-22.3847 282.506,-27.7413"/>
</g>
<!-- Node7 -->
<g id="node8" class="node"><title>Node7</title>
<polygon fill="white" stroke="#bfbfbf" points="334.507,-0.5 334.507,-18.5 386.621,-18.5 386.621,-0.5 334.507,-0.5"/>
<text text-anchor="middle" x="360.564" y="-6.5" font-family="Helvetica,sans-Serif" font-size="10.00">memory</text>
</g>
<!-- Node1&#45;&gt;Node7 -->
<g id="edge7" class="edge"><title>Node1&#45;&gt;Node7</title>
<path fill="none" stroke="midnightblue" d="M253.701,-55.4504C274.515,-46.6951 308.011,-32.6055 331.953,-22.5346"/>
<polygon fill="midnightblue" stroke="midnightblue" points="333.387,-25.7289 341.247,-18.6253 330.672,-19.2765 333.387,-25.7289"/>
</g>
<!-- Node8 -->
<g id="node9" class="node"><title>Node8</title>
<polygon fill="white" stroke="#bfbfbf" points="404.443,-0.5 404.443,-18.5 452.685,-18.5 452.685,-0.5 404.443,-0.5"/>
<text text-anchor="middle" x="428.564" y="-6.5" font-family="Helvetica,sans-Serif" font-size="10.00">cstddef</text>
</g>
<!-- Node1&#45;&gt;Node8 -->
<g id="edge8" class="edge"><title>Node1&#45;&gt;Node8</title>
<path fill="none" stroke="midnightblue" d="M264.028,-55.4504C299.102,-45.8685 357.562,-29.8973 394.532,-19.7973"/>
<polygon fill="midnightblue" stroke="midnightblue" points="395.628,-23.1262 404.352,-17.1145 393.783,-16.3737 395.628,-23.1262"/>
</g>
<!-- Node9&#45;&gt;Node1 -->
<g id="edge10" class="edge"><title>Node9&#45;&gt;Node1</title>
<path fill="none" stroke="midnightblue" d="M400.596,-165.221C398.582,-151.733 392.693,-125.017 376.564,-110 349.978,-85.2469 309.76,-74.2605 278.904,-69.3855"/>
<polygon fill="midnightblue" stroke="midnightblue" points="279.225,-65.8961 268.832,-67.9555 278.241,-72.8266 279.225,-65.8961"/>
</g>
<!-- Node10 -->
<g id="node11" class="node"><title>Node10</title>
<g id="a_node11"><a xlink:href="../../d5/de4/_complexity_8h.html" target="_top" xlink:title="fl/Complexity.h">
<polygon fill="white" stroke="black" points="228.145,-110.5 228.145,-128.5 308.983,-128.5 308.983,-110.5 228.145,-110.5"/>
<text text-anchor="middle" x="268.564" y="-116.5" font-family="Helvetica,sans-Serif" font-size="10.00">fl/Complexity.h</text>
</a>
</g>
</g>
<!-- Node9&#45;&gt;Node10 -->
<g id="edge11" class="edge"><title>Node9&#45;&gt;Node10</title>
<path fill="none" stroke="midnightblue" d="M381.364,-165.45C359.296,-156.656 323.722,-142.48 298.428,-132.401"/>
<polygon fill="midnightblue" stroke="midnightblue" points="299.539,-129.076 288.954,-128.625 296.948,-135.579 299.539,-129.076"/>
</g>
<!-- Node11 -->
<g id="node12" class="node"><title>Node11</title>
<polygon fill="white" stroke="#bfbfbf" points="365.948,-55.5 365.948,-73.5 409.18,-73.5 409.18,-55.5 365.948,-55.5"/>
<text text-anchor="middle" x="387.564" y="-61.5" font-family="Helvetica,sans-Serif" font-size="10.00">vector</text>
</g>
<!-- Node9&#45;&gt;Node11 -->
<g id="edge15" class="edge"><title>Node9&#45;&gt;Node11</title>
<path fill="none" stroke="midnightblue" d="M404.464,-165.183C408.311,-152.957 414.115,-129.476 409.564,-110 407.305,-100.335 402.626,-90.3591 398.161,-82.3088"/>
<polygon fill="midnightblue" stroke="midnightblue" points="401.107,-80.4141 392.999,-73.5942 395.085,-83.9818 401.107,-80.4141"/>
</g>
<!-- Node9&#45;&gt;Node12 -->
<g id="edge14" class="edge"><title>Node9&#45;&gt;Node12</title>
<path fill="none" stroke="midnightblue" d="M393.126,-165.219C385.075,-157.316 372.755,-145.224 362.955,-135.606"/>
<polygon fill="midnightblue" stroke="midnightblue" points="365.354,-133.056 355.765,-128.55 360.451,-138.052 365.354,-133.056"/>
</g>
<!-- Node10&#45;&gt;Node1 -->
<g id="edge12" class="edge"><title>Node10&#45;&gt;Node1</title>
<path fill="none" stroke="midnightblue" d="M263.251,-110.219C258.433,-102.707 251.186,-91.411 245.182,-82.0515"/>
<polygon fill="midnightblue" stroke="midnightblue" points="248.073,-80.0767 239.728,-73.5496 242.181,-83.8564 248.073,-80.0767"/>
</g>
<!-- Node10&#45;&gt;Node11 -->
<g id="edge13" class="edge"><title>Node10&#45;&gt;Node11</title>
<path fill="none" stroke="midnightblue" d="M286.638,-110.45C306.121,-101.773 337.369,-87.8556 359.938,-77.8041"/>
<polygon fill="midnightblue" stroke="midnightblue" points="361.609,-80.8911 369.32,-73.6253 358.761,-74.4966 361.609,-80.8911"/>
</g>
<!-- Node13&#45;&gt;Node1 -->
<g id="edge17" class="edge"><title>Node13&#45;&gt;Node1</title>
<path fill="none" stroke="midnightblue" d="M236.129,-165.406C230.707,-156.804 222.741,-142.595 219.564,-129 215.939,-113.488 220.823,-95.8573 225.961,-83.1159"/>
<polygon fill="midnightblue" stroke="midnightblue" points="229.276,-84.2753 230.156,-73.717 222.884,-81.4222 229.276,-84.2753"/>
</g>
<!-- Node13&#45;&gt;Node10 -->
<g id="edge18" class="edge"><title>Node13&#45;&gt;Node10</title>
<path fill="none" stroke="midnightblue" d="M245.783,-165.219C249.53,-157.864 255.125,-146.88 259.833,-137.639"/>
<polygon fill="midnightblue" stroke="midnightblue" points="263.043,-139.049 264.463,-128.55 256.805,-135.871 263.043,-139.049"/>
</g>
<!-- Node13&#45;&gt;Node12 -->
<g id="edge19" class="edge"><title>Node13&#45;&gt;Node12</title>
<path fill="none" stroke="midnightblue" d="M257.663,-165.45C274.785,-156.89 302.106,-143.229 322.14,-133.212"/>
<polygon fill="midnightblue" stroke="midnightblue" points="323.934,-136.228 331.313,-128.625 320.804,-129.967 323.934,-136.228"/>
</g>
</g>
</svg>
