<?xml version="1.0" encoding="UTF-8" standalone="no"?>
<!DOCTYPE svg PUBLIC "-//W3C//DTD SVG 1.1//EN"
 "http://www.w3.org/Graphics/SVG/1.1/DTD/svg11.dtd">
<!-- Generated by graphviz version 2.38.0 (20140413.2041)
 -->
<!-- Title: fl::TNorm Pages: 1 -->
<svg width="107pt" height="675pt"
 viewBox="0.00 0.00 107.10 675.00" xmlns="http://www.w3.org/2000/svg" xmlns:xlink="http://www.w3.org/1999/xlink">
<g id="graph0" class="graph" transform="scale(1 1) rotate(0) translate(4 671)">
<title>fl::TNorm</title>
<polygon fill="white" stroke="none" points="-4,4 -4,-671 103.101,-671 103.101,4 -4,4"/>
<!-- Node0 -->
<g id="node1" class="node"><title>Node0</title>
<polygon fill="#bfbfbf" stroke="black" points="15.7153,-451.5 15.7153,-525.5 83.3853,-525.5 83.3853,-451.5 15.7153,-451.5"/>
<text text-anchor="middle" x="49.5503" y="-513.5" font-family="Helvetica,sans-Serif" font-size="10.00">fl::TNorm</text>
<polyline fill="none" stroke="black" points="15.7153,-507.5 83.3853,-507.5 "/>
<text text-anchor="middle" x="49.5503" y="-495.5" font-family="Helvetica,sans-Serif" font-size="10.00"> </text>
<polyline fill="none" stroke="black" points="15.7153,-489.5 83.3853,-489.5 "/>
<text text-anchor="start" x="23.7153" y="-477.5" font-family="Helvetica,sans-Serif" font-size="10.00">+ TNorm()</text>
<text text-anchor="start" x="23.7153" y="-467.5" font-family="Helvetica,sans-Serif" font-size="10.00">+ ~TNorm()</text>
<text text-anchor="start" x="23.7153" y="-457.5" font-family="Helvetica,sans-Serif" font-size="10.00">+ clone()</text>
</g>
<!-- Node2 -->
<g id="node3" class="node"><title>Node2</title>
<g id="a_node3"><a xlink:href="../../d0/d96/classfl_1_1_f_l___i_f_i_n_a_l.html" target="_top" xlink:title="The Extremely class is a Hedge located fifth in the ordered set (Not, Seldom, Somewhat, Very, Extremely, Any). ">
<polygon fill="white" stroke="black" points="0,-0.5 0,-414.5 99.1006,-414.5 99.1006,-0.5 0,-0.5"/>
<text text-anchor="middle" x="49.5503" y="-402.5" font-family="Helvetica,sans-Serif" font-size="10.00">fl::FL_IFINAL</text>
<polyline fill="none" stroke="black" points="0,-396.5 99.1006,-396.5 "/>
<text text-anchor="start" x="8" y="-384.5" font-family="Helvetica,sans-Serif" font-size="10.00">+ variable</text>
<text text-anchor="start" x="8" y="-374.5" font-family="Helvetica,sans-Serif" font-size="10.00">+ hedges</text>
<text text-anchor="start" x="8" y="-364.5" font-family="Helvetica,sans-Serif" font-size="10.00">+ term</text>
<text text-anchor="start" x="8" y="-354.5" font-family="Helvetica,sans-Serif" font-size="10.00">+ name</text>
<text text-anchor="start" x="8" y="-344.5" font-family="Helvetica,sans-Serif" font-size="10.00">+ left</text>
<text text-anchor="start" x="8" y="-334.5" font-family="Helvetica,sans-Serif" font-size="10.00">+ right</text>
<polyline fill="none" stroke="black" points="0,-328.5 99.1006,-328.5 "/>
<text text-anchor="start" x="8" y="-316.5" font-family="Helvetica,sans-Serif" font-size="10.00">+ name()</text>
<text text-anchor="start" x="8" y="-306.5" font-family="Helvetica,sans-Serif" font-size="10.00">+ complexity()</text>
<text text-anchor="start" x="8" y="-296.5" font-family="Helvetica,sans-Serif" font-size="10.00">+ hedge()</text>
<text text-anchor="start" x="8" y="-286.5" font-family="Helvetica,sans-Serif" font-size="10.00">+ clone()</text>
<text text-anchor="start" x="8" y="-276.5" font-family="Helvetica,sans-Serif" font-size="10.00">+ HedgeFunction()</text>
<text text-anchor="start" x="8" y="-266.5" font-family="Helvetica,sans-Serif" font-size="10.00">+ name()</text>
<text text-anchor="start" x="8" y="-256.5" font-family="Helvetica,sans-Serif" font-size="10.00">+ function()</text>
<text text-anchor="start" x="8" y="-246.5" font-family="Helvetica,sans-Serif" font-size="10.00">+ setFormula()</text>
<text text-anchor="start" x="8" y="-236.5" font-family="Helvetica,sans-Serif" font-size="10.00">+ getFormula()</text>
<text text-anchor="start" x="8" y="-226.5" font-family="Helvetica,sans-Serif" font-size="10.00">+ complexity()</text>
<text text-anchor="start" x="8" y="-216.5" font-family="Helvetica,sans-Serif" font-size="10.00">+ hedge()</text>
<text text-anchor="start" x="8" y="-206.5" font-family="Helvetica,sans-Serif" font-size="10.00">+ clone()</text>
<text text-anchor="start" x="8" y="-196.5" font-family="Helvetica,sans-Serif" font-size="10.00">+ name()</text>
<text text-anchor="start" x="8" y="-186.5" font-family="Helvetica,sans-Serif" font-size="10.00">+ complexity()</text>
<text text-anchor="start" x="8" y="-176.5" font-family="Helvetica,sans-Serif" font-size="10.00">+ hedge()</text>
<text text-anchor="start" x="8" y="-166.5" font-family="Helvetica,sans-Serif" font-size="10.00">and 101 more...</text>
<text text-anchor="start" x="8" y="-156.5" font-family="Helvetica,sans-Serif" font-size="10.00">+ constructor()</text>
<text text-anchor="start" x="8" y="-146.5" font-family="Helvetica,sans-Serif" font-size="10.00">+ constructor()</text>
<text text-anchor="start" x="8" y="-136.5" font-family="Helvetica,sans-Serif" font-size="10.00">+ constructor()</text>
<text text-anchor="start" x="8" y="-126.5" font-family="Helvetica,sans-Serif" font-size="10.00">+ constructor()</text>
<text text-anchor="start" x="8" y="-116.5" font-family="Helvetica,sans-Serif" font-size="10.00">+ constructor()</text>
<text text-anchor="start" x="8" y="-106.5" font-family="Helvetica,sans-Serif" font-size="10.00">+ constructor()</text>
<text text-anchor="start" x="8" y="-96.5" font-family="Helvetica,sans-Serif" font-size="10.00">+ constructor()</text>
<text text-anchor="start" x="8" y="-86.5" font-family="Helvetica,sans-Serif" font-size="10.00">+ constructor()</text>
<text text-anchor="start" x="8" y="-76.5" font-family="Helvetica,sans-Serif" font-size="10.00">+ constructor()</text>
<text text-anchor="start" x="8" y="-66.5" font-family="Helvetica,sans-Serif" font-size="10.00">+ constructor()</text>
<text text-anchor="start" x="8" y="-56.5" font-family="Helvetica,sans-Serif" font-size="10.00">+ constructor()</text>
<text text-anchor="start" x="8" y="-46.5" font-family="Helvetica,sans-Serif" font-size="10.00">+ constructor()</text>
<text text-anchor="start" x="8" y="-36.5" font-family="Helvetica,sans-Serif" font-size="10.00">+ constructor()</text>
<text text-anchor="start" x="8" y="-26.5" font-family="Helvetica,sans-Serif" font-size="10.00">+ constructor()</text>
<text text-anchor="start" x="8" y="-16.5" font-family="Helvetica,sans-Serif" font-size="10.00">+ constructor()</text>
<text text-anchor="start" x="8" y="-6.5" font-family="Helvetica,sans-Serif" font-size="10.00">and 9 more...</text>
</a>
</g>
</g>
<!-- Node0&#45;&gt;Node2 -->
<g id="edge2" class="edge"><title>Node0&#45;&gt;Node2</title>
<path fill="none" stroke="midnightblue" d="M13.4545,-441.668C11.0847,-433.417 9.09242,-424.354 7.47781,-414.737"/>
<polygon fill="none" stroke="midnightblue" points="10.1576,-442.849 16.5326,-451.312 16.8262,-440.721 10.1576,-442.849"/>
</g>
<!-- Node0&#45;&gt;Node2 -->
<g id="edge3" class="edge"><title>Node0&#45;&gt;Node2</title>
<path fill="none" stroke="midnightblue" d="M23.7119,-441.396C22.0436,-433.218 20.6391,-424.248 19.4985,-414.737"/>
<polygon fill="none" stroke="midnightblue" points="20.3364,-442.336 25.9662,-451.312 27.1622,-440.785 20.3364,-442.336"/>
</g>
<!-- Node0&#45;&gt;Node2 -->
<g id="edge4" class="edge"><title>Node0&#45;&gt;Node2</title>
<path fill="none" stroke="midnightblue" d="M34.0473,-441.396C33.0463,-433.218 32.2036,-424.248 31.5192,-414.737"/>
<polygon fill="none" stroke="midnightblue" points="30.5804,-441.876 35.3998,-451.312 37.5161,-440.93 30.5804,-441.876"/>
</g>
<!-- Node0&#45;&gt;Node2 -->
<g id="edge5" class="edge"><title>Node0&#45;&gt;Node2</title>
<path fill="none" stroke="midnightblue" d="M44.3715,-441.123C44.0427,-433.018 43.7655,-424.142 43.5399,-414.737"/>
<polygon fill="none" stroke="midnightblue" points="40.884,-441.48 44.8335,-451.312 47.8769,-441.163 40.884,-441.48"/>
</g>
<!-- Node0&#45;&gt;Node2 -->
<g id="edge6" class="edge"><title>Node0&#45;&gt;Node2</title>
<path fill="none" stroke="midnightblue" d="M54.7291,-441.123C55.0579,-433.018 55.3351,-424.142 55.5606,-414.737"/>
<polygon fill="none" stroke="midnightblue" points="51.2237,-441.163 54.2671,-451.312 58.2165,-441.48 51.2237,-441.163"/>
</g>
<!-- Node0&#45;&gt;Node2 -->
<g id="edge7" class="edge"><title>Node0&#45;&gt;Node2</title>
<path fill="none" stroke="midnightblue" d="M65.0533,-441.396C66.0543,-433.218 66.897,-424.248 67.5814,-414.737"/>
<polygon fill="none" stroke="midnightblue" points="61.5845,-440.93 63.7007,-451.312 68.5202,-441.876 61.5845,-440.93"/>
</g>
<!-- Node0&#45;&gt;Node2 -->
<g id="edge8" class="edge"><title>Node0&#45;&gt;Node2</title>
<path fill="none" stroke="midnightblue" d="M75.3887,-441.396C77.057,-433.218 78.4615,-424.248 79.6021,-414.737"/>
<polygon fill="none" stroke="midnightblue" points="71.9384,-440.785 73.1344,-451.312 78.7642,-442.336 71.9384,-440.785"/>
</g>
<!-- Node0&#45;&gt;Node2 -->
<g id="edge9" class="edge"><title>Node0&#45;&gt;Node2</title>
<path fill="none" stroke="midnightblue" d="M85.646,-441.668C88.0159,-433.417 90.0082,-424.354 91.6228,-414.737"/>
<polygon fill="none" stroke="midnightblue" points="82.2744,-440.721 82.568,-451.312 88.943,-442.849 82.2744,-440.721"/>
</g>
<!-- Node1 -->
<g id="node2" class="node"><title>Node1</title>
<g id="a_node2"><a xlink:href="../../d5/d22/classfl_1_1_norm.html" target="_top" xlink:title="The Norm class is the abstract class for norms. ">
<polygon fill="white" stroke="black" points="9.18213,-562.5 9.18213,-666.5 89.9185,-666.5 89.9185,-562.5 9.18213,-562.5"/>
<text text-anchor="middle" x="49.5503" y="-654.5" font-family="Helvetica,sans-Serif" font-size="10.00">fl::Norm</text>
<polyline fill="none" stroke="black" points="9.18213,-648.5 89.9185,-648.5 "/>
<text text-anchor="middle" x="49.5503" y="-636.5" font-family="Helvetica,sans-Serif" font-size="10.00"> </text>
<polyline fill="none" stroke="black" points="9.18213,-630.5 89.9185,-630.5 "/>
<text text-anchor="start" x="17.1821" y="-618.5" font-family="Helvetica,sans-Serif" font-size="10.00">+ Norm()</text>
<text text-anchor="start" x="17.1821" y="-608.5" font-family="Helvetica,sans-Serif" font-size="10.00">+ ~Norm()</text>
<text text-anchor="start" x="17.1821" y="-598.5" font-family="Helvetica,sans-Serif" font-size="10.00">+ className()</text>
<text text-anchor="start" x="17.1821" y="-588.5" font-family="Helvetica,sans-Serif" font-size="10.00">+ complexity()</text>
<text text-anchor="start" x="17.1821" y="-578.5" font-family="Helvetica,sans-Serif" font-size="10.00">+ compute()</text>
<text text-anchor="start" x="17.1821" y="-568.5" font-family="Helvetica,sans-Serif" font-size="10.00">+ clone()</text>
</a>
</g>
</g>
<!-- Node1&#45;&gt;Node0 -->
<g id="edge1" class="edge"><title>Node1&#45;&gt;Node0</title>
<path fill="none" stroke="midnightblue" d="M49.5503,-552.189C49.5503,-543.146 49.5503,-534.084 49.5503,-525.772"/>
<polygon fill="none" stroke="midnightblue" points="46.0504,-552.349 49.5503,-562.349 53.0504,-552.349 46.0504,-552.349"/>
</g>
</g>
</svg>
