<?xml version="1.0" encoding="UTF-8" standalone="no"?>
<!DOCTYPE svg PUBLIC "-//W3C//DTD SVG 1.1//EN"
 "http://www.w3.org/Graphics/SVG/1.1/DTD/svg11.dtd">
<!-- Generated by graphviz version 2.38.0 (20140413.2041)
 -->
<!-- Title: fuzzylite/fl/term/Discrete.h Pages: 1 -->
<svg width="1020pt" height="412pt"
 viewBox="0.00 0.00 1019.80 412.00" xmlns="http://www.w3.org/2000/svg" xmlns:xlink="http://www.w3.org/1999/xlink">
<g id="graph0" class="graph" transform="scale(1 1) rotate(0) translate(4 408)">
<title>fuzzylite/fl/term/Discrete.h</title>
<polygon fill="white" stroke="none" points="-4,4 -4,-408 1015.8,-408 1015.8,4 -4,4"/>
<!-- Node0 -->
<g id="node1" class="node"><title>Node0</title>
<polygon fill="#bfbfbf" stroke="black" points="823.171,-385.5 823.171,-403.5 953.643,-403.5 953.643,-385.5 823.171,-385.5"/>
<text text-anchor="middle" x="888.407" y="-391.5" font-family="Helvetica,sans-Serif" font-size="10.00">fuzzylite/fl/term/Discrete.h</text>
</g>
<!-- Node1 -->
<g id="node2" class="node"><title>Node1</title>
<g id="a_node2"><a xlink:href="../../d8/d11/_term_8h.html" target="_top" xlink:title="fl/term/Term.h">
<polygon fill="white" stroke="black" points="792.848,-330.5 792.848,-348.5 869.966,-348.5 869.966,-330.5 792.848,-330.5"/>
<text text-anchor="middle" x="831.407" y="-336.5" font-family="Helvetica,sans-Serif" font-size="10.00">fl/term/Term.h</text>
</a>
</g>
</g>
<!-- Node0&#45;&gt;Node1 -->
<g id="edge1" class="edge"><title>Node0&#45;&gt;Node1</title>
<path fill="none" stroke="midnightblue" d="M879.501,-385.219C871.002,-377.316 857.997,-365.224 847.653,-355.606"/>
<polygon fill="midnightblue" stroke="midnightblue" points="849.771,-352.796 840.064,-348.55 845.004,-357.922 849.771,-352.796"/>
</g>
<!-- Node14 -->
<g id="node15" class="node"><title>Node14</title>
<polygon fill="white" stroke="#bfbfbf" points="771.791,-55.5 771.791,-73.5 815.023,-73.5 815.023,-55.5 771.791,-55.5"/>
<text text-anchor="middle" x="793.407" y="-61.5" font-family="Helvetica,sans-Serif" font-size="10.00">vector</text>
</g>
<!-- Node0&#45;&gt;Node14 -->
<g id="edge43" class="edge"><title>Node0&#45;&gt;Node14</title>
<path fill="none" stroke="midnightblue" d="M896.332,-385.331C911.994,-368.286 945.407,-327.054 945.407,-285.5 945.407,-285.5 945.407,-285.5 945.407,-228.5 945.407,-155.502 862.858,-101.572 819.428,-78.2499"/>
<polygon fill="midnightblue" stroke="midnightblue" points="821.032,-75.1393 810.548,-73.6151 817.793,-81.3449 821.032,-75.1393"/>
</g>
<!-- Node23 -->
<g id="node24" class="node"><title>Node23</title>
<g id="a_node24"><a xlink:href="../../d9/d58/_integral_defuzzifier_8h.html" target="_top" xlink:title="fl/defuzzifier/IntegralDefuzzifier.h">
<polygon fill="white" stroke="black" points="67.1485,-275.5 67.1485,-293.5 227.665,-293.5 227.665,-275.5 67.1485,-275.5"/>
<text text-anchor="middle" x="147.407" y="-281.5" font-family="Helvetica,sans-Serif" font-size="10.00">fl/defuzzifier/IntegralDefuzzifier.h</text>
</a>
</g>
</g>
<!-- Node0&#45;&gt;Node23 -->
<g id="edge41" class="edge"><title>Node0&#45;&gt;Node23</title>
<path fill="none" stroke="midnightblue" d="M833.317,-385.471C699.187,-365.921 356.142,-315.923 212.358,-294.967"/>
<polygon fill="midnightblue" stroke="midnightblue" points="212.756,-291.488 202.356,-293.509 211.747,-298.415 212.756,-291.488"/>
</g>
<!-- Node24 -->
<g id="node25" class="node"><title>Node24</title>
<polygon fill="white" stroke="#bfbfbf" points="973.015,-330.5 973.015,-348.5 1011.8,-348.5 1011.8,-330.5 973.015,-330.5"/>
<text text-anchor="middle" x="992.407" y="-336.5" font-family="Helvetica,sans-Serif" font-size="10.00">utility</text>
</g>
<!-- Node0&#45;&gt;Node24 -->
<g id="edge44" class="edge"><title>Node0&#45;&gt;Node24</title>
<path fill="none" stroke="midnightblue" d="M904.202,-385.45C921.001,-376.89 947.806,-363.229 967.463,-353.212"/>
<polygon fill="midnightblue" stroke="midnightblue" points="969.142,-356.284 976.463,-348.625 965.964,-350.047 969.142,-356.284"/>
</g>
<!-- Node2 -->
<g id="node3" class="node"><title>Node2</title>
<g id="a_node3"><a xlink:href="../../de/d53/fuzzylite_8h.html" target="_top" xlink:title="fl/fuzzylite.h">
<polygon fill="white" stroke="black" points="333.286,-55.5 333.286,-73.5 401.527,-73.5 401.527,-55.5 333.286,-55.5"/>
<text text-anchor="middle" x="367.407" y="-61.5" font-family="Helvetica,sans-Serif" font-size="10.00">fl/fuzzylite.h</text>
</a>
</g>
</g>
<!-- Node1&#45;&gt;Node2 -->
<g id="edge2" class="edge"><title>Node1&#45;&gt;Node2</title>
<path fill="none" stroke="midnightblue" d="M792.663,-337.73C639.569,-334.501 83.8559,-320.956 58.4068,-294 21.653,-255.069 -114.688,-314.202 224.407,-110 254.891,-91.6422 293.653,-80.1944 323.128,-73.5151"/>
<polygon fill="midnightblue" stroke="midnightblue" points="324.105,-76.8848 333.138,-71.3479 322.624,-70.0433 324.105,-76.8848"/>
</g>
<!-- Node4 -->
<g id="node5" class="node"><title>Node4</title>
<polygon fill="white" stroke="#bfbfbf" points="736.791,-0.5 736.791,-18.5 780.023,-18.5 780.023,-0.5 736.791,-0.5"/>
<text text-anchor="middle" x="758.407" y="-6.5" font-family="Helvetica,sans-Serif" font-size="10.00">cmath</text>
</g>
<!-- Node1&#45;&gt;Node4 -->
<g id="edge38" class="edge"><title>Node1&#45;&gt;Node4</title>
<path fill="none" stroke="midnightblue" d="M841.521,-330.432C851.023,-322.275 864.876,-308.791 872.407,-294 898.515,-242.722 893.39,-221.669 883.407,-165 873.781,-110.364 864.095,-93.7633 824.407,-55 811.917,-42.8009 795.681,-31.8047 782.438,-23.7951"/>
<polygon fill="midnightblue" stroke="midnightblue" points="783.818,-20.5478 773.42,-18.5163 780.282,-26.5888 783.818,-20.5478"/>
</g>
<!-- Node10 -->
<g id="node11" class="node"><title>Node10</title>
<g id="a_node11"><a xlink:href="../../d6/dd6/_operation_8h.html" target="_top" xlink:title="fl/Operation.h">
<polygon fill="white" stroke="black" points="457.39,-275.5 457.39,-293.5 533.424,-293.5 533.424,-275.5 457.39,-275.5"/>
<text text-anchor="middle" x="495.407" y="-281.5" font-family="Helvetica,sans-Serif" font-size="10.00">fl/Operation.h</text>
</a>
</g>
</g>
<!-- Node1&#45;&gt;Node10 -->
<g id="edge10" class="edge"><title>Node1&#45;&gt;Node10</title>
<path fill="none" stroke="midnightblue" d="M792.535,-332.368C730.837,-322.636 610.627,-303.675 543.564,-293.096"/>
<polygon fill="midnightblue" stroke="midnightblue" points="544.095,-289.637 533.671,-291.536 543.004,-296.551 544.095,-289.637"/>
</g>
<!-- Node13 -->
<g id="node14" class="node"><title>Node13</title>
<polygon fill="white" stroke="#bfbfbf" points="351.18,-110.5 351.18,-128.5 391.633,-128.5 391.633,-110.5 351.18,-110.5"/>
<text text-anchor="middle" x="371.407" y="-116.5" font-family="Helvetica,sans-Serif" font-size="10.00">string</text>
</g>
<!-- Node1&#45;&gt;Node13 -->
<g id="edge39" class="edge"><title>Node1&#45;&gt;Node13</title>
<path fill="none" stroke="midnightblue" d="M792.822,-336.413C676.756,-329.459 333.408,-303.748 245.407,-239 216.102,-217.439 188.373,-193.951 210.407,-165 226.153,-144.312 298.824,-130.774 340.954,-124.518"/>
<polygon fill="midnightblue" stroke="midnightblue" points="341.551,-127.969 350.953,-123.085 340.558,-121.04 341.551,-127.969"/>
</g>
<!-- Node1&#45;&gt;Node14 -->
<g id="edge40" class="edge"><title>Node1&#45;&gt;Node14</title>
<path fill="none" stroke="midnightblue" d="M836.375,-330.441C846.675,-312.939 869.407,-269.856 869.407,-230.5 869.407,-230.5 869.407,-230.5 869.407,-173.5 869.407,-134.06 835.09,-98.8584 812.576,-80.0079"/>
<polygon fill="midnightblue" stroke="midnightblue" points="814.607,-77.1498 804.621,-73.6091 810.219,-82.6042 814.607,-77.1498"/>
</g>
<!-- Node16 -->
<g id="node17" class="node"><title>Node16</title>
<g id="a_node17"><a xlink:href="../../d5/de4/_complexity_8h.html" target="_top" xlink:title="fl/Complexity.h">
<polygon fill="white" stroke="black" points="446.987,-110.5 446.987,-128.5 527.826,-128.5 527.826,-110.5 446.987,-110.5"/>
<text text-anchor="middle" x="487.407" y="-116.5" font-family="Helvetica,sans-Serif" font-size="10.00">fl/Complexity.h</text>
</a>
</g>
</g>
<!-- Node1&#45;&gt;Node16 -->
<g id="edge37" class="edge"><title>Node1&#45;&gt;Node16</title>
<path fill="none" stroke="midnightblue" d="M825.361,-330.237C809.668,-309.279 765.491,-253.359 717.407,-220 655.5,-177.052 572.095,-146.676 524.609,-131.518"/>
<polygon fill="midnightblue" stroke="midnightblue" points="525.631,-128.171 515.042,-128.515 523.535,-134.849 525.631,-128.171"/>
</g>
<!-- Node3 -->
<g id="node4" class="node"><title>Node3</title>
<polygon fill="white" stroke="#bfbfbf" points="114.843,-0.5 114.843,-18.5 171.971,-18.5 171.971,-0.5 114.843,-0.5"/>
<text text-anchor="middle" x="143.407" y="-6.5" font-family="Helvetica,sans-Serif" font-size="10.00">algorithm</text>
</g>
<!-- Node2&#45;&gt;Node3 -->
<g id="edge3" class="edge"><title>Node2&#45;&gt;Node3</title>
<path fill="none" stroke="midnightblue" d="M333.386,-55.4504C292.596,-45.7992 224.411,-29.6662 181.78,-19.5794"/>
<polygon fill="midnightblue" stroke="midnightblue" points="182.584,-16.173 172.047,-17.2764 180.972,-22.985 182.584,-16.173"/>
</g>
<!-- Node2&#45;&gt;Node4 -->
<g id="edge4" class="edge"><title>Node2&#45;&gt;Node4</title>
<path fill="none" stroke="midnightblue" d="M401.763,-58.8431C476.716,-48.6831 654.005,-24.6516 726.587,-14.8132"/>
<polygon fill="midnightblue" stroke="midnightblue" points="727.072,-18.2796 736.511,-13.468 726.131,-11.343 727.072,-18.2796"/>
</g>
<!-- Node5 -->
<g id="node6" class="node"><title>Node5</title>
<polygon fill="white" stroke="#bfbfbf" points="409.234,-0.5 409.234,-18.5 463.579,-18.5 463.579,-0.5 409.234,-0.5"/>
<text text-anchor="middle" x="436.407" y="-6.5" font-family="Helvetica,sans-Serif" font-size="10.00">iostream</text>
</g>
<!-- Node2&#45;&gt;Node5 -->
<g id="edge5" class="edge"><title>Node2&#45;&gt;Node5</title>
<path fill="none" stroke="midnightblue" d="M377.886,-55.4504C388.424,-47.3566 404.896,-34.7042 417.683,-24.8822"/>
<polygon fill="midnightblue" stroke="midnightblue" points="420.03,-27.4926 425.829,-18.6253 415.766,-21.9412 420.03,-27.4926"/>
</g>
<!-- Node6 -->
<g id="node7" class="node"><title>Node6</title>
<polygon fill="white" stroke="#bfbfbf" points="481.626,-0.5 481.626,-18.5 533.188,-18.5 533.188,-0.5 481.626,-0.5"/>
<text text-anchor="middle" x="507.407" y="-6.5" font-family="Helvetica,sans-Serif" font-size="10.00">sstream</text>
</g>
<!-- Node2&#45;&gt;Node6 -->
<g id="edge6" class="edge"><title>Node2&#45;&gt;Node6</title>
<path fill="none" stroke="midnightblue" d="M388.67,-55.4504C412.003,-46.6173 449.678,-32.3546 476.324,-22.267"/>
<polygon fill="midnightblue" stroke="midnightblue" points="477.831,-25.4392 485.944,-18.6253 475.352,-18.8926 477.831,-25.4392"/>
</g>
<!-- Node7 -->
<g id="node8" class="node"><title>Node7</title>
<polygon fill="white" stroke="#bfbfbf" points="217.02,-0.5 217.02,-18.5 255.794,-18.5 255.794,-0.5 217.02,-0.5"/>
<text text-anchor="middle" x="236.407" y="-6.5" font-family="Helvetica,sans-Serif" font-size="10.00">limits</text>
</g>
<!-- Node2&#45;&gt;Node7 -->
<g id="edge7" class="edge"><title>Node2&#45;&gt;Node7</title>
<path fill="none" stroke="midnightblue" d="M347.511,-55.4504C325.648,-46.6051 290.327,-32.3151 265.388,-22.2252"/>
<polygon fill="midnightblue" stroke="midnightblue" points="266.644,-18.9577 256.061,-18.4517 264.018,-25.4467 266.644,-18.9577"/>
</g>
<!-- Node8 -->
<g id="node9" class="node"><title>Node8</title>
<polygon fill="white" stroke="#bfbfbf" points="273.35,-0.5 273.35,-18.5 325.463,-18.5 325.463,-0.5 273.35,-0.5"/>
<text text-anchor="middle" x="299.407" y="-6.5" font-family="Helvetica,sans-Serif" font-size="10.00">memory</text>
</g>
<!-- Node2&#45;&gt;Node8 -->
<g id="edge8" class="edge"><title>Node2&#45;&gt;Node8</title>
<path fill="none" stroke="midnightblue" d="M357.079,-55.4504C346.695,-47.3566 330.461,-34.7042 317.859,-24.8822"/>
<polygon fill="midnightblue" stroke="midnightblue" points="319.871,-22.0122 309.832,-18.6253 315.567,-27.5333 319.871,-22.0122"/>
</g>
<!-- Node9 -->
<g id="node10" class="node"><title>Node9</title>
<polygon fill="white" stroke="#bfbfbf" points="343.286,-0.5 343.286,-18.5 391.527,-18.5 391.527,-0.5 343.286,-0.5"/>
<text text-anchor="middle" x="367.407" y="-6.5" font-family="Helvetica,sans-Serif" font-size="10.00">cstddef</text>
</g>
<!-- Node2&#45;&gt;Node9 -->
<g id="edge9" class="edge"><title>Node2&#45;&gt;Node9</title>
<path fill="none" stroke="midnightblue" d="M367.407,-55.2188C367.407,-48.1769 367.407,-37.8083 367.407,-28.8277"/>
<polygon fill="midnightblue" stroke="midnightblue" points="370.907,-28.5495 367.407,-18.5496 363.907,-28.5496 370.907,-28.5495"/>
</g>
<!-- Node10&#45;&gt;Node2 -->
<g id="edge11" class="edge"><title>Node10&#45;&gt;Node2</title>
<path fill="none" stroke="midnightblue" d="M457.194,-280.455C396.01,-274.968 279.472,-261.814 245.407,-239 221.333,-222.877 218.508,-211.819 210.407,-184 193.723,-126.708 272.962,-92.4179 324.948,-76.4217"/>
<polygon fill="midnightblue" stroke="midnightblue" points="326.033,-79.7509 334.627,-73.5556 324.045,-73.039 326.033,-79.7509"/>
</g>
<!-- Node10&#45;&gt;Node3 -->
<g id="edge33" class="edge"><title>Node10&#45;&gt;Node3</title>
<path fill="none" stroke="midnightblue" d="M457.231,-280.806C360.868,-272.962 115.407,-246.057 115.407,-175.5 115.407,-175.5 115.407,-175.5 115.407,-118.5 115.407,-85.8405 127.553,-49.3524 135.846,-28.2464"/>
<polygon fill="midnightblue" stroke="midnightblue" points="139.199,-29.2938 139.746,-18.7132 132.72,-26.643 139.199,-29.2938"/>
</g>
<!-- Node11 -->
<g id="node12" class="node"><title>Node11</title>
<g id="a_node12"><a xlink:href="../../df/d98/_exception_8h.html" target="_top" xlink:title="fl/Exception.h">
<polygon fill="white" stroke="black" points="689.39,-165.5 689.39,-183.5 765.424,-183.5 765.424,-165.5 689.39,-165.5"/>
<text text-anchor="middle" x="727.407" y="-171.5" font-family="Helvetica,sans-Serif" font-size="10.00">fl/Exception.h</text>
</a>
</g>
</g>
<!-- Node10&#45;&gt;Node11 -->
<g id="edge12" class="edge"><title>Node10&#45;&gt;Node11</title>
<path fill="none" stroke="midnightblue" d="M533.658,-281.003C590.326,-276.479 692.577,-264.886 717.407,-239 728.745,-227.18 730.37,-208.042 729.692,-193.861"/>
<polygon fill="midnightblue" stroke="midnightblue" points="733.168,-193.437 728.796,-183.787 726.195,-194.057 733.168,-193.437"/>
</g>
<!-- Node10&#45;&gt;Node13 -->
<g id="edge17" class="edge"><title>Node10&#45;&gt;Node13</title>
<path fill="none" stroke="midnightblue" d="M457.09,-280.962C402.734,-276.472 307.473,-265.023 286.407,-239 255.012,-200.217 327.185,-221.353 356.407,-184 366.44,-171.175 369.935,-152.731 371.071,-139.022"/>
<polygon fill="midnightblue" stroke="midnightblue" points="374.576,-139.005 371.562,-128.848 367.584,-138.667 374.576,-139.005"/>
</g>
<!-- Node10&#45;&gt;Node14 -->
<g id="edge18" class="edge"><title>Node10&#45;&gt;Node14</title>
<path fill="none" stroke="midnightblue" d="M533.593,-280.016C592.822,-274.026 703.456,-260.326 736.407,-239 788.526,-205.269 794.263,-121.634 794.079,-84.1701"/>
<polygon fill="midnightblue" stroke="midnightblue" points="797.57,-83.6757 793.863,-73.7505 790.571,-83.821 797.57,-83.6757"/>
</g>
<!-- Node15 -->
<g id="node16" class="node"><title>Node15</title>
<g id="a_node16"><a xlink:href="../../d7/d8a/_defuzzifier_8h.html" target="_top" xlink:title="fl/defuzzifier/Defuzzifier.h">
<polygon fill="white" stroke="black" points="219.826,-165.5 219.826,-183.5 346.988,-183.5 346.988,-165.5 219.826,-165.5"/>
<text text-anchor="middle" x="283.407" y="-171.5" font-family="Helvetica,sans-Serif" font-size="10.00">fl/defuzzifier/Defuzzifier.h</text>
</a>
</g>
</g>
<!-- Node10&#45;&gt;Node15 -->
<g id="edge19" class="edge"><title>Node10&#45;&gt;Node15</title>
<path fill="none" stroke="midnightblue" d="M457.219,-282.209C395.687,-279.237 278.9,-269.609 253.407,-239 241.405,-224.59 254.655,-204.572 267.146,-190.888"/>
<polygon fill="midnightblue" stroke="midnightblue" points="269.73,-193.251 274.215,-183.653 264.723,-188.359 269.73,-193.251"/>
</g>
<!-- Node17 -->
<g id="node18" class="node"><title>Node17</title>
<g id="a_node18"><a xlink:href="../../d7/d72/_norm_8h.html" target="_top" xlink:title="fl/norm/Norm.h">
<polygon fill="white" stroke="black" points="423.345,-165.5 423.345,-183.5 505.468,-183.5 505.468,-165.5 423.345,-165.5"/>
<text text-anchor="middle" x="464.407" y="-171.5" font-family="Helvetica,sans-Serif" font-size="10.00">fl/norm/Norm.h</text>
</a>
</g>
</g>
<!-- Node10&#45;&gt;Node17 -->
<g id="edge25" class="edge"><title>Node10&#45;&gt;Node17</title>
<path fill="none" stroke="midnightblue" d="M533.671,-283.839C604.315,-283.176 744.028,-275.114 698.407,-220 675.724,-192.597 577.84,-181.928 516.08,-177.877"/>
<polygon fill="midnightblue" stroke="midnightblue" points="515.942,-174.362 505.745,-177.239 515.51,-181.349 515.942,-174.362"/>
</g>
<!-- Node18 -->
<g id="node19" class="node"><title>Node18</title>
<g id="a_node19"><a xlink:href="../../de/d44/_s_norm_8h.html" target="_top" xlink:title="fl/norm/SNorm.h">
<polygon fill="white" stroke="black" points="295.01,-220.5 295.01,-238.5 383.803,-238.5 383.803,-220.5 295.01,-220.5"/>
<text text-anchor="middle" x="339.407" y="-226.5" font-family="Helvetica,sans-Serif" font-size="10.00">fl/norm/SNorm.h</text>
</a>
</g>
</g>
<!-- Node10&#45;&gt;Node18 -->
<g id="edge29" class="edge"><title>Node10&#45;&gt;Node18</title>
<path fill="none" stroke="midnightblue" d="M471.714,-275.45C445.294,-266.475 402.373,-251.892 372.612,-241.781"/>
<polygon fill="midnightblue" stroke="midnightblue" points="373.661,-238.441 363.067,-238.538 371.409,-245.069 373.661,-238.441"/>
</g>
<!-- Node19 -->
<g id="node20" class="node"><title>Node19</title>
<g id="a_node20"><a xlink:href="../../d0/d24/_t_norm_8h.html" target="_top" xlink:title="fl/norm/TNorm.h">
<polygon fill="white" stroke="black" points="601.291,-220.5 601.291,-238.5 689.523,-238.5 689.523,-220.5 601.291,-220.5"/>
<text text-anchor="middle" x="645.407" y="-226.5" font-family="Helvetica,sans-Serif" font-size="10.00">fl/norm/TNorm.h</text>
</a>
</g>
</g>
<!-- Node10&#45;&gt;Node19 -->
<g id="edge31" class="edge"><title>Node10&#45;&gt;Node19</title>
<path fill="none" stroke="midnightblue" d="M518.189,-275.45C543.408,-266.539 584.267,-252.103 612.856,-242.001"/>
<polygon fill="midnightblue" stroke="midnightblue" points="614.148,-245.257 622.411,-238.625 611.816,-238.657 614.148,-245.257"/>
</g>
<!-- Node20 -->
<g id="node21" class="node"><title>Node20</title>
<polygon fill="white" stroke="#bfbfbf" points="401.897,-220.5 401.897,-238.5 452.917,-238.5 452.917,-220.5 401.897,-220.5"/>
<text text-anchor="middle" x="427.407" y="-226.5" font-family="Helvetica,sans-Serif" font-size="10.00">iomanip</text>
</g>
<!-- Node10&#45;&gt;Node20 -->
<g id="edge34" class="edge"><title>Node10&#45;&gt;Node20</title>
<path fill="none" stroke="midnightblue" d="M485.079,-275.45C474.695,-267.357 458.461,-254.704 445.859,-244.882"/>
<polygon fill="midnightblue" stroke="midnightblue" points="447.871,-242.012 437.832,-238.625 443.567,-247.533 447.871,-242.012"/>
</g>
<!-- Node21 -->
<g id="node22" class="node"><title>Node21</title>
<polygon fill="white" stroke="#bfbfbf" points="471.01,-220.5 471.01,-238.5 519.803,-238.5 519.803,-220.5 471.01,-220.5"/>
<text text-anchor="middle" x="495.407" y="-226.5" font-family="Helvetica,sans-Serif" font-size="10.00">cstdarg</text>
</g>
<!-- Node10&#45;&gt;Node21 -->
<g id="edge35" class="edge"><title>Node10&#45;&gt;Node21</title>
<path fill="none" stroke="midnightblue" d="M495.407,-275.219C495.407,-268.177 495.407,-257.808 495.407,-248.828"/>
<polygon fill="midnightblue" stroke="midnightblue" points="498.907,-248.55 495.407,-238.55 491.907,-248.55 498.907,-248.55"/>
</g>
<!-- Node22 -->
<g id="node23" class="node"><title>Node22</title>
<polygon fill="white" stroke="#bfbfbf" points="537.956,-220.5 537.956,-238.5 582.858,-238.5 582.858,-220.5 537.956,-220.5"/>
<text text-anchor="middle" x="560.407" y="-226.5" font-family="Helvetica,sans-Serif" font-size="10.00">cctype</text>
</g>
<!-- Node10&#45;&gt;Node22 -->
<g id="edge36" class="edge"><title>Node10&#45;&gt;Node22</title>
<path fill="none" stroke="midnightblue" d="M505.279,-275.45C515.11,-267.434 530.425,-254.947 542.42,-245.166"/>
<polygon fill="midnightblue" stroke="midnightblue" points="544.903,-247.657 550.442,-238.625 540.48,-242.232 544.903,-247.657"/>
</g>
<!-- Node11&#45;&gt;Node2 -->
<g id="edge13" class="edge"><title>Node11&#45;&gt;Node2</title>
<path fill="none" stroke="midnightblue" d="M704.623,-165.403C668.964,-152.85 597.699,-128.238 536.407,-110 493.845,-97.3353 444.711,-84.6066 410.431,-76.0266"/>
<polygon fill="midnightblue" stroke="midnightblue" points="410.842,-72.5223 400.293,-73.5017 409.15,-79.3148 410.842,-72.5223"/>
</g>
<!-- Node12 -->
<g id="node13" class="node"><title>Node12</title>
<polygon fill="white" stroke="#bfbfbf" points="669.003,-110.5 669.003,-128.5 727.811,-128.5 727.811,-110.5 669.003,-110.5"/>
<text text-anchor="middle" x="698.407" y="-116.5" font-family="Helvetica,sans-Serif" font-size="10.00">exception</text>
</g>
<!-- Node11&#45;&gt;Node12 -->
<g id="edge14" class="edge"><title>Node11&#45;&gt;Node12</title>
<path fill="none" stroke="midnightblue" d="M722.876,-165.219C718.808,-157.786 712.713,-146.646 707.624,-137.345"/>
<polygon fill="midnightblue" stroke="midnightblue" points="710.682,-135.642 702.811,-128.55 704.541,-139.002 710.682,-135.642"/>
</g>
<!-- Node11&#45;&gt;Node13 -->
<g id="edge15" class="edge"><title>Node11&#45;&gt;Node13</title>
<path fill="none" stroke="midnightblue" d="M689.309,-167.828C618.285,-157.254 466.985,-134.729 402.05,-125.062"/>
<polygon fill="midnightblue" stroke="midnightblue" points="402.443,-121.582 392.037,-123.571 401.412,-128.506 402.443,-121.582"/>
</g>
<!-- Node11&#45;&gt;Node14 -->
<g id="edge16" class="edge"><title>Node11&#45;&gt;Node14</title>
<path fill="none" stroke="midnightblue" d="M732.368,-165.382C743.118,-147.791 768.751,-105.846 783.147,-82.2894"/>
<polygon fill="midnightblue" stroke="midnightblue" points="786.16,-84.0697 788.389,-73.7118 780.188,-80.4195 786.16,-84.0697"/>
</g>
<!-- Node15&#45;&gt;Node2 -->
<g id="edge20" class="edge"><title>Node15&#45;&gt;Node2</title>
<path fill="none" stroke="midnightblue" d="M289.72,-165.382C303.524,-147.635 336.608,-105.098 354.834,-81.6656"/>
<polygon fill="midnightblue" stroke="midnightblue" points="357.643,-83.7541 361.02,-73.7118 352.118,-79.4565 357.643,-83.7541"/>
</g>
<!-- Node15&#45;&gt;Node13 -->
<g id="edge24" class="edge"><title>Node15&#45;&gt;Node13</title>
<path fill="none" stroke="midnightblue" d="M296.772,-165.45C310.599,-157.123 332.437,-143.97 348.926,-134.039"/>
<polygon fill="midnightblue" stroke="midnightblue" points="351.155,-136.783 357.916,-128.625 347.544,-130.786 351.155,-136.783"/>
</g>
<!-- Node15&#45;&gt;Node16 -->
<g id="edge21" class="edge"><title>Node15&#45;&gt;Node16</title>
<path fill="none" stroke="midnightblue" d="M314.39,-165.45C349.69,-156.279 407.518,-141.256 446.498,-131.128"/>
<polygon fill="midnightblue" stroke="midnightblue" points="447.668,-134.44 456.467,-128.538 445.908,-127.665 447.668,-134.44"/>
</g>
<!-- Node16&#45;&gt;Node2 -->
<g id="edge22" class="edge"><title>Node16&#45;&gt;Node2</title>
<path fill="none" stroke="midnightblue" d="M469.181,-110.45C449.446,-101.734 417.74,-87.7306 394.96,-77.6691"/>
<polygon fill="midnightblue" stroke="midnightblue" points="396.365,-74.4639 385.804,-73.6253 393.537,-80.8672 396.365,-74.4639"/>
</g>
<!-- Node16&#45;&gt;Node14 -->
<g id="edge23" class="edge"><title>Node16&#45;&gt;Node14</title>
<path fill="none" stroke="midnightblue" d="M528.041,-111.462C589.745,-100.775 705.788,-80.6758 761.702,-70.9913"/>
<polygon fill="midnightblue" stroke="midnightblue" points="762.477,-74.4093 771.733,-69.2539 761.283,-67.512 762.477,-74.4093"/>
</g>
<!-- Node17&#45;&gt;Node2 -->
<g id="edge26" class="edge"><title>Node17&#45;&gt;Node2</title>
<path fill="none" stroke="midnightblue" d="M457.116,-165.382C441.106,-147.557 402.635,-104.723 381.649,-81.357"/>
<polygon fill="midnightblue" stroke="midnightblue" points="384.068,-78.8128 374.782,-73.7118 378.86,-83.4903 384.068,-78.8128"/>
</g>
<!-- Node17&#45;&gt;Node13 -->
<g id="edge28" class="edge"><title>Node17&#45;&gt;Node13</title>
<path fill="none" stroke="midnightblue" d="M450.282,-165.45C435.534,-157.045 412.159,-143.724 394.678,-133.762"/>
<polygon fill="midnightblue" stroke="midnightblue" points="396.086,-130.536 385.664,-128.625 392.62,-136.618 396.086,-130.536"/>
</g>
<!-- Node17&#45;&gt;Node16 -->
<g id="edge27" class="edge"><title>Node17&#45;&gt;Node16</title>
<path fill="none" stroke="midnightblue" d="M468.001,-165.219C471.158,-157.942 475.858,-147.113 479.841,-137.934"/>
<polygon fill="midnightblue" stroke="midnightblue" points="483.143,-139.116 483.914,-128.55 476.722,-136.33 483.143,-139.116"/>
</g>
<!-- Node18&#45;&gt;Node17 -->
<g id="edge30" class="edge"><title>Node18&#45;&gt;Node17</title>
<path fill="none" stroke="midnightblue" d="M358.392,-220.45C379.041,-211.695 412.271,-197.606 436.023,-187.535"/>
<polygon fill="midnightblue" stroke="midnightblue" points="437.403,-190.751 445.243,-183.625 434.67,-184.307 437.403,-190.751"/>
</g>
<!-- Node19&#45;&gt;Node17 -->
<g id="edge32" class="edge"><title>Node19&#45;&gt;Node17</title>
<path fill="none" stroke="midnightblue" d="M617.917,-220.45C586.863,-211.357 536.161,-196.511 501.59,-186.388"/>
<polygon fill="midnightblue" stroke="midnightblue" points="502.439,-182.99 491.858,-183.538 500.472,-189.708 502.439,-182.99"/>
</g>
<!-- Node23&#45;&gt;Node15 -->
<g id="edge42" class="edge"><title>Node23&#45;&gt;Node15</title>
<path fill="none" stroke="midnightblue" d="M155.37,-275.199C167.667,-262.587 192.279,-238.148 215.407,-220 229.926,-208.607 247.363,-197.238 260.944,-188.843"/>
<polygon fill="midnightblue" stroke="midnightblue" points="262.926,-191.734 269.647,-183.543 259.285,-185.755 262.926,-191.734"/>
</g>
</g>
</svg>
