<?xml version="1.0" encoding="UTF-8" standalone="no"?>
<!DOCTYPE svg PUBLIC "-//W3C//DTD SVG 1.1//EN"
 "http://www.w3.org/Graphics/SVG/1.1/DTD/svg11.dtd">
<!-- Generated by graphviz version 2.38.0 (20140413.2041)
 -->
<!-- Title: fuzzylite/fl/imex/RScriptExporter.h Pages: 1 -->
<svg width="461pt" height="257pt"
 viewBox="0.00 0.00 460.68 257.00" xmlns="http://www.w3.org/2000/svg" xmlns:xlink="http://www.w3.org/1999/xlink">
<g id="graph0" class="graph" transform="scale(1 1) rotate(0) translate(4 253)">
<title>fuzzylite/fl/imex/RScriptExporter.h</title>
<polygon fill="white" stroke="none" points="-4,4 -4,-253 456.685,-253 456.685,4 -4,4"/>
<!-- Node0 -->
<g id="node1" class="node"><title>Node0</title>
<polygon fill="#bfbfbf" stroke="black" points="273.887,-220.5 273.887,-248.5 393.241,-248.5 393.241,-220.5 273.887,-220.5"/>
<text text-anchor="start" x="281.887" y="-236.5" font-family="Helvetica,sans-Serif" font-size="10.00">fuzzylite/fl/imex/RScript</text>
<text text-anchor="middle" x="333.564" y="-226.5" font-family="Helvetica,sans-Serif" font-size="10.00">Exporter.h</text>
</g>
<!-- Node1 -->
<g id="node2" class="node"><title>Node1</title>
<g id="a_node2"><a xlink:href="../../d5/d93/_exporter_8h.html" target="_top" xlink:title="fl/imex/Exporter.h">
<polygon fill="white" stroke="black" points="223.936,-110.5 223.936,-128.5 317.192,-128.5 317.192,-110.5 223.936,-110.5"/>
<text text-anchor="middle" x="270.564" y="-116.5" font-family="Helvetica,sans-Serif" font-size="10.00">fl/imex/Exporter.h</text>
</a>
</g>
</g>
<!-- Node0&#45;&gt;Node1 -->
<g id="edge1" class="edge"><title>Node0&#45;&gt;Node1</title>
<path fill="none" stroke="midnightblue" d="M307.253,-220.365C293.607,-212.001 278.225,-199.763 270.564,-184 263.78,-170.043 264.457,-152.235 266.44,-139.032"/>
<polygon fill="midnightblue" stroke="midnightblue" points="269.951,-139.302 268.365,-128.827 263.072,-138.005 269.951,-139.302"/>
</g>
<!-- Node11 -->
<g id="node12" class="node"><title>Node11</title>
<g id="a_node12"><a xlink:href="../../d1/d85/_fld_exporter_8h.html" target="_top" xlink:title="fl/imex/FldExporter.h">
<polygon fill="white" stroke="black" points="279.99,-165.5 279.99,-183.5 387.138,-183.5 387.138,-165.5 279.99,-165.5"/>
<text text-anchor="middle" x="333.564" y="-171.5" font-family="Helvetica,sans-Serif" font-size="10.00">fl/imex/FldExporter.h</text>
</a>
</g>
</g>
<!-- Node0&#45;&gt;Node11 -->
<g id="edge11" class="edge"><title>Node0&#45;&gt;Node11</title>
<path fill="none" stroke="midnightblue" d="M333.564,-220.339C333.564,-212.531 333.564,-202.512 333.564,-193.927"/>
<polygon fill="midnightblue" stroke="midnightblue" points="337.064,-193.771 333.564,-183.771 330.064,-193.772 337.064,-193.771"/>
</g>
<!-- Node12 -->
<g id="node13" class="node"><title>Node12</title>
<polygon fill="white" stroke="#bfbfbf" points="373.948,-110.5 373.948,-128.5 417.18,-128.5 417.18,-110.5 373.948,-110.5"/>
<text text-anchor="middle" x="395.564" y="-116.5" font-family="Helvetica,sans-Serif" font-size="10.00">vector</text>
</g>
<!-- Node0&#45;&gt;Node12 -->
<g id="edge14" class="edge"><title>Node0&#45;&gt;Node12</title>
<path fill="none" stroke="midnightblue" d="M359.875,-220.365C373.521,-212.001 388.903,-199.763 396.564,-184 403.417,-169.9 402.349,-151.874 400.045,-138.632"/>
<polygon fill="midnightblue" stroke="midnightblue" points="403.464,-137.882 397.965,-128.826 396.616,-139.335 403.464,-137.882"/>
</g>
<!-- Node2 -->
<g id="node3" class="node"><title>Node2</title>
<g id="a_node3"><a xlink:href="../../de/d53/fuzzylite_8h.html" target="_top" xlink:title="fl/fuzzylite.h">
<polygon fill="white" stroke="black" points="200.443,-55.5 200.443,-73.5 268.685,-73.5 268.685,-55.5 200.443,-55.5"/>
<text text-anchor="middle" x="234.564" y="-61.5" font-family="Helvetica,sans-Serif" font-size="10.00">fl/fuzzylite.h</text>
</a>
</g>
</g>
<!-- Node1&#45;&gt;Node2 -->
<g id="edge2" class="edge"><title>Node1&#45;&gt;Node2</title>
<path fill="none" stroke="midnightblue" d="M264.939,-110.219C259.837,-102.707 252.164,-91.411 245.807,-82.0515"/>
<polygon fill="midnightblue" stroke="midnightblue" points="248.546,-79.8551 240.032,-73.5496 242.755,-83.7883 248.546,-79.8551"/>
</g>
<!-- Node10 -->
<g id="node11" class="node"><title>Node10</title>
<polygon fill="white" stroke="#bfbfbf" points="286.337,-55.5 286.337,-73.5 326.791,-73.5 326.791,-55.5 286.337,-55.5"/>
<text text-anchor="middle" x="306.564" y="-61.5" font-family="Helvetica,sans-Serif" font-size="10.00">string</text>
</g>
<!-- Node1&#45;&gt;Node10 -->
<g id="edge10" class="edge"><title>Node1&#45;&gt;Node10</title>
<path fill="none" stroke="midnightblue" d="M276.189,-110.219C281.291,-102.707 288.964,-91.411 295.321,-82.0515"/>
<polygon fill="midnightblue" stroke="midnightblue" points="298.373,-83.7883 301.096,-73.5496 292.582,-79.8551 298.373,-83.7883"/>
</g>
<!-- Node3 -->
<g id="node4" class="node"><title>Node3</title>
<polygon fill="white" stroke="#bfbfbf" points="0,-0.5 0,-18.5 57.1279,-18.5 57.1279,-0.5 0,-0.5"/>
<text text-anchor="middle" x="28.564" y="-6.5" font-family="Helvetica,sans-Serif" font-size="10.00">algorithm</text>
</g>
<!-- Node2&#45;&gt;Node3 -->
<g id="edge3" class="edge"><title>Node2&#45;&gt;Node3</title>
<path fill="none" stroke="midnightblue" d="M203.277,-55.4504C166.727,-46.0468 106.259,-30.4896 66.916,-20.3673"/>
<polygon fill="midnightblue" stroke="midnightblue" points="67.7083,-16.9572 57.1516,-17.8551 65.9641,-23.7364 67.7083,-16.9572"/>
</g>
<!-- Node4 -->
<g id="node5" class="node"><title>Node4</title>
<polygon fill="white" stroke="#bfbfbf" points="74.9482,-0.5 74.9482,-18.5 118.18,-18.5 118.18,-0.5 74.9482,-0.5"/>
<text text-anchor="middle" x="96.564" y="-6.5" font-family="Helvetica,sans-Serif" font-size="10.00">cmath</text>
</g>
<!-- Node2&#45;&gt;Node4 -->
<g id="edge4" class="edge"><title>Node2&#45;&gt;Node4</title>
<path fill="none" stroke="midnightblue" d="M213.605,-55.4504C190.605,-46.6173 153.468,-32.3546 127.203,-22.267"/>
<polygon fill="midnightblue" stroke="midnightblue" points="128.311,-18.9433 117.72,-18.6253 125.801,-25.478 128.311,-18.9433"/>
</g>
<!-- Node5 -->
<g id="node6" class="node"><title>Node5</title>
<polygon fill="white" stroke="#bfbfbf" points="136.392,-0.5 136.392,-18.5 190.736,-18.5 190.736,-0.5 136.392,-0.5"/>
<text text-anchor="middle" x="163.564" y="-6.5" font-family="Helvetica,sans-Serif" font-size="10.00">iostream</text>
</g>
<!-- Node2&#45;&gt;Node5 -->
<g id="edge5" class="edge"><title>Node2&#45;&gt;Node5</title>
<path fill="none" stroke="midnightblue" d="M223.781,-55.4504C212.938,-47.3566 195.988,-34.7042 182.831,-24.8822"/>
<polygon fill="midnightblue" stroke="midnightblue" points="184.556,-21.8025 174.449,-18.6253 180.369,-27.412 184.556,-21.8025"/>
</g>
<!-- Node6 -->
<g id="node7" class="node"><title>Node6</title>
<polygon fill="white" stroke="#bfbfbf" points="208.783,-0.5 208.783,-18.5 260.345,-18.5 260.345,-0.5 208.783,-0.5"/>
<text text-anchor="middle" x="234.564" y="-6.5" font-family="Helvetica,sans-Serif" font-size="10.00">sstream</text>
</g>
<!-- Node2&#45;&gt;Node6 -->
<g id="edge6" class="edge"><title>Node2&#45;&gt;Node6</title>
<path fill="none" stroke="midnightblue" d="M234.564,-55.2188C234.564,-48.1769 234.564,-37.8083 234.564,-28.8277"/>
<polygon fill="midnightblue" stroke="midnightblue" points="238.064,-28.5495 234.564,-18.5496 231.064,-28.5496 238.064,-28.5495"/>
</g>
<!-- Node7 -->
<g id="node8" class="node"><title>Node7</title>
<polygon fill="white" stroke="#bfbfbf" points="278.177,-0.5 278.177,-18.5 316.951,-18.5 316.951,-0.5 278.177,-0.5"/>
<text text-anchor="middle" x="297.564" y="-6.5" font-family="Helvetica,sans-Serif" font-size="10.00">limits</text>
</g>
<!-- Node2&#45;&gt;Node7 -->
<g id="edge7" class="edge"><title>Node2&#45;&gt;Node7</title>
<path fill="none" stroke="midnightblue" d="M244.132,-55.4504C253.661,-47.4345 268.504,-34.9471 280.13,-25.1663"/>
<polygon fill="midnightblue" stroke="midnightblue" points="282.506,-27.7413 287.906,-18.6253 278,-22.3847 282.506,-27.7413"/>
</g>
<!-- Node8 -->
<g id="node9" class="node"><title>Node8</title>
<polygon fill="white" stroke="#bfbfbf" points="334.507,-0.5 334.507,-18.5 386.621,-18.5 386.621,-0.5 334.507,-0.5"/>
<text text-anchor="middle" x="360.564" y="-6.5" font-family="Helvetica,sans-Serif" font-size="10.00">memory</text>
</g>
<!-- Node2&#45;&gt;Node8 -->
<g id="edge8" class="edge"><title>Node2&#45;&gt;Node8</title>
<path fill="none" stroke="midnightblue" d="M253.701,-55.4504C274.515,-46.6951 308.011,-32.6055 331.953,-22.5346"/>
<polygon fill="midnightblue" stroke="midnightblue" points="333.387,-25.7289 341.247,-18.6253 330.672,-19.2765 333.387,-25.7289"/>
</g>
<!-- Node9 -->
<g id="node10" class="node"><title>Node9</title>
<polygon fill="white" stroke="#bfbfbf" points="404.443,-0.5 404.443,-18.5 452.685,-18.5 452.685,-0.5 404.443,-0.5"/>
<text text-anchor="middle" x="428.564" y="-6.5" font-family="Helvetica,sans-Serif" font-size="10.00">cstddef</text>
</g>
<!-- Node2&#45;&gt;Node9 -->
<g id="edge9" class="edge"><title>Node2&#45;&gt;Node9</title>
<path fill="none" stroke="midnightblue" d="M264.028,-55.4504C299.102,-45.8685 357.562,-29.8973 394.532,-19.7973"/>
<polygon fill="midnightblue" stroke="midnightblue" points="395.628,-23.1262 404.352,-17.1145 393.783,-16.3737 395.628,-23.1262"/>
</g>
<!-- Node11&#45;&gt;Node1 -->
<g id="edge12" class="edge"><title>Node11&#45;&gt;Node1</title>
<path fill="none" stroke="midnightblue" d="M323.996,-165.45C314.467,-157.434 299.624,-144.947 287.997,-135.166"/>
<polygon fill="midnightblue" stroke="midnightblue" points="290.128,-132.385 280.222,-128.625 285.621,-137.741 290.128,-132.385"/>
</g>
<!-- Node11&#45;&gt;Node12 -->
<g id="edge13" class="edge"><title>Node11&#45;&gt;Node12</title>
<path fill="none" stroke="midnightblue" d="M342.98,-165.45C352.358,-157.434 366.966,-144.947 378.407,-135.166"/>
<polygon fill="midnightblue" stroke="midnightblue" points="380.732,-137.784 386.059,-128.625 376.183,-132.463 380.732,-137.784"/>
</g>
</g>
</svg>
