<?xml version="1.0" encoding="UTF-8" standalone="no"?>
<!DOCTYPE svg PUBLIC "-//W3C//DTD SVG 1.1//EN"
 "http://www.w3.org/Graphics/SVG/1.1/DTD/svg11.dtd">
<!-- Generated by graphviz version 2.38.0 (20140413.2041)
 -->
<!-- Title: fl::ConstructionFactory&lt; T &gt; Pages: 1 -->
<svg width="860pt" height="506pt"
 viewBox="0.00 0.00 860.43 506.00" xmlns="http://www.w3.org/2000/svg" xmlns:xlink="http://www.w3.org/1999/xlink">
<g id="graph0" class="graph" transform="scale(1 1) rotate(0) translate(4 502)">
<title>fl::ConstructionFactory&lt; T &gt;</title>
<polygon fill="white" stroke="none" points="-4,4 -4,-502 856.431,-502 856.431,4 -4,4"/>
<!-- Node0 -->
<g id="node1" class="node"><title>Node0</title>
<polygon fill="#bfbfbf" stroke="black" points="356.202,-343.5 356.202,-497.5 495.229,-497.5 495.229,-343.5 356.202,-343.5"/>
<text text-anchor="middle" x="425.715" y="-485.5" font-family="Helvetica,sans-Serif" font-size="10.00">fl::ConstructionFactory&lt; T &gt;</text>
<polyline fill="none" stroke="black" points="356.202,-479.5 495.229,-479.5 "/>
<text text-anchor="middle" x="425.715" y="-467.5" font-family="Helvetica,sans-Serif" font-size="10.00"> </text>
<polyline fill="none" stroke="black" points="356.202,-461.5 495.229,-461.5 "/>
<text text-anchor="start" x="364.202" y="-449.5" font-family="Helvetica,sans-Serif" font-size="10.00">+ ConstructionFactory()</text>
<text text-anchor="start" x="364.202" y="-439.5" font-family="Helvetica,sans-Serif" font-size="10.00">+ ~ConstructionFactory()</text>
<text text-anchor="start" x="364.202" y="-429.5" font-family="Helvetica,sans-Serif" font-size="10.00">+ name()</text>
<text text-anchor="start" x="364.202" y="-419.5" font-family="Helvetica,sans-Serif" font-size="10.00">+ registerConstructor()</text>
<text text-anchor="start" x="364.202" y="-409.5" font-family="Helvetica,sans-Serif" font-size="10.00">+ deregisterConstructor()</text>
<text text-anchor="start" x="364.202" y="-399.5" font-family="Helvetica,sans-Serif" font-size="10.00">+ hasConstructor()</text>
<text text-anchor="start" x="364.202" y="-389.5" font-family="Helvetica,sans-Serif" font-size="10.00">+ getConstructor()</text>
<text text-anchor="start" x="364.202" y="-379.5" font-family="Helvetica,sans-Serif" font-size="10.00">+ constructObject()</text>
<text text-anchor="start" x="364.202" y="-369.5" font-family="Helvetica,sans-Serif" font-size="10.00">+ available()</text>
<text text-anchor="start" x="364.202" y="-359.5" font-family="Helvetica,sans-Serif" font-size="10.00">+ constructors()</text>
<text text-anchor="start" x="364.202" y="-349.5" font-family="Helvetica,sans-Serif" font-size="10.00">+ constructors()</text>
</g>
<!-- Node1 -->
<g id="node2" class="node"><title>Node1</title>
<g id="a_node2"><a xlink:href="../../d0/df3/classfl_1_1_construction_factory.html" target="_top" xlink:title="{fl::ConstructionFactory\l\&lt; Hedge *\&gt;\n||+ ConstructionFactory()\l+ ~ConstructionFactory()\l+ name()\l+ registerConstructor()\l+ deregisterConstructor()\l+ hasConstructor()\l+ getConstructor()\l+ constructObject()\l+ available()\l+ constructors()\l+ constructors()\l}">
<polygon fill="white" stroke="black" points="0,-132.5 0,-296.5 127.431,-296.5 127.431,-132.5 0,-132.5"/>
<text text-anchor="start" x="8" y="-284.5" font-family="Helvetica,sans-Serif" font-size="10.00">fl::ConstructionFactory</text>
<text text-anchor="middle" x="63.7153" y="-274.5" font-family="Helvetica,sans-Serif" font-size="10.00">&lt; Hedge *&gt;</text>
<polyline fill="none" stroke="black" points="0,-268.5 127.431,-268.5 "/>
<text text-anchor="middle" x="63.7153" y="-256.5" font-family="Helvetica,sans-Serif" font-size="10.00"> </text>
<polyline fill="none" stroke="black" points="0,-250.5 127.431,-250.5 "/>
<text text-anchor="start" x="8" y="-238.5" font-family="Helvetica,sans-Serif" font-size="10.00">+ ConstructionFactory()</text>
<text text-anchor="start" x="8" y="-228.5" font-family="Helvetica,sans-Serif" font-size="10.00">+ ~ConstructionFactory()</text>
<text text-anchor="start" x="8" y="-218.5" font-family="Helvetica,sans-Serif" font-size="10.00">+ name()</text>
<text text-anchor="start" x="8" y="-208.5" font-family="Helvetica,sans-Serif" font-size="10.00">+ registerConstructor()</text>
<text text-anchor="start" x="8" y="-198.5" font-family="Helvetica,sans-Serif" font-size="10.00">+ deregisterConstructor()</text>
<text text-anchor="start" x="8" y="-188.5" font-family="Helvetica,sans-Serif" font-size="10.00">+ hasConstructor()</text>
<text text-anchor="start" x="8" y="-178.5" font-family="Helvetica,sans-Serif" font-size="10.00">+ getConstructor()</text>
<text text-anchor="start" x="8" y="-168.5" font-family="Helvetica,sans-Serif" font-size="10.00">+ constructObject()</text>
<text text-anchor="start" x="8" y="-158.5" font-family="Helvetica,sans-Serif" font-size="10.00">+ available()</text>
<text text-anchor="start" x="8" y="-148.5" font-family="Helvetica,sans-Serif" font-size="10.00">+ constructors()</text>
<text text-anchor="start" x="8" y="-138.5" font-family="Helvetica,sans-Serif" font-size="10.00">+ constructors()</text>
</a>
</g>
</g>
<!-- Node0&#45;&gt;Node1 -->
<g id="edge1" class="edge"><title>Node0&#45;&gt;Node1</title>
<path fill="none" stroke="orange" d="M346.312,-396.67C285.093,-376.637 200.263,-343.418 135.715,-297 132.956,-295.016 130.229,-292.908 127.543,-290.703"/>
<polygon fill="orange" stroke="orange" points="345.337,-400.033 355.928,-399.772 347.486,-393.371 345.337,-400.033"/>
<text text-anchor="middle" x="206.402" y="-317" font-family="Helvetica,sans-Serif" font-size="10.00"> &lt; Hedge *&gt;</text>
</g>
<!-- Node3 -->
<g id="node4" class="node"><title>Node3</title>
<g id="a_node4"><a xlink:href="../../d0/df3/classfl_1_1_construction_factory.html" target="_top" xlink:title="{fl::ConstructionFactory\l\&lt; SNorm *\&gt;\n||+ ConstructionFactory()\l+ ~ConstructionFactory()\l+ name()\l+ registerConstructor()\l+ deregisterConstructor()\l+ hasConstructor()\l+ getConstructor()\l+ constructObject()\l+ available()\l+ constructors()\l+ constructors()\l}">
<polygon fill="white" stroke="black" points="145,-132.5 145,-296.5 272.431,-296.5 272.431,-132.5 145,-132.5"/>
<text text-anchor="start" x="153" y="-284.5" font-family="Helvetica,sans-Serif" font-size="10.00">fl::ConstructionFactory</text>
<text text-anchor="middle" x="208.715" y="-274.5" font-family="Helvetica,sans-Serif" font-size="10.00">&lt; SNorm *&gt;</text>
<polyline fill="none" stroke="black" points="145,-268.5 272.431,-268.5 "/>
<text text-anchor="middle" x="208.715" y="-256.5" font-family="Helvetica,sans-Serif" font-size="10.00"> </text>
<polyline fill="none" stroke="black" points="145,-250.5 272.431,-250.5 "/>
<text text-anchor="start" x="153" y="-238.5" font-family="Helvetica,sans-Serif" font-size="10.00">+ ConstructionFactory()</text>
<text text-anchor="start" x="153" y="-228.5" font-family="Helvetica,sans-Serif" font-size="10.00">+ ~ConstructionFactory()</text>
<text text-anchor="start" x="153" y="-218.5" font-family="Helvetica,sans-Serif" font-size="10.00">+ name()</text>
<text text-anchor="start" x="153" y="-208.5" font-family="Helvetica,sans-Serif" font-size="10.00">+ registerConstructor()</text>
<text text-anchor="start" x="153" y="-198.5" font-family="Helvetica,sans-Serif" font-size="10.00">+ deregisterConstructor()</text>
<text text-anchor="start" x="153" y="-188.5" font-family="Helvetica,sans-Serif" font-size="10.00">+ hasConstructor()</text>
<text text-anchor="start" x="153" y="-178.5" font-family="Helvetica,sans-Serif" font-size="10.00">+ getConstructor()</text>
<text text-anchor="start" x="153" y="-168.5" font-family="Helvetica,sans-Serif" font-size="10.00">+ constructObject()</text>
<text text-anchor="start" x="153" y="-158.5" font-family="Helvetica,sans-Serif" font-size="10.00">+ available()</text>
<text text-anchor="start" x="153" y="-148.5" font-family="Helvetica,sans-Serif" font-size="10.00">+ constructors()</text>
<text text-anchor="start" x="153" y="-138.5" font-family="Helvetica,sans-Serif" font-size="10.00">+ constructors()</text>
</a>
</g>
</g>
<!-- Node0&#45;&gt;Node3 -->
<g id="edge3" class="edge"><title>Node0&#45;&gt;Node3</title>
<path fill="none" stroke="orange" d="M348.214,-357.592C325.84,-338.778 301.789,-317.613 280.715,-297 278.016,-294.36 275.299,-291.634 272.583,-288.854"/>
<polygon fill="orange" stroke="orange" points="346.133,-360.415 356.05,-364.144 350.624,-355.044 346.133,-360.415"/>
<text text-anchor="middle" x="335.225" y="-317" font-family="Helvetica,sans-Serif" font-size="10.00"> &lt; SNorm *&gt;</text>
</g>
<!-- Node5 -->
<g id="node6" class="node"><title>Node5</title>
<g id="a_node6"><a xlink:href="../../d0/df3/classfl_1_1_construction_factory.html" target="_top" xlink:title="{fl::ConstructionFactory\l\&lt; TNorm *\&gt;\n||+ ConstructionFactory()\l+ ~ConstructionFactory()\l+ name()\l+ registerConstructor()\l+ deregisterConstructor()\l+ hasConstructor()\l+ getConstructor()\l+ constructObject()\l+ available()\l+ constructors()\l+ constructors()\l}">
<polygon fill="white" stroke="black" points="290,-132.5 290,-296.5 417.431,-296.5 417.431,-132.5 290,-132.5"/>
<text text-anchor="start" x="298" y="-284.5" font-family="Helvetica,sans-Serif" font-size="10.00">fl::ConstructionFactory</text>
<text text-anchor="middle" x="353.715" y="-274.5" font-family="Helvetica,sans-Serif" font-size="10.00">&lt; TNorm *&gt;</text>
<polyline fill="none" stroke="black" points="290,-268.5 417.431,-268.5 "/>
<text text-anchor="middle" x="353.715" y="-256.5" font-family="Helvetica,sans-Serif" font-size="10.00"> </text>
<polyline fill="none" stroke="black" points="290,-250.5 417.431,-250.5 "/>
<text text-anchor="start" x="298" y="-238.5" font-family="Helvetica,sans-Serif" font-size="10.00">+ ConstructionFactory()</text>
<text text-anchor="start" x="298" y="-228.5" font-family="Helvetica,sans-Serif" font-size="10.00">+ ~ConstructionFactory()</text>
<text text-anchor="start" x="298" y="-218.5" font-family="Helvetica,sans-Serif" font-size="10.00">+ name()</text>
<text text-anchor="start" x="298" y="-208.5" font-family="Helvetica,sans-Serif" font-size="10.00">+ registerConstructor()</text>
<text text-anchor="start" x="298" y="-198.5" font-family="Helvetica,sans-Serif" font-size="10.00">+ deregisterConstructor()</text>
<text text-anchor="start" x="298" y="-188.5" font-family="Helvetica,sans-Serif" font-size="10.00">+ hasConstructor()</text>
<text text-anchor="start" x="298" y="-178.5" font-family="Helvetica,sans-Serif" font-size="10.00">+ getConstructor()</text>
<text text-anchor="start" x="298" y="-168.5" font-family="Helvetica,sans-Serif" font-size="10.00">+ constructObject()</text>
<text text-anchor="start" x="298" y="-158.5" font-family="Helvetica,sans-Serif" font-size="10.00">+ available()</text>
<text text-anchor="start" x="298" y="-148.5" font-family="Helvetica,sans-Serif" font-size="10.00">+ constructors()</text>
<text text-anchor="start" x="298" y="-138.5" font-family="Helvetica,sans-Serif" font-size="10.00">+ constructors()</text>
</a>
</g>
</g>
<!-- Node0&#45;&gt;Node5 -->
<g id="edge5" class="edge"><title>Node0&#45;&gt;Node5</title>
<path fill="none" stroke="orange" d="M395.382,-333.557C391.082,-321.372 386.67,-308.873 382.402,-296.78"/>
<polygon fill="orange" stroke="orange" points="392.174,-334.983 398.803,-343.248 398.775,-332.653 392.174,-334.983"/>
<text text-anchor="middle" x="419.856" y="-317" font-family="Helvetica,sans-Serif" font-size="10.00"> &lt; TNorm *&gt;</text>
</g>
<!-- Node7 -->
<g id="node8" class="node"><title>Node7</title>
<g id="a_node8"><a xlink:href="../../d0/df3/classfl_1_1_construction_factory.html" target="_top" xlink:title="{fl::ConstructionFactory\l\&lt; Defuzzifier *\&gt;\n||+ ConstructionFactory()\l+ ~ConstructionFactory()\l+ name()\l+ registerConstructor()\l+ deregisterConstructor()\l+ hasConstructor()\l+ getConstructor()\l+ constructObject()\l+ available()\l+ constructors()\l+ constructors()\l}">
<polygon fill="white" stroke="black" points="435,-132.5 435,-296.5 562.431,-296.5 562.431,-132.5 435,-132.5"/>
<text text-anchor="start" x="443" y="-284.5" font-family="Helvetica,sans-Serif" font-size="10.00">fl::ConstructionFactory</text>
<text text-anchor="middle" x="498.715" y="-274.5" font-family="Helvetica,sans-Serif" font-size="10.00">&lt; Defuzzifier *&gt;</text>
<polyline fill="none" stroke="black" points="435,-268.5 562.431,-268.5 "/>
<text text-anchor="middle" x="498.715" y="-256.5" font-family="Helvetica,sans-Serif" font-size="10.00"> </text>
<polyline fill="none" stroke="black" points="435,-250.5 562.431,-250.5 "/>
<text text-anchor="start" x="443" y="-238.5" font-family="Helvetica,sans-Serif" font-size="10.00">+ ConstructionFactory()</text>
<text text-anchor="start" x="443" y="-228.5" font-family="Helvetica,sans-Serif" font-size="10.00">+ ~ConstructionFactory()</text>
<text text-anchor="start" x="443" y="-218.5" font-family="Helvetica,sans-Serif" font-size="10.00">+ name()</text>
<text text-anchor="start" x="443" y="-208.5" font-family="Helvetica,sans-Serif" font-size="10.00">+ registerConstructor()</text>
<text text-anchor="start" x="443" y="-198.5" font-family="Helvetica,sans-Serif" font-size="10.00">+ deregisterConstructor()</text>
<text text-anchor="start" x="443" y="-188.5" font-family="Helvetica,sans-Serif" font-size="10.00">+ hasConstructor()</text>
<text text-anchor="start" x="443" y="-178.5" font-family="Helvetica,sans-Serif" font-size="10.00">+ getConstructor()</text>
<text text-anchor="start" x="443" y="-168.5" font-family="Helvetica,sans-Serif" font-size="10.00">+ constructObject()</text>
<text text-anchor="start" x="443" y="-158.5" font-family="Helvetica,sans-Serif" font-size="10.00">+ available()</text>
<text text-anchor="start" x="443" y="-148.5" font-family="Helvetica,sans-Serif" font-size="10.00">+ constructors()</text>
<text text-anchor="start" x="443" y="-138.5" font-family="Helvetica,sans-Serif" font-size="10.00">+ constructors()</text>
</a>
</g>
</g>
<!-- Node0&#45;&gt;Node7 -->
<g id="edge7" class="edge"><title>Node0&#45;&gt;Node7</title>
<path fill="none" stroke="orange" d="M456.47,-333.557C460.83,-321.372 465.302,-308.873 469.63,-296.78"/>
<polygon fill="orange" stroke="orange" points="453.076,-332.653 453.002,-343.248 459.666,-335.012 453.076,-332.653"/>
<text text-anchor="middle" x="498.287" y="-317" font-family="Helvetica,sans-Serif" font-size="10.00"> &lt; Defuzzifier *&gt;</text>
</g>
<!-- Node9 -->
<g id="node10" class="node"><title>Node9</title>
<g id="a_node10"><a xlink:href="../../d0/df3/classfl_1_1_construction_factory.html" target="_top" xlink:title="{fl::ConstructionFactory\l\&lt; Term *\&gt;\n||+ ConstructionFactory()\l+ ~ConstructionFactory()\l+ name()\l+ registerConstructor()\l+ deregisterConstructor()\l+ hasConstructor()\l+ getConstructor()\l+ constructObject()\l+ available()\l+ constructors()\l+ constructors()\l}">
<polygon fill="white" stroke="black" points="580,-132.5 580,-296.5 707.431,-296.5 707.431,-132.5 580,-132.5"/>
<text text-anchor="start" x="588" y="-284.5" font-family="Helvetica,sans-Serif" font-size="10.00">fl::ConstructionFactory</text>
<text text-anchor="middle" x="643.715" y="-274.5" font-family="Helvetica,sans-Serif" font-size="10.00">&lt; Term *&gt;</text>
<polyline fill="none" stroke="black" points="580,-268.5 707.431,-268.5 "/>
<text text-anchor="middle" x="643.715" y="-256.5" font-family="Helvetica,sans-Serif" font-size="10.00"> </text>
<polyline fill="none" stroke="black" points="580,-250.5 707.431,-250.5 "/>
<text text-anchor="start" x="588" y="-238.5" font-family="Helvetica,sans-Serif" font-size="10.00">+ ConstructionFactory()</text>
<text text-anchor="start" x="588" y="-228.5" font-family="Helvetica,sans-Serif" font-size="10.00">+ ~ConstructionFactory()</text>
<text text-anchor="start" x="588" y="-218.5" font-family="Helvetica,sans-Serif" font-size="10.00">+ name()</text>
<text text-anchor="start" x="588" y="-208.5" font-family="Helvetica,sans-Serif" font-size="10.00">+ registerConstructor()</text>
<text text-anchor="start" x="588" y="-198.5" font-family="Helvetica,sans-Serif" font-size="10.00">+ deregisterConstructor()</text>
<text text-anchor="start" x="588" y="-188.5" font-family="Helvetica,sans-Serif" font-size="10.00">+ hasConstructor()</text>
<text text-anchor="start" x="588" y="-178.5" font-family="Helvetica,sans-Serif" font-size="10.00">+ getConstructor()</text>
<text text-anchor="start" x="588" y="-168.5" font-family="Helvetica,sans-Serif" font-size="10.00">+ constructObject()</text>
<text text-anchor="start" x="588" y="-158.5" font-family="Helvetica,sans-Serif" font-size="10.00">+ available()</text>
<text text-anchor="start" x="588" y="-148.5" font-family="Helvetica,sans-Serif" font-size="10.00">+ constructors()</text>
<text text-anchor="start" x="588" y="-138.5" font-family="Helvetica,sans-Serif" font-size="10.00">+ constructors()</text>
</a>
</g>
</g>
<!-- Node0&#45;&gt;Node9 -->
<g id="edge9" class="edge"><title>Node0&#45;&gt;Node9</title>
<path fill="none" stroke="orange" d="M503.446,-357.934C526.07,-339.051 550.416,-317.764 571.715,-297 574.419,-294.364 577.14,-291.643 579.859,-288.865"/>
<polygon fill="orange" stroke="orange" points="500.984,-355.429 495.523,-364.508 505.453,-360.816 500.984,-355.429"/>
<text text-anchor="middle" x="572.691" y="-317" font-family="Helvetica,sans-Serif" font-size="10.00"> &lt; Term *&gt;</text>
</g>
<!-- Node11 -->
<g id="node12" class="node"><title>Node11</title>
<g id="a_node12"><a xlink:href="../../d0/df3/classfl_1_1_construction_factory.html" target="_top" xlink:title="{fl::ConstructionFactory\l\&lt; Activation *\&gt;\n||+ ConstructionFactory()\l+ ~ConstructionFactory()\l+ name()\l+ registerConstructor()\l+ deregisterConstructor()\l+ hasConstructor()\l+ getConstructor()\l+ constructObject()\l+ available()\l+ constructors()\l+ constructors()\l}">
<polygon fill="white" stroke="black" points="725,-132.5 725,-296.5 852.431,-296.5 852.431,-132.5 725,-132.5"/>
<text text-anchor="start" x="733" y="-284.5" font-family="Helvetica,sans-Serif" font-size="10.00">fl::ConstructionFactory</text>
<text text-anchor="middle" x="788.715" y="-274.5" font-family="Helvetica,sans-Serif" font-size="10.00">&lt; Activation *&gt;</text>
<polyline fill="none" stroke="black" points="725,-268.5 852.431,-268.5 "/>
<text text-anchor="middle" x="788.715" y="-256.5" font-family="Helvetica,sans-Serif" font-size="10.00"> </text>
<polyline fill="none" stroke="black" points="725,-250.5 852.431,-250.5 "/>
<text text-anchor="start" x="733" y="-238.5" font-family="Helvetica,sans-Serif" font-size="10.00">+ ConstructionFactory()</text>
<text text-anchor="start" x="733" y="-228.5" font-family="Helvetica,sans-Serif" font-size="10.00">+ ~ConstructionFactory()</text>
<text text-anchor="start" x="733" y="-218.5" font-family="Helvetica,sans-Serif" font-size="10.00">+ name()</text>
<text text-anchor="start" x="733" y="-208.5" font-family="Helvetica,sans-Serif" font-size="10.00">+ registerConstructor()</text>
<text text-anchor="start" x="733" y="-198.5" font-family="Helvetica,sans-Serif" font-size="10.00">+ deregisterConstructor()</text>
<text text-anchor="start" x="733" y="-188.5" font-family="Helvetica,sans-Serif" font-size="10.00">+ hasConstructor()</text>
<text text-anchor="start" x="733" y="-178.5" font-family="Helvetica,sans-Serif" font-size="10.00">+ getConstructor()</text>
<text text-anchor="start" x="733" y="-168.5" font-family="Helvetica,sans-Serif" font-size="10.00">+ constructObject()</text>
<text text-anchor="start" x="733" y="-158.5" font-family="Helvetica,sans-Serif" font-size="10.00">+ available()</text>
<text text-anchor="start" x="733" y="-148.5" font-family="Helvetica,sans-Serif" font-size="10.00">+ constructors()</text>
<text text-anchor="start" x="733" y="-138.5" font-family="Helvetica,sans-Serif" font-size="10.00">+ constructors()</text>
</a>
</g>
</g>
<!-- Node0&#45;&gt;Node11 -->
<g id="edge11" class="edge"><title>Node0&#45;&gt;Node11</title>
<path fill="none" stroke="orange" d="M505.095,-396.821C566.55,-376.828 651.844,-343.59 716.715,-297 719.476,-295.018 722.204,-292.911 724.89,-290.708"/>
<polygon fill="orange" stroke="orange" points="503.897,-393.53 495.443,-399.917 506.034,-400.196 503.897,-393.53"/>
<text text-anchor="middle" x="722.072" y="-317" font-family="Helvetica,sans-Serif" font-size="10.00"> &lt; Activation *&gt;</text>
</g>
<!-- Node2 -->
<g id="node3" class="node"><title>Node2</title>
<g id="a_node3"><a xlink:href="../../d4/d2a/classfl_1_1_hedge_factory.html" target="_top" xlink:title="The HedgeFactory class is a ConstructionFactory of Hedges. ">
<polygon fill="white" stroke="black" points="13.7524,-15.5 13.7524,-79.5 113.678,-79.5 113.678,-15.5 13.7524,-15.5"/>
<text text-anchor="middle" x="63.7153" y="-67.5" font-family="Helvetica,sans-Serif" font-size="10.00">fl::HedgeFactory</text>
<polyline fill="none" stroke="black" points="13.7524,-61.5 113.678,-61.5 "/>
<text text-anchor="middle" x="63.7153" y="-49.5" font-family="Helvetica,sans-Serif" font-size="10.00"> </text>
<polyline fill="none" stroke="black" points="13.7524,-43.5 113.678,-43.5 "/>
<text text-anchor="start" x="21.7524" y="-31.5" font-family="Helvetica,sans-Serif" font-size="10.00">+ HedgeFactory()</text>
<text text-anchor="start" x="21.7524" y="-21.5" font-family="Helvetica,sans-Serif" font-size="10.00">+ ~HedgeFactory()</text>
</a>
</g>
</g>
<!-- Node1&#45;&gt;Node2 -->
<g id="edge2" class="edge"><title>Node1&#45;&gt;Node2</title>
<path fill="none" stroke="midnightblue" d="M63.7153,-122.358C63.7153,-107.055 63.7153,-92.1523 63.7153,-79.7884"/>
<polygon fill="none" stroke="midnightblue" points="60.2154,-122.45 63.7153,-132.45 67.2154,-122.45 60.2154,-122.45"/>
</g>
<!-- Node4 -->
<g id="node5" class="node"><title>Node4</title>
<g id="a_node5"><a xlink:href="../../d8/d00/classfl_1_1_s_norm_factory.html" target="_top" xlink:title="The SNormFactory class is a ConstructionFactory of SNorms. ">
<polygon fill="white" stroke="black" points="157.93,-15.5 157.93,-79.5 259.501,-79.5 259.501,-15.5 157.93,-15.5"/>
<text text-anchor="middle" x="208.715" y="-67.5" font-family="Helvetica,sans-Serif" font-size="10.00">fl::SNormFactory</text>
<polyline fill="none" stroke="black" points="157.93,-61.5 259.501,-61.5 "/>
<text text-anchor="middle" x="208.715" y="-49.5" font-family="Helvetica,sans-Serif" font-size="10.00"> </text>
<polyline fill="none" stroke="black" points="157.93,-43.5 259.501,-43.5 "/>
<text text-anchor="start" x="165.93" y="-31.5" font-family="Helvetica,sans-Serif" font-size="10.00">+ SNormFactory()</text>
<text text-anchor="start" x="165.93" y="-21.5" font-family="Helvetica,sans-Serif" font-size="10.00">+ ~SNormFactory()</text>
</a>
</g>
</g>
<!-- Node3&#45;&gt;Node4 -->
<g id="edge4" class="edge"><title>Node3&#45;&gt;Node4</title>
<path fill="none" stroke="midnightblue" d="M208.715,-122.358C208.715,-107.055 208.715,-92.1523 208.715,-79.7884"/>
<polygon fill="none" stroke="midnightblue" points="205.215,-122.45 208.715,-132.45 212.215,-122.45 205.215,-122.45"/>
</g>
<!-- Node6 -->
<g id="node7" class="node"><title>Node6</title>
<g id="a_node7"><a xlink:href="../../de/db5/classfl_1_1_t_norm_factory.html" target="_top" xlink:title="The TNormFactory class is a ConstructionFactory of TNorms. ">
<polygon fill="white" stroke="black" points="303.21,-15.5 303.21,-79.5 404.22,-79.5 404.22,-15.5 303.21,-15.5"/>
<text text-anchor="middle" x="353.715" y="-67.5" font-family="Helvetica,sans-Serif" font-size="10.00">fl::TNormFactory</text>
<polyline fill="none" stroke="black" points="303.21,-61.5 404.22,-61.5 "/>
<text text-anchor="middle" x="353.715" y="-49.5" font-family="Helvetica,sans-Serif" font-size="10.00"> </text>
<polyline fill="none" stroke="black" points="303.21,-43.5 404.22,-43.5 "/>
<text text-anchor="start" x="311.21" y="-31.5" font-family="Helvetica,sans-Serif" font-size="10.00">+ TNormFactory()</text>
<text text-anchor="start" x="311.21" y="-21.5" font-family="Helvetica,sans-Serif" font-size="10.00">+ ~TNormFactory()</text>
</a>
</g>
</g>
<!-- Node5&#45;&gt;Node6 -->
<g id="edge6" class="edge"><title>Node5&#45;&gt;Node6</title>
<path fill="none" stroke="midnightblue" d="M353.715,-122.358C353.715,-107.055 353.715,-92.1523 353.715,-79.7884"/>
<polygon fill="none" stroke="midnightblue" points="350.215,-122.45 353.715,-132.45 357.215,-122.45 350.215,-122.45"/>
</g>
<!-- Node8 -->
<g id="node9" class="node"><title>Node8</title>
<g id="a_node9"><a xlink:href="../../d8/dfe/classfl_1_1_defuzzifier_factory.html" target="_top" xlink:title="The DefuzzifierFactory class is a ConstructionFactory of Defuzzifiers. ">
<polygon fill="white" stroke="black" points="439.172,-0.5 439.172,-94.5 558.258,-94.5 558.258,-0.5 439.172,-0.5"/>
<text text-anchor="middle" x="498.715" y="-82.5" font-family="Helvetica,sans-Serif" font-size="10.00">fl::DefuzzifierFactory</text>
<polyline fill="none" stroke="black" points="439.172,-76.5 558.258,-76.5 "/>
<text text-anchor="middle" x="498.715" y="-64.5" font-family="Helvetica,sans-Serif" font-size="10.00"> </text>
<polyline fill="none" stroke="black" points="439.172,-58.5 558.258,-58.5 "/>
<text text-anchor="start" x="447.172" y="-46.5" font-family="Helvetica,sans-Serif" font-size="10.00">+ DefuzzifierFactory()</text>
<text text-anchor="start" x="447.172" y="-36.5" font-family="Helvetica,sans-Serif" font-size="10.00">+ ~DefuzzifierFactory()</text>
<text text-anchor="start" x="447.172" y="-26.5" font-family="Helvetica,sans-Serif" font-size="10.00">+ constructDefuzzifier()</text>
<text text-anchor="start" x="447.172" y="-16.5" font-family="Helvetica,sans-Serif" font-size="10.00">+ constructDefuzzifier()</text>
<text text-anchor="start" x="447.172" y="-6.5" font-family="Helvetica,sans-Serif" font-size="10.00">+ constructDefuzzifier()</text>
</a>
</g>
</g>
<!-- Node7&#45;&gt;Node8 -->
<g id="edge8" class="edge"><title>Node7&#45;&gt;Node8</title>
<path fill="none" stroke="midnightblue" d="M498.715,-122.202C498.715,-112.793 498.715,-103.537 498.715,-94.9334"/>
<polygon fill="none" stroke="midnightblue" points="495.215,-122.45 498.715,-132.45 502.215,-122.45 495.215,-122.45"/>
</g>
<!-- Node10 -->
<g id="node11" class="node"><title>Node10</title>
<g id="a_node11"><a xlink:href="../../dd/da5/classfl_1_1_term_factory.html" target="_top" xlink:title="The TermFactory class is a ConstructionFactory of Terms. ">
<polygon fill="white" stroke="black" points="597.375,-15.5 597.375,-79.5 690.055,-79.5 690.055,-15.5 597.375,-15.5"/>
<text text-anchor="middle" x="643.715" y="-67.5" font-family="Helvetica,sans-Serif" font-size="10.00">fl::TermFactory</text>
<polyline fill="none" stroke="black" points="597.375,-61.5 690.055,-61.5 "/>
<text text-anchor="middle" x="643.715" y="-49.5" font-family="Helvetica,sans-Serif" font-size="10.00"> </text>
<polyline fill="none" stroke="black" points="597.375,-43.5 690.055,-43.5 "/>
<text text-anchor="start" x="605.375" y="-31.5" font-family="Helvetica,sans-Serif" font-size="10.00">+ TermFactory()</text>
<text text-anchor="start" x="605.375" y="-21.5" font-family="Helvetica,sans-Serif" font-size="10.00">+ ~TermFactory()</text>
</a>
</g>
</g>
<!-- Node9&#45;&gt;Node10 -->
<g id="edge10" class="edge"><title>Node9&#45;&gt;Node10</title>
<path fill="none" stroke="midnightblue" d="M643.715,-122.358C643.715,-107.055 643.715,-92.1523 643.715,-79.7884"/>
<polygon fill="none" stroke="midnightblue" points="640.215,-122.45 643.715,-132.45 647.215,-122.45 640.215,-122.45"/>
</g>
<!-- Node12 -->
<g id="node13" class="node"><title>Node12</title>
<g id="a_node13"><a xlink:href="../../d9/d49/classfl_1_1_activation_factory.html" target="_top" xlink:title="The ActivationFactory class is a ConstructionFactory of Activation methods for RuleBlocks. ">
<polygon fill="white" stroke="black" points="731.809,-15.5 731.809,-79.5 845.622,-79.5 845.622,-15.5 731.809,-15.5"/>
<text text-anchor="middle" x="788.715" y="-67.5" font-family="Helvetica,sans-Serif" font-size="10.00">fl::ActivationFactory</text>
<polyline fill="none" stroke="black" points="731.809,-61.5 845.622,-61.5 "/>
<text text-anchor="middle" x="788.715" y="-49.5" font-family="Helvetica,sans-Serif" font-size="10.00"> </text>
<polyline fill="none" stroke="black" points="731.809,-43.5 845.622,-43.5 "/>
<text text-anchor="start" x="739.809" y="-31.5" font-family="Helvetica,sans-Serif" font-size="10.00">+ ActivationFactory()</text>
<text text-anchor="start" x="739.809" y="-21.5" font-family="Helvetica,sans-Serif" font-size="10.00">+ ~ActivationFactory()</text>
</a>
</g>
</g>
<!-- Node11&#45;&gt;Node12 -->
<g id="edge12" class="edge"><title>Node11&#45;&gt;Node12</title>
<path fill="none" stroke="midnightblue" d="M788.715,-122.358C788.715,-107.055 788.715,-92.1523 788.715,-79.7884"/>
<polygon fill="none" stroke="midnightblue" points="785.215,-122.45 788.715,-132.45 792.215,-122.45 785.215,-122.45"/>
</g>
</g>
</svg>
