<?xml version="1.0" encoding="UTF-8" standalone="no"?>
<!DOCTYPE svg PUBLIC "-//W3C//DTD SVG 1.1//EN"
 "http://www.w3.org/Graphics/SVG/1.1/DTD/svg11.dtd">
<!-- Generated by graphviz version 2.38.0 (20140413.2041)
 -->
<!-- Title: fl::OutputVariable Pages: 1 -->
<svg width="338pt" height="938pt"
 viewBox="0.00 0.00 338.24 938.00" xmlns="http://www.w3.org/2000/svg" xmlns:xlink="http://www.w3.org/1999/xlink">
<g id="graph0" class="graph" transform="scale(1 1) rotate(0) translate(4 934)">
<title>fl::OutputVariable</title>
<polygon fill="white" stroke="none" points="-4,4 -4,-934 334.242,-934 334.242,4 -4,4"/>
<!-- Node2 -->
<g id="node1" class="node"><title>Node2</title>
<polygon fill="#bfbfbf" stroke="black" points="58.5854,-0.5 58.5854,-204.5 167.51,-204.5 167.51,-0.5 58.5854,-0.5"/>
<text text-anchor="middle" x="113.048" y="-192.5" font-family="Helvetica,sans-Serif" font-size="10.00">fl::OutputVariable</text>
<polyline fill="none" stroke="black" points="58.5854,-186.5 167.51,-186.5 "/>
<text text-anchor="middle" x="113.048" y="-174.5" font-family="Helvetica,sans-Serif" font-size="10.00"> </text>
<polyline fill="none" stroke="black" points="58.5854,-168.5 167.51,-168.5 "/>
<text text-anchor="start" x="66.5854" y="-156.5" font-family="Helvetica,sans-Serif" font-size="10.00">+ OutputVariable()</text>
<text text-anchor="start" x="66.5854" y="-146.5" font-family="Helvetica,sans-Serif" font-size="10.00">+ OutputVariable()</text>
<text text-anchor="start" x="66.5854" y="-136.5" font-family="Helvetica,sans-Serif" font-size="10.00">+ operator=()</text>
<text text-anchor="start" x="66.5854" y="-126.5" font-family="Helvetica,sans-Serif" font-size="10.00">+ ~OutputVariable()</text>
<text text-anchor="start" x="66.5854" y="-116.5" font-family="Helvetica,sans-Serif" font-size="10.00">+ fuzzyOutput()</text>
<text text-anchor="start" x="66.5854" y="-106.5" font-family="Helvetica,sans-Serif" font-size="10.00">+ setName()</text>
<text text-anchor="start" x="66.5854" y="-96.5" font-family="Helvetica,sans-Serif" font-size="10.00">+ setMinimum()</text>
<text text-anchor="start" x="66.5854" y="-86.5" font-family="Helvetica,sans-Serif" font-size="10.00">+ setMaximum()</text>
<text text-anchor="start" x="66.5854" y="-76.5" font-family="Helvetica,sans-Serif" font-size="10.00">+ setDefuzzifier()</text>
<text text-anchor="start" x="66.5854" y="-66.5" font-family="Helvetica,sans-Serif" font-size="10.00">+ getDefuzzifier()</text>
<text text-anchor="start" x="66.5854" y="-56.5" font-family="Helvetica,sans-Serif" font-size="10.00">+ setAggregation()</text>
<text text-anchor="start" x="66.5854" y="-46.5" font-family="Helvetica,sans-Serif" font-size="10.00">+ getAggregation()</text>
<text text-anchor="start" x="66.5854" y="-36.5" font-family="Helvetica,sans-Serif" font-size="10.00">+ setPreviousValue()</text>
<text text-anchor="start" x="66.5854" y="-26.5" font-family="Helvetica,sans-Serif" font-size="10.00">+ getPreviousValue()</text>
<text text-anchor="start" x="66.5854" y="-16.5" font-family="Helvetica,sans-Serif" font-size="10.00">+ setDefaultValue()</text>
<text text-anchor="start" x="66.5854" y="-6.5" font-family="Helvetica,sans-Serif" font-size="10.00">and 12 more...</text>
</g>
<!-- Node3 -->
<g id="node2" class="node"><title>Node3</title>
<g id="a_node2"><a xlink:href="../../d0/d27/classfl_1_1_variable.html" target="_top" xlink:title="The Variable class is the base class for linguistic variables. ">
<polygon fill="white" stroke="black" points="57.8823,-242.5 57.8823,-486.5 168.213,-486.5 168.213,-242.5 57.8823,-242.5"/>
<text text-anchor="middle" x="113.048" y="-474.5" font-family="Helvetica,sans-Serif" font-size="10.00">fl::Variable</text>
<polyline fill="none" stroke="black" points="57.8823,-468.5 168.213,-468.5 "/>
<text text-anchor="start" x="65.8823" y="-456.5" font-family="Helvetica,sans-Serif" font-size="10.00"># _value</text>
<text text-anchor="start" x="65.8823" y="-446.5" font-family="Helvetica,sans-Serif" font-size="10.00"># _minimum</text>
<text text-anchor="start" x="65.8823" y="-436.5" font-family="Helvetica,sans-Serif" font-size="10.00"># _maximum</text>
<text text-anchor="start" x="65.8823" y="-426.5" font-family="Helvetica,sans-Serif" font-size="10.00"># _enabled</text>
<text text-anchor="start" x="65.8823" y="-416.5" font-family="Helvetica,sans-Serif" font-size="10.00"># _lockValueInRange</text>
<polyline fill="none" stroke="black" points="57.8823,-410.5 168.213,-410.5 "/>
<text text-anchor="start" x="65.8823" y="-398.5" font-family="Helvetica,sans-Serif" font-size="10.00">+ Variable()</text>
<text text-anchor="start" x="65.8823" y="-388.5" font-family="Helvetica,sans-Serif" font-size="10.00">+ Variable()</text>
<text text-anchor="start" x="65.8823" y="-378.5" font-family="Helvetica,sans-Serif" font-size="10.00">+ operator=()</text>
<text text-anchor="start" x="65.8823" y="-368.5" font-family="Helvetica,sans-Serif" font-size="10.00">+ ~Variable()</text>
<text text-anchor="start" x="65.8823" y="-358.5" font-family="Helvetica,sans-Serif" font-size="10.00">+ setName()</text>
<text text-anchor="start" x="65.8823" y="-348.5" font-family="Helvetica,sans-Serif" font-size="10.00">+ getName()</text>
<text text-anchor="start" x="65.8823" y="-338.5" font-family="Helvetica,sans-Serif" font-size="10.00">+ getDescription()</text>
<text text-anchor="start" x="65.8823" y="-328.5" font-family="Helvetica,sans-Serif" font-size="10.00">+ setDescription()</text>
<text text-anchor="start" x="65.8823" y="-318.5" font-family="Helvetica,sans-Serif" font-size="10.00">+ setValue()</text>
<text text-anchor="start" x="65.8823" y="-308.5" font-family="Helvetica,sans-Serif" font-size="10.00">+ getValue()</text>
<text text-anchor="start" x="65.8823" y="-298.5" font-family="Helvetica,sans-Serif" font-size="10.00">+ setRange()</text>
<text text-anchor="start" x="65.8823" y="-288.5" font-family="Helvetica,sans-Serif" font-size="10.00">+ range()</text>
<text text-anchor="start" x="65.8823" y="-278.5" font-family="Helvetica,sans-Serif" font-size="10.00">+ setMinimum()</text>
<text text-anchor="start" x="65.8823" y="-268.5" font-family="Helvetica,sans-Serif" font-size="10.00">+ getMinimum()</text>
<text text-anchor="start" x="65.8823" y="-258.5" font-family="Helvetica,sans-Serif" font-size="10.00">+ setMaximum()</text>
<text text-anchor="start" x="65.8823" y="-248.5" font-family="Helvetica,sans-Serif" font-size="10.00">and 22 more...</text>
</a>
</g>
</g>
<!-- Node3&#45;&gt;Node2 -->
<g id="edge1" class="edge"><title>Node3&#45;&gt;Node2</title>
<path fill="none" stroke="midnightblue" d="M113.048,-232.217C113.048,-222.963 113.048,-213.717 113.048,-204.668"/>
<polygon fill="none" stroke="midnightblue" points="109.548,-232.254 113.048,-242.254 116.548,-232.254 109.548,-232.254"/>
</g>
<!-- Node4 -->
<g id="node3" class="node"><title>Node4</title>
<g id="a_node3"><a xlink:title="STL class. ">
<polygon fill="white" stroke="#bfbfbf" points="24.373,-543.5 24.373,-597.5 83.7227,-597.5 83.7227,-543.5 24.373,-543.5"/>
<text text-anchor="middle" x="54.0479" y="-585.5" font-family="Helvetica,sans-Serif" font-size="10.00">std::string</text>
<polyline fill="none" stroke="#bfbfbf" points="24.373,-579.5 83.7227,-579.5 "/>
<text text-anchor="middle" x="54.0479" y="-567.5" font-family="Helvetica,sans-Serif" font-size="10.00"> </text>
<polyline fill="none" stroke="#bfbfbf" points="24.373,-561.5 83.7227,-561.5 "/>
<text text-anchor="middle" x="54.0479" y="-549.5" font-family="Helvetica,sans-Serif" font-size="10.00"> </text>
</a>
</g>
</g>
<!-- Node4&#45;&gt;Node3 -->
<g id="edge2" class="edge"><title>Node4&#45;&gt;Node3</title>
<path fill="none" stroke="#404040" d="M61.6403,-543.248C65.1805,-531.007 69.6851,-515.432 74.5508,-498.608"/>
<polygon fill="none" stroke="#404040" points="74.6356,-498.315 72.4601,-491.44 77.9697,-486.787 80.1452,-493.662 74.6356,-498.315"/>
<text text-anchor="middle" x="101.789" y="-517" font-family="Helvetica,sans-Serif" font-size="10.00"> #_name</text>
<text text-anchor="middle" x="101.789" y="-507" font-family="Helvetica,sans-Serif" font-size="10.00">#_description</text>
</g>
<!-- Node5 -->
<g id="node4" class="node"><title>Node5</title>
<g id="a_node4"><a xlink:title="STL class. ">
<polygon fill="white" stroke="#bfbfbf" points="0,-704.5 0,-768.5 94.0957,-768.5 94.0957,-704.5 0,-704.5"/>
<text text-anchor="start" x="8" y="-756.5" font-family="Helvetica,sans-Serif" font-size="10.00">std::basic_string&lt;</text>
<text text-anchor="middle" x="47.0479" y="-746.5" font-family="Helvetica,sans-Serif" font-size="10.00"> char &gt;</text>
<polyline fill="none" stroke="#bfbfbf" points="0,-740.5 94.0957,-740.5 "/>
<text text-anchor="middle" x="47.0479" y="-728.5" font-family="Helvetica,sans-Serif" font-size="10.00"> </text>
<polyline fill="none" stroke="#bfbfbf" points="0,-722.5 94.0957,-722.5 "/>
<text text-anchor="middle" x="47.0479" y="-710.5" font-family="Helvetica,sans-Serif" font-size="10.00"> </text>
</a>
</g>
</g>
<!-- Node5&#45;&gt;Node4 -->
<g id="edge3" class="edge"><title>Node5&#45;&gt;Node4</title>
<path fill="none" stroke="midnightblue" d="M48.8185,-694.016C50.1097,-663.765 51.8203,-623.689 52.9274,-597.75"/>
<polygon fill="none" stroke="midnightblue" points="45.3107,-694.127 48.381,-704.267 52.3043,-694.425 45.3107,-694.127"/>
</g>
<!-- Node6 -->
<g id="node5" class="node"><title>Node6</title>
<polygon fill="white" stroke="#bfbfbf" points="108.031,-543.5 108.031,-597.5 224.065,-597.5 224.065,-543.5 108.031,-543.5"/>
<text text-anchor="middle" x="166.048" y="-585.5" font-family="Helvetica,sans-Serif" font-size="10.00">std::vector&lt; fl::Term *&gt;</text>
<polyline fill="none" stroke="#bfbfbf" points="108.031,-579.5 224.065,-579.5 "/>
<text text-anchor="middle" x="166.048" y="-567.5" font-family="Helvetica,sans-Serif" font-size="10.00"> </text>
<polyline fill="none" stroke="#bfbfbf" points="108.031,-561.5 224.065,-561.5 "/>
<text text-anchor="middle" x="166.048" y="-549.5" font-family="Helvetica,sans-Serif" font-size="10.00"> </text>
</g>
<!-- Node6&#45;&gt;Node3 -->
<g id="edge4" class="edge"><title>Node6&#45;&gt;Node3</title>
<path fill="none" stroke="#404040" d="M159.228,-543.248C156.047,-531.007 152.001,-515.432 147.63,-498.608"/>
<polygon fill="none" stroke="#404040" points="147.576,-498.402 142.196,-493.6 144.559,-486.787 149.939,-491.589 147.576,-498.402"/>
<text text-anchor="middle" x="172.499" y="-512" font-family="Helvetica,sans-Serif" font-size="10.00"> #_terms</text>
</g>
<!-- Node7 -->
<g id="node6" class="node"><title>Node7</title>
<g id="a_node6"><a xlink:href="../../d4/de6/classfl_1_1_term.html" target="_top" xlink:title="The Term class is the abstract class for linguistic terms. ">
<polygon fill="white" stroke="black" points="112.047,-644.5 112.047,-828.5 220.049,-828.5 220.049,-644.5 112.047,-644.5"/>
<text text-anchor="middle" x="166.048" y="-816.5" font-family="Helvetica,sans-Serif" font-size="10.00">fl::Term</text>
<polyline fill="none" stroke="black" points="112.047,-810.5 220.049,-810.5 "/>
<text text-anchor="start" x="120.047" y="-798.5" font-family="Helvetica,sans-Serif" font-size="10.00"># _height</text>
<polyline fill="none" stroke="black" points="112.047,-792.5 220.049,-792.5 "/>
<text text-anchor="start" x="120.047" y="-780.5" font-family="Helvetica,sans-Serif" font-size="10.00">+ Term()</text>
<text text-anchor="start" x="120.047" y="-770.5" font-family="Helvetica,sans-Serif" font-size="10.00">+ ~Term()</text>
<text text-anchor="start" x="120.047" y="-760.5" font-family="Helvetica,sans-Serif" font-size="10.00">+ setName()</text>
<text text-anchor="start" x="120.047" y="-750.5" font-family="Helvetica,sans-Serif" font-size="10.00">+ getName()</text>
<text text-anchor="start" x="120.047" y="-740.5" font-family="Helvetica,sans-Serif" font-size="10.00">+ setHeight()</text>
<text text-anchor="start" x="120.047" y="-730.5" font-family="Helvetica,sans-Serif" font-size="10.00">+ getHeight()</text>
<text text-anchor="start" x="120.047" y="-720.5" font-family="Helvetica,sans-Serif" font-size="10.00">+ toString()</text>
<text text-anchor="start" x="120.047" y="-710.5" font-family="Helvetica,sans-Serif" font-size="10.00">+ className()</text>
<text text-anchor="start" x="120.047" y="-700.5" font-family="Helvetica,sans-Serif" font-size="10.00">+ parameters()</text>
<text text-anchor="start" x="120.047" y="-690.5" font-family="Helvetica,sans-Serif" font-size="10.00">+ configure()</text>
<text text-anchor="start" x="120.047" y="-680.5" font-family="Helvetica,sans-Serif" font-size="10.00">+ complexity()</text>
<text text-anchor="start" x="120.047" y="-670.5" font-family="Helvetica,sans-Serif" font-size="10.00">+ membership()</text>
<text text-anchor="start" x="120.047" y="-660.5" font-family="Helvetica,sans-Serif" font-size="10.00">+ clone()</text>
<text text-anchor="start" x="120.047" y="-650.5" font-family="Helvetica,sans-Serif" font-size="10.00">+ updateReference()</text>
</a>
</g>
</g>
<!-- Node7&#45;&gt;Node6 -->
<g id="edge5" class="edge"><title>Node7&#45;&gt;Node6</title>
<path fill="none" stroke="#404040" d="M166.048,-644.388C166.048,-632.228 166.048,-620.338 166.048,-609.807"/>
<polygon fill="none" stroke="#404040" points="166.048,-609.707 162.048,-603.707 166.048,-597.707 170.048,-603.707 166.048,-609.707"/>
<text text-anchor="middle" x="190.645" y="-618" font-family="Helvetica,sans-Serif" font-size="10.00"> +elements</text>
</g>
<!-- Node8 -->
<g id="node7" class="node"><title>Node8</title>
<g id="a_node7"><a xlink:title="STL class. ">
<polygon fill="white" stroke="#bfbfbf" points="238.487,-709.5 238.487,-763.5 323.608,-763.5 323.608,-709.5 238.487,-709.5"/>
<text text-anchor="middle" x="281.048" y="-751.5" font-family="Helvetica,sans-Serif" font-size="10.00">std::vector&lt; T &gt;</text>
<polyline fill="none" stroke="#bfbfbf" points="238.487,-745.5 323.608,-745.5 "/>
<text text-anchor="middle" x="281.048" y="-733.5" font-family="Helvetica,sans-Serif" font-size="10.00"> </text>
<polyline fill="none" stroke="#bfbfbf" points="238.487,-727.5 323.608,-727.5 "/>
<text text-anchor="middle" x="281.048" y="-715.5" font-family="Helvetica,sans-Serif" font-size="10.00"> </text>
</a>
</g>
</g>
<!-- Node8&#45;&gt;Node6 -->
<g id="edge6" class="edge"><title>Node8&#45;&gt;Node6</title>
<path fill="none" stroke="orange" d="M266.877,-699.581C256.01,-674.636 239.432,-641.442 219.048,-616 213.864,-609.53 207.625,-603.315 201.275,-597.688"/>
<polygon fill="orange" stroke="orange" points="263.765,-701.207 270.898,-709.041 270.207,-698.469 263.765,-701.207"/>
<text text-anchor="middle" x="253.39" y="-618" font-family="Helvetica,sans-Serif" font-size="10.00"> &lt; fl::Term *&gt;</text>
</g>
<!-- Node9 -->
<g id="node8" class="node"><title>Node9</title>
<polygon fill="white" stroke="#bfbfbf" points="266.548,-875.5 266.548,-929.5 295.548,-929.5 295.548,-875.5 266.548,-875.5"/>
<text text-anchor="middle" x="280.602" y="-917.5" font-family="Helvetica,sans-Serif" font-size="10.00">T</text>
<polyline fill="none" stroke="#bfbfbf" points="266.548,-911.5 294.656,-911.5 "/>
<text text-anchor="middle" x="280.602" y="-899.5" font-family="Helvetica,sans-Serif" font-size="10.00"> </text>
<polyline fill="none" stroke="#bfbfbf" points="266.548,-893.5 294.656,-893.5 "/>
<text text-anchor="middle" x="280.602" y="-881.5" font-family="Helvetica,sans-Serif" font-size="10.00"> </text>
</g>
<!-- Node9&#45;&gt;Node8 -->
<g id="edge7" class="edge"><title>Node9&#45;&gt;Node8</title>
<path fill="none" stroke="#404040" d="M281.048,-875.151C281.048,-848.293 281.048,-806.354 281.048,-775.822"/>
<polygon fill="none" stroke="#404040" points="281.048,-775.513 277.048,-769.513 281.048,-763.513 285.048,-769.513 281.048,-775.513"/>
<text text-anchor="middle" x="305.645" y="-849" font-family="Helvetica,sans-Serif" font-size="10.00"> +elements</text>
</g>
</g>
</svg>
