<?xml version="1.0" encoding="UTF-8" standalone="no"?>
<!DOCTYPE svg PUBLIC "-//W3C//DTD SVG 1.1//EN"
 "http://www.w3.org/Graphics/SVG/1.1/DTD/svg11.dtd">
<!-- Generated by graphviz version 2.38.0 (20140413.2041)
 -->
<!-- Title: fuzzylite/fl/factory/ActivationFactory.h Pages: 1 -->
<svg width="1149pt" height="477pt"
 viewBox="0.00 0.00 1148.84 477.00" xmlns="http://www.w3.org/2000/svg" xmlns:xlink="http://www.w3.org/1999/xlink">
<g id="graph0" class="graph" transform="scale(1 1) rotate(0) translate(4 473)">
<title>fuzzylite/fl/factory/ActivationFactory.h</title>
<polygon fill="white" stroke="none" points="-4,4 -4,-473 1144.84,-473 1144.84,4 -4,4"/>
<!-- Node0 -->
<g id="node1" class="node"><title>Node0</title>
<polygon fill="#bfbfbf" stroke="black" points="36.4624,-440.5 36.4624,-468.5 139.538,-468.5 139.538,-440.5 36.4624,-440.5"/>
<text text-anchor="start" x="44.4624" y="-456.5" font-family="Helvetica,sans-Serif" font-size="10.00">fuzzylite/fl/factory</text>
<text text-anchor="middle" x="88" y="-446.5" font-family="Helvetica,sans-Serif" font-size="10.00">/ActivationFactory.h</text>
</g>
<!-- Node1 -->
<g id="node2" class="node"><title>Node1</title>
<g id="a_node2"><a xlink:href="../../de/d53/fuzzylite_8h.html" target="_top" xlink:title="fl/fuzzylite.h">
<polygon fill="white" stroke="black" points="394.879,-55.5 394.879,-73.5 463.121,-73.5 463.121,-55.5 394.879,-55.5"/>
<text text-anchor="middle" x="429" y="-61.5" font-family="Helvetica,sans-Serif" font-size="10.00">fl/fuzzylite.h</text>
</a>
</g>
</g>
<!-- Node0&#45;&gt;Node1 -->
<g id="edge1" class="edge"><title>Node0&#45;&gt;Node1</title>
<path fill="none" stroke="midnightblue" d="M68.0314,-440.432C42.0677,-421.682 0,-384.511 0,-340.5 0,-340.5 0,-340.5 0,-173.5 0,-94.8189 274.803,-72.9021 384.53,-67.287"/>
<polygon fill="midnightblue" stroke="midnightblue" points="384.801,-70.778 394.618,-66.7931 384.459,-63.7863 384.801,-70.778"/>
</g>
<!-- Node9 -->
<g id="node10" class="node"><title>Node9</title>
<g id="a_node10"><a xlink:href="../../d7/dd8/_construction_factory_8h.html" target="_top" xlink:title="fl/factory/ConstructionFactory.h">
<polygon fill="white" stroke="black" points="354.177,-385.5 354.177,-403.5 507.823,-403.5 507.823,-385.5 354.177,-385.5"/>
<text text-anchor="middle" x="431" y="-391.5" font-family="Helvetica,sans-Serif" font-size="10.00">fl/factory/ConstructionFactory.h</text>
</a>
</g>
</g>
<!-- Node0&#45;&gt;Node9 -->
<g id="edge9" class="edge"><title>Node0&#45;&gt;Node9</title>
<path fill="none" stroke="midnightblue" d="M139.722,-444.754C202.519,-434.135 308.112,-416.28 373.435,-405.234"/>
<polygon fill="midnightblue" stroke="midnightblue" points="374.284,-408.64 383.56,-403.522 373.117,-401.738 374.284,-408.64"/>
</g>
<!-- Node26 -->
<g id="node27" class="node"><title>Node26</title>
<g id="a_node27"><a xlink:href="../../d4/d75/_activation_8h.html" target="_top" xlink:title="fl/activation/Activation.h">
<polygon fill="white" stroke="black" points="27.7515,-165.5 27.7515,-183.5 148.249,-183.5 148.249,-165.5 27.7515,-165.5"/>
<text text-anchor="middle" x="88" y="-171.5" font-family="Helvetica,sans-Serif" font-size="10.00">fl/activation/Activation.h</text>
</a>
</g>
</g>
<!-- Node0&#45;&gt;Node26 -->
<g id="edge55" class="edge"><title>Node0&#45;&gt;Node26</title>
<path fill="none" stroke="midnightblue" d="M88,-440.279C88,-419.181 88,-376.597 88,-340.5 88,-340.5 88,-340.5 88,-283.5 88,-252.018 88,-215.373 88,-193.881"/>
<polygon fill="midnightblue" stroke="midnightblue" points="91.5001,-193.629 88,-183.629 84.5001,-193.629 91.5001,-193.629"/>
</g>
<!-- Node2 -->
<g id="node3" class="node"><title>Node2</title>
<polygon fill="white" stroke="#bfbfbf" points="721.436,-0.5 721.436,-18.5 778.564,-18.5 778.564,-0.5 721.436,-0.5"/>
<text text-anchor="middle" x="750" y="-6.5" font-family="Helvetica,sans-Serif" font-size="10.00">algorithm</text>
</g>
<!-- Node1&#45;&gt;Node2 -->
<g id="edge2" class="edge"><title>Node1&#45;&gt;Node2</title>
<path fill="none" stroke="midnightblue" d="M463.353,-57.8281C523.563,-47.8868 647.759,-27.3809 711.061,-16.9293"/>
<polygon fill="midnightblue" stroke="midnightblue" points="711.749,-20.3631 721.045,-15.2808 710.608,-13.4566 711.749,-20.3631"/>
</g>
<!-- Node3 -->
<g id="node4" class="node"><title>Node3</title>
<polygon fill="white" stroke="#bfbfbf" points="985.384,-0.5 985.384,-18.5 1028.62,-18.5 1028.62,-0.5 985.384,-0.5"/>
<text text-anchor="middle" x="1007" y="-6.5" font-family="Helvetica,sans-Serif" font-size="10.00">cmath</text>
</g>
<!-- Node1&#45;&gt;Node3 -->
<g id="edge3" class="edge"><title>Node1&#45;&gt;Node3</title>
<path fill="none" stroke="midnightblue" d="M463.426,-60.3433C567.069,-50.8396 875.175,-22.5877 975.232,-13.413"/>
<polygon fill="midnightblue" stroke="midnightblue" points="975.682,-16.8865 985.32,-12.4879 975.043,-9.91575 975.682,-16.8865"/>
</g>
<!-- Node4 -->
<g id="node5" class="node"><title>Node4</title>
<polygon fill="white" stroke="#bfbfbf" points="470.828,-0.5 470.828,-18.5 525.172,-18.5 525.172,-0.5 470.828,-0.5"/>
<text text-anchor="middle" x="498" y="-6.5" font-family="Helvetica,sans-Serif" font-size="10.00">iostream</text>
</g>
<!-- Node1&#45;&gt;Node4 -->
<g id="edge4" class="edge"><title>Node1&#45;&gt;Node4</title>
<path fill="none" stroke="midnightblue" d="M439.48,-55.4504C450.017,-47.3566 466.489,-34.7042 479.276,-24.8822"/>
<polygon fill="midnightblue" stroke="midnightblue" points="481.623,-27.4926 487.422,-18.6253 477.359,-21.9412 481.623,-27.4926"/>
</g>
<!-- Node5 -->
<g id="node6" class="node"><title>Node5</title>
<polygon fill="white" stroke="#bfbfbf" points="543.219,-0.5 543.219,-18.5 594.781,-18.5 594.781,-0.5 543.219,-0.5"/>
<text text-anchor="middle" x="569" y="-6.5" font-family="Helvetica,sans-Serif" font-size="10.00">sstream</text>
</g>
<!-- Node1&#45;&gt;Node5 -->
<g id="edge5" class="edge"><title>Node1&#45;&gt;Node5</title>
<path fill="none" stroke="midnightblue" d="M450.263,-55.4504C473.596,-46.6173 511.271,-32.3546 537.917,-22.267"/>
<polygon fill="midnightblue" stroke="midnightblue" points="539.424,-25.4392 547.537,-18.6253 536.945,-18.8926 539.424,-25.4392"/>
</g>
<!-- Node6 -->
<g id="node7" class="node"><title>Node6</title>
<polygon fill="white" stroke="#bfbfbf" points="278.613,-0.5 278.613,-18.5 317.387,-18.5 317.387,-0.5 278.613,-0.5"/>
<text text-anchor="middle" x="298" y="-6.5" font-family="Helvetica,sans-Serif" font-size="10.00">limits</text>
</g>
<!-- Node1&#45;&gt;Node6 -->
<g id="edge6" class="edge"><title>Node1&#45;&gt;Node6</title>
<path fill="none" stroke="midnightblue" d="M409.104,-55.4504C387.241,-46.6051 351.92,-32.3151 326.981,-22.2252"/>
<polygon fill="midnightblue" stroke="midnightblue" points="328.237,-18.9577 317.654,-18.4517 325.611,-25.4467 328.237,-18.9577"/>
</g>
<!-- Node7 -->
<g id="node8" class="node"><title>Node7</title>
<polygon fill="white" stroke="#bfbfbf" points="334.943,-0.5 334.943,-18.5 387.057,-18.5 387.057,-0.5 334.943,-0.5"/>
<text text-anchor="middle" x="361" y="-6.5" font-family="Helvetica,sans-Serif" font-size="10.00">memory</text>
</g>
<!-- Node1&#45;&gt;Node7 -->
<g id="edge7" class="edge"><title>Node1&#45;&gt;Node7</title>
<path fill="none" stroke="midnightblue" d="M418.672,-55.4504C408.288,-47.3566 392.054,-34.7042 379.453,-24.8822"/>
<polygon fill="midnightblue" stroke="midnightblue" points="381.464,-22.0122 371.425,-18.6253 377.161,-27.5333 381.464,-22.0122"/>
</g>
<!-- Node8 -->
<g id="node9" class="node"><title>Node8</title>
<polygon fill="white" stroke="#bfbfbf" points="404.879,-0.5 404.879,-18.5 453.121,-18.5 453.121,-0.5 404.879,-0.5"/>
<text text-anchor="middle" x="429" y="-6.5" font-family="Helvetica,sans-Serif" font-size="10.00">cstddef</text>
</g>
<!-- Node1&#45;&gt;Node8 -->
<g id="edge8" class="edge"><title>Node1&#45;&gt;Node8</title>
<path fill="none" stroke="midnightblue" d="M429,-55.2188C429,-48.1769 429,-37.8083 429,-28.8277"/>
<polygon fill="midnightblue" stroke="midnightblue" points="432.5,-28.5495 429,-18.5496 425.5,-28.5496 432.5,-28.5495"/>
</g>
<!-- Node9&#45;&gt;Node1 -->
<g id="edge10" class="edge"><title>Node9&#45;&gt;Node1</title>
<path fill="none" stroke="midnightblue" d="M353.941,-386.061C302.204,-379.444 240.28,-367.835 222,-349 164.641,-289.897 180.214,-244.948 200,-165 206.639,-138.175 207.038,-126.773 229,-110 274.145,-75.5198 340.795,-66.7412 384.552,-65.0159"/>
<polygon fill="midnightblue" stroke="midnightblue" points="384.716,-68.5127 394.611,-64.7273 384.515,-61.5156 384.716,-68.5127"/>
</g>
<!-- Node10 -->
<g id="node11" class="node"><title>Node10</title>
<polygon fill="white" stroke="#bfbfbf" points="531.273,-330.5 531.273,-348.5 566.727,-348.5 566.727,-330.5 531.273,-330.5"/>
<text text-anchor="middle" x="549" y="-336.5" font-family="Helvetica,sans-Serif" font-size="10.00">map</text>
</g>
<!-- Node9&#45;&gt;Node10 -->
<g id="edge11" class="edge"><title>Node9&#45;&gt;Node10</title>
<path fill="none" stroke="midnightblue" d="M448.922,-385.45C468.241,-376.773 499.227,-362.856 521.606,-352.804"/>
<polygon fill="midnightblue" stroke="midnightblue" points="523.222,-355.915 530.91,-348.625 520.354,-349.53 523.222,-355.915"/>
</g>
<!-- Node11 -->
<g id="node12" class="node"><title>Node11</title>
<polygon fill="white" stroke="#bfbfbf" points="558.773,-110.5 558.773,-128.5 599.227,-128.5 599.227,-110.5 558.773,-110.5"/>
<text text-anchor="middle" x="579" y="-116.5" font-family="Helvetica,sans-Serif" font-size="10.00">string</text>
</g>
<!-- Node9&#45;&gt;Node11 -->
<g id="edge12" class="edge"><title>Node9&#45;&gt;Node11</title>
<path fill="none" stroke="midnightblue" d="M412.248,-385.469C361.112,-362.39 225.978,-292.847 271,-220 271,-220 381,-165 381,-165 438.609,-144.468 509.128,-131.32 548.562,-124.983"/>
<polygon fill="midnightblue" stroke="midnightblue" points="549.253,-128.417 558.591,-123.411 548.169,-121.502 549.253,-128.417"/>
</g>
<!-- Node12 -->
<g id="node13" class="node"><title>Node12</title>
<polygon fill="white" stroke="#bfbfbf" points="1060.38,-55.5 1060.38,-73.5 1103.62,-73.5 1103.62,-55.5 1060.38,-55.5"/>
<text text-anchor="middle" x="1082" y="-61.5" font-family="Helvetica,sans-Serif" font-size="10.00">vector</text>
</g>
<!-- Node9&#45;&gt;Node12 -->
<g id="edge13" class="edge"><title>Node9&#45;&gt;Node12</title>
<path fill="none" stroke="midnightblue" d="M507.888,-393.487C669.577,-392.709 1033.31,-386.735 1074,-349 1149.68,-278.818 1106.79,-133.49 1088.76,-83.1342"/>
<polygon fill="midnightblue" stroke="midnightblue" points="1092,-81.8142 1085.25,-73.6507 1085.44,-84.2439 1092,-81.8142"/>
</g>
<!-- Node13 -->
<g id="node14" class="node"><title>Node13</title>
<g id="a_node14"><a xlink:href="../../df/d98/_exception_8h.html" target="_top" xlink:title="fl/Exception.h">
<polygon fill="white" stroke="black" points="972.983,-165.5 972.983,-183.5 1049.02,-183.5 1049.02,-165.5 972.983,-165.5"/>
<text text-anchor="middle" x="1011" y="-171.5" font-family="Helvetica,sans-Serif" font-size="10.00">fl/Exception.h</text>
</a>
</g>
</g>
<!-- Node9&#45;&gt;Node13 -->
<g id="edge14" class="edge"><title>Node9&#45;&gt;Node13</title>
<path fill="none" stroke="midnightblue" d="M508.014,-393.729C666.523,-393.394 1017.52,-388.184 1054,-349 1095.56,-304.366 1047.97,-226.014 1023.61,-192.016"/>
<polygon fill="midnightblue" stroke="midnightblue" points="1026.21,-189.636 1017.45,-183.668 1020.58,-193.792 1026.21,-189.636"/>
</g>
<!-- Node15 -->
<g id="node16" class="node"><title>Node15</title>
<g id="a_node16"><a xlink:href="../../d7/d8a/_defuzzifier_8h.html" target="_top" xlink:title="fl/defuzzifier/Defuzzifier.h">
<polygon fill="white" stroke="black" points="490.419,-165.5 490.419,-183.5 617.581,-183.5 617.581,-165.5 490.419,-165.5"/>
<text text-anchor="middle" x="554" y="-171.5" font-family="Helvetica,sans-Serif" font-size="10.00">fl/defuzzifier/Defuzzifier.h</text>
</a>
</g>
</g>
<!-- Node9&#45;&gt;Node15 -->
<g id="edge19" class="edge"><title>Node9&#45;&gt;Node15</title>
<path fill="none" stroke="midnightblue" d="M435.524,-385.483C453.376,-353.841 519.187,-237.2 544.235,-192.808"/>
<polygon fill="midnightblue" stroke="midnightblue" points="547.438,-194.252 549.304,-183.823 541.342,-190.813 547.438,-194.252"/>
</g>
<!-- Node17 -->
<g id="node18" class="node"><title>Node17</title>
<g id="a_node18"><a xlink:href="../../d2/dd9/_hedge_8h.html" target="_top" xlink:title="fl/hedge/Hedge.h">
<polygon fill="white" stroke="black" points="241.914,-165.5 241.914,-183.5 334.086,-183.5 334.086,-165.5 241.914,-165.5"/>
<text text-anchor="middle" x="288" y="-171.5" font-family="Helvetica,sans-Serif" font-size="10.00">fl/hedge/Hedge.h</text>
</a>
</g>
</g>
<!-- Node9&#45;&gt;Node17 -->
<g id="edge25" class="edge"><title>Node9&#45;&gt;Node17</title>
<path fill="none" stroke="midnightblue" d="M354.168,-385.541C306.908,-378.88 252.666,-367.432 238,-349 202.303,-304.136 214.529,-272.309 238,-220 243.649,-207.41 254.816,-196.925 265.166,-189.301"/>
<polygon fill="midnightblue" stroke="midnightblue" points="267.247,-192.118 273.529,-183.586 263.298,-186.339 267.247,-192.118"/>
</g>
<!-- Node18 -->
<g id="node19" class="node"><title>Node18</title>
<g id="a_node19"><a xlink:href="../../de/d44/_s_norm_8h.html" target="_top" xlink:title="fl/norm/SNorm.h">
<polygon fill="white" stroke="black" points="386.604,-220.5 386.604,-238.5 475.396,-238.5 475.396,-220.5 386.604,-220.5"/>
<text text-anchor="middle" x="431" y="-226.5" font-family="Helvetica,sans-Serif" font-size="10.00">fl/norm/SNorm.h</text>
</a>
</g>
</g>
<!-- Node9&#45;&gt;Node18 -->
<g id="edge29" class="edge"><title>Node9&#45;&gt;Node18</title>
<path fill="none" stroke="midnightblue" d="M431,-385.193C431,-360.013 431,-284.114 431,-248.862"/>
<polygon fill="midnightblue" stroke="midnightblue" points="434.5,-248.597 431,-238.597 427.5,-248.597 434.5,-248.597"/>
</g>
<!-- Node20 -->
<g id="node21" class="node"><title>Node20</title>
<g id="a_node21"><a xlink:href="../../d0/d24/_t_norm_8h.html" target="_top" xlink:title="fl/norm/TNorm.h">
<polygon fill="white" stroke="black" points="279.884,-220.5 279.884,-238.5 368.116,-238.5 368.116,-220.5 279.884,-220.5"/>
<text text-anchor="middle" x="324" y="-226.5" font-family="Helvetica,sans-Serif" font-size="10.00">fl/norm/TNorm.h</text>
</a>
</g>
</g>
<!-- Node9&#45;&gt;Node20 -->
<g id="edge34" class="edge"><title>Node9&#45;&gt;Node20</title>
<path fill="none" stroke="midnightblue" d="M425.547,-385.193C408.73,-359.575 357.452,-281.459 334.871,-247.06"/>
<polygon fill="midnightblue" stroke="midnightblue" points="337.729,-245.036 329.315,-238.597 331.877,-248.878 337.729,-245.036"/>
</g>
<!-- Node21 -->
<g id="node22" class="node"><title>Node21</title>
<g id="a_node22"><a xlink:href="../../d8/d11/_term_8h.html" target="_top" xlink:title="fl/term/Term.h">
<polygon fill="white" stroke="black" points="967.441,-330.5 967.441,-348.5 1044.56,-348.5 1044.56,-330.5 967.441,-330.5"/>
<text text-anchor="middle" x="1006" y="-336.5" font-family="Helvetica,sans-Serif" font-size="10.00">fl/term/Term.h</text>
</a>
</g>
</g>
<!-- Node9&#45;&gt;Node21 -->
<g id="edge36" class="edge"><title>Node9&#45;&gt;Node21</title>
<path fill="none" stroke="midnightblue" d="M507.95,-386.407C628.096,-375.333 856.835,-354.249 956.982,-345.018"/>
<polygon fill="midnightblue" stroke="midnightblue" points="957.484,-348.487 967.12,-344.084 956.841,-341.516 957.484,-348.487"/>
</g>
<!-- Node13&#45;&gt;Node1 -->
<g id="edge15" class="edge"><title>Node13&#45;&gt;Node1</title>
<path fill="none" stroke="midnightblue" d="M987.97,-165.494C948.394,-152.037 864.715,-124.899 792,-110 678.407,-86.7252 542.149,-74.0115 473.373,-68.6354"/>
<polygon fill="midnightblue" stroke="midnightblue" points="473.565,-65.14 463.327,-67.8651 473.03,-72.1195 473.565,-65.14"/>
</g>
<!-- Node13&#45;&gt;Node11 -->
<g id="edge17" class="edge"><title>Node13&#45;&gt;Node11</title>
<path fill="none" stroke="midnightblue" d="M972.663,-168.797C888.055,-158.416 686.76,-133.721 609.719,-124.269"/>
<polygon fill="midnightblue" stroke="midnightblue" points="610.049,-120.783 599.698,-123.039 609.197,-127.731 610.049,-120.783"/>
</g>
<!-- Node13&#45;&gt;Node12 -->
<g id="edge18" class="edge"><title>Node13&#45;&gt;Node12</title>
<path fill="none" stroke="midnightblue" d="M1024.43,-165.241C1036.23,-157.326 1053.02,-144.338 1063,-129 1072.02,-115.135 1076.9,-96.819 1079.45,-83.4224"/>
<polygon fill="midnightblue" stroke="midnightblue" points="1082.91,-83.9678 1081.08,-73.532 1076,-82.8303 1082.91,-83.9678"/>
</g>
<!-- Node14 -->
<g id="node15" class="node"><title>Node14</title>
<polygon fill="white" stroke="#bfbfbf" points="995.596,-110.5 995.596,-128.5 1054.4,-128.5 1054.4,-110.5 995.596,-110.5"/>
<text text-anchor="middle" x="1025" y="-116.5" font-family="Helvetica,sans-Serif" font-size="10.00">exception</text>
</g>
<!-- Node13&#45;&gt;Node14 -->
<g id="edge16" class="edge"><title>Node13&#45;&gt;Node14</title>
<path fill="none" stroke="midnightblue" d="M1013.19,-165.219C1015.09,-158.02 1017.91,-147.346 1020.32,-138.231"/>
<polygon fill="midnightblue" stroke="midnightblue" points="1023.7,-139.112 1022.87,-128.55 1016.94,-137.324 1023.7,-139.112"/>
</g>
<!-- Node15&#45;&gt;Node1 -->
<g id="edge20" class="edge"><title>Node15&#45;&gt;Node1</title>
<path fill="none" stroke="midnightblue" d="M550.167,-165.145C543.806,-152.021 529.971,-126.386 512,-110 496.85,-96.1868 476.629,-85.2292 459.939,-77.6437"/>
<polygon fill="midnightblue" stroke="midnightblue" points="461.151,-74.3541 450.585,-73.5711 458.356,-80.7721 461.151,-74.3541"/>
</g>
<!-- Node15&#45;&gt;Node11 -->
<g id="edge24" class="edge"><title>Node15&#45;&gt;Node11</title>
<path fill="none" stroke="midnightblue" d="M557.906,-165.219C561.376,-157.864 566.557,-146.88 570.916,-137.639"/>
<polygon fill="midnightblue" stroke="midnightblue" points="574.102,-139.087 575.203,-128.55 567.771,-136.101 574.102,-139.087"/>
</g>
<!-- Node16 -->
<g id="node17" class="node"><title>Node16</title>
<g id="a_node17"><a xlink:href="../../d5/de4/_complexity_8h.html" target="_top" xlink:title="fl/Complexity.h">
<polygon fill="white" stroke="black" points="422.581,-110.5 422.581,-128.5 503.419,-128.5 503.419,-110.5 422.581,-110.5"/>
<text text-anchor="middle" x="463" y="-116.5" font-family="Helvetica,sans-Serif" font-size="10.00">fl/Complexity.h</text>
</a>
</g>
</g>
<!-- Node15&#45;&gt;Node16 -->
<g id="edge21" class="edge"><title>Node15&#45;&gt;Node16</title>
<path fill="none" stroke="midnightblue" d="M540.179,-165.45C525.748,-157.045 502.875,-143.724 485.77,-133.762"/>
<polygon fill="midnightblue" stroke="midnightblue" points="487.354,-130.634 476.951,-128.625 483.831,-136.683 487.354,-130.634"/>
</g>
<!-- Node16&#45;&gt;Node1 -->
<g id="edge22" class="edge"><title>Node16&#45;&gt;Node1</title>
<path fill="none" stroke="midnightblue" d="M457.688,-110.219C452.869,-102.707 445.622,-91.411 439.618,-82.0515"/>
<polygon fill="midnightblue" stroke="midnightblue" points="442.509,-80.0767 434.164,-73.5496 436.618,-83.8564 442.509,-80.0767"/>
</g>
<!-- Node16&#45;&gt;Node12 -->
<g id="edge23" class="edge"><title>Node16&#45;&gt;Node12</title>
<path fill="none" stroke="midnightblue" d="M503.708,-114.404C518.305,-112.967 534.886,-111.37 550,-110 739.68,-92.8018 967.633,-74.5408 1050.2,-68.0047"/>
<polygon fill="midnightblue" stroke="midnightblue" points="1050.51,-71.4911 1060.2,-67.2138 1049.96,-64.5129 1050.51,-71.4911"/>
</g>
<!-- Node17&#45;&gt;Node1 -->
<g id="edge26" class="edge"><title>Node17&#45;&gt;Node1</title>
<path fill="none" stroke="midnightblue" d="M298.598,-165.382C322.381,-147.166 380.261,-102.832 410.267,-79.8483"/>
<polygon fill="midnightblue" stroke="midnightblue" points="412.469,-82.5711 418.279,-73.7118 408.212,-77.014 412.469,-82.5711"/>
</g>
<!-- Node17&#45;&gt;Node11 -->
<g id="edge28" class="edge"><title>Node17&#45;&gt;Node11</title>
<path fill="none" stroke="midnightblue" d="M332.197,-165.45C391.994,-154.56 497.109,-135.415 548.701,-126.018"/>
<polygon fill="midnightblue" stroke="midnightblue" points="549.359,-129.456 558.57,-124.221 548.105,-122.569 549.359,-129.456"/>
</g>
<!-- Node17&#45;&gt;Node16 -->
<g id="edge27" class="edge"><title>Node17&#45;&gt;Node16</title>
<path fill="none" stroke="midnightblue" d="M314.579,-165.45C344.474,-156.396 393.204,-141.638 426.618,-131.519"/>
<polygon fill="midnightblue" stroke="midnightblue" points="427.902,-134.787 436.458,-128.538 425.873,-128.087 427.902,-134.787"/>
</g>
<!-- Node19 -->
<g id="node20" class="node"><title>Node19</title>
<g id="a_node20"><a xlink:href="../../d7/d72/_norm_8h.html" target="_top" xlink:title="fl/norm/Norm.h">
<polygon fill="white" stroke="black" points="389.938,-165.5 389.938,-183.5 472.062,-183.5 472.062,-165.5 389.938,-165.5"/>
<text text-anchor="middle" x="431" y="-171.5" font-family="Helvetica,sans-Serif" font-size="10.00">fl/norm/Norm.h</text>
</a>
</g>
</g>
<!-- Node18&#45;&gt;Node19 -->
<g id="edge30" class="edge"><title>Node18&#45;&gt;Node19</title>
<path fill="none" stroke="midnightblue" d="M431,-220.219C431,-213.177 431,-202.808 431,-193.828"/>
<polygon fill="midnightblue" stroke="midnightblue" points="434.5,-193.55 431,-183.55 427.5,-193.55 434.5,-193.55"/>
</g>
<!-- Node19&#45;&gt;Node1 -->
<g id="edge31" class="edge"><title>Node19&#45;&gt;Node1</title>
<path fill="none" stroke="midnightblue" d="M426.79,-165.236C422.593,-156.496 416.431,-142.175 414,-129 411.11,-113.335 415.921,-95.7189 420.845,-83.0223"/>
<polygon fill="midnightblue" stroke="midnightblue" points="424.132,-84.2362 424.841,-73.665 417.695,-81.487 424.132,-84.2362"/>
</g>
<!-- Node19&#45;&gt;Node11 -->
<g id="edge33" class="edge"><title>Node19&#45;&gt;Node11</title>
<path fill="none" stroke="midnightblue" d="M453.478,-165.45C478.973,-156.32 520.666,-141.39 548.94,-131.265"/>
<polygon fill="midnightblue" stroke="midnightblue" points="550.461,-134.438 558.695,-127.771 548.101,-127.848 550.461,-134.438"/>
</g>
<!-- Node19&#45;&gt;Node16 -->
<g id="edge32" class="edge"><title>Node19&#45;&gt;Node16</title>
<path fill="none" stroke="midnightblue" d="M436,-165.219C440.488,-157.786 447.214,-146.646 452.83,-137.345"/>
<polygon fill="midnightblue" stroke="midnightblue" points="455.967,-138.919 458.14,-128.55 449.975,-135.301 455.967,-138.919"/>
</g>
<!-- Node20&#45;&gt;Node19 -->
<g id="edge35" class="edge"><title>Node20&#45;&gt;Node19</title>
<path fill="none" stroke="midnightblue" d="M340.251,-220.45C357.613,-211.851 385.364,-198.105 405.612,-188.075"/>
<polygon fill="midnightblue" stroke="midnightblue" points="407.189,-191.2 414.596,-183.625 404.082,-184.928 407.189,-191.2"/>
</g>
<!-- Node21&#45;&gt;Node1 -->
<g id="edge37" class="edge"><title>Node21&#45;&gt;Node1</title>
<path fill="none" stroke="midnightblue" d="M967.264,-337.349C808.255,-332.12 214,-307.432 214,-230.5 214,-230.5 214,-230.5 214,-173.5 214,-97.9246 321.391,-75.2295 384.376,-68.418"/>
<polygon fill="midnightblue" stroke="midnightblue" points="384.849,-71.8884 394.457,-67.4217 384.161,-64.9223 384.849,-71.8884"/>
</g>
<!-- Node21&#45;&gt;Node3 -->
<g id="edge52" class="edge"><title>Node21&#45;&gt;Node3</title>
<path fill="none" stroke="midnightblue" d="M1019.95,-330.228C1032.25,-322.304 1049.89,-309.31 1061,-294 1124.84,-206.01 1173.18,-145.531 1113,-55 1096.66,-30.4211 1063.83,-19.3895 1039.01,-14.4554"/>
<polygon fill="midnightblue" stroke="midnightblue" points="1039.39,-10.9686 1028.94,-12.6925 1038.18,-17.8639 1039.39,-10.9686"/>
</g>
<!-- Node21&#45;&gt;Node11 -->
<g id="edge53" class="edge"><title>Node21&#45;&gt;Node11</title>
<path fill="none" stroke="midnightblue" d="M1010.48,-330.307C1021.19,-309.515 1045.52,-253.948 1020,-220 994.831,-186.512 704.924,-139.677 609.351,-125.048"/>
<polygon fill="midnightblue" stroke="midnightblue" points="609.859,-121.585 599.447,-123.541 608.806,-128.506 609.859,-121.585"/>
</g>
<!-- Node21&#45;&gt;Node12 -->
<g id="edge54" class="edge"><title>Node21&#45;&gt;Node12</title>
<path fill="none" stroke="midnightblue" d="M1014.42,-330.433C1022.65,-322.073 1034.96,-308.254 1042,-294 1075.43,-226.353 1073.05,-203.925 1082,-129 1083.8,-113.914 1083.66,-96.6686 1083.15,-83.9602"/>
<polygon fill="midnightblue" stroke="midnightblue" points="1086.64,-83.5619 1082.62,-73.757 1079.65,-83.9251 1086.64,-83.5619"/>
</g>
<!-- Node21&#45;&gt;Node16 -->
<g id="edge51" class="edge"><title>Node21&#45;&gt;Node16</title>
<path fill="none" stroke="midnightblue" d="M992.241,-330.484C957.341,-310.338 862.227,-256.585 779,-220 713.232,-191.09 695.503,-186.647 627,-165 586.083,-152.07 538.719,-139.467 505.443,-130.994"/>
<polygon fill="midnightblue" stroke="midnightblue" points="506.144,-127.561 495.591,-128.501 504.427,-134.348 506.144,-127.561"/>
</g>
<!-- Node22 -->
<g id="node23" class="node"><title>Node22</title>
<g id="a_node23"><a xlink:href="../../d6/dd6/_operation_8h.html" target="_top" xlink:title="fl/Operation.h">
<polygon fill="white" stroke="black" points="739.983,-275.5 739.983,-293.5 816.017,-293.5 816.017,-275.5 739.983,-275.5"/>
<text text-anchor="middle" x="778" y="-281.5" font-family="Helvetica,sans-Serif" font-size="10.00">fl/Operation.h</text>
</a>
</g>
</g>
<!-- Node21&#45;&gt;Node22 -->
<g id="edge38" class="edge"><title>Node21&#45;&gt;Node22</title>
<path fill="none" stroke="midnightblue" d="M971.372,-330.45C931.499,-321.182 865.91,-305.935 822.338,-295.807"/>
<polygon fill="midnightblue" stroke="midnightblue" points="823.113,-292.393 812.58,-293.538 821.528,-299.212 823.113,-292.393"/>
</g>
<!-- Node22&#45;&gt;Node1 -->
<g id="edge39" class="edge"><title>Node22&#45;&gt;Node1</title>
<path fill="none" stroke="midnightblue" d="M783.758,-275.13C791.46,-262.838 803.341,-239.275 796,-220 784.348,-189.405 773.836,-183.752 747,-165 661.481,-105.241 538.629,-80.2988 473.49,-70.7759"/>
<polygon fill="midnightblue" stroke="midnightblue" points="473.936,-67.3042 463.546,-69.3769 472.961,-74.236 473.936,-67.3042"/>
</g>
<!-- Node22&#45;&gt;Node2 -->
<g id="edge47" class="edge"><title>Node22&#45;&gt;Node2</title>
<path fill="none" stroke="midnightblue" d="M798.118,-275.42C830.846,-260.792 892,-226.618 892,-175.5 892,-175.5 892,-175.5 892,-118.5 892,-66.313 830.487,-36.0375 788.433,-21.4373"/>
<polygon fill="midnightblue" stroke="midnightblue" points="789.329,-18.0471 778.736,-18.2249 787.128,-24.692 789.329,-18.0471"/>
</g>
<!-- Node22&#45;&gt;Node11 -->
<g id="edge41" class="edge"><title>Node22&#45;&gt;Node11</title>
<path fill="none" stroke="midnightblue" d="M780.728,-275.349C784.493,-262.505 789.683,-237.247 779,-220 741.582,-159.591 655.272,-134.684 609.225,-125.405"/>
<polygon fill="midnightblue" stroke="midnightblue" points="609.717,-121.936 599.24,-123.512 608.413,-128.814 609.717,-121.936"/>
</g>
<!-- Node22&#45;&gt;Node12 -->
<g id="edge42" class="edge"><title>Node22&#45;&gt;Node12</title>
<path fill="none" stroke="midnightblue" d="M816.282,-277.2C843.596,-271.143 879.955,-259.734 906,-239 958.965,-196.836 936.287,-154.847 987,-110 1005.44,-93.6923 1030.89,-82.1998 1050.81,-74.984"/>
<polygon fill="midnightblue" stroke="midnightblue" points="1052.06,-78.2565 1060.37,-71.6902 1049.78,-71.6383 1052.06,-78.2565"/>
</g>
<!-- Node22&#45;&gt;Node13 -->
<g id="edge40" class="edge"><title>Node22&#45;&gt;Node13</title>
<path fill="none" stroke="midnightblue" d="M816.283,-278.733C851.302,-273.136 903.644,-261.587 944,-239 965.541,-226.944 985.416,-206.407 997.831,-191.96"/>
<polygon fill="midnightblue" stroke="midnightblue" points="1000.85,-193.809 1004.55,-183.881 995.462,-189.335 1000.85,-193.809"/>
</g>
<!-- Node22&#45;&gt;Node15 -->
<g id="edge43" class="edge"><title>Node22&#45;&gt;Node15</title>
<path fill="none" stroke="midnightblue" d="M778.038,-275.115C777.619,-261.473 774.706,-234.541 759,-220 739.928,-202.342 678.395,-190.541 627.679,-183.555"/>
<polygon fill="midnightblue" stroke="midnightblue" points="628.071,-180.077 617.696,-182.222 627.145,-187.015 628.071,-180.077"/>
</g>
<!-- Node22&#45;&gt;Node18 -->
<g id="edge45" class="edge"><title>Node22&#45;&gt;Node18</title>
<path fill="none" stroke="midnightblue" d="M739.872,-277.676C678.204,-268.257 556.352,-249.646 485.526,-238.828"/>
<polygon fill="midnightblue" stroke="midnightblue" points="485.873,-235.341 475.459,-237.291 484.816,-242.26 485.873,-235.341"/>
</g>
<!-- Node22&#45;&gt;Node19 -->
<g id="edge44" class="edge"><title>Node22&#45;&gt;Node19</title>
<path fill="none" stroke="midnightblue" d="M739.804,-278.726C695.657,-272.521 621.223,-259.929 560,-239 520.834,-225.611 478.284,-202.926 453.166,-188.604"/>
<polygon fill="midnightblue" stroke="midnightblue" points="454.846,-185.533 444.436,-183.562 451.345,-191.594 454.846,-185.533"/>
</g>
<!-- Node22&#45;&gt;Node20 -->
<g id="edge46" class="edge"><title>Node22&#45;&gt;Node20</title>
<path fill="none" stroke="midnightblue" d="M739.874,-279.84C670.325,-273.036 517.977,-257.553 378.22,-238.965"/>
<polygon fill="midnightblue" stroke="midnightblue" points="378.556,-235.479 368.181,-237.621 377.628,-242.417 378.556,-235.479"/>
</g>
<!-- Node23 -->
<g id="node24" class="node"><title>Node23</title>
<polygon fill="white" stroke="#bfbfbf" points="569.49,-220.5 569.49,-238.5 620.51,-238.5 620.51,-220.5 569.49,-220.5"/>
<text text-anchor="middle" x="595" y="-226.5" font-family="Helvetica,sans-Serif" font-size="10.00">iomanip</text>
</g>
<!-- Node22&#45;&gt;Node23 -->
<g id="edge48" class="edge"><title>Node22&#45;&gt;Node23</title>
<path fill="none" stroke="midnightblue" d="M750.206,-275.45C718.173,-266.173 665.458,-250.906 630.487,-240.778"/>
<polygon fill="midnightblue" stroke="midnightblue" points="631.265,-237.359 620.686,-237.939 629.318,-244.083 631.265,-237.359"/>
</g>
<!-- Node24 -->
<g id="node25" class="node"><title>Node24</title>
<polygon fill="white" stroke="#bfbfbf" points="638.604,-220.5 638.604,-238.5 687.396,-238.5 687.396,-220.5 638.604,-220.5"/>
<text text-anchor="middle" x="663" y="-226.5" font-family="Helvetica,sans-Serif" font-size="10.00">cstdarg</text>
</g>
<!-- Node22&#45;&gt;Node24 -->
<g id="edge49" class="edge"><title>Node22&#45;&gt;Node24</title>
<path fill="none" stroke="midnightblue" d="M760.534,-275.45C741.79,-266.812 711.778,-252.98 689.992,-242.94"/>
<polygon fill="midnightblue" stroke="midnightblue" points="691.177,-239.632 680.63,-238.625 688.247,-245.99 691.177,-239.632"/>
</g>
<!-- Node25 -->
<g id="node26" class="node"><title>Node25</title>
<polygon fill="white" stroke="#bfbfbf" points="705.549,-220.5 705.549,-238.5 750.451,-238.5 750.451,-220.5 705.549,-220.5"/>
<text text-anchor="middle" x="728" y="-226.5" font-family="Helvetica,sans-Serif" font-size="10.00">cctype</text>
</g>
<!-- Node22&#45;&gt;Node25 -->
<g id="edge50" class="edge"><title>Node22&#45;&gt;Node25</title>
<path fill="none" stroke="midnightblue" d="M770.188,-275.219C762.806,-267.394 751.55,-255.463 742.521,-245.892"/>
<polygon fill="midnightblue" stroke="midnightblue" points="745.002,-243.422 735.594,-238.55 739.91,-248.225 745.002,-243.422"/>
</g>
<!-- Node26&#45;&gt;Node1 -->
<g id="edge56" class="edge"><title>Node26&#45;&gt;Node1</title>
<path fill="none" stroke="midnightblue" d="M94.7867,-165.291C106.774,-151.404 133.167,-123.474 162,-110 234.993,-75.8886 329.974,-67.5081 384.751,-65.6932"/>
<polygon fill="midnightblue" stroke="midnightblue" points="384.924,-69.1899 394.825,-65.419 384.733,-62.1925 384.924,-69.1899"/>
</g>
<!-- Node26&#45;&gt;Node16 -->
<g id="edge57" class="edge"><title>Node26&#45;&gt;Node16</title>
<path fill="none" stroke="midnightblue" d="M144.954,-165.45C217.745,-155.163 342.647,-137.51 412.297,-127.666"/>
<polygon fill="midnightblue" stroke="midnightblue" points="413.16,-131.079 422.572,-126.214 412.181,-124.148 413.16,-131.079"/>
</g>
</g>
</svg>
