<?xml version="1.0" encoding="UTF-8" standalone="no"?>
<!DOCTYPE svg PUBLIC "-//W3C//DTD SVG 1.1//EN"
 "http://www.w3.org/Graphics/SVG/1.1/DTD/svg11.dtd">
<!-- Generated by graphviz version 2.38.0 (20140413.2041)
 -->
<!-- Title: fl::FL_IFINAL Pages: 1 -->
<svg width="363pt" height="705pt"
 viewBox="0.00 0.00 362.55 705.00" xmlns="http://www.w3.org/2000/svg" xmlns:xlink="http://www.w3.org/1999/xlink">
<g id="graph0" class="graph" transform="scale(1 1) rotate(0) translate(4 701)">
<title>fl::FL_IFINAL</title>
<polygon fill="white" stroke="none" points="-4,4 -4,-701 358.55,-701 358.55,4 -4,4"/>
<!-- Node0 -->
<g id="node1" class="node"><title>Node0</title>
<polygon fill="#bfbfbf" stroke="black" points="174.743,-0.5 174.743,-414.5 273.843,-414.5 273.843,-0.5 174.743,-0.5"/>
<text text-anchor="middle" x="224.293" y="-402.5" font-family="Helvetica,sans-Serif" font-size="10.00">fl::FL_IFINAL</text>
<polyline fill="none" stroke="black" points="174.743,-396.5 273.843,-396.5 "/>
<text text-anchor="start" x="182.743" y="-384.5" font-family="Helvetica,sans-Serif" font-size="10.00">+ variable</text>
<text text-anchor="start" x="182.743" y="-374.5" font-family="Helvetica,sans-Serif" font-size="10.00">+ hedges</text>
<text text-anchor="start" x="182.743" y="-364.5" font-family="Helvetica,sans-Serif" font-size="10.00">+ term</text>
<text text-anchor="start" x="182.743" y="-354.5" font-family="Helvetica,sans-Serif" font-size="10.00">+ name</text>
<text text-anchor="start" x="182.743" y="-344.5" font-family="Helvetica,sans-Serif" font-size="10.00">+ left</text>
<text text-anchor="start" x="182.743" y="-334.5" font-family="Helvetica,sans-Serif" font-size="10.00">+ right</text>
<polyline fill="none" stroke="black" points="174.743,-328.5 273.843,-328.5 "/>
<text text-anchor="start" x="182.743" y="-316.5" font-family="Helvetica,sans-Serif" font-size="10.00">+ name()</text>
<text text-anchor="start" x="182.743" y="-306.5" font-family="Helvetica,sans-Serif" font-size="10.00">+ complexity()</text>
<text text-anchor="start" x="182.743" y="-296.5" font-family="Helvetica,sans-Serif" font-size="10.00">+ hedge()</text>
<text text-anchor="start" x="182.743" y="-286.5" font-family="Helvetica,sans-Serif" font-size="10.00">+ clone()</text>
<text text-anchor="start" x="182.743" y="-276.5" font-family="Helvetica,sans-Serif" font-size="10.00">+ HedgeFunction()</text>
<text text-anchor="start" x="182.743" y="-266.5" font-family="Helvetica,sans-Serif" font-size="10.00">+ name()</text>
<text text-anchor="start" x="182.743" y="-256.5" font-family="Helvetica,sans-Serif" font-size="10.00">+ function()</text>
<text text-anchor="start" x="182.743" y="-246.5" font-family="Helvetica,sans-Serif" font-size="10.00">+ setFormula()</text>
<text text-anchor="start" x="182.743" y="-236.5" font-family="Helvetica,sans-Serif" font-size="10.00">+ getFormula()</text>
<text text-anchor="start" x="182.743" y="-226.5" font-family="Helvetica,sans-Serif" font-size="10.00">+ complexity()</text>
<text text-anchor="start" x="182.743" y="-216.5" font-family="Helvetica,sans-Serif" font-size="10.00">+ hedge()</text>
<text text-anchor="start" x="182.743" y="-206.5" font-family="Helvetica,sans-Serif" font-size="10.00">+ clone()</text>
<text text-anchor="start" x="182.743" y="-196.5" font-family="Helvetica,sans-Serif" font-size="10.00">+ name()</text>
<text text-anchor="start" x="182.743" y="-186.5" font-family="Helvetica,sans-Serif" font-size="10.00">+ complexity()</text>
<text text-anchor="start" x="182.743" y="-176.5" font-family="Helvetica,sans-Serif" font-size="10.00">+ hedge()</text>
<text text-anchor="start" x="182.743" y="-166.5" font-family="Helvetica,sans-Serif" font-size="10.00">and 101 more...</text>
<text text-anchor="start" x="182.743" y="-156.5" font-family="Helvetica,sans-Serif" font-size="10.00">+ constructor()</text>
<text text-anchor="start" x="182.743" y="-146.5" font-family="Helvetica,sans-Serif" font-size="10.00">+ constructor()</text>
<text text-anchor="start" x="182.743" y="-136.5" font-family="Helvetica,sans-Serif" font-size="10.00">+ constructor()</text>
<text text-anchor="start" x="182.743" y="-126.5" font-family="Helvetica,sans-Serif" font-size="10.00">+ constructor()</text>
<text text-anchor="start" x="182.743" y="-116.5" font-family="Helvetica,sans-Serif" font-size="10.00">+ constructor()</text>
<text text-anchor="start" x="182.743" y="-106.5" font-family="Helvetica,sans-Serif" font-size="10.00">+ constructor()</text>
<text text-anchor="start" x="182.743" y="-96.5" font-family="Helvetica,sans-Serif" font-size="10.00">+ constructor()</text>
<text text-anchor="start" x="182.743" y="-86.5" font-family="Helvetica,sans-Serif" font-size="10.00">+ constructor()</text>
<text text-anchor="start" x="182.743" y="-76.5" font-family="Helvetica,sans-Serif" font-size="10.00">+ constructor()</text>
<text text-anchor="start" x="182.743" y="-66.5" font-family="Helvetica,sans-Serif" font-size="10.00">+ constructor()</text>
<text text-anchor="start" x="182.743" y="-56.5" font-family="Helvetica,sans-Serif" font-size="10.00">+ constructor()</text>
<text text-anchor="start" x="182.743" y="-46.5" font-family="Helvetica,sans-Serif" font-size="10.00">+ constructor()</text>
<text text-anchor="start" x="182.743" y="-36.5" font-family="Helvetica,sans-Serif" font-size="10.00">+ constructor()</text>
<text text-anchor="start" x="182.743" y="-26.5" font-family="Helvetica,sans-Serif" font-size="10.00">+ constructor()</text>
<text text-anchor="start" x="182.743" y="-16.5" font-family="Helvetica,sans-Serif" font-size="10.00">+ constructor()</text>
<text text-anchor="start" x="182.743" y="-6.5" font-family="Helvetica,sans-Serif" font-size="10.00">and 9 more...</text>
</g>
<!-- Node1 -->
<g id="node2" class="node"><title>Node1</title>
<g id="a_node2"><a xlink:href="../../d2/d7f/classfl_1_1_expression.html" target="_top" xlink:title="The Expression class is the base class to build an expression tree. ">
<polygon fill="white" stroke="black" points="0,-461.5 0,-545.5 86.5859,-545.5 86.5859,-461.5 0,-461.5"/>
<text text-anchor="middle" x="43.293" y="-533.5" font-family="Helvetica,sans-Serif" font-size="10.00">fl::Expression</text>
<polyline fill="none" stroke="black" points="0,-527.5 86.5859,-527.5 "/>
<text text-anchor="middle" x="43.293" y="-515.5" font-family="Helvetica,sans-Serif" font-size="10.00"> </text>
<polyline fill="none" stroke="black" points="0,-509.5 86.5859,-509.5 "/>
<text text-anchor="start" x="8" y="-497.5" font-family="Helvetica,sans-Serif" font-size="10.00">+ Expression()</text>
<text text-anchor="start" x="8" y="-487.5" font-family="Helvetica,sans-Serif" font-size="10.00">+ ~Expression()</text>
<text text-anchor="start" x="8" y="-477.5" font-family="Helvetica,sans-Serif" font-size="10.00">+ type()</text>
<text text-anchor="start" x="8" y="-467.5" font-family="Helvetica,sans-Serif" font-size="10.00">+ toString()</text>
</a>
</g>
</g>
<!-- Node1&#45;&gt;Node0 -->
<g id="edge1" class="edge"><title>Node1&#45;&gt;Node0</title>
<path fill="none" stroke="midnightblue" d="M68.8854,-452.445C96.3333,-404.96 140.344,-333.119 174.591,-279.682"/>
<polygon fill="none" stroke="midnightblue" points="65.7385,-450.897 63.7919,-461.311 71.8082,-454.384 65.7385,-450.897"/>
</g>
<!-- Node1&#45;&gt;Node0 -->
<g id="edge2" class="edge"><title>Node1&#45;&gt;Node0</title>
<path fill="none" stroke="midnightblue" d="M79.0123,-452.936C106.395,-411.043 144.373,-349.941 174.677,-299.31"/>
<polygon fill="none" stroke="midnightblue" points="76.0756,-451.032 73.5098,-461.311 81.9259,-454.875 76.0756,-451.032"/>
</g>
<!-- Node2 -->
<g id="node3" class="node"><title>Node2</title>
<g id="a_node3"><a xlink:href="../../d6/d29/classfl_1_1_t_norm.html" target="_top" xlink:title="The TNorm class is the base class for T&#45;Norms, and it is utilized as the conjunction fuzzy logic oper...">
<polygon fill="white" stroke="black" points="104.458,-466.5 104.458,-540.5 172.128,-540.5 172.128,-466.5 104.458,-466.5"/>
<text text-anchor="middle" x="138.293" y="-528.5" font-family="Helvetica,sans-Serif" font-size="10.00">fl::TNorm</text>
<polyline fill="none" stroke="black" points="104.458,-522.5 172.128,-522.5 "/>
<text text-anchor="middle" x="138.293" y="-510.5" font-family="Helvetica,sans-Serif" font-size="10.00"> </text>
<polyline fill="none" stroke="black" points="104.458,-504.5 172.128,-504.5 "/>
<text text-anchor="start" x="112.458" y="-492.5" font-family="Helvetica,sans-Serif" font-size="10.00">+ TNorm()</text>
<text text-anchor="start" x="112.458" y="-482.5" font-family="Helvetica,sans-Serif" font-size="10.00">+ ~TNorm()</text>
<text text-anchor="start" x="112.458" y="-472.5" font-family="Helvetica,sans-Serif" font-size="10.00">+ clone()</text>
</a>
</g>
</g>
<!-- Node2&#45;&gt;Node0 -->
<g id="edge3" class="edge"><title>Node2&#45;&gt;Node0</title>
<path fill="none" stroke="midnightblue" d="M116.295,-456.341C116.736,-401.64 143.151,-310.977 174.643,-255.787"/>
<polygon fill="none" stroke="midnightblue" points="112.798,-456.537 116.538,-466.45 119.796,-456.368 112.798,-456.537"/>
</g>
<!-- Node2&#45;&gt;Node0 -->
<g id="edge5" class="edge"><title>Node2&#45;&gt;Node0</title>
<path fill="none" stroke="midnightblue" d="M126.433,-456.393C130.692,-408.604 151.424,-333.328 174.678,-278.255"/>
<polygon fill="none" stroke="midnightblue" points="122.936,-456.24 125.767,-466.45 129.92,-456.703 122.936,-456.24"/>
</g>
<!-- Node2&#45;&gt;Node0 -->
<g id="edge6" class="edge"><title>Node2&#45;&gt;Node0</title>
<path fill="none" stroke="midnightblue" d="M136.549,-456.528C143.133,-417.833 158.333,-361.047 174.719,-311.572"/>
<polygon fill="none" stroke="midnightblue" points="133.084,-456.029 134.995,-466.45 140,-457.112 133.084,-456.029"/>
</g>
<!-- Node2&#45;&gt;Node0 -->
<g id="edge7" class="edge"><title>Node2&#45;&gt;Node0</title>
<path fill="none" stroke="midnightblue" d="M146.637,-456.686C153.604,-428.996 163.861,-392 174.677,-355.042"/>
<polygon fill="none" stroke="midnightblue" points="143.225,-455.902 144.224,-466.45 150.021,-457.582 143.225,-455.902"/>
</g>
<!-- Node2&#45;&gt;Node0 -->
<g id="edge8" class="edge"><title>Node2&#45;&gt;Node0</title>
<path fill="none" stroke="midnightblue" d="M156.731,-456.749C162.158,-440.474 168.331,-420.979 174.693,-400.163"/>
<polygon fill="none" stroke="midnightblue" points="153.338,-455.856 153.453,-466.45 159.97,-458.097 153.338,-455.856"/>
</g>
<!-- Node2&#45;&gt;Node0 -->
<g id="edge9" class="edge"><title>Node2&#45;&gt;Node0</title>
<path fill="none" stroke="midnightblue" d="M166.628,-457.26C171.849,-444.73 177.284,-430.264 182.676,-414.738"/>
<polygon fill="none" stroke="midnightblue" points="163.411,-455.88 162.681,-466.45 169.843,-458.643 163.411,-455.88"/>
</g>
<!-- Node2&#45;&gt;Node0 -->
<g id="edge10" class="edge"><title>Node2&#45;&gt;Node0</title>
<path fill="none" stroke="midnightblue" d="M176.696,-457.26C182.954,-444.73 189.192,-430.264 195.151,-414.738"/>
<polygon fill="none" stroke="midnightblue" points="173.424,-455.964 171.91,-466.45 179.633,-459.197 173.424,-455.964"/>
</g>
<!-- Node2&#45;&gt;Node0 -->
<g id="edge11" class="edge"><title>Node2&#45;&gt;Node0</title>
<path fill="none" stroke="midnightblue" d="M178.417,-470.557C188.708,-455.444 198.694,-436.008 207.7,-414.559"/>
<polygon fill="none" stroke="midnightblue" points="175.374,-468.79 172.328,-478.938 181.037,-472.905 175.374,-468.79"/>
</g>
<!-- Node3 -->
<g id="node4" class="node"><title>Node3</title>
<g id="a_node4"><a xlink:href="../../d5/d22/classfl_1_1_norm.html" target="_top" xlink:title="The Norm class is the abstract class for norms. ">
<polygon fill="white" stroke="black" points="140.925,-592.5 140.925,-696.5 221.661,-696.5 221.661,-592.5 140.925,-592.5"/>
<text text-anchor="middle" x="181.293" y="-684.5" font-family="Helvetica,sans-Serif" font-size="10.00">fl::Norm</text>
<polyline fill="none" stroke="black" points="140.925,-678.5 221.661,-678.5 "/>
<text text-anchor="middle" x="181.293" y="-666.5" font-family="Helvetica,sans-Serif" font-size="10.00"> </text>
<polyline fill="none" stroke="black" points="140.925,-660.5 221.661,-660.5 "/>
<text text-anchor="start" x="148.925" y="-648.5" font-family="Helvetica,sans-Serif" font-size="10.00">+ Norm()</text>
<text text-anchor="start" x="148.925" y="-638.5" font-family="Helvetica,sans-Serif" font-size="10.00">+ ~Norm()</text>
<text text-anchor="start" x="148.925" y="-628.5" font-family="Helvetica,sans-Serif" font-size="10.00">+ className()</text>
<text text-anchor="start" x="148.925" y="-618.5" font-family="Helvetica,sans-Serif" font-size="10.00">+ complexity()</text>
<text text-anchor="start" x="148.925" y="-608.5" font-family="Helvetica,sans-Serif" font-size="10.00">+ compute()</text>
<text text-anchor="start" x="148.925" y="-598.5" font-family="Helvetica,sans-Serif" font-size="10.00">+ clone()</text>
</a>
</g>
</g>
<!-- Node3&#45;&gt;Node2 -->
<g id="edge4" class="edge"><title>Node3&#45;&gt;Node2</title>
<path fill="none" stroke="midnightblue" d="M162.401,-582.431C158.017,-568.26 153.487,-553.615 149.553,-540.899"/>
<polygon fill="none" stroke="midnightblue" points="159.104,-583.618 165.404,-592.136 165.792,-581.549 159.104,-583.618"/>
</g>
<!-- Node4 -->
<g id="node5" class="node"><title>Node4</title>
<g id="a_node5"><a xlink:href="../../d4/df8/classfl_1_1_s_norm.html" target="_top" xlink:title="The SNorm class is the base class for all S&#45;Norms, and it is utilized as the disjunction fuzzy logic ...">
<polygon fill="white" stroke="black" points="190.177,-466.5 190.177,-540.5 258.409,-540.5 258.409,-466.5 190.177,-466.5"/>
<text text-anchor="middle" x="224.293" y="-528.5" font-family="Helvetica,sans-Serif" font-size="10.00">fl::SNorm</text>
<polyline fill="none" stroke="black" points="190.177,-522.5 258.409,-522.5 "/>
<text text-anchor="middle" x="224.293" y="-510.5" font-family="Helvetica,sans-Serif" font-size="10.00"> </text>
<polyline fill="none" stroke="black" points="190.177,-504.5 258.409,-504.5 "/>
<text text-anchor="start" x="198.177" y="-492.5" font-family="Helvetica,sans-Serif" font-size="10.00">+ SNorm()</text>
<text text-anchor="start" x="198.177" y="-482.5" font-family="Helvetica,sans-Serif" font-size="10.00">+ ~SNorm()</text>
<text text-anchor="start" x="198.177" y="-472.5" font-family="Helvetica,sans-Serif" font-size="10.00">+ clone()</text>
</a>
</g>
</g>
<!-- Node3&#45;&gt;Node4 -->
<g id="edge13" class="edge"><title>Node3&#45;&gt;Node4</title>
<path fill="none" stroke="midnightblue" d="M200.185,-582.431C204.569,-568.26 209.099,-553.615 213.033,-540.899"/>
<polygon fill="none" stroke="midnightblue" points="196.794,-581.549 197.182,-592.136 203.481,-583.618 196.794,-581.549"/>
</g>
<!-- Node4&#45;&gt;Node0 -->
<g id="edge12" class="edge"><title>Node4&#45;&gt;Node0</title>
<path fill="none" stroke="midnightblue" d="M184.992,-471.1C160.361,-422.432 156.944,-328.013 174.74,-266.651"/>
<polygon fill="none" stroke="midnightblue" points="182.025,-472.964 190.018,-479.918 188.107,-469.497 182.025,-472.964"/>
</g>
<!-- Node4&#45;&gt;Node0 -->
<g id="edge14" class="edge"><title>Node4&#45;&gt;Node0</title>
<path fill="none" stroke="midnightblue" d="M188.95,-456.891C185.37,-444.446 182.598,-430.111 180.633,-414.738"/>
<polygon fill="none" stroke="midnightblue" points="185.624,-457.983 191.993,-466.45 192.294,-455.859 185.624,-457.983"/>
</g>
<!-- Node4&#45;&gt;Node0 -->
<g id="edge15" class="edge"><title>Node4&#45;&gt;Node0</title>
<path fill="none" stroke="midnightblue" d="M198.972,-456.521C196.452,-444.162 194.497,-429.959 193.107,-414.738"/>
<polygon fill="none" stroke="midnightblue" points="195.598,-457.47 201.222,-466.45 202.425,-455.924 195.598,-457.47"/>
</g>
<!-- Node4&#45;&gt;Node0 -->
<g id="edge16" class="edge"><title>Node4&#45;&gt;Node0</title>
<path fill="none" stroke="midnightblue" d="M209.1,-456.521C207.588,-444.162 206.415,-429.959 205.581,-414.738"/>
<polygon fill="none" stroke="midnightblue" points="205.635,-457.012 210.45,-466.45 212.571,-456.069 205.635,-457.012"/>
</g>
<!-- Node4&#45;&gt;Node0 -->
<g id="edge17" class="edge"><title>Node4&#45;&gt;Node0</title>
<path fill="none" stroke="midnightblue" d="M219.214,-456.15C218.717,-443.878 218.331,-429.807 218.056,-414.738"/>
<polygon fill="none" stroke="midnightblue" points="215.731,-456.618 219.679,-466.45 222.724,-456.302 215.731,-456.618"/>
</g>
<!-- Node4&#45;&gt;Node0 -->
<g id="edge18" class="edge"><title>Node4&#45;&gt;Node0</title>
<path fill="none" stroke="midnightblue" d="M229.372,-456.15C229.869,-443.878 230.255,-429.807 230.53,-414.738"/>
<polygon fill="none" stroke="midnightblue" points="225.862,-456.302 228.907,-466.45 232.855,-456.618 225.862,-456.302"/>
</g>
<!-- Node4&#45;&gt;Node0 -->
<g id="edge19" class="edge"><title>Node4&#45;&gt;Node0</title>
<path fill="none" stroke="midnightblue" d="M239.486,-456.521C240.998,-444.162 242.171,-429.959 243.004,-414.738"/>
<polygon fill="none" stroke="midnightblue" points="236.015,-456.069 238.136,-466.45 242.951,-457.012 236.015,-456.069"/>
</g>
<!-- Node4&#45;&gt;Node0 -->
<g id="edge20" class="edge"><title>Node4&#45;&gt;Node0</title>
<path fill="none" stroke="midnightblue" d="M249.614,-456.521C252.134,-444.162 254.089,-429.959 255.479,-414.738"/>
<polygon fill="none" stroke="midnightblue" points="246.161,-455.924 247.364,-466.45 252.988,-457.47 246.161,-455.924"/>
</g>
<!-- Node4&#45;&gt;Node0 -->
<g id="edge21" class="edge"><title>Node4&#45;&gt;Node0</title>
<path fill="none" stroke="midnightblue" d="M259.636,-456.891C263.216,-444.446 265.988,-430.111 267.953,-414.738"/>
<polygon fill="none" stroke="midnightblue" points="256.292,-455.859 256.593,-466.45 262.962,-457.983 256.292,-455.859"/>
</g>
<!-- Node4&#45;&gt;Node0 -->
<g id="edge22" class="edge"><title>Node4&#45;&gt;Node0</title>
<path fill="none" stroke="midnightblue" d="M263.594,-471.1C288.225,-422.432 291.642,-328.013 273.846,-266.651"/>
<polygon fill="none" stroke="midnightblue" points="260.479,-469.497 258.568,-479.918 266.561,-472.964 260.479,-469.497"/>
</g>
<!-- Node5 -->
<g id="node6" class="node"><title>Node5</title>
<g id="a_node6"><a xlink:href="../../d3/dba/classfl_1_1_hedge.html" target="_top" xlink:title="The Hedge class is the abstract class for hedges. ">
<polygon fill="white" stroke="black" points="276.036,-451.5 276.036,-555.5 354.55,-555.5 354.55,-451.5 276.036,-451.5"/>
<text text-anchor="middle" x="315.293" y="-543.5" font-family="Helvetica,sans-Serif" font-size="10.00">fl::Hedge</text>
<polyline fill="none" stroke="black" points="276.036,-537.5 354.55,-537.5 "/>
<text text-anchor="middle" x="315.293" y="-525.5" font-family="Helvetica,sans-Serif" font-size="10.00"> </text>
<polyline fill="none" stroke="black" points="276.036,-519.5 354.55,-519.5 "/>
<text text-anchor="start" x="284.036" y="-507.5" font-family="Helvetica,sans-Serif" font-size="10.00">+ Hedge()</text>
<text text-anchor="start" x="284.036" y="-497.5" font-family="Helvetica,sans-Serif" font-size="10.00">+ ~Hedge()</text>
<text text-anchor="start" x="284.036" y="-487.5" font-family="Helvetica,sans-Serif" font-size="10.00">+ name()</text>
<text text-anchor="start" x="284.036" y="-477.5" font-family="Helvetica,sans-Serif" font-size="10.00">+ complexity()</text>
<text text-anchor="start" x="284.036" y="-467.5" font-family="Helvetica,sans-Serif" font-size="10.00">+ hedge()</text>
<text text-anchor="start" x="284.036" y="-457.5" font-family="Helvetica,sans-Serif" font-size="10.00">+ clone()</text>
</a>
</g>
</g>
<!-- Node5&#45;&gt;Node0 -->
<g id="edge23" class="edge"><title>Node5&#45;&gt;Node0</title>
<path fill="none" stroke="midnightblue" d="M271.404,-447.793C266.484,-437.575 261.596,-426.358 256.859,-414.529"/>
<polygon fill="none" stroke="midnightblue" points="268.339,-449.491 275.928,-456.885 274.607,-446.373 268.339,-449.491"/>
</g>
<!-- Node5&#45;&gt;Node0 -->
<g id="edge24" class="edge"><title>Node5&#45;&gt;Node0</title>
<path fill="none" stroke="midnightblue" d="M279.787,-441.901C276.35,-433.348 272.86,-424.19 269.379,-414.633"/>
<polygon fill="none" stroke="midnightblue" points="276.606,-443.368 283.641,-451.289 283.081,-440.709 276.606,-443.368"/>
</g>
<!-- Node5&#45;&gt;Node0 -->
<g id="edge25" class="edge"><title>Node5&#45;&gt;Node0</title>
<path fill="none" stroke="midnightblue" d="M290.919,-441.801C285.585,-426.123 279.772,-408.417 273.871,-389.942"/>
<polygon fill="none" stroke="midnightblue" points="287.619,-442.967 294.175,-451.289 294.24,-440.694 287.619,-442.967"/>
</g>
<!-- Node5&#45;&gt;Node0 -->
<g id="edge26" class="edge"><title>Node5&#45;&gt;Node0</title>
<path fill="none" stroke="midnightblue" d="M301.987,-441.428C294.297,-413.865 284.224,-380.092 273.872,-346.905"/>
<polygon fill="none" stroke="midnightblue" points="298.674,-442.581 304.709,-451.289 305.422,-440.718 298.674,-442.581"/>
</g>
<!-- Node5&#45;&gt;Node0 -->
<g id="edge27" class="edge"><title>Node5&#45;&gt;Node0</title>
<path fill="none" stroke="midnightblue" d="M313.126,-441.17C304.629,-402.274 289.587,-351.086 273.886,-306.628"/>
<polygon fill="none" stroke="midnightblue" points="309.769,-442.218 315.243,-451.289 316.621,-440.784 309.769,-442.218"/>
</g>
<!-- Node5&#45;&gt;Node0 -->
<g id="edge28" class="edge"><title>Node5&#45;&gt;Node0</title>
<path fill="none" stroke="midnightblue" d="M324.353,-441.272C316.74,-392.914 296.162,-325.509 273.952,-275.673"/>
<polygon fill="none" stroke="midnightblue" points="320.904,-441.881 325.776,-451.289 327.834,-440.896 320.904,-441.881"/>
</g>
</g>
</svg>
