<?xml version="1.0" encoding="UTF-8" standalone="no"?>
<!DOCTYPE svg PUBLIC "-//W3C//DTD SVG 1.1//EN"
 "http://www.w3.org/Graphics/SVG/1.1/DTD/svg11.dtd">
<!-- Generated by graphviz version 2.38.0 (20140413.2041)
 -->
<!-- Title: fuzzylite/fl/factory/TermFactory.h Pages: 1 -->
<svg width="1074pt" height="477pt"
 viewBox="0.00 0.00 1074.00 477.00" xmlns="http://www.w3.org/2000/svg" xmlns:xlink="http://www.w3.org/1999/xlink">
<g id="graph0" class="graph" transform="scale(1 1) rotate(0) translate(4 473)">
<title>fuzzylite/fl/factory/TermFactory.h</title>
<polygon fill="white" stroke="none" points="-4,4 -4,-473 1070,-473 1070,4 -4,4"/>
<!-- Node0 -->
<g id="node1" class="node"><title>Node0</title>
<polygon fill="#bfbfbf" stroke="black" points="372.655,-440.5 372.655,-468.5 465.345,-468.5 465.345,-440.5 372.655,-440.5"/>
<text text-anchor="start" x="380.655" y="-456.5" font-family="Helvetica,sans-Serif" font-size="10.00">fuzzylite/fl/factory</text>
<text text-anchor="middle" x="419" y="-446.5" font-family="Helvetica,sans-Serif" font-size="10.00">/TermFactory.h</text>
</g>
<!-- Node1 -->
<g id="node2" class="node"><title>Node1</title>
<g id="a_node2"><a xlink:href="../../d7/dd8/_construction_factory_8h.html" target="_top" xlink:title="fl/factory/ConstructionFactory.h">
<polygon fill="white" stroke="black" points="169.177,-385.5 169.177,-403.5 322.823,-403.5 322.823,-385.5 169.177,-385.5"/>
<text text-anchor="middle" x="246" y="-391.5" font-family="Helvetica,sans-Serif" font-size="10.00">fl/factory/ConstructionFactory.h</text>
</a>
</g>
</g>
<!-- Node0&#45;&gt;Node1 -->
<g id="edge1" class="edge"><title>Node0&#45;&gt;Node1</title>
<path fill="none" stroke="midnightblue" d="M380.175,-440.484C349.966,-430.356 308.473,-416.445 279.66,-406.785"/>
<polygon fill="midnightblue" stroke="midnightblue" points="280.631,-403.419 270.037,-403.559 278.406,-410.056 280.631,-403.419"/>
</g>
<!-- Node21 -->
<g id="node22" class="node"><title>Node21</title>
<g id="a_node22"><a xlink:href="../../d8/d11/_term_8h.html" target="_top" xlink:title="fl/term/Term.h">
<polygon fill="white" stroke="black" points="794.441,-330.5 794.441,-348.5 871.559,-348.5 871.559,-330.5 794.441,-330.5"/>
<text text-anchor="middle" x="833" y="-336.5" font-family="Helvetica,sans-Serif" font-size="10.00">fl/term/Term.h</text>
</a>
</g>
</g>
<!-- Node0&#45;&gt;Node21 -->
<g id="edge54" class="edge"><title>Node0&#45;&gt;Node21</title>
<path fill="none" stroke="midnightblue" d="M465.686,-440.757C547.954,-418.302 717.269,-372.089 793.852,-351.185"/>
<polygon fill="midnightblue" stroke="midnightblue" points="794.864,-354.537 803.59,-348.527 793.021,-347.784 794.864,-354.537"/>
</g>
<!-- Node2 -->
<g id="node3" class="node"><title>Node2</title>
<g id="a_node3"><a xlink:href="../../de/d53/fuzzylite_8h.html" target="_top" xlink:title="fl/fuzzylite.h">
<polygon fill="white" stroke="black" points="456.879,-55.5 456.879,-73.5 525.121,-73.5 525.121,-55.5 456.879,-55.5"/>
<text text-anchor="middle" x="491" y="-61.5" font-family="Helvetica,sans-Serif" font-size="10.00">fl/fuzzylite.h</text>
</a>
</g>
</g>
<!-- Node1&#45;&gt;Node2 -->
<g id="edge2" class="edge"><title>Node1&#45;&gt;Node2</title>
<path fill="none" stroke="midnightblue" d="M169.176,-390.912C96.9967,-383.879 0,-360.479 0,-285.5 0,-285.5 0,-285.5 0,-173.5 0,-131.823 31.0222,-127.165 69,-110 135.567,-79.9142 352.247,-69.7365 446.516,-66.6774"/>
<polygon fill="midnightblue" stroke="midnightblue" points="446.702,-70.1734 456.588,-66.3627 446.483,-63.1768 446.702,-70.1734"/>
</g>
<!-- Node10 -->
<g id="node11" class="node"><title>Node10</title>
<polygon fill="white" stroke="#bfbfbf" points="228.273,-330.5 228.273,-348.5 263.727,-348.5 263.727,-330.5 228.273,-330.5"/>
<text text-anchor="middle" x="246" y="-336.5" font-family="Helvetica,sans-Serif" font-size="10.00">map</text>
</g>
<!-- Node1&#45;&gt;Node10 -->
<g id="edge10" class="edge"><title>Node1&#45;&gt;Node10</title>
<path fill="none" stroke="midnightblue" d="M246,-385.219C246,-378.177 246,-367.808 246,-358.828"/>
<polygon fill="midnightblue" stroke="midnightblue" points="249.5,-358.55 246,-348.55 242.5,-358.55 249.5,-358.55"/>
</g>
<!-- Node11 -->
<g id="node12" class="node"><title>Node11</title>
<polygon fill="white" stroke="#bfbfbf" points="357.773,-110.5 357.773,-128.5 398.227,-128.5 398.227,-110.5 357.773,-110.5"/>
<text text-anchor="middle" x="378" y="-116.5" font-family="Helvetica,sans-Serif" font-size="10.00">string</text>
</g>
<!-- Node1&#45;&gt;Node11 -->
<g id="edge11" class="edge"><title>Node1&#45;&gt;Node11</title>
<path fill="none" stroke="midnightblue" d="M237.564,-385.442C229.315,-377.088 217.004,-363.274 210,-349 184.726,-297.49 179.044,-271.17 205,-220 232.959,-164.88 305.953,-138.264 347.645,-127.192"/>
<polygon fill="midnightblue" stroke="midnightblue" points="348.681,-130.541 357.523,-124.705 346.971,-123.753 348.681,-130.541"/>
</g>
<!-- Node12 -->
<g id="node13" class="node"><title>Node12</title>
<polygon fill="white" stroke="#bfbfbf" points="873.384,-55.5 873.384,-73.5 916.616,-73.5 916.616,-55.5 873.384,-55.5"/>
<text text-anchor="middle" x="895" y="-61.5" font-family="Helvetica,sans-Serif" font-size="10.00">vector</text>
</g>
<!-- Node1&#45;&gt;Node12 -->
<g id="edge12" class="edge"><title>Node1&#45;&gt;Node12</title>
<path fill="none" stroke="midnightblue" d="M322.996,-386.1C436.285,-372.292 651.181,-334.763 806,-239 857.411,-207.2 866.98,-186.381 886,-129 890.882,-114.273 893.115,-96.7645 894.138,-83.866"/>
<polygon fill="midnightblue" stroke="midnightblue" points="897.653,-83.7254 894.777,-73.5284 890.666,-83.2932 897.653,-83.7254"/>
</g>
<!-- Node13 -->
<g id="node14" class="node"><title>Node13</title>
<g id="a_node14"><a xlink:href="../../df/d98/_exception_8h.html" target="_top" xlink:title="fl/Exception.h">
<polygon fill="white" stroke="black" points="27.9829,-165.5 27.9829,-183.5 104.017,-183.5 104.017,-165.5 27.9829,-165.5"/>
<text text-anchor="middle" x="66" y="-171.5" font-family="Helvetica,sans-Serif" font-size="10.00">fl/Exception.h</text>
</a>
</g>
</g>
<!-- Node1&#45;&gt;Node13 -->
<g id="edge13" class="edge"><title>Node1&#45;&gt;Node13</title>
<path fill="none" stroke="midnightblue" d="M204.844,-385.438C181.732,-379.029 153.839,-367.891 135,-349 90.7848,-304.662 74.01,-228.454 68.4389,-193.714"/>
<polygon fill="midnightblue" stroke="midnightblue" points="71.8735,-193.012 66.9557,-183.628 64.948,-194.031 71.8735,-193.012"/>
</g>
<!-- Node15 -->
<g id="node16" class="node"><title>Node15</title>
<g id="a_node16"><a xlink:href="../../d7/d8a/_defuzzifier_8h.html" target="_top" xlink:title="fl/defuzzifier/Defuzzifier.h">
<polygon fill="white" stroke="black" points="270.419,-165.5 270.419,-183.5 397.581,-183.5 397.581,-165.5 270.419,-165.5"/>
<text text-anchor="middle" x="334" y="-171.5" font-family="Helvetica,sans-Serif" font-size="10.00">fl/defuzzifier/Defuzzifier.h</text>
</a>
</g>
</g>
<!-- Node1&#45;&gt;Node15 -->
<g id="edge18" class="edge"><title>Node1&#45;&gt;Node15</title>
<path fill="none" stroke="midnightblue" d="M239.1,-385.294C232.467,-376.826 222.894,-362.924 219,-349 203.559,-293.785 186.59,-267.294 219,-220 230.284,-203.534 248.606,-193.159 267.34,-186.623"/>
<polygon fill="midnightblue" stroke="midnightblue" points="268.65,-189.88 277.14,-183.542 266.551,-183.202 268.65,-189.88"/>
</g>
<!-- Node17 -->
<g id="node18" class="node"><title>Node17</title>
<g id="a_node18"><a xlink:href="../../d2/dd9/_hedge_8h.html" target="_top" xlink:title="fl/hedge/Hedge.h">
<polygon fill="white" stroke="black" points="121.914,-165.5 121.914,-183.5 214.086,-183.5 214.086,-165.5 121.914,-165.5"/>
<text text-anchor="middle" x="168" y="-171.5" font-family="Helvetica,sans-Serif" font-size="10.00">fl/hedge/Hedge.h</text>
</a>
</g>
</g>
<!-- Node1&#45;&gt;Node17 -->
<g id="edge24" class="edge"><title>Node1&#45;&gt;Node17</title>
<path fill="none" stroke="midnightblue" d="M203.705,-385.439C183.181,-379.169 160.345,-368.164 148,-349 116.951,-300.802 135.981,-276.059 148,-220 150.022,-210.566 154.205,-200.718 158.224,-192.691"/>
<polygon fill="midnightblue" stroke="midnightblue" points="161.421,-194.135 163.054,-183.666 155.25,-190.832 161.421,-194.135"/>
</g>
<!-- Node18 -->
<g id="node19" class="node"><title>Node18</title>
<g id="a_node19"><a xlink:href="../../de/d44/_s_norm_8h.html" target="_top" xlink:title="fl/norm/SNorm.h">
<polygon fill="white" stroke="black" points="227.604,-220.5 227.604,-238.5 316.396,-238.5 316.396,-220.5 227.604,-220.5"/>
<text text-anchor="middle" x="272" y="-226.5" font-family="Helvetica,sans-Serif" font-size="10.00">fl/norm/SNorm.h</text>
</a>
</g>
</g>
<!-- Node1&#45;&gt;Node18 -->
<g id="edge28" class="edge"><title>Node1&#45;&gt;Node18</title>
<path fill="none" stroke="midnightblue" d="M252.9,-385.294C259.533,-376.826 269.106,-362.924 273,-349 282.618,-314.605 278.733,-272.368 275.234,-248.74"/>
<polygon fill="midnightblue" stroke="midnightblue" points="278.669,-248.059 273.609,-238.751 271.76,-249.183 278.669,-248.059"/>
</g>
<!-- Node20 -->
<g id="node21" class="node"><title>Node20</title>
<g id="a_node21"><a xlink:href="../../d0/d24/_t_norm_8h.html" target="_top" xlink:title="fl/norm/TNorm.h">
<polygon fill="white" stroke="black" points="371.884,-220.5 371.884,-238.5 460.116,-238.5 460.116,-220.5 371.884,-220.5"/>
<text text-anchor="middle" x="416" y="-226.5" font-family="Helvetica,sans-Serif" font-size="10.00">fl/norm/TNorm.h</text>
</a>
</g>
</g>
<!-- Node1&#45;&gt;Node20 -->
<g id="edge33" class="edge"><title>Node1&#45;&gt;Node20</title>
<path fill="none" stroke="midnightblue" d="M254.664,-385.193C281.724,-359.247 364.95,-279.448 400.086,-245.759"/>
<polygon fill="midnightblue" stroke="midnightblue" points="402.759,-248.044 407.555,-238.597 397.915,-242.992 402.759,-248.044"/>
</g>
<!-- Node1&#45;&gt;Node21 -->
<g id="edge35" class="edge"><title>Node1&#45;&gt;Node21</title>
<path fill="none" stroke="midnightblue" d="M322.954,-388.596C426.221,-381.66 615.264,-367.713 776,-349 778.702,-348.685 781.473,-348.342 784.268,-347.979"/>
<polygon fill="midnightblue" stroke="midnightblue" points="784.975,-351.415 794.412,-346.597 784.031,-344.479 784.975,-351.415"/>
</g>
<!-- Node3 -->
<g id="node4" class="node"><title>Node3</title>
<polygon fill="white" stroke="#bfbfbf" points="838.436,-0.5 838.436,-18.5 895.564,-18.5 895.564,-0.5 838.436,-0.5"/>
<text text-anchor="middle" x="867" y="-6.5" font-family="Helvetica,sans-Serif" font-size="10.00">algorithm</text>
</g>
<!-- Node2&#45;&gt;Node3 -->
<g id="edge3" class="edge"><title>Node2&#45;&gt;Node3</title>
<path fill="none" stroke="midnightblue" d="M525.364,-58.6561C595.431,-48.7797 754.388,-26.3735 828.109,-15.982"/>
<polygon fill="midnightblue" stroke="midnightblue" points="828.933,-19.4005 838.347,-14.5389 827.956,-12.469 828.933,-19.4005"/>
</g>
<!-- Node4 -->
<g id="node5" class="node"><title>Node4</title>
<polygon fill="white" stroke="#bfbfbf" points="995.384,-0.5 995.384,-18.5 1038.62,-18.5 1038.62,-0.5 995.384,-0.5"/>
<text text-anchor="middle" x="1017" y="-6.5" font-family="Helvetica,sans-Serif" font-size="10.00">cmath</text>
</g>
<!-- Node2&#45;&gt;Node4 -->
<g id="edge4" class="edge"><title>Node2&#45;&gt;Node4</title>
<path fill="none" stroke="midnightblue" d="M525.512,-60.0225C621.697,-50.3309 891.813,-23.1139 984.952,-13.7291"/>
<polygon fill="midnightblue" stroke="midnightblue" points="985.563,-17.1854 995.162,-12.7005 984.861,-10.2207 985.563,-17.1854"/>
</g>
<!-- Node5 -->
<g id="node6" class="node"><title>Node5</title>
<polygon fill="white" stroke="#bfbfbf" points="600.828,-0.5 600.828,-18.5 655.172,-18.5 655.172,-0.5 600.828,-0.5"/>
<text text-anchor="middle" x="628" y="-6.5" font-family="Helvetica,sans-Serif" font-size="10.00">iostream</text>
</g>
<!-- Node2&#45;&gt;Node5 -->
<g id="edge5" class="edge"><title>Node2&#45;&gt;Node5</title>
<path fill="none" stroke="midnightblue" d="M511.807,-55.4504C534.64,-46.6173 571.508,-32.3546 597.583,-22.267"/>
<polygon fill="midnightblue" stroke="midnightblue" points="598.933,-25.4977 606.997,-18.6253 596.408,-18.9692 598.933,-25.4977"/>
</g>
<!-- Node6 -->
<g id="node7" class="node"><title>Node6</title>
<polygon fill="white" stroke="#bfbfbf" points="339.219,-0.5 339.219,-18.5 390.781,-18.5 390.781,-0.5 339.219,-0.5"/>
<text text-anchor="middle" x="365" y="-6.5" font-family="Helvetica,sans-Serif" font-size="10.00">sstream</text>
</g>
<!-- Node2&#45;&gt;Node6 -->
<g id="edge6" class="edge"><title>Node2&#45;&gt;Node6</title>
<path fill="none" stroke="midnightblue" d="M471.863,-55.4504C451.049,-46.6951 417.553,-32.6055 393.611,-22.5346"/>
<polygon fill="midnightblue" stroke="midnightblue" points="394.892,-19.2765 384.317,-18.6253 392.177,-25.7289 394.892,-19.2765"/>
</g>
<!-- Node7 -->
<g id="node8" class="node"><title>Node7</title>
<polygon fill="white" stroke="#bfbfbf" points="408.613,-0.5 408.613,-18.5 447.387,-18.5 447.387,-0.5 408.613,-0.5"/>
<text text-anchor="middle" x="428" y="-6.5" font-family="Helvetica,sans-Serif" font-size="10.00">limits</text>
</g>
<!-- Node2&#45;&gt;Node7 -->
<g id="edge7" class="edge"><title>Node2&#45;&gt;Node7</title>
<path fill="none" stroke="midnightblue" d="M481.432,-55.4504C471.903,-47.4345 457.06,-34.9471 445.433,-25.1663"/>
<polygon fill="midnightblue" stroke="midnightblue" points="447.564,-22.3847 437.658,-18.6253 443.057,-27.7413 447.564,-22.3847"/>
</g>
<!-- Node8 -->
<g id="node9" class="node"><title>Node8</title>
<polygon fill="white" stroke="#bfbfbf" points="464.943,-0.5 464.943,-18.5 517.057,-18.5 517.057,-0.5 464.943,-0.5"/>
<text text-anchor="middle" x="491" y="-6.5" font-family="Helvetica,sans-Serif" font-size="10.00">memory</text>
</g>
<!-- Node2&#45;&gt;Node8 -->
<g id="edge8" class="edge"><title>Node2&#45;&gt;Node8</title>
<path fill="none" stroke="midnightblue" d="M491,-55.2188C491,-48.1769 491,-37.8083 491,-28.8277"/>
<polygon fill="midnightblue" stroke="midnightblue" points="494.5,-28.5495 491,-18.5496 487.5,-28.5496 494.5,-28.5495"/>
</g>
<!-- Node9 -->
<g id="node10" class="node"><title>Node9</title>
<polygon fill="white" stroke="#bfbfbf" points="534.879,-0.5 534.879,-18.5 583.121,-18.5 583.121,-0.5 534.879,-0.5"/>
<text text-anchor="middle" x="559" y="-6.5" font-family="Helvetica,sans-Serif" font-size="10.00">cstddef</text>
</g>
<!-- Node2&#45;&gt;Node9 -->
<g id="edge9" class="edge"><title>Node2&#45;&gt;Node9</title>
<path fill="none" stroke="midnightblue" d="M501.328,-55.4504C511.712,-47.3566 527.946,-34.7042 540.547,-24.8822"/>
<polygon fill="midnightblue" stroke="midnightblue" points="542.839,-27.5333 548.575,-18.6253 538.536,-22.0122 542.839,-27.5333"/>
</g>
<!-- Node13&#45;&gt;Node2 -->
<g id="edge14" class="edge"><title>Node13&#45;&gt;Node2</title>
<path fill="none" stroke="midnightblue" d="M65.7914,-165.37C65.9232,-151.602 68.3789,-123.847 85,-110 112.394,-87.1777 347.358,-72.7481 446.819,-67.6111"/>
<polygon fill="midnightblue" stroke="midnightblue" points="447.045,-71.1043 456.854,-67.1007 446.689,-64.1133 447.045,-71.1043"/>
</g>
<!-- Node13&#45;&gt;Node11 -->
<g id="edge16" class="edge"><title>Node13&#45;&gt;Node11</title>
<path fill="none" stroke="midnightblue" d="M104.212,-166.548C107.185,-166.02 110.141,-165.499 113,-165 197.99,-150.179 298.477,-133.549 347.72,-125.458"/>
<polygon fill="midnightblue" stroke="midnightblue" points="348.404,-128.892 357.705,-123.819 347.27,-121.985 348.404,-128.892"/>
</g>
<!-- Node13&#45;&gt;Node12 -->
<g id="edge17" class="edge"><title>Node13&#45;&gt;Node12</title>
<path fill="none" stroke="midnightblue" d="M95.4852,-165.454C146.658,-151.812 255.413,-124.242 349,-110 542.887,-80.4938 778.689,-69.649 863.077,-66.5467"/>
<polygon fill="midnightblue" stroke="midnightblue" points="863.416,-70.0369 873.285,-66.1825 863.166,-63.0414 863.416,-70.0369"/>
</g>
<!-- Node14 -->
<g id="node15" class="node"><title>Node14</title>
<polygon fill="white" stroke="#bfbfbf" points="93.5962,-110.5 93.5962,-128.5 152.404,-128.5 152.404,-110.5 93.5962,-110.5"/>
<text text-anchor="middle" x="123" y="-116.5" font-family="Helvetica,sans-Serif" font-size="10.00">exception</text>
</g>
<!-- Node13&#45;&gt;Node14 -->
<g id="edge15" class="edge"><title>Node13&#45;&gt;Node14</title>
<path fill="none" stroke="midnightblue" d="M74.9062,-165.219C83.4052,-157.316 96.41,-145.224 106.754,-135.606"/>
<polygon fill="midnightblue" stroke="midnightblue" points="109.403,-137.922 114.343,-128.55 104.636,-132.796 109.403,-137.922"/>
</g>
<!-- Node15&#45;&gt;Node2 -->
<g id="edge19" class="edge"><title>Node15&#45;&gt;Node2</title>
<path fill="none" stroke="midnightblue" d="M333.531,-165.313C333.231,-151.956 334.645,-125.423 349,-110 373.986,-83.1548 414.924,-72.3986 446.44,-68.1427"/>
<polygon fill="midnightblue" stroke="midnightblue" points="447.207,-71.5768 456.73,-66.9347 446.39,-64.6245 447.207,-71.5768"/>
</g>
<!-- Node15&#45;&gt;Node11 -->
<g id="edge23" class="edge"><title>Node15&#45;&gt;Node11</title>
<path fill="none" stroke="midnightblue" d="M340.875,-165.219C347.241,-157.551 356.881,-145.939 364.743,-136.469"/>
<polygon fill="midnightblue" stroke="midnightblue" points="367.623,-138.479 371.317,-128.55 362.237,-134.008 367.623,-138.479"/>
</g>
<!-- Node16 -->
<g id="node17" class="node"><title>Node16</title>
<g id="a_node17"><a xlink:href="../../d5/de4/_complexity_8h.html" target="_top" xlink:title="fl/Complexity.h">
<polygon fill="white" stroke="black" points="416.581,-110.5 416.581,-128.5 497.419,-128.5 497.419,-110.5 416.581,-110.5"/>
<text text-anchor="middle" x="457" y="-116.5" font-family="Helvetica,sans-Serif" font-size="10.00">fl/Complexity.h</text>
</a>
</g>
</g>
<!-- Node15&#45;&gt;Node16 -->
<g id="edge20" class="edge"><title>Node15&#45;&gt;Node16</title>
<path fill="none" stroke="midnightblue" d="M352.681,-165.45C372.91,-156.734 405.408,-142.731 428.758,-132.669"/>
<polygon fill="midnightblue" stroke="midnightblue" points="430.344,-135.797 438.143,-128.625 427.574,-129.368 430.344,-135.797"/>
</g>
<!-- Node16&#45;&gt;Node2 -->
<g id="edge21" class="edge"><title>Node16&#45;&gt;Node2</title>
<path fill="none" stroke="midnightblue" d="M462.312,-110.219C467.131,-102.707 474.378,-91.411 480.382,-82.0515"/>
<polygon fill="midnightblue" stroke="midnightblue" points="483.382,-83.8564 485.836,-73.5496 477.491,-80.0767 483.382,-83.8564"/>
</g>
<!-- Node16&#45;&gt;Node12 -->
<g id="edge22" class="edge"><title>Node16&#45;&gt;Node12</title>
<path fill="none" stroke="midnightblue" d="M497.421,-113.609C583.788,-103.158 784.811,-78.8334 863.043,-69.367"/>
<polygon fill="midnightblue" stroke="midnightblue" points="863.735,-72.8088 873.242,-68.1328 862.894,-65.8595 863.735,-72.8088"/>
</g>
<!-- Node17&#45;&gt;Node2 -->
<g id="edge25" class="edge"><title>Node17&#45;&gt;Node2</title>
<path fill="none" stroke="midnightblue" d="M187.598,-165.422C218.6,-152.786 280.982,-127.938 335,-110 373.71,-97.1455 418.549,-84.5932 450.193,-76.1152"/>
<polygon fill="midnightblue" stroke="midnightblue" points="451.215,-79.4649 459.979,-73.5105 449.415,-72.7004 451.215,-79.4649"/>
</g>
<!-- Node17&#45;&gt;Node11 -->
<g id="edge27" class="edge"><title>Node17&#45;&gt;Node11</title>
<path fill="none" stroke="midnightblue" d="M199.894,-165.45C240.024,-155.322 308.437,-138.056 347.767,-128.13"/>
<polygon fill="midnightblue" stroke="midnightblue" points="348.734,-131.496 357.573,-125.655 347.021,-124.709 348.734,-131.496"/>
</g>
<!-- Node17&#45;&gt;Node16 -->
<g id="edge26" class="edge"><title>Node17&#45;&gt;Node16</title>
<path fill="none" stroke="midnightblue" d="M211.893,-165.45C264.218,-155.854 351.485,-139.851 406.545,-129.753"/>
<polygon fill="midnightblue" stroke="midnightblue" points="407.231,-133.186 416.435,-127.939 405.968,-126.301 407.231,-133.186"/>
</g>
<!-- Node19 -->
<g id="node20" class="node"><title>Node19</title>
<g id="a_node20"><a xlink:href="../../d7/d72/_norm_8h.html" target="_top" xlink:title="fl/norm/Norm.h">
<polygon fill="white" stroke="black" points="415.938,-165.5 415.938,-183.5 498.062,-183.5 498.062,-165.5 415.938,-165.5"/>
<text text-anchor="middle" x="457" y="-171.5" font-family="Helvetica,sans-Serif" font-size="10.00">fl/norm/Norm.h</text>
</a>
</g>
</g>
<!-- Node18&#45;&gt;Node19 -->
<g id="edge29" class="edge"><title>Node18&#45;&gt;Node19</title>
<path fill="none" stroke="midnightblue" d="M300.098,-220.45C331.837,-211.357 383.66,-196.511 418.995,-186.388"/>
<polygon fill="midnightblue" stroke="midnightblue" points="420.292,-189.657 428.942,-183.538 418.365,-182.928 420.292,-189.657"/>
</g>
<!-- Node19&#45;&gt;Node2 -->
<g id="edge30" class="edge"><title>Node19&#45;&gt;Node2</title>
<path fill="none" stroke="midnightblue" d="M471.189,-165.343C482.981,-157.665 498.93,-144.972 506,-129 512.585,-114.125 507.062,-95.9558 500.942,-82.8696"/>
<polygon fill="midnightblue" stroke="midnightblue" points="503.851,-80.8769 496.127,-73.6245 497.643,-84.1105 503.851,-80.8769"/>
</g>
<!-- Node19&#45;&gt;Node11 -->
<g id="edge32" class="edge"><title>Node19&#45;&gt;Node11</title>
<path fill="none" stroke="midnightblue" d="M445.002,-165.45C432.705,-157.201 413.35,-144.216 398.598,-134.319"/>
<polygon fill="midnightblue" stroke="midnightblue" points="400.366,-131.29 390.111,-128.625 396.466,-137.103 400.366,-131.29"/>
</g>
<!-- Node19&#45;&gt;Node16 -->
<g id="edge31" class="edge"><title>Node19&#45;&gt;Node16</title>
<path fill="none" stroke="midnightblue" d="M457,-165.219C457,-158.177 457,-147.808 457,-138.828"/>
<polygon fill="midnightblue" stroke="midnightblue" points="460.5,-138.55 457,-128.55 453.5,-138.55 460.5,-138.55"/>
</g>
<!-- Node20&#45;&gt;Node19 -->
<g id="edge34" class="edge"><title>Node20&#45;&gt;Node19</title>
<path fill="none" stroke="midnightblue" d="M422.406,-220.219C428.338,-212.551 437.321,-200.939 444.647,-191.469"/>
<polygon fill="midnightblue" stroke="midnightblue" points="447.423,-193.601 450.773,-183.55 441.886,-189.318 447.423,-193.601"/>
</g>
<!-- Node21&#45;&gt;Node2 -->
<g id="edge36" class="edge"><title>Node21&#45;&gt;Node2</title>
<path fill="none" stroke="midnightblue" d="M836.106,-330.452C839.321,-321.654 844.13,-307.067 846,-294 850.741,-260.865 853.495,-245.659 832,-220 754.129,-127.044 608.639,-87.5178 535.454,-72.9159"/>
<polygon fill="midnightblue" stroke="midnightblue" points="535.679,-69.3949 525.197,-70.939 534.354,-76.2684 535.679,-69.3949"/>
</g>
<!-- Node21&#45;&gt;Node4 -->
<g id="edge51" class="edge"><title>Node21&#45;&gt;Node4</title>
<path fill="none" stroke="midnightblue" d="M871.737,-337.542C937.991,-333.622 1066,-315.101 1066,-230.5 1066,-230.5 1066,-230.5 1066,-118.5 1066,-83.3256 1044.18,-47.0017 1029.66,-26.7265"/>
<polygon fill="midnightblue" stroke="midnightblue" points="1032.39,-24.5306 1023.61,-18.602 1026.78,-28.7124 1032.39,-24.5306"/>
</g>
<!-- Node21&#45;&gt;Node11 -->
<g id="edge52" class="edge"><title>Node21&#45;&gt;Node11</title>
<path fill="none" stroke="midnightblue" d="M831.929,-330.424C828.635,-308.924 816.621,-249.899 781,-220 650.299,-110.294 573.005,-172.488 408,-129 407.902,-128.974 407.804,-128.948 407.705,-128.922"/>
<polygon fill="midnightblue" stroke="midnightblue" points="408.874,-125.613 398.305,-126.362 407.034,-132.367 408.874,-125.613"/>
</g>
<!-- Node21&#45;&gt;Node12 -->
<g id="edge53" class="edge"><title>Node21&#45;&gt;Node12</title>
<path fill="none" stroke="midnightblue" d="M871.731,-333.903C917.05,-327.635 987.958,-314.751 1004,-294 1039.07,-248.641 1021.07,-219.734 1004,-165 995.154,-136.636 987.474,-130.534 966,-110 952.632,-97.2166 935.028,-86.1541 920.694,-78.2565"/>
<polygon fill="midnightblue" stroke="midnightblue" points="922.296,-75.1445 911.824,-73.5374 919.009,-81.3243 922.296,-75.1445"/>
</g>
<!-- Node21&#45;&gt;Node16 -->
<g id="edge50" class="edge"><title>Node21&#45;&gt;Node16</title>
<path fill="none" stroke="midnightblue" d="M833.401,-330.482C834.056,-310.556 833.67,-257.68 814,-220 797.709,-188.793 788.585,-180.547 757,-165 714.137,-143.902 581.302,-130.355 507.584,-124.255"/>
<polygon fill="midnightblue" stroke="midnightblue" points="507.84,-120.764 497.59,-123.443 507.274,-127.741 507.84,-120.764"/>
</g>
<!-- Node22 -->
<g id="node23" class="node"><title>Node22</title>
<g id="a_node23"><a xlink:href="../../d6/dd6/_operation_8h.html" target="_top" xlink:title="fl/Operation.h">
<polygon fill="white" stroke="black" points="525.983,-275.5 525.983,-293.5 602.017,-293.5 602.017,-275.5 525.983,-275.5"/>
<text text-anchor="middle" x="564" y="-281.5" font-family="Helvetica,sans-Serif" font-size="10.00">fl/Operation.h</text>
</a>
</g>
</g>
<!-- Node21&#45;&gt;Node22 -->
<g id="edge37" class="edge"><title>Node21&#45;&gt;Node22</title>
<path fill="none" stroke="midnightblue" d="M794.172,-330.85C746.158,-321.39 664.419,-305.285 612.375,-295.031"/>
<polygon fill="midnightblue" stroke="midnightblue" points="612.868,-291.561 602.38,-293.062 611.515,-298.429 612.868,-291.561"/>
</g>
<!-- Node22&#45;&gt;Node2 -->
<g id="edge38" class="edge"><title>Node22&#45;&gt;Node2</title>
<path fill="none" stroke="midnightblue" d="M563.126,-275.181C560.195,-249.525 549.321,-169.752 522,-110 517.449,-100.046 510.638,-89.9556 504.559,-81.9058"/>
<polygon fill="midnightblue" stroke="midnightblue" points="507.107,-79.4842 498.166,-73.8002 501.611,-83.8193 507.107,-79.4842"/>
</g>
<!-- Node22&#45;&gt;Node3 -->
<g id="edge46" class="edge"><title>Node22&#45;&gt;Node3</title>
<path fill="none" stroke="midnightblue" d="M602.155,-283.855C652.076,-282.74 740.849,-275.222 806,-239 885.251,-194.938 900.648,-161.06 926,-74 928.361,-65.8923 929.766,-62.558 926,-55 919.251,-41.457 906.199,-30.9478 894.083,-23.5513"/>
<polygon fill="midnightblue" stroke="midnightblue" points="895.551,-20.3613 885.12,-18.5033 892.116,-26.4604 895.551,-20.3613"/>
</g>
<!-- Node22&#45;&gt;Node11 -->
<g id="edge40" class="edge"><title>Node22&#45;&gt;Node11</title>
<path fill="none" stroke="midnightblue" d="M561.003,-275.287C552.047,-251.131 524.99,-181.013 507,-165 499.41,-158.244 444.055,-140.557 408.366,-129.625"/>
<polygon fill="midnightblue" stroke="midnightblue" points="409.022,-126.166 398.437,-126.602 406.984,-132.863 409.022,-126.166"/>
</g>
<!-- Node22&#45;&gt;Node12 -->
<g id="edge41" class="edge"><title>Node22&#45;&gt;Node12</title>
<path fill="none" stroke="midnightblue" d="M602.287,-284.239C648.493,-283.32 726.73,-275.8 781,-239 839.393,-199.404 875.14,-118.919 888.732,-83.2274"/>
<polygon fill="midnightblue" stroke="midnightblue" points="892.075,-84.2773 892.239,-73.6837 885.505,-81.8626 892.075,-84.2773"/>
</g>
<!-- Node22&#45;&gt;Node13 -->
<g id="edge39" class="edge"><title>Node22&#45;&gt;Node13</title>
<path fill="none" stroke="midnightblue" d="M525.843,-281.878C461.548,-278.417 327.967,-268.085 219,-239 172.067,-226.473 120.461,-202.833 90.7801,-188.198"/>
<polygon fill="midnightblue" stroke="midnightblue" points="92.1033,-184.947 81.5932,-183.609 88.9752,-191.209 92.1033,-184.947"/>
</g>
<!-- Node22&#45;&gt;Node15 -->
<g id="edge42" class="edge"><title>Node22&#45;&gt;Node15</title>
<path fill="none" stroke="midnightblue" d="M525.848,-279.141C474.755,-272.627 387.662,-258.949 363,-239 348.883,-227.581 341.358,-207.781 337.543,-193.319"/>
<polygon fill="midnightblue" stroke="midnightblue" points="340.945,-192.495 335.302,-183.528 334.121,-194.057 340.945,-192.495"/>
</g>
<!-- Node22&#45;&gt;Node18 -->
<g id="edge44" class="edge"><title>Node22&#45;&gt;Node18</title>
<path fill="none" stroke="midnightblue" d="M525.826,-276.571C474.93,-267.333 384.535,-250.926 326.484,-240.389"/>
<polygon fill="midnightblue" stroke="midnightblue" points="326.857,-236.9 316.393,-238.558 325.607,-243.787 326.857,-236.9"/>
</g>
<!-- Node22&#45;&gt;Node19 -->
<g id="edge43" class="edge"><title>Node22&#45;&gt;Node19</title>
<path fill="none" stroke="midnightblue" d="M553.638,-275.396C542.849,-266.786 525.652,-252.571 512,-239 496.704,-223.795 480.728,-204.969 469.961,-191.777"/>
<polygon fill="midnightblue" stroke="midnightblue" points="472.414,-189.244 463.411,-183.659 466.966,-193.64 472.414,-189.244"/>
</g>
<!-- Node22&#45;&gt;Node20 -->
<g id="edge45" class="edge"><title>Node22&#45;&gt;Node20</title>
<path fill="none" stroke="midnightblue" d="M541.522,-275.45C516.639,-266.539 476.325,-252.103 448.117,-242.001"/>
<polygon fill="midnightblue" stroke="midnightblue" points="449.284,-238.702 438.69,-238.625 446.924,-245.292 449.284,-238.702"/>
</g>
<!-- Node23 -->
<g id="node24" class="node"><title>Node23</title>
<polygon fill="white" stroke="#bfbfbf" points="654.49,-220.5 654.49,-238.5 705.51,-238.5 705.51,-220.5 654.49,-220.5"/>
<text text-anchor="middle" x="680" y="-226.5" font-family="Helvetica,sans-Serif" font-size="10.00">iomanip</text>
</g>
<!-- Node22&#45;&gt;Node23 -->
<g id="edge47" class="edge"><title>Node22&#45;&gt;Node23</title>
<path fill="none" stroke="midnightblue" d="M581.618,-275.45C600.61,-266.773 631.071,-252.856 653.07,-242.804"/>
<polygon fill="midnightblue" stroke="midnightblue" points="654.575,-245.965 662.216,-238.625 651.666,-239.598 654.575,-245.965"/>
</g>
<!-- Node24 -->
<g id="node25" class="node"><title>Node24</title>
<polygon fill="white" stroke="#bfbfbf" points="723.604,-220.5 723.604,-238.5 772.396,-238.5 772.396,-220.5 723.604,-220.5"/>
<text text-anchor="middle" x="748" y="-226.5" font-family="Helvetica,sans-Serif" font-size="10.00">cstdarg</text>
</g>
<!-- Node22&#45;&gt;Node24 -->
<g id="edge48" class="edge"><title>Node22&#45;&gt;Node24</title>
<path fill="none" stroke="midnightblue" d="M591.946,-275.45C624.52,-266.068 678.364,-250.558 713.511,-240.434"/>
<polygon fill="midnightblue" stroke="midnightblue" points="714.694,-243.736 723.334,-237.605 712.756,-237.01 714.694,-243.736"/>
</g>
<!-- Node25 -->
<g id="node26" class="node"><title>Node25</title>
<polygon fill="white" stroke="#bfbfbf" points="591.549,-220.5 591.549,-238.5 636.451,-238.5 636.451,-220.5 591.549,-220.5"/>
<text text-anchor="middle" x="614" y="-226.5" font-family="Helvetica,sans-Serif" font-size="10.00">cctype</text>
</g>
<!-- Node22&#45;&gt;Node25 -->
<g id="edge49" class="edge"><title>Node22&#45;&gt;Node25</title>
<path fill="none" stroke="midnightblue" d="M571.812,-275.219C579.194,-267.394 590.45,-255.463 599.479,-245.892"/>
<polygon fill="midnightblue" stroke="midnightblue" points="602.09,-248.225 606.406,-238.55 596.998,-243.422 602.09,-248.225"/>
</g>
</g>
</svg>
