<?xml version="1.0" encoding="UTF-8" standalone="no"?>
<!DOCTYPE svg PUBLIC "-//W3C//DTD SVG 1.1//EN"
 "http://www.w3.org/Graphics/SVG/1.1/DTD/svg11.dtd">
<!-- Generated by graphviz version 2.38.0 (20140413.2041)
 -->
<!-- Title: fl::WeightedDefuzzifier Pages: 1 -->
<svg width="134pt" height="274pt"
 viewBox="0.00 0.00 134.42 274.00" xmlns="http://www.w3.org/2000/svg" xmlns:xlink="http://www.w3.org/1999/xlink">
<g id="graph0" class="graph" transform="scale(1 1) rotate(0) translate(4 270)">
<title>fl::WeightedDefuzzifier</title>
<polygon fill="white" stroke="none" points="-4,4 -4,-270 130.425,-270 130.425,4 -4,4"/>
<!-- Node6 -->
<g id="node1" class="node"><title>Node6</title>
<polygon fill="#bfbfbf" stroke="black" points="0,-0.5 0,-124.5 126.425,-124.5 126.425,-0.5 0,-0.5"/>
<text text-anchor="middle" x="63.2124" y="-112.5" font-family="Helvetica,sans-Serif" font-size="10.00">fl::WeightedDefuzzifier</text>
<polyline fill="none" stroke="black" points="0,-106.5 126.425,-106.5 "/>
<text text-anchor="middle" x="63.2124" y="-94.5" font-family="Helvetica,sans-Serif" font-size="10.00"> </text>
<polyline fill="none" stroke="black" points="0,-88.5 126.425,-88.5 "/>
<text text-anchor="start" x="8" y="-76.5" font-family="Helvetica,sans-Serif" font-size="10.00">+ WeightedDefuzzifier()</text>
<text text-anchor="start" x="8" y="-66.5" font-family="Helvetica,sans-Serif" font-size="10.00">+ WeightedDefuzzifier()</text>
<text text-anchor="start" x="8" y="-56.5" font-family="Helvetica,sans-Serif" font-size="10.00">+ ~WeightedDefuzzifier()</text>
<text text-anchor="start" x="8" y="-46.5" font-family="Helvetica,sans-Serif" font-size="10.00">+ setType()</text>
<text text-anchor="start" x="8" y="-36.5" font-family="Helvetica,sans-Serif" font-size="10.00">+ getType()</text>
<text text-anchor="start" x="8" y="-26.5" font-family="Helvetica,sans-Serif" font-size="10.00">+ getTypeName()</text>
<text text-anchor="start" x="8" y="-16.5" font-family="Helvetica,sans-Serif" font-size="10.00">+ inferType()</text>
<text text-anchor="start" x="8" y="-6.5" font-family="Helvetica,sans-Serif" font-size="10.00">+ typeName()</text>
</g>
<!-- Node7 -->
<g id="node2" class="node"><title>Node7</title>
<g id="a_node2"><a xlink:href="../../d3/d31/classfl_1_1_defuzzifier.html" target="_top" xlink:title="The Defuzzifier class is the abstract class for defuzzifiers. ">
<polygon fill="white" stroke="black" points="21.0352,-161.5 21.0352,-265.5 105.39,-265.5 105.39,-161.5 21.0352,-161.5"/>
<text text-anchor="middle" x="63.2124" y="-253.5" font-family="Helvetica,sans-Serif" font-size="10.00">fl::Defuzzifier</text>
<polyline fill="none" stroke="black" points="21.0352,-247.5 105.39,-247.5 "/>
<text text-anchor="middle" x="63.2124" y="-235.5" font-family="Helvetica,sans-Serif" font-size="10.00"> </text>
<polyline fill="none" stroke="black" points="21.0352,-229.5 105.39,-229.5 "/>
<text text-anchor="start" x="29.0352" y="-217.5" font-family="Helvetica,sans-Serif" font-size="10.00">+ Defuzzifier()</text>
<text text-anchor="start" x="29.0352" y="-207.5" font-family="Helvetica,sans-Serif" font-size="10.00">+ ~Defuzzifier()</text>
<text text-anchor="start" x="29.0352" y="-197.5" font-family="Helvetica,sans-Serif" font-size="10.00">+ className()</text>
<text text-anchor="start" x="29.0352" y="-187.5" font-family="Helvetica,sans-Serif" font-size="10.00">+ clone()</text>
<text text-anchor="start" x="29.0352" y="-177.5" font-family="Helvetica,sans-Serif" font-size="10.00">+ complexity()</text>
<text text-anchor="start" x="29.0352" y="-167.5" font-family="Helvetica,sans-Serif" font-size="10.00">+ defuzzify()</text>
</a>
</g>
</g>
<!-- Node7&#45;&gt;Node6 -->
<g id="edge1" class="edge"><title>Node7&#45;&gt;Node6</title>
<path fill="none" stroke="midnightblue" d="M63.2124,-151.104C63.2124,-142.362 63.2124,-133.372 63.2124,-124.635"/>
<polygon fill="none" stroke="midnightblue" points="59.7125,-151.223 63.2124,-161.223 66.7125,-151.223 59.7125,-151.223"/>
</g>
</g>
</svg>
