<?xml version="1.0" encoding="UTF-8" standalone="no"?>
<!DOCTYPE svg PUBLIC "-//W3C//DTD SVG 1.1//EN"
 "http://www.w3.org/Graphics/SVG/1.1/DTD/svg11.dtd">
<!-- Generated by graphviz version 2.38.0 (20140413.2041)
 -->
<!-- Title: fuzzylite/fl/imex/Importer.h Pages: 1 -->
<svg width="477pt" height="137pt"
 viewBox="0.00 0.00 476.54 137.00" xmlns="http://www.w3.org/2000/svg" xmlns:xlink="http://www.w3.org/1999/xlink">
<g id="graph0" class="graph" transform="scale(1 1) rotate(0) translate(4 133)">
<title>fuzzylite/fl/imex/Importer.h</title>
<polygon fill="white" stroke="none" points="-4,4 -4,-133 472.537,-133 472.537,4 -4,4"/>
<!-- Node10 -->
<g id="node1" class="node"><title>Node10</title>
<polygon fill="#bfbfbf" stroke="black" points="169.665,-110.5 169.665,-128.5 301.261,-128.5 301.261,-110.5 169.665,-110.5"/>
<text text-anchor="middle" x="235.463" y="-116.5" font-family="Helvetica,sans-Serif" font-size="10.00">fuzzylite/fl/imex/Importer.h</text>
</g>
<!-- Node11 -->
<g id="node2" class="node"><title>Node11</title>
<g id="a_node2"><a xlink:href="../../de/dcd/_fcl_importer_8h.html" target="_top" xlink:title="fuzzylite/fl/imex/FclImporter.h">
<polygon fill="white" stroke="black" points="0,-55.5 0,-73.5 144.926,-73.5 144.926,-55.5 0,-55.5"/>
<text text-anchor="middle" x="72.4629" y="-61.5" font-family="Helvetica,sans-Serif" font-size="10.00">fuzzylite/fl/imex/FclImporter.h</text>
</a>
</g>
</g>
<!-- Node10&#45;&gt;Node11 -->
<g id="edge1" class="edge"><title>Node10&#45;&gt;Node11</title>
<path fill="none" stroke="midnightblue" d="M201.134,-107.338C170.012,-97.2183 124.895,-82.5485 97.1845,-73.5383"/>
<polygon fill="midnightblue" stroke="midnightblue" points="200.114,-110.687 210.707,-110.45 202.279,-104.03 200.114,-110.687"/>
</g>
<!-- Node13 -->
<g id="node4" class="node"><title>Node13</title>
<g id="a_node4"><a xlink:href="../../d7/d26/_fis_importer_8h.html" target="_top" xlink:title="fuzzylite/fl/imex/FisImporter.h">
<polygon fill="white" stroke="black" points="163,-55.5 163,-73.5 307.926,-73.5 307.926,-55.5 163,-55.5"/>
<text text-anchor="middle" x="235.463" y="-61.5" font-family="Helvetica,sans-Serif" font-size="10.00">fuzzylite/fl/imex/FisImporter.h</text>
</a>
</g>
</g>
<!-- Node10&#45;&gt;Node13 -->
<g id="edge3" class="edge"><title>Node10&#45;&gt;Node13</title>
<path fill="none" stroke="midnightblue" d="M235.463,-100.175C235.463,-91.0945 235.463,-80.5949 235.463,-73.5496"/>
<polygon fill="midnightblue" stroke="midnightblue" points="231.963,-100.219 235.463,-110.219 238.963,-100.219 231.963,-100.219"/>
</g>
<!-- Node14 -->
<g id="node5" class="node"><title>Node14</title>
<g id="a_node5"><a xlink:href="../../d3/de6/_fll_importer_8h.html" target="_top" xlink:title="fuzzylite/fl/imex/FllImporter.h">
<polygon fill="white" stroke="black" points="326.389,-55.5 326.389,-73.5 468.537,-73.5 468.537,-55.5 326.389,-55.5"/>
<text text-anchor="middle" x="397.463" y="-61.5" font-family="Helvetica,sans-Serif" font-size="10.00">fuzzylite/fl/imex/FllImporter.h</text>
</a>
</g>
</g>
<!-- Node10&#45;&gt;Node14 -->
<g id="edge5" class="edge"><title>Node10&#45;&gt;Node14</title>
<path fill="none" stroke="midnightblue" d="M269.581,-107.338C300.513,-97.2183 345.352,-82.5485 372.893,-73.5383"/>
<polygon fill="midnightblue" stroke="midnightblue" points="268.483,-104.014 260.067,-110.45 270.66,-110.667 268.483,-104.014"/>
</g>
<!-- Node12 -->
<g id="node3" class="node"><title>Node12</title>
<g id="a_node3"><a xlink:href="../../db/d5f/_headers_8h.html" target="_top" xlink:title="fuzzylite/fl/Headers.h">
<polygon fill="white" stroke="black" points="181.054,-0.5 181.054,-18.5 289.872,-18.5 289.872,-0.5 181.054,-0.5"/>
<text text-anchor="middle" x="235.463" y="-6.5" font-family="Helvetica,sans-Serif" font-size="10.00">fuzzylite/fl/Headers.h</text>
</a>
</g>
</g>
<!-- Node11&#45;&gt;Node12 -->
<g id="edge2" class="edge"><title>Node11&#45;&gt;Node12</title>
<path fill="none" stroke="midnightblue" d="M106.792,-52.3377C137.914,-42.2183 183.031,-27.5485 210.741,-18.5383"/>
<polygon fill="midnightblue" stroke="midnightblue" points="105.647,-49.0297 97.2191,-55.4504 107.811,-55.6867 105.647,-49.0297"/>
</g>
<!-- Node13&#45;&gt;Node12 -->
<g id="edge4" class="edge"><title>Node13&#45;&gt;Node12</title>
<path fill="none" stroke="midnightblue" d="M235.463,-45.1746C235.463,-36.0945 235.463,-25.5949 235.463,-18.5496"/>
<polygon fill="midnightblue" stroke="midnightblue" points="231.963,-45.2187 235.463,-55.2188 238.963,-45.2188 231.963,-45.2187"/>
</g>
<!-- Node14&#45;&gt;Node12 -->
<g id="edge6" class="edge"><title>Node14&#45;&gt;Node12</title>
<path fill="none" stroke="midnightblue" d="M363.344,-52.3377C332.413,-42.2183 287.573,-27.5485 260.033,-18.5383"/>
<polygon fill="midnightblue" stroke="midnightblue" points="362.266,-55.6674 372.859,-55.4504 364.443,-49.0144 362.266,-55.6674"/>
</g>
</g>
</svg>
