<?xml version="1.0" encoding="UTF-8" standalone="no"?>
<!DOCTYPE svg PUBLIC "-//W3C//DTD SVG 1.1//EN"
 "http://www.w3.org/Graphics/SVG/1.1/DTD/svg11.dtd">
<!-- Generated by graphviz version 2.38.0 (20140413.2041)
 -->
<!-- Title: fl::Function::Node Pages: 1 -->
<svg width="102pt" height="426pt"
 viewBox="0.00 0.00 102.37 426.00" xmlns="http://www.w3.org/2000/svg" xmlns:xlink="http://www.w3.org/1999/xlink">
<g id="graph0" class="graph" transform="scale(1 1) rotate(0) translate(4 422)">
<title>fl::Function::Node</title>
<polygon fill="white" stroke="none" points="-4,4 -4,-422 98.374,-422 98.374,4 -4,4"/>
<!-- Node1 -->
<g id="node1" class="node"><title>Node1</title>
<polygon fill="#bfbfbf" stroke="black" points="0,-0.5 0,-214.5 94.374,-214.5 94.374,-0.5 0,-0.5"/>
<text text-anchor="middle" x="47.187" y="-202.5" font-family="Helvetica,sans-Serif" font-size="10.00">fl::Function::Node</text>
<polyline fill="none" stroke="black" points="0,-196.5 94.374,-196.5 "/>
<text text-anchor="start" x="8" y="-184.5" font-family="Helvetica,sans-Serif" font-size="10.00">+ element</text>
<text text-anchor="start" x="8" y="-174.5" font-family="Helvetica,sans-Serif" font-size="10.00">+ left</text>
<text text-anchor="start" x="8" y="-164.5" font-family="Helvetica,sans-Serif" font-size="10.00">+ right</text>
<text text-anchor="start" x="8" y="-154.5" font-family="Helvetica,sans-Serif" font-size="10.00">+ value</text>
<polyline fill="none" stroke="black" points="0,-148.5 94.374,-148.5 "/>
<text text-anchor="start" x="8" y="-136.5" font-family="Helvetica,sans-Serif" font-size="10.00">+ Node()</text>
<text text-anchor="start" x="8" y="-126.5" font-family="Helvetica,sans-Serif" font-size="10.00">+ Node()</text>
<text text-anchor="start" x="8" y="-116.5" font-family="Helvetica,sans-Serif" font-size="10.00">+ Node()</text>
<text text-anchor="start" x="8" y="-106.5" font-family="Helvetica,sans-Serif" font-size="10.00">+ Node()</text>
<text text-anchor="start" x="8" y="-96.5" font-family="Helvetica,sans-Serif" font-size="10.00">+ operator=()</text>
<text text-anchor="start" x="8" y="-86.5" font-family="Helvetica,sans-Serif" font-size="10.00">+ ~Node()</text>
<text text-anchor="start" x="8" y="-76.5" font-family="Helvetica,sans-Serif" font-size="10.00">+ evaluate()</text>
<text text-anchor="start" x="8" y="-66.5" font-family="Helvetica,sans-Serif" font-size="10.00">+ treeSize()</text>
<text text-anchor="start" x="8" y="-56.5" font-family="Helvetica,sans-Serif" font-size="10.00">+ treeSize()</text>
<text text-anchor="start" x="8" y="-46.5" font-family="Helvetica,sans-Serif" font-size="10.00">+ clone()</text>
<text text-anchor="start" x="8" y="-36.5" font-family="Helvetica,sans-Serif" font-size="10.00">+ toString()</text>
<text text-anchor="start" x="8" y="-26.5" font-family="Helvetica,sans-Serif" font-size="10.00">+ toPrefix()</text>
<text text-anchor="start" x="8" y="-16.5" font-family="Helvetica,sans-Serif" font-size="10.00">+ toInfix()</text>
<text text-anchor="start" x="8" y="-6.5" font-family="Helvetica,sans-Serif" font-size="10.00">+ toPostfix()</text>
</g>
<!-- Node2 -->
<g id="node2" class="node"><title>Node2</title>
<g id="a_node2"><a xlink:title="STL class. ">
<polygon fill="white" stroke="#bfbfbf" points="17.5122,-261.5 17.5122,-315.5 76.8618,-315.5 76.8618,-261.5 17.5122,-261.5"/>
<text text-anchor="middle" x="47.187" y="-303.5" font-family="Helvetica,sans-Serif" font-size="10.00">std::string</text>
<polyline fill="none" stroke="#bfbfbf" points="17.5122,-297.5 76.8618,-297.5 "/>
<text text-anchor="middle" x="47.187" y="-285.5" font-family="Helvetica,sans-Serif" font-size="10.00"> </text>
<polyline fill="none" stroke="#bfbfbf" points="17.5122,-279.5 76.8618,-279.5 "/>
<text text-anchor="middle" x="47.187" y="-267.5" font-family="Helvetica,sans-Serif" font-size="10.00"> </text>
</a>
</g>
</g>
<!-- Node2&#45;&gt;Node1 -->
<g id="edge1" class="edge"><title>Node2&#45;&gt;Node1</title>
<path fill="none" stroke="#404040" d="M47.187,-261.472C47.187,-251.598 47.187,-239.601 47.187,-226.716"/>
<polygon fill="none" stroke="#404040" points="47.1871,-226.669 43.1871,-220.669 47.187,-214.669 51.1871,-220.669 47.1871,-226.669"/>
<text text-anchor="middle" x="69.0059" y="-235" font-family="Helvetica,sans-Serif" font-size="10.00"> +variable</text>
</g>
<!-- Node3 -->
<g id="node3" class="node"><title>Node3</title>
<g id="a_node3"><a xlink:title="STL class. ">
<polygon fill="white" stroke="#bfbfbf" points="0.13916,-353.5 0.13916,-417.5 94.2349,-417.5 94.2349,-353.5 0.13916,-353.5"/>
<text text-anchor="start" x="8.13916" y="-405.5" font-family="Helvetica,sans-Serif" font-size="10.00">std::basic_string&lt;</text>
<text text-anchor="middle" x="47.187" y="-395.5" font-family="Helvetica,sans-Serif" font-size="10.00"> char &gt;</text>
<polyline fill="none" stroke="#bfbfbf" points="0.13916,-389.5 94.2349,-389.5 "/>
<text text-anchor="middle" x="47.187" y="-377.5" font-family="Helvetica,sans-Serif" font-size="10.00"> </text>
<polyline fill="none" stroke="#bfbfbf" points="0.13916,-371.5 94.2349,-371.5 "/>
<text text-anchor="middle" x="47.187" y="-359.5" font-family="Helvetica,sans-Serif" font-size="10.00"> </text>
</a>
</g>
</g>
<!-- Node3&#45;&gt;Node2 -->
<g id="edge2" class="edge"><title>Node3&#45;&gt;Node2</title>
<path fill="none" stroke="midnightblue" d="M47.187,-343.37C47.187,-333.943 47.187,-324.176 47.187,-315.589"/>
<polygon fill="none" stroke="midnightblue" points="43.6871,-343.393 47.187,-353.393 50.6871,-343.393 43.6871,-343.393"/>
</g>
</g>
</svg>
