<?xml version="1.0" encoding="UTF-8" standalone="no"?>
<!DOCTYPE svg PUBLIC "-//W3C//DTD SVG 1.1//EN"
 "http://www.w3.org/Graphics/SVG/1.1/DTD/svg11.dtd">
<!-- Generated by graphviz version 2.38.0 (20140413.2041)
 -->
<!-- Title: fuzzylite/fl/fuzzylite.h Pages: 1 -->
<svg width="461pt" height="82pt"
 viewBox="0.00 0.00 460.68 82.00" xmlns="http://www.w3.org/2000/svg" xmlns:xlink="http://www.w3.org/1999/xlink">
<g id="graph0" class="graph" transform="scale(1 1) rotate(0) translate(4 78)">
<title>fuzzylite/fl/fuzzylite.h</title>
<polygon fill="white" stroke="none" points="-4,4 -4,-78 456.685,-78 456.685,4 -4,4"/>
<!-- Node0 -->
<g id="node1" class="node"><title>Node0</title>
<polygon fill="#bfbfbf" stroke="black" points="180.993,-55.5 180.993,-73.5 288.135,-73.5 288.135,-55.5 180.993,-55.5"/>
<text text-anchor="middle" x="234.564" y="-61.5" font-family="Helvetica,sans-Serif" font-size="10.00">fuzzylite/fl/fuzzylite.h</text>
</g>
<!-- Node1 -->
<g id="node2" class="node"><title>Node1</title>
<polygon fill="white" stroke="#bfbfbf" points="0,-0.5 0,-18.5 57.1279,-18.5 57.1279,-0.5 0,-0.5"/>
<text text-anchor="middle" x="28.564" y="-6.5" font-family="Helvetica,sans-Serif" font-size="10.00">algorithm</text>
</g>
<!-- Node0&#45;&gt;Node1 -->
<g id="edge1" class="edge"><title>Node0&#45;&gt;Node1</title>
<path fill="none" stroke="midnightblue" d="M203.277,-55.4504C166.727,-46.0468 106.259,-30.4896 66.916,-20.3673"/>
<polygon fill="midnightblue" stroke="midnightblue" points="67.7083,-16.9572 57.1516,-17.8551 65.9641,-23.7364 67.7083,-16.9572"/>
</g>
<!-- Node2 -->
<g id="node3" class="node"><title>Node2</title>
<polygon fill="white" stroke="#bfbfbf" points="74.9482,-0.5 74.9482,-18.5 118.18,-18.5 118.18,-0.5 74.9482,-0.5"/>
<text text-anchor="middle" x="96.564" y="-6.5" font-family="Helvetica,sans-Serif" font-size="10.00">cmath</text>
</g>
<!-- Node0&#45;&gt;Node2 -->
<g id="edge2" class="edge"><title>Node0&#45;&gt;Node2</title>
<path fill="none" stroke="midnightblue" d="M213.605,-55.4504C190.605,-46.6173 153.468,-32.3546 127.203,-22.267"/>
<polygon fill="midnightblue" stroke="midnightblue" points="128.311,-18.9433 117.72,-18.6253 125.801,-25.478 128.311,-18.9433"/>
</g>
<!-- Node3 -->
<g id="node4" class="node"><title>Node3</title>
<polygon fill="white" stroke="#bfbfbf" points="136.392,-0.5 136.392,-18.5 190.736,-18.5 190.736,-0.5 136.392,-0.5"/>
<text text-anchor="middle" x="163.564" y="-6.5" font-family="Helvetica,sans-Serif" font-size="10.00">iostream</text>
</g>
<!-- Node0&#45;&gt;Node3 -->
<g id="edge3" class="edge"><title>Node0&#45;&gt;Node3</title>
<path fill="none" stroke="midnightblue" d="M223.781,-55.4504C212.938,-47.3566 195.988,-34.7042 182.831,-24.8822"/>
<polygon fill="midnightblue" stroke="midnightblue" points="184.556,-21.8025 174.449,-18.6253 180.369,-27.412 184.556,-21.8025"/>
</g>
<!-- Node4 -->
<g id="node5" class="node"><title>Node4</title>
<polygon fill="white" stroke="#bfbfbf" points="208.783,-0.5 208.783,-18.5 260.345,-18.5 260.345,-0.5 208.783,-0.5"/>
<text text-anchor="middle" x="234.564" y="-6.5" font-family="Helvetica,sans-Serif" font-size="10.00">sstream</text>
</g>
<!-- Node0&#45;&gt;Node4 -->
<g id="edge4" class="edge"><title>Node0&#45;&gt;Node4</title>
<path fill="none" stroke="midnightblue" d="M234.564,-55.2188C234.564,-48.1769 234.564,-37.8083 234.564,-28.8277"/>
<polygon fill="midnightblue" stroke="midnightblue" points="238.064,-28.5495 234.564,-18.5496 231.064,-28.5496 238.064,-28.5495"/>
</g>
<!-- Node5 -->
<g id="node6" class="node"><title>Node5</title>
<polygon fill="white" stroke="#bfbfbf" points="278.177,-0.5 278.177,-18.5 316.951,-18.5 316.951,-0.5 278.177,-0.5"/>
<text text-anchor="middle" x="297.564" y="-6.5" font-family="Helvetica,sans-Serif" font-size="10.00">limits</text>
</g>
<!-- Node0&#45;&gt;Node5 -->
<g id="edge5" class="edge"><title>Node0&#45;&gt;Node5</title>
<path fill="none" stroke="midnightblue" d="M244.132,-55.4504C253.661,-47.4345 268.504,-34.9471 280.13,-25.1663"/>
<polygon fill="midnightblue" stroke="midnightblue" points="282.506,-27.7413 287.906,-18.6253 278,-22.3847 282.506,-27.7413"/>
</g>
<!-- Node6 -->
<g id="node7" class="node"><title>Node6</title>
<polygon fill="white" stroke="#bfbfbf" points="334.507,-0.5 334.507,-18.5 386.621,-18.5 386.621,-0.5 334.507,-0.5"/>
<text text-anchor="middle" x="360.564" y="-6.5" font-family="Helvetica,sans-Serif" font-size="10.00">memory</text>
</g>
<!-- Node0&#45;&gt;Node6 -->
<g id="edge6" class="edge"><title>Node0&#45;&gt;Node6</title>
<path fill="none" stroke="midnightblue" d="M253.701,-55.4504C274.515,-46.6951 308.011,-32.6055 331.953,-22.5346"/>
<polygon fill="midnightblue" stroke="midnightblue" points="333.387,-25.7289 341.247,-18.6253 330.672,-19.2765 333.387,-25.7289"/>
</g>
<!-- Node7 -->
<g id="node8" class="node"><title>Node7</title>
<polygon fill="white" stroke="#bfbfbf" points="404.443,-0.5 404.443,-18.5 452.685,-18.5 452.685,-0.5 404.443,-0.5"/>
<text text-anchor="middle" x="428.564" y="-6.5" font-family="Helvetica,sans-Serif" font-size="10.00">cstddef</text>
</g>
<!-- Node0&#45;&gt;Node7 -->
<g id="edge7" class="edge"><title>Node0&#45;&gt;Node7</title>
<path fill="none" stroke="midnightblue" d="M264.028,-55.4504C299.102,-45.8685 357.562,-29.8973 394.532,-19.7973"/>
<polygon fill="midnightblue" stroke="midnightblue" points="395.628,-23.1262 404.352,-17.1145 393.783,-16.3737 395.628,-23.1262"/>
</g>
</g>
</svg>
