<?xml version="1.0" encoding="UTF-8" standalone="no"?>
<!DOCTYPE svg PUBLIC "-//W3C//DTD SVG 1.1//EN"
 "http://www.w3.org/Graphics/SVG/1.1/DTD/svg11.dtd">
<!-- Generated by graphviz version 2.38.0 (20140413.2041)
 -->
<!-- Title: fuzzylite/fl/factory/ConstructionFactory.h Pages: 1 -->
<svg width="1119pt" height="422pt"
 viewBox="0.00 0.00 1119.30 422.00" xmlns="http://www.w3.org/2000/svg" xmlns:xlink="http://www.w3.org/1999/xlink">
<g id="graph0" class="graph" transform="scale(1 1) rotate(0) translate(4 418)">
<title>fuzzylite/fl/factory/ConstructionFactory.h</title>
<polygon fill="white" stroke="none" points="-4,4 -4,-418 1115.3,-418 1115.3,4 -4,4"/>
<!-- Node0 -->
<g id="node1" class="node"><title>Node0</title>
<polygon fill="#bfbfbf" stroke="black" points="205.759,-385.5 205.759,-413.5 321.617,-413.5 321.617,-385.5 205.759,-385.5"/>
<text text-anchor="start" x="213.759" y="-401.5" font-family="Helvetica,sans-Serif" font-size="10.00">fuzzylite/fl/factory</text>
<text text-anchor="middle" x="263.688" y="-391.5" font-family="Helvetica,sans-Serif" font-size="10.00">/ConstructionFactory.h</text>
</g>
<!-- Node1 -->
<g id="node2" class="node"><title>Node1</title>
<g id="a_node2"><a xlink:href="../../de/d53/fuzzylite_8h.html" target="_top" xlink:title="fl/fuzzylite.h">
<polygon fill="white" stroke="black" points="789.567,-55.5 789.567,-73.5 857.809,-73.5 857.809,-55.5 789.567,-55.5"/>
<text text-anchor="middle" x="823.688" y="-61.5" font-family="Helvetica,sans-Serif" font-size="10.00">fl/fuzzylite.h</text>
</a>
</g>
</g>
<!-- Node0&#45;&gt;Node1 -->
<g id="edge1" class="edge"><title>Node0&#45;&gt;Node1</title>
<path fill="none" stroke="midnightblue" d="M321.731,-394.201C457.527,-383.29 791.623,-351.251 886.688,-294 964.674,-247.035 1035.21,-179.733 976.688,-110 950.306,-78.5637 903.118,-68.6182 868.1,-65.8125"/>
<polygon fill="midnightblue" stroke="midnightblue" points="868.319,-62.3195 858.117,-65.1766 867.874,-69.3054 868.319,-62.3195"/>
</g>
<!-- Node9 -->
<g id="node10" class="node"><title>Node9</title>
<polygon fill="white" stroke="#bfbfbf" points="28.9614,-330.5 28.9614,-348.5 64.4146,-348.5 64.4146,-330.5 28.9614,-330.5"/>
<text text-anchor="middle" x="46.688" y="-336.5" font-family="Helvetica,sans-Serif" font-size="10.00">map</text>
</g>
<!-- Node0&#45;&gt;Node9 -->
<g id="edge9" class="edge"><title>Node0&#45;&gt;Node9</title>
<path fill="none" stroke="midnightblue" d="M214.989,-385.484C171.73,-373.921 110.027,-357.429 74.5984,-347.96"/>
<polygon fill="midnightblue" stroke="midnightblue" points="75.0611,-344.461 64.4964,-345.26 73.2535,-351.223 75.0611,-344.461"/>
</g>
<!-- Node10 -->
<g id="node11" class="node"><title>Node10</title>
<polygon fill="white" stroke="#bfbfbf" points="556.461,-110.5 556.461,-128.5 596.915,-128.5 596.915,-110.5 556.461,-110.5"/>
<text text-anchor="middle" x="576.688" y="-116.5" font-family="Helvetica,sans-Serif" font-size="10.00">string</text>
</g>
<!-- Node0&#45;&gt;Node10 -->
<g id="edge10" class="edge"><title>Node0&#45;&gt;Node10</title>
<path fill="none" stroke="midnightblue" d="M264.373,-385.368C265.604,-370.986 269.049,-347.624 278.688,-330 311.865,-269.341 328.922,-254.761 388.688,-220 440.883,-189.643 468.33,-215.752 519.688,-184 538.914,-172.114 555.47,-151.839 565.709,-137.398"/>
<polygon fill="midnightblue" stroke="midnightblue" points="568.761,-139.134 571.49,-128.897 562.973,-135.198 568.761,-139.134"/>
</g>
<!-- Node11 -->
<g id="node12" class="node"><title>Node11</title>
<polygon fill="white" stroke="#bfbfbf" points="223.072,-55.5 223.072,-73.5 266.304,-73.5 266.304,-55.5 223.072,-55.5"/>
<text text-anchor="middle" x="244.688" y="-61.5" font-family="Helvetica,sans-Serif" font-size="10.00">vector</text>
</g>
<!-- Node0&#45;&gt;Node11 -->
<g id="edge11" class="edge"><title>Node0&#45;&gt;Node11</title>
<path fill="none" stroke="midnightblue" d="M205.668,-393.566C142.34,-387.029 46.3781,-373.376 19.688,-349 -2.06403,-329.134 0.688009,-314.958 0.688009,-285.5 0.688009,-285.5 0.688009,-285.5 0.688009,-173.5 0.688009,-81.786 146.618,-67.3345 212.768,-65.495"/>
<polygon fill="midnightblue" stroke="midnightblue" points="213.105,-68.9891 223.035,-65.2939 212.968,-61.9905 213.105,-68.9891"/>
</g>
<!-- Node12 -->
<g id="node13" class="node"><title>Node12</title>
<g id="a_node13"><a xlink:href="../../df/d98/_exception_8h.html" target="_top" xlink:title="fl/Exception.h">
<polygon fill="white" stroke="black" points="855.671,-165.5 855.671,-183.5 931.705,-183.5 931.705,-165.5 855.671,-165.5"/>
<text text-anchor="middle" x="893.688" y="-171.5" font-family="Helvetica,sans-Serif" font-size="10.00">fl/Exception.h</text>
</a>
</g>
</g>
<!-- Node0&#45;&gt;Node12 -->
<g id="edge12" class="edge"><title>Node0&#45;&gt;Node12</title>
<path fill="none" stroke="midnightblue" d="M322.079,-387.27C370.379,-377.763 440.696,-363.415 501.688,-349 687.386,-305.112 800.324,-390.226 916.688,-239 927.481,-224.974 917.551,-205.413 907.583,-191.72"/>
<polygon fill="midnightblue" stroke="midnightblue" points="910.187,-189.369 901.245,-183.686 904.691,-193.705 910.187,-189.369"/>
</g>
<!-- Node14 -->
<g id="node15" class="node"><title>Node14</title>
<g id="a_node15"><a xlink:href="../../d7/d8a/_defuzzifier_8h.html" target="_top" xlink:title="fl/defuzzifier/Defuzzifier.h">
<polygon fill="white" stroke="black" points="383.107,-165.5 383.107,-183.5 510.269,-183.5 510.269,-165.5 383.107,-165.5"/>
<text text-anchor="middle" x="446.688" y="-171.5" font-family="Helvetica,sans-Serif" font-size="10.00">fl/defuzzifier/Defuzzifier.h</text>
</a>
</g>
</g>
<!-- Node0&#45;&gt;Node14 -->
<g id="edge17" class="edge"><title>Node0&#45;&gt;Node14</title>
<path fill="none" stroke="midnightblue" d="M267.651,-385.392C272.201,-371.235 280.384,-348.257 290.688,-330 320.922,-276.43 329.101,-261.301 374.688,-220 388.624,-207.374 406.619,-196.252 421.132,-188.284"/>
<polygon fill="midnightblue" stroke="midnightblue" points="422.904,-191.306 430.089,-183.52 419.616,-185.126 422.904,-191.306"/>
</g>
<!-- Node16 -->
<g id="node17" class="node"><title>Node16</title>
<g id="a_node17"><a xlink:href="../../d2/dd9/_hedge_8h.html" target="_top" xlink:title="fl/hedge/Hedge.h">
<polygon fill="white" stroke="black" points="272.602,-165.5 272.602,-183.5 364.774,-183.5 364.774,-165.5 272.602,-165.5"/>
<text text-anchor="middle" x="318.688" y="-171.5" font-family="Helvetica,sans-Serif" font-size="10.00">fl/hedge/Hedge.h</text>
</a>
</g>
</g>
<!-- Node0&#45;&gt;Node16 -->
<g id="edge23" class="edge"><title>Node0&#45;&gt;Node16</title>
<path fill="none" stroke="midnightblue" d="M205.643,-394.808C173.837,-389.465 136.878,-377.103 116.688,-349 83.2358,-302.438 80.7719,-264.689 116.688,-220 134.705,-197.583 209.256,-185.797 262.543,-180.114"/>
<polygon fill="midnightblue" stroke="midnightblue" points="262.967,-183.589 272.56,-179.09 262.256,-176.625 262.967,-183.589"/>
</g>
<!-- Node17 -->
<g id="node18" class="node"><title>Node17</title>
<g id="a_node18"><a xlink:href="../../de/d44/_s_norm_8h.html" target="_top" xlink:title="fl/norm/SNorm.h">
<polygon fill="white" stroke="black" points="424.292,-220.5 424.292,-238.5 513.084,-238.5 513.084,-220.5 424.292,-220.5"/>
<text text-anchor="middle" x="468.688" y="-226.5" font-family="Helvetica,sans-Serif" font-size="10.00">fl/norm/SNorm.h</text>
</a>
</g>
</g>
<!-- Node0&#45;&gt;Node17 -->
<g id="edge27" class="edge"><title>Node0&#45;&gt;Node17</title>
<path fill="none" stroke="midnightblue" d="M270.484,-385.472C278.614,-370.757 293.325,-346.693 310.688,-330 350.886,-291.353 408.402,-259.718 441.812,-243.121"/>
<polygon fill="midnightblue" stroke="midnightblue" points="443.511,-246.186 450.961,-238.653 440.44,-239.896 443.511,-246.186"/>
</g>
<!-- Node19 -->
<g id="node20" class="node"><title>Node19</title>
<g id="a_node20"><a xlink:href="../../d0/d24/_t_norm_8h.html" target="_top" xlink:title="fl/norm/TNorm.h">
<polygon fill="white" stroke="black" points="768.572,-220.5 768.572,-238.5 856.804,-238.5 856.804,-220.5 768.572,-220.5"/>
<text text-anchor="middle" x="812.688" y="-226.5" font-family="Helvetica,sans-Serif" font-size="10.00">fl/norm/TNorm.h</text>
</a>
</g>
</g>
<!-- Node0&#45;&gt;Node19 -->
<g id="edge32" class="edge"><title>Node0&#45;&gt;Node19</title>
<path fill="none" stroke="midnightblue" d="M316.39,-385.455C389.828,-366.933 526.855,-331.119 641.688,-294 692.015,-277.732 749.457,-255.664 783.31,-242.287"/>
<polygon fill="midnightblue" stroke="midnightblue" points="784.612,-245.536 792.616,-238.594 782.03,-239.029 784.612,-245.536"/>
</g>
<!-- Node20 -->
<g id="node21" class="node"><title>Node20</title>
<g id="a_node21"><a xlink:href="../../d8/d11/_term_8h.html" target="_top" xlink:title="fl/term/Term.h">
<polygon fill="white" stroke="black" points="320.129,-330.5 320.129,-348.5 397.247,-348.5 397.247,-330.5 320.129,-330.5"/>
<text text-anchor="middle" x="358.688" y="-336.5" font-family="Helvetica,sans-Serif" font-size="10.00">fl/term/Term.h</text>
</a>
</g>
</g>
<!-- Node0&#45;&gt;Node20 -->
<g id="edge34" class="edge"><title>Node0&#45;&gt;Node20</title>
<path fill="none" stroke="midnightblue" d="M285.245,-385.339C300.568,-375.984 321.087,-363.456 336.542,-354.021"/>
<polygon fill="midnightblue" stroke="midnightblue" points="338.707,-356.8 345.418,-348.602 335.059,-350.825 338.707,-356.8"/>
</g>
<!-- Node2 -->
<g id="node3" class="node"><title>Node2</title>
<polygon fill="white" stroke="#bfbfbf" points="993.124,-0.5 993.124,-18.5 1050.25,-18.5 1050.25,-0.5 993.124,-0.5"/>
<text text-anchor="middle" x="1021.69" y="-6.5" font-family="Helvetica,sans-Serif" font-size="10.00">algorithm</text>
</g>
<!-- Node1&#45;&gt;Node2 -->
<g id="edge2" class="edge"><title>Node1&#45;&gt;Node2</title>
<path fill="none" stroke="midnightblue" d="M853.76,-55.4504C888.271,-46.2126 944.968,-31.0362 982.807,-20.9076"/>
<polygon fill="midnightblue" stroke="midnightblue" points="984.19,-24.1606 992.945,-18.1938 982.38,-17.3987 984.19,-24.1606"/>
</g>
<!-- Node3 -->
<g id="node4" class="node"><title>Node3</title>
<polygon fill="white" stroke="#bfbfbf" points="1068.07,-0.5 1068.07,-18.5 1111.3,-18.5 1111.3,-0.5 1068.07,-0.5"/>
<text text-anchor="middle" x="1089.69" y="-6.5" font-family="Helvetica,sans-Serif" font-size="10.00">cmath</text>
</g>
<!-- Node1&#45;&gt;Node3 -->
<g id="edge3" class="edge"><title>Node1&#45;&gt;Node3</title>
<path fill="none" stroke="midnightblue" d="M857.891,-58.0414C902.089,-50.7714 981.597,-36.9629 1058.01,-19.2437"/>
<polygon fill="midnightblue" stroke="midnightblue" points="1058.86,-22.6399 1067.79,-16.9489 1057.26,-15.8249 1058.86,-22.6399"/>
</g>
<!-- Node4 -->
<g id="node5" class="node"><title>Node4</title>
<polygon fill="white" stroke="#bfbfbf" points="851.516,-0.5 851.516,-18.5 905.86,-18.5 905.86,-0.5 851.516,-0.5"/>
<text text-anchor="middle" x="878.688" y="-6.5" font-family="Helvetica,sans-Serif" font-size="10.00">iostream</text>
</g>
<!-- Node1&#45;&gt;Node4 -->
<g id="edge4" class="edge"><title>Node1&#45;&gt;Node4</title>
<path fill="none" stroke="midnightblue" d="M832.282,-55.2188C840.483,-47.3162 853.031,-35.2241 863.012,-25.6057"/>
<polygon fill="midnightblue" stroke="midnightblue" points="865.563,-28.0088 870.335,-18.5496 860.705,-22.9682 865.563,-28.0088"/>
</g>
<!-- Node5 -->
<g id="node6" class="node"><title>Node5</title>
<polygon fill="white" stroke="#bfbfbf" points="923.907,-0.5 923.907,-18.5 975.469,-18.5 975.469,-0.5 923.907,-0.5"/>
<text text-anchor="middle" x="949.688" y="-6.5" font-family="Helvetica,sans-Serif" font-size="10.00">sstream</text>
</g>
<!-- Node1&#45;&gt;Node5 -->
<g id="edge5" class="edge"><title>Node1&#45;&gt;Node5</title>
<path fill="none" stroke="midnightblue" d="M842.825,-55.4504C863.639,-46.6951 897.135,-32.6055 921.077,-22.5346"/>
<polygon fill="midnightblue" stroke="midnightblue" points="922.511,-25.7289 930.371,-18.6253 919.796,-19.2765 922.511,-25.7289"/>
</g>
<!-- Node6 -->
<g id="node7" class="node"><title>Node6</title>
<polygon fill="white" stroke="#bfbfbf" points="659.301,-0.5 659.301,-18.5 698.075,-18.5 698.075,-0.5 659.301,-0.5"/>
<text text-anchor="middle" x="678.688" y="-6.5" font-family="Helvetica,sans-Serif" font-size="10.00">limits</text>
</g>
<!-- Node1&#45;&gt;Node6 -->
<g id="edge6" class="edge"><title>Node1&#45;&gt;Node6</title>
<path fill="none" stroke="midnightblue" d="M801.666,-55.4504C776.546,-46.2689 735.378,-31.221 707.67,-21.0935"/>
<polygon fill="midnightblue" stroke="midnightblue" points="708.72,-17.7506 698.126,-17.6048 706.316,-24.3252 708.72,-17.7506"/>
</g>
<!-- Node7 -->
<g id="node8" class="node"><title>Node7</title>
<polygon fill="white" stroke="#bfbfbf" points="715.631,-0.5 715.631,-18.5 767.745,-18.5 767.745,-0.5 715.631,-0.5"/>
<text text-anchor="middle" x="741.688" y="-6.5" font-family="Helvetica,sans-Serif" font-size="10.00">memory</text>
</g>
<!-- Node1&#45;&gt;Node7 -->
<g id="edge7" class="edge"><title>Node1&#45;&gt;Node7</title>
<path fill="none" stroke="midnightblue" d="M811.234,-55.4504C798.471,-47.201 778.38,-34.2158 763.068,-24.3187"/>
<polygon fill="midnightblue" stroke="midnightblue" points="764.558,-21.1142 754.259,-18.6253 760.758,-26.9931 764.558,-21.1142"/>
</g>
<!-- Node8 -->
<g id="node9" class="node"><title>Node8</title>
<polygon fill="white" stroke="#bfbfbf" points="785.567,-0.5 785.567,-18.5 833.809,-18.5 833.809,-0.5 785.567,-0.5"/>
<text text-anchor="middle" x="809.688" y="-6.5" font-family="Helvetica,sans-Serif" font-size="10.00">cstddef</text>
</g>
<!-- Node1&#45;&gt;Node8 -->
<g id="edge8" class="edge"><title>Node1&#45;&gt;Node8</title>
<path fill="none" stroke="midnightblue" d="M821.501,-55.2188C819.599,-48.0204 816.779,-37.3458 814.372,-28.2311"/>
<polygon fill="midnightblue" stroke="midnightblue" points="817.752,-27.324 811.814,-18.5496 810.984,-29.1118 817.752,-27.324"/>
</g>
<!-- Node12&#45;&gt;Node1 -->
<g id="edge13" class="edge"><title>Node12&#45;&gt;Node1</title>
<path fill="none" stroke="midnightblue" d="M888.427,-165.382C877.025,-147.791 849.838,-105.846 834.57,-82.2894"/>
<polygon fill="midnightblue" stroke="midnightblue" points="837.386,-80.1996 829.01,-73.7118 831.512,-84.0069 837.386,-80.1996"/>
</g>
<!-- Node12&#45;&gt;Node10 -->
<g id="edge15" class="edge"><title>Node12&#45;&gt;Node10</title>
<path fill="none" stroke="midnightblue" d="M855.45,-167.107C791.736,-156.454 665.123,-135.286 607.063,-125.578"/>
<polygon fill="midnightblue" stroke="midnightblue" points="607.491,-122.101 597.05,-123.904 606.336,-129.006 607.491,-122.101"/>
</g>
<!-- Node12&#45;&gt;Node11 -->
<g id="edge16" class="edge"><title>Node12&#45;&gt;Node11</title>
<path fill="none" stroke="midnightblue" d="M861.918,-165.464C809.053,-152.324 699.552,-126.096 605.688,-110 484.781,-89.2663 339.496,-74.3751 276.453,-68.3985"/>
<polygon fill="midnightblue" stroke="midnightblue" points="276.641,-64.9008 266.358,-67.4513 275.987,-71.8702 276.641,-64.9008"/>
</g>
<!-- Node13 -->
<g id="node14" class="node"><title>Node13</title>
<polygon fill="white" stroke="#bfbfbf" points="889.284,-110.5 889.284,-128.5 948.092,-128.5 948.092,-110.5 889.284,-110.5"/>
<text text-anchor="middle" x="918.688" y="-116.5" font-family="Helvetica,sans-Serif" font-size="10.00">exception</text>
</g>
<!-- Node12&#45;&gt;Node13 -->
<g id="edge14" class="edge"><title>Node12&#45;&gt;Node13</title>
<path fill="none" stroke="midnightblue" d="M897.594,-165.219C901.064,-157.864 906.245,-146.88 910.604,-137.639"/>
<polygon fill="midnightblue" stroke="midnightblue" points="913.79,-139.087 914.891,-128.55 907.459,-136.101 913.79,-139.087"/>
</g>
<!-- Node14&#45;&gt;Node1 -->
<g id="edge18" class="edge"><title>Node14&#45;&gt;Node1</title>
<path fill="none" stroke="midnightblue" d="M456.569,-165.347C473.862,-151.544 511.253,-123.738 547.688,-110 625.765,-80.5617 723.45,-70.5934 779.194,-67.221"/>
<polygon fill="midnightblue" stroke="midnightblue" points="779.644,-70.7014 789.433,-66.6477 779.253,-63.7123 779.644,-70.7014"/>
</g>
<!-- Node14&#45;&gt;Node10 -->
<g id="edge22" class="edge"><title>Node14&#45;&gt;Node10</title>
<path fill="none" stroke="midnightblue" d="M466.432,-165.45C488.003,-156.656 522.774,-142.48 547.498,-132.401"/>
<polygon fill="midnightblue" stroke="midnightblue" points="548.819,-135.642 556.758,-128.625 546.177,-129.16 548.819,-135.642"/>
</g>
<!-- Node15 -->
<g id="node16" class="node"><title>Node15</title>
<g id="a_node16"><a xlink:href="../../d5/de4/_complexity_8h.html" target="_top" xlink:title="fl/Complexity.h">
<polygon fill="white" stroke="black" points="373.269,-110.5 373.269,-128.5 454.107,-128.5 454.107,-110.5 373.269,-110.5"/>
<text text-anchor="middle" x="413.688" y="-116.5" font-family="Helvetica,sans-Serif" font-size="10.00">fl/Complexity.h</text>
</a>
</g>
</g>
<!-- Node14&#45;&gt;Node15 -->
<g id="edge19" class="edge"><title>Node14&#45;&gt;Node15</title>
<path fill="none" stroke="midnightblue" d="M441.532,-165.219C436.855,-157.707 429.821,-146.411 423.994,-137.052"/>
<polygon fill="midnightblue" stroke="midnightblue" points="426.957,-135.189 418.7,-128.55 421.014,-138.889 426.957,-135.189"/>
</g>
<!-- Node15&#45;&gt;Node1 -->
<g id="edge20" class="edge"><title>Node15&#45;&gt;Node1</title>
<path fill="none" stroke="midnightblue" d="M454.312,-113.079C462.072,-112.051 470.13,-110.988 477.688,-110 585.995,-95.8429 713.424,-79.547 779.277,-71.1522"/>
<polygon fill="midnightblue" stroke="midnightblue" points="779.828,-74.6105 789.305,-69.8743 778.943,-67.6666 779.828,-74.6105"/>
</g>
<!-- Node15&#45;&gt;Node11 -->
<g id="edge21" class="edge"><title>Node15&#45;&gt;Node11</title>
<path fill="none" stroke="midnightblue" d="M388.021,-110.45C358.108,-101.07 308.67,-85.5653 276.388,-75.4413"/>
<polygon fill="midnightblue" stroke="midnightblue" points="277.145,-72.0108 266.556,-72.358 275.05,-78.6901 277.145,-72.0108"/>
</g>
<!-- Node16&#45;&gt;Node1 -->
<g id="edge24" class="edge"><title>Node16&#45;&gt;Node1</title>
<path fill="none" stroke="midnightblue" d="M322,-165.132C328.083,-151.005 342.482,-122.722 364.688,-110 434.549,-69.9758 677.966,-65.3744 779.099,-65.2406"/>
<polygon fill="midnightblue" stroke="midnightblue" points="779.287,-68.7405 789.288,-65.2418 779.288,-61.7405 779.287,-68.7405"/>
</g>
<!-- Node16&#45;&gt;Node10 -->
<g id="edge26" class="edge"><title>Node16&#45;&gt;Node10</title>
<path fill="none" stroke="midnightblue" d="M357.873,-165.45C409.639,-154.816 499.713,-136.313 546.513,-126.699"/>
<polygon fill="midnightblue" stroke="midnightblue" points="547.263,-130.118 556.354,-124.677 545.854,-123.261 547.263,-130.118"/>
</g>
<!-- Node16&#45;&gt;Node15 -->
<g id="edge25" class="edge"><title>Node16&#45;&gt;Node15</title>
<path fill="none" stroke="midnightblue" d="M333.116,-165.45C348.182,-157.045 372.06,-143.724 389.917,-133.762"/>
<polygon fill="midnightblue" stroke="midnightblue" points="392.096,-136.554 399.124,-128.625 388.686,-130.441 392.096,-136.554"/>
</g>
<!-- Node18 -->
<g id="node19" class="node"><title>Node18</title>
<g id="a_node19"><a xlink:href="../../d7/d72/_norm_8h.html" target="_top" xlink:title="fl/norm/Norm.h">
<polygon fill="white" stroke="black" points="642.626,-165.5 642.626,-183.5 724.75,-183.5 724.75,-165.5 642.626,-165.5"/>
<text text-anchor="middle" x="683.688" y="-171.5" font-family="Helvetica,sans-Serif" font-size="10.00">fl/norm/Norm.h</text>
</a>
</g>
</g>
<!-- Node17&#45;&gt;Node18 -->
<g id="edge28" class="edge"><title>Node17&#45;&gt;Node18</title>
<path fill="none" stroke="midnightblue" d="M501.342,-220.45C538.783,-211.221 600.27,-196.063 641.357,-185.935"/>
<polygon fill="midnightblue" stroke="midnightblue" points="642.208,-189.33 651.08,-183.538 640.533,-182.534 642.208,-189.33"/>
</g>
<!-- Node18&#45;&gt;Node1 -->
<g id="edge29" class="edge"><title>Node18&#45;&gt;Node1</title>
<path fill="none" stroke="midnightblue" d="M694.211,-165.382C717.825,-147.166 775.294,-102.832 805.088,-79.8483"/>
<polygon fill="midnightblue" stroke="midnightblue" points="807.263,-82.5911 813.043,-73.7118 802.987,-77.0486 807.263,-82.5911"/>
</g>
<!-- Node18&#45;&gt;Node10 -->
<g id="edge31" class="edge"><title>Node18&#45;&gt;Node10</title>
<path fill="none" stroke="midnightblue" d="M667.437,-165.45C650.075,-156.851 622.324,-143.105 602.076,-133.075"/>
<polygon fill="midnightblue" stroke="midnightblue" points="603.606,-129.928 593.092,-128.625 600.499,-136.2 603.606,-129.928"/>
</g>
<!-- Node18&#45;&gt;Node15 -->
<g id="edge30" class="edge"><title>Node18&#45;&gt;Node15</title>
<path fill="none" stroke="midnightblue" d="M642.681,-165.45C594.828,-156.057 515.696,-140.524 464.126,-130.401"/>
<polygon fill="midnightblue" stroke="midnightblue" points="464.683,-126.943 454.196,-128.452 463.335,-133.812 464.683,-126.943"/>
</g>
<!-- Node19&#45;&gt;Node18 -->
<g id="edge33" class="edge"><title>Node19&#45;&gt;Node18</title>
<path fill="none" stroke="midnightblue" d="M793.096,-220.45C771.786,-211.695 737.492,-197.606 712.98,-187.535"/>
<polygon fill="midnightblue" stroke="midnightblue" points="714.045,-184.188 703.465,-183.625 711.384,-190.663 714.045,-184.188"/>
</g>
<!-- Node20&#45;&gt;Node1 -->
<g id="edge35" class="edge"><title>Node20&#45;&gt;Node1</title>
<path fill="none" stroke="midnightblue" d="M397.259,-336.372C509.975,-329.437 835.953,-304.069 916.688,-239 963.424,-201.332 991.759,-158.716 956.688,-110 936.622,-82.1269 898.29,-71.4596 867.914,-67.4998"/>
<polygon fill="midnightblue" stroke="midnightblue" points="868.279,-64.0189 857.955,-66.3988 867.51,-70.9765 868.279,-64.0189"/>
</g>
<!-- Node20&#45;&gt;Node3 -->
<g id="edge50" class="edge"><title>Node20&#45;&gt;Node3</title>
<path fill="none" stroke="midnightblue" d="M397.429,-338.695C476.827,-338.229 663.215,-332.689 813.688,-294 873.656,-278.581 893.079,-277.354 941.688,-239 1017.12,-179.479 1066.08,-70.3857 1083.05,-27.9945"/>
<polygon fill="midnightblue" stroke="midnightblue" points="1086.37,-29.1054 1086.74,-18.5172 1079.85,-26.5608 1086.37,-29.1054"/>
</g>
<!-- Node20&#45;&gt;Node10 -->
<g id="edge51" class="edge"><title>Node20&#45;&gt;Node10</title>
<path fill="none" stroke="midnightblue" d="M359.624,-330.442C362.558,-308.988 373.583,-250.067 408.688,-220 458.792,-177.086 503.406,-227.856 552.688,-184 565.609,-172.501 571.603,-153.316 574.366,-139.037"/>
<polygon fill="midnightblue" stroke="midnightblue" points="577.867,-139.3 575.959,-128.878 570.952,-138.215 577.867,-139.3"/>
</g>
<!-- Node20&#45;&gt;Node11 -->
<g id="edge52" class="edge"><title>Node20&#45;&gt;Node11</title>
<path fill="none" stroke="midnightblue" d="M319.78,-333.881C264.193,-324.869 168.688,-299.366 168.688,-230.5 168.688,-230.5 168.688,-230.5 168.688,-173.5 168.688,-134.06 203.005,-98.8584 225.519,-80.0079"/>
<polygon fill="midnightblue" stroke="midnightblue" points="227.876,-82.6042 233.474,-73.6091 223.488,-77.1498 227.876,-82.6042"/>
</g>
<!-- Node20&#45;&gt;Node15 -->
<g id="edge49" class="edge"><title>Node20&#45;&gt;Node15</title>
<path fill="none" stroke="midnightblue" d="M347.844,-330.421C314.756,-304.802 219.935,-223.618 263.688,-165 286.364,-134.62 328.897,-124.138 362.896,-120.889"/>
<polygon fill="midnightblue" stroke="midnightblue" points="363.441,-124.357 373.142,-120.098 362.903,-117.378 363.441,-124.357"/>
</g>
<!-- Node21 -->
<g id="node22" class="node"><title>Node21</title>
<g id="a_node22"><a xlink:href="../../d6/dd6/_operation_8h.html" target="_top" xlink:title="fl/Operation.h">
<polygon fill="white" stroke="black" points="556.671,-275.5 556.671,-293.5 632.705,-293.5 632.705,-275.5 556.671,-275.5"/>
<text text-anchor="middle" x="594.688" y="-281.5" font-family="Helvetica,sans-Serif" font-size="10.00">fl/Operation.h</text>
</a>
</g>
</g>
<!-- Node20&#45;&gt;Node21 -->
<g id="edge36" class="edge"><title>Node20&#45;&gt;Node21</title>
<path fill="none" stroke="midnightblue" d="M394.531,-330.45C435.89,-321.162 503.98,-305.871 549.078,-295.743"/>
<polygon fill="midnightblue" stroke="midnightblue" points="549.905,-299.145 558.895,-293.538 548.371,-292.315 549.905,-299.145"/>
</g>
<!-- Node21&#45;&gt;Node1 -->
<g id="edge37" class="edge"><title>Node21&#45;&gt;Node1</title>
<path fill="none" stroke="midnightblue" d="M632.793,-283.056C700.224,-281.376 836.254,-273.662 865.688,-239 879.712,-222.486 847.458,-186.186 846.688,-184 834.602,-149.687 828.331,-107.42 825.546,-83.7649"/>
<polygon fill="midnightblue" stroke="midnightblue" points="829.019,-83.3223 824.449,-73.7637 822.061,-84.0857 829.019,-83.3223"/>
</g>
<!-- Node21&#45;&gt;Node2 -->
<g id="edge45" class="edge"><title>Node21&#45;&gt;Node2</title>
<path fill="none" stroke="midnightblue" d="M632.719,-282.729C707.965,-280.496 872.398,-271.886 916.688,-239 987.95,-186.087 1012.25,-73.1065 1019.23,-28.8346"/>
<polygon fill="midnightblue" stroke="midnightblue" points="1022.7,-29.3213 1020.68,-18.9201 1015.77,-28.3084 1022.7,-29.3213"/>
</g>
<!-- Node21&#45;&gt;Node10 -->
<g id="edge39" class="edge"><title>Node21&#45;&gt;Node10</title>
<path fill="none" stroke="midnightblue" d="M556.639,-279.483C509.374,-273.618 432.847,-260.948 415.688,-239 410.487,-232.347 410.352,-226.545 415.688,-220 465.862,-158.454 540.514,-245.546 590.688,-184 601.25,-171.045 594.911,-151.834 587.688,-137.937"/>
<polygon fill="midnightblue" stroke="midnightblue" points="590.523,-135.845 582.502,-128.923 584.455,-139.336 590.523,-135.845"/>
</g>
<!-- Node21&#45;&gt;Node11 -->
<g id="edge40" class="edge"><title>Node21&#45;&gt;Node11</title>
<path fill="none" stroke="midnightblue" d="M556.529,-278.856C512.016,-272.741 436.626,-260.202 374.688,-239 322.598,-221.169 296.341,-228.329 263.688,-184 241.819,-154.311 241.106,-109.04 242.75,-83.9181"/>
<polygon fill="midnightblue" stroke="midnightblue" points="246.264,-83.9037 243.634,-73.6406 239.29,-83.304 246.264,-83.9037"/>
</g>
<!-- Node21&#45;&gt;Node12 -->
<g id="edge38" class="edge"><title>Node21&#45;&gt;Node12</title>
<path fill="none" stroke="midnightblue" d="M632.735,-283.825C706.502,-283.558 864.725,-278.297 898.688,-239 909.406,-226.599 906.037,-207.272 901.3,-193.195"/>
<polygon fill="midnightblue" stroke="midnightblue" points="904.485,-191.727 897.622,-183.656 897.954,-194.246 904.485,-191.727"/>
</g>
<!-- Node21&#45;&gt;Node14 -->
<g id="edge41" class="edge"><title>Node21&#45;&gt;Node14</title>
<path fill="none" stroke="midnightblue" d="M556.285,-281.083C501.235,-276.727 404.14,-265.423 382.688,-239 367.185,-219.905 394.829,-200.326 418.491,-188.052"/>
<polygon fill="midnightblue" stroke="midnightblue" points="420.169,-191.127 427.594,-183.569 417.076,-184.848 420.169,-191.127"/>
</g>
<!-- Node21&#45;&gt;Node17 -->
<g id="edge43" class="edge"><title>Node21&#45;&gt;Node17</title>
<path fill="none" stroke="midnightblue" d="M575.551,-275.45C554.737,-266.695 521.241,-252.606 497.299,-242.535"/>
<polygon fill="midnightblue" stroke="midnightblue" points="498.58,-239.276 488.005,-238.625 495.865,-245.729 498.58,-239.276"/>
</g>
<!-- Node21&#45;&gt;Node18 -->
<g id="edge42" class="edge"><title>Node21&#45;&gt;Node18</title>
<path fill="none" stroke="midnightblue" d="M584.301,-275.347C569.757,-262.927 546.505,-238.737 559.688,-220 569.07,-206.665 606.461,-194.381 637.754,-186.114"/>
<polygon fill="midnightblue" stroke="midnightblue" points="638.84,-189.449 647.657,-183.574 637.101,-182.668 638.84,-189.449"/>
</g>
<!-- Node21&#45;&gt;Node19 -->
<g id="edge44" class="edge"><title>Node21&#45;&gt;Node19</title>
<path fill="none" stroke="midnightblue" d="M627.798,-275.45C665.761,-266.221 728.106,-251.063 769.767,-240.935"/>
<polygon fill="midnightblue" stroke="midnightblue" points="770.735,-244.302 779.625,-238.538 769.081,-237.5 770.735,-244.302"/>
</g>
<!-- Node22 -->
<g id="node23" class="node"><title>Node22</title>
<polygon fill="white" stroke="#bfbfbf" points="569.178,-220.5 569.178,-238.5 620.198,-238.5 620.198,-220.5 569.178,-220.5"/>
<text text-anchor="middle" x="594.688" y="-226.5" font-family="Helvetica,sans-Serif" font-size="10.00">iomanip</text>
</g>
<!-- Node21&#45;&gt;Node22 -->
<g id="edge46" class="edge"><title>Node21&#45;&gt;Node22</title>
<path fill="none" stroke="midnightblue" d="M594.688,-275.219C594.688,-268.177 594.688,-257.808 594.688,-248.828"/>
<polygon fill="midnightblue" stroke="midnightblue" points="598.188,-248.55 594.688,-238.55 591.188,-248.55 598.188,-248.55"/>
</g>
<!-- Node23 -->
<g id="node24" class="node"><title>Node23</title>
<polygon fill="white" stroke="#bfbfbf" points="638.292,-220.5 638.292,-238.5 687.084,-238.5 687.084,-220.5 638.292,-220.5"/>
<text text-anchor="middle" x="662.688" y="-226.5" font-family="Helvetica,sans-Serif" font-size="10.00">cstdarg</text>
</g>
<!-- Node21&#45;&gt;Node23 -->
<g id="edge47" class="edge"><title>Node21&#45;&gt;Node23</title>
<path fill="none" stroke="midnightblue" d="M605.016,-275.45C615.4,-267.357 631.634,-254.704 644.235,-244.882"/>
<polygon fill="midnightblue" stroke="midnightblue" points="646.527,-247.533 652.263,-238.625 642.224,-242.012 646.527,-247.533"/>
</g>
<!-- Node24 -->
<g id="node25" class="node"><title>Node24</title>
<polygon fill="white" stroke="#bfbfbf" points="705.237,-220.5 705.237,-238.5 750.139,-238.5 750.139,-220.5 705.237,-220.5"/>
<text text-anchor="middle" x="727.688" y="-226.5" font-family="Helvetica,sans-Serif" font-size="10.00">cctype</text>
</g>
<!-- Node21&#45;&gt;Node24 -->
<g id="edge48" class="edge"><title>Node21&#45;&gt;Node24</title>
<path fill="none" stroke="midnightblue" d="M614.888,-275.45C636.956,-266.656 672.53,-252.48 697.824,-242.401"/>
<polygon fill="midnightblue" stroke="midnightblue" points="699.304,-245.579 707.298,-238.625 696.713,-239.076 699.304,-245.579"/>
</g>
</g>
</svg>
