<?xml version="1.0" encoding="UTF-8" standalone="no"?>
<!DOCTYPE svg PUBLIC "-//W3C//DTD SVG 1.1//EN"
 "http://www.w3.org/Graphics/SVG/1.1/DTD/svg11.dtd">
<!-- Generated by graphviz version 2.38.0 (20140413.2041)
 -->
<!-- Title: fuzzylite/fl/term/Aggregated.h Pages: 1 -->
<svg width="910pt" height="467pt"
 viewBox="0.00 0.00 909.75 467.00" xmlns="http://www.w3.org/2000/svg" xmlns:xlink="http://www.w3.org/1999/xlink">
<g id="graph0" class="graph" transform="scale(1 1) rotate(0) translate(4 463)">
<title>fuzzylite/fl/term/Aggregated.h</title>
<polygon fill="white" stroke="none" points="-4,4 -4,-463 905.753,-463 905.753,4 -4,4"/>
<!-- Node0 -->
<g id="node1" class="node"><title>Node0</title>
<polygon fill="#bfbfbf" stroke="black" points="756.247,-440.5 756.247,-458.5 901.753,-458.5 901.753,-440.5 756.247,-440.5"/>
<text text-anchor="middle" x="829" y="-446.5" font-family="Helvetica,sans-Serif" font-size="10.00">fuzzylite/fl/term/Aggregated.h</text>
</g>
<!-- Node1 -->
<g id="node2" class="node"><title>Node1</title>
<g id="a_node2"><a xlink:href="../../d8/d11/_term_8h.html" target="_top" xlink:title="fl/term/Term.h">
<polygon fill="white" stroke="black" points="714.441,-330.5 714.441,-348.5 791.559,-348.5 791.559,-330.5 714.441,-330.5"/>
<text text-anchor="middle" x="753" y="-336.5" font-family="Helvetica,sans-Serif" font-size="10.00">fl/term/Term.h</text>
</a>
</g>
</g>
<!-- Node0&#45;&gt;Node1 -->
<g id="edge1" class="edge"><title>Node0&#45;&gt;Node1</title>
<path fill="none" stroke="midnightblue" d="M828.171,-440.405C826.534,-427.638 821.944,-402.483 810,-385 801.45,-372.485 788.288,-361.877 776.765,-354.161"/>
<polygon fill="midnightblue" stroke="midnightblue" points="778.316,-351.001 767.995,-348.612 774.574,-356.916 778.316,-351.001"/>
</g>
<!-- Node14 -->
<g id="node15" class="node"><title>Node14</title>
<polygon fill="white" stroke="#bfbfbf" points="693.384,-55.5 693.384,-73.5 736.616,-73.5 736.616,-55.5 693.384,-55.5"/>
<text text-anchor="middle" x="715" y="-61.5" font-family="Helvetica,sans-Serif" font-size="10.00">vector</text>
</g>
<!-- Node0&#45;&gt;Node14 -->
<g id="edge43" class="edge"><title>Node0&#45;&gt;Node14</title>
<path fill="none" stroke="midnightblue" d="M829.285,-440.272C829.64,-428.158 830.078,-404.814 829,-385 823.659,-286.787 827.3,-260.796 805,-165 799.103,-139.667 801.287,-130.28 785,-110 774.083,-96.4074 757.837,-85.7189 743.744,-78.2277"/>
<polygon fill="midnightblue" stroke="midnightblue" points="744.931,-74.9076 734.422,-73.5558 741.794,-81.1656 744.931,-74.9076"/>
</g>
<!-- Node23 -->
<g id="node24" class="node"><title>Node23</title>
<g id="a_node24"><a xlink:href="../../d4/dd1/_activated_8h.html" target="_top" xlink:title="fl/term/Activated.h">
<polygon fill="white" stroke="black" points="704.985,-385.5 704.985,-403.5 801.015,-403.5 801.015,-385.5 704.985,-385.5"/>
<text text-anchor="middle" x="753" y="-391.5" font-family="Helvetica,sans-Serif" font-size="10.00">fl/term/Activated.h</text>
</a>
</g>
</g>
<!-- Node0&#45;&gt;Node23 -->
<g id="edge41" class="edge"><title>Node0&#45;&gt;Node23</title>
<path fill="none" stroke="midnightblue" d="M817.457,-440.45C805.739,-432.279 787.358,-419.46 773.218,-409.6"/>
<polygon fill="midnightblue" stroke="midnightblue" points="774.856,-406.475 764.651,-403.625 770.852,-412.216 774.856,-406.475"/>
</g>
<!-- Node2 -->
<g id="node3" class="node"><title>Node2</title>
<g id="a_node3"><a xlink:href="../../de/d53/fuzzylite_8h.html" target="_top" xlink:title="fl/fuzzylite.h">
<polygon fill="white" stroke="black" points="354.879,-55.5 354.879,-73.5 423.121,-73.5 423.121,-55.5 354.879,-55.5"/>
<text text-anchor="middle" x="389" y="-61.5" font-family="Helvetica,sans-Serif" font-size="10.00">fl/fuzzylite.h</text>
</a>
</g>
</g>
<!-- Node1&#45;&gt;Node2 -->
<g id="edge2" class="edge"><title>Node1&#45;&gt;Node2</title>
<path fill="none" stroke="midnightblue" d="M714.305,-336.778C565.446,-329.646 38,-299.508 38,-230.5 38,-230.5 38,-230.5 38,-173.5 38,-110.05 250.179,-79.9781 344.601,-69.7373"/>
<polygon fill="midnightblue" stroke="midnightblue" points="345.129,-73.201 354.706,-68.6685 344.393,-66.2399 345.129,-73.201"/>
</g>
<!-- Node4 -->
<g id="node5" class="node"><title>Node4</title>
<polygon fill="white" stroke="#bfbfbf" points="702.384,-0.5 702.384,-18.5 745.616,-18.5 745.616,-0.5 702.384,-0.5"/>
<text text-anchor="middle" x="724" y="-6.5" font-family="Helvetica,sans-Serif" font-size="10.00">cmath</text>
</g>
<!-- Node1&#45;&gt;Node4 -->
<g id="edge38" class="edge"><title>Node1&#45;&gt;Node4</title>
<path fill="none" stroke="midnightblue" d="M764.348,-330.416C793.182,-308.834 867,-246.638 867,-175.5 867,-175.5 867,-175.5 867,-118.5 867,-63.0289 797.633,-32.4377 755.524,-18.9779"/>
<polygon fill="midnightblue" stroke="midnightblue" points="756.304,-15.5569 745.719,-15.9936 754.266,-22.2536 756.304,-15.5569"/>
</g>
<!-- Node10 -->
<g id="node11" class="node"><title>Node10</title>
<g id="a_node11"><a xlink:href="../../d6/dd6/_operation_8h.html" target="_top" xlink:title="fl/Operation.h">
<polygon fill="white" stroke="black" points="321.983,-275.5 321.983,-293.5 398.017,-293.5 398.017,-275.5 321.983,-275.5"/>
<text text-anchor="middle" x="360" y="-281.5" font-family="Helvetica,sans-Serif" font-size="10.00">fl/Operation.h</text>
</a>
</g>
</g>
<!-- Node1&#45;&gt;Node10 -->
<g id="edge10" class="edge"><title>Node1&#45;&gt;Node10</title>
<path fill="none" stroke="midnightblue" d="M714.242,-333.273C642.057,-323.538 487.211,-302.656 408.329,-292.018"/>
<polygon fill="midnightblue" stroke="midnightblue" points="408.556,-288.517 398.178,-290.649 407.621,-295.454 408.556,-288.517"/>
</g>
<!-- Node13 -->
<g id="node14" class="node"><title>Node13</title>
<polygon fill="white" stroke="#bfbfbf" points="393.773,-110.5 393.773,-128.5 434.227,-128.5 434.227,-110.5 393.773,-110.5"/>
<text text-anchor="middle" x="414" y="-116.5" font-family="Helvetica,sans-Serif" font-size="10.00">string</text>
</g>
<!-- Node1&#45;&gt;Node13 -->
<g id="edge39" class="edge"><title>Node1&#45;&gt;Node13</title>
<path fill="none" stroke="midnightblue" d="M745.214,-330.224C725.618,-309.708 672.09,-255.592 620,-220 614.441,-216.201 518.067,-167.92 512,-165 488.523,-153.699 461.546,-141.506 441.847,-132.746"/>
<polygon fill="midnightblue" stroke="midnightblue" points="443.098,-129.473 432.538,-128.621 440.262,-135.872 443.098,-129.473"/>
</g>
<!-- Node1&#45;&gt;Node14 -->
<g id="edge40" class="edge"><title>Node1&#45;&gt;Node14</title>
<path fill="none" stroke="midnightblue" d="M757.968,-330.441C768.268,-312.939 791,-269.856 791,-230.5 791,-230.5 791,-230.5 791,-173.5 791,-134.06 756.683,-98.8584 734.169,-80.0079"/>
<polygon fill="midnightblue" stroke="midnightblue" points="736.2,-77.1498 726.214,-73.6091 731.812,-82.6042 736.2,-77.1498"/>
</g>
<!-- Node16 -->
<g id="node17" class="node"><title>Node16</title>
<g id="a_node17"><a xlink:href="../../d5/de4/_complexity_8h.html" target="_top" xlink:title="fl/Complexity.h">
<polygon fill="white" stroke="black" points="582.581,-110.5 582.581,-128.5 663.419,-128.5 663.419,-110.5 582.581,-110.5"/>
<text text-anchor="middle" x="623" y="-116.5" font-family="Helvetica,sans-Serif" font-size="10.00">fl/Complexity.h</text>
</a>
</g>
</g>
<!-- Node1&#45;&gt;Node16 -->
<g id="edge37" class="edge"><title>Node1&#45;&gt;Node16</title>
<path fill="none" stroke="midnightblue" d="M752.305,-330.315C749.663,-303.685 738.154,-218.166 696,-165 684.88,-150.975 668.039,-140.289 653.334,-132.909"/>
<polygon fill="midnightblue" stroke="midnightblue" points="654.598,-129.635 644.06,-128.534 651.611,-135.966 654.598,-129.635"/>
</g>
<!-- Node3 -->
<g id="node4" class="node"><title>Node3</title>
<polygon fill="white" stroke="#bfbfbf" points="60.436,-0.5 60.436,-18.5 117.564,-18.5 117.564,-0.5 60.436,-0.5"/>
<text text-anchor="middle" x="89" y="-6.5" font-family="Helvetica,sans-Serif" font-size="10.00">algorithm</text>
</g>
<!-- Node2&#45;&gt;Node3 -->
<g id="edge3" class="edge"><title>Node2&#45;&gt;Node3</title>
<path fill="none" stroke="midnightblue" d="M354.878,-57.4718C298.667,-47.5411 186.944,-27.8034 127.806,-17.3557"/>
<polygon fill="midnightblue" stroke="midnightblue" points="128.203,-13.8717 117.746,-15.5785 126.985,-20.7649 128.203,-13.8717"/>
</g>
<!-- Node2&#45;&gt;Node4 -->
<g id="edge4" class="edge"><title>Node2&#45;&gt;Node4</title>
<path fill="none" stroke="midnightblue" d="M423.277,-58.0771C488.381,-47.777 629.053,-25.5215 692.193,-15.5322"/>
<polygon fill="midnightblue" stroke="midnightblue" points="693.012,-18.9461 702.343,-13.9264 691.919,-12.0321 693.012,-18.9461"/>
</g>
<!-- Node5 -->
<g id="node6" class="node"><title>Node5</title>
<polygon fill="white" stroke="#bfbfbf" points="290.828,-0.5 290.828,-18.5 345.172,-18.5 345.172,-0.5 290.828,-0.5"/>
<text text-anchor="middle" x="318" y="-6.5" font-family="Helvetica,sans-Serif" font-size="10.00">iostream</text>
</g>
<!-- Node2&#45;&gt;Node5 -->
<g id="edge5" class="edge"><title>Node2&#45;&gt;Node5</title>
<path fill="none" stroke="midnightblue" d="M378.217,-55.4504C367.374,-47.3566 350.424,-34.7042 337.267,-24.8822"/>
<polygon fill="midnightblue" stroke="midnightblue" points="338.992,-21.8025 328.885,-18.6253 334.805,-27.412 338.992,-21.8025"/>
</g>
<!-- Node6 -->
<g id="node7" class="node"><title>Node6</title>
<polygon fill="white" stroke="#bfbfbf" points="363.219,-0.5 363.219,-18.5 414.781,-18.5 414.781,-0.5 363.219,-0.5"/>
<text text-anchor="middle" x="389" y="-6.5" font-family="Helvetica,sans-Serif" font-size="10.00">sstream</text>
</g>
<!-- Node2&#45;&gt;Node6 -->
<g id="edge6" class="edge"><title>Node2&#45;&gt;Node6</title>
<path fill="none" stroke="midnightblue" d="M389,-55.2188C389,-48.1769 389,-37.8083 389,-28.8277"/>
<polygon fill="midnightblue" stroke="midnightblue" points="392.5,-28.5495 389,-18.5496 385.5,-28.5496 392.5,-28.5495"/>
</g>
<!-- Node7 -->
<g id="node8" class="node"><title>Node7</title>
<polygon fill="white" stroke="#bfbfbf" points="432.613,-0.5 432.613,-18.5 471.387,-18.5 471.387,-0.5 432.613,-0.5"/>
<text text-anchor="middle" x="452" y="-6.5" font-family="Helvetica,sans-Serif" font-size="10.00">limits</text>
</g>
<!-- Node2&#45;&gt;Node7 -->
<g id="edge7" class="edge"><title>Node2&#45;&gt;Node7</title>
<path fill="none" stroke="midnightblue" d="M398.568,-55.4504C408.097,-47.4345 422.94,-34.9471 434.567,-25.1663"/>
<polygon fill="midnightblue" stroke="midnightblue" points="436.943,-27.7413 442.342,-18.6253 432.436,-22.3847 436.943,-27.7413"/>
</g>
<!-- Node8 -->
<g id="node9" class="node"><title>Node8</title>
<polygon fill="white" stroke="#bfbfbf" points="488.943,-0.5 488.943,-18.5 541.057,-18.5 541.057,-0.5 488.943,-0.5"/>
<text text-anchor="middle" x="515" y="-6.5" font-family="Helvetica,sans-Serif" font-size="10.00">memory</text>
</g>
<!-- Node2&#45;&gt;Node8 -->
<g id="edge8" class="edge"><title>Node2&#45;&gt;Node8</title>
<path fill="none" stroke="midnightblue" d="M408.137,-55.4504C428.951,-46.6951 462.447,-32.6055 486.389,-22.5346"/>
<polygon fill="midnightblue" stroke="midnightblue" points="487.823,-25.7289 495.683,-18.6253 485.108,-19.2765 487.823,-25.7289"/>
</g>
<!-- Node9 -->
<g id="node10" class="node"><title>Node9</title>
<polygon fill="white" stroke="#bfbfbf" points="224.879,-0.5 224.879,-18.5 273.121,-18.5 273.121,-0.5 224.879,-0.5"/>
<text text-anchor="middle" x="249" y="-6.5" font-family="Helvetica,sans-Serif" font-size="10.00">cstddef</text>
</g>
<!-- Node2&#45;&gt;Node9 -->
<g id="edge9" class="edge"><title>Node2&#45;&gt;Node9</title>
<path fill="none" stroke="midnightblue" d="M367.737,-55.4504C344.404,-46.6173 306.729,-32.3546 280.083,-22.267"/>
<polygon fill="midnightblue" stroke="midnightblue" points="281.055,-18.8926 270.463,-18.6253 278.576,-25.4392 281.055,-18.8926"/>
</g>
<!-- Node10&#45;&gt;Node2 -->
<g id="edge11" class="edge"><title>Node10&#45;&gt;Node2</title>
<path fill="none" stroke="midnightblue" d="M321.949,-282.898C255.733,-280.958 123.626,-272.833 95,-239 89.5457,-232.553 91.6486,-227.751 95,-220 123.326,-154.489 149.379,-144.246 212,-110 253.801,-87.1402 307.561,-75.7822 344.81,-70.301"/>
<polygon fill="midnightblue" stroke="midnightblue" points="345.431,-73.7484 354.855,-68.9061 344.468,-66.8149 345.431,-73.7484"/>
</g>
<!-- Node10&#45;&gt;Node3 -->
<g id="edge33" class="edge"><title>Node10&#45;&gt;Node3</title>
<path fill="none" stroke="midnightblue" d="M321.541,-282.722C267.434,-280.42 166.66,-271.667 88,-239 43.4579,-220.502 0,-223.73 0,-175.5 0,-175.5 0,-175.5 0,-118.5 0,-76.7712 40.0593,-42.4227 66.4265,-24.3339"/>
<polygon fill="midnightblue" stroke="midnightblue" points="68.6655,-27.0503 75.0938,-18.6283 64.8166,-21.2034 68.6655,-27.0503"/>
</g>
<!-- Node11 -->
<g id="node12" class="node"><title>Node11</title>
<g id="a_node12"><a xlink:href="../../df/d98/_exception_8h.html" target="_top" xlink:title="fl/Exception.h">
<polygon fill="white" stroke="black" points="211.983,-165.5 211.983,-183.5 288.017,-183.5 288.017,-165.5 211.983,-165.5"/>
<text text-anchor="middle" x="250" y="-171.5" font-family="Helvetica,sans-Serif" font-size="10.00">fl/Exception.h</text>
</a>
</g>
</g>
<!-- Node10&#45;&gt;Node11 -->
<g id="edge12" class="edge"><title>Node10&#45;&gt;Node11</title>
<path fill="none" stroke="midnightblue" d="M333.469,-275.494C314.596,-268.572 289.872,-256.831 274,-239 262.623,-226.219 256.431,-207.511 253.203,-193.709"/>
<polygon fill="midnightblue" stroke="midnightblue" points="256.63,-193.001 251.206,-183.9 249.771,-194.397 256.63,-193.001"/>
</g>
<!-- Node10&#45;&gt;Node13 -->
<g id="edge17" class="edge"><title>Node10&#45;&gt;Node13</title>
<path fill="none" stroke="midnightblue" d="M344.425,-275.371C325.416,-264.252 296.964,-243.038 307,-220 323.964,-181.061 364.51,-150.494 390.534,-134.004"/>
<polygon fill="midnightblue" stroke="midnightblue" points="392.695,-136.785 399.394,-128.577 389.038,-130.816 392.695,-136.785"/>
</g>
<!-- Node10&#45;&gt;Node14 -->
<g id="edge18" class="edge"><title>Node10&#45;&gt;Node14</title>
<path fill="none" stroke="midnightblue" d="M398.281,-284.486C454.16,-284.407 560,-278.422 639,-239 670.5,-223.281 679.709,-215.207 696,-184 712.904,-151.619 715.566,-108.015 715.565,-83.745"/>
<polygon fill="midnightblue" stroke="midnightblue" points="719.061,-83.4603 715.401,-73.5176 712.062,-83.5724 719.061,-83.4603"/>
</g>
<!-- Node15 -->
<g id="node16" class="node"><title>Node15</title>
<g id="a_node16"><a xlink:href="../../d7/d8a/_defuzzifier_8h.html" target="_top" xlink:title="fl/defuzzifier/Defuzzifier.h">
<polygon fill="white" stroke="black" points="559.419,-165.5 559.419,-183.5 686.581,-183.5 686.581,-165.5 559.419,-165.5"/>
<text text-anchor="middle" x="623" y="-171.5" font-family="Helvetica,sans-Serif" font-size="10.00">fl/defuzzifier/Defuzzifier.h</text>
</a>
</g>
</g>
<!-- Node10&#45;&gt;Node15 -->
<g id="edge19" class="edge"><title>Node10&#45;&gt;Node15</title>
<path fill="none" stroke="midnightblue" d="M398.213,-282.612C463.276,-280.222 591.326,-271.414 620,-239 630.732,-226.868 630.145,-207.775 627.69,-193.691"/>
<polygon fill="midnightblue" stroke="midnightblue" points="631.059,-192.718 625.501,-183.698 624.222,-194.215 631.059,-192.718"/>
</g>
<!-- Node17 -->
<g id="node18" class="node"><title>Node17</title>
<g id="a_node18"><a xlink:href="../../d7/d72/_norm_8h.html" target="_top" xlink:title="fl/norm/Norm.h">
<polygon fill="white" stroke="black" points="420.938,-165.5 420.938,-183.5 503.062,-183.5 503.062,-165.5 420.938,-165.5"/>
<text text-anchor="middle" x="462" y="-171.5" font-family="Helvetica,sans-Serif" font-size="10.00">fl/norm/Norm.h</text>
</a>
</g>
</g>
<!-- Node10&#45;&gt;Node17 -->
<g id="edge25" class="edge"><title>Node10&#45;&gt;Node17</title>
<path fill="none" stroke="midnightblue" d="M398.2,-279.902C424.856,-275.172 458.649,-264.241 476,-239 485.469,-225.226 479.302,-206.143 472.418,-192.5"/>
<polygon fill="midnightblue" stroke="midnightblue" points="475.424,-190.705 467.492,-183.681 469.313,-194.119 475.424,-190.705"/>
</g>
<!-- Node18 -->
<g id="node19" class="node"><title>Node18</title>
<g id="a_node19"><a xlink:href="../../de/d44/_s_norm_8h.html" target="_top" xlink:title="fl/norm/SNorm.h">
<polygon fill="white" stroke="black" points="522.604,-220.5 522.604,-238.5 611.396,-238.5 611.396,-220.5 522.604,-220.5"/>
<text text-anchor="middle" x="567" y="-226.5" font-family="Helvetica,sans-Serif" font-size="10.00">fl/norm/SNorm.h</text>
</a>
</g>
</g>
<!-- Node10&#45;&gt;Node18 -->
<g id="edge29" class="edge"><title>Node10&#45;&gt;Node18</title>
<path fill="none" stroke="midnightblue" d="M391.439,-275.45C427.334,-266.26 486.186,-251.192 525.742,-241.064"/>
<polygon fill="midnightblue" stroke="midnightblue" points="526.786,-244.409 535.605,-238.538 525.049,-237.628 526.786,-244.409"/>
</g>
<!-- Node19 -->
<g id="node20" class="node"><title>Node19</title>
<g id="a_node20"><a xlink:href="../../d0/d24/_t_norm_8h.html" target="_top" xlink:title="fl/norm/TNorm.h">
<polygon fill="white" stroke="black" points="315.884,-220.5 315.884,-238.5 404.116,-238.5 404.116,-220.5 315.884,-220.5"/>
<text text-anchor="middle" x="360" y="-226.5" font-family="Helvetica,sans-Serif" font-size="10.00">fl/norm/TNorm.h</text>
</a>
</g>
</g>
<!-- Node10&#45;&gt;Node19 -->
<g id="edge31" class="edge"><title>Node10&#45;&gt;Node19</title>
<path fill="none" stroke="midnightblue" d="M360,-275.219C360,-268.177 360,-257.808 360,-248.828"/>
<polygon fill="midnightblue" stroke="midnightblue" points="363.5,-248.55 360,-238.55 356.5,-248.55 363.5,-248.55"/>
</g>
<!-- Node20 -->
<g id="node21" class="node"><title>Node20</title>
<polygon fill="white" stroke="#bfbfbf" points="104.49,-220.5 104.49,-238.5 155.51,-238.5 155.51,-220.5 104.49,-220.5"/>
<text text-anchor="middle" x="130" y="-226.5" font-family="Helvetica,sans-Serif" font-size="10.00">iomanip</text>
</g>
<!-- Node10&#45;&gt;Node20 -->
<g id="edge34" class="edge"><title>Node10&#45;&gt;Node20</title>
<path fill="none" stroke="midnightblue" d="M324.025,-275.447C286.858,-267.093 226.911,-253.522 165.474,-239.085"/>
<polygon fill="midnightblue" stroke="midnightblue" points="166.14,-235.647 155.604,-236.762 164.536,-242.46 166.14,-235.647"/>
</g>
<!-- Node21 -->
<g id="node22" class="node"><title>Node21</title>
<polygon fill="white" stroke="#bfbfbf" points="173.604,-220.5 173.604,-238.5 222.396,-238.5 222.396,-220.5 173.604,-220.5"/>
<text text-anchor="middle" x="198" y="-226.5" font-family="Helvetica,sans-Serif" font-size="10.00">cstdarg</text>
</g>
<!-- Node10&#45;&gt;Node21 -->
<g id="edge35" class="edge"><title>Node10&#45;&gt;Node21</title>
<path fill="none" stroke="midnightblue" d="M335.396,-275.45C307.841,-266.436 263,-251.765 232.08,-241.65"/>
<polygon fill="midnightblue" stroke="midnightblue" points="233.163,-238.321 222.57,-238.538 230.986,-244.974 233.163,-238.321"/>
</g>
<!-- Node22 -->
<g id="node23" class="node"><title>Node22</title>
<polygon fill="white" stroke="#bfbfbf" points="422.549,-220.5 422.549,-238.5 467.451,-238.5 467.451,-220.5 422.549,-220.5"/>
<text text-anchor="middle" x="445" y="-226.5" font-family="Helvetica,sans-Serif" font-size="10.00">cctype</text>
</g>
<!-- Node10&#45;&gt;Node22 -->
<g id="edge36" class="edge"><title>Node10&#45;&gt;Node22</title>
<path fill="none" stroke="midnightblue" d="M372.91,-275.45C386.265,-267.123 407.359,-253.97 423.286,-244.039"/>
<polygon fill="midnightblue" stroke="midnightblue" points="425.335,-246.886 431.969,-238.625 421.631,-240.946 425.335,-246.886"/>
</g>
<!-- Node11&#45;&gt;Node2 -->
<g id="edge13" class="edge"><title>Node11&#45;&gt;Node2</title>
<path fill="none" stroke="midnightblue" d="M260.448,-165.382C283.893,-147.166 340.952,-102.832 370.533,-79.8483"/>
<polygon fill="midnightblue" stroke="midnightblue" points="372.682,-82.6111 378.431,-73.7118 368.387,-77.0835 372.682,-82.6111"/>
</g>
<!-- Node12 -->
<g id="node13" class="node"><title>Node12</title>
<polygon fill="white" stroke="#bfbfbf" points="220.596,-110.5 220.596,-128.5 279.404,-128.5 279.404,-110.5 220.596,-110.5"/>
<text text-anchor="middle" x="250" y="-116.5" font-family="Helvetica,sans-Serif" font-size="10.00">exception</text>
</g>
<!-- Node11&#45;&gt;Node12 -->
<g id="edge14" class="edge"><title>Node11&#45;&gt;Node12</title>
<path fill="none" stroke="midnightblue" d="M250,-165.219C250,-158.177 250,-147.808 250,-138.828"/>
<polygon fill="midnightblue" stroke="midnightblue" points="253.5,-138.55 250,-128.55 246.5,-138.55 253.5,-138.55"/>
</g>
<!-- Node11&#45;&gt;Node13 -->
<g id="edge15" class="edge"><title>Node11&#45;&gt;Node13</title>
<path fill="none" stroke="midnightblue" d="M274.908,-165.45C304.051,-156.032 352.294,-140.441 383.612,-130.32"/>
<polygon fill="midnightblue" stroke="midnightblue" points="385.093,-133.52 393.532,-127.115 382.941,-126.859 385.093,-133.52"/>
</g>
<!-- Node11&#45;&gt;Node14 -->
<g id="edge16" class="edge"><title>Node11&#45;&gt;Node14</title>
<path fill="none" stroke="midnightblue" d="M263.629,-165.355C287.382,-151.565 338.296,-123.777 385,-110 491.225,-78.6649 623.271,-69.3078 683.003,-66.5828"/>
<polygon fill="midnightblue" stroke="midnightblue" points="683.45,-70.0671 693.293,-66.1473 683.154,-63.0734 683.45,-70.0671"/>
</g>
<!-- Node15&#45;&gt;Node2 -->
<g id="edge20" class="edge"><title>Node15&#45;&gt;Node2</title>
<path fill="none" stroke="midnightblue" d="M605.412,-165.382C564.742,-146.612 463.991,-100.111 415.675,-77.8117"/>
<polygon fill="midnightblue" stroke="midnightblue" points="417.019,-74.5772 406.473,-73.5644 414.086,-80.9329 417.019,-74.5772"/>
</g>
<!-- Node15&#45;&gt;Node13 -->
<g id="edge24" class="edge"><title>Node15&#45;&gt;Node13</title>
<path fill="none" stroke="midnightblue" d="M591.257,-165.45C551.319,-155.322 483.232,-138.056 444.089,-128.13"/>
<polygon fill="midnightblue" stroke="midnightblue" points="444.883,-124.721 434.329,-125.655 443.162,-131.506 444.883,-124.721"/>
</g>
<!-- Node15&#45;&gt;Node16 -->
<g id="edge21" class="edge"><title>Node15&#45;&gt;Node16</title>
<path fill="none" stroke="midnightblue" d="M623,-165.219C623,-158.177 623,-147.808 623,-138.828"/>
<polygon fill="midnightblue" stroke="midnightblue" points="626.5,-138.55 623,-128.55 619.5,-138.55 626.5,-138.55"/>
</g>
<!-- Node16&#45;&gt;Node2 -->
<g id="edge22" class="edge"><title>Node16&#45;&gt;Node2</title>
<path fill="none" stroke="midnightblue" d="M587.46,-110.45C546.183,-101.101 478.051,-85.6696 433.344,-75.5437"/>
<polygon fill="midnightblue" stroke="midnightblue" points="433.873,-72.0749 423.347,-73.2794 432.327,-78.902 433.873,-72.0749"/>
</g>
<!-- Node16&#45;&gt;Node14 -->
<g id="edge23" class="edge"><title>Node16&#45;&gt;Node14</title>
<path fill="none" stroke="midnightblue" d="M636.973,-110.45C651.563,-102.045 674.686,-88.7241 691.979,-78.7618"/>
<polygon fill="midnightblue" stroke="midnightblue" points="693.978,-81.6499 700.896,-73.6253 690.484,-75.5844 693.978,-81.6499"/>
</g>
<!-- Node17&#45;&gt;Node2 -->
<g id="edge26" class="edge"><title>Node17&#45;&gt;Node2</title>
<path fill="none" stroke="midnightblue" d="M461.116,-165.442C459.403,-152.726 454.712,-127.639 443,-110 434.834,-97.7022 422.254,-87.0528 411.29,-79.2578"/>
<polygon fill="midnightblue" stroke="midnightblue" points="413.206,-76.3289 402.958,-73.6413 409.294,-82.1332 413.206,-76.3289"/>
</g>
<!-- Node17&#45;&gt;Node13 -->
<g id="edge28" class="edge"><title>Node17&#45;&gt;Node13</title>
<path fill="none" stroke="midnightblue" d="M454.5,-165.219C447.485,-157.473 436.824,-145.701 428.201,-136.18"/>
<polygon fill="midnightblue" stroke="midnightblue" points="430.597,-133.612 421.29,-128.55 425.409,-138.311 430.597,-133.612"/>
</g>
<!-- Node17&#45;&gt;Node16 -->
<g id="edge27" class="edge"><title>Node17&#45;&gt;Node16</title>
<path fill="none" stroke="midnightblue" d="M486.452,-165.45C513.719,-156.475 558.016,-141.892 588.731,-131.781"/>
<polygon fill="midnightblue" stroke="midnightblue" points="590.178,-134.99 598.582,-128.538 587.989,-128.341 590.178,-134.99"/>
</g>
<!-- Node18&#45;&gt;Node17 -->
<g id="edge30" class="edge"><title>Node18&#45;&gt;Node17</title>
<path fill="none" stroke="midnightblue" d="M551.053,-220.45C534.093,-211.89 507.029,-198.229 487.184,-188.212"/>
<polygon fill="midnightblue" stroke="midnightblue" points="488.602,-185.007 478.097,-183.625 485.447,-191.256 488.602,-185.007"/>
</g>
<!-- Node19&#45;&gt;Node17 -->
<g id="edge32" class="edge"><title>Node19&#45;&gt;Node17</title>
<path fill="none" stroke="midnightblue" d="M375.492,-220.45C391.892,-211.929 418.018,-198.353 437.272,-188.349"/>
<polygon fill="midnightblue" stroke="midnightblue" points="439.103,-191.342 446.363,-183.625 435.875,-185.13 439.103,-191.342"/>
</g>
<!-- Node23&#45;&gt;Node1 -->
<g id="edge42" class="edge"><title>Node23&#45;&gt;Node1</title>
<path fill="none" stroke="midnightblue" d="M753,-385.219C753,-378.177 753,-367.808 753,-358.828"/>
<polygon fill="midnightblue" stroke="midnightblue" points="756.5,-358.55 753,-348.55 749.5,-358.55 756.5,-358.55"/>
</g>
</g>
</svg>
