<?xml version="1.0" encoding="UTF-8" standalone="no"?>
<!DOCTYPE svg PUBLIC "-//W3C//DTD SVG 1.1//EN"
 "http://www.w3.org/Graphics/SVG/1.1/DTD/svg11.dtd">
<!-- Generated by graphviz version 2.38.0 (20140413.2041)
 -->
<!-- Title: fl::Function Pages: 1 -->
<svg width="313pt" height="676pt"
 viewBox="0.00 0.00 312.60 676.00" xmlns="http://www.w3.org/2000/svg" xmlns:xlink="http://www.w3.org/1999/xlink">
<g id="graph0" class="graph" transform="scale(1 1) rotate(0) translate(4 672)">
<title>fl::Function</title>
<polygon fill="white" stroke="none" points="-4,4 -4,-672 308.597,-672 308.597,4 -4,4"/>
<!-- Node2 -->
<g id="node1" class="node"><title>Node2</title>
<polygon fill="#bfbfbf" stroke="black" points="50.8521,-0.5 50.8521,-224.5 137.15,-224.5 137.15,-0.5 50.8521,-0.5"/>
<text text-anchor="middle" x="94.001" y="-212.5" font-family="Helvetica,sans-Serif" font-size="10.00">fl::Function</text>
<polyline fill="none" stroke="black" points="50.8521,-206.5 137.15,-206.5 "/>
<text text-anchor="middle" x="94.001" y="-194.5" font-family="Helvetica,sans-Serif" font-size="10.00"> </text>
<polyline fill="none" stroke="black" points="50.8521,-188.5 137.15,-188.5 "/>
<text text-anchor="start" x="58.8521" y="-176.5" font-family="Helvetica,sans-Serif" font-size="10.00">+ Function()</text>
<text text-anchor="start" x="58.8521" y="-166.5" font-family="Helvetica,sans-Serif" font-size="10.00">+ Function()</text>
<text text-anchor="start" x="58.8521" y="-156.5" font-family="Helvetica,sans-Serif" font-size="10.00">+ operator=()</text>
<text text-anchor="start" x="58.8521" y="-146.5" font-family="Helvetica,sans-Serif" font-size="10.00">+ ~Function()</text>
<text text-anchor="start" x="58.8521" y="-136.5" font-family="Helvetica,sans-Serif" font-size="10.00">+ complexity()</text>
<text text-anchor="start" x="58.8521" y="-126.5" font-family="Helvetica,sans-Serif" font-size="10.00">+ membership()</text>
<text text-anchor="start" x="58.8521" y="-116.5" font-family="Helvetica,sans-Serif" font-size="10.00">+ evaluate()</text>
<text text-anchor="start" x="58.8521" y="-106.5" font-family="Helvetica,sans-Serif" font-size="10.00">+ className()</text>
<text text-anchor="start" x="58.8521" y="-96.5" font-family="Helvetica,sans-Serif" font-size="10.00">+ parameters()</text>
<text text-anchor="start" x="58.8521" y="-86.5" font-family="Helvetica,sans-Serif" font-size="10.00">+ configure()</text>
<text text-anchor="start" x="58.8521" y="-76.5" font-family="Helvetica,sans-Serif" font-size="10.00">+ setFormula()</text>
<text text-anchor="start" x="58.8521" y="-66.5" font-family="Helvetica,sans-Serif" font-size="10.00">+ getFormula()</text>
<text text-anchor="start" x="58.8521" y="-56.5" font-family="Helvetica,sans-Serif" font-size="10.00">+ setEngine()</text>
<text text-anchor="start" x="58.8521" y="-46.5" font-family="Helvetica,sans-Serif" font-size="10.00">+ getEngine()</text>
<text text-anchor="start" x="58.8521" y="-36.5" font-family="Helvetica,sans-Serif" font-size="10.00">+ root()</text>
<text text-anchor="start" x="58.8521" y="-26.5" font-family="Helvetica,sans-Serif" font-size="10.00">and 10 more...</text>
<text text-anchor="start" x="58.8521" y="-16.5" font-family="Helvetica,sans-Serif" font-size="10.00">+ create()</text>
<text text-anchor="start" x="58.8521" y="-6.5" font-family="Helvetica,sans-Serif" font-size="10.00">+ constructor()</text>
</g>
<!-- Node3 -->
<g id="node2" class="node"><title>Node3</title>
<g id="a_node2"><a xlink:href="../../d4/de6/classfl_1_1_term.html" target="_top" xlink:title="The Term class is the abstract class for linguistic terms. ">
<polygon fill="white" stroke="black" points="0,-271.5 0,-455.5 108.002,-455.5 108.002,-271.5 0,-271.5"/>
<text text-anchor="middle" x="54.001" y="-443.5" font-family="Helvetica,sans-Serif" font-size="10.00">fl::Term</text>
<polyline fill="none" stroke="black" points="0,-437.5 108.002,-437.5 "/>
<text text-anchor="start" x="8" y="-425.5" font-family="Helvetica,sans-Serif" font-size="10.00"># _height</text>
<polyline fill="none" stroke="black" points="0,-419.5 108.002,-419.5 "/>
<text text-anchor="start" x="8" y="-407.5" font-family="Helvetica,sans-Serif" font-size="10.00">+ Term()</text>
<text text-anchor="start" x="8" y="-397.5" font-family="Helvetica,sans-Serif" font-size="10.00">+ ~Term()</text>
<text text-anchor="start" x="8" y="-387.5" font-family="Helvetica,sans-Serif" font-size="10.00">+ setName()</text>
<text text-anchor="start" x="8" y="-377.5" font-family="Helvetica,sans-Serif" font-size="10.00">+ getName()</text>
<text text-anchor="start" x="8" y="-367.5" font-family="Helvetica,sans-Serif" font-size="10.00">+ setHeight()</text>
<text text-anchor="start" x="8" y="-357.5" font-family="Helvetica,sans-Serif" font-size="10.00">+ getHeight()</text>
<text text-anchor="start" x="8" y="-347.5" font-family="Helvetica,sans-Serif" font-size="10.00">+ toString()</text>
<text text-anchor="start" x="8" y="-337.5" font-family="Helvetica,sans-Serif" font-size="10.00">+ className()</text>
<text text-anchor="start" x="8" y="-327.5" font-family="Helvetica,sans-Serif" font-size="10.00">+ parameters()</text>
<text text-anchor="start" x="8" y="-317.5" font-family="Helvetica,sans-Serif" font-size="10.00">+ configure()</text>
<text text-anchor="start" x="8" y="-307.5" font-family="Helvetica,sans-Serif" font-size="10.00">+ complexity()</text>
<text text-anchor="start" x="8" y="-297.5" font-family="Helvetica,sans-Serif" font-size="10.00">+ membership()</text>
<text text-anchor="start" x="8" y="-287.5" font-family="Helvetica,sans-Serif" font-size="10.00">+ clone()</text>
<text text-anchor="start" x="8" y="-277.5" font-family="Helvetica,sans-Serif" font-size="10.00">+ updateReference()</text>
</a>
</g>
</g>
<!-- Node3&#45;&gt;Node2 -->
<g id="edge1" class="edge"><title>Node3&#45;&gt;Node2</title>
<path fill="none" stroke="midnightblue" d="M70.2779,-261.176C72.2094,-249.152 74.189,-236.83 76.141,-224.678"/>
<polygon fill="none" stroke="midnightblue" points="66.7988,-260.767 68.6684,-271.195 73.7102,-261.877 66.7988,-260.767"/>
</g>
<!-- Node4 -->
<g id="node3" class="node"><title>Node4</title>
<polygon fill="white" stroke="#bfbfbf" points="126.453,-331.5 126.453,-395.5 235.549,-395.5 235.549,-331.5 126.453,-331.5"/>
<text text-anchor="start" x="134.453" y="-383.5" font-family="Helvetica,sans-Serif" font-size="10.00">std::map&lt; std::string,</text>
<text text-anchor="middle" x="181.001" y="-373.5" font-family="Helvetica,sans-Serif" font-size="10.00"> scalar &gt;</text>
<polyline fill="none" stroke="#bfbfbf" points="126.453,-367.5 235.549,-367.5 "/>
<text text-anchor="start" x="134.453" y="-355.5" font-family="Helvetica,sans-Serif" font-size="10.00">+ elements</text>
<polyline fill="none" stroke="#bfbfbf" points="126.453,-349.5 235.549,-349.5 "/>
<text text-anchor="middle" x="181.001" y="-337.5" font-family="Helvetica,sans-Serif" font-size="10.00"> </text>
</g>
<!-- Node4&#45;&gt;Node2 -->
<g id="edge2" class="edge"><title>Node4&#45;&gt;Node2</title>
<path fill="none" stroke="#404040" d="M170.158,-331.467C161.65,-307.116 149.214,-271.523 136.848,-236.132"/>
<polygon fill="none" stroke="#404040" points="136.799,-235.991 131.044,-231.646 132.841,-224.663 138.596,-229.007 136.799,-235.991"/>
<text text-anchor="middle" x="166.32" y="-245" font-family="Helvetica,sans-Serif" font-size="10.00"> +variables</text>
</g>
<!-- Node5 -->
<g id="node4" class="node"><title>Node5</title>
<g id="a_node4"><a xlink:title="STL class. ">
<polygon fill="white" stroke="#bfbfbf" points="100.326,-502.5 100.326,-556.5 159.676,-556.5 159.676,-502.5 100.326,-502.5"/>
<text text-anchor="middle" x="130.001" y="-544.5" font-family="Helvetica,sans-Serif" font-size="10.00">std::string</text>
<polyline fill="none" stroke="#bfbfbf" points="100.326,-538.5 159.676,-538.5 "/>
<text text-anchor="middle" x="130.001" y="-526.5" font-family="Helvetica,sans-Serif" font-size="10.00"> </text>
<polyline fill="none" stroke="#bfbfbf" points="100.326,-520.5 159.676,-520.5 "/>
<text text-anchor="middle" x="130.001" y="-508.5" font-family="Helvetica,sans-Serif" font-size="10.00"> </text>
</a>
</g>
</g>
<!-- Node5&#45;&gt;Node4 -->
<g id="edge3" class="edge"><title>Node5&#45;&gt;Node4</title>
<path fill="none" stroke="#404040" d="M138.195,-502.151C146.139,-476.605 158.326,-437.417 167.667,-407.377"/>
<polygon fill="none" stroke="#404040" points="167.784,-407 165.747,-400.083 171.348,-395.541 173.386,-402.459 167.784,-407"/>
<text text-anchor="middle" x="160.591" y="-476" font-family="Helvetica,sans-Serif" font-size="10.00"> +keys</text>
</g>
<!-- Node6 -->
<g id="node5" class="node"><title>Node6</title>
<g id="a_node5"><a xlink:title="STL class. ">
<polygon fill="white" stroke="#bfbfbf" points="82.9531,-603.5 82.9531,-667.5 177.049,-667.5 177.049,-603.5 82.9531,-603.5"/>
<text text-anchor="start" x="90.9531" y="-655.5" font-family="Helvetica,sans-Serif" font-size="10.00">std::basic_string&lt;</text>
<text text-anchor="middle" x="130.001" y="-645.5" font-family="Helvetica,sans-Serif" font-size="10.00"> char &gt;</text>
<polyline fill="none" stroke="#bfbfbf" points="82.9531,-639.5 177.049,-639.5 "/>
<text text-anchor="middle" x="130.001" y="-627.5" font-family="Helvetica,sans-Serif" font-size="10.00"> </text>
<polyline fill="none" stroke="#bfbfbf" points="82.9531,-621.5 177.049,-621.5 "/>
<text text-anchor="middle" x="130.001" y="-609.5" font-family="Helvetica,sans-Serif" font-size="10.00"> </text>
</a>
</g>
</g>
<!-- Node6&#45;&gt;Node5 -->
<g id="edge4" class="edge"><title>Node6&#45;&gt;Node5</title>
<path fill="none" stroke="midnightblue" d="M130.001,-593.235C130.001,-580.946 130.001,-567.821 130.001,-556.769"/>
<polygon fill="none" stroke="midnightblue" points="126.501,-593.297 130.001,-603.297 133.501,-593.297 126.501,-593.297"/>
</g>
<!-- Node7 -->
<g id="node6" class="node"><title>Node7</title>
<g id="a_node6"><a xlink:title="STL class. ">
<polygon fill="white" stroke="#bfbfbf" points="177.216,-502.5 177.216,-556.5 266.786,-556.5 266.786,-502.5 177.216,-502.5"/>
<text text-anchor="middle" x="222.001" y="-544.5" font-family="Helvetica,sans-Serif" font-size="10.00">std::map&lt; K, T &gt;</text>
<polyline fill="none" stroke="#bfbfbf" points="177.216,-538.5 266.786,-538.5 "/>
<text text-anchor="middle" x="222.001" y="-526.5" font-family="Helvetica,sans-Serif" font-size="10.00"> </text>
<polyline fill="none" stroke="#bfbfbf" points="177.216,-520.5 266.786,-520.5 "/>
<text text-anchor="middle" x="222.001" y="-508.5" font-family="Helvetica,sans-Serif" font-size="10.00"> </text>
</a>
</g>
</g>
<!-- Node7&#45;&gt;Node4 -->
<g id="edge5" class="edge"><title>Node7&#45;&gt;Node4</title>
<path fill="none" stroke="orange" d="M212.977,-492.404C205.728,-463.406 195.653,-423.109 188.761,-395.541"/>
<polygon fill="orange" stroke="orange" points="209.593,-493.298 215.414,-502.151 216.384,-491.6 209.593,-493.298"/>
<text text-anchor="middle" x="256.799" y="-476" font-family="Helvetica,sans-Serif" font-size="10.00"> &lt; std::string, scalar &gt;</text>
</g>
<!-- Node8 -->
<g id="node7" class="node"><title>Node8</title>
<polygon fill="white" stroke="#bfbfbf" points="201.501,-608.5 201.501,-662.5 230.501,-662.5 230.501,-608.5 201.501,-608.5"/>
<text text-anchor="middle" x="215.836" y="-650.5" font-family="Helvetica,sans-Serif" font-size="10.00">K</text>
<polyline fill="none" stroke="#bfbfbf" points="201.501,-644.5 230.171,-644.5 "/>
<text text-anchor="middle" x="215.836" y="-632.5" font-family="Helvetica,sans-Serif" font-size="10.00"> </text>
<polyline fill="none" stroke="#bfbfbf" points="201.501,-626.5 230.171,-626.5 "/>
<text text-anchor="middle" x="215.836" y="-614.5" font-family="Helvetica,sans-Serif" font-size="10.00"> </text>
</g>
<!-- Node8&#45;&gt;Node7 -->
<g id="edge6" class="edge"><title>Node8&#45;&gt;Node7</title>
<path fill="none" stroke="#404040" d="M215.785,-608.411C215.849,-598.007 216.112,-585.928 216.821,-575 216.953,-572.972 217.112,-570.895 217.291,-568.799"/>
<polygon fill="none" stroke="#404040" points="217.295,-568.755 213.911,-562.387 218.488,-556.814 221.872,-563.182 217.295,-568.755"/>
<text text-anchor="middle" x="230.591" y="-577" font-family="Helvetica,sans-Serif" font-size="10.00"> +keys</text>
</g>
<!-- Node9 -->
<g id="node8" class="node"><title>Node9</title>
<polygon fill="white" stroke="#bfbfbf" points="253.501,-608.5 253.501,-662.5 282.501,-662.5 282.501,-608.5 253.501,-608.5"/>
<text text-anchor="middle" x="267.555" y="-650.5" font-family="Helvetica,sans-Serif" font-size="10.00">T</text>
<polyline fill="none" stroke="#bfbfbf" points="253.501,-644.5 281.609,-644.5 "/>
<text text-anchor="middle" x="267.555" y="-632.5" font-family="Helvetica,sans-Serif" font-size="10.00"> </text>
<polyline fill="none" stroke="#bfbfbf" points="253.501,-626.5 281.609,-626.5 "/>
<text text-anchor="middle" x="267.555" y="-614.5" font-family="Helvetica,sans-Serif" font-size="10.00"> </text>
</g>
<!-- Node9&#45;&gt;Node7 -->
<g id="edge7" class="edge"><title>Node9&#45;&gt;Node7</title>
<path fill="none" stroke="#404040" d="M259.25,-608.408C255.493,-597.895 250.853,-585.739 246.001,-575 244.885,-572.53 243.689,-570.009 242.449,-567.485"/>
<polygon fill="none" stroke="#404040" points="242.315,-567.223 236.017,-563.711 236.837,-556.546 243.135,-560.059 242.315,-567.223"/>
<text text-anchor="middle" x="274.598" y="-577" font-family="Helvetica,sans-Serif" font-size="10.00"> +elements</text>
</g>
</g>
</svg>
