<?xml version="1.0" encoding="UTF-8" standalone="no"?>
<!DOCTYPE svg PUBLIC "-//W3C//DTD SVG 1.1//EN"
 "http://www.w3.org/Graphics/SVG/1.1/DTD/svg11.dtd">
<!-- Generated by graphviz version 2.38.0 (20140413.2041)
 -->
<!-- Title: fuzzylite/fl/term/Binary.h Pages: 1 -->
<svg width="862pt" height="412pt"
 viewBox="0.00 0.00 861.56 412.00" xmlns="http://www.w3.org/2000/svg" xmlns:xlink="http://www.w3.org/1999/xlink">
<g id="graph0" class="graph" transform="scale(1 1) rotate(0) translate(4 408)">
<title>fuzzylite/fl/term/Binary.h</title>
<polygon fill="white" stroke="none" points="-4,4 -4,-408 857.564,-408 857.564,4 -4,4"/>
<!-- Node0 -->
<g id="node1" class="node"><title>Node0</title>
<polygon fill="#bfbfbf" stroke="black" points="501.861,-385.5 501.861,-403.5 623.267,-403.5 623.267,-385.5 501.861,-385.5"/>
<text text-anchor="middle" x="562.564" y="-391.5" font-family="Helvetica,sans-Serif" font-size="10.00">fuzzylite/fl/term/Binary.h</text>
</g>
<!-- Node1 -->
<g id="node2" class="node"><title>Node1</title>
<g id="a_node2"><a xlink:href="../../d8/d11/_term_8h.html" target="_top" xlink:title="fl/term/Term.h">
<polygon fill="white" stroke="black" points="524.005,-330.5 524.005,-348.5 601.123,-348.5 601.123,-330.5 524.005,-330.5"/>
<text text-anchor="middle" x="562.564" y="-336.5" font-family="Helvetica,sans-Serif" font-size="10.00">fl/term/Term.h</text>
</a>
</g>
</g>
<!-- Node0&#45;&gt;Node1 -->
<g id="edge1" class="edge"><title>Node0&#45;&gt;Node1</title>
<path fill="none" stroke="midnightblue" d="M562.564,-385.219C562.564,-378.177 562.564,-367.808 562.564,-358.828"/>
<polygon fill="midnightblue" stroke="midnightblue" points="566.064,-358.55 562.564,-348.55 559.064,-358.55 566.064,-358.55"/>
</g>
<!-- Node2 -->
<g id="node3" class="node"><title>Node2</title>
<g id="a_node3"><a xlink:href="../../de/d53/fuzzylite_8h.html" target="_top" xlink:title="fl/fuzzylite.h">
<polygon fill="white" stroke="black" points="207.443,-55.5 207.443,-73.5 275.685,-73.5 275.685,-55.5 207.443,-55.5"/>
<text text-anchor="middle" x="241.564" y="-61.5" font-family="Helvetica,sans-Serif" font-size="10.00">fl/fuzzylite.h</text>
</a>
</g>
</g>
<!-- Node1&#45;&gt;Node2 -->
<g id="edge2" class="edge"><title>Node1&#45;&gt;Node2</title>
<path fill="none" stroke="midnightblue" d="M523.734,-335.908C444.884,-330.264 268.731,-315.612 212.564,-294 172.636,-278.636 157.627,-274.373 133.564,-239 101.004,-191.136 109.539,-149.812 151.564,-110 167.045,-95.3338 188.285,-84.5222 206.243,-77.2306"/>
<polygon fill="midnightblue" stroke="midnightblue" points="207.751,-80.4004 215.825,-73.5397 205.235,-73.8682 207.751,-80.4004"/>
</g>
<!-- Node4 -->
<g id="node5" class="node"><title>Node4</title>
<polygon fill="white" stroke="#bfbfbf" points="627.948,-0.5 627.948,-18.5 671.18,-18.5 671.18,-0.5 627.948,-0.5"/>
<text text-anchor="middle" x="649.564" y="-6.5" font-family="Helvetica,sans-Serif" font-size="10.00">cmath</text>
</g>
<!-- Node1&#45;&gt;Node4 -->
<g id="edge38" class="edge"><title>Node1&#45;&gt;Node4</title>
<path fill="none" stroke="midnightblue" d="M601.446,-334.833C661.135,-328.634 771.973,-314.702 805.564,-294 835.682,-275.438 853.564,-265.878 853.564,-230.5 853.564,-230.5 853.564,-230.5 853.564,-118.5 853.564,-41.5397 738.758,-19.2684 681.397,-12.9438"/>
<polygon fill="midnightblue" stroke="midnightblue" points="681.695,-9.45628 671.396,-11.9389 680.995,-16.4212 681.695,-9.45628"/>
</g>
<!-- Node10 -->
<g id="node11" class="node"><title>Node10</title>
<g id="a_node11"><a xlink:href="../../d6/dd6/_operation_8h.html" target="_top" xlink:title="fl/Operation.h">
<polygon fill="white" stroke="black" points="414.547,-275.5 414.547,-293.5 490.581,-293.5 490.581,-275.5 414.547,-275.5"/>
<text text-anchor="middle" x="452.564" y="-281.5" font-family="Helvetica,sans-Serif" font-size="10.00">fl/Operation.h</text>
</a>
</g>
</g>
<!-- Node1&#45;&gt;Node10 -->
<g id="edge10" class="edge"><title>Node1&#45;&gt;Node10</title>
<path fill="none" stroke="midnightblue" d="M545.857,-330.45C528.009,-321.851 499.48,-308.105 478.664,-298.075"/>
<polygon fill="midnightblue" stroke="midnightblue" points="479.956,-294.813 469.428,-293.625 476.917,-301.119 479.956,-294.813"/>
</g>
<!-- Node13 -->
<g id="node14" class="node"><title>Node13</title>
<polygon fill="white" stroke="#bfbfbf" points="557.337,-110.5 557.337,-128.5 597.791,-128.5 597.791,-110.5 557.337,-110.5"/>
<text text-anchor="middle" x="577.564" y="-116.5" font-family="Helvetica,sans-Serif" font-size="10.00">string</text>
</g>
<!-- Node1&#45;&gt;Node13 -->
<g id="edge39" class="edge"><title>Node1&#45;&gt;Node13</title>
<path fill="none" stroke="midnightblue" d="M571.57,-330.283C588.1,-314.515 622.761,-278.093 635.564,-239 641.154,-221.932 636.925,-178.941 629.564,-165 622.976,-152.522 611.31,-142.046 600.696,-134.398"/>
<polygon fill="midnightblue" stroke="midnightblue" points="602.413,-131.335 592.162,-128.658 598.506,-137.143 602.413,-131.335"/>
</g>
<!-- Node14 -->
<g id="node15" class="node"><title>Node14</title>
<polygon fill="white" stroke="#bfbfbf" points="736.948,-55.5 736.948,-73.5 780.18,-73.5 780.18,-55.5 736.948,-55.5"/>
<text text-anchor="middle" x="758.564" y="-61.5" font-family="Helvetica,sans-Serif" font-size="10.00">vector</text>
</g>
<!-- Node1&#45;&gt;Node14 -->
<g id="edge40" class="edge"><title>Node1&#45;&gt;Node14</title>
<path fill="none" stroke="midnightblue" d="M601.265,-338.838C672.137,-337.213 815.564,-322.554 815.564,-230.5 815.564,-230.5 815.564,-230.5 815.564,-173.5 815.564,-137.302 790.211,-101.349 773.322,-81.4152"/>
<polygon fill="midnightblue" stroke="midnightblue" points="775.729,-78.8536 766.49,-73.669 770.479,-83.4839 775.729,-78.8536"/>
</g>
<!-- Node16 -->
<g id="node17" class="node"><title>Node16</title>
<g id="a_node17"><a xlink:href="../../d5/de4/_complexity_8h.html" target="_top" xlink:title="fl/Complexity.h">
<polygon fill="white" stroke="black" points="218.145,-110.5 218.145,-128.5 298.983,-128.5 298.983,-110.5 218.145,-110.5"/>
<text text-anchor="middle" x="258.564" y="-116.5" font-family="Helvetica,sans-Serif" font-size="10.00">fl/Complexity.h</text>
</a>
</g>
</g>
<!-- Node1&#45;&gt;Node16 -->
<g id="edge37" class="edge"><title>Node1&#45;&gt;Node16</title>
<path fill="none" stroke="midnightblue" d="M523.881,-339.025C446.308,-338.107 269.678,-325.865 158.564,-239 130.735,-217.244 109.059,-193.764 129.564,-165 147.323,-140.087 179.992,-128.985 208.009,-124.1"/>
<polygon fill="midnightblue" stroke="midnightblue" points="208.725,-127.531 218.085,-122.567 207.672,-120.611 208.725,-127.531"/>
</g>
<!-- Node3 -->
<g id="node4" class="node"><title>Node3</title>
<polygon fill="white" stroke="#bfbfbf" points="0,-0.5 0,-18.5 57.1279,-18.5 57.1279,-0.5 0,-0.5"/>
<text text-anchor="middle" x="28.564" y="-6.5" font-family="Helvetica,sans-Serif" font-size="10.00">algorithm</text>
</g>
<!-- Node2&#45;&gt;Node3 -->
<g id="edge3" class="edge"><title>Node2&#45;&gt;Node3</title>
<path fill="none" stroke="midnightblue" d="M209.214,-55.4504C171.127,-45.9734 107.922,-30.2465 67.2712,-20.1314"/>
<polygon fill="midnightblue" stroke="midnightblue" points="68.0003,-16.7061 57.4511,-17.6879 66.31,-23.499 68.0003,-16.7061"/>
</g>
<!-- Node2&#45;&gt;Node4 -->
<g id="edge4" class="edge"><title>Node2&#45;&gt;Node4</title>
<path fill="none" stroke="midnightblue" d="M275.998,-59.0269C353.82,-48.9177 542.334,-24.4294 617.676,-14.6424"/>
<polygon fill="midnightblue" stroke="midnightblue" points="618.478,-18.0676 627.944,-13.3085 617.576,-11.126 618.478,-18.0676"/>
</g>
<!-- Node5 -->
<g id="node6" class="node"><title>Node5</title>
<polygon fill="white" stroke="#bfbfbf" points="283.392,-0.5 283.392,-18.5 337.736,-18.5 337.736,-0.5 283.392,-0.5"/>
<text text-anchor="middle" x="310.564" y="-6.5" font-family="Helvetica,sans-Serif" font-size="10.00">iostream</text>
</g>
<!-- Node2&#45;&gt;Node5 -->
<g id="edge5" class="edge"><title>Node2&#45;&gt;Node5</title>
<path fill="none" stroke="midnightblue" d="M252.044,-55.4504C262.581,-47.3566 279.053,-34.7042 291.84,-24.8822"/>
<polygon fill="midnightblue" stroke="midnightblue" points="294.187,-27.4926 299.986,-18.6253 289.923,-21.9412 294.187,-27.4926"/>
</g>
<!-- Node6 -->
<g id="node7" class="node"><title>Node6</title>
<polygon fill="white" stroke="#bfbfbf" points="355.783,-0.5 355.783,-18.5 407.345,-18.5 407.345,-0.5 355.783,-0.5"/>
<text text-anchor="middle" x="381.564" y="-6.5" font-family="Helvetica,sans-Serif" font-size="10.00">sstream</text>
</g>
<!-- Node2&#45;&gt;Node6 -->
<g id="edge6" class="edge"><title>Node2&#45;&gt;Node6</title>
<path fill="none" stroke="midnightblue" d="M262.827,-55.4504C286.16,-46.6173 323.835,-32.3546 350.481,-22.267"/>
<polygon fill="midnightblue" stroke="midnightblue" points="351.988,-25.4392 360.101,-18.6253 349.509,-18.8926 351.988,-25.4392"/>
</g>
<!-- Node7 -->
<g id="node8" class="node"><title>Node7</title>
<polygon fill="white" stroke="#bfbfbf" points="91.1772,-0.5 91.1772,-18.5 129.951,-18.5 129.951,-0.5 91.1772,-0.5"/>
<text text-anchor="middle" x="110.564" y="-6.5" font-family="Helvetica,sans-Serif" font-size="10.00">limits</text>
</g>
<!-- Node2&#45;&gt;Node7 -->
<g id="edge7" class="edge"><title>Node2&#45;&gt;Node7</title>
<path fill="none" stroke="midnightblue" d="M221.668,-55.4504C199.805,-46.6051 164.484,-32.3151 139.545,-22.2252"/>
<polygon fill="midnightblue" stroke="midnightblue" points="140.801,-18.9577 130.218,-18.4517 138.175,-25.4467 140.801,-18.9577"/>
</g>
<!-- Node8 -->
<g id="node9" class="node"><title>Node8</title>
<polygon fill="white" stroke="#bfbfbf" points="147.507,-0.5 147.507,-18.5 199.621,-18.5 199.621,-0.5 147.507,-0.5"/>
<text text-anchor="middle" x="173.564" y="-6.5" font-family="Helvetica,sans-Serif" font-size="10.00">memory</text>
</g>
<!-- Node2&#45;&gt;Node8 -->
<g id="edge8" class="edge"><title>Node2&#45;&gt;Node8</title>
<path fill="none" stroke="midnightblue" d="M231.236,-55.4504C220.852,-47.3566 204.618,-34.7042 192.017,-24.8822"/>
<polygon fill="midnightblue" stroke="midnightblue" points="194.028,-22.0122 183.989,-18.6253 189.725,-27.5333 194.028,-22.0122"/>
</g>
<!-- Node9 -->
<g id="node10" class="node"><title>Node9</title>
<polygon fill="white" stroke="#bfbfbf" points="217.443,-0.5 217.443,-18.5 265.685,-18.5 265.685,-0.5 217.443,-0.5"/>
<text text-anchor="middle" x="241.564" y="-6.5" font-family="Helvetica,sans-Serif" font-size="10.00">cstddef</text>
</g>
<!-- Node2&#45;&gt;Node9 -->
<g id="edge9" class="edge"><title>Node2&#45;&gt;Node9</title>
<path fill="none" stroke="midnightblue" d="M241.564,-55.2188C241.564,-48.1769 241.564,-37.8083 241.564,-28.8277"/>
<polygon fill="midnightblue" stroke="midnightblue" points="245.064,-28.5495 241.564,-18.5496 238.064,-28.5496 245.064,-28.5495"/>
</g>
<!-- Node10&#45;&gt;Node2 -->
<g id="edge11" class="edge"><title>Node10&#45;&gt;Node2</title>
<path fill="none" stroke="midnightblue" d="M414.474,-281.944C344.515,-278.414 199.011,-267.747 158.564,-239 129.771,-218.536 115.089,-197.222 129.564,-165 147.393,-125.313 189.742,-95.0078 216.955,-78.7689"/>
<polygon fill="midnightblue" stroke="midnightblue" points="218.97,-81.6472 225.884,-73.6193 215.473,-75.5833 218.97,-81.6472"/>
</g>
<!-- Node10&#45;&gt;Node3 -->
<g id="edge33" class="edge"><title>Node10&#45;&gt;Node3</title>
<path fill="none" stroke="midnightblue" d="M414.312,-282.665C339.503,-280.322 177.316,-271.53 133.564,-239 62.3361,-186.042 38.0186,-73.0878 31.0254,-28.8289"/>
<polygon fill="midnightblue" stroke="midnightblue" points="34.486,-28.3044 29.5734,-18.9173 27.5599,-29.319 34.486,-28.3044"/>
</g>
<!-- Node11 -->
<g id="node12" class="node"><title>Node11</title>
<g id="a_node12"><a xlink:href="../../df/d98/_exception_8h.html" target="_top" xlink:title="fl/Exception.h">
<polygon fill="white" stroke="black" points="673.547,-165.5 673.547,-183.5 749.581,-183.5 749.581,-165.5 673.547,-165.5"/>
<text text-anchor="middle" x="711.564" y="-171.5" font-family="Helvetica,sans-Serif" font-size="10.00">fl/Exception.h</text>
</a>
</g>
</g>
<!-- Node10&#45;&gt;Node11 -->
<g id="edge12" class="edge"><title>Node10&#45;&gt;Node11</title>
<path fill="none" stroke="midnightblue" d="M490.779,-281.296C532.232,-277.494 599.218,-267.145 649.564,-239 670.502,-227.295 688.904,-206.341 700.11,-191.717"/>
<polygon fill="midnightblue" stroke="midnightblue" points="703,-193.695 706.116,-183.569 697.365,-189.542 703,-193.695"/>
</g>
<!-- Node10&#45;&gt;Node13 -->
<g id="edge17" class="edge"><title>Node10&#45;&gt;Node13</title>
<path fill="none" stroke="midnightblue" d="M490.88,-278.494C534.404,-271.929 601.375,-258.86 616.564,-239 640.587,-207.59 610.506,-160.708 591.276,-136.4"/>
<polygon fill="midnightblue" stroke="midnightblue" points="593.86,-134.032 584.802,-128.536 588.456,-138.481 593.86,-134.032"/>
</g>
<!-- Node10&#45;&gt;Node14 -->
<g id="edge18" class="edge"><title>Node10&#45;&gt;Node14</title>
<path fill="none" stroke="midnightblue" d="M490.744,-280.517C536.419,-275.92 614.494,-264.765 676.564,-239 717.094,-222.176 737.912,-222.72 758.564,-184 775.615,-152.032 769.206,-107.968 763.546,-83.5789"/>
<polygon fill="midnightblue" stroke="midnightblue" points="766.864,-82.4276 761.009,-73.598 760.08,-84.152 766.864,-82.4276"/>
</g>
<!-- Node15 -->
<g id="node16" class="node"><title>Node15</title>
<g id="a_node16"><a xlink:href="../../d7/d8a/_defuzzifier_8h.html" target="_top" xlink:title="fl/defuzzifier/Defuzzifier.h">
<polygon fill="white" stroke="black" points="138.983,-165.5 138.983,-183.5 266.145,-183.5 266.145,-165.5 138.983,-165.5"/>
<text text-anchor="middle" x="202.564" y="-171.5" font-family="Helvetica,sans-Serif" font-size="10.00">fl/defuzzifier/Defuzzifier.h</text>
</a>
</g>
</g>
<!-- Node10&#45;&gt;Node15 -->
<g id="edge19" class="edge"><title>Node10&#45;&gt;Node15</title>
<path fill="none" stroke="midnightblue" d="M414.31,-283.425C343.886,-282.386 198.025,-275.735 166.564,-239 153.766,-224.057 169.731,-203.884 184.279,-190.321"/>
<polygon fill="midnightblue" stroke="midnightblue" points="186.805,-192.761 192.023,-183.541 182.194,-187.494 186.805,-192.761"/>
</g>
<!-- Node17 -->
<g id="node18" class="node"><title>Node17</title>
<g id="a_node18"><a xlink:href="../../d7/d72/_norm_8h.html" target="_top" xlink:title="fl/norm/Norm.h">
<polygon fill="white" stroke="black" points="285.502,-165.5 285.502,-183.5 367.625,-183.5 367.625,-165.5 285.502,-165.5"/>
<text text-anchor="middle" x="326.564" y="-171.5" font-family="Helvetica,sans-Serif" font-size="10.00">fl/norm/Norm.h</text>
</a>
</g>
</g>
<!-- Node10&#45;&gt;Node17 -->
<g id="edge25" class="edge"><title>Node10&#45;&gt;Node17</title>
<path fill="none" stroke="midnightblue" d="M443.16,-275.227C429.301,-263.057 402.549,-239.644 379.564,-220 367.862,-209.999 354.597,-198.862 344.266,-190.231"/>
<polygon fill="midnightblue" stroke="midnightblue" points="346.297,-187.368 336.375,-183.651 341.813,-192.744 346.297,-187.368"/>
</g>
<!-- Node18 -->
<g id="node19" class="node"><title>Node18</title>
<g id="a_node19"><a xlink:href="../../de/d44/_s_norm_8h.html" target="_top" xlink:title="fl/norm/SNorm.h">
<polygon fill="white" stroke="black" points="175.167,-220.5 175.167,-238.5 263.96,-238.5 263.96,-220.5 175.167,-220.5"/>
<text text-anchor="middle" x="219.564" y="-226.5" font-family="Helvetica,sans-Serif" font-size="10.00">fl/norm/SNorm.h</text>
</a>
</g>
</g>
<!-- Node10&#45;&gt;Node18 -->
<g id="edge29" class="edge"><title>Node10&#45;&gt;Node18</title>
<path fill="none" stroke="midnightblue" d="M417.176,-275.45C376.429,-266.182 309.402,-250.935 264.875,-240.807"/>
<polygon fill="midnightblue" stroke="midnightblue" points="265.429,-237.344 254.902,-238.538 263.877,-244.169 265.429,-237.344"/>
</g>
<!-- Node19 -->
<g id="node20" class="node"><title>Node19</title>
<g id="a_node20"><a xlink:href="../../d0/d24/_t_norm_8h.html" target="_top" xlink:title="fl/norm/TNorm.h">
<polygon fill="white" stroke="black" points="282.448,-220.5 282.448,-238.5 370.68,-238.5 370.68,-220.5 282.448,-220.5"/>
<text text-anchor="middle" x="326.564" y="-226.5" font-family="Helvetica,sans-Serif" font-size="10.00">fl/norm/TNorm.h</text>
</a>
</g>
</g>
<!-- Node10&#45;&gt;Node19 -->
<g id="edge31" class="edge"><title>Node10&#45;&gt;Node19</title>
<path fill="none" stroke="midnightblue" d="M433.427,-275.45C412.613,-266.695 379.117,-252.606 355.175,-242.535"/>
<polygon fill="midnightblue" stroke="midnightblue" points="356.456,-239.276 345.881,-238.625 353.741,-245.729 356.456,-239.276"/>
</g>
<!-- Node20 -->
<g id="node21" class="node"><title>Node20</title>
<polygon fill="white" stroke="#bfbfbf" points="427.054,-220.5 427.054,-238.5 478.074,-238.5 478.074,-220.5 427.054,-220.5"/>
<text text-anchor="middle" x="452.564" y="-226.5" font-family="Helvetica,sans-Serif" font-size="10.00">iomanip</text>
</g>
<!-- Node10&#45;&gt;Node20 -->
<g id="edge34" class="edge"><title>Node10&#45;&gt;Node20</title>
<path fill="none" stroke="midnightblue" d="M452.564,-275.219C452.564,-268.177 452.564,-257.808 452.564,-248.828"/>
<polygon fill="midnightblue" stroke="midnightblue" points="456.064,-248.55 452.564,-238.55 449.064,-248.55 456.064,-248.55"/>
</g>
<!-- Node21 -->
<g id="node22" class="node"><title>Node21</title>
<polygon fill="white" stroke="#bfbfbf" points="496.167,-220.5 496.167,-238.5 544.96,-238.5 544.96,-220.5 496.167,-220.5"/>
<text text-anchor="middle" x="520.564" y="-226.5" font-family="Helvetica,sans-Serif" font-size="10.00">cstdarg</text>
</g>
<!-- Node10&#45;&gt;Node21 -->
<g id="edge35" class="edge"><title>Node10&#45;&gt;Node21</title>
<path fill="none" stroke="midnightblue" d="M462.892,-275.45C473.276,-267.357 489.51,-254.704 502.111,-244.882"/>
<polygon fill="midnightblue" stroke="midnightblue" points="504.403,-247.533 510.139,-238.625 500.1,-242.012 504.403,-247.533"/>
</g>
<!-- Node22 -->
<g id="node23" class="node"><title>Node22</title>
<polygon fill="white" stroke="#bfbfbf" points="563.113,-220.5 563.113,-238.5 608.015,-238.5 608.015,-220.5 563.113,-220.5"/>
<text text-anchor="middle" x="585.564" y="-226.5" font-family="Helvetica,sans-Serif" font-size="10.00">cctype</text>
</g>
<!-- Node10&#45;&gt;Node22 -->
<g id="edge36" class="edge"><title>Node10&#45;&gt;Node22</title>
<path fill="none" stroke="midnightblue" d="M472.764,-275.45C494.832,-266.656 530.406,-252.48 555.7,-242.401"/>
<polygon fill="midnightblue" stroke="midnightblue" points="557.18,-245.579 565.174,-238.625 554.589,-239.076 557.18,-245.579"/>
</g>
<!-- Node11&#45;&gt;Node2 -->
<g id="edge13" class="edge"><title>Node11&#45;&gt;Node2</title>
<path fill="none" stroke="midnightblue" d="M699.508,-165.318C676.324,-149.735 626.096,-116.747 606.564,-110 495.797,-71.7355 356.199,-65.4665 286.078,-64.982"/>
<polygon fill="midnightblue" stroke="midnightblue" points="285.853,-61.4814 275.842,-64.9496 285.83,-68.4813 285.853,-61.4814"/>
</g>
<!-- Node12 -->
<g id="node13" class="node"><title>Node12</title>
<polygon fill="white" stroke="#bfbfbf" points="653.16,-110.5 653.16,-128.5 711.968,-128.5 711.968,-110.5 653.16,-110.5"/>
<text text-anchor="middle" x="682.564" y="-116.5" font-family="Helvetica,sans-Serif" font-size="10.00">exception</text>
</g>
<!-- Node11&#45;&gt;Node12 -->
<g id="edge14" class="edge"><title>Node11&#45;&gt;Node12</title>
<path fill="none" stroke="midnightblue" d="M707.033,-165.219C702.966,-157.786 696.87,-146.646 691.781,-137.345"/>
<polygon fill="midnightblue" stroke="midnightblue" points="694.839,-135.642 686.968,-128.55 688.698,-139.002 694.839,-135.642"/>
</g>
<!-- Node11&#45;&gt;Node13 -->
<g id="edge15" class="edge"><title>Node11&#45;&gt;Node13</title>
<path fill="none" stroke="midnightblue" d="M691.212,-165.45C668.978,-156.656 633.136,-142.48 607.652,-132.401"/>
<polygon fill="midnightblue" stroke="midnightblue" points="608.694,-129.049 598.107,-128.625 606.119,-135.558 608.694,-129.049"/>
</g>
<!-- Node11&#45;&gt;Node14 -->
<g id="edge16" class="edge"><title>Node11&#45;&gt;Node14</title>
<path fill="none" stroke="midnightblue" d="M715.097,-165.382C722.684,-147.948 740.682,-106.59 750.982,-82.9219"/>
<polygon fill="midnightblue" stroke="midnightblue" points="754.209,-84.2778 754.99,-73.7118 747.791,-81.4845 754.209,-84.2778"/>
</g>
<!-- Node15&#45;&gt;Node2 -->
<g id="edge20" class="edge"><title>Node15&#45;&gt;Node2</title>
<path fill="none" stroke="midnightblue" d="M202.167,-165.374C201.843,-152.989 202.328,-128.844 209.564,-110 213.572,-99.5619 220.642,-89.331 227.119,-81.3161"/>
<polygon fill="midnightblue" stroke="midnightblue" points="229.895,-83.4556 233.741,-73.5837 224.578,-78.9022 229.895,-83.4556"/>
</g>
<!-- Node15&#45;&gt;Node13 -->
<g id="edge24" class="edge"><title>Node15&#45;&gt;Node13</title>
<path fill="none" stroke="midnightblue" d="M259.518,-165.45C340.092,-154.063 484.517,-133.651 547.177,-124.795"/>
<polygon fill="midnightblue" stroke="midnightblue" points="547.791,-128.243 557.203,-123.378 546.811,-121.312 547.791,-128.243"/>
</g>
<!-- Node15&#45;&gt;Node16 -->
<g id="edge21" class="edge"><title>Node15&#45;&gt;Node16</title>
<path fill="none" stroke="midnightblue" d="M211.314,-165.219C219.664,-157.316 232.44,-145.224 242.603,-135.606"/>
<polygon fill="midnightblue" stroke="midnightblue" points="245.202,-137.965 250.059,-128.55 240.39,-132.881 245.202,-137.965"/>
</g>
<!-- Node16&#45;&gt;Node2 -->
<g id="edge22" class="edge"><title>Node16&#45;&gt;Node2</title>
<path fill="none" stroke="midnightblue" d="M255.908,-110.219C253.599,-103.02 250.175,-92.3458 247.251,-83.2311"/>
<polygon fill="midnightblue" stroke="midnightblue" points="250.533,-82.0027 244.146,-73.5496 243.867,-84.1407 250.533,-82.0027"/>
</g>
<!-- Node16&#45;&gt;Node14 -->
<g id="edge23" class="edge"><title>Node16&#45;&gt;Node14</title>
<path fill="none" stroke="midnightblue" d="M299.058,-114.208C395.917,-103.941 639.399,-78.1315 726.752,-68.8721"/>
<polygon fill="midnightblue" stroke="midnightblue" points="727.27,-72.3369 736.845,-67.8022 726.532,-65.3759 727.27,-72.3369"/>
</g>
<!-- Node17&#45;&gt;Node2 -->
<g id="edge26" class="edge"><title>Node17&#45;&gt;Node2</title>
<path fill="none" stroke="midnightblue" d="M325.878,-165.304C324.436,-152.399 320.109,-127.057 307.564,-110 297.651,-96.5225 282.354,-85.8403 268.982,-78.3236"/>
<polygon fill="midnightblue" stroke="midnightblue" points="270.597,-75.2183 260.122,-73.63 267.32,-81.404 270.597,-75.2183"/>
</g>
<!-- Node17&#45;&gt;Node13 -->
<g id="edge28" class="edge"><title>Node17&#45;&gt;Node13</title>
<path fill="none" stroke="midnightblue" d="M364.685,-165.45C414.687,-154.892 501.426,-136.577 547.225,-126.906"/>
<polygon fill="midnightblue" stroke="midnightblue" points="548.084,-130.302 557.145,-124.812 546.638,-123.453 548.084,-130.302"/>
</g>
<!-- Node17&#45;&gt;Node16 -->
<g id="edge27" class="edge"><title>Node17&#45;&gt;Node16</title>
<path fill="none" stroke="midnightblue" d="M316.236,-165.45C305.852,-157.357 289.618,-144.704 277.017,-134.882"/>
<polygon fill="midnightblue" stroke="midnightblue" points="279.028,-132.012 268.989,-128.625 274.725,-137.533 279.028,-132.012"/>
</g>
<!-- Node18&#45;&gt;Node17 -->
<g id="edge30" class="edge"><title>Node18&#45;&gt;Node17</title>
<path fill="none" stroke="midnightblue" d="M235.815,-220.45C253.177,-211.851 280.928,-198.105 301.176,-188.075"/>
<polygon fill="midnightblue" stroke="midnightblue" points="302.753,-191.2 310.16,-183.625 299.646,-184.928 302.753,-191.2"/>
</g>
<!-- Node19&#45;&gt;Node17 -->
<g id="edge32" class="edge"><title>Node19&#45;&gt;Node17</title>
<path fill="none" stroke="midnightblue" d="M326.564,-220.219C326.564,-213.177 326.564,-202.808 326.564,-193.828"/>
<polygon fill="midnightblue" stroke="midnightblue" points="330.064,-193.55 326.564,-183.55 323.064,-193.55 330.064,-193.55"/>
</g>
</g>
</svg>
