<?xml version="1.0" encoding="UTF-8" standalone="no"?>
<!DOCTYPE svg PUBLIC "-//W3C//DTD SVG 1.1//EN"
 "http://www.w3.org/Graphics/SVG/1.1/DTD/svg11.dtd">
<!-- Generated by graphviz version 2.38.0 (20140413.2041)
 -->
<!-- Title: fl::Function::Element Pages: 1 -->
<svg width="116pt" height="396pt"
 viewBox="0.00 0.00 115.78 396.00" xmlns="http://www.w3.org/2000/svg" xmlns:xlink="http://www.w3.org/1999/xlink">
<g id="graph0" class="graph" transform="scale(1 1) rotate(0) translate(4 392)">
<title>fl::Function::Element</title>
<polygon fill="white" stroke="none" points="-4,4 -4,-392 111.775,-392 111.775,4 -4,4"/>
<!-- Node1 -->
<g id="node1" class="node"><title>Node1</title>
<polygon fill="#bfbfbf" stroke="black" points="0,-0.5 0,-174.5 107.152,-174.5 107.152,-0.5 0,-0.5"/>
<text text-anchor="middle" x="53.5762" y="-162.5" font-family="Helvetica,sans-Serif" font-size="10.00">fl::Function::Element</text>
<polyline fill="none" stroke="black" points="0,-156.5 107.152,-156.5 "/>
<text text-anchor="start" x="8" y="-144.5" font-family="Helvetica,sans-Serif" font-size="10.00">+ type</text>
<text text-anchor="start" x="8" y="-134.5" font-family="Helvetica,sans-Serif" font-size="10.00">+ unary</text>
<text text-anchor="start" x="8" y="-124.5" font-family="Helvetica,sans-Serif" font-size="10.00">+ binary</text>
<text text-anchor="start" x="8" y="-114.5" font-family="Helvetica,sans-Serif" font-size="10.00">+ arity</text>
<text text-anchor="start" x="8" y="-104.5" font-family="Helvetica,sans-Serif" font-size="10.00">+ precedence</text>
<text text-anchor="start" x="8" y="-94.5" font-family="Helvetica,sans-Serif" font-size="10.00">+ associativity</text>
<polyline fill="none" stroke="black" points="0,-88.5 107.152,-88.5 "/>
<text text-anchor="start" x="8" y="-76.5" font-family="Helvetica,sans-Serif" font-size="10.00">+ Element()</text>
<text text-anchor="start" x="8" y="-66.5" font-family="Helvetica,sans-Serif" font-size="10.00">+ Element()</text>
<text text-anchor="start" x="8" y="-56.5" font-family="Helvetica,sans-Serif" font-size="10.00">+ Element()</text>
<text text-anchor="start" x="8" y="-46.5" font-family="Helvetica,sans-Serif" font-size="10.00">+ ~Element()</text>
<text text-anchor="start" x="8" y="-36.5" font-family="Helvetica,sans-Serif" font-size="10.00">+ isOperator()</text>
<text text-anchor="start" x="8" y="-26.5" font-family="Helvetica,sans-Serif" font-size="10.00">+ isFunction()</text>
<text text-anchor="start" x="8" y="-16.5" font-family="Helvetica,sans-Serif" font-size="10.00">+ clone()</text>
<text text-anchor="start" x="8" y="-6.5" font-family="Helvetica,sans-Serif" font-size="10.00">+ toString()</text>
</g>
<!-- Node2 -->
<g id="node2" class="node"><title>Node2</title>
<g id="a_node2"><a xlink:title="STL class. ">
<polygon fill="white" stroke="#bfbfbf" points="23.9014,-231.5 23.9014,-285.5 83.251,-285.5 83.251,-231.5 23.9014,-231.5"/>
<text text-anchor="middle" x="53.5762" y="-273.5" font-family="Helvetica,sans-Serif" font-size="10.00">std::string</text>
<polyline fill="none" stroke="#bfbfbf" points="23.9014,-267.5 83.251,-267.5 "/>
<text text-anchor="middle" x="53.5762" y="-255.5" font-family="Helvetica,sans-Serif" font-size="10.00"> </text>
<polyline fill="none" stroke="#bfbfbf" points="23.9014,-249.5 83.251,-249.5 "/>
<text text-anchor="middle" x="53.5762" y="-237.5" font-family="Helvetica,sans-Serif" font-size="10.00"> </text>
</a>
</g>
</g>
<!-- Node2&#45;&gt;Node1 -->
<g id="edge1" class="edge"><title>Node2&#45;&gt;Node1</title>
<path fill="none" stroke="#404040" d="M53.5762,-231.464C53.5762,-219.022 53.5762,-203.262 53.5762,-186.784"/>
<polygon fill="none" stroke="#404040" points="53.5763,-186.695 49.5762,-180.695 53.5762,-174.695 57.5762,-180.695 53.5763,-186.695"/>
<text text-anchor="middle" x="80.6758" y="-205" font-family="Helvetica,sans-Serif" font-size="10.00"> +name</text>
<text text-anchor="middle" x="80.6758" y="-195" font-family="Helvetica,sans-Serif" font-size="10.00">+description</text>
</g>
<!-- Node3 -->
<g id="node3" class="node"><title>Node3</title>
<g id="a_node3"><a xlink:title="STL class. ">
<polygon fill="white" stroke="#bfbfbf" points="6.52832,-323.5 6.52832,-387.5 100.624,-387.5 100.624,-323.5 6.52832,-323.5"/>
<text text-anchor="start" x="14.5283" y="-375.5" font-family="Helvetica,sans-Serif" font-size="10.00">std::basic_string&lt;</text>
<text text-anchor="middle" x="53.5762" y="-365.5" font-family="Helvetica,sans-Serif" font-size="10.00"> char &gt;</text>
<polyline fill="none" stroke="#bfbfbf" points="6.52832,-359.5 100.624,-359.5 "/>
<text text-anchor="middle" x="53.5762" y="-347.5" font-family="Helvetica,sans-Serif" font-size="10.00"> </text>
<polyline fill="none" stroke="#bfbfbf" points="6.52832,-341.5 100.624,-341.5 "/>
<text text-anchor="middle" x="53.5762" y="-329.5" font-family="Helvetica,sans-Serif" font-size="10.00"> </text>
</a>
</g>
</g>
<!-- Node3&#45;&gt;Node2 -->
<g id="edge2" class="edge"><title>Node3&#45;&gt;Node2</title>
<path fill="none" stroke="midnightblue" d="M53.5762,-313.37C53.5762,-303.943 53.5762,-294.176 53.5762,-285.589"/>
<polygon fill="none" stroke="midnightblue" points="50.0763,-313.393 53.5762,-323.393 57.0763,-313.393 50.0763,-313.393"/>
</g>
</g>
</svg>
