<?xml version="1.0" encoding="UTF-8" standalone="no"?>
<!DOCTYPE svg PUBLIC "-//W3C//DTD SVG 1.1//EN"
 "http://www.w3.org/Graphics/SVG/1.1/DTD/svg11.dtd">
<!-- Generated by graphviz version 2.38.0 (20140413.2041)
 -->
<!-- Title: fl::FclExporter Pages: 1 -->
<svg width="96pt" height="324pt"
 viewBox="0.00 0.00 96.24 324.00" xmlns="http://www.w3.org/2000/svg" xmlns:xlink="http://www.w3.org/1999/xlink">
<g id="graph0" class="graph" transform="scale(1 1) rotate(0) translate(4 320)">
<title>fl::FclExporter</title>
<polygon fill="white" stroke="none" points="-4,4 -4,-320 92.2412,-320 92.2412,4 -4,4"/>
<!-- Node2 -->
<g id="node1" class="node"><title>Node2</title>
<polygon fill="#bfbfbf" stroke="black" points="0,-0.5 0,-174.5 88.2412,-174.5 88.2412,-0.5 0,-0.5"/>
<text text-anchor="middle" x="44.1206" y="-162.5" font-family="Helvetica,sans-Serif" font-size="10.00">fl::FclExporter</text>
<polyline fill="none" stroke="black" points="0,-156.5 88.2412,-156.5 "/>
<text text-anchor="middle" x="44.1206" y="-144.5" font-family="Helvetica,sans-Serif" font-size="10.00"> </text>
<polyline fill="none" stroke="black" points="0,-138.5 88.2412,-138.5 "/>
<text text-anchor="start" x="8" y="-126.5" font-family="Helvetica,sans-Serif" font-size="10.00">+ FclExporter()</text>
<text text-anchor="start" x="8" y="-116.5" font-family="Helvetica,sans-Serif" font-size="10.00">+ ~FclExporter()</text>
<text text-anchor="start" x="8" y="-106.5" font-family="Helvetica,sans-Serif" font-size="10.00">+ setIndent()</text>
<text text-anchor="start" x="8" y="-96.5" font-family="Helvetica,sans-Serif" font-size="10.00">+ getIndent()</text>
<text text-anchor="start" x="8" y="-86.5" font-family="Helvetica,sans-Serif" font-size="10.00">+ name()</text>
<text text-anchor="start" x="8" y="-76.5" font-family="Helvetica,sans-Serif" font-size="10.00">+ toString()</text>
<text text-anchor="start" x="8" y="-66.5" font-family="Helvetica,sans-Serif" font-size="10.00">+ toString()</text>
<text text-anchor="start" x="8" y="-56.5" font-family="Helvetica,sans-Serif" font-size="10.00">+ toString()</text>
<text text-anchor="start" x="8" y="-46.5" font-family="Helvetica,sans-Serif" font-size="10.00">+ toString()</text>
<text text-anchor="start" x="8" y="-36.5" font-family="Helvetica,sans-Serif" font-size="10.00">+ toString()</text>
<text text-anchor="start" x="8" y="-26.5" font-family="Helvetica,sans-Serif" font-size="10.00">+ toString()</text>
<text text-anchor="start" x="8" y="-16.5" font-family="Helvetica,sans-Serif" font-size="10.00">+ toString()</text>
<text text-anchor="start" x="8" y="-6.5" font-family="Helvetica,sans-Serif" font-size="10.00">+ clone()</text>
</g>
<!-- Node3 -->
<g id="node2" class="node"><title>Node3</title>
<g id="a_node2"><a xlink:href="../../d3/de2/classfl_1_1_exporter.html" target="_top" xlink:title="The Exporter class is the abstract class for exporters to translate an Engine into different formats...">
<polygon fill="white" stroke="black" points="6.66504,-211.5 6.66504,-315.5 81.5762,-315.5 81.5762,-211.5 6.66504,-211.5"/>
<text text-anchor="middle" x="44.1206" y="-303.5" font-family="Helvetica,sans-Serif" font-size="10.00">fl::Exporter</text>
<polyline fill="none" stroke="black" points="6.66504,-297.5 81.5762,-297.5 "/>
<text text-anchor="middle" x="44.1206" y="-285.5" font-family="Helvetica,sans-Serif" font-size="10.00"> </text>
<polyline fill="none" stroke="black" points="6.66504,-279.5 81.5762,-279.5 "/>
<text text-anchor="start" x="14.665" y="-267.5" font-family="Helvetica,sans-Serif" font-size="10.00">+ Exporter()</text>
<text text-anchor="start" x="14.665" y="-257.5" font-family="Helvetica,sans-Serif" font-size="10.00">+ ~Exporter()</text>
<text text-anchor="start" x="14.665" y="-247.5" font-family="Helvetica,sans-Serif" font-size="10.00">+ toString()</text>
<text text-anchor="start" x="14.665" y="-237.5" font-family="Helvetica,sans-Serif" font-size="10.00">+ toFile()</text>
<text text-anchor="start" x="14.665" y="-227.5" font-family="Helvetica,sans-Serif" font-size="10.00">+ name()</text>
<text text-anchor="start" x="14.665" y="-217.5" font-family="Helvetica,sans-Serif" font-size="10.00">+ clone()</text>
</a>
</g>
</g>
<!-- Node3&#45;&gt;Node2 -->
<g id="edge1" class="edge"><title>Node3&#45;&gt;Node2</title>
<path fill="none" stroke="midnightblue" d="M44.1206,-201.009C44.1206,-192.459 44.1206,-183.547 44.1206,-174.648"/>
<polygon fill="none" stroke="midnightblue" points="40.6207,-201.235 44.1206,-211.235 47.6207,-201.235 40.6207,-201.235"/>
</g>
</g>
</svg>
