<?xml version="1.0" encoding="UTF-8" standalone="no"?>
<!DOCTYPE svg PUBLIC "-//W3C//DTD SVG 1.1//EN"
 "http://www.w3.org/Graphics/SVG/1.1/DTD/svg11.dtd">
<!-- Generated by graphviz version 2.38.0 (20140413.2041)
 -->
<!-- Title: fl::FL_IFINAL Pages: 1 -->
<svg width="954pt" height="1167pt"
 viewBox="0.00 0.00 954.34 1167.00" xmlns="http://www.w3.org/2000/svg" xmlns:xlink="http://www.w3.org/1999/xlink">
<g id="graph0" class="graph" transform="scale(1 1) rotate(0) translate(4 1163)">
<title>fl::FL_IFINAL</title>
<polygon fill="white" stroke="none" points="-4,4 -4,-1163 950.341,-1163 950.341,4 -4,4"/>
<!-- Node6 -->
<g id="node1" class="node"><title>Node6</title>
<polygon fill="#bfbfbf" stroke="black" points="277.743,-0.5 277.743,-364.5 376.843,-364.5 376.843,-0.5 277.743,-0.5"/>
<text text-anchor="middle" x="327.293" y="-352.5" font-family="Helvetica,sans-Serif" font-size="10.00">fl::FL_IFINAL</text>
<polyline fill="none" stroke="black" points="277.743,-346.5 376.843,-346.5 "/>
<text text-anchor="middle" x="327.293" y="-334.5" font-family="Helvetica,sans-Serif" font-size="10.00"> </text>
<polyline fill="none" stroke="black" points="277.743,-328.5 376.843,-328.5 "/>
<text text-anchor="start" x="285.743" y="-316.5" font-family="Helvetica,sans-Serif" font-size="10.00">+ name()</text>
<text text-anchor="start" x="285.743" y="-306.5" font-family="Helvetica,sans-Serif" font-size="10.00">+ complexity()</text>
<text text-anchor="start" x="285.743" y="-296.5" font-family="Helvetica,sans-Serif" font-size="10.00">+ hedge()</text>
<text text-anchor="start" x="285.743" y="-286.5" font-family="Helvetica,sans-Serif" font-size="10.00">+ clone()</text>
<text text-anchor="start" x="285.743" y="-276.5" font-family="Helvetica,sans-Serif" font-size="10.00">+ HedgeFunction()</text>
<text text-anchor="start" x="285.743" y="-266.5" font-family="Helvetica,sans-Serif" font-size="10.00">+ name()</text>
<text text-anchor="start" x="285.743" y="-256.5" font-family="Helvetica,sans-Serif" font-size="10.00">+ function()</text>
<text text-anchor="start" x="285.743" y="-246.5" font-family="Helvetica,sans-Serif" font-size="10.00">+ setFormula()</text>
<text text-anchor="start" x="285.743" y="-236.5" font-family="Helvetica,sans-Serif" font-size="10.00">+ getFormula()</text>
<text text-anchor="start" x="285.743" y="-226.5" font-family="Helvetica,sans-Serif" font-size="10.00">+ complexity()</text>
<text text-anchor="start" x="285.743" y="-216.5" font-family="Helvetica,sans-Serif" font-size="10.00">+ hedge()</text>
<text text-anchor="start" x="285.743" y="-206.5" font-family="Helvetica,sans-Serif" font-size="10.00">+ clone()</text>
<text text-anchor="start" x="285.743" y="-196.5" font-family="Helvetica,sans-Serif" font-size="10.00">+ name()</text>
<text text-anchor="start" x="285.743" y="-186.5" font-family="Helvetica,sans-Serif" font-size="10.00">+ complexity()</text>
<text text-anchor="start" x="285.743" y="-176.5" font-family="Helvetica,sans-Serif" font-size="10.00">+ hedge()</text>
<text text-anchor="start" x="285.743" y="-166.5" font-family="Helvetica,sans-Serif" font-size="10.00">and 101 more...</text>
<text text-anchor="start" x="285.743" y="-156.5" font-family="Helvetica,sans-Serif" font-size="10.00">+ constructor()</text>
<text text-anchor="start" x="285.743" y="-146.5" font-family="Helvetica,sans-Serif" font-size="10.00">+ constructor()</text>
<text text-anchor="start" x="285.743" y="-136.5" font-family="Helvetica,sans-Serif" font-size="10.00">+ constructor()</text>
<text text-anchor="start" x="285.743" y="-126.5" font-family="Helvetica,sans-Serif" font-size="10.00">+ constructor()</text>
<text text-anchor="start" x="285.743" y="-116.5" font-family="Helvetica,sans-Serif" font-size="10.00">+ constructor()</text>
<text text-anchor="start" x="285.743" y="-106.5" font-family="Helvetica,sans-Serif" font-size="10.00">+ constructor()</text>
<text text-anchor="start" x="285.743" y="-96.5" font-family="Helvetica,sans-Serif" font-size="10.00">+ constructor()</text>
<text text-anchor="start" x="285.743" y="-86.5" font-family="Helvetica,sans-Serif" font-size="10.00">+ constructor()</text>
<text text-anchor="start" x="285.743" y="-76.5" font-family="Helvetica,sans-Serif" font-size="10.00">+ constructor()</text>
<text text-anchor="start" x="285.743" y="-66.5" font-family="Helvetica,sans-Serif" font-size="10.00">+ constructor()</text>
<text text-anchor="start" x="285.743" y="-56.5" font-family="Helvetica,sans-Serif" font-size="10.00">+ constructor()</text>
<text text-anchor="start" x="285.743" y="-46.5" font-family="Helvetica,sans-Serif" font-size="10.00">+ constructor()</text>
<text text-anchor="start" x="285.743" y="-36.5" font-family="Helvetica,sans-Serif" font-size="10.00">+ constructor()</text>
<text text-anchor="start" x="285.743" y="-26.5" font-family="Helvetica,sans-Serif" font-size="10.00">+ constructor()</text>
<text text-anchor="start" x="285.743" y="-16.5" font-family="Helvetica,sans-Serif" font-size="10.00">+ constructor()</text>
<text text-anchor="start" x="285.743" y="-6.5" font-family="Helvetica,sans-Serif" font-size="10.00">and 9 more...</text>
</g>
<!-- Node7 -->
<g id="node2" class="node"><title>Node7</title>
<g id="a_node2"><a xlink:href="../../d2/d7f/classfl_1_1_expression.html" target="_top" xlink:title="The Expression class is the base class to build an expression tree. ">
<polygon fill="white" stroke="black" points="0,-501.5 0,-585.5 86.5859,-585.5 86.5859,-501.5 0,-501.5"/>
<text text-anchor="middle" x="43.293" y="-573.5" font-family="Helvetica,sans-Serif" font-size="10.00">fl::Expression</text>
<polyline fill="none" stroke="black" points="0,-567.5 86.5859,-567.5 "/>
<text text-anchor="middle" x="43.293" y="-555.5" font-family="Helvetica,sans-Serif" font-size="10.00"> </text>
<polyline fill="none" stroke="black" points="0,-549.5 86.5859,-549.5 "/>
<text text-anchor="start" x="8" y="-537.5" font-family="Helvetica,sans-Serif" font-size="10.00">+ Expression()</text>
<text text-anchor="start" x="8" y="-527.5" font-family="Helvetica,sans-Serif" font-size="10.00">+ ~Expression()</text>
<text text-anchor="start" x="8" y="-517.5" font-family="Helvetica,sans-Serif" font-size="10.00">+ type()</text>
<text text-anchor="start" x="8" y="-507.5" font-family="Helvetica,sans-Serif" font-size="10.00">+ toString()</text>
</a>
</g>
</g>
<!-- Node7&#45;&gt;Node6 -->
<g id="edge1" class="edge"><title>Node7&#45;&gt;Node6</title>
<path fill="none" stroke="midnightblue" d="M61.9277,-492.274C73.8753,-469.827 89.8736,-443.433 106.293,-421 159.34,-348.526 230.463,-272.364 277.641,-226.399"/>
<polygon fill="none" stroke="midnightblue" points="58.739,-490.82 57.2295,-501.307 64.9492,-494.05 58.739,-490.82"/>
</g>
<!-- Node7&#45;&gt;Node6 -->
<g id="edge2" class="edge"><title>Node7&#45;&gt;Node6</title>
<path fill="none" stroke="midnightblue" d="M78.184,-492.573C91.7331,-470.062 107.801,-443.532 124.293,-421 172.117,-355.661 234.632,-287.327 277.676,-240.822"/>
<polygon fill="none" stroke="midnightblue" points="75.0855,-490.934 72.9264,-501.307 81.0826,-494.544 75.0855,-490.934"/>
</g>
<!-- Node7&#45;&gt;Node6 -->
<g id="edge36" class="edge"><title>Node7&#45;&gt;Node6</title>
<path fill="none" stroke="#404040" d="M51.5992,-501.181C59.7985,-467.307 74.7261,-419.216 99.2217,-383 144.122,-316.616 216.35,-258.591 267.481,-222.486"/>
<polygon fill="none" stroke="#404040" points="267.568,-222.425 270.202,-215.712 277.411,-215.561 274.778,-222.274 267.568,-222.425"/>
<text text-anchor="middle" x="113.329" y="-395" font-family="Helvetica,sans-Serif" font-size="10.00"> +right</text>
<text text-anchor="middle" x="113.329" y="-385" font-family="Helvetica,sans-Serif" font-size="10.00">+left</text>
</g>
<!-- Node8 -->
<g id="node3" class="node"><title>Node8</title>
<g id="a_node3"><a xlink:href="../../d6/d29/classfl_1_1_t_norm.html" target="_top" xlink:title="The TNorm class is the base class for T&#45;Norms, and it is utilized as the conjunction fuzzy logic oper...">
<polygon fill="white" stroke="black" points="293.458,-506.5 293.458,-580.5 361.128,-580.5 361.128,-506.5 293.458,-506.5"/>
<text text-anchor="middle" x="327.293" y="-568.5" font-family="Helvetica,sans-Serif" font-size="10.00">fl::TNorm</text>
<polyline fill="none" stroke="black" points="293.458,-562.5 361.128,-562.5 "/>
<text text-anchor="middle" x="327.293" y="-550.5" font-family="Helvetica,sans-Serif" font-size="10.00"> </text>
<polyline fill="none" stroke="black" points="293.458,-544.5 361.128,-544.5 "/>
<text text-anchor="start" x="301.458" y="-532.5" font-family="Helvetica,sans-Serif" font-size="10.00">+ TNorm()</text>
<text text-anchor="start" x="301.458" y="-522.5" font-family="Helvetica,sans-Serif" font-size="10.00">+ ~TNorm()</text>
<text text-anchor="start" x="301.458" y="-512.5" font-family="Helvetica,sans-Serif" font-size="10.00">+ clone()</text>
</a>
</g>
</g>
<!-- Node8&#45;&gt;Node6 -->
<g id="edge3" class="edge"><title>Node8&#45;&gt;Node6</title>
<path fill="none" stroke="midnightblue" d="M294.514,-496.793C284.975,-462.723 280.152,-413.781 280.045,-364.672"/>
<polygon fill="none" stroke="midnightblue" points="291.193,-497.903 297.476,-506.434 297.884,-495.847 291.193,-497.903"/>
</g>
<!-- Node8&#45;&gt;Node6 -->
<g id="edge5" class="edge"><title>Node8&#45;&gt;Node6</title>
<path fill="none" stroke="midnightblue" d="M303.792,-496.354C297.036,-462.303 293.62,-413.57 293.544,-364.672"/>
<polygon fill="none" stroke="midnightblue" points="300.44,-497.412 305.995,-506.434 307.279,-495.917 300.44,-497.412"/>
</g>
<!-- Node8&#45;&gt;Node6 -->
<g id="edge6" class="edge"><title>Node8&#45;&gt;Node6</title>
<path fill="none" stroke="midnightblue" d="M313.192,-496.354C309.139,-462.303 307.089,-413.57 307.044,-364.672"/>
<polygon fill="none" stroke="midnightblue" points="309.743,-496.974 314.514,-506.434 316.684,-496.064 309.743,-496.974"/>
</g>
<!-- Node8&#45;&gt;Node6 -->
<g id="edge7" class="edge"><title>Node8&#45;&gt;Node6</title>
<path fill="none" stroke="midnightblue" d="M322.593,-496.354C321.242,-462.303 320.558,-413.57 320.543,-364.672"/>
<polygon fill="none" stroke="midnightblue" points="319.1,-496.596 323.033,-506.434 326.093,-496.291 319.1,-496.596"/>
</g>
<!-- Node8&#45;&gt;Node6 -->
<g id="edge8" class="edge"><title>Node8&#45;&gt;Node6</title>
<path fill="none" stroke="midnightblue" d="M331.993,-496.354C333.344,-462.303 334.027,-413.57 334.043,-364.672"/>
<polygon fill="none" stroke="midnightblue" points="328.493,-496.291 331.552,-506.434 335.486,-496.596 328.493,-496.291"/>
</g>
<!-- Node8&#45;&gt;Node6 -->
<g id="edge9" class="edge"><title>Node8&#45;&gt;Node6</title>
<path fill="none" stroke="midnightblue" d="M341.394,-496.354C345.447,-462.303 347.497,-413.57 347.542,-364.672"/>
<polygon fill="none" stroke="midnightblue" points="337.902,-496.064 340.072,-506.434 344.842,-496.974 337.902,-496.064"/>
</g>
<!-- Node8&#45;&gt;Node6 -->
<g id="edge10" class="edge"><title>Node8&#45;&gt;Node6</title>
<path fill="none" stroke="midnightblue" d="M350.794,-496.354C357.55,-462.303 360.966,-413.57 361.042,-364.672"/>
<polygon fill="none" stroke="midnightblue" points="347.307,-495.917 348.591,-506.434 354.146,-497.412 347.307,-495.917"/>
</g>
<!-- Node8&#45;&gt;Node6 -->
<g id="edge11" class="edge"><title>Node8&#45;&gt;Node6</title>
<path fill="none" stroke="midnightblue" d="M360.072,-496.793C369.611,-462.723 374.434,-413.781 374.541,-364.672"/>
<polygon fill="none" stroke="midnightblue" points="356.702,-495.847 357.11,-506.434 363.393,-497.903 356.702,-495.847"/>
</g>
<!-- Node9 -->
<g id="node4" class="node"><title>Node9</title>
<g id="a_node4"><a xlink:href="../../d5/d22/classfl_1_1_norm.html" target="_top" xlink:title="The Norm class is the abstract class for norms. ">
<polygon fill="white" stroke="black" points="165.925,-722.5 165.925,-826.5 246.661,-826.5 246.661,-722.5 165.925,-722.5"/>
<text text-anchor="middle" x="206.293" y="-814.5" font-family="Helvetica,sans-Serif" font-size="10.00">fl::Norm</text>
<polyline fill="none" stroke="black" points="165.925,-808.5 246.661,-808.5 "/>
<text text-anchor="middle" x="206.293" y="-796.5" font-family="Helvetica,sans-Serif" font-size="10.00"> </text>
<polyline fill="none" stroke="black" points="165.925,-790.5 246.661,-790.5 "/>
<text text-anchor="start" x="173.925" y="-778.5" font-family="Helvetica,sans-Serif" font-size="10.00">+ Norm()</text>
<text text-anchor="start" x="173.925" y="-768.5" font-family="Helvetica,sans-Serif" font-size="10.00">+ ~Norm()</text>
<text text-anchor="start" x="173.925" y="-758.5" font-family="Helvetica,sans-Serif" font-size="10.00">+ className()</text>
<text text-anchor="start" x="173.925" y="-748.5" font-family="Helvetica,sans-Serif" font-size="10.00">+ complexity()</text>
<text text-anchor="start" x="173.925" y="-738.5" font-family="Helvetica,sans-Serif" font-size="10.00">+ compute()</text>
<text text-anchor="start" x="173.925" y="-728.5" font-family="Helvetica,sans-Serif" font-size="10.00">+ clone()</text>
</a>
</g>
</g>
<!-- Node9&#45;&gt;Node8 -->
<g id="edge4" class="edge"><title>Node9&#45;&gt;Node8</title>
<path fill="none" stroke="midnightblue" d="M238.091,-713.32C260.396,-671.107 289.476,-616.071 308.266,-580.509"/>
<polygon fill="none" stroke="midnightblue" points="234.874,-711.916 233.297,-722.393 241.064,-715.186 234.874,-711.916"/>
</g>
<!-- Node10 -->
<g id="node5" class="node"><title>Node10</title>
<g id="a_node5"><a xlink:href="../../d4/df8/classfl_1_1_s_norm.html" target="_top" xlink:title="The SNorm class is the base class for all S&#45;Norms, and it is utilized as the disjunction fuzzy logic ...">
<polygon fill="white" stroke="black" points="124.177,-506.5 124.177,-580.5 192.409,-580.5 192.409,-506.5 124.177,-506.5"/>
<text text-anchor="middle" x="158.293" y="-568.5" font-family="Helvetica,sans-Serif" font-size="10.00">fl::SNorm</text>
<polyline fill="none" stroke="black" points="124.177,-562.5 192.409,-562.5 "/>
<text text-anchor="middle" x="158.293" y="-550.5" font-family="Helvetica,sans-Serif" font-size="10.00"> </text>
<polyline fill="none" stroke="black" points="124.177,-544.5 192.409,-544.5 "/>
<text text-anchor="start" x="132.177" y="-532.5" font-family="Helvetica,sans-Serif" font-size="10.00">+ SNorm()</text>
<text text-anchor="start" x="132.177" y="-522.5" font-family="Helvetica,sans-Serif" font-size="10.00">+ ~SNorm()</text>
<text text-anchor="start" x="132.177" y="-512.5" font-family="Helvetica,sans-Serif" font-size="10.00">+ clone()</text>
</a>
</g>
</g>
<!-- Node9&#45;&gt;Node10 -->
<g id="edge13" class="edge"><title>Node9&#45;&gt;Node10</title>
<path fill="none" stroke="midnightblue" d="M193.512,-712.522C184.686,-670.415 173.248,-615.847 165.841,-580.509"/>
<polygon fill="none" stroke="midnightblue" points="190.103,-713.324 195.581,-722.393 196.955,-711.888 190.103,-713.324"/>
</g>
<!-- Node10&#45;&gt;Node6 -->
<g id="edge12" class="edge"><title>Node10&#45;&gt;Node6</title>
<path fill="none" stroke="midnightblue" d="M137.709,-496.398C146.161,-421.843 216.624,-276.822 277.291,-213.875"/>
<polygon fill="none" stroke="midnightblue" points="134.214,-496.195 136.936,-506.434 141.194,-496.733 134.214,-496.195"/>
</g>
<!-- Node10&#45;&gt;Node6 -->
<g id="edge14" class="edge"><title>Node10&#45;&gt;Node6</title>
<path fill="none" stroke="midnightblue" d="M147.101,-496.423C160.802,-425.307 225.123,-290.034 277.702,-223.076"/>
<polygon fill="none" stroke="midnightblue" points="143.624,-495.998 145.455,-506.434 150.531,-497.135 143.624,-495.998"/>
</g>
<!-- Node10&#45;&gt;Node6 -->
<g id="edge15" class="edge"><title>Node10&#45;&gt;Node6</title>
<path fill="none" stroke="midnightblue" d="M156.439,-496.632C174.527,-429.977 232.152,-306.645 277.694,-236.295"/>
<polygon fill="none" stroke="midnightblue" points="153.019,-495.882 153.974,-506.434 159.808,-497.59 153.019,-495.882"/>
</g>
<!-- Node10&#45;&gt;Node6 -->
<g id="edge16" class="edge"><title>Node10&#45;&gt;Node6</title>
<path fill="none" stroke="midnightblue" d="M165.813,-496.647C187.357,-435.28 238.067,-325.853 277.642,-253.974"/>
<polygon fill="none" stroke="midnightblue" points="162.391,-495.84 162.493,-506.434 169.02,-498.088 162.391,-495.84"/>
</g>
<!-- Node10&#45;&gt;Node6 -->
<g id="edge17" class="edge"><title>Node10&#45;&gt;Node6</title>
<path fill="none" stroke="midnightblue" d="M175.073,-496.918C198.872,-441.656 242.928,-347.137 277.606,-276.312"/>
<polygon fill="none" stroke="midnightblue" points="171.718,-495.863 171.012,-506.434 178.156,-498.611 171.718,-495.863"/>
</g>
<!-- Node10&#45;&gt;Node6 -->
<g id="edge18" class="edge"><title>Node10&#45;&gt;Node6</title>
<path fill="none" stroke="midnightblue" d="M184.173,-497.419C209.057,-448.742 247.084,-369.192 277.737,-302.355"/>
<polygon fill="none" stroke="midnightblue" points="180.997,-495.941 179.531,-506.434 187.22,-499.146 180.997,-495.941"/>
</g>
<!-- Node10&#45;&gt;Node6 -->
<g id="edge19" class="edge"><title>Node10&#45;&gt;Node6</title>
<path fill="none" stroke="midnightblue" d="M193.369,-497.62C218.12,-455.851 250.549,-391.226 277.624,-331.429"/>
<polygon fill="none" stroke="midnightblue" points="190.22,-496.064 188.05,-506.434 196.213,-499.681 190.22,-496.064"/>
</g>
<!-- Node10&#45;&gt;Node6 -->
<g id="edge20" class="edge"><title>Node10&#45;&gt;Node6</title>
<path fill="none" stroke="midnightblue" d="M198.698,-503.413C223.116,-468.41 252.426,-414.461 277.587,-360.777"/>
<polygon fill="none" stroke="midnightblue" points="195.597,-501.73 192.601,-511.892 201.28,-505.816 195.597,-501.73"/>
</g>
<!-- Node10&#45;&gt;Node6 -->
<g id="edge21" class="edge"><title>Node10&#45;&gt;Node6</title>
<path fill="none" stroke="midnightblue" d="M199.345,-513.308C228.199,-479.959 261.888,-422.513 289.185,-364.817"/>
<polygon fill="none" stroke="midnightblue" points="196.629,-511.092 192.504,-520.851 201.814,-515.795 196.629,-511.092"/>
</g>
<!-- Node10&#45;&gt;Node6 -->
<g id="edge22" class="edge"><title>Node10&#45;&gt;Node6</title>
<path fill="none" stroke="midnightblue" d="M200.148,-520.132C234.568,-488.256 273.331,-426.747 302.63,-364.932"/>
<polygon fill="none" stroke="midnightblue" points="197.675,-517.644 192.419,-526.843 202.265,-522.93 197.675,-517.644"/>
</g>
<!-- Node11 -->
<g id="node6" class="node"><title>Node11</title>
<g id="a_node6"><a xlink:href="../../d3/dba/classfl_1_1_hedge.html" target="_top" xlink:title="The Hedge class is the abstract class for hedges. ">
<polygon fill="white" stroke="black" points="421.036,-722.5 421.036,-826.5 499.55,-826.5 499.55,-722.5 421.036,-722.5"/>
<text text-anchor="middle" x="460.293" y="-814.5" font-family="Helvetica,sans-Serif" font-size="10.00">fl::Hedge</text>
<polyline fill="none" stroke="black" points="421.036,-808.5 499.55,-808.5 "/>
<text text-anchor="middle" x="460.293" y="-796.5" font-family="Helvetica,sans-Serif" font-size="10.00"> </text>
<polyline fill="none" stroke="black" points="421.036,-790.5 499.55,-790.5 "/>
<text text-anchor="start" x="429.036" y="-778.5" font-family="Helvetica,sans-Serif" font-size="10.00">+ Hedge()</text>
<text text-anchor="start" x="429.036" y="-768.5" font-family="Helvetica,sans-Serif" font-size="10.00">+ ~Hedge()</text>
<text text-anchor="start" x="429.036" y="-758.5" font-family="Helvetica,sans-Serif" font-size="10.00">+ name()</text>
<text text-anchor="start" x="429.036" y="-748.5" font-family="Helvetica,sans-Serif" font-size="10.00">+ complexity()</text>
<text text-anchor="start" x="429.036" y="-738.5" font-family="Helvetica,sans-Serif" font-size="10.00">+ hedge()</text>
<text text-anchor="start" x="429.036" y="-728.5" font-family="Helvetica,sans-Serif" font-size="10.00">+ clone()</text>
</a>
</g>
</g>
<!-- Node11&#45;&gt;Node6 -->
<g id="edge23" class="edge"><title>Node11&#45;&gt;Node6</title>
<path fill="none" stroke="midnightblue" d="M423.671,-712.203C402.318,-634.638 385.809,-497.366 356.293,-383 354.724,-376.919 353.036,-370.766 351.267,-364.578"/>
<polygon fill="none" stroke="midnightblue" points="420.444,-713.643 426.578,-722.281 427.169,-711.703 420.444,-713.643"/>
</g>
<!-- Node11&#45;&gt;Node6 -->
<g id="edge24" class="edge"><title>Node11&#45;&gt;Node6</title>
<path fill="none" stroke="midnightblue" d="M436.186,-712.203C420.318,-634.638 403.809,-497.366 374.293,-383 372.724,-376.919 371.036,-370.766 369.262,-364.578"/>
<polygon fill="none" stroke="midnightblue" points="432.825,-713.224 438.321,-722.281 439.673,-711.773 432.825,-713.224"/>
</g>
<!-- Node11&#45;&gt;Node6 -->
<g id="edge25" class="edge"><title>Node11&#45;&gt;Node6</title>
<path fill="none" stroke="midnightblue" d="M448.701,-712.203C438.318,-634.638 421.809,-497.366 392.293,-383 387.908,-366.01 382.603,-348.456 376.927,-331.133"/>
<polygon fill="none" stroke="midnightblue" points="445.256,-712.84 450.064,-722.281 452.193,-711.903 445.256,-712.84"/>
</g>
<!-- Node11&#45;&gt;Node6 -->
<g id="edge26" class="edge"><title>Node11&#45;&gt;Node6</title>
<path fill="none" stroke="midnightblue" d="M461.217,-712.203C456.318,-634.638 439.809,-497.366 410.293,-383 401.638,-349.466 389.398,-313.738 376.918,-281.921"/>
<polygon fill="none" stroke="midnightblue" points="457.728,-712.503 461.807,-722.281 464.716,-712.094 457.728,-712.503"/>
</g>
<!-- Node11&#45;&gt;Node6 -->
<g id="edge27" class="edge"><title>Node11&#45;&gt;Node6</title>
<path fill="none" stroke="midnightblue" d="M473.732,-712.203C474.318,-634.638 457.809,-497.366 428.293,-383 416.061,-335.606 396.668,-283.828 377.059,-244.902"/>
<polygon fill="none" stroke="midnightblue" points="470.231,-712.22 473.55,-722.281 477.23,-712.347 470.231,-712.22"/>
</g>
<!-- Node11&#45;&gt;Node6 -->
<g id="edge28" class="edge"><title>Node11&#45;&gt;Node6</title>
<path fill="none" stroke="midnightblue" d="M486.248,-712.203C492.318,-634.638 475.809,-497.366 446.293,-383 431.246,-324.696 405.36,-259.759 376.922,-220.273"/>
<polygon fill="none" stroke="midnightblue" points="482.752,-711.996 485.293,-722.281 489.72,-712.656 482.752,-711.996"/>
</g>
<!-- Node12 -->
<g id="node7" class="node"><title>Node12</title>
<polygon fill="white" stroke="#bfbfbf" points="533.653,-516.5 533.653,-570.5 656.933,-570.5 656.933,-516.5 533.653,-516.5"/>
<text text-anchor="middle" x="595.293" y="-558.5" font-family="Helvetica,sans-Serif" font-size="10.00">std::vector&lt; fl::Hedge *&gt;</text>
<polyline fill="none" stroke="#bfbfbf" points="533.653,-552.5 656.933,-552.5 "/>
<text text-anchor="middle" x="595.293" y="-540.5" font-family="Helvetica,sans-Serif" font-size="10.00"> </text>
<polyline fill="none" stroke="#bfbfbf" points="533.653,-534.5 656.933,-534.5 "/>
<text text-anchor="middle" x="595.293" y="-522.5" font-family="Helvetica,sans-Serif" font-size="10.00"> </text>
</g>
<!-- Node11&#45;&gt;Node12 -->
<g id="edge30" class="edge"><title>Node11&#45;&gt;Node12</title>
<path fill="none" stroke="#404040" d="M499.697,-727.437C505.546,-719.811 511.283,-711.832 516.293,-704 541.726,-664.239 564.933,-615.144 579.516,-582.008"/>
<polygon fill="none" stroke="#404040" points="579.705,-581.575 578.427,-574.478 584.487,-570.569 585.765,-577.666 579.705,-581.575"/>
<text text-anchor="middle" x="551.89" y="-691" font-family="Helvetica,sans-Serif" font-size="10.00"> +elements</text>
</g>
<!-- Node12&#45;&gt;Node6 -->
<g id="edge29" class="edge"><title>Node12&#45;&gt;Node6</title>
<path fill="none" stroke="#404040" d="M585.814,-516.263C573.306,-483.469 549.32,-426.381 519.293,-383 480.887,-327.513 426.866,-272.889 385.905,-234.868"/>
<polygon fill="none" stroke="#404040" points="385.677,-234.658 378.554,-233.539 376.847,-226.532 383.971,-227.652 385.677,-234.658"/>
<text text-anchor="middle" x="551.006" y="-390" font-family="Helvetica,sans-Serif" font-size="10.00"> +hedges</text>
</g>
<!-- Node13 -->
<g id="node8" class="node"><title>Node13</title>
<g id="a_node8"><a xlink:title="STL class. ">
<polygon fill="white" stroke="#bfbfbf" points="571.732,-938.5 571.732,-992.5 656.854,-992.5 656.854,-938.5 571.732,-938.5"/>
<text text-anchor="middle" x="614.293" y="-980.5" font-family="Helvetica,sans-Serif" font-size="10.00">std::vector&lt; T &gt;</text>
<polyline fill="none" stroke="#bfbfbf" points="571.732,-974.5 656.854,-974.5 "/>
<text text-anchor="middle" x="614.293" y="-962.5" font-family="Helvetica,sans-Serif" font-size="10.00"> </text>
<polyline fill="none" stroke="#bfbfbf" points="571.732,-956.5 656.854,-956.5 "/>
<text text-anchor="middle" x="614.293" y="-944.5" font-family="Helvetica,sans-Serif" font-size="10.00"> </text>
</a>
</g>
</g>
<!-- Node13&#45;&gt;Node12 -->
<g id="edge31" class="edge"><title>Node13&#45;&gt;Node12</title>
<path fill="none" stroke="orange" d="M612.642,-927.999C608.881,-844.857 599.749,-643.01 596.481,-570.763"/>
<polygon fill="orange" stroke="orange" points="609.156,-928.396 613.104,-938.227 616.149,-928.079 609.156,-928.396"/>
<text text-anchor="middle" x="640.258" y="-771.5" font-family="Helvetica,sans-Serif" font-size="10.00"> &lt; fl::Hedge *&gt;</text>
</g>
<!-- Node19 -->
<g id="node14" class="node"><title>Node19</title>
<polygon fill="white" stroke="#bfbfbf" points="722.276,-747.5 722.276,-801.5 838.31,-801.5 838.31,-747.5 722.276,-747.5"/>
<text text-anchor="middle" x="780.293" y="-789.5" font-family="Helvetica,sans-Serif" font-size="10.00">std::vector&lt; fl::Term *&gt;</text>
<polyline fill="none" stroke="#bfbfbf" points="722.276,-783.5 838.31,-783.5 "/>
<text text-anchor="middle" x="780.293" y="-771.5" font-family="Helvetica,sans-Serif" font-size="10.00"> </text>
<polyline fill="none" stroke="#bfbfbf" points="722.276,-765.5 838.31,-765.5 "/>
<text text-anchor="middle" x="780.293" y="-753.5" font-family="Helvetica,sans-Serif" font-size="10.00"> </text>
</g>
<!-- Node13&#45;&gt;Node19 -->
<g id="edge41" class="edge"><title>Node13&#45;&gt;Node19</title>
<path fill="none" stroke="orange" d="M640.127,-929.889C658.729,-905.534 684.814,-872.507 709.608,-845 722.974,-830.171 738.741,-814.511 751.987,-801.818"/>
<polygon fill="orange" stroke="orange" points="637.137,-928.039 633.874,-938.119 642.711,-932.274 637.137,-928.039"/>
<text text-anchor="middle" x="738.635" y="-847" font-family="Helvetica,sans-Serif" font-size="10.00"> &lt; fl::Term *&gt;</text>
</g>
<!-- Node14 -->
<g id="node9" class="node"><title>Node14</title>
<polygon fill="white" stroke="#bfbfbf" points="599.793,-1104.5 599.793,-1158.5 628.793,-1158.5 628.793,-1104.5 599.793,-1104.5"/>
<text text-anchor="middle" x="613.847" y="-1146.5" font-family="Helvetica,sans-Serif" font-size="10.00">T</text>
<polyline fill="none" stroke="#bfbfbf" points="599.793,-1140.5 627.901,-1140.5 "/>
<text text-anchor="middle" x="613.847" y="-1128.5" font-family="Helvetica,sans-Serif" font-size="10.00"> </text>
<polyline fill="none" stroke="#bfbfbf" points="599.793,-1122.5 627.901,-1122.5 "/>
<text text-anchor="middle" x="613.847" y="-1110.5" font-family="Helvetica,sans-Serif" font-size="10.00"> </text>
</g>
<!-- Node14&#45;&gt;Node13 -->
<g id="edge32" class="edge"><title>Node14&#45;&gt;Node13</title>
<path fill="none" stroke="#404040" d="M614.293,-1104.15C614.293,-1077.29 614.293,-1035.35 614.293,-1004.82"/>
<polygon fill="none" stroke="#404040" points="614.293,-1004.51 610.293,-998.513 614.293,-992.513 618.293,-998.513 614.293,-1004.51"/>
<text text-anchor="middle" x="638.89" y="-1078" font-family="Helvetica,sans-Serif" font-size="10.00"> +elements</text>
</g>
<!-- Node15 -->
<g id="node10" class="node"><title>Node15</title>
<g id="a_node10"><a xlink:href="../../d4/de6/classfl_1_1_term.html" target="_top" xlink:title="The Term class is the abstract class for linguistic terms. ">
<polygon fill="white" stroke="black" points="701.292,-873.5 701.292,-1057.5 809.294,-1057.5 809.294,-873.5 701.292,-873.5"/>
<text text-anchor="middle" x="755.293" y="-1045.5" font-family="Helvetica,sans-Serif" font-size="10.00">fl::Term</text>
<polyline fill="none" stroke="black" points="701.292,-1039.5 809.294,-1039.5 "/>
<text text-anchor="start" x="709.292" y="-1027.5" font-family="Helvetica,sans-Serif" font-size="10.00"># _height</text>
<polyline fill="none" stroke="black" points="701.292,-1021.5 809.294,-1021.5 "/>
<text text-anchor="start" x="709.292" y="-1009.5" font-family="Helvetica,sans-Serif" font-size="10.00">+ Term()</text>
<text text-anchor="start" x="709.292" y="-999.5" font-family="Helvetica,sans-Serif" font-size="10.00">+ ~Term()</text>
<text text-anchor="start" x="709.292" y="-989.5" font-family="Helvetica,sans-Serif" font-size="10.00">+ setName()</text>
<text text-anchor="start" x="709.292" y="-979.5" font-family="Helvetica,sans-Serif" font-size="10.00">+ getName()</text>
<text text-anchor="start" x="709.292" y="-969.5" font-family="Helvetica,sans-Serif" font-size="10.00">+ setHeight()</text>
<text text-anchor="start" x="709.292" y="-959.5" font-family="Helvetica,sans-Serif" font-size="10.00">+ getHeight()</text>
<text text-anchor="start" x="709.292" y="-949.5" font-family="Helvetica,sans-Serif" font-size="10.00">+ toString()</text>
<text text-anchor="start" x="709.292" y="-939.5" font-family="Helvetica,sans-Serif" font-size="10.00">+ className()</text>
<text text-anchor="start" x="709.292" y="-929.5" font-family="Helvetica,sans-Serif" font-size="10.00">+ parameters()</text>
<text text-anchor="start" x="709.292" y="-919.5" font-family="Helvetica,sans-Serif" font-size="10.00">+ configure()</text>
<text text-anchor="start" x="709.292" y="-909.5" font-family="Helvetica,sans-Serif" font-size="10.00">+ complexity()</text>
<text text-anchor="start" x="709.292" y="-899.5" font-family="Helvetica,sans-Serif" font-size="10.00">+ membership()</text>
<text text-anchor="start" x="709.292" y="-889.5" font-family="Helvetica,sans-Serif" font-size="10.00">+ clone()</text>
<text text-anchor="start" x="709.292" y="-879.5" font-family="Helvetica,sans-Serif" font-size="10.00">+ updateReference()</text>
</a>
</g>
</g>
<!-- Node15&#45;&gt;Node6 -->
<g id="edge33" class="edge"><title>Node15&#45;&gt;Node6</title>
<path fill="none" stroke="#404040" d="M724.94,-873.387C720.551,-858.025 716.456,-842.149 713.293,-827 676.164,-649.186 759.29,-577.039 666.293,-421 601.861,-312.89 466.926,-241.545 388.11,-207.26"/>
<polygon fill="none" stroke="#404040" points="387.938,-207.186 380.849,-208.506 376.904,-202.47 383.993,-201.15 387.938,-207.186"/>
<text text-anchor="middle" x="719.602" y="-691" font-family="Helvetica,sans-Serif" font-size="10.00"> +term</text>
</g>
<!-- Node15&#45;&gt;Node19 -->
<g id="edge40" class="edge"><title>Node15&#45;&gt;Node19</title>
<path fill="none" stroke="#404040" d="M767.354,-873.322C770.133,-852.307 772.942,-831.074 775.229,-813.785"/>
<polygon fill="none" stroke="#404040" points="775.257,-813.574 772.078,-807.101 776.83,-801.677 780.009,-808.15 775.257,-813.574"/>
<text text-anchor="middle" x="795.89" y="-847" font-family="Helvetica,sans-Serif" font-size="10.00"> +elements</text>
</g>
<!-- Node16 -->
<g id="node11" class="node"><title>Node16</title>
<g id="a_node11"><a xlink:title="STL class. ">
<polygon fill="white" stroke="#bfbfbf" points="869.618,-747.5 869.618,-801.5 928.968,-801.5 928.968,-747.5 869.618,-747.5"/>
<text text-anchor="middle" x="899.293" y="-789.5" font-family="Helvetica,sans-Serif" font-size="10.00">std::string</text>
<polyline fill="none" stroke="#bfbfbf" points="869.618,-783.5 928.968,-783.5 "/>
<text text-anchor="middle" x="899.293" y="-771.5" font-family="Helvetica,sans-Serif" font-size="10.00"> </text>
<polyline fill="none" stroke="#bfbfbf" points="869.618,-765.5 928.968,-765.5 "/>
<text text-anchor="middle" x="899.293" y="-753.5" font-family="Helvetica,sans-Serif" font-size="10.00"> </text>
</a>
</g>
</g>
<!-- Node16&#45;&gt;Node6 -->
<g id="edge34" class="edge"><title>Node16&#45;&gt;Node6</title>
<path fill="none" stroke="#404040" d="M902.435,-747.487C908.581,-684.699 915.721,-522.547 841.293,-421 730.529,-269.878 499.765,-212.132 389.096,-192.492"/>
<polygon fill="none" stroke="#404040" points="388.995,-192.475 382.404,-195.4 377.169,-190.441 383.76,-187.515 388.995,-192.475"/>
<text text-anchor="middle" x="923.109" y="-540.5" font-family="Helvetica,sans-Serif" font-size="10.00"> +name</text>
</g>
<!-- Node18 -->
<g id="node13" class="node"><title>Node18</title>
<g id="a_node13"><a xlink:href="../../d0/d27/classfl_1_1_variable.html" target="_top" xlink:title="The Variable class is the base class for linguistic variables. ">
<polygon fill="white" stroke="black" points="722.127,-421.5 722.127,-665.5 832.458,-665.5 832.458,-421.5 722.127,-421.5"/>
<text text-anchor="middle" x="777.293" y="-653.5" font-family="Helvetica,sans-Serif" font-size="10.00">fl::Variable</text>
<polyline fill="none" stroke="black" points="722.127,-647.5 832.458,-647.5 "/>
<text text-anchor="start" x="730.127" y="-635.5" font-family="Helvetica,sans-Serif" font-size="10.00"># _value</text>
<text text-anchor="start" x="730.127" y="-625.5" font-family="Helvetica,sans-Serif" font-size="10.00"># _minimum</text>
<text text-anchor="start" x="730.127" y="-615.5" font-family="Helvetica,sans-Serif" font-size="10.00"># _maximum</text>
<text text-anchor="start" x="730.127" y="-605.5" font-family="Helvetica,sans-Serif" font-size="10.00"># _enabled</text>
<text text-anchor="start" x="730.127" y="-595.5" font-family="Helvetica,sans-Serif" font-size="10.00"># _lockValueInRange</text>
<polyline fill="none" stroke="black" points="722.127,-589.5 832.458,-589.5 "/>
<text text-anchor="start" x="730.127" y="-577.5" font-family="Helvetica,sans-Serif" font-size="10.00">+ Variable()</text>
<text text-anchor="start" x="730.127" y="-567.5" font-family="Helvetica,sans-Serif" font-size="10.00">+ Variable()</text>
<text text-anchor="start" x="730.127" y="-557.5" font-family="Helvetica,sans-Serif" font-size="10.00">+ operator=()</text>
<text text-anchor="start" x="730.127" y="-547.5" font-family="Helvetica,sans-Serif" font-size="10.00">+ ~Variable()</text>
<text text-anchor="start" x="730.127" y="-537.5" font-family="Helvetica,sans-Serif" font-size="10.00">+ setName()</text>
<text text-anchor="start" x="730.127" y="-527.5" font-family="Helvetica,sans-Serif" font-size="10.00">+ getName()</text>
<text text-anchor="start" x="730.127" y="-517.5" font-family="Helvetica,sans-Serif" font-size="10.00">+ getDescription()</text>
<text text-anchor="start" x="730.127" y="-507.5" font-family="Helvetica,sans-Serif" font-size="10.00">+ setDescription()</text>
<text text-anchor="start" x="730.127" y="-497.5" font-family="Helvetica,sans-Serif" font-size="10.00">+ setValue()</text>
<text text-anchor="start" x="730.127" y="-487.5" font-family="Helvetica,sans-Serif" font-size="10.00">+ getValue()</text>
<text text-anchor="start" x="730.127" y="-477.5" font-family="Helvetica,sans-Serif" font-size="10.00">+ setRange()</text>
<text text-anchor="start" x="730.127" y="-467.5" font-family="Helvetica,sans-Serif" font-size="10.00">+ range()</text>
<text text-anchor="start" x="730.127" y="-457.5" font-family="Helvetica,sans-Serif" font-size="10.00">+ setMinimum()</text>
<text text-anchor="start" x="730.127" y="-447.5" font-family="Helvetica,sans-Serif" font-size="10.00">+ getMinimum()</text>
<text text-anchor="start" x="730.127" y="-437.5" font-family="Helvetica,sans-Serif" font-size="10.00">+ setMaximum()</text>
<text text-anchor="start" x="730.127" y="-427.5" font-family="Helvetica,sans-Serif" font-size="10.00">and 22 more...</text>
</a>
</g>
</g>
<!-- Node16&#45;&gt;Node18 -->
<g id="edge38" class="edge"><title>Node16&#45;&gt;Node18</title>
<path fill="none" stroke="#404040" d="M872.012,-747.345C856.324,-731.861 838.606,-713.472 832.811,-704 827.531,-695.371 822.666,-686.172 818.201,-676.711"/>
<polygon fill="none" stroke="#404040" points="818.079,-676.442 811.964,-672.619 813.14,-665.505 819.255,-669.327 818.079,-676.442"/>
<text text-anchor="middle" x="863.034" y="-696" font-family="Helvetica,sans-Serif" font-size="10.00"> #_name</text>
<text text-anchor="middle" x="863.034" y="-686" font-family="Helvetica,sans-Serif" font-size="10.00">#_description</text>
</g>
<!-- Node17 -->
<g id="node12" class="node"><title>Node17</title>
<g id="a_node12"><a xlink:title="STL class. ">
<polygon fill="white" stroke="#bfbfbf" points="852.245,-933.5 852.245,-997.5 946.341,-997.5 946.341,-933.5 852.245,-933.5"/>
<text text-anchor="start" x="860.245" y="-985.5" font-family="Helvetica,sans-Serif" font-size="10.00">std::basic_string&lt;</text>
<text text-anchor="middle" x="899.293" y="-975.5" font-family="Helvetica,sans-Serif" font-size="10.00"> char &gt;</text>
<polyline fill="none" stroke="#bfbfbf" points="852.245,-969.5 946.341,-969.5 "/>
<text text-anchor="middle" x="899.293" y="-957.5" font-family="Helvetica,sans-Serif" font-size="10.00"> </text>
<polyline fill="none" stroke="#bfbfbf" points="852.245,-951.5 946.341,-951.5 "/>
<text text-anchor="middle" x="899.293" y="-939.5" font-family="Helvetica,sans-Serif" font-size="10.00"> </text>
</a>
</g>
</g>
<!-- Node17&#45;&gt;Node16 -->
<g id="edge35" class="edge"><title>Node17&#45;&gt;Node16</title>
<path fill="none" stroke="midnightblue" d="M899.293,-922.834C899.293,-885.829 899.293,-832.897 899.293,-801.578"/>
<polygon fill="none" stroke="midnightblue" points="895.793,-923.29 899.293,-933.29 902.793,-923.291 895.793,-923.29"/>
</g>
<!-- Node18&#45;&gt;Node6 -->
<g id="edge37" class="edge"><title>Node18&#45;&gt;Node6</title>
<path fill="none" stroke="#404040" d="M735.559,-421.16C727.8,-407.389 718.763,-394.276 708.293,-383 618.496,-286.293 471.08,-228.025 388.411,-201.217"/>
<polygon fill="none" stroke="#404040" points="388.378,-201.206 381.447,-203.197 376.944,-197.565 383.875,-195.574 388.378,-201.206"/>
<text text-anchor="middle" x="745.112" y="-390" font-family="Helvetica,sans-Serif" font-size="10.00"> +variable</text>
</g>
<!-- Node19&#45;&gt;Node18 -->
<g id="edge39" class="edge"><title>Node19&#45;&gt;Node18</title>
<path fill="none" stroke="#404040" d="M776.118,-747.174C774.268,-734.21 772.305,-718.325 771.392,-704 770.846,-695.445 770.518,-686.628 770.364,-677.737"/>
<polygon fill="none" stroke="#404040" points="770.363,-677.586 766.31,-671.621 770.257,-665.586 774.31,-671.551 770.363,-677.586"/>
<text text-anchor="middle" x="791.744" y="-691" font-family="Helvetica,sans-Serif" font-size="10.00"> #_terms</text>
</g>
</g>
</svg>
