<?xml version="1.0" encoding="UTF-8" standalone="no"?>
<!DOCTYPE svg PUBLIC "-//W3C//DTD SVG 1.1//EN"
 "http://www.w3.org/Graphics/SVG/1.1/DTD/svg11.dtd">
<!-- Generated by graphviz version 2.38.0 (20140413.2041)
 -->
<!-- Title: fuzzylite/fl/factory/ActivationFactory.h Pages: 1 -->
<svg width="151pt" height="157pt"
 viewBox="0.00 0.00 151.10 157.00" xmlns="http://www.w3.org/2000/svg" xmlns:xlink="http://www.w3.org/1999/xlink">
<g id="graph0" class="graph" transform="scale(1 1) rotate(0) translate(4 153)">
<title>fuzzylite/fl/factory/ActivationFactory.h</title>
<polygon fill="white" stroke="none" points="-4,4 -4,-153 147.098,-153 147.098,4 -4,4"/>
<!-- Node27 -->
<g id="node1" class="node"><title>Node27</title>
<polygon fill="#bfbfbf" stroke="black" points="37.1519,-120.5 37.1519,-148.5 140.227,-148.5 140.227,-120.5 37.1519,-120.5"/>
<text text-anchor="start" x="45.1519" y="-136.5" font-family="Helvetica,sans-Serif" font-size="10.00">fuzzylite/fl/factory</text>
<text text-anchor="middle" x="88.6895" y="-126.5" font-family="Helvetica,sans-Serif" font-size="10.00">/ActivationFactory.h</text>
</g>
<!-- Node28 -->
<g id="node2" class="node"><title>Node28</title>
<g id="a_node2"><a xlink:href="../../d8/d89/_factory_manager_8h.html" target="_top" xlink:title="fuzzylite/fl/factory\l/FactoryManager.h">
<polygon fill="white" stroke="black" points="0,-55.5 0,-83.5 99.3789,-83.5 99.3789,-55.5 0,-55.5"/>
<text text-anchor="start" x="8" y="-71.5" font-family="Helvetica,sans-Serif" font-size="10.00">fuzzylite/fl/factory</text>
<text text-anchor="middle" x="49.6895" y="-61.5" font-family="Helvetica,sans-Serif" font-size="10.00">/FactoryManager.h</text>
</a>
</g>
</g>
<!-- Node27&#45;&gt;Node28 -->
<g id="edge1" class="edge"><title>Node27&#45;&gt;Node28</title>
<path fill="none" stroke="midnightblue" d="M75.3366,-111.93C69.4935,-102.491 62.8301,-91.7272 57.7599,-83.5369"/>
<polygon fill="midnightblue" stroke="midnightblue" points="72.3691,-113.786 80.6086,-120.446 78.321,-110.101 72.3691,-113.786"/>
</g>
<!-- Node29 -->
<g id="node3" class="node"><title>Node29</title>
<g id="a_node3"><a xlink:href="../../db/d5f/_headers_8h.html" target="_top" xlink:title="fuzzylite/fl/Headers.h">
<polygon fill="white" stroke="black" points="34.2808,-0.5 34.2808,-18.5 143.098,-18.5 143.098,-0.5 34.2808,-0.5"/>
<text text-anchor="middle" x="88.6895" y="-6.5" font-family="Helvetica,sans-Serif" font-size="10.00">fuzzylite/fl/Headers.h</text>
</a>
</g>
</g>
<!-- Node27&#45;&gt;Node29 -->
<g id="edge3" class="edge"><title>Node27&#45;&gt;Node29</title>
<path fill="none" stroke="midnightblue" d="M99.847,-111.13C103.417,-102.824 106.904,-93.1851 108.689,-84 111.149,-71.3479 111.391,-67.6025 108.689,-55 105.813,-41.5833 98.5681,-27.327 93.6353,-18.6665"/>
<polygon fill="midnightblue" stroke="midnightblue" points="96.5462,-109.931 95.5613,-120.48 102.91,-112.848 96.5462,-109.931"/>
</g>
<!-- Node28&#45;&gt;Node29 -->
<g id="edge2" class="edge"><title>Node28&#45;&gt;Node29</title>
<path fill="none" stroke="midnightblue" d="M64.2613,-46.829C70.8394,-37.0462 78.2182,-26.0727 83.1276,-18.7715"/>
<polygon fill="midnightblue" stroke="midnightblue" points="61.2147,-45.0875 58.5392,-55.3389 67.0236,-48.9935 61.2147,-45.0875"/>
</g>
</g>
</svg>
