<?xml version="1.0" encoding="UTF-8" standalone="no"?>
<!DOCTYPE svg PUBLIC "-//W3C//DTD SVG 1.1//EN"
 "http://www.w3.org/Graphics/SVG/1.1/DTD/svg11.dtd">
<!-- Generated by graphviz version 2.38.0 (20140413.2041)
 -->
<!-- Title: fuzzylite/fl/factory/CloningFactory.h Pages: 1 -->
<svg width="190pt" height="222pt"
 viewBox="0.00 0.00 190.10 222.00" xmlns="http://www.w3.org/2000/svg" xmlns:xlink="http://www.w3.org/1999/xlink">
<g id="graph0" class="graph" transform="scale(1 1) rotate(0) translate(4 218)">
<title>fuzzylite/fl/factory/CloningFactory.h</title>
<polygon fill="white" stroke="none" points="-4,4 -4,-218 186.098,-218 186.098,4 -4,4"/>
<!-- Node14 -->
<g id="node1" class="node"><title>Node14</title>
<polygon fill="#bfbfbf" stroke="black" points="79.8735,-185.5 79.8735,-213.5 173.505,-213.5 173.505,-185.5 79.8735,-185.5"/>
<text text-anchor="start" x="87.8735" y="-201.5" font-family="Helvetica,sans-Serif" font-size="10.00">fuzzylite/fl/factory</text>
<text text-anchor="middle" x="126.689" y="-191.5" font-family="Helvetica,sans-Serif" font-size="10.00">/CloningFactory.h</text>
</g>
<!-- Node15 -->
<g id="node2" class="node"><title>Node15</title>
<g id="a_node2"><a xlink:href="../../d0/d6a/_function_factory_8h.html" target="_top" xlink:title="fuzzylite/fl/factory\l/FunctionFactory.h">
<polygon fill="white" stroke="black" points="39.6519,-120.5 39.6519,-148.5 137.727,-148.5 137.727,-120.5 39.6519,-120.5"/>
<text text-anchor="start" x="47.6519" y="-136.5" font-family="Helvetica,sans-Serif" font-size="10.00">fuzzylite/fl/factory</text>
<text text-anchor="middle" x="88.6895" y="-126.5" font-family="Helvetica,sans-Serif" font-size="10.00">/FunctionFactory.h</text>
</a>
</g>
</g>
<!-- Node14&#45;&gt;Node15 -->
<g id="edge1" class="edge"><title>Node14&#45;&gt;Node15</title>
<path fill="none" stroke="midnightblue" d="M113.503,-176.638C107.852,-167.269 101.442,-156.643 96.553,-148.537"/>
<polygon fill="midnightblue" stroke="midnightblue" points="110.654,-178.691 118.816,-185.446 116.648,-175.076 110.654,-178.691"/>
</g>
<!-- Node17 -->
<g id="node4" class="node"><title>Node17</title>
<g id="a_node4"><a xlink:href="../../db/d5f/_headers_8h.html" target="_top" xlink:title="fuzzylite/fl/Headers.h">
<polygon fill="white" stroke="black" points="73.2808,-0.5 73.2808,-18.5 182.098,-18.5 182.098,-0.5 73.2808,-0.5"/>
<text text-anchor="middle" x="127.689" y="-6.5" font-family="Helvetica,sans-Serif" font-size="10.00">fuzzylite/fl/Headers.h</text>
</a>
</g>
</g>
<!-- Node14&#45;&gt;Node17 -->
<g id="edge5" class="edge"><title>Node14&#45;&gt;Node17</title>
<path fill="none" stroke="midnightblue" d="M137.847,-176.13C141.417,-167.824 144.904,-158.185 146.689,-149 156.23,-99.9217 138.113,-40.147 130.672,-18.6697"/>
<polygon fill="midnightblue" stroke="midnightblue" points="134.546,-174.931 133.561,-185.48 140.91,-177.848 134.546,-174.931"/>
</g>
<!-- Node16 -->
<g id="node3" class="node"><title>Node16</title>
<g id="a_node3"><a xlink:href="../../d8/d89/_factory_manager_8h.html" target="_top" xlink:title="fuzzylite/fl/factory\l/FactoryManager.h">
<polygon fill="white" stroke="black" points="0,-55.5 0,-83.5 99.3789,-83.5 99.3789,-55.5 0,-55.5"/>
<text text-anchor="start" x="8" y="-71.5" font-family="Helvetica,sans-Serif" font-size="10.00">fuzzylite/fl/factory</text>
<text text-anchor="middle" x="49.6895" y="-61.5" font-family="Helvetica,sans-Serif" font-size="10.00">/FactoryManager.h</text>
</a>
</g>
</g>
<!-- Node15&#45;&gt;Node16 -->
<g id="edge2" class="edge"><title>Node15&#45;&gt;Node16</title>
<path fill="none" stroke="midnightblue" d="M75.3366,-111.93C69.4935,-102.491 62.8301,-91.7272 57.7599,-83.5369"/>
<polygon fill="midnightblue" stroke="midnightblue" points="72.3691,-113.786 80.6086,-120.446 78.321,-110.101 72.3691,-113.786"/>
</g>
<!-- Node15&#45;&gt;Node17 -->
<g id="edge4" class="edge"><title>Node15&#45;&gt;Node17</title>
<path fill="none" stroke="midnightblue" d="M98.5877,-110.801C102.03,-102.462 105.76,-92.8865 108.689,-84 116.365,-60.7182 122.917,-32.4676 125.926,-18.7588"/>
<polygon fill="midnightblue" stroke="midnightblue" points="95.2717,-109.657 94.6037,-120.231 101.72,-112.381 95.2717,-109.657"/>
</g>
<!-- Node16&#45;&gt;Node17 -->
<g id="edge3" class="edge"><title>Node16&#45;&gt;Node17</title>
<path fill="none" stroke="midnightblue" d="M75.6469,-49.1983C89.547,-38.8623 105.945,-26.6687 116.566,-18.7715"/>
<polygon fill="midnightblue" stroke="midnightblue" points="73.325,-46.5632 67.3889,-55.3389 77.502,-52.1805 73.325,-46.5632"/>
</g>
</g>
</svg>
