<?xml version="1.0" encoding="UTF-8" standalone="no"?>
<!DOCTYPE svg PUBLIC "-//W3C//DTD SVG 1.1//EN"
 "http://www.w3.org/Graphics/SVG/1.1/DTD/svg11.dtd">
<!-- Generated by graphviz version 2.38.0 (20140413.2041)
 -->
<!-- Title: fuzzylite/fl/hedge/HedgeFunction.h Pages: 1 -->
<svg width="851pt" height="477pt"
 viewBox="0.00 0.00 850.89 477.00" xmlns="http://www.w3.org/2000/svg" xmlns:xlink="http://www.w3.org/1999/xlink">
<g id="graph0" class="graph" transform="scale(1 1) rotate(0) translate(4 473)">
<title>fuzzylite/fl/hedge/HedgeFunction.h</title>
<polygon fill="white" stroke="none" points="-4,4 -4,-473 846.885,-473 846.885,4 -4,4"/>
<!-- Node0 -->
<g id="node1" class="node"><title>Node0</title>
<polygon fill="#bfbfbf" stroke="black" points="243.415,-440.5 243.415,-468.5 338.355,-468.5 338.355,-440.5 243.415,-440.5"/>
<text text-anchor="start" x="251.415" y="-456.5" font-family="Helvetica,sans-Serif" font-size="10.00">fuzzylite/fl/hedge</text>
<text text-anchor="middle" x="290.885" y="-446.5" font-family="Helvetica,sans-Serif" font-size="10.00">/HedgeFunction.h</text>
</g>
<!-- Node1 -->
<g id="node2" class="node"><title>Node1</title>
<g id="a_node2"><a xlink:href="../../d2/dd9/_hedge_8h.html" target="_top" xlink:title="fl/hedge/Hedge.h">
<polygon fill="white" stroke="black" points="154.799,-165.5 154.799,-183.5 246.971,-183.5 246.971,-165.5 154.799,-165.5"/>
<text text-anchor="middle" x="200.885" y="-171.5" font-family="Helvetica,sans-Serif" font-size="10.00">fl/hedge/Hedge.h</text>
</a>
</g>
</g>
<!-- Node0&#45;&gt;Node1 -->
<g id="edge1" class="edge"><title>Node0&#45;&gt;Node1</title>
<path fill="none" stroke="midnightblue" d="M276.797,-440.136C244.847,-408.73 167.521,-326.267 139.885,-239 137.336,-230.95 136.059,-227.528 139.885,-220 146.864,-206.271 160.284,-195.771 172.764,-188.428"/>
<polygon fill="midnightblue" stroke="midnightblue" points="174.464,-191.487 181.58,-183.637 171.122,-185.337 174.464,-191.487"/>
</g>
<!-- Node13 -->
<g id="node14" class="node"><title>Node13</title>
<g id="a_node14"><a xlink:href="../../df/dc1/_function_8h.html" target="_top" xlink:title="fl/term/Function.h">
<polygon fill="white" stroke="black" points="521.26,-385.5 521.26,-403.5 614.511,-403.5 614.511,-385.5 521.26,-385.5"/>
<text text-anchor="middle" x="567.885" y="-391.5" font-family="Helvetica,sans-Serif" font-size="10.00">fl/term/Function.h</text>
</a>
</g>
</g>
<!-- Node0&#45;&gt;Node13 -->
<g id="edge14" class="edge"><title>Node0&#45;&gt;Node13</title>
<path fill="none" stroke="midnightblue" d="M338.503,-443.529C389.008,-432.954 468.381,-416.335 519.265,-405.68"/>
<polygon fill="midnightblue" stroke="midnightblue" points="520.287,-409.042 529.357,-403.567 518.852,-402.191 520.287,-409.042"/>
</g>
<!-- Node2 -->
<g id="node3" class="node"><title>Node2</title>
<g id="a_node3"><a xlink:href="../../de/d53/fuzzylite_8h.html" target="_top" xlink:title="fl/fuzzylite.h">
<polygon fill="white" stroke="black" points="309.765,-55.5 309.765,-73.5 378.006,-73.5 378.006,-55.5 309.765,-55.5"/>
<text text-anchor="middle" x="343.885" y="-61.5" font-family="Helvetica,sans-Serif" font-size="10.00">fl/fuzzylite.h</text>
</a>
</g>
</g>
<!-- Node1&#45;&gt;Node2 -->
<g id="edge2" class="edge"><title>Node1&#45;&gt;Node2</title>
<path fill="none" stroke="midnightblue" d="M202.096,-165.323C204.484,-151.981 211.021,-125.469 226.885,-110 246.626,-90.7502 275.537,-79.6507 299.681,-73.3511"/>
<polygon fill="midnightblue" stroke="midnightblue" points="300.795,-76.6828 309.695,-70.9354 299.153,-69.878 300.795,-76.6828"/>
</g>
<!-- Node10 -->
<g id="node11" class="node"><title>Node10</title>
<g id="a_node11"><a xlink:href="../../d5/de4/_complexity_8h.html" target="_top" xlink:title="fl/Complexity.h">
<polygon fill="white" stroke="black" points="235.466,-110.5 235.466,-128.5 316.305,-128.5 316.305,-110.5 235.466,-110.5"/>
<text text-anchor="middle" x="275.885" y="-116.5" font-family="Helvetica,sans-Serif" font-size="10.00">fl/Complexity.h</text>
</a>
</g>
</g>
<!-- Node1&#45;&gt;Node10 -->
<g id="edge10" class="edge"><title>Node1&#45;&gt;Node10</title>
<path fill="none" stroke="midnightblue" d="M212.276,-165.45C223.84,-157.279 241.979,-144.46 255.933,-134.6"/>
<polygon fill="midnightblue" stroke="midnightblue" points="258.24,-137.255 264.387,-128.625 254.2,-131.538 258.24,-137.255"/>
</g>
<!-- Node12 -->
<g id="node13" class="node"><title>Node12</title>
<polygon fill="white" stroke="#bfbfbf" points="395.659,-110.5 395.659,-128.5 436.112,-128.5 436.112,-110.5 395.659,-110.5"/>
<text text-anchor="middle" x="415.885" y="-116.5" font-family="Helvetica,sans-Serif" font-size="10.00">string</text>
</g>
<!-- Node1&#45;&gt;Node12 -->
<g id="edge13" class="edge"><title>Node1&#45;&gt;Node12</title>
<path fill="none" stroke="midnightblue" d="M233.539,-165.45C274.928,-155.248 345.702,-137.801 385.82,-127.911"/>
<polygon fill="midnightblue" stroke="midnightblue" points="386.689,-131.302 395.56,-125.51 385.013,-124.506 386.689,-131.302"/>
</g>
<!-- Node3 -->
<g id="node4" class="node"><title>Node3</title>
<polygon fill="white" stroke="#bfbfbf" points="14.3212,-0.5 14.3212,-18.5 71.4491,-18.5 71.4491,-0.5 14.3212,-0.5"/>
<text text-anchor="middle" x="42.8851" y="-6.5" font-family="Helvetica,sans-Serif" font-size="10.00">algorithm</text>
</g>
<!-- Node2&#45;&gt;Node3 -->
<g id="edge3" class="edge"><title>Node2&#45;&gt;Node3</title>
<path fill="none" stroke="midnightblue" d="M309.65,-57.4718C253.251,-47.5411 141.155,-27.8034 81.8206,-17.3557"/>
<polygon fill="midnightblue" stroke="midnightblue" points="82.1825,-13.8657 71.7271,-15.5785 80.9686,-20.7597 82.1825,-13.8657"/>
</g>
<!-- Node4 -->
<g id="node5" class="node"><title>Node4</title>
<polygon fill="white" stroke="#bfbfbf" points="674.269,-0.5 674.269,-18.5 717.501,-18.5 717.501,-0.5 674.269,-0.5"/>
<text text-anchor="middle" x="695.885" y="-6.5" font-family="Helvetica,sans-Serif" font-size="10.00">cmath</text>
</g>
<!-- Node2&#45;&gt;Node4 -->
<g id="edge4" class="edge"><title>Node2&#45;&gt;Node4</title>
<path fill="none" stroke="midnightblue" d="M378.277,-58.3216C446.447,-48.0574 597.823,-25.2651 663.944,-15.3094"/>
<polygon fill="midnightblue" stroke="midnightblue" points="664.797,-18.7204 674.165,-13.7704 663.755,-11.7984 664.797,-18.7204"/>
</g>
<!-- Node5 -->
<g id="node6" class="node"><title>Node5</title>
<polygon fill="white" stroke="#bfbfbf" points="385.713,-0.5 385.713,-18.5 440.057,-18.5 440.057,-0.5 385.713,-0.5"/>
<text text-anchor="middle" x="412.885" y="-6.5" font-family="Helvetica,sans-Serif" font-size="10.00">iostream</text>
</g>
<!-- Node2&#45;&gt;Node5 -->
<g id="edge5" class="edge"><title>Node2&#45;&gt;Node5</title>
<path fill="none" stroke="midnightblue" d="M354.365,-55.4504C364.902,-47.3566 381.374,-34.7042 394.161,-24.8822"/>
<polygon fill="midnightblue" stroke="midnightblue" points="396.508,-27.4926 402.307,-18.6253 392.244,-21.9412 396.508,-27.4926"/>
</g>
<!-- Node6 -->
<g id="node7" class="node"><title>Node6</title>
<polygon fill="white" stroke="#bfbfbf" points="458.104,-0.5 458.104,-18.5 509.666,-18.5 509.666,-0.5 458.104,-0.5"/>
<text text-anchor="middle" x="483.885" y="-6.5" font-family="Helvetica,sans-Serif" font-size="10.00">sstream</text>
</g>
<!-- Node2&#45;&gt;Node6 -->
<g id="edge6" class="edge"><title>Node2&#45;&gt;Node6</title>
<path fill="none" stroke="midnightblue" d="M365.148,-55.4504C388.481,-46.6173 426.156,-32.3546 452.802,-22.267"/>
<polygon fill="midnightblue" stroke="midnightblue" points="454.309,-25.4392 462.422,-18.6253 451.831,-18.8926 454.309,-25.4392"/>
</g>
<!-- Node7 -->
<g id="node8" class="node"><title>Node7</title>
<polygon fill="white" stroke="#bfbfbf" points="193.498,-0.5 193.498,-18.5 232.272,-18.5 232.272,-0.5 193.498,-0.5"/>
<text text-anchor="middle" x="212.885" y="-6.5" font-family="Helvetica,sans-Serif" font-size="10.00">limits</text>
</g>
<!-- Node2&#45;&gt;Node7 -->
<g id="edge7" class="edge"><title>Node2&#45;&gt;Node7</title>
<path fill="none" stroke="midnightblue" d="M323.989,-55.4504C302.126,-46.6051 266.806,-32.3151 241.866,-22.2252"/>
<polygon fill="midnightblue" stroke="midnightblue" points="243.122,-18.9577 232.539,-18.4517 240.497,-25.4467 243.122,-18.9577"/>
</g>
<!-- Node8 -->
<g id="node9" class="node"><title>Node8</title>
<polygon fill="white" stroke="#bfbfbf" points="249.828,-0.5 249.828,-18.5 301.942,-18.5 301.942,-0.5 249.828,-0.5"/>
<text text-anchor="middle" x="275.885" y="-6.5" font-family="Helvetica,sans-Serif" font-size="10.00">memory</text>
</g>
<!-- Node2&#45;&gt;Node8 -->
<g id="edge8" class="edge"><title>Node2&#45;&gt;Node8</title>
<path fill="none" stroke="midnightblue" d="M333.557,-55.4504C323.173,-47.3566 306.94,-34.7042 294.338,-24.8822"/>
<polygon fill="midnightblue" stroke="midnightblue" points="296.349,-22.0122 286.31,-18.6253 292.046,-27.5333 296.349,-22.0122"/>
</g>
<!-- Node9 -->
<g id="node10" class="node"><title>Node9</title>
<polygon fill="white" stroke="#bfbfbf" points="319.765,-0.5 319.765,-18.5 368.006,-18.5 368.006,-0.5 319.765,-0.5"/>
<text text-anchor="middle" x="343.885" y="-6.5" font-family="Helvetica,sans-Serif" font-size="10.00">cstddef</text>
</g>
<!-- Node2&#45;&gt;Node9 -->
<g id="edge9" class="edge"><title>Node2&#45;&gt;Node9</title>
<path fill="none" stroke="midnightblue" d="M343.885,-55.2188C343.885,-48.1769 343.885,-37.8083 343.885,-28.8277"/>
<polygon fill="midnightblue" stroke="midnightblue" points="347.385,-28.5495 343.885,-18.5496 340.385,-28.5496 347.385,-28.5495"/>
</g>
<!-- Node10&#45;&gt;Node2 -->
<g id="edge11" class="edge"><title>Node10&#45;&gt;Node2</title>
<path fill="none" stroke="midnightblue" d="M286.213,-110.45C296.597,-102.357 312.831,-89.7042 325.433,-79.8822"/>
<polygon fill="midnightblue" stroke="midnightblue" points="327.725,-82.5333 333.46,-73.6253 323.421,-77.0122 327.725,-82.5333"/>
</g>
<!-- Node11 -->
<g id="node12" class="node"><title>Node11</title>
<polygon fill="white" stroke="#bfbfbf" points="11.2694,-55.5 11.2694,-73.5 54.5009,-73.5 54.5009,-55.5 11.2694,-55.5"/>
<text text-anchor="middle" x="32.8851" y="-61.5" font-family="Helvetica,sans-Serif" font-size="10.00">vector</text>
</g>
<!-- Node10&#45;&gt;Node11 -->
<g id="edge12" class="edge"><title>Node10&#45;&gt;Node11</title>
<path fill="none" stroke="midnightblue" d="M238.979,-110.45C191.41,-100.075 109.498,-82.2098 64.5995,-72.4171"/>
<polygon fill="midnightblue" stroke="midnightblue" points="65.0677,-68.937 54.5516,-70.2256 63.576,-75.7763 65.0677,-68.937"/>
</g>
<!-- Node13&#45;&gt;Node12 -->
<g id="edge47" class="edge"><title>Node13&#45;&gt;Node12</title>
<path fill="none" stroke="midnightblue" d="M614.542,-388.643C673.36,-379.643 766.885,-354.487 766.885,-285.5 766.885,-285.5 766.885,-285.5 766.885,-228.5 766.885,-161.703 531.731,-131.898 446.373,-123.28"/>
<polygon fill="midnightblue" stroke="midnightblue" points="446.567,-119.783 436.274,-122.289 445.884,-126.749 446.567,-119.783"/>
</g>
<!-- Node14 -->
<g id="node15" class="node"><title>Node14</title>
<g id="a_node15"><a xlink:href="../../d8/d11/_term_8h.html" target="_top" xlink:title="fl/term/Term.h">
<polygon fill="white" stroke="black" points="492.326,-330.5 492.326,-348.5 569.444,-348.5 569.444,-330.5 492.326,-330.5"/>
<text text-anchor="middle" x="530.885" y="-336.5" font-family="Helvetica,sans-Serif" font-size="10.00">fl/term/Term.h</text>
</a>
</g>
</g>
<!-- Node13&#45;&gt;Node14 -->
<g id="edge15" class="edge"><title>Node13&#45;&gt;Node14</title>
<path fill="none" stroke="midnightblue" d="M562.104,-385.219C556.805,-377.629 548.809,-366.175 542.236,-356.76"/>
<polygon fill="midnightblue" stroke="midnightblue" points="545.099,-354.746 536.505,-348.55 539.359,-358.753 545.099,-354.746"/>
</g>
<!-- Node25 -->
<g id="node26" class="node"><title>Node25</title>
<polygon fill="white" stroke="#bfbfbf" points="587.159,-330.5 587.159,-348.5 622.612,-348.5 622.612,-330.5 587.159,-330.5"/>
<text text-anchor="middle" x="604.885" y="-336.5" font-family="Helvetica,sans-Serif" font-size="10.00">map</text>
</g>
<!-- Node13&#45;&gt;Node25 -->
<g id="edge46" class="edge"><title>Node13&#45;&gt;Node25</title>
<path fill="none" stroke="midnightblue" d="M573.666,-385.219C578.965,-377.629 586.961,-366.175 593.534,-356.76"/>
<polygon fill="midnightblue" stroke="midnightblue" points="596.411,-358.753 599.266,-348.55 590.671,-354.746 596.411,-358.753"/>
</g>
<!-- Node14&#45;&gt;Node2 -->
<g id="edge16" class="edge"><title>Node14&#45;&gt;Node2</title>
<path fill="none" stroke="midnightblue" d="M569.561,-331.63C645.09,-317.109 804.885,-280.481 804.885,-230.5 804.885,-230.5 804.885,-230.5 804.885,-173.5 804.885,-88.5058 504.071,-70.3539 388.432,-66.516"/>
<polygon fill="midnightblue" stroke="midnightblue" points="388.262,-63.0091 378.158,-66.1968 388.045,-70.0057 388.262,-63.0091"/>
</g>
<!-- Node14&#45;&gt;Node4 -->
<g id="edge43" class="edge"><title>Node14&#45;&gt;Node4</title>
<path fill="none" stroke="midnightblue" d="M569.576,-331.257C631.399,-319.621 746.41,-297.689 754.885,-294 799.107,-274.749 842.885,-278.73 842.885,-230.5 842.885,-230.5 842.885,-230.5 842.885,-118.5 842.885,-61.6234 770.532,-31.395 727.347,-18.4184"/>
<polygon fill="midnightblue" stroke="midnightblue" points="728.152,-15.0084 717.575,-15.6252 726.228,-21.7389 728.152,-15.0084"/>
</g>
<!-- Node14&#45;&gt;Node10 -->
<g id="edge42" class="edge"><title>Node14&#45;&gt;Node10</title>
<path fill="none" stroke="midnightblue" d="M492.189,-334.391C403.4,-324.082 189.404,-293.94 146.885,-239 141.717,-232.322 141.938,-226.844 146.885,-220 176.773,-178.653 220.061,-220.325 255.885,-184 267.797,-171.922 272.624,-152.822 274.575,-138.721"/>
<polygon fill="midnightblue" stroke="midnightblue" points="278.062,-139.019 275.603,-128.714 271.099,-138.303 278.062,-139.019"/>
</g>
<!-- Node14&#45;&gt;Node11 -->
<g id="edge45" class="edge"><title>Node14&#45;&gt;Node11</title>
<path fill="none" stroke="midnightblue" d="M492.146,-336.797C430.177,-333.283 305.4,-322.957 203.885,-294 146.299,-277.574 127.623,-276.437 80.8851,-239 38.6791,-205.193 34.2137,-182.813 28.8851,-129 27.3851,-113.851 28.6593,-96.6102 30.1555,-83.9197"/>
<polygon fill="midnightblue" stroke="midnightblue" points="33.661,-84.1111 31.5188,-73.7351 26.7229,-83.1823 33.661,-84.1111"/>
</g>
<!-- Node14&#45;&gt;Node12 -->
<g id="edge44" class="edge"><title>Node14&#45;&gt;Node12</title>
<path fill="none" stroke="midnightblue" d="M552.205,-330.421C593.279,-313.504 677.191,-271.613 651.885,-220 614.449,-143.645 501.233,-125.843 446.356,-121.722"/>
<polygon fill="midnightblue" stroke="midnightblue" points="446.403,-118.218 436.198,-121.067 445.952,-125.203 446.403,-118.218"/>
</g>
<!-- Node15 -->
<g id="node16" class="node"><title>Node15</title>
<g id="a_node16"><a xlink:href="../../d6/dd6/_operation_8h.html" target="_top" xlink:title="fl/Operation.h">
<polygon fill="white" stroke="black" points="377.868,-275.5 377.868,-293.5 453.902,-293.5 453.902,-275.5 377.868,-275.5"/>
<text text-anchor="middle" x="415.885" y="-281.5" font-family="Helvetica,sans-Serif" font-size="10.00">fl/Operation.h</text>
</a>
</g>
</g>
<!-- Node14&#45;&gt;Node15 -->
<g id="edge17" class="edge"><title>Node14&#45;&gt;Node15</title>
<path fill="none" stroke="midnightblue" d="M513.419,-330.45C494.675,-321.812 464.663,-307.98 442.877,-297.94"/>
<polygon fill="midnightblue" stroke="midnightblue" points="444.062,-294.632 433.516,-293.625 441.132,-300.99 444.062,-294.632"/>
</g>
<!-- Node15&#45;&gt;Node2 -->
<g id="edge18" class="edge"><title>Node15&#45;&gt;Node2</title>
<path fill="none" stroke="midnightblue" d="M454.106,-282.008C514.377,-278.762 627.203,-268.771 651.885,-239 657.275,-232.499 655.603,-227.582 651.885,-220 602.687,-119.656 461.277,-83.4876 388.435,-71.2671"/>
<polygon fill="midnightblue" stroke="midnightblue" points="388.632,-67.7542 378.205,-69.6331 387.528,-74.6666 388.632,-67.7542"/>
</g>
<!-- Node15&#45;&gt;Node3 -->
<g id="edge38" class="edge"><title>Node15&#45;&gt;Node3</title>
<path fill="none" stroke="midnightblue" d="M377.769,-282.125C300.929,-278.764 130.524,-268.16 80.8851,-239 10.781,-197.818 15.3448,-154.184 1.88513,-74 0.487198,-65.6721 -1.18616,-62.8661 1.88513,-55 6.4019,-43.4317 15.4904,-33.058 23.965,-25.2426"/>
<polygon fill="midnightblue" stroke="midnightblue" points="26.4225,-27.7457 31.7328,-18.5778 21.8643,-22.4332 26.4225,-27.7457"/>
</g>
<!-- Node15&#45;&gt;Node11 -->
<g id="edge25" class="edge"><title>Node15&#45;&gt;Node11</title>
<path fill="none" stroke="midnightblue" d="M377.693,-283.734C320.122,-282.78 208.718,-275.787 122.885,-239 86.1968,-223.276 72.2478,-218.331 51.8851,-184 33.1663,-152.44 31.2102,-108.223 31.8124,-83.6981"/>
<polygon fill="midnightblue" stroke="midnightblue" points="35.3113,-83.7947 32.2345,-73.6564 28.3175,-83.5006 35.3113,-83.7947"/>
</g>
<!-- Node15&#45;&gt;Node12 -->
<g id="edge24" class="edge"><title>Node15&#45;&gt;Node12</title>
<path fill="none" stroke="midnightblue" d="M415.885,-275.193C415.885,-250.013 415.885,-174.114 415.885,-138.862"/>
<polygon fill="midnightblue" stroke="midnightblue" points="419.385,-138.597 415.885,-128.597 412.385,-138.597 419.385,-138.597"/>
</g>
<!-- Node16 -->
<g id="node17" class="node"><title>Node16</title>
<g id="a_node17"><a xlink:href="../../df/d98/_exception_8h.html" target="_top" xlink:title="fl/Exception.h">
<polygon fill="white" stroke="black" points="60.868,-165.5 60.868,-183.5 136.902,-183.5 136.902,-165.5 60.868,-165.5"/>
<text text-anchor="middle" x="98.8851" y="-171.5" font-family="Helvetica,sans-Serif" font-size="10.00">fl/Exception.h</text>
</a>
</g>
</g>
<!-- Node15&#45;&gt;Node16 -->
<g id="edge19" class="edge"><title>Node15&#45;&gt;Node16</title>
<path fill="none" stroke="midnightblue" d="M377.863,-280.685C313.205,-275.333 185.116,-262.111 146.885,-239 128.82,-228.079 115.224,-207.583 107.195,-192.827"/>
<polygon fill="midnightblue" stroke="midnightblue" points="110.207,-191.028 102.54,-183.716 103.973,-194.213 110.207,-191.028"/>
</g>
<!-- Node18 -->
<g id="node19" class="node"><title>Node18</title>
<g id="a_node19"><a xlink:href="../../d7/d8a/_defuzzifier_8h.html" target="_top" xlink:title="fl/defuzzifier/Defuzzifier.h">
<polygon fill="white" stroke="black" points="444.304,-165.5 444.304,-183.5 571.466,-183.5 571.466,-165.5 444.304,-165.5"/>
<text text-anchor="middle" x="507.885" y="-171.5" font-family="Helvetica,sans-Serif" font-size="10.00">fl/defuzzifier/Defuzzifier.h</text>
</a>
</g>
</g>
<!-- Node15&#45;&gt;Node18 -->
<g id="edge26" class="edge"><title>Node15&#45;&gt;Node18</title>
<path fill="none" stroke="midnightblue" d="M453.964,-281.354C510.294,-277.293 611.593,-266.303 633.885,-239 656.188,-211.684 613.563,-195.01 571.98,-185.646"/>
<polygon fill="midnightblue" stroke="midnightblue" points="572.542,-182.188 562.033,-183.534 571.088,-189.035 572.542,-182.188"/>
</g>
<!-- Node19 -->
<g id="node20" class="node"><title>Node19</title>
<g id="a_node20"><a xlink:href="../../d7/d72/_norm_8h.html" target="_top" xlink:title="fl/norm/Norm.h">
<polygon fill="white" stroke="black" points="302.824,-165.5 302.824,-183.5 384.947,-183.5 384.947,-165.5 302.824,-165.5"/>
<text text-anchor="middle" x="343.885" y="-171.5" font-family="Helvetica,sans-Serif" font-size="10.00">fl/norm/Norm.h</text>
</a>
</g>
</g>
<!-- Node15&#45;&gt;Node19 -->
<g id="edge30" class="edge"><title>Node15&#45;&gt;Node19</title>
<path fill="none" stroke="midnightblue" d="M377.815,-281.216C348.724,-277.235 310.405,-266.67 290.885,-239 278.036,-220.786 300.255,-201.314 319.739,-188.806"/>
<polygon fill="midnightblue" stroke="midnightblue" points="321.626,-191.755 328.363,-183.578 317.997,-185.769 321.626,-191.755"/>
</g>
<!-- Node20 -->
<g id="node21" class="node"><title>Node20</title>
<g id="a_node21"><a xlink:href="../../de/d44/_s_norm_8h.html" target="_top" xlink:title="fl/norm/SNorm.h">
<polygon fill="white" stroke="black" points="299.489,-220.5 299.489,-238.5 388.282,-238.5 388.282,-220.5 299.489,-220.5"/>
<text text-anchor="middle" x="343.885" y="-226.5" font-family="Helvetica,sans-Serif" font-size="10.00">fl/norm/SNorm.h</text>
</a>
</g>
</g>
<!-- Node15&#45;&gt;Node20 -->
<g id="edge34" class="edge"><title>Node15&#45;&gt;Node20</title>
<path fill="none" stroke="midnightblue" d="M404.95,-275.45C393.849,-267.279 376.435,-254.46 363.039,-244.6"/>
<polygon fill="midnightblue" stroke="midnightblue" points="365.052,-241.735 354.923,-238.625 360.902,-247.372 365.052,-241.735"/>
</g>
<!-- Node21 -->
<g id="node22" class="node"><title>Node21</title>
<g id="a_node22"><a xlink:href="../../d0/d24/_t_norm_8h.html" target="_top" xlink:title="fl/norm/TNorm.h">
<polygon fill="white" stroke="black" points="155.769,-220.5 155.769,-238.5 244.001,-238.5 244.001,-220.5 155.769,-220.5"/>
<text text-anchor="middle" x="199.885" y="-226.5" font-family="Helvetica,sans-Serif" font-size="10.00">fl/norm/TNorm.h</text>
</a>
</g>
</g>
<!-- Node15&#45;&gt;Node21 -->
<g id="edge36" class="edge"><title>Node15&#45;&gt;Node21</title>
<path fill="none" stroke="midnightblue" d="M383.079,-275.45C345.465,-266.221 283.691,-251.063 242.413,-240.935"/>
<polygon fill="midnightblue" stroke="midnightblue" points="243.191,-237.522 232.645,-238.538 241.523,-244.321 243.191,-237.522"/>
</g>
<!-- Node22 -->
<g id="node23" class="node"><title>Node22</title>
<polygon fill="white" stroke="#bfbfbf" points="444.375,-220.5 444.375,-238.5 495.395,-238.5 495.395,-220.5 444.375,-220.5"/>
<text text-anchor="middle" x="469.885" y="-226.5" font-family="Helvetica,sans-Serif" font-size="10.00">iomanip</text>
</g>
<!-- Node15&#45;&gt;Node22 -->
<g id="edge39" class="edge"><title>Node15&#45;&gt;Node22</title>
<path fill="none" stroke="midnightblue" d="M424.323,-275.219C432.374,-267.316 444.695,-255.224 454.494,-245.606"/>
<polygon fill="midnightblue" stroke="midnightblue" points="456.998,-248.052 461.684,-238.55 452.095,-243.056 456.998,-248.052"/>
</g>
<!-- Node23 -->
<g id="node24" class="node"><title>Node23</title>
<polygon fill="white" stroke="#bfbfbf" points="513.489,-220.5 513.489,-238.5 562.282,-238.5 562.282,-220.5 513.489,-220.5"/>
<text text-anchor="middle" x="537.885" y="-226.5" font-family="Helvetica,sans-Serif" font-size="10.00">cstdarg</text>
</g>
<!-- Node15&#45;&gt;Node23 -->
<g id="edge40" class="edge"><title>Node15&#45;&gt;Node23</title>
<path fill="none" stroke="midnightblue" d="M434.414,-275.45C454.478,-266.734 486.713,-252.731 509.873,-242.669"/>
<polygon fill="midnightblue" stroke="midnightblue" points="511.404,-245.82 519.182,-238.625 508.615,-239.4 511.404,-245.82"/>
</g>
<!-- Node24 -->
<g id="node25" class="node"><title>Node24</title>
<polygon fill="white" stroke="#bfbfbf" points="580.434,-220.5 580.434,-238.5 625.336,-238.5 625.336,-220.5 580.434,-220.5"/>
<text text-anchor="middle" x="602.885" y="-226.5" font-family="Helvetica,sans-Serif" font-size="10.00">cctype</text>
</g>
<!-- Node15&#45;&gt;Node24 -->
<g id="edge41" class="edge"><title>Node15&#45;&gt;Node24</title>
<path fill="none" stroke="midnightblue" d="M444.286,-275.45C478.229,-265.83 534.894,-249.77 570.506,-239.677"/>
<polygon fill="midnightblue" stroke="midnightblue" points="571.727,-242.969 580.394,-236.875 569.818,-236.234 571.727,-242.969"/>
</g>
<!-- Node16&#45;&gt;Node2 -->
<g id="edge20" class="edge"><title>Node16&#45;&gt;Node2</title>
<path fill="none" stroke="midnightblue" d="M111.236,-165.441C131.445,-152.501 173.116,-126.836 210.885,-110 241.549,-96.331 277.765,-84.477 304.656,-76.4482"/>
<polygon fill="midnightblue" stroke="midnightblue" points="305.868,-79.7403 314.475,-73.5626 303.894,-73.0243 305.868,-79.7403"/>
</g>
<!-- Node16&#45;&gt;Node11 -->
<g id="edge23" class="edge"><title>Node16&#45;&gt;Node11</title>
<path fill="none" stroke="midnightblue" d="M93.6694,-165.333C88.0042,-156.433 78.7152,-141.758 70.8851,-129 61.246,-113.294 50.4789,-95.2529 42.8738,-82.4244"/>
<polygon fill="midnightblue" stroke="midnightblue" points="45.8495,-80.5802 37.7457,-73.7554 39.8247,-84.1442 45.8495,-80.5802"/>
</g>
<!-- Node16&#45;&gt;Node12 -->
<g id="edge22" class="edge"><title>Node16&#45;&gt;Node12</title>
<path fill="none" stroke="midnightblue" d="M137.096,-166.538C140.069,-166.012 143.025,-165.494 145.885,-165 232.676,-150.001 335.366,-133.387 385.407,-125.365"/>
<polygon fill="midnightblue" stroke="midnightblue" points="386.224,-128.779 395.545,-123.741 385.117,-121.867 386.224,-128.779"/>
</g>
<!-- Node17 -->
<g id="node18" class="node"><title>Node17</title>
<polygon fill="white" stroke="#bfbfbf" points="79.4813,-110.5 79.4813,-128.5 138.289,-128.5 138.289,-110.5 79.4813,-110.5"/>
<text text-anchor="middle" x="108.885" y="-116.5" font-family="Helvetica,sans-Serif" font-size="10.00">exception</text>
</g>
<!-- Node16&#45;&gt;Node17 -->
<g id="edge21" class="edge"><title>Node16&#45;&gt;Node17</title>
<path fill="none" stroke="midnightblue" d="M100.448,-165.219C101.791,-158.099 103.776,-147.577 105.483,-138.529"/>
<polygon fill="midnightblue" stroke="midnightblue" points="108.952,-139.025 107.366,-128.55 102.073,-137.727 108.952,-139.025"/>
</g>
<!-- Node18&#45;&gt;Node2 -->
<g id="edge27" class="edge"><title>Node18&#45;&gt;Node2</title>
<path fill="none" stroke="midnightblue" d="M501.326,-165.097C490.677,-151.909 468.433,-126.186 444.885,-110 424.394,-95.9157 398.725,-84.6759 378.393,-77.0158"/>
<polygon fill="midnightblue" stroke="midnightblue" points="379.48,-73.6869 368.887,-73.5462 377.08,-80.2626 379.48,-73.6869"/>
</g>
<!-- Node18&#45;&gt;Node10 -->
<g id="edge28" class="edge"><title>Node18&#45;&gt;Node10</title>
<path fill="none" stroke="midnightblue" d="M472.649,-165.45C432.077,-156.182 365.337,-140.935 321.001,-130.807"/>
<polygon fill="midnightblue" stroke="midnightblue" points="321.6,-127.353 311.072,-128.538 320.041,-134.178 321.6,-127.353"/>
</g>
<!-- Node18&#45;&gt;Node12 -->
<g id="edge29" class="edge"><title>Node18&#45;&gt;Node12</title>
<path fill="none" stroke="midnightblue" d="M493.912,-165.45C479.322,-157.045 456.199,-143.724 438.906,-133.762"/>
<polygon fill="midnightblue" stroke="midnightblue" points="440.402,-130.584 429.989,-128.625 436.907,-136.65 440.402,-130.584"/>
</g>
<!-- Node19&#45;&gt;Node2 -->
<g id="edge31" class="edge"><title>Node19&#45;&gt;Node2</title>
<path fill="none" stroke="midnightblue" d="M343.885,-165.382C343.885,-148.182 343.885,-107.698 343.885,-83.8866"/>
<polygon fill="midnightblue" stroke="midnightblue" points="347.385,-83.7117 343.885,-73.7118 340.385,-83.7118 347.385,-83.7117"/>
</g>
<!-- Node19&#45;&gt;Node10 -->
<g id="edge32" class="edge"><title>Node19&#45;&gt;Node10</title>
<path fill="none" stroke="midnightblue" d="M333.557,-165.45C323.173,-157.357 306.94,-144.704 294.338,-134.882"/>
<polygon fill="midnightblue" stroke="midnightblue" points="296.349,-132.012 286.31,-128.625 292.046,-137.533 296.349,-132.012"/>
</g>
<!-- Node19&#45;&gt;Node12 -->
<g id="edge33" class="edge"><title>Node19&#45;&gt;Node12</title>
<path fill="none" stroke="midnightblue" d="M354.82,-165.45C365.921,-157.279 383.335,-144.46 396.731,-134.6"/>
<polygon fill="midnightblue" stroke="midnightblue" points="398.868,-137.372 404.847,-128.625 394.719,-131.735 398.868,-137.372"/>
</g>
<!-- Node20&#45;&gt;Node19 -->
<g id="edge35" class="edge"><title>Node20&#45;&gt;Node19</title>
<path fill="none" stroke="midnightblue" d="M343.885,-220.219C343.885,-213.177 343.885,-202.808 343.885,-193.828"/>
<polygon fill="midnightblue" stroke="midnightblue" points="347.385,-193.55 343.885,-183.55 340.385,-193.55 347.385,-193.55"/>
</g>
<!-- Node21&#45;&gt;Node19 -->
<g id="edge37" class="edge"><title>Node21&#45;&gt;Node19</title>
<path fill="none" stroke="midnightblue" d="M221.756,-220.45C245.861,-211.578 284.848,-197.229 312.276,-187.134"/>
<polygon fill="midnightblue" stroke="midnightblue" points="313.633,-190.364 321.809,-183.625 311.215,-183.795 313.633,-190.364"/>
</g>
</g>
</svg>
