<?xml version="1.0" encoding="UTF-8" standalone="no"?>
<!DOCTYPE svg PUBLIC "-//W3C//DTD SVG 1.1//EN"
 "http://www.w3.org/Graphics/SVG/1.1/DTD/svg11.dtd">
<!-- Generated by graphviz version 2.38.0 (20140413.2041)
 -->
<!-- Title: fuzzylite/fl/term/Function.h Pages: 1 -->
<svg width="468pt" height="212pt"
 viewBox="0.00 0.00 467.70 212.00" xmlns="http://www.w3.org/2000/svg" xmlns:xlink="http://www.w3.org/1999/xlink">
<g id="graph0" class="graph" transform="scale(1 1) rotate(0) translate(4 208)">
<title>fuzzylite/fl/term/Function.h</title>
<polygon fill="white" stroke="none" points="-4,4 -4,-208 463.702,-208 463.702,4 -4,4"/>
<!-- Node24 -->
<g id="node1" class="node"><title>Node24</title>
<polygon fill="#bfbfbf" stroke="black" points="174.613,-185.5 174.613,-203.5 306.766,-203.5 306.766,-185.5 174.613,-185.5"/>
<text text-anchor="middle" x="240.689" y="-191.5" font-family="Helvetica,sans-Serif" font-size="10.00">fuzzylite/fl/term/Function.h</text>
</g>
<!-- Node25 -->
<g id="node2" class="node"><title>Node25</title>
<g id="a_node2"><a xlink:href="../../d0/d6a/_function_factory_8h.html" target="_top" xlink:title="fuzzylite/fl/factory\l/FunctionFactory.h">
<polygon fill="white" stroke="black" points="39.6519,-120.5 39.6519,-148.5 137.727,-148.5 137.727,-120.5 39.6519,-120.5"/>
<text text-anchor="start" x="47.6519" y="-136.5" font-family="Helvetica,sans-Serif" font-size="10.00">fuzzylite/fl/factory</text>
<text text-anchor="middle" x="88.6895" y="-126.5" font-family="Helvetica,sans-Serif" font-size="10.00">/FunctionFactory.h</text>
</a>
</g>
</g>
<!-- Node24&#45;&gt;Node25 -->
<g id="edge1" class="edge"><title>Node24&#45;&gt;Node25</title>
<path fill="none" stroke="midnightblue" d="M210.097,-181.826C184.824,-172.183 148.974,-158.503 122.783,-148.51"/>
<polygon fill="midnightblue" stroke="midnightblue" points="208.964,-185.14 219.555,-185.435 211.459,-178.6 208.964,-185.14"/>
</g>
<!-- Node27 -->
<g id="node4" class="node"><title>Node27</title>
<g id="a_node4"><a xlink:href="../../db/d5f/_headers_8h.html" target="_top" xlink:title="fuzzylite/fl/Headers.h">
<polygon fill="white" stroke="black" points="148.281,-0.5 148.281,-18.5 257.098,-18.5 257.098,-0.5 148.281,-0.5"/>
<text text-anchor="middle" x="202.689" y="-6.5" font-family="Helvetica,sans-Serif" font-size="10.00">fuzzylite/fl/Headers.h</text>
</a>
</g>
</g>
<!-- Node24&#45;&gt;Node27 -->
<g id="edge5" class="edge"><title>Node24&#45;&gt;Node27</title>
<path fill="none" stroke="midnightblue" d="M229.056,-176.982C215.311,-156.358 193.231,-119.463 184.689,-84 181.671,-71.4695 182.228,-67.6516 184.689,-55 187.268,-41.7478 193.791,-27.4478 198.234,-18.733"/>
<polygon fill="midnightblue" stroke="midnightblue" points="226.174,-178.968 234.707,-185.249 231.953,-175.018 226.174,-178.968"/>
</g>
<!-- Node28 -->
<g id="node5" class="node"><title>Node28</title>
<g id="a_node5"><a xlink:href="../../df/d8a/_hedge_function_8h.html" target="_top" xlink:title="fuzzylite/fl/hedge\l/HedgeFunction.h">
<polygon fill="white" stroke="black" points="193.219,-55.5 193.219,-83.5 288.16,-83.5 288.16,-55.5 193.219,-55.5"/>
<text text-anchor="start" x="201.219" y="-71.5" font-family="Helvetica,sans-Serif" font-size="10.00">fuzzylite/fl/hedge</text>
<text text-anchor="middle" x="240.689" y="-61.5" font-family="Helvetica,sans-Serif" font-size="10.00">/HedgeFunction.h</text>
</a>
</g>
</g>
<!-- Node24&#45;&gt;Node28 -->
<g id="edge6" class="edge"><title>Node24&#45;&gt;Node28</title>
<path fill="none" stroke="midnightblue" d="M240.689,-175.15C240.689,-150.125 240.689,-105.887 240.689,-83.8093"/>
<polygon fill="midnightblue" stroke="midnightblue" points="237.19,-175.43 240.689,-185.43 244.19,-175.43 237.19,-175.43"/>
</g>
<!-- Node29 -->
<g id="node6" class="node"><title>Node29</title>
<g id="a_node6"><a xlink:href="../../d3/d58/_s_norm_function_8h.html" target="_top" xlink:title="fuzzylite/fl/norm/s\l/SNormFunction.h">
<polygon fill="white" stroke="black" points="306.396,-55.5 306.396,-83.5 402.982,-83.5 402.982,-55.5 306.396,-55.5"/>
<text text-anchor="start" x="314.396" y="-71.5" font-family="Helvetica,sans-Serif" font-size="10.00">fuzzylite/fl/norm/s</text>
<text text-anchor="middle" x="354.689" y="-61.5" font-family="Helvetica,sans-Serif" font-size="10.00">/SNormFunction.h</text>
</a>
</g>
</g>
<!-- Node24&#45;&gt;Node29 -->
<g id="edge8" class="edge"><title>Node24&#45;&gt;Node29</title>
<path fill="none" stroke="midnightblue" d="M255.25,-177.79C277.895,-153.357 321.151,-106.686 342.354,-83.8093"/>
<polygon fill="midnightblue" stroke="midnightblue" points="252.4,-175.716 248.169,-185.43 257.534,-180.474 252.4,-175.716"/>
</g>
<!-- Node30 -->
<g id="node7" class="node"><title>Node30</title>
<g id="a_node7"><a xlink:href="../../df/d65/_t_norm_function_8h.html" target="_top" xlink:title="fuzzylite/fl/norm/t\l/TNormFunction.h">
<polygon fill="white" stroke="black" points="363.677,-120.5 363.677,-148.5 459.702,-148.5 459.702,-120.5 363.677,-120.5"/>
<text text-anchor="start" x="371.677" y="-136.5" font-family="Helvetica,sans-Serif" font-size="10.00">fuzzylite/fl/norm/t</text>
<text text-anchor="middle" x="411.689" y="-126.5" font-family="Helvetica,sans-Serif" font-size="10.00">/TNormFunction.h</text>
</a>
</g>
</g>
<!-- Node24&#45;&gt;Node30 -->
<g id="edge10" class="edge"><title>Node24&#45;&gt;Node30</title>
<path fill="none" stroke="midnightblue" d="M273.981,-182.208C302.466,-172.547 343.478,-158.636 373.334,-148.51"/>
<polygon fill="midnightblue" stroke="midnightblue" points="272.812,-178.909 264.466,-185.435 275.061,-185.538 272.812,-178.909"/>
</g>
<!-- Node26 -->
<g id="node3" class="node"><title>Node26</title>
<g id="a_node3"><a xlink:href="../../d8/d89/_factory_manager_8h.html" target="_top" xlink:title="fuzzylite/fl/factory\l/FactoryManager.h">
<polygon fill="white" stroke="black" points="0,-55.5 0,-83.5 99.3789,-83.5 99.3789,-55.5 0,-55.5"/>
<text text-anchor="start" x="8" y="-71.5" font-family="Helvetica,sans-Serif" font-size="10.00">fuzzylite/fl/factory</text>
<text text-anchor="middle" x="49.6895" y="-61.5" font-family="Helvetica,sans-Serif" font-size="10.00">/FactoryManager.h</text>
</a>
</g>
</g>
<!-- Node25&#45;&gt;Node26 -->
<g id="edge2" class="edge"><title>Node25&#45;&gt;Node26</title>
<path fill="none" stroke="midnightblue" d="M75.3366,-111.93C69.4935,-102.491 62.8301,-91.7272 57.7599,-83.5369"/>
<polygon fill="midnightblue" stroke="midnightblue" points="72.3691,-113.786 80.6086,-120.446 78.321,-110.101 72.3691,-113.786"/>
</g>
<!-- Node25&#45;&gt;Node27 -->
<g id="edge4" class="edge"><title>Node25&#45;&gt;Node27</title>
<path fill="none" stroke="midnightblue" d="M104.238,-112.092C116.441,-95.8122 134.232,-73.191 151.689,-55 164.87,-41.2652 181.792,-27.0934 192.442,-18.5378"/>
<polygon fill="midnightblue" stroke="midnightblue" points="101.212,-110.296 98.0705,-120.415 106.836,-114.464 101.212,-110.296"/>
</g>
<!-- Node26&#45;&gt;Node27 -->
<g id="edge3" class="edge"><title>Node26&#45;&gt;Node27</title>
<path fill="none" stroke="midnightblue" d="M93.4519,-51.9103C122.197,-41.0135 158.543,-27.2353 181.208,-18.6434"/>
<polygon fill="midnightblue" stroke="midnightblue" points="92.1357,-48.6662 84.0256,-55.4837 94.617,-55.2116 92.1357,-48.6662"/>
</g>
<!-- Node28&#45;&gt;Node27 -->
<g id="edge7" class="edge"><title>Node28&#45;&gt;Node27</title>
<path fill="none" stroke="midnightblue" d="M226.491,-46.829C220.082,-37.0462 212.892,-26.0727 208.109,-18.7715"/>
<polygon fill="midnightblue" stroke="midnightblue" points="223.659,-48.8924 232.067,-55.3389 229.514,-45.0562 223.659,-48.8924"/>
</g>
<!-- Node29&#45;&gt;Node27 -->
<g id="edge9" class="edge"><title>Node29&#45;&gt;Node27</title>
<path fill="none" stroke="midnightblue" d="M311.213,-51.9103C282.656,-41.0135 246.548,-27.2353 224.031,-18.6434"/>
<polygon fill="midnightblue" stroke="midnightblue" points="309.987,-55.1886 320.578,-55.4837 312.483,-48.6485 309.987,-55.1886"/>
</g>
<!-- Node30&#45;&gt;Node27 -->
<g id="edge11" class="edge"><title>Node30&#45;&gt;Node27</title>
<path fill="none" stroke="midnightblue" d="M418.708,-110.659C422.473,-93.4787 424.116,-70.3513 411.689,-55 392.579,-31.3916 312.404,-19.7782 257.103,-14.474"/>
<polygon fill="midnightblue" stroke="midnightblue" points="415.287,-109.908 416.196,-120.464 422.068,-111.645 415.287,-109.908"/>
</g>
</g>
</svg>
