<?xml version="1.0" encoding="UTF-8" standalone="no"?>
<!DOCTYPE svg PUBLIC "-//W3C//DTD SVG 1.1//EN"
 "http://www.w3.org/Graphics/SVG/1.1/DTD/svg11.dtd">
<!-- Generated by graphviz version 2.38.0 (20140413.2041)
 -->
<!-- Title: fl::WeightedDefuzzifier Pages: 1 -->
<svg width="562pt" height="435pt"
 viewBox="0.00 0.00 562.23 435.00" xmlns="http://www.w3.org/2000/svg" xmlns:xlink="http://www.w3.org/1999/xlink">
<g id="graph0" class="graph" transform="scale(1 1) rotate(0) translate(4 431)">
<title>fl::WeightedDefuzzifier</title>
<polygon fill="white" stroke="none" points="-4,4 -4,-431 558.231,-431 558.231,4 -4,4"/>
<!-- Node0 -->
<g id="node1" class="node"><title>Node0</title>
<polygon fill="#bfbfbf" stroke="black" points="216.917,-161.5 216.917,-285.5 343.342,-285.5 343.342,-161.5 216.917,-161.5"/>
<text text-anchor="middle" x="280.129" y="-273.5" font-family="Helvetica,sans-Serif" font-size="10.00">fl::WeightedDefuzzifier</text>
<polyline fill="none" stroke="black" points="216.917,-267.5 343.342,-267.5 "/>
<text text-anchor="middle" x="280.129" y="-255.5" font-family="Helvetica,sans-Serif" font-size="10.00"> </text>
<polyline fill="none" stroke="black" points="216.917,-249.5 343.342,-249.5 "/>
<text text-anchor="start" x="224.917" y="-237.5" font-family="Helvetica,sans-Serif" font-size="10.00">+ WeightedDefuzzifier()</text>
<text text-anchor="start" x="224.917" y="-227.5" font-family="Helvetica,sans-Serif" font-size="10.00">+ WeightedDefuzzifier()</text>
<text text-anchor="start" x="224.917" y="-217.5" font-family="Helvetica,sans-Serif" font-size="10.00">+ ~WeightedDefuzzifier()</text>
<text text-anchor="start" x="224.917" y="-207.5" font-family="Helvetica,sans-Serif" font-size="10.00">+ setType()</text>
<text text-anchor="start" x="224.917" y="-197.5" font-family="Helvetica,sans-Serif" font-size="10.00">+ getType()</text>
<text text-anchor="start" x="224.917" y="-187.5" font-family="Helvetica,sans-Serif" font-size="10.00">+ getTypeName()</text>
<text text-anchor="start" x="224.917" y="-177.5" font-family="Helvetica,sans-Serif" font-size="10.00">+ inferType()</text>
<text text-anchor="start" x="224.917" y="-167.5" font-family="Helvetica,sans-Serif" font-size="10.00">+ typeName()</text>
</g>
<!-- Node2 -->
<g id="node3" class="node"><title>Node2</title>
<g id="a_node3"><a xlink:href="../../d7/dde/classfl_1_1_weighted_average.html" target="_top" xlink:title="The WeightedAverage class is a WeightedDefuzzifier that computes the weighted average of a fuzzy set ...">
<polygon fill="white" stroke="black" points="0,-0.5 0,-124.5 116.259,-124.5 116.259,-0.5 0,-0.5"/>
<text text-anchor="middle" x="58.1294" y="-112.5" font-family="Helvetica,sans-Serif" font-size="10.00">fl::WeightedAverage</text>
<polyline fill="none" stroke="black" points="0,-106.5 116.259,-106.5 "/>
<text text-anchor="middle" x="58.1294" y="-94.5" font-family="Helvetica,sans-Serif" font-size="10.00"> </text>
<polyline fill="none" stroke="black" points="0,-88.5 116.259,-88.5 "/>
<text text-anchor="start" x="8" y="-76.5" font-family="Helvetica,sans-Serif" font-size="10.00">+ WeightedAverage()</text>
<text text-anchor="start" x="8" y="-66.5" font-family="Helvetica,sans-Serif" font-size="10.00">+ WeightedAverage()</text>
<text text-anchor="start" x="8" y="-56.5" font-family="Helvetica,sans-Serif" font-size="10.00">+ ~WeightedAverage()</text>
<text text-anchor="start" x="8" y="-46.5" font-family="Helvetica,sans-Serif" font-size="10.00">+ className()</text>
<text text-anchor="start" x="8" y="-36.5" font-family="Helvetica,sans-Serif" font-size="10.00">+ complexity()</text>
<text text-anchor="start" x="8" y="-26.5" font-family="Helvetica,sans-Serif" font-size="10.00">+ defuzzify()</text>
<text text-anchor="start" x="8" y="-16.5" font-family="Helvetica,sans-Serif" font-size="10.00">+ clone()</text>
<text text-anchor="start" x="8" y="-6.5" font-family="Helvetica,sans-Serif" font-size="10.00">+ constructor()</text>
</a>
</g>
</g>
<!-- Node0&#45;&gt;Node2 -->
<g id="edge2" class="edge"><title>Node0&#45;&gt;Node2</title>
<path fill="none" stroke="midnightblue" d="M207.999,-180.878C181.253,-164.484 151.122,-144.845 125.129,-125 122.243,-122.796 119.334,-120.492 116.431,-118.123"/>
<polygon fill="none" stroke="midnightblue" points="206.192,-183.876 216.554,-186.083 209.83,-177.896 206.192,-183.876"/>
</g>
<!-- Node3 -->
<g id="node4" class="node"><title>Node3</title>
<g id="a_node4"><a xlink:href="../../d9/da1/classfl_1_1_weighted_average_custom.html" target="_top" xlink:title="The (experimental) WeightedAverageCustom class is a WeightedDefuzzifier that computes the weighted av...">
<polygon fill="white" stroke="black" points="133.773,-0.5 133.773,-124.5 284.485,-124.5 284.485,-0.5 133.773,-0.5"/>
<text text-anchor="middle" x="209.129" y="-112.5" font-family="Helvetica,sans-Serif" font-size="10.00">fl::WeightedAverageCustom</text>
<polyline fill="none" stroke="black" points="133.773,-106.5 284.485,-106.5 "/>
<text text-anchor="middle" x="209.129" y="-94.5" font-family="Helvetica,sans-Serif" font-size="10.00"> </text>
<polyline fill="none" stroke="black" points="133.773,-88.5 284.485,-88.5 "/>
<text text-anchor="start" x="141.773" y="-76.5" font-family="Helvetica,sans-Serif" font-size="10.00">+ WeightedAverageCustom()</text>
<text text-anchor="start" x="141.773" y="-66.5" font-family="Helvetica,sans-Serif" font-size="10.00">+ WeightedAverageCustom()</text>
<text text-anchor="start" x="141.773" y="-56.5" font-family="Helvetica,sans-Serif" font-size="10.00">+ ~WeightedAverageCustom()</text>
<text text-anchor="start" x="141.773" y="-46.5" font-family="Helvetica,sans-Serif" font-size="10.00">+ className()</text>
<text text-anchor="start" x="141.773" y="-36.5" font-family="Helvetica,sans-Serif" font-size="10.00">+ complexity()</text>
<text text-anchor="start" x="141.773" y="-26.5" font-family="Helvetica,sans-Serif" font-size="10.00">+ defuzzify()</text>
<text text-anchor="start" x="141.773" y="-16.5" font-family="Helvetica,sans-Serif" font-size="10.00">+ clone()</text>
<text text-anchor="start" x="141.773" y="-6.5" font-family="Helvetica,sans-Serif" font-size="10.00">+ constructor()</text>
</a>
</g>
</g>
<!-- Node0&#45;&gt;Node3 -->
<g id="edge3" class="edge"><title>Node0&#45;&gt;Node3</title>
<path fill="none" stroke="midnightblue" d="M248.792,-152.323C244.669,-143.089 240.47,-133.685 236.421,-124.618"/>
<polygon fill="none" stroke="midnightblue" points="245.609,-153.777 252.882,-161.481 252,-150.923 245.609,-153.777"/>
</g>
<!-- Node4 -->
<g id="node5" class="node"><title>Node4</title>
<g id="a_node5"><a xlink:href="../../d0/dbb/classfl_1_1_weighted_sum.html" target="_top" xlink:title="The WeightedSum class is a WeightedDefuzzifier that computes the weighted sum of a fuzzy set represen...">
<polygon fill="white" stroke="black" points="302.254,-0.5 302.254,-124.5 402.004,-124.5 402.004,-0.5 302.254,-0.5"/>
<text text-anchor="middle" x="352.129" y="-112.5" font-family="Helvetica,sans-Serif" font-size="10.00">fl::WeightedSum</text>
<polyline fill="none" stroke="black" points="302.254,-106.5 402.004,-106.5 "/>
<text text-anchor="middle" x="352.129" y="-94.5" font-family="Helvetica,sans-Serif" font-size="10.00"> </text>
<polyline fill="none" stroke="black" points="302.254,-88.5 402.004,-88.5 "/>
<text text-anchor="start" x="310.254" y="-76.5" font-family="Helvetica,sans-Serif" font-size="10.00">+ WeightedSum()</text>
<text text-anchor="start" x="310.254" y="-66.5" font-family="Helvetica,sans-Serif" font-size="10.00">+ WeightedSum()</text>
<text text-anchor="start" x="310.254" y="-56.5" font-family="Helvetica,sans-Serif" font-size="10.00">+ ~WeightedSum()</text>
<text text-anchor="start" x="310.254" y="-46.5" font-family="Helvetica,sans-Serif" font-size="10.00">+ className()</text>
<text text-anchor="start" x="310.254" y="-36.5" font-family="Helvetica,sans-Serif" font-size="10.00">+ complexity()</text>
<text text-anchor="start" x="310.254" y="-26.5" font-family="Helvetica,sans-Serif" font-size="10.00">+ defuzzify()</text>
<text text-anchor="start" x="310.254" y="-16.5" font-family="Helvetica,sans-Serif" font-size="10.00">+ clone()</text>
<text text-anchor="start" x="310.254" y="-6.5" font-family="Helvetica,sans-Serif" font-size="10.00">+ constructor()</text>
</a>
</g>
</g>
<!-- Node0&#45;&gt;Node4 -->
<g id="edge4" class="edge"><title>Node0&#45;&gt;Node4</title>
<path fill="none" stroke="midnightblue" d="M311.908,-152.323C316.089,-143.089 320.348,-133.685 324.453,-124.618"/>
<polygon fill="none" stroke="midnightblue" points="308.697,-150.928 307.761,-161.481 315.074,-153.815 308.697,-150.928"/>
</g>
<!-- Node5 -->
<g id="node6" class="node"><title>Node5</title>
<g id="a_node6"><a xlink:href="../../d9/d53/classfl_1_1_weighted_sum_custom.html" target="_top" xlink:title="The (experimental) WeightedSumCustom class is a WeightedDefuzzifier that computes the weighted sum of...">
<polygon fill="white" stroke="black" points="420.028,-0.5 420.028,-124.5 554.231,-124.5 554.231,-0.5 420.028,-0.5"/>
<text text-anchor="middle" x="487.129" y="-112.5" font-family="Helvetica,sans-Serif" font-size="10.00">fl::WeightedSumCustom</text>
<polyline fill="none" stroke="black" points="420.028,-106.5 554.231,-106.5 "/>
<text text-anchor="middle" x="487.129" y="-94.5" font-family="Helvetica,sans-Serif" font-size="10.00"> </text>
<polyline fill="none" stroke="black" points="420.028,-88.5 554.231,-88.5 "/>
<text text-anchor="start" x="428.028" y="-76.5" font-family="Helvetica,sans-Serif" font-size="10.00">+ WeightedSumCustom()</text>
<text text-anchor="start" x="428.028" y="-66.5" font-family="Helvetica,sans-Serif" font-size="10.00">+ WeightedSumCustom()</text>
<text text-anchor="start" x="428.028" y="-56.5" font-family="Helvetica,sans-Serif" font-size="10.00">+ ~WeightedSumCustom()</text>
<text text-anchor="start" x="428.028" y="-46.5" font-family="Helvetica,sans-Serif" font-size="10.00">+ className()</text>
<text text-anchor="start" x="428.028" y="-36.5" font-family="Helvetica,sans-Serif" font-size="10.00">+ complexity()</text>
<text text-anchor="start" x="428.028" y="-26.5" font-family="Helvetica,sans-Serif" font-size="10.00">+ defuzzify()</text>
<text text-anchor="start" x="428.028" y="-16.5" font-family="Helvetica,sans-Serif" font-size="10.00">+ clone()</text>
<text text-anchor="start" x="428.028" y="-6.5" font-family="Helvetica,sans-Serif" font-size="10.00">+ constructor()</text>
</a>
</g>
</g>
<!-- Node0&#45;&gt;Node5 -->
<g id="edge5" class="edge"><title>Node0&#45;&gt;Node5</title>
<path fill="none" stroke="midnightblue" d="M351.699,-170.047C371.103,-155.605 392.023,-139.831 411.129,-125 413.945,-122.814 416.81,-120.574 419.698,-118.301"/>
<polygon fill="none" stroke="midnightblue" points="349.427,-167.375 343.486,-176.148 353.601,-172.994 349.427,-167.375"/>
</g>
<!-- Node1 -->
<g id="node2" class="node"><title>Node1</title>
<g id="a_node2"><a xlink:href="../../d3/d31/classfl_1_1_defuzzifier.html" target="_top" xlink:title="The Defuzzifier class is the abstract class for defuzzifiers. ">
<polygon fill="white" stroke="black" points="237.952,-322.5 237.952,-426.5 322.307,-426.5 322.307,-322.5 237.952,-322.5"/>
<text text-anchor="middle" x="280.129" y="-414.5" font-family="Helvetica,sans-Serif" font-size="10.00">fl::Defuzzifier</text>
<polyline fill="none" stroke="black" points="237.952,-408.5 322.307,-408.5 "/>
<text text-anchor="middle" x="280.129" y="-396.5" font-family="Helvetica,sans-Serif" font-size="10.00"> </text>
<polyline fill="none" stroke="black" points="237.952,-390.5 322.307,-390.5 "/>
<text text-anchor="start" x="245.952" y="-378.5" font-family="Helvetica,sans-Serif" font-size="10.00">+ Defuzzifier()</text>
<text text-anchor="start" x="245.952" y="-368.5" font-family="Helvetica,sans-Serif" font-size="10.00">+ ~Defuzzifier()</text>
<text text-anchor="start" x="245.952" y="-358.5" font-family="Helvetica,sans-Serif" font-size="10.00">+ className()</text>
<text text-anchor="start" x="245.952" y="-348.5" font-family="Helvetica,sans-Serif" font-size="10.00">+ clone()</text>
<text text-anchor="start" x="245.952" y="-338.5" font-family="Helvetica,sans-Serif" font-size="10.00">+ complexity()</text>
<text text-anchor="start" x="245.952" y="-328.5" font-family="Helvetica,sans-Serif" font-size="10.00">+ defuzzify()</text>
</a>
</g>
</g>
<!-- Node1&#45;&gt;Node0 -->
<g id="edge1" class="edge"><title>Node1&#45;&gt;Node0</title>
<path fill="none" stroke="midnightblue" d="M280.129,-312.104C280.129,-303.362 280.129,-294.372 280.129,-285.635"/>
<polygon fill="none" stroke="midnightblue" points="276.629,-312.223 280.129,-322.223 283.629,-312.223 276.629,-312.223"/>
</g>
</g>
</svg>
