<?xml version="1.0" encoding="UTF-8" standalone="no"?>
<!DOCTYPE svg PUBLIC "-//W3C//DTD SVG 1.1//EN"
 "http://www.w3.org/Graphics/SVG/1.1/DTD/svg11.dtd">
<!-- Generated by graphviz version 2.38.0 (20140413.2041)
 -->
<!-- Title: fuzzylite/fl/defuzzifier/IntegralDefuzzifier.h Pages: 1 -->
<svg width="906pt" height="287pt"
 viewBox="0.00 0.00 906.36 287.00" xmlns="http://www.w3.org/2000/svg" xmlns:xlink="http://www.w3.org/1999/xlink">
<g id="graph0" class="graph" transform="scale(1 1) rotate(0) translate(4 283)">
<title>fuzzylite/fl/defuzzifier/IntegralDefuzzifier.h</title>
<polygon fill="white" stroke="none" points="-4,4 -4,-283 902.364,-283 902.364,4 -4,4"/>
<!-- Node13 -->
<g id="node1" class="node"><title>Node13</title>
<polygon fill="#bfbfbf" stroke="black" points="482,-250.5 482,-278.5 590.256,-278.5 590.256,-250.5 482,-250.5"/>
<text text-anchor="start" x="490" y="-266.5" font-family="Helvetica,sans-Serif" font-size="10.00">fuzzylite/fl/defuzzifier</text>
<text text-anchor="middle" x="536.128" y="-256.5" font-family="Helvetica,sans-Serif" font-size="10.00">/IntegralDefuzzifier.h</text>
</g>
<!-- Node14 -->
<g id="node2" class="node"><title>Node14</title>
<g id="a_node2"><a xlink:href="../../dd/d62/_bisector_8h.html" target="_top" xlink:title="fuzzylite/fl/defuzzifier\l/Bisector.h">
<polygon fill="white" stroke="black" points="0,-120.5 0,-148.5 108.256,-148.5 108.256,-120.5 0,-120.5"/>
<text text-anchor="start" x="8" y="-136.5" font-family="Helvetica,sans-Serif" font-size="10.00">fuzzylite/fl/defuzzifier</text>
<text text-anchor="middle" x="54.1279" y="-126.5" font-family="Helvetica,sans-Serif" font-size="10.00">/Bisector.h</text>
</a>
</g>
</g>
<!-- Node13&#45;&gt;Node14 -->
<g id="edge1" class="edge"><title>Node13&#45;&gt;Node14</title>
<path fill="none" stroke="midnightblue" d="M471.742,-261.427C370.932,-257.251 181.239,-245.375 122.128,-214 93.7792,-198.953 71.9777,-166.879 61.3241,-148.731"/>
<polygon fill="midnightblue" stroke="midnightblue" points="471.673,-264.927 481.805,-261.83 471.953,-257.932 471.673,-264.927"/>
</g>
<!-- Node15 -->
<g id="node3" class="node"><title>Node15</title>
<g id="a_node3"><a xlink:href="../../db/d5f/_headers_8h.html" target="_top" xlink:title="fuzzylite/fl/Headers.h">
<polygon fill="white" stroke="black" points="388.719,-0.5 388.719,-18.5 497.537,-18.5 497.537,-0.5 388.719,-0.5"/>
<text text-anchor="middle" x="443.128" y="-6.5" font-family="Helvetica,sans-Serif" font-size="10.00">fuzzylite/fl/Headers.h</text>
</a>
</g>
</g>
<!-- Node13&#45;&gt;Node15 -->
<g id="edge21" class="edge"><title>Node13&#45;&gt;Node15</title>
<path fill="none" stroke="midnightblue" d="M471.682,-261.638C391.318,-257.93 260.315,-246.878 226.128,-214 174.751,-164.591 159.592,-109.839 205.128,-55 227.987,-27.4707 325.704,-16.8762 388.601,-12.8675"/>
<polygon fill="midnightblue" stroke="midnightblue" points="471.561,-265.135 481.704,-262.074 471.866,-258.142 471.561,-265.135"/>
</g>
<!-- Node16 -->
<g id="node4" class="node"><title>Node16</title>
<g id="a_node4"><a xlink:href="../../d4/da3/_centroid_8h.html" target="_top" xlink:title="fuzzylite/fl/defuzzifier\l/Centroid.h">
<polygon fill="white" stroke="black" points="235,-185.5 235,-213.5 343.256,-213.5 343.256,-185.5 235,-185.5"/>
<text text-anchor="start" x="243" y="-201.5" font-family="Helvetica,sans-Serif" font-size="10.00">fuzzylite/fl/defuzzifier</text>
<text text-anchor="middle" x="289.128" y="-191.5" font-family="Helvetica,sans-Serif" font-size="10.00">/Centroid.h</text>
</a>
</g>
</g>
<!-- Node13&#45;&gt;Node16 -->
<g id="edge3" class="edge"><title>Node13&#45;&gt;Node16</title>
<path fill="none" stroke="midnightblue" d="M475.235,-247.969C433.757,-237.389 379.469,-223.543 340.241,-213.537"/>
<polygon fill="midnightblue" stroke="midnightblue" points="474.395,-251.366 484.949,-250.446 476.125,-244.583 474.395,-251.366"/>
</g>
<!-- Node20 -->
<g id="node8" class="node"><title>Node20</title>
<g id="a_node8"><a xlink:href="../../d2/dd5/_largest_of_maximum_8h.html" target="_top" xlink:title="fuzzylite/fl/defuzzifier\l/LargestOfMaximum.h">
<polygon fill="white" stroke="black" points="415.946,-120.5 415.946,-148.5 530.31,-148.5 530.31,-120.5 415.946,-120.5"/>
<text text-anchor="start" x="423.946" y="-136.5" font-family="Helvetica,sans-Serif" font-size="10.00">fuzzylite/fl/defuzzifier</text>
<text text-anchor="middle" x="473.128" y="-126.5" font-family="Helvetica,sans-Serif" font-size="10.00">/LargestOfMaximum.h</text>
</a>
</g>
</g>
<!-- Node13&#45;&gt;Node20 -->
<g id="edge11" class="edge"><title>Node13&#45;&gt;Node20</title>
<path fill="none" stroke="midnightblue" d="M525.207,-241.311C512.083,-214.646 490.483,-170.761 479.692,-148.836"/>
<polygon fill="midnightblue" stroke="midnightblue" points="522.067,-242.857 529.623,-250.284 528.347,-239.766 522.067,-242.857"/>
</g>
<!-- Node21 -->
<g id="node9" class="node"><title>Node21</title>
<g id="a_node9"><a xlink:href="../../d5/dae/_mean_of_maximum_8h.html" target="_top" xlink:title="fuzzylite/fl/defuzzifier\l/MeanOfMaximum.h">
<polygon fill="white" stroke="black" points="510,-55.5 510,-83.5 618.256,-83.5 618.256,-55.5 510,-55.5"/>
<text text-anchor="start" x="518" y="-71.5" font-family="Helvetica,sans-Serif" font-size="10.00">fuzzylite/fl/defuzzifier</text>
<text text-anchor="middle" x="564.128" y="-61.5" font-family="Helvetica,sans-Serif" font-size="10.00">/MeanOfMaximum.h</text>
</a>
</g>
</g>
<!-- Node13&#45;&gt;Node21 -->
<g id="edge13" class="edge"><title>Node13&#45;&gt;Node21</title>
<path fill="none" stroke="midnightblue" d="M539.521,-240.115C545.46,-199.174 557.555,-115.807 562.227,-83.6033"/>
<polygon fill="midnightblue" stroke="midnightblue" points="536.025,-239.835 538.052,-250.234 542.952,-240.84 536.025,-239.835"/>
</g>
<!-- Node22 -->
<g id="node10" class="node"><title>Node22</title>
<g id="a_node10"><a xlink:href="../../d6/dba/_smallest_of_maximum_8h.html" target="_top" xlink:title="fuzzylite/fl/defuzzifier\l/SmallestOfMaximum.h">
<polygon fill="white" stroke="black" points="586.451,-185.5 586.451,-213.5 705.805,-213.5 705.805,-185.5 586.451,-185.5"/>
<text text-anchor="start" x="594.451" y="-201.5" font-family="Helvetica,sans-Serif" font-size="10.00">fuzzylite/fl/defuzzifier</text>
<text text-anchor="middle" x="646.128" y="-191.5" font-family="Helvetica,sans-Serif" font-size="10.00">/SmallestOfMaximum.h</text>
</a>
</g>
</g>
<!-- Node13&#45;&gt;Node22 -->
<g id="edge15" class="edge"><title>Node13&#45;&gt;Node22</title>
<path fill="none" stroke="midnightblue" d="M567.792,-245.365C585.552,-235.194 607.296,-222.74 623.365,-213.537"/>
<polygon fill="midnightblue" stroke="midnightblue" points="565.858,-242.439 558.92,-250.446 569.337,-248.514 565.858,-242.439"/>
</g>
<!-- Node23 -->
<g id="node11" class="node"><title>Node23</title>
<g id="a_node11"><a xlink:href="../../d3/d9c/_defuzzifier_factory_8h.html" target="_top" xlink:title="fuzzylite/fl/factory\l/DefuzzifierFactory.h">
<polygon fill="white" stroke="black" points="680.649,-120.5 680.649,-148.5 787.606,-148.5 787.606,-120.5 680.649,-120.5"/>
<text text-anchor="start" x="688.649" y="-136.5" font-family="Helvetica,sans-Serif" font-size="10.00">fuzzylite/fl/factory</text>
<text text-anchor="middle" x="734.128" y="-126.5" font-family="Helvetica,sans-Serif" font-size="10.00">/DefuzzifierFactory.h</text>
</a>
</g>
</g>
<!-- Node13&#45;&gt;Node23 -->
<g id="edge17" class="edge"><title>Node13&#45;&gt;Node23</title>
<path fill="none" stroke="midnightblue" d="M600.434,-261.452C638.725,-256.817 685.481,-244.621 715.128,-214 732.294,-196.27 734.837,-165.815 734.75,-148.512"/>
<polygon fill="midnightblue" stroke="midnightblue" points="599.963,-257.982 590.389,-262.521 600.704,-264.942 599.963,-257.982"/>
</g>
<!-- Node25 -->
<g id="node13" class="node"><title>Node25</title>
<g id="a_node13"><a xlink:href="../../da/de2/_discrete_8h.html" target="_top" xlink:title="fuzzylite/fl/term/Discrete.h">
<polygon fill="white" stroke="black" points="767.892,-190.5 767.892,-208.5 898.364,-208.5 898.364,-190.5 767.892,-190.5"/>
<text text-anchor="middle" x="833.128" y="-196.5" font-family="Helvetica,sans-Serif" font-size="10.00">fuzzylite/fl/term/Discrete.h</text>
</a>
</g>
</g>
<!-- Node13&#45;&gt;Node25 -->
<g id="edge22" class="edge"><title>Node13&#45;&gt;Node25</title>
<path fill="none" stroke="midnightblue" d="M600.298,-249.888C659.787,-237.269 746.284,-218.922 795.378,-208.508"/>
<polygon fill="midnightblue" stroke="midnightblue" points="599.313,-246.519 590.257,-252.018 600.766,-253.367 599.313,-246.519"/>
</g>
<!-- Node14&#45;&gt;Node15 -->
<g id="edge2" class="edge"><title>Node14&#45;&gt;Node15</title>
<path fill="none" stroke="midnightblue" d="M66.6881,-111.733C78.5151,-93.3891 97.9982,-68.0992 122.128,-55 166.938,-30.6739 309.206,-18.4872 388.467,-13.4444"/>
<polygon fill="midnightblue" stroke="midnightblue" points="63.6464,-109.997 61.3638,-120.343 69.6,-113.678 63.6464,-109.997"/>
</g>
<!-- Node16&#45;&gt;Node15 -->
<g id="edge4" class="edge"><title>Node16&#45;&gt;Node15</title>
<path fill="none" stroke="midnightblue" d="M258.868,-179.494C248.42,-171.383 237.7,-161.002 231.128,-149 210.972,-112.188 195.541,-87.4736 222.128,-55 242.768,-29.7891 330.045,-18.5482 388.547,-13.7698"/>
<polygon fill="midnightblue" stroke="midnightblue" points="256.962,-182.435 267.104,-185.5 261.087,-176.78 256.962,-182.435"/>
</g>
<!-- Node17 -->
<g id="node5" class="node"><title>Node17</title>
<g id="a_node5"><a xlink:href="../../d4/d25/_variable_8h.html" target="_top" xlink:title="fuzzylite/fl/variable\l/Variable.h">
<polygon fill="white" stroke="black" points="240.278,-120.5 240.278,-148.5 337.978,-148.5 337.978,-120.5 240.278,-120.5"/>
<text text-anchor="start" x="248.278" y="-136.5" font-family="Helvetica,sans-Serif" font-size="10.00">fuzzylite/fl/variable</text>
<text text-anchor="middle" x="289.128" y="-126.5" font-family="Helvetica,sans-Serif" font-size="10.00">/Variable.h</text>
</a>
</g>
</g>
<!-- Node16&#45;&gt;Node17 -->
<g id="edge5" class="edge"><title>Node16&#45;&gt;Node17</title>
<path fill="none" stroke="midnightblue" d="M289.128,-175.164C289.128,-166.169 289.128,-156.221 289.128,-148.537"/>
<polygon fill="midnightblue" stroke="midnightblue" points="285.628,-175.446 289.128,-185.446 292.628,-175.446 285.628,-175.446"/>
</g>
<!-- Node17&#45;&gt;Node15 -->
<g id="edge6" class="edge"><title>Node17&#45;&gt;Node15</title>
<path fill="none" stroke="midnightblue" d="M259.324,-114.444C237.797,-98.3165 215.099,-74.7429 231.128,-55 250.625,-30.9858 332.601,-19.4593 388.711,-14.2874"/>
<polygon fill="midnightblue" stroke="midnightblue" points="257.568,-117.49 267.742,-120.447 261.632,-111.791 257.568,-117.49"/>
</g>
<!-- Node18 -->
<g id="node6" class="node"><title>Node18</title>
<g id="a_node6"><a xlink:href="../../d8/dd7/_input_variable_8h.html" target="_top" xlink:title="fuzzylite/fl/variable\l/InputVariable.h">
<polygon fill="white" stroke="black" points="240.278,-55.5 240.278,-83.5 337.978,-83.5 337.978,-55.5 240.278,-55.5"/>
<text text-anchor="start" x="248.278" y="-71.5" font-family="Helvetica,sans-Serif" font-size="10.00">fuzzylite/fl/variable</text>
<text text-anchor="middle" x="289.128" y="-61.5" font-family="Helvetica,sans-Serif" font-size="10.00">/InputVariable.h</text>
</a>
</g>
</g>
<!-- Node17&#45;&gt;Node18 -->
<g id="edge7" class="edge"><title>Node17&#45;&gt;Node18</title>
<path fill="none" stroke="midnightblue" d="M289.128,-110.164C289.128,-101.169 289.128,-91.2205 289.128,-83.5369"/>
<polygon fill="midnightblue" stroke="midnightblue" points="285.628,-110.446 289.128,-120.446 292.628,-110.446 285.628,-110.446"/>
</g>
<!-- Node19 -->
<g id="node7" class="node"><title>Node19</title>
<g id="a_node7"><a xlink:href="../../dd/d9b/_output_variable_8h.html" target="_top" xlink:title="fuzzylite/fl/variable\l/OutputVariable.h">
<polygon fill="white" stroke="black" points="356.278,-55.5 356.278,-83.5 453.978,-83.5 453.978,-55.5 356.278,-55.5"/>
<text text-anchor="start" x="364.278" y="-71.5" font-family="Helvetica,sans-Serif" font-size="10.00">fuzzylite/fl/variable</text>
<text text-anchor="middle" x="405.128" y="-61.5" font-family="Helvetica,sans-Serif" font-size="10.00">/OutputVariable.h</text>
</a>
</g>
</g>
<!-- Node17&#45;&gt;Node19 -->
<g id="edge9" class="edge"><title>Node17&#45;&gt;Node19</title>
<path fill="none" stroke="midnightblue" d="M322.005,-115.644C340.826,-105.422 364.022,-92.8248 381.123,-83.5369"/>
<polygon fill="midnightblue" stroke="midnightblue" points="320.28,-112.598 313.163,-120.446 323.621,-118.749 320.28,-112.598"/>
</g>
<!-- Node18&#45;&gt;Node15 -->
<g id="edge8" class="edge"><title>Node18&#45;&gt;Node15</title>
<path fill="none" stroke="midnightblue" d="M333.176,-51.9103C362.109,-41.0135 398.693,-27.2353 421.506,-18.6434"/>
<polygon fill="midnightblue" stroke="midnightblue" points="331.813,-48.6837 323.689,-55.4837 334.28,-55.2345 331.813,-48.6837"/>
</g>
<!-- Node19&#45;&gt;Node15 -->
<g id="edge10" class="edge"><title>Node19&#45;&gt;Node15</title>
<path fill="none" stroke="midnightblue" d="M419.326,-46.829C425.736,-37.0462 432.925,-26.0727 437.709,-18.7715"/>
<polygon fill="midnightblue" stroke="midnightblue" points="416.303,-45.0562 413.751,-55.3389 422.159,-48.8924 416.303,-45.0562"/>
</g>
<!-- Node20&#45;&gt;Node15 -->
<g id="edge12" class="edge"><title>Node20&#45;&gt;Node15</title>
<path fill="none" stroke="midnightblue" d="M471.957,-110.057C470.728,-94.262 468.223,-73.0901 463.128,-55 459.408,-41.7923 452.387,-27.4805 447.733,-18.751"/>
<polygon fill="midnightblue" stroke="midnightblue" points="468.494,-110.738 472.644,-120.486 475.479,-110.278 468.494,-110.738"/>
</g>
<!-- Node21&#45;&gt;Node15 -->
<g id="edge14" class="edge"><title>Node21&#45;&gt;Node15</title>
<path fill="none" stroke="midnightblue" d="M527.727,-51.0518C505.293,-40.2981 477.574,-27.0112 460.117,-18.6434"/>
<polygon fill="midnightblue" stroke="midnightblue" points="526.443,-54.3173 536.973,-55.4837 529.468,-48.005 526.443,-54.3173"/>
</g>
<!-- Node22&#45;&gt;Node15 -->
<g id="edge16" class="edge"><title>Node22&#45;&gt;Node15</title>
<path fill="none" stroke="midnightblue" d="M650.307,-175.448C654.568,-144.083 656.896,-88.0918 627.128,-55 609.984,-35.9415 545.408,-23.586 497.574,-16.8414"/>
<polygon fill="midnightblue" stroke="midnightblue" points="646.832,-175.02 648.769,-185.437 653.75,-176.086 646.832,-175.02"/>
</g>
<!-- Node23&#45;&gt;Node15 -->
<g id="edge20" class="edge"><title>Node23&#45;&gt;Node15</title>
<path fill="none" stroke="midnightblue" d="M719.752,-112.062C706.45,-93.9736 685.011,-68.8724 660.128,-55 609.575,-26.8166 543.462,-16.3909 497.557,-12.5842"/>
<polygon fill="midnightblue" stroke="midnightblue" points="716.961,-114.177 725.608,-120.299 722.666,-110.121 716.961,-114.177"/>
</g>
<!-- Node24 -->
<g id="node12" class="node"><title>Node24</title>
<g id="a_node12"><a xlink:href="../../d8/d89/_factory_manager_8h.html" target="_top" xlink:title="fuzzylite/fl/factory\l/FactoryManager.h">
<polygon fill="white" stroke="black" points="712.438,-55.5 712.438,-83.5 811.817,-83.5 811.817,-55.5 712.438,-55.5"/>
<text text-anchor="start" x="720.438" y="-71.5" font-family="Helvetica,sans-Serif" font-size="10.00">fuzzylite/fl/factory</text>
<text text-anchor="middle" x="762.128" y="-61.5" font-family="Helvetica,sans-Serif" font-size="10.00">/FactoryManager.h</text>
</a>
</g>
</g>
<!-- Node23&#45;&gt;Node24 -->
<g id="edge18" class="edge"><title>Node23&#45;&gt;Node24</title>
<path fill="none" stroke="midnightblue" d="M744.105,-111.051C748.204,-101.828 752.806,-91.4738 756.334,-83.5369"/>
<polygon fill="midnightblue" stroke="midnightblue" points="740.793,-109.887 739.93,-120.446 747.189,-112.73 740.793,-109.887"/>
</g>
<!-- Node24&#45;&gt;Node15 -->
<g id="edge19" class="edge"><title>Node24&#45;&gt;Node15</title>
<path fill="none" stroke="midnightblue" d="M702.024,-55.7574C700.714,-55.5005 699.414,-55.2477 698.128,-55 626.64,-41.227 543.514,-27.0653 492.106,-18.5224"/>
<polygon fill="midnightblue" stroke="midnightblue" points="701.709,-59.2637 712.201,-57.7917 703.081,-52.3994 701.709,-59.2637"/>
</g>
<!-- Node25&#45;&gt;Node15 -->
<g id="edge23" class="edge"><title>Node25&#45;&gt;Node15</title>
<path fill="none" stroke="midnightblue" d="M838.054,-180.218C845.039,-149.751 853.64,-88.6282 821.128,-55 799.053,-32.1673 596.955,-18.5318 497.669,-13.1566"/>
<polygon fill="midnightblue" stroke="midnightblue" points="834.57,-179.722 835.545,-190.272 841.362,-181.417 834.57,-179.722"/>
</g>
</g>
</svg>
