<?xml version="1.0" encoding="UTF-8" standalone="no"?>
<!DOCTYPE svg PUBLIC "-//W3C//DTD SVG 1.1//EN"
 "http://www.w3.org/Graphics/SVG/1.1/DTD/svg11.dtd">
<!-- Generated by graphviz version 2.38.0 (20140413.2041)
 -->
<!-- Title: fuzzylite/fl/factory/DefuzzifierFactory.h Pages: 1 -->
<svg width="1291pt" height="477pt"
 viewBox="0.00 0.00 1290.81 477.00" xmlns="http://www.w3.org/2000/svg" xmlns:xlink="http://www.w3.org/1999/xlink">
<g id="graph0" class="graph" transform="scale(1 1) rotate(0) translate(4 473)">
<title>fuzzylite/fl/factory/DefuzzifierFactory.h</title>
<polygon fill="white" stroke="none" points="-4,4 -4,-473 1286.81,-473 1286.81,4 -4,4"/>
<!-- Node0 -->
<g id="node1" class="node"><title>Node0</title>
<polygon fill="#bfbfbf" stroke="black" points="117.33,-440.5 117.33,-468.5 224.287,-468.5 224.287,-440.5 117.33,-440.5"/>
<text text-anchor="start" x="125.33" y="-456.5" font-family="Helvetica,sans-Serif" font-size="10.00">fuzzylite/fl/factory</text>
<text text-anchor="middle" x="170.808" y="-446.5" font-family="Helvetica,sans-Serif" font-size="10.00">/DefuzzifierFactory.h</text>
</g>
<!-- Node1 -->
<g id="node2" class="node"><title>Node1</title>
<g id="a_node2"><a xlink:href="../../d7/dd8/_construction_factory_8h.html" target="_top" xlink:title="fl/factory/ConstructionFactory.h">
<polygon fill="white" stroke="black" points="376.985,-385.5 376.985,-403.5 530.632,-403.5 530.632,-385.5 376.985,-385.5"/>
<text text-anchor="middle" x="453.808" y="-391.5" font-family="Helvetica,sans-Serif" font-size="10.00">fl/factory/ConstructionFactory.h</text>
</a>
</g>
</g>
<!-- Node0&#45;&gt;Node1 -->
<g id="edge1" class="edge"><title>Node0&#45;&gt;Node1</title>
<path fill="none" stroke="midnightblue" d="M224.371,-442.522C276.242,-431.892 354.233,-415.908 404.583,-405.589"/>
<polygon fill="midnightblue" stroke="midnightblue" points="405.484,-408.977 414.578,-403.54 404.079,-402.119 405.484,-408.977"/>
</g>
<!-- Node15 -->
<g id="node16" class="node"><title>Node15</title>
<g id="a_node16"><a xlink:href="../../d7/d8a/_defuzzifier_8h.html" target="_top" xlink:title="fl/defuzzifier/Defuzzifier.h">
<polygon fill="white" stroke="black" points="184.227,-220.5 184.227,-238.5 311.389,-238.5 311.389,-220.5 184.227,-220.5"/>
<text text-anchor="middle" x="247.808" y="-226.5" font-family="Helvetica,sans-Serif" font-size="10.00">fl/defuzzifier/Defuzzifier.h</text>
</a>
</g>
</g>
<!-- Node0&#45;&gt;Node15 -->
<g id="edge54" class="edge"><title>Node0&#45;&gt;Node15</title>
<path fill="none" stroke="midnightblue" d="M142.983,-440.325C84.8853,-411.104 -39.7314,-338.422 12.8083,-275 33.0708,-250.541 113.038,-239.423 174.116,-234.436"/>
<polygon fill="midnightblue" stroke="midnightblue" points="174.428,-237.923 184.127,-233.659 173.886,-230.944 174.428,-237.923"/>
</g>
<!-- Node26 -->
<g id="node27" class="node"><title>Node26</title>
<g id="a_node27"><a xlink:href="../../d9/d58/_integral_defuzzifier_8h.html" target="_top" xlink:title="fl/defuzzifier/IntegralDefuzzifier.h">
<polygon fill="white" stroke="black" points="21.55,-275.5 21.55,-293.5 182.067,-293.5 182.067,-275.5 21.55,-275.5"/>
<text text-anchor="middle" x="101.808" y="-281.5" font-family="Helvetica,sans-Serif" font-size="10.00">fl/defuzzifier/IntegralDefuzzifier.h</text>
</a>
</g>
</g>
<!-- Node0&#45;&gt;Node26 -->
<g id="edge55" class="edge"><title>Node0&#45;&gt;Node26</title>
<path fill="none" stroke="midnightblue" d="M160.427,-440.273C153.277,-430.652 143.987,-417.073 137.808,-404 121.782,-370.087 110.88,-327.365 105.561,-303.588"/>
<polygon fill="midnightblue" stroke="midnightblue" points="108.928,-302.598 103.4,-293.56 102.085,-304.073 108.928,-302.598"/>
</g>
<!-- Node27 -->
<g id="node28" class="node"><title>Node27</title>
<g id="a_node28"><a xlink:href="../../df/d9e/_weighted_defuzzifier_8h.html" target="_top" xlink:title="fl/defuzzifier/WeightedDefuzzifier.h">
<polygon fill="white" stroke="black" points="147.192,-385.5 147.192,-403.5 316.425,-403.5 316.425,-385.5 147.192,-385.5"/>
<text text-anchor="middle" x="231.808" y="-391.5" font-family="Helvetica,sans-Serif" font-size="10.00">fl/defuzzifier/WeightedDefuzzifier.h</text>
</a>
</g>
</g>
<!-- Node0&#45;&gt;Node27 -->
<g id="edge57" class="edge"><title>Node0&#45;&gt;Node27</title>
<path fill="none" stroke="midnightblue" d="M184.65,-440.339C193.877,-431.565 206.039,-420.002 215.701,-410.816"/>
<polygon fill="midnightblue" stroke="midnightblue" points="218.274,-413.199 223.109,-403.771 213.45,-408.126 218.274,-413.199"/>
</g>
<!-- Node2 -->
<g id="node3" class="node"><title>Node2</title>
<g id="a_node3"><a xlink:href="../../de/d53/fuzzylite_8h.html" target="_top" xlink:title="fl/fuzzylite.h">
<polygon fill="white" stroke="black" points="552.688,-55.5 552.688,-73.5 620.929,-73.5 620.929,-55.5 552.688,-55.5"/>
<text text-anchor="middle" x="586.808" y="-61.5" font-family="Helvetica,sans-Serif" font-size="10.00">fl/fuzzylite.h</text>
</a>
</g>
</g>
<!-- Node1&#45;&gt;Node2 -->
<g id="edge2" class="edge"><title>Node1&#45;&gt;Node2</title>
<path fill="none" stroke="midnightblue" d="M408.928,-385.487C377.828,-378.714 336.178,-367.154 302.808,-349 236.918,-313.154 206.108,-307.167 174.808,-239 171.285,-231.326 172.609,-228.153 174.808,-220 189.539,-165.39 191.668,-141.258 238.808,-110 287.732,-77.5592 460.276,-68.7424 542.543,-66.3661"/>
<polygon fill="midnightblue" stroke="midnightblue" points="542.684,-69.8636 552.586,-66.0952 542.495,-62.8662 542.684,-69.8636"/>
</g>
<!-- Node10 -->
<g id="node11" class="node"><title>Node10</title>
<polygon fill="white" stroke="#bfbfbf" points="822.082,-330.5 822.082,-348.5 857.535,-348.5 857.535,-330.5 822.082,-330.5"/>
<text text-anchor="middle" x="839.808" y="-336.5" font-family="Helvetica,sans-Serif" font-size="10.00">map</text>
</g>
<!-- Node1&#45;&gt;Node10 -->
<g id="edge10" class="edge"><title>Node1&#45;&gt;Node10</title>
<path fill="none" stroke="midnightblue" d="M530.932,-386.823C602.964,-379.875 713.265,-367.412 807.808,-349 809.254,-348.718 810.731,-348.408 812.219,-348.077"/>
<polygon fill="midnightblue" stroke="midnightblue" points="813.084,-351.469 821.967,-345.694 811.422,-344.669 813.084,-351.469"/>
</g>
<!-- Node11 -->
<g id="node12" class="node"><title>Node11</title>
<polygon fill="white" stroke="#bfbfbf" points="471.582,-110.5 471.582,-128.5 512.035,-128.5 512.035,-110.5 471.582,-110.5"/>
<text text-anchor="middle" x="491.808" y="-116.5" font-family="Helvetica,sans-Serif" font-size="10.00">string</text>
</g>
<!-- Node1&#45;&gt;Node11 -->
<g id="edge11" class="edge"><title>Node1&#45;&gt;Node11</title>
<path fill="none" stroke="midnightblue" d="M454.946,-385.33C460.157,-347.888 481.823,-192.234 489.277,-138.689"/>
<polygon fill="midnightblue" stroke="midnightblue" points="492.763,-139.026 490.675,-128.638 485.83,-138.06 492.763,-139.026"/>
</g>
<!-- Node12 -->
<g id="node13" class="node"><title>Node12</title>
<polygon fill="white" stroke="#bfbfbf" points="1041.19,-55.5 1041.19,-73.5 1084.42,-73.5 1084.42,-55.5 1041.19,-55.5"/>
<text text-anchor="middle" x="1062.81" y="-61.5" font-family="Helvetica,sans-Serif" font-size="10.00">vector</text>
</g>
<!-- Node1&#45;&gt;Node12 -->
<g id="edge12" class="edge"><title>Node1&#45;&gt;Node12</title>
<path fill="none" stroke="midnightblue" d="M530.683,-391.482C736.196,-385.07 1282.81,-360.927 1282.81,-285.5 1282.81,-285.5 1282.81,-285.5 1282.81,-228.5 1282.81,-162.633 1247.14,-148.647 1193.81,-110 1163.97,-88.3803 1122.85,-76.6921 1094.69,-70.7959"/>
<polygon fill="midnightblue" stroke="midnightblue" points="1095.07,-67.3032 1084.58,-68.8112 1093.72,-74.1721 1095.07,-67.3032"/>
</g>
<!-- Node13 -->
<g id="node14" class="node"><title>Node13</title>
<g id="a_node14"><a xlink:href="../../df/d98/_exception_8h.html" target="_top" xlink:title="fl/Exception.h">
<polygon fill="white" stroke="black" points="633.791,-165.5 633.791,-183.5 709.825,-183.5 709.825,-165.5 633.791,-165.5"/>
<text text-anchor="middle" x="671.808" y="-171.5" font-family="Helvetica,sans-Serif" font-size="10.00">fl/Exception.h</text>
</a>
</g>
</g>
<!-- Node1&#45;&gt;Node13 -->
<g id="edge13" class="edge"><title>Node1&#45;&gt;Node13</title>
<path fill="none" stroke="midnightblue" d="M460.987,-385.202C483.266,-359.605 553.598,-279.986 617.808,-220 629.043,-209.504 642.368,-198.51 652.97,-190.075"/>
<polygon fill="midnightblue" stroke="midnightblue" points="655.432,-192.592 661.13,-183.659 651.106,-187.089 655.432,-192.592"/>
</g>
<!-- Node1&#45;&gt;Node15 -->
<g id="edge18" class="edge"><title>Node1&#45;&gt;Node15</title>
<path fill="none" stroke="midnightblue" d="M408.846,-385.428C382.57,-378.973 349.94,-367.791 325.808,-349 290.624,-321.602 266.193,-273.685 254.903,-247.977"/>
<polygon fill="midnightblue" stroke="midnightblue" points="258.11,-246.575 250.991,-238.728 251.663,-249.302 258.11,-246.575"/>
</g>
<!-- Node17 -->
<g id="node18" class="node"><title>Node17</title>
<g id="a_node18"><a xlink:href="../../d2/dd9/_hedge_8h.html" target="_top" xlink:title="fl/hedge/Hedge.h">
<polygon fill="white" stroke="black" points="333.722,-165.5 333.722,-183.5 425.894,-183.5 425.894,-165.5 333.722,-165.5"/>
<text text-anchor="middle" x="379.808" y="-171.5" font-family="Helvetica,sans-Serif" font-size="10.00">fl/hedge/Hedge.h</text>
</a>
</g>
</g>
<!-- Node1&#45;&gt;Node17 -->
<g id="edge24" class="edge"><title>Node1&#45;&gt;Node17</title>
<path fill="none" stroke="midnightblue" d="M439.279,-385.305C427.105,-377.604 410.381,-364.897 401.808,-349 374.35,-298.08 375.578,-226.847 378.002,-193.745"/>
<polygon fill="midnightblue" stroke="midnightblue" points="381.494,-193.986 378.864,-183.723 374.52,-193.386 381.494,-193.986"/>
</g>
<!-- Node18 -->
<g id="node19" class="node"><title>Node18</title>
<g id="a_node19"><a xlink:href="../../de/d44/_s_norm_8h.html" target="_top" xlink:title="fl/norm/SNorm.h">
<polygon fill="white" stroke="black" points="1052.41,-220.5 1052.41,-238.5 1141.2,-238.5 1141.2,-220.5 1052.41,-220.5"/>
<text text-anchor="middle" x="1096.81" y="-226.5" font-family="Helvetica,sans-Serif" font-size="10.00">fl/norm/SNorm.h</text>
</a>
</g>
</g>
<!-- Node1&#45;&gt;Node18 -->
<g id="edge28" class="edge"><title>Node1&#45;&gt;Node18</title>
<path fill="none" stroke="midnightblue" d="M530.989,-392.576C653.491,-390.139 886.302,-381.27 961.808,-349 1015.4,-326.097 1062.69,-273.486 1084.32,-246.744"/>
<polygon fill="midnightblue" stroke="midnightblue" points="1087.18,-248.762 1090.64,-238.747 1081.69,-244.42 1087.18,-248.762"/>
</g>
<!-- Node20 -->
<g id="node21" class="node"><title>Node20</title>
<g id="a_node21"><a xlink:href="../../d0/d24/_t_norm_8h.html" target="_top" xlink:title="fl/norm/TNorm.h">
<polygon fill="white" stroke="black" points="870.693,-220.5 870.693,-238.5 958.924,-238.5 958.924,-220.5 870.693,-220.5"/>
<text text-anchor="middle" x="914.808" y="-226.5" font-family="Helvetica,sans-Serif" font-size="10.00">fl/norm/TNorm.h</text>
</a>
</g>
</g>
<!-- Node1&#45;&gt;Node20 -->
<g id="edge33" class="edge"><title>Node1&#45;&gt;Node20</title>
<path fill="none" stroke="midnightblue" d="M484.331,-385.415C541.888,-369.868 670.094,-333.798 774.808,-294 815.871,-278.394 862.004,-256.606 889.714,-243.037"/>
<polygon fill="midnightblue" stroke="midnightblue" points="891.286,-246.164 898.708,-238.603 888.191,-239.885 891.286,-246.164"/>
</g>
<!-- Node21 -->
<g id="node22" class="node"><title>Node21</title>
<g id="a_node22"><a xlink:href="../../d8/d11/_term_8h.html" target="_top" xlink:title="fl/term/Term.h">
<polygon fill="white" stroke="black" points="875.249,-330.5 875.249,-348.5 952.367,-348.5 952.367,-330.5 875.249,-330.5"/>
<text text-anchor="middle" x="913.808" y="-336.5" font-family="Helvetica,sans-Serif" font-size="10.00">fl/term/Term.h</text>
</a>
</g>
</g>
<!-- Node1&#45;&gt;Node21 -->
<g id="edge35" class="edge"><title>Node1&#45;&gt;Node21</title>
<path fill="none" stroke="midnightblue" d="M530.894,-386.856C611.816,-379.505 742.964,-366.526 865.205,-349.146"/>
<polygon fill="midnightblue" stroke="midnightblue" points="865.714,-352.609 875.115,-347.724 864.72,-345.68 865.714,-352.609"/>
</g>
<!-- Node3 -->
<g id="node4" class="node"><title>Node3</title>
<polygon fill="white" stroke="#bfbfbf" points="873.244,-0.5 873.244,-18.5 930.372,-18.5 930.372,-0.5 873.244,-0.5"/>
<text text-anchor="middle" x="901.808" y="-6.5" font-family="Helvetica,sans-Serif" font-size="10.00">algorithm</text>
</g>
<!-- Node2&#45;&gt;Node3 -->
<g id="edge3" class="edge"><title>Node2&#45;&gt;Node3</title>
<path fill="none" stroke="midnightblue" d="M621.118,-57.7272C680.207,-47.7854 800.795,-27.4958 862.91,-17.0447"/>
<polygon fill="midnightblue" stroke="midnightblue" points="863.8,-20.4444 873.08,-15.3336 862.638,-13.5414 863.8,-20.4444"/>
</g>
<!-- Node4 -->
<g id="node5" class="node"><title>Node4</title>
<polygon fill="white" stroke="#bfbfbf" points="1114.19,-0.5 1114.19,-18.5 1157.42,-18.5 1157.42,-0.5 1114.19,-0.5"/>
<text text-anchor="middle" x="1135.81" y="-6.5" font-family="Helvetica,sans-Serif" font-size="10.00">cmath</text>
</g>
<!-- Node2&#45;&gt;Node4 -->
<g id="edge4" class="edge"><title>Node2&#45;&gt;Node4</title>
<path fill="none" stroke="midnightblue" d="M621.151,-60.1846C720.593,-50.5845 1007.8,-22.8582 1103.99,-13.5721"/>
<polygon fill="midnightblue" stroke="midnightblue" points="1104.36,-17.0522 1113.98,-12.6074 1103.69,-10.0846 1104.36,-17.0522"/>
</g>
<!-- Node5 -->
<g id="node6" class="node"><title>Node5</title>
<polygon fill="white" stroke="#bfbfbf" points="628.636,-0.5 628.636,-18.5 682.981,-18.5 682.981,-0.5 628.636,-0.5"/>
<text text-anchor="middle" x="655.808" y="-6.5" font-family="Helvetica,sans-Serif" font-size="10.00">iostream</text>
</g>
<!-- Node2&#45;&gt;Node5 -->
<g id="edge5" class="edge"><title>Node2&#45;&gt;Node5</title>
<path fill="none" stroke="midnightblue" d="M597.288,-55.4504C607.825,-47.3566 624.297,-34.7042 637.084,-24.8822"/>
<polygon fill="midnightblue" stroke="midnightblue" points="639.432,-27.4926 645.23,-18.6253 635.167,-21.9412 639.432,-27.4926"/>
</g>
<!-- Node6 -->
<g id="node7" class="node"><title>Node6</title>
<polygon fill="white" stroke="#bfbfbf" points="701.028,-0.5 701.028,-18.5 752.589,-18.5 752.589,-0.5 701.028,-0.5"/>
<text text-anchor="middle" x="726.808" y="-6.5" font-family="Helvetica,sans-Serif" font-size="10.00">sstream</text>
</g>
<!-- Node2&#45;&gt;Node6 -->
<g id="edge6" class="edge"><title>Node2&#45;&gt;Node6</title>
<path fill="none" stroke="midnightblue" d="M608.071,-55.4504C631.404,-46.6173 669.079,-32.3546 695.726,-22.267"/>
<polygon fill="midnightblue" stroke="midnightblue" points="697.232,-25.4392 705.345,-18.6253 694.754,-18.8926 697.232,-25.4392"/>
</g>
<!-- Node7 -->
<g id="node8" class="node"><title>Node7</title>
<polygon fill="white" stroke="#bfbfbf" points="436.422,-0.5 436.422,-18.5 475.195,-18.5 475.195,-0.5 436.422,-0.5"/>
<text text-anchor="middle" x="455.808" y="-6.5" font-family="Helvetica,sans-Serif" font-size="10.00">limits</text>
</g>
<!-- Node2&#45;&gt;Node7 -->
<g id="edge7" class="edge"><title>Node2&#45;&gt;Node7</title>
<path fill="none" stroke="midnightblue" d="M566.912,-55.4504C545.049,-46.6051 509.729,-32.3151 484.789,-22.2252"/>
<polygon fill="midnightblue" stroke="midnightblue" points="486.045,-18.9577 475.462,-18.4517 483.42,-25.4467 486.045,-18.9577"/>
</g>
<!-- Node8 -->
<g id="node9" class="node"><title>Node8</title>
<polygon fill="white" stroke="#bfbfbf" points="492.752,-0.5 492.752,-18.5 544.865,-18.5 544.865,-0.5 492.752,-0.5"/>
<text text-anchor="middle" x="518.808" y="-6.5" font-family="Helvetica,sans-Serif" font-size="10.00">memory</text>
</g>
<!-- Node2&#45;&gt;Node8 -->
<g id="edge8" class="edge"><title>Node2&#45;&gt;Node8</title>
<path fill="none" stroke="midnightblue" d="M576.481,-55.4504C566.096,-47.3566 549.863,-34.7042 537.261,-24.8822"/>
<polygon fill="midnightblue" stroke="midnightblue" points="539.272,-22.0122 529.233,-18.6253 534.969,-27.5333 539.272,-22.0122"/>
</g>
<!-- Node9 -->
<g id="node10" class="node"><title>Node9</title>
<polygon fill="white" stroke="#bfbfbf" points="562.688,-0.5 562.688,-18.5 610.929,-18.5 610.929,-0.5 562.688,-0.5"/>
<text text-anchor="middle" x="586.808" y="-6.5" font-family="Helvetica,sans-Serif" font-size="10.00">cstddef</text>
</g>
<!-- Node2&#45;&gt;Node9 -->
<g id="edge9" class="edge"><title>Node2&#45;&gt;Node9</title>
<path fill="none" stroke="midnightblue" d="M586.808,-55.2188C586.808,-48.1769 586.808,-37.8083 586.808,-28.8277"/>
<polygon fill="midnightblue" stroke="midnightblue" points="590.308,-28.5495 586.808,-18.5496 583.308,-28.5496 590.308,-28.5495"/>
</g>
<!-- Node13&#45;&gt;Node2 -->
<g id="edge14" class="edge"><title>Node13&#45;&gt;Node2</title>
<path fill="none" stroke="midnightblue" d="M661.683,-165.337C651.604,-156.902 636.057,-143.025 624.808,-129 613.15,-114.465 602.505,-96.0181 595.467,-82.7571"/>
<polygon fill="midnightblue" stroke="midnightblue" points="598.529,-81.0577 590.831,-73.7778 592.309,-84.2691 598.529,-81.0577"/>
</g>
<!-- Node13&#45;&gt;Node11 -->
<g id="edge16" class="edge"><title>Node13&#45;&gt;Node11</title>
<path fill="none" stroke="midnightblue" d="M644.47,-165.45C611.493,-155.74 556.232,-139.469 522.02,-129.396"/>
<polygon fill="midnightblue" stroke="midnightblue" points="522.707,-125.949 512.126,-126.482 520.73,-132.664 522.707,-125.949"/>
</g>
<!-- Node13&#45;&gt;Node12 -->
<g id="edge17" class="edge"><title>Node13&#45;&gt;Node12</title>
<path fill="none" stroke="midnightblue" d="M700.877,-165.471C772.547,-145.674 957.256,-94.6551 1031.36,-74.1866"/>
<polygon fill="midnightblue" stroke="midnightblue" points="1032.35,-77.5438 1041.06,-71.5076 1030.49,-70.7965 1032.35,-77.5438"/>
</g>
<!-- Node14 -->
<g id="node15" class="node"><title>Node14</title>
<polygon fill="white" stroke="#bfbfbf" points="732.405,-110.5 732.405,-128.5 791.212,-128.5 791.212,-110.5 732.405,-110.5"/>
<text text-anchor="middle" x="761.808" y="-116.5" font-family="Helvetica,sans-Serif" font-size="10.00">exception</text>
</g>
<!-- Node13&#45;&gt;Node14 -->
<g id="edge15" class="edge"><title>Node13&#45;&gt;Node14</title>
<path fill="none" stroke="midnightblue" d="M685.477,-165.45C699.75,-157.045 722.371,-143.724 739.288,-133.762"/>
<polygon fill="midnightblue" stroke="midnightblue" points="741.17,-136.716 748.011,-128.625 737.618,-130.684 741.17,-136.716"/>
</g>
<!-- Node15&#45;&gt;Node2 -->
<g id="edge19" class="edge"><title>Node15&#45;&gt;Node2</title>
<path fill="none" stroke="midnightblue" d="M245.116,-220.277C238.694,-198.924 225.062,-141.214 253.808,-110 291.765,-68.7856 460.304,-64.3692 542.048,-64.7311"/>
<polygon fill="midnightblue" stroke="midnightblue" points="542.489,-68.2343 552.513,-64.8059 542.539,-61.2344 542.489,-68.2343"/>
</g>
<!-- Node15&#45;&gt;Node11 -->
<g id="edge23" class="edge"><title>Node15&#45;&gt;Node11</title>
<path fill="none" stroke="midnightblue" d="M255.503,-220.159C268.487,-206.582 296.147,-179.74 324.808,-165 369.423,-142.055 426.999,-130.1 461.573,-124.566"/>
<polygon fill="midnightblue" stroke="midnightblue" points="462.166,-128.016 471.525,-123.05 461.111,-121.096 462.166,-128.016"/>
</g>
<!-- Node16 -->
<g id="node17" class="node"><title>Node16</title>
<g id="a_node17"><a xlink:href="../../d5/de4/_complexity_8h.html" target="_top" xlink:title="fl/Complexity.h">
<polygon fill="white" stroke="black" points="633.389,-110.5 633.389,-128.5 714.228,-128.5 714.228,-110.5 633.389,-110.5"/>
<text text-anchor="middle" x="673.808" y="-116.5" font-family="Helvetica,sans-Serif" font-size="10.00">fl/Complexity.h</text>
</a>
</g>
</g>
<!-- Node15&#45;&gt;Node16 -->
<g id="edge20" class="edge"><title>Node15&#45;&gt;Node16</title>
<path fill="none" stroke="midnightblue" d="M282.684,-220.487C320.294,-211.779 381.897,-197.322 434.808,-184 505.401,-166.226 587.329,-144.14 634.608,-131.251"/>
<polygon fill="midnightblue" stroke="midnightblue" points="635.712,-134.578 644.437,-128.568 633.868,-127.825 635.712,-134.578"/>
</g>
<!-- Node16&#45;&gt;Node2 -->
<g id="edge21" class="edge"><title>Node16&#45;&gt;Node2</title>
<path fill="none" stroke="midnightblue" d="M660.595,-110.45C646.926,-102.123 625.335,-88.9704 609.033,-79.0394"/>
<polygon fill="midnightblue" stroke="midnightblue" points="610.507,-75.8389 600.146,-73.6253 606.865,-81.817 610.507,-75.8389"/>
</g>
<!-- Node16&#45;&gt;Node12 -->
<g id="edge22" class="edge"><title>Node16&#45;&gt;Node12</title>
<path fill="none" stroke="midnightblue" d="M714.447,-111.459C717.612,-110.951 720.761,-110.459 723.808,-110 836.492,-93.0322 970.808,-76.4883 1030.95,-69.2742"/>
<polygon fill="midnightblue" stroke="midnightblue" points="1031.44,-72.74 1040.96,-68.0776 1030.61,-65.7895 1031.44,-72.74"/>
</g>
<!-- Node17&#45;&gt;Node2 -->
<g id="edge25" class="edge"><title>Node17&#45;&gt;Node2</title>
<path fill="none" stroke="midnightblue" d="M388.385,-165.474C402.787,-152.35 433.174,-126.144 462.808,-110 489.376,-95.5269 521.594,-84.1298 546.53,-76.4939"/>
<polygon fill="midnightblue" stroke="midnightblue" points="547.806,-79.7657 556.389,-73.5537 545.806,-73.0577 547.806,-79.7657"/>
</g>
<!-- Node17&#45;&gt;Node11 -->
<g id="edge27" class="edge"><title>Node17&#45;&gt;Node11</title>
<path fill="none" stroke="midnightblue" d="M396.819,-165.45C415.074,-156.812 444.303,-142.98 465.521,-132.94"/>
<polygon fill="midnightblue" stroke="midnightblue" points="467.096,-136.066 474.638,-128.625 464.102,-129.739 467.096,-136.066"/>
</g>
<!-- Node17&#45;&gt;Node16 -->
<g id="edge26" class="edge"><title>Node17&#45;&gt;Node16</title>
<path fill="none" stroke="midnightblue" d="M424.461,-165.45C477.843,-155.827 566.972,-139.76 622.957,-129.667"/>
<polygon fill="midnightblue" stroke="midnightblue" points="623.788,-133.074 633.009,-127.855 622.546,-126.185 623.788,-133.074"/>
</g>
<!-- Node19 -->
<g id="node20" class="node"><title>Node19</title>
<g id="a_node20"><a xlink:href="../../d7/d72/_norm_8h.html" target="_top" xlink:title="fl/norm/Norm.h">
<polygon fill="white" stroke="black" points="808.747,-165.5 808.747,-183.5 890.87,-183.5 890.87,-165.5 808.747,-165.5"/>
<text text-anchor="middle" x="849.808" y="-171.5" font-family="Helvetica,sans-Serif" font-size="10.00">fl/norm/Norm.h</text>
</a>
</g>
</g>
<!-- Node18&#45;&gt;Node19 -->
<g id="edge29" class="edge"><title>Node18&#45;&gt;Node19</title>
<path fill="none" stroke="midnightblue" d="M1059.29,-220.45C1015.92,-211.143 944.445,-195.807 897.247,-185.679"/>
<polygon fill="midnightblue" stroke="midnightblue" points="897.782,-182.214 887.27,-183.538 896.313,-189.058 897.782,-182.214"/>
</g>
<!-- Node19&#45;&gt;Node2 -->
<g id="edge30" class="edge"><title>Node19&#45;&gt;Node2</title>
<path fill="none" stroke="midnightblue" d="M845.845,-165.381C838.685,-151.629 822.23,-123.898 799.808,-110 747.975,-77.8722 676.818,-68.568 631.317,-66.0783"/>
<polygon fill="midnightblue" stroke="midnightblue" points="631.322,-62.575 621.173,-65.613 631.002,-69.5676 631.322,-62.575"/>
</g>
<!-- Node19&#45;&gt;Node11 -->
<g id="edge32" class="edge"><title>Node19&#45;&gt;Node11</title>
<path fill="none" stroke="midnightblue" d="M808.741,-167.42C736.169,-156.676 586.844,-134.57 522.461,-125.038"/>
<polygon fill="midnightblue" stroke="midnightblue" points="522.576,-121.517 512.171,-123.515 521.551,-128.441 522.576,-121.517"/>
</g>
<!-- Node19&#45;&gt;Node16 -->
<g id="edge31" class="edge"><title>Node19&#45;&gt;Node16</title>
<path fill="none" stroke="midnightblue" d="M823.078,-165.45C793.012,-156.396 744.003,-141.638 710.398,-131.519"/>
<polygon fill="midnightblue" stroke="midnightblue" points="711.086,-128.07 700.502,-128.538 709.068,-134.773 711.086,-128.07"/>
</g>
<!-- Node20&#45;&gt;Node19 -->
<g id="edge34" class="edge"><title>Node20&#45;&gt;Node19</title>
<path fill="none" stroke="midnightblue" d="M904.936,-220.45C895.105,-212.434 879.791,-199.947 867.795,-190.166"/>
<polygon fill="midnightblue" stroke="midnightblue" points="869.735,-187.232 859.773,-183.625 865.312,-192.657 869.735,-187.232"/>
</g>
<!-- Node21&#45;&gt;Node2 -->
<g id="edge36" class="edge"><title>Node21&#45;&gt;Node2</title>
<path fill="none" stroke="midnightblue" d="M875.104,-331.349C872.299,-330.877 869.512,-330.422 866.808,-330 620.324,-291.482 463.878,-391.117 324.808,-184 269.998,-102.371 454.599,-76.2048 542.673,-68.4766"/>
<polygon fill="midnightblue" stroke="midnightblue" points="542.986,-71.9628 552.66,-67.6431 542.404,-64.987 542.986,-71.9628"/>
</g>
<!-- Node21&#45;&gt;Node4 -->
<g id="edge51" class="edge"><title>Node21&#45;&gt;Node4</title>
<path fill="none" stroke="midnightblue" d="M952.547,-335.315C1015.97,-329.543 1138.63,-315.888 1175.81,-294 1202.78,-278.117 1209.18,-268.444 1219.81,-239 1248.64,-159.136 1180.49,-63.9018 1149.82,-26.6031"/>
<polygon fill="midnightblue" stroke="midnightblue" points="1152.35,-24.1792 1143.23,-18.7873 1147,-28.6898 1152.35,-24.1792"/>
</g>
<!-- Node21&#45;&gt;Node11 -->
<g id="edge52" class="edge"><title>Node21&#45;&gt;Node11</title>
<path fill="none" stroke="midnightblue" d="M875.206,-331.507C813.885,-320.341 699.235,-299.212 680.808,-294 614.485,-275.242 587.113,-285.027 535.808,-239 506.353,-212.575 496.563,-164.585 493.348,-138.519"/>
<polygon fill="midnightblue" stroke="midnightblue" points="496.825,-138.113 492.311,-128.528 489.862,-138.836 496.825,-138.113"/>
</g>
<!-- Node21&#45;&gt;Node12 -->
<g id="edge53" class="edge"><title>Node21&#45;&gt;Node12</title>
<path fill="none" stroke="midnightblue" d="M952.538,-338.007C1000.42,-335.889 1083.13,-327.201 1144.81,-294 1179.54,-275.304 1206.81,-269.944 1206.81,-230.5 1206.81,-230.5 1206.81,-230.5 1206.81,-173.5 1206.81,-117.664 1136.66,-87.1588 1094.28,-73.8249"/>
<polygon fill="midnightblue" stroke="midnightblue" points="1095.26,-70.4643 1084.68,-70.9449 1093.25,-77.1694 1095.26,-70.4643"/>
</g>
<!-- Node21&#45;&gt;Node16 -->
<g id="edge50" class="edge"><title>Node21&#45;&gt;Node16</title>
<path fill="none" stroke="midnightblue" d="M952.503,-334.027C1033.1,-323.189 1206.9,-291.018 1149.81,-220 1136.36,-203.277 844.011,-150.352 724.268,-129.281"/>
<polygon fill="midnightblue" stroke="midnightblue" points="724.703,-125.804 714.249,-127.521 723.493,-132.698 724.703,-125.804"/>
</g>
<!-- Node22 -->
<g id="node23" class="node"><title>Node22</title>
<g id="a_node23"><a xlink:href="../../d6/dd6/_operation_8h.html" target="_top" xlink:title="fl/Operation.h">
<polygon fill="white" stroke="black" points="689.791,-275.5 689.791,-293.5 765.825,-293.5 765.825,-275.5 689.791,-275.5"/>
<text text-anchor="middle" x="727.808" y="-281.5" font-family="Helvetica,sans-Serif" font-size="10.00">fl/Operation.h</text>
</a>
</g>
</g>
<!-- Node21&#45;&gt;Node22 -->
<g id="edge37" class="edge"><title>Node21&#45;&gt;Node22</title>
<path fill="none" stroke="midnightblue" d="M885.559,-330.45C853.648,-321.357 801.544,-306.511 766.019,-296.388"/>
<polygon fill="midnightblue" stroke="midnightblue" points="766.595,-292.913 756.018,-293.538 764.676,-299.645 766.595,-292.913"/>
</g>
<!-- Node22&#45;&gt;Node2 -->
<g id="edge38" class="edge"><title>Node22&#45;&gt;Node2</title>
<path fill="none" stroke="midnightblue" d="M689.593,-277.675C665.402,-271.956 635.46,-260.757 617.808,-239 580.743,-193.314 581.867,-118.388 584.724,-83.912"/>
<polygon fill="midnightblue" stroke="midnightblue" points="588.216,-84.1649 585.706,-73.8715 581.249,-83.483 588.216,-84.1649"/>
</g>
<!-- Node22&#45;&gt;Node3 -->
<g id="edge46" class="edge"><title>Node22&#45;&gt;Node3</title>
<path fill="none" stroke="midnightblue" d="M766.22,-281.173C826.295,-276.767 938.643,-265.19 967.808,-239 989.727,-219.318 986.808,-204.958 986.808,-175.5 986.808,-175.5 986.808,-175.5 986.808,-118.5 986.808,-77.3059 948.15,-42.5548 922.975,-24.2918"/>
<polygon fill="midnightblue" stroke="midnightblue" points="924.923,-21.3834 914.718,-18.536 920.92,-27.1259 924.923,-21.3834"/>
</g>
<!-- Node22&#45;&gt;Node11 -->
<g id="edge40" class="edge"><title>Node22&#45;&gt;Node11</title>
<path fill="none" stroke="midnightblue" d="M689.613,-282.509C651.479,-279.665 593.048,-270.06 553.808,-239 536.702,-225.46 511.301,-167.944 499.001,-138.311"/>
<polygon fill="midnightblue" stroke="midnightblue" points="502.13,-136.716 495.102,-128.788 495.652,-139.369 502.13,-136.716"/>
</g>
<!-- Node22&#45;&gt;Node12 -->
<g id="edge41" class="edge"><title>Node22&#45;&gt;Node12</title>
<path fill="none" stroke="midnightblue" d="M765.9,-281.974C832.355,-278.569 965.757,-268.2 1000.81,-239 1048.5,-199.268 1059.51,-120.072 1062.05,-84.0766"/>
<polygon fill="midnightblue" stroke="midnightblue" points="1065.57,-83.8227 1062.63,-73.6448 1058.58,-83.4365 1065.57,-83.8227"/>
</g>
<!-- Node22&#45;&gt;Node13 -->
<g id="edge39" class="edge"><title>Node22&#45;&gt;Node13</title>
<path fill="none" stroke="midnightblue" d="M689.695,-277.675C666.694,-271.982 639.146,-260.812 624.808,-239 613.261,-221.432 632.391,-202.137 649.603,-189.481"/>
<polygon fill="midnightblue" stroke="midnightblue" points="652.011,-192.071 658.255,-183.512 648.036,-186.309 652.011,-192.071"/>
</g>
<!-- Node22&#45;&gt;Node15 -->
<g id="edge42" class="edge"><title>Node22&#45;&gt;Node15</title>
<path fill="none" stroke="midnightblue" d="M689.742,-279.297C610.236,-270.518 425.347,-250.103 321.67,-238.656"/>
<polygon fill="midnightblue" stroke="midnightblue" points="321.914,-235.161 311.59,-237.543 321.145,-242.119 321.914,-235.161"/>
</g>
<!-- Node22&#45;&gt;Node18 -->
<g id="edge44" class="edge"><title>Node22&#45;&gt;Node18</title>
<path fill="none" stroke="midnightblue" d="M766.117,-278.061C824.822,-269.717 940.565,-253.227 1038.81,-239 1039.89,-238.843 1040.99,-238.685 1042.09,-238.525"/>
<polygon fill="midnightblue" stroke="midnightblue" points="1042.77,-241.962 1052.16,-237.059 1041.76,-235.035 1042.77,-241.962"/>
</g>
<!-- Node22&#45;&gt;Node19 -->
<g id="edge43" class="edge"><title>Node22&#45;&gt;Node19</title>
<path fill="none" stroke="midnightblue" d="M759.483,-275.388C780.15,-268.661 806.421,-257.196 823.808,-239 835.887,-226.36 842.662,-207.342 846.244,-193.414"/>
<polygon fill="midnightblue" stroke="midnightblue" points="849.682,-194.079 848.473,-183.554 842.854,-192.536 849.682,-194.079"/>
</g>
<!-- Node22&#45;&gt;Node20 -->
<g id="edge45" class="edge"><title>Node22&#45;&gt;Node20</title>
<path fill="none" stroke="midnightblue" d="M756.21,-275.45C788.292,-266.357 840.676,-251.511 876.392,-241.388"/>
<polygon fill="midnightblue" stroke="midnightblue" points="877.78,-244.633 886.447,-238.538 875.871,-237.898 877.78,-244.633"/>
</g>
<!-- Node23 -->
<g id="node24" class="node"><title>Node23</title>
<polygon fill="white" stroke="#bfbfbf" points="634.299,-220.5 634.299,-238.5 685.318,-238.5 685.318,-220.5 634.299,-220.5"/>
<text text-anchor="middle" x="659.808" y="-226.5" font-family="Helvetica,sans-Serif" font-size="10.00">iomanip</text>
</g>
<!-- Node22&#45;&gt;Node23 -->
<g id="edge47" class="edge"><title>Node22&#45;&gt;Node23</title>
<path fill="none" stroke="midnightblue" d="M717.481,-275.45C707.096,-267.357 690.863,-254.704 678.261,-244.882"/>
<polygon fill="midnightblue" stroke="midnightblue" points="680.272,-242.012 670.233,-238.625 675.969,-247.533 680.272,-242.012"/>
</g>
<!-- Node24 -->
<g id="node25" class="node"><title>Node24</title>
<polygon fill="white" stroke="#bfbfbf" points="703.412,-220.5 703.412,-238.5 752.205,-238.5 752.205,-220.5 703.412,-220.5"/>
<text text-anchor="middle" x="727.808" y="-226.5" font-family="Helvetica,sans-Serif" font-size="10.00">cstdarg</text>
</g>
<!-- Node22&#45;&gt;Node24 -->
<g id="edge48" class="edge"><title>Node22&#45;&gt;Node24</title>
<path fill="none" stroke="midnightblue" d="M727.808,-275.219C727.808,-268.177 727.808,-257.808 727.808,-248.828"/>
<polygon fill="midnightblue" stroke="midnightblue" points="731.308,-248.55 727.808,-238.55 724.308,-248.55 731.308,-248.55"/>
</g>
<!-- Node25 -->
<g id="node26" class="node"><title>Node25</title>
<polygon fill="white" stroke="#bfbfbf" points="770.358,-220.5 770.358,-238.5 815.259,-238.5 815.259,-220.5 770.358,-220.5"/>
<text text-anchor="middle" x="792.808" y="-226.5" font-family="Helvetica,sans-Serif" font-size="10.00">cctype</text>
</g>
<!-- Node22&#45;&gt;Node25 -->
<g id="edge49" class="edge"><title>Node22&#45;&gt;Node25</title>
<path fill="none" stroke="midnightblue" d="M737.68,-275.45C747.511,-267.434 762.826,-254.947 774.821,-245.166"/>
<polygon fill="midnightblue" stroke="midnightblue" points="777.305,-247.657 782.843,-238.625 772.881,-242.232 777.305,-247.657"/>
</g>
<!-- Node26&#45;&gt;Node15 -->
<g id="edge56" class="edge"><title>Node26&#45;&gt;Node15</title>
<path fill="none" stroke="midnightblue" d="M123.983,-275.45C148.423,-266.578 187.952,-252.229 215.76,-242.134"/>
<polygon fill="midnightblue" stroke="midnightblue" points="217.22,-245.328 225.425,-238.625 214.831,-238.748 217.22,-245.328"/>
</g>
<!-- Node27&#45;&gt;Node15 -->
<g id="edge58" class="edge"><title>Node27&#45;&gt;Node15</title>
<path fill="none" stroke="midnightblue" d="M232.624,-385.193C235.095,-360.013 242.546,-284.114 246.006,-248.862"/>
<polygon fill="midnightblue" stroke="midnightblue" points="249.52,-248.891 247.014,-238.597 242.553,-248.207 249.52,-248.891"/>
</g>
</g>
</svg>
