<?xml version="1.0" encoding="UTF-8" standalone="no"?>
<!DOCTYPE svg PUBLIC "-//W3C//DTD SVG 1.1//EN"
 "http://www.w3.org/Graphics/SVG/1.1/DTD/svg11.dtd">
<!-- Generated by graphviz version 2.38.0 (20140413.2041)
 -->
<!-- Title: fl::Operation::standardDeviation Pages: 1 -->
<svg width="582pt" height="27pt"
 viewBox="0.00 0.00 582.43 27.00" xmlns="http://www.w3.org/2000/svg" xmlns:xlink="http://www.w3.org/1999/xlink">
<g id="graph0" class="graph" transform="scale(1 1) rotate(0) translate(4 23)">
<title>fl::Operation::standardDeviation</title>
<polygon fill="white" stroke="none" points="-4,4 -4,-23 578.427,-23 578.427,4 -4,4"/>
<!-- Node165 -->
<g id="node1" class="node"><title>Node165</title>
<polygon fill="#bfbfbf" stroke="black" points="0,-0.5 0,-18.5 156.635,-18.5 156.635,-0.5 0,-0.5"/>
<text text-anchor="middle" x="78.3174" y="-6.5" font-family="Helvetica,sans-Serif" font-size="10.00">fl::Operation::standardDeviation</text>
</g>
<!-- Node166 -->
<g id="node2" class="node"><title>Node166</title>
<g id="a_node2"><a xlink:href="../../d3/da9/classfl_1_1_operation.html#a6412f103c47a20be57674bb593fa0ea7" target="_top" xlink:title="Computes the variance of the vector. ">
<polygon fill="white" stroke="black" points="192.635,-0.5 192.635,-18.5 306.462,-18.5 306.462,-0.5 192.635,-0.5"/>
<text text-anchor="middle" x="249.548" y="-6.5" font-family="Helvetica,sans-Serif" font-size="10.00">fl::Operation::variance</text>
</a>
</g>
</g>
<!-- Node165&#45;&gt;Node166 -->
<g id="edge1" class="edge"><title>Node165&#45;&gt;Node166</title>
<path fill="none" stroke="midnightblue" d="M156.999,-9.5C165.523,-9.5 174.143,-9.5 182.507,-9.5"/>
<polygon fill="midnightblue" stroke="midnightblue" points="182.56,-13.0001 192.56,-9.5 182.56,-6.0001 182.56,-13.0001"/>
</g>
<!-- Node167 -->
<g id="node3" class="node"><title>Node167</title>
<g id="a_node3"><a xlink:href="../../d3/da9/classfl_1_1_operation.html#a5aad3e2e6d4cb224999bdb6427cc0e51" target="_top" xlink:title="Computes the mean of the vector. ">
<polygon fill="white" stroke="black" points="342.462,-0.5 342.462,-18.5 443.506,-18.5 443.506,-0.5 342.462,-0.5"/>
<text text-anchor="middle" x="392.984" y="-6.5" font-family="Helvetica,sans-Serif" font-size="10.00">fl::Operation::mean</text>
</a>
</g>
</g>
<!-- Node166&#45;&gt;Node167 -->
<g id="edge2" class="edge"><title>Node166&#45;&gt;Node167</title>
<path fill="none" stroke="midnightblue" d="M306.854,-9.5C315.178,-9.5 323.781,-9.5 332.174,-9.5"/>
<polygon fill="midnightblue" stroke="midnightblue" points="332.274,-13.0001 342.274,-9.5 332.274,-6.0001 332.274,-13.0001"/>
</g>
<!-- Node168 -->
<g id="node4" class="node"><title>Node168</title>
<g id="a_node4"><a xlink:href="../../d3/da9/classfl_1_1_operation.html#a0139bd921fc1380b6c2a13b87d38e7e0" target="_top" xlink:title="Computes the sum of the vector. ">
<polygon fill="white" stroke="black" points="479.506,-0.5 479.506,-18.5 574.427,-18.5 574.427,-0.5 479.506,-0.5"/>
<text text-anchor="middle" x="526.966" y="-6.5" font-family="Helvetica,sans-Serif" font-size="10.00">fl::Operation::sum</text>
</a>
</g>
</g>
<!-- Node167&#45;&gt;Node168 -->
<g id="edge3" class="edge"><title>Node167&#45;&gt;Node168</title>
<path fill="none" stroke="midnightblue" d="M443.881,-9.5C452.184,-9.5 460.85,-9.5 469.307,-9.5"/>
<polygon fill="midnightblue" stroke="midnightblue" points="469.481,-13.0001 479.481,-9.5 469.481,-6.0001 469.481,-13.0001"/>
</g>
</g>
</svg>
