<?xml version="1.0" encoding="UTF-8" standalone="no"?>
<!DOCTYPE svg PUBLIC "-//W3C//DTD SVG 1.1//EN"
 "http://www.w3.org/Graphics/SVG/1.1/DTD/svg11.dtd">
<!-- Generated by graphviz version 2.38.0 (20140413.2041)
 -->
<!-- Title: fl::Operation::isGE Pages: 1 -->
<svg width="229pt" height="64pt"
 viewBox="0.00 0.00 228.85 64.00" xmlns="http://www.w3.org/2000/svg" xmlns:xlink="http://www.w3.org/1999/xlink">
<g id="graph0" class="graph" transform="scale(1 1) rotate(0) translate(4 60)">
<title>fl::Operation::isGE</title>
<polygon fill="white" stroke="none" points="-4,4 -4,-60 224.852,-60 224.852,4 -4,4"/>
<!-- Node1 -->
<g id="node1" class="node"><title>Node1</title>
<polygon fill="#bfbfbf" stroke="black" points="0,-18.5 0,-36.5 97.6992,-36.5 97.6992,-18.5 0,-18.5"/>
<text text-anchor="middle" x="48.8496" y="-24.5" font-family="Helvetica,sans-Serif" font-size="10.00">fl::Operation::isGE</text>
</g>
<!-- Node2 -->
<g id="node2" class="node"><title>Node2</title>
<g id="a_node2"><a xlink:href="../../d3/da9/classfl_1_1_operation.html#a19c22dd3209fb7d77571c6d4f1d0adef" target="_top" xlink:title="Returns whether &#160;is greater than or equal to &#160;at the default macheps ">
<polygon fill="white" stroke="black" points="133.699,-37.5 133.699,-55.5 220.852,-55.5 220.852,-37.5 133.699,-37.5"/>
<text text-anchor="middle" x="177.275" y="-43.5" font-family="Helvetica,sans-Serif" font-size="10.00">fl::Operation::ge</text>
</a>
</g>
</g>
<!-- Node1&#45;&gt;Node2 -->
<g id="edge1" class="edge"><title>Node1&#45;&gt;Node2</title>
<path fill="none" stroke="midnightblue" d="M108.033,-36.2442C116.657,-37.5402 125.406,-38.855 133.633,-40.0915"/>
<polygon fill="midnightblue" stroke="midnightblue" points="108.416,-32.7624 98.0064,-34.7373 107.375,-39.6847 108.416,-32.7624"/>
</g>
<!-- Node3 -->
<g id="node3" class="node"><title>Node3</title>
<g id="a_node3"><a xlink:href="../../d3/da9/classfl_1_1_operation.html#a1ba6888fa8ec88f19007cf3a31f3111c" target="_top" xlink:title="Indicates whether &#160;is within the boundaries (open or closed) ">
<polygon fill="white" stroke="black" points="135.369,-0.5 135.369,-18.5 219.182,-18.5 219.182,-0.5 135.369,-0.5"/>
<text text-anchor="middle" x="177.275" y="-6.5" font-family="Helvetica,sans-Serif" font-size="10.00">fl::Operation::in</text>
</a>
</g>
</g>
<!-- Node1&#45;&gt;Node3 -->
<g id="edge2" class="edge"><title>Node1&#45;&gt;Node3</title>
<path fill="none" stroke="midnightblue" d="M107.926,-19.2313C117.155,-17.9173 126.532,-16.5823 135.261,-15.3394"/>
<polygon fill="midnightblue" stroke="midnightblue" points="107.413,-15.7689 98.0064,-20.6436 108.4,-22.699 107.413,-15.7689"/>
</g>
</g>
</svg>
