<?xml version="1.0" encoding="UTF-8" standalone="no"?>
<!DOCTYPE svg PUBLIC "-//W3C//DTD SVG 1.1//EN"
 "http://www.w3.org/Graphics/SVG/1.1/DTD/svg11.dtd">
<!-- Generated by graphviz version 2.38.0 (20140413.2041)
 -->
<!-- Title: fl::Operation::standardDeviation Pages: 1 -->
<svg width="433pt" height="27pt"
 viewBox="0.00 0.00 432.60 27.00" xmlns="http://www.w3.org/2000/svg" xmlns:xlink="http://www.w3.org/1999/xlink">
<g id="graph0" class="graph" transform="scale(1 1) rotate(0) translate(4 23)">
<title>fl::Operation::standardDeviation</title>
<polygon fill="white" stroke="none" points="-4,4 -4,-23 428.6,-23 428.6,4 -4,4"/>
<!-- Node161 -->
<g id="node1" class="node"><title>Node161</title>
<polygon fill="#bfbfbf" stroke="black" points="0,-0.5 0,-18.5 156.635,-18.5 156.635,-0.5 0,-0.5"/>
<text text-anchor="middle" x="78.3174" y="-6.5" font-family="Helvetica,sans-Serif" font-size="10.00">fl::Operation::standardDeviation</text>
</g>
<!-- Node162 -->
<g id="node2" class="node"><title>Node162</title>
<g id="a_node2"><a xlink:href="../../d3/da9/classfl_1_1_operation.html#a5aad3e2e6d4cb224999bdb6427cc0e51" target="_top" xlink:title="Computes the mean of the vector. ">
<polygon fill="white" stroke="black" points="192.635,-0.5 192.635,-18.5 293.679,-18.5 293.679,-0.5 192.635,-0.5"/>
<text text-anchor="middle" x="243.157" y="-6.5" font-family="Helvetica,sans-Serif" font-size="10.00">fl::Operation::mean</text>
</a>
</g>
</g>
<!-- Node161&#45;&gt;Node162 -->
<g id="edge1" class="edge"><title>Node161&#45;&gt;Node162</title>
<path fill="none" stroke="midnightblue" d="M156.922,-9.5C165.446,-9.5 174.026,-9.5 182.288,-9.5"/>
<polygon fill="midnightblue" stroke="midnightblue" points="182.553,-13.0001 192.553,-9.5 182.553,-6.0001 182.553,-13.0001"/>
</g>
<!-- Node163 -->
<g id="node3" class="node"><title>Node163</title>
<g id="a_node3"><a xlink:href="../../d3/da9/classfl_1_1_operation.html#a0139bd921fc1380b6c2a13b87d38e7e0" target="_top" xlink:title="Computes the sum of the vector. ">
<polygon fill="white" stroke="black" points="329.679,-0.5 329.679,-18.5 424.6,-18.5 424.6,-0.5 329.679,-0.5"/>
<text text-anchor="middle" x="377.139" y="-6.5" font-family="Helvetica,sans-Serif" font-size="10.00">fl::Operation::sum</text>
</a>
</g>
</g>
<!-- Node162&#45;&gt;Node163 -->
<g id="edge2" class="edge"><title>Node162&#45;&gt;Node163</title>
<path fill="none" stroke="midnightblue" d="M294.054,-9.5C302.357,-9.5 311.023,-9.5 319.48,-9.5"/>
<polygon fill="midnightblue" stroke="midnightblue" points="319.654,-13.0001 329.654,-9.5 319.653,-6.0001 319.654,-13.0001"/>
</g>
</g>
</svg>
