<?xml version="1.0" encoding="UTF-8" standalone="no"?>
<!DOCTYPE svg PUBLIC "-//W3C//DTD SVG 1.1//EN"
 "http://www.w3.org/Graphics/SVG/1.1/DTD/svg11.dtd">
<!-- Generated by graphviz version 2.38.0 (20140413.2041)
 -->
<!-- Title: fl::Operation::isEq Pages: 1 -->
<svg width="537pt" height="360pt"
 viewBox="0.00 0.00 536.87 360.00" xmlns="http://www.w3.org/2000/svg" xmlns:xlink="http://www.w3.org/1999/xlink">
<g id="graph0" class="graph" transform="scale(1 1) rotate(0) translate(4 356)">
<title>fl::Operation::isEq</title>
<polygon fill="white" stroke="none" points="-4,4 -4,-356 532.865,-356 532.865,4 -4,4"/>
<!-- Node1 -->
<g id="node1" class="node"><title>Node1</title>
<polygon fill="#bfbfbf" stroke="black" points="0,-166.5 0,-184.5 95.4824,-184.5 95.4824,-166.5 0,-166.5"/>
<text text-anchor="middle" x="47.7412" y="-172.5" font-family="Helvetica,sans-Serif" font-size="10.00">fl::Operation::isEq</text>
</g>
<!-- Node2 -->
<g id="node2" class="node"><title>Node2</title>
<g id="a_node2"><a xlink:href="../../d3/da9/classfl_1_1_operation.html#a8352d5ffd8ebf256ec706bec8f1d8af8" target="_top" xlink:title="Returns whether &#160;is equal to &#160;at the default macheps ">
<polygon fill="white" stroke="black" points="148.992,-333.5 148.992,-351.5 236.145,-351.5 236.145,-333.5 148.992,-333.5"/>
<text text-anchor="middle" x="192.568" y="-339.5" font-family="Helvetica,sans-Serif" font-size="10.00">fl::Operation::eq</text>
</a>
</g>
</g>
<!-- Node1&#45;&gt;Node2 -->
<g id="edge1" class="edge"><title>Node1&#45;&gt;Node2</title>
<path fill="none" stroke="midnightblue" d="M54.1447,-194.601C64.1042,-226.329 88.3805,-289.825 131.482,-324.5 136.573,-328.596 142.578,-331.76 148.79,-334.205"/>
<polygon fill="midnightblue" stroke="midnightblue" points="57.4324,-193.379 51.2116,-184.803 50.7265,-195.387 57.4324,-193.379"/>
</g>
<!-- Node3 -->
<g id="node3" class="node"><title>Node3</title>
<g id="a_node3"><a xlink:href="../../d3/da9/classfl_1_1_operation.html#ae1fef29ec6be34b6122924f72e7804fa" target="_top" xlink:title="Returns whether &#160;is greater than or equal to &#160;at the given macheps ">
<polygon fill="white" stroke="black" points="143.719,-222.5 143.719,-240.5 241.418,-240.5 241.418,-222.5 143.719,-222.5"/>
<text text-anchor="middle" x="192.568" y="-228.5" font-family="Helvetica,sans-Serif" font-size="10.00">fl::Operation::isGE</text>
</a>
</g>
</g>
<!-- Node1&#45;&gt;Node3 -->
<g id="edge2" class="edge"><title>Node1&#45;&gt;Node3</title>
<path fill="none" stroke="midnightblue" d="M75.7796,-189.078C91.7503,-196.804 112.499,-206.337 131.482,-213.5 140.041,-216.729 149.452,-219.777 158.235,-222.415"/>
<polygon fill="midnightblue" stroke="midnightblue" points="77.0316,-185.794 66.5114,-184.538 73.9525,-192.08 77.0316,-185.794"/>
</g>
<!-- Node6 -->
<g id="node6" class="node"><title>Node6</title>
<g id="a_node6"><a xlink:href="../../d3/da9/classfl_1_1_operation.html#a384ae7dfec4320936f1255223b4c8a17" target="_top" xlink:title="Returns whether &#160;is greater than &#160;at the given macheps ">
<polygon fill="white" stroke="black" points="145.665,-259.5 145.665,-277.5 239.472,-277.5 239.472,-259.5 145.665,-259.5"/>
<text text-anchor="middle" x="192.568" y="-265.5" font-family="Helvetica,sans-Serif" font-size="10.00">fl::Operation::isGt</text>
</a>
</g>
</g>
<!-- Node1&#45;&gt;Node6 -->
<g id="edge5" class="edge"><title>Node1&#45;&gt;Node6</title>
<path fill="none" stroke="midnightblue" d="M63.0759,-192.305C78.3999,-209.271 104.202,-235.107 131.482,-250.5 137.837,-254.085 144.981,-257.027 152.066,-259.416"/>
<polygon fill="midnightblue" stroke="midnightblue" points="65.6733,-189.958 56.4343,-184.773 60.4229,-194.588 65.6733,-189.958"/>
</g>
<!-- Node10 -->
<g id="node10" class="node"><title>Node10</title>
<g id="a_node10"><a xlink:href="../../d3/da9/classfl_1_1_operation.html#abf7f3bcbaa6c15596aaba5077c6c11d8" target="_top" xlink:title="Returns whether &#160;is less than or equal to &#160;at the given macheps ">
<polygon fill="white" stroke="black" points="144.827,-185.5 144.827,-203.5 240.31,-203.5 240.31,-185.5 144.827,-185.5"/>
<text text-anchor="middle" x="192.568" y="-191.5" font-family="Helvetica,sans-Serif" font-size="10.00">fl::Operation::isLE</text>
</a>
</g>
</g>
<!-- Node1&#45;&gt;Node10 -->
<g id="edge10" class="edge"><title>Node1&#45;&gt;Node10</title>
<path fill="none" stroke="midnightblue" d="M105.706,-183.078C118.641,-184.799 132.236,-186.607 144.696,-188.265"/>
<polygon fill="midnightblue" stroke="midnightblue" points="105.882,-179.571 95.5082,-181.721 104.959,-186.509 105.882,-179.571"/>
</g>
<!-- Node12 -->
<g id="node12" class="node"><title>Node12</title>
<g id="a_node12"><a xlink:href="../../d3/da9/classfl_1_1_operation.html#a2f3bed3ef117dee05ddec8afd915ed25" target="_top" xlink:title="Returns whether &#160;is less than &#160;at the given macheps ">
<polygon fill="white" stroke="black" points="146.773,-296.5 146.773,-314.5 238.364,-314.5 238.364,-296.5 146.773,-296.5"/>
<text text-anchor="middle" x="192.568" y="-302.5" font-family="Helvetica,sans-Serif" font-size="10.00">fl::Operation::isLt</text>
</a>
</g>
</g>
<!-- Node1&#45;&gt;Node12 -->
<g id="edge13" class="edge"><title>Node1&#45;&gt;Node12</title>
<path fill="none" stroke="midnightblue" d="M57.3995,-193.657C70.1654,-218.501 96.3718,-262.814 131.482,-287.5 136.738,-291.195 142.763,-294.143 148.923,-296.492"/>
<polygon fill="midnightblue" stroke="midnightblue" points="60.4835,-191.998 52.9003,-184.599 54.2143,-195.112 60.4835,-191.998"/>
</g>
<!-- Node14 -->
<g id="node14" class="node"><title>Node14</title>
<g id="a_node14"><a xlink:href="../../d3/da9/classfl_1_1_operation.html#a00a16cb50581466396239084567a69d9" target="_top" xlink:title="Computes the logical AND. ">
<polygon fill="white" stroke="black" points="131.482,-148.5 131.482,-166.5 253.654,-166.5 253.654,-148.5 131.482,-148.5"/>
<text text-anchor="middle" x="192.568" y="-154.5" font-family="Helvetica,sans-Serif" font-size="10.00">fl::Operation::logicalAnd</text>
</a>
</g>
</g>
<!-- Node1&#45;&gt;Node14 -->
<g id="edge17" class="edge"><title>Node1&#45;&gt;Node14</title>
<path fill="none" stroke="midnightblue" d="M105.664,-168.326C114.134,-167.259 122.887,-166.156 131.42,-165.08"/>
<polygon fill="midnightblue" stroke="midnightblue" points="104.992,-164.883 95.5082,-169.606 105.867,-171.828 104.992,-164.883"/>
</g>
<!-- Node15 -->
<g id="node15" class="node"><title>Node15</title>
<g id="a_node15"><a xlink:href="../../d3/da9/classfl_1_1_operation.html#a7a9e7189cb217eb2f0ecc787da3b8cac" target="_top" xlink:title="Returns the complement of the value. ">
<polygon fill="white" stroke="black" points="132.598,-111.5 132.598,-129.5 252.539,-129.5 252.539,-111.5 132.598,-111.5"/>
<text text-anchor="middle" x="192.568" y="-117.5" font-family="Helvetica,sans-Serif" font-size="10.00">fl::Operation::logicalNot</text>
</a>
</g>
</g>
<!-- Node1&#45;&gt;Node15 -->
<g id="edge18" class="edge"><title>Node1&#45;&gt;Node15</title>
<path fill="none" stroke="midnightblue" d="M76.4384,-162.033C92.3359,-154.579 112.793,-145.445 131.482,-138.5 140.159,-135.276 149.698,-132.208 158.57,-129.549"/>
<polygon fill="midnightblue" stroke="midnightblue" points="74.72,-158.975 67.1858,-166.424 77.7208,-165.299 74.72,-158.975"/>
</g>
<!-- Node16 -->
<g id="node16" class="node"><title>Node16</title>
<g id="a_node16"><a xlink:href="../../d3/da9/classfl_1_1_operation.html#afbeb97277d6491ed88fe680633a64e15" target="_top" xlink:title="Computes the logical OR. ">
<polygon fill="white" stroke="black" points="134.825,-74.5 134.825,-92.5 250.312,-92.5 250.312,-74.5 134.825,-74.5"/>
<text text-anchor="middle" x="192.568" y="-80.5" font-family="Helvetica,sans-Serif" font-size="10.00">fl::Operation::logicalOr</text>
</a>
</g>
</g>
<!-- Node1&#45;&gt;Node16 -->
<g id="edge19" class="edge"><title>Node1&#45;&gt;Node16</title>
<path fill="none" stroke="midnightblue" d="M63.5433,-158.47C78.9528,-141.733 104.561,-116.572 131.482,-101.5 137.944,-97.8827 145.212,-94.917 152.402,-92.5121"/>
<polygon fill="midnightblue" stroke="midnightblue" points="60.5388,-156.577 56.462,-166.357 65.7473,-161.254 60.5388,-156.577"/>
</g>
<!-- Node17 -->
<g id="node17" class="node"><title>Node17</title>
<g id="a_node17"><a xlink:href="../../d3/da9/classfl_1_1_operation.html#a14199e82c13df48e20b38c79ef046497" target="_top" xlink:title="Returns whether &#160;is different from &#160;at the default macheps ">
<polygon fill="white" stroke="black" points="146.211,-37.5 146.211,-55.5 238.925,-55.5 238.925,-37.5 146.211,-37.5"/>
<text text-anchor="middle" x="192.568" y="-43.5" font-family="Helvetica,sans-Serif" font-size="10.00">fl::Operation::neq</text>
</a>
</g>
</g>
<!-- Node1&#45;&gt;Node17 -->
<g id="edge20" class="edge"><title>Node1&#45;&gt;Node17</title>
<path fill="none" stroke="midnightblue" d="M57.4418,-157.506C70.2572,-132.885 96.5217,-88.9685 131.482,-64.5 136.746,-60.816 142.775,-57.874 148.937,-55.5277"/>
<polygon fill="midnightblue" stroke="midnightblue" points="54.2931,-155.977 52.923,-166.483 60.5457,-159.125 54.2931,-155.977"/>
</g>
<!-- Node18 -->
<g id="node18" class="node"><title>Node18</title>
<g id="a_node18"><a xlink:href="../../d3/da9/classfl_1_1_operation.html#a09b73495e05e845caace785f7ee2edd1" target="_top" xlink:title="Returns a string representation of the given value. ">
<polygon fill="white" stroke="black" points="149,-0.5 149,-18.5 236.137,-18.5 236.137,-0.5 149,-0.5"/>
<text text-anchor="middle" x="192.568" y="-6.5" font-family="Helvetica,sans-Serif" font-size="10.00">fl::Operation::str</text>
</a>
</g>
</g>
<!-- Node1&#45;&gt;Node18 -->
<g id="edge21" class="edge"><title>Node1&#45;&gt;Node18</title>
<path fill="none" stroke="midnightblue" d="M54.1821,-156.526C64.1967,-125.009 88.5521,-61.936 131.482,-27.5 136.579,-23.4118 142.587,-20.2511 148.8,-17.8078"/>
<polygon fill="midnightblue" stroke="midnightblue" points="50.7833,-155.673 51.231,-166.259 57.4821,-157.705 50.7833,-155.673"/>
</g>
<!-- Node4 -->
<g id="node4" class="node"><title>Node4</title>
<g id="a_node4"><a xlink:href="../../d3/da9/classfl_1_1_operation.html#a1ba6888fa8ec88f19007cf3a31f3111c" target="_top" xlink:title="Indicates whether &#160;is within the boundaries (open or closed) ">
<polygon fill="white" stroke="black" points="299.667,-222.5 299.667,-240.5 383.479,-240.5 383.479,-222.5 299.667,-222.5"/>
<text text-anchor="middle" x="341.573" y="-228.5" font-family="Helvetica,sans-Serif" font-size="10.00">fl::Operation::in</text>
</a>
</g>
</g>
<!-- Node3&#45;&gt;Node4 -->
<g id="edge3" class="edge"><title>Node3&#45;&gt;Node4</title>
<path fill="none" stroke="midnightblue" d="M251.93,-231.5C267.757,-231.5 284.564,-231.5 299.239,-231.5"/>
<polygon fill="midnightblue" stroke="midnightblue" points="251.703,-228 241.703,-231.5 251.703,-235 251.703,-228"/>
</g>
<!-- Node5 -->
<g id="node5" class="node"><title>Node5</title>
<g id="a_node5"><a xlink:href="../../d3/da9/classfl_1_1_operation.html#a19c22dd3209fb7d77571c6d4f1d0adef" target="_top" xlink:title="Returns whether &#160;is greater than or equal to &#160;at the default macheps ">
<polygon fill="white" stroke="black" points="297.997,-185.5 297.997,-203.5 385.149,-203.5 385.149,-185.5 297.997,-185.5"/>
<text text-anchor="middle" x="341.573" y="-191.5" font-family="Helvetica,sans-Serif" font-size="10.00">fl::Operation::ge</text>
</a>
</g>
</g>
<!-- Node3&#45;&gt;Node5 -->
<g id="edge4" class="edge"><title>Node3&#45;&gt;Node5</title>
<path fill="none" stroke="midnightblue" d="M239.246,-220.003C260.335,-214.695 285.009,-208.485 304.728,-203.522"/>
<polygon fill="midnightblue" stroke="midnightblue" points="238.373,-216.614 229.53,-222.449 240.082,-223.402 238.373,-216.614"/>
</g>
<!-- Node6&#45;&gt;Node4 -->
<g id="edge8" class="edge"><title>Node6&#45;&gt;Node4</title>
<path fill="none" stroke="midnightblue" d="M239.246,-257.003C260.335,-251.695 285.009,-245.485 304.728,-240.522"/>
<polygon fill="midnightblue" stroke="midnightblue" points="238.373,-253.614 229.53,-259.449 240.082,-260.402 238.373,-253.614"/>
</g>
<!-- Node7 -->
<g id="node7" class="node"><title>Node7</title>
<g id="a_node7"><a xlink:href="../../d3/da9/classfl_1_1_operation.html#a00089eb5294503c9518ee322c3c53001" target="_top" xlink:title="Returns &#160;bounded in . ">
<polygon fill="white" stroke="black" points="289.654,-296.5 289.654,-314.5 393.491,-314.5 393.491,-296.5 289.654,-296.5"/>
<text text-anchor="middle" x="341.573" y="-302.5" font-family="Helvetica,sans-Serif" font-size="10.00">fl::Operation::bound</text>
</a>
</g>
</g>
<!-- Node6&#45;&gt;Node7 -->
<g id="edge6" class="edge"><title>Node6&#45;&gt;Node7</title>
<path fill="none" stroke="midnightblue" d="M239.246,-279.997C260.335,-285.305 285.009,-291.515 304.728,-296.478"/>
<polygon fill="midnightblue" stroke="midnightblue" points="240.082,-276.598 229.53,-277.551 238.373,-283.386 240.082,-276.598"/>
</g>
<!-- Node9 -->
<g id="node9" class="node"><title>Node9</title>
<g id="a_node9"><a xlink:href="../../d3/da9/classfl_1_1_operation.html#afb41c5a5b6fd59b844b19c79f07646af" target="_top" xlink:title="Returns whether &#160;is greater than or equal to &#160;at the default macheps ">
<polygon fill="white" stroke="black" points="299.388,-259.5 299.388,-277.5 383.757,-277.5 383.757,-259.5 299.388,-259.5"/>
<text text-anchor="middle" x="341.573" y="-265.5" font-family="Helvetica,sans-Serif" font-size="10.00">fl::Operation::gt</text>
</a>
</g>
</g>
<!-- Node6&#45;&gt;Node9 -->
<g id="edge9" class="edge"><title>Node6&#45;&gt;Node9</title>
<path fill="none" stroke="midnightblue" d="M249.712,-268.5C266.132,-268.5 283.779,-268.5 299.112,-268.5"/>
<polygon fill="midnightblue" stroke="midnightblue" points="249.678,-265 239.678,-268.5 249.678,-272 249.678,-265"/>
</g>
<!-- Node8 -->
<g id="node8" class="node"><title>Node8</title>
<g id="a_node8"><a xlink:href="../../d3/da9/classfl_1_1_operation.html#a794e307d963dda1081aa55a2c0d20fa9" target="_top" xlink:title="Linearly interpolates the parameter &#160;in range [fromMin,fromMax] to a new value in the range [toMin...">
<polygon fill="white" stroke="black" points="429.491,-296.5 429.491,-314.5 528.865,-314.5 528.865,-296.5 429.491,-296.5"/>
<text text-anchor="middle" x="479.178" y="-302.5" font-family="Helvetica,sans-Serif" font-size="10.00">fl::Operation::scale</text>
</a>
</g>
</g>
<!-- Node7&#45;&gt;Node8 -->
<g id="edge7" class="edge"><title>Node7&#45;&gt;Node8</title>
<path fill="none" stroke="midnightblue" d="M403.991,-305.5C412.397,-305.5 420.934,-305.5 429.081,-305.5"/>
<polygon fill="midnightblue" stroke="midnightblue" points="403.839,-302 393.839,-305.5 403.839,-309 403.839,-302"/>
</g>
<!-- Node10&#45;&gt;Node4 -->
<g id="edge11" class="edge"><title>Node10&#45;&gt;Node4</title>
<path fill="none" stroke="midnightblue" d="M239.246,-205.997C260.335,-211.305 285.009,-217.515 304.728,-222.478"/>
<polygon fill="midnightblue" stroke="midnightblue" points="240.082,-202.598 229.53,-203.551 238.373,-209.386 240.082,-202.598"/>
</g>
<!-- Node11 -->
<g id="node11" class="node"><title>Node11</title>
<g id="a_node11"><a xlink:href="../../d3/da9/classfl_1_1_operation.html#a5d952941097d38c71176525a48b6bd99" target="_top" xlink:title="Returns whether &#160;is less than or equal to &#160;at the default macheps ">
<polygon fill="white" stroke="black" points="299.667,-148.5 299.667,-166.5 383.479,-166.5 383.479,-148.5 299.667,-148.5"/>
<text text-anchor="middle" x="341.573" y="-154.5" font-family="Helvetica,sans-Serif" font-size="10.00">fl::Operation::le</text>
</a>
</g>
</g>
<!-- Node10&#45;&gt;Node11 -->
<g id="edge12" class="edge"><title>Node10&#45;&gt;Node11</title>
<path fill="none" stroke="midnightblue" d="M239.246,-183.003C260.335,-177.695 285.009,-171.485 304.728,-166.522"/>
<polygon fill="midnightblue" stroke="midnightblue" points="238.373,-179.614 229.53,-185.449 240.082,-186.402 238.373,-179.614"/>
</g>
<!-- Node12&#45;&gt;Node4 -->
<g id="edge15" class="edge"><title>Node12&#45;&gt;Node4</title>
<path fill="none" stroke="midnightblue" d="M243.614,-292.699C247.104,-291.147 250.488,-289.42 253.654,-287.5 273.273,-275.604 270.439,-263.038 289.654,-250.5 295.739,-246.53 302.77,-243.229 309.627,-240.554"/>
<polygon fill="midnightblue" stroke="midnightblue" points="242.226,-289.484 234.209,-296.41 244.796,-295.995 242.226,-289.484"/>
</g>
<!-- Node12&#45;&gt;Node7 -->
<g id="edge14" class="edge"><title>Node12&#45;&gt;Node7</title>
<path fill="none" stroke="midnightblue" d="M248.538,-305.5C261.967,-305.5 276.278,-305.5 289.516,-305.5"/>
<polygon fill="midnightblue" stroke="midnightblue" points="248.473,-302 238.473,-305.5 248.473,-309 248.473,-302"/>
</g>
<!-- Node13 -->
<g id="node13" class="node"><title>Node13</title>
<g id="a_node13"><a xlink:href="../../d3/da9/classfl_1_1_operation.html#ac15356602fa5b3064dcfb770234156ba" target="_top" xlink:title="Returns whether &#160;is less than &#160;at the default macheps ">
<polygon fill="white" stroke="black" points="301.058,-333.5 301.058,-351.5 382.087,-351.5 382.087,-333.5 301.058,-333.5"/>
<text text-anchor="middle" x="341.573" y="-339.5" font-family="Helvetica,sans-Serif" font-size="10.00">fl::Operation::lt</text>
</a>
</g>
</g>
<!-- Node12&#45;&gt;Node13 -->
<g id="edge16" class="edge"><title>Node12&#45;&gt;Node13</title>
<path fill="none" stroke="midnightblue" d="M239.246,-316.997C260.335,-322.305 285.009,-328.515 304.728,-333.478"/>
<polygon fill="midnightblue" stroke="midnightblue" points="240.082,-313.598 229.53,-314.551 238.373,-320.386 240.082,-313.598"/>
</g>
<!-- Node19 -->
<g id="node19" class="node"><title>Node19</title>
<g id="a_node19"><a xlink:href="../../d3/da9/classfl_1_1_operation.html#a6d59606686bb29794d3811004934d5e7" target="_top" xlink:title="Joins a vector of elements by the given separator into a single string. ">
<polygon fill="white" stroke="black" points="295.775,-0.5 295.775,-18.5 387.371,-18.5 387.371,-0.5 295.775,-0.5"/>
<text text-anchor="middle" x="341.573" y="-6.5" font-family="Helvetica,sans-Serif" font-size="10.00">fl::Operation::join</text>
</a>
</g>
</g>
<!-- Node18&#45;&gt;Node19 -->
<g id="edge22" class="edge"><title>Node18&#45;&gt;Node19</title>
<path fill="none" stroke="midnightblue" d="M246.759,-9.5C262.756,-9.5 280.145,-9.5 295.558,-9.5"/>
<polygon fill="midnightblue" stroke="midnightblue" points="246.483,-6.0001 236.483,-9.5 246.483,-13.0001 246.483,-6.0001"/>
</g>
</g>
</svg>
