<?xml version="1.0" encoding="UTF-8" standalone="no"?>
<!DOCTYPE svg PUBLIC "-//W3C//DTD SVG 1.1//EN"
 "http://www.w3.org/Graphics/SVG/1.1/DTD/svg11.dtd">
<!-- Generated by graphviz version 2.38.0 (20140413.2041)
 -->
<!-- Title: fl::Operation::toScalar Pages: 1 -->
<svg width="277pt" height="64pt"
 viewBox="0.00 0.00 277.19 64.00" xmlns="http://www.w3.org/2000/svg" xmlns:xlink="http://www.w3.org/1999/xlink">
<g id="graph0" class="graph" transform="scale(1 1) rotate(0) translate(4 60)">
<title>fl::Operation::toScalar</title>
<polygon fill="white" stroke="none" points="-4,4 -4,-60 273.191,-60 273.191,4 -4,4"/>
<!-- Node1 -->
<g id="node1" class="node"><title>Node1</title>
<polygon fill="#bfbfbf" stroke="black" points="0,-18.5 0,-36.5 112.714,-36.5 112.714,-18.5 0,-18.5"/>
<text text-anchor="middle" x="56.3569" y="-24.5" font-family="Helvetica,sans-Serif" font-size="10.00">fl::Operation::toScalar</text>
</g>
<!-- Node2 -->
<g id="node2" class="node"><title>Node2</title>
<g id="a_node2"><a xlink:href="../../d3/da9/classfl_1_1_operation.html#a33778a1ae2ccbe4f1187737dfdb5556f" target="_top" xlink:title="Indicates whether the string can be converted to a numeric value. ">
<polygon fill="white" stroke="black" points="148.714,-37.5 148.714,-55.5 269.191,-55.5 269.191,-37.5 148.714,-37.5"/>
<text text-anchor="middle" x="208.953" y="-43.5" font-family="Helvetica,sans-Serif" font-size="10.00">fl::Operation::isNumeric</text>
</a>
</g>
</g>
<!-- Node1&#45;&gt;Node2 -->
<g id="edge1" class="edge"><title>Node1&#45;&gt;Node2</title>
<path fill="none" stroke="midnightblue" d="M123.17,-35.8033C131.592,-36.866 140.176,-37.9489 148.489,-38.9977"/>
<polygon fill="midnightblue" stroke="midnightblue" points="123.365,-32.3003 113.005,-34.5209 122.489,-39.2452 123.365,-32.3003"/>
</g>
<!-- Node3 -->
<g id="node3" class="node"><title>Node3</title>
<g id="a_node3"><a xlink:href="../../d3/da9/classfl_1_1_operation.html#acddb7dadb58fb940b0156859d0ecdefd" target="_top" xlink:title="Parses the given string into a vector of scalar values. ">
<polygon fill="white" stroke="black" points="150.096,-0.5 150.096,-18.5 267.81,-18.5 267.81,-0.5 150.096,-0.5"/>
<text text-anchor="middle" x="208.953" y="-6.5" font-family="Helvetica,sans-Serif" font-size="10.00">fl::Operation::toScalars</text>
</a>
</g>
</g>
<!-- Node1&#45;&gt;Node3 -->
<g id="edge2" class="edge"><title>Node1&#45;&gt;Node3</title>
<path fill="none" stroke="midnightblue" d="M123.037,-19.6495C132.017,-18.5762 141.182,-17.4807 150.011,-16.4255"/>
<polygon fill="midnightblue" stroke="midnightblue" points="122.519,-16.1864 113.005,-20.8486 123.35,-23.137 122.519,-16.1864"/>
</g>
</g>
</svg>
