<?xml version="1.0" encoding="UTF-8" standalone="no"?>
<!DOCTYPE svg PUBLIC "-//W3C//DTD SVG 1.1//EN"
 "http://www.w3.org/Graphics/SVG/1.1/DTD/svg11.dtd">
<!-- Generated by graphviz version 2.38.0 (20140413.2041)
 -->
<!-- Title: fl::Operation::max Pages: 1 -->
<svg width="378pt" height="27pt"
 viewBox="0.00 0.00 378.13 27.00" xmlns="http://www.w3.org/2000/svg" xmlns:xlink="http://www.w3.org/1999/xlink">
<g id="graph0" class="graph" transform="scale(1 1) rotate(0) translate(4 23)">
<title>fl::Operation::max</title>
<polygon fill="white" stroke="none" points="-4,4 -4,-23 374.132,-23 374.132,4 -4,4"/>
<!-- Node118 -->
<g id="node1" class="node"><title>Node118</title>
<polygon fill="#bfbfbf" stroke="black" points="0,-0.5 0,-18.5 94.9209,-18.5 94.9209,-0.5 0,-0.5"/>
<text text-anchor="middle" x="47.4604" y="-6.5" font-family="Helvetica,sans-Serif" font-size="10.00">fl::Operation::max</text>
</g>
<!-- Node119 -->
<g id="node2" class="node"><title>Node119</title>
<g id="a_node2"><a xlink:href="../../d3/da9/classfl_1_1_operation.html#a00089eb5294503c9518ee322c3c53001" target="_top" xlink:title="Returns &#160;bounded in . ">
<polygon fill="white" stroke="black" points="130.921,-0.5 130.921,-18.5 234.758,-18.5 234.758,-0.5 130.921,-0.5"/>
<text text-anchor="middle" x="182.839" y="-6.5" font-family="Helvetica,sans-Serif" font-size="10.00">fl::Operation::bound</text>
</a>
</g>
</g>
<!-- Node118&#45;&gt;Node119 -->
<g id="edge1" class="edge"><title>Node118&#45;&gt;Node119</title>
<path fill="none" stroke="midnightblue" d="M105.326,-9.5C113.822,-9.5 122.535,-9.5 130.897,-9.5"/>
<polygon fill="midnightblue" stroke="midnightblue" points="105.11,-6.0001 95.1099,-9.5 105.11,-13.0001 105.11,-6.0001"/>
</g>
<!-- Node120 -->
<g id="node3" class="node"><title>Node120</title>
<g id="a_node3"><a xlink:href="../../d3/da9/classfl_1_1_operation.html#a794e307d963dda1081aa55a2c0d20fa9" target="_top" xlink:title="Linearly interpolates the parameter &#160;in range [fromMin,fromMax] to a new value in the range [toMin...">
<polygon fill="white" stroke="black" points="270.758,-0.5 270.758,-18.5 370.132,-18.5 370.132,-0.5 270.758,-0.5"/>
<text text-anchor="middle" x="320.445" y="-6.5" font-family="Helvetica,sans-Serif" font-size="10.00">fl::Operation::scale</text>
</a>
</g>
</g>
<!-- Node119&#45;&gt;Node120 -->
<g id="edge2" class="edge"><title>Node119&#45;&gt;Node120</title>
<path fill="none" stroke="midnightblue" d="M245.258,-9.5C253.663,-9.5 262.201,-9.5 270.347,-9.5"/>
<polygon fill="midnightblue" stroke="midnightblue" points="245.106,-6.0001 235.106,-9.5 245.106,-13.0001 245.106,-6.0001"/>
</g>
</g>
</svg>
