<?xml version="1.0" encoding="UTF-8" standalone="no"?>
<!DOCTYPE svg PUBLIC "-//W3C//DTD SVG 1.1//EN"
 "http://www.w3.org/Graphics/SVG/1.1/DTD/svg11.dtd">
<!-- Generated by graphviz version 2.38.0 (20140413.2041)
 -->
<!-- Title: fl::Operation::isLE Pages: 1 -->
<svg width="223pt" height="64pt"
 viewBox="0.00 0.00 223.29 64.00" xmlns="http://www.w3.org/2000/svg" xmlns:xlink="http://www.w3.org/1999/xlink">
<g id="graph0" class="graph" transform="scale(1 1) rotate(0) translate(4 60)">
<title>fl::Operation::isLE</title>
<polygon fill="white" stroke="none" points="-4,4 -4,-60 219.295,-60 219.295,4 -4,4"/>
<!-- Node61 -->
<g id="node1" class="node"><title>Node61</title>
<polygon fill="#bfbfbf" stroke="black" points="0,-18.5 0,-36.5 95.4824,-36.5 95.4824,-18.5 0,-18.5"/>
<text text-anchor="middle" x="47.7412" y="-24.5" font-family="Helvetica,sans-Serif" font-size="10.00">fl::Operation::isLE</text>
</g>
<!-- Node62 -->
<g id="node2" class="node"><title>Node62</title>
<g id="a_node2"><a xlink:href="../../d3/da9/classfl_1_1_operation.html#a1ba6888fa8ec88f19007cf3a31f3111c" target="_top" xlink:title="Indicates whether &#160;is within the boundaries (open or closed) ">
<polygon fill="white" stroke="black" points="131.482,-37.5 131.482,-55.5 215.295,-55.5 215.295,-37.5 131.482,-37.5"/>
<text text-anchor="middle" x="173.389" y="-43.5" font-family="Helvetica,sans-Serif" font-size="10.00">fl::Operation::in</text>
</a>
</g>
</g>
<!-- Node61&#45;&gt;Node62 -->
<g id="edge1" class="edge"><title>Node61&#45;&gt;Node62</title>
<path fill="none" stroke="midnightblue" d="M105.555,-36.2301C114.218,-37.5613 123.013,-38.9128 131.253,-40.1791"/>
<polygon fill="midnightblue" stroke="midnightblue" points="105.903,-32.7426 95.487,-34.6831 104.839,-39.6614 105.903,-32.7426"/>
</g>
<!-- Node63 -->
<g id="node3" class="node"><title>Node63</title>
<g id="a_node3"><a xlink:href="../../d3/da9/classfl_1_1_operation.html#a5d952941097d38c71176525a48b6bd99" target="_top" xlink:title="Returns whether &#160;is less than or equal to &#160;at the default tolerance. ">
<polygon fill="white" stroke="black" points="131.482,-0.5 131.482,-18.5 215.295,-18.5 215.295,-0.5 131.482,-0.5"/>
<text text-anchor="middle" x="173.389" y="-6.5" font-family="Helvetica,sans-Serif" font-size="10.00">fl::Operation::le</text>
</a>
</g>
</g>
<!-- Node61&#45;&gt;Node63 -->
<g id="edge2" class="edge"><title>Node61&#45;&gt;Node63</title>
<path fill="none" stroke="midnightblue" d="M105.555,-19.2294C114.218,-17.9682 123.013,-16.6879 131.253,-15.4883"/>
<polygon fill="midnightblue" stroke="midnightblue" points="104.878,-15.7908 95.487,-20.695 105.887,-22.7178 104.878,-15.7908"/>
</g>
</g>
</svg>
