<?xml version="1.0" encoding="UTF-8" standalone="no"?>
<!DOCTYPE svg PUBLIC "-//W3C//DTD SVG 1.1//EN"
 "http://www.w3.org/Graphics/SVG/1.1/DTD/svg11.dtd">
<!-- Generated by graphviz version 2.38.0 (20140413.2041)
 -->
<!-- Title: fl::Operation::standardDeviation Pages: 1 -->
<svg width="452pt" height="27pt"
 viewBox="0.00 0.00 451.51 27.00" xmlns="http://www.w3.org/2000/svg" xmlns:xlink="http://www.w3.org/1999/xlink">
<g id="graph0" class="graph" transform="scale(1 1) rotate(0) translate(4 23)">
<title>fl::Operation::standardDeviation</title>
<polygon fill="white" stroke="none" points="-4,4 -4,-23 447.506,-23 447.506,4 -4,4"/>
<!-- Node1 -->
<g id="node1" class="node"><title>Node1</title>
<polygon fill="#bfbfbf" stroke="black" points="0,-0.5 0,-18.5 156.635,-18.5 156.635,-0.5 0,-0.5"/>
<text text-anchor="middle" x="78.3174" y="-6.5" font-family="Helvetica,sans-Serif" font-size="10.00">fl::Operation::standardDeviation</text>
</g>
<!-- Node2 -->
<g id="node2" class="node"><title>Node2</title>
<g id="a_node2"><a xlink:href="../../d3/da9/classfl_1_1_operation.html#aee98a87d50679391d98aabc156f69546" target="_top" xlink:title="Computes the variance of the sample. ">
<polygon fill="white" stroke="black" points="192.635,-0.5 192.635,-18.5 306.462,-18.5 306.462,-0.5 192.635,-0.5"/>
<text text-anchor="middle" x="249.548" y="-6.5" font-family="Helvetica,sans-Serif" font-size="10.00">fl::Operation::variance</text>
</a>
</g>
</g>
<!-- Node1&#45;&gt;Node2 -->
<g id="edge1" class="edge"><title>Node1&#45;&gt;Node2</title>
<path fill="none" stroke="midnightblue" d="M156.999,-9.5C165.523,-9.5 174.143,-9.5 182.507,-9.5"/>
<polygon fill="midnightblue" stroke="midnightblue" points="182.56,-13.0001 192.56,-9.5 182.56,-6.0001 182.56,-13.0001"/>
</g>
<!-- Node3 -->
<g id="node3" class="node"><title>Node3</title>
<g id="a_node3"><a xlink:href="../../d3/da9/classfl_1_1_operation.html#a76c1417c47223f30d6ad1a981769e391" target="_top" xlink:title="Computes the mean of the sample. ">
<polygon fill="white" stroke="black" points="342.462,-0.5 342.462,-18.5 443.506,-18.5 443.506,-0.5 342.462,-0.5"/>
<text text-anchor="middle" x="392.984" y="-6.5" font-family="Helvetica,sans-Serif" font-size="10.00">fl::Operation::mean</text>
</a>
</g>
</g>
<!-- Node2&#45;&gt;Node3 -->
<g id="edge2" class="edge"><title>Node2&#45;&gt;Node3</title>
<path fill="none" stroke="midnightblue" d="M306.854,-9.5C315.178,-9.5 323.781,-9.5 332.174,-9.5"/>
<polygon fill="midnightblue" stroke="midnightblue" points="332.274,-13.0001 342.274,-9.5 332.274,-6.0001 332.274,-13.0001"/>
</g>
</g>
</svg>
