<?xml version="1.0" encoding="UTF-8" standalone="no"?>
<!DOCTYPE svg PUBLIC "-//W3C//DTD SVG 1.1//EN"
 "http://www.w3.org/Graphics/SVG/1.1/DTD/svg11.dtd">
<!-- Generated by graphviz version 2.38.0 (20140413.2041)
 -->
<!-- Title: fl::Operation::mean Pages: 1 -->
<svg width="494pt" height="64pt"
 viewBox="0.00 0.00 494.31 64.00" xmlns="http://www.w3.org/2000/svg" xmlns:xlink="http://www.w3.org/1999/xlink">
<g id="graph0" class="graph" transform="scale(1 1) rotate(0) translate(4 60)">
<title>fl::Operation::mean</title>
<polygon fill="white" stroke="none" points="-4,4 -4,-60 490.313,-60 490.313,4 -4,4"/>
<!-- Node1 -->
<g id="node1" class="node"><title>Node1</title>
<polygon fill="#bfbfbf" stroke="black" points="0,-18.5 0,-36.5 101.044,-36.5 101.044,-18.5 0,-18.5"/>
<text text-anchor="middle" x="50.522" y="-24.5" font-family="Helvetica,sans-Serif" font-size="10.00">fl::Operation::mean</text>
</g>
<!-- Node2 -->
<g id="node2" class="node"><title>Node2</title>
<g id="a_node2"><a xlink:href="../../d3/da9/classfl_1_1_operation.html#a13dab25a36567010197cd2f6bdc1cf02" target="_top" xlink:title="Computes the standard deviation of the sample. ">
<polygon fill="white" stroke="black" points="137.044,-37.5 137.044,-55.5 293.679,-55.5 293.679,-37.5 137.044,-37.5"/>
<text text-anchor="middle" x="215.361" y="-43.5" font-family="Helvetica,sans-Serif" font-size="10.00">fl::Operation::standardDeviation</text>
</a>
</g>
</g>
<!-- Node1&#45;&gt;Node2 -->
<g id="edge1" class="edge"><title>Node1&#45;&gt;Node2</title>
<path fill="none" stroke="midnightblue" d="M111.294,-34.4742C119.673,-35.4518 128.382,-36.468 137.029,-37.4769"/>
<polygon fill="midnightblue" stroke="midnightblue" points="111.602,-30.9865 101.264,-33.3039 110.791,-37.9393 111.602,-30.9865"/>
</g>
<!-- Node3 -->
<g id="node3" class="node"><title>Node3</title>
<g id="a_node3"><a xlink:href="../../d3/da9/classfl_1_1_operation.html#aee98a87d50679391d98aabc156f69546" target="_top" xlink:title="Computes the variance of the sample. ">
<polygon fill="white" stroke="black" points="158.448,-0.5 158.448,-18.5 272.275,-18.5 272.275,-0.5 158.448,-0.5"/>
<text text-anchor="middle" x="215.361" y="-6.5" font-family="Helvetica,sans-Serif" font-size="10.00">fl::Operation::variance</text>
</a>
</g>
</g>
<!-- Node1&#45;&gt;Node3 -->
<g id="edge2" class="edge"><title>Node1&#45;&gt;Node3</title>
<path fill="none" stroke="midnightblue" d="M111.208,-20.9024C126.624,-19.1983 143.162,-17.3702 158.382,-15.6879"/>
<polygon fill="midnightblue" stroke="midnightblue" points="110.819,-17.424 101.264,-22.0016 111.588,-24.3816 110.819,-17.424"/>
</g>
<!-- Node4 -->
<g id="node4" class="node"><title>Node4</title>
<g id="a_node4"><a xlink:href="../../d3/da9/classfl_1_1_operation.html#a4ee4bff756a04b18c4e6ebce8171c45c" target="_top" xlink:title="Computes the standard deviation of the sample using the given mean. ">
<polygon fill="white" stroke="black" points="329.679,-0.5 329.679,-18.5 486.313,-18.5 486.313,-0.5 329.679,-0.5"/>
<text text-anchor="middle" x="407.996" y="-6.5" font-family="Helvetica,sans-Serif" font-size="10.00">fl::Operation::standardDeviation</text>
</a>
</g>
</g>
<!-- Node3&#45;&gt;Node4 -->
<g id="edge3" class="edge"><title>Node3&#45;&gt;Node4</title>
<path fill="none" stroke="midnightblue" d="M282.747,-9.5C297.783,-9.5 313.881,-9.5 329.337,-9.5"/>
<polygon fill="midnightblue" stroke="midnightblue" points="282.527,-6.0001 272.527,-9.5 282.527,-13.0001 282.527,-6.0001"/>
</g>
</g>
</svg>
