<?xml version="1.0" encoding="UTF-8" standalone="no"?>
<!DOCTYPE svg PUBLIC "-//W3C//DTD SVG 1.1//EN"
 "http://www.w3.org/Graphics/SVG/1.1/DTD/svg11.dtd">
<!-- Generated by graphviz version 2.38.0 (20140413.2041)
 -->
<!-- Title: fl::Operation::in Pages: 1 -->
<svg width="226pt" height="138pt"
 viewBox="0.00 0.00 225.51 138.00" xmlns="http://www.w3.org/2000/svg" xmlns:xlink="http://www.w3.org/1999/xlink">
<g id="graph0" class="graph" transform="scale(1 1) rotate(0) translate(4 134)">
<title>fl::Operation::in</title>
<polygon fill="white" stroke="none" points="-4,4 -4,-134 221.512,-134 221.512,4 -4,4"/>
<!-- Node25 -->
<g id="node1" class="node"><title>Node25</title>
<polygon fill="#bfbfbf" stroke="black" points="0,-55.5 0,-73.5 83.8125,-73.5 83.8125,-55.5 0,-55.5"/>
<text text-anchor="middle" x="41.9062" y="-61.5" font-family="Helvetica,sans-Serif" font-size="10.00">fl::Operation::in</text>
</g>
<!-- Node26 -->
<g id="node2" class="node"><title>Node26</title>
<g id="a_node2"><a xlink:href="../../d3/da9/classfl_1_1_operation.html#a8d2029c04a677e50e8a7dd773027f453" target="_top" xlink:title="Returns whether &#160;is greater than or equal to &#160;at the given tolerance. ">
<polygon fill="white" stroke="black" points="119.812,-111.5 119.812,-129.5 217.512,-129.5 217.512,-111.5 119.812,-111.5"/>
<text text-anchor="middle" x="168.662" y="-117.5" font-family="Helvetica,sans-Serif" font-size="10.00">fl::Operation::isGE</text>
</a>
</g>
</g>
<!-- Node25&#45;&gt;Node26 -->
<g id="edge1" class="edge"><title>Node25&#45;&gt;Node26</title>
<path fill="none" stroke="midnightblue" d="M60.0856,-73.5999C75.5216,-81.6287 98.9093,-93.4306 119.812,-102.5 123.955,-104.297 128.341,-106.091 132.709,-107.812"/>
<polygon fill="midnightblue" stroke="midnightblue" points="131.555,-111.118 142.145,-111.435 134.064,-104.583 131.555,-111.118"/>
</g>
<!-- Node27 -->
<g id="node3" class="node"><title>Node27</title>
<g id="a_node3"><a xlink:href="../../d3/da9/classfl_1_1_operation.html#ac246bb8819bb9bc5f1a5c1bcb1083ff4" target="_top" xlink:title="Returns whether &#160;is greater than &#160;at the given tolerance. ">
<polygon fill="white" stroke="black" points="121.758,-74.5 121.758,-92.5 215.566,-92.5 215.566,-74.5 121.758,-74.5"/>
<text text-anchor="middle" x="168.662" y="-80.5" font-family="Helvetica,sans-Serif" font-size="10.00">fl::Operation::isGt</text>
</a>
</g>
</g>
<!-- Node25&#45;&gt;Node27 -->
<g id="edge2" class="edge"><title>Node25&#45;&gt;Node27</title>
<path fill="none" stroke="midnightblue" d="M84.1017,-70.774C92.765,-72.0934 102.047,-73.507 111.16,-74.8948"/>
<polygon fill="midnightblue" stroke="midnightblue" points="110.922,-78.3989 121.335,-76.4445 111.976,-71.4787 110.922,-78.3989"/>
</g>
<!-- Node28 -->
<g id="node4" class="node"><title>Node28</title>
<g id="a_node4"><a xlink:href="../../d3/da9/classfl_1_1_operation.html#aa94041cd36b23a5c9fe14cd78a24fe44" target="_top" xlink:title="Returns whether &#160;is less than or equal to &#160;at the given tolerance. ">
<polygon fill="white" stroke="black" points="120.921,-37.5 120.921,-55.5 216.403,-55.5 216.403,-37.5 120.921,-37.5"/>
<text text-anchor="middle" x="168.662" y="-43.5" font-family="Helvetica,sans-Serif" font-size="10.00">fl::Operation::isLE</text>
</a>
</g>
</g>
<!-- Node25&#45;&gt;Node28 -->
<g id="edge3" class="edge"><title>Node25&#45;&gt;Node28</title>
<path fill="none" stroke="midnightblue" d="M84.1017,-58.5562C92.6618,-57.3212 101.826,-55.999 110.834,-54.6992"/>
<polygon fill="midnightblue" stroke="midnightblue" points="111.501,-58.1394 120.898,-53.2471 110.501,-51.2111 111.501,-58.1394"/>
</g>
<!-- Node29 -->
<g id="node5" class="node"><title>Node29</title>
<g id="a_node5"><a xlink:href="../../d3/da9/classfl_1_1_operation.html#a866ef214ee722de7a15352b60db22fed" target="_top" xlink:title="Returns whether &#160;is less than &#160;at the given tolerance. ">
<polygon fill="white" stroke="black" points="122.867,-0.5 122.867,-18.5 214.458,-18.5 214.458,-0.5 122.867,-0.5"/>
<text text-anchor="middle" x="168.662" y="-6.5" font-family="Helvetica,sans-Serif" font-size="10.00">fl::Operation::isLt</text>
</a>
</g>
</g>
<!-- Node25&#45;&gt;Node29 -->
<g id="edge4" class="edge"><title>Node25&#45;&gt;Node29</title>
<path fill="none" stroke="midnightblue" d="M61.4135,-55.4566C76.9041,-47.9792 99.6487,-37.2134 119.812,-28.5 124.392,-26.5211 129.249,-24.502 134.045,-22.5543"/>
<polygon fill="midnightblue" stroke="midnightblue" points="135.711,-25.6574 143.694,-18.6922 133.11,-19.1585 135.711,-25.6574"/>
</g>
</g>
</svg>
