<?xml version="1.0" encoding="UTF-8" standalone="no"?>
<!DOCTYPE svg PUBLIC "-//W3C//DTD SVG 1.1//EN"
 "http://www.w3.org/Graphics/SVG/1.1/DTD/svg11.dtd">
<!-- Generated by graphviz version 2.38.0 (20140413.2041)
 -->
<!-- Title: fl::Operation::isLt Pages: 1 -->
<svg width="375pt" height="101pt"
 viewBox="0.00 0.00 374.80 101.00" xmlns="http://www.w3.org/2000/svg" xmlns:xlink="http://www.w3.org/1999/xlink">
<g id="graph0" class="graph" transform="scale(1 1) rotate(0) translate(4 97)">
<title>fl::Operation::isLt</title>
<polygon fill="white" stroke="none" points="-4,4 -4,-97 370.802,-97 370.802,4 -4,4"/>
<!-- Node1 -->
<g id="node1" class="node"><title>Node1</title>
<polygon fill="#bfbfbf" stroke="black" points="0,-37.5 0,-55.5 91.5908,-55.5 91.5908,-37.5 0,-37.5"/>
<text text-anchor="middle" x="45.7954" y="-43.5" font-family="Helvetica,sans-Serif" font-size="10.00">fl::Operation::isLt</text>
</g>
<!-- Node2 -->
<g id="node2" class="node"><title>Node2</title>
<g id="a_node2"><a xlink:href="../../d3/da9/classfl_1_1_operation.html#a00089eb5294503c9518ee322c3c53001" target="_top" xlink:title="Returns &#160;bounded in . ">
<polygon fill="white" stroke="black" points="127.591,-74.5 127.591,-92.5 231.428,-92.5 231.428,-74.5 127.591,-74.5"/>
<text text-anchor="middle" x="179.509" y="-80.5" font-family="Helvetica,sans-Serif" font-size="10.00">fl::Operation::bound</text>
</a>
</g>
</g>
<!-- Node1&#45;&gt;Node2 -->
<g id="edge1" class="edge"><title>Node1&#45;&gt;Node2</title>
<path fill="none" stroke="midnightblue" d="M88.7133,-58.2752C107.305,-63.4979 128.843,-69.5482 146.165,-74.414"/>
<polygon fill="midnightblue" stroke="midnightblue" points="89.5902,-54.8862 79.0162,-55.5512 87.697,-61.6253 89.5902,-54.8862"/>
</g>
<!-- Node4 -->
<g id="node4" class="node"><title>Node4</title>
<g id="a_node4"><a xlink:href="../../d3/da9/classfl_1_1_operation.html#a1ba6888fa8ec88f19007cf3a31f3111c" target="_top" xlink:title="Indicates whether &#160;is within the boundaries (open or closed) ">
<polygon fill="white" stroke="black" points="137.603,-37.5 137.603,-55.5 221.416,-55.5 221.416,-37.5 137.603,-37.5"/>
<text text-anchor="middle" x="179.509" y="-43.5" font-family="Helvetica,sans-Serif" font-size="10.00">fl::Operation::in</text>
</a>
</g>
</g>
<!-- Node1&#45;&gt;Node4 -->
<g id="edge3" class="edge"><title>Node1&#45;&gt;Node4</title>
<path fill="none" stroke="midnightblue" d="M101.986,-46.5C113.81,-46.5 126.106,-46.5 137.293,-46.5"/>
<polygon fill="midnightblue" stroke="midnightblue" points="101.755,-43.0001 91.7555,-46.5 101.755,-50.0001 101.755,-43.0001"/>
</g>
<!-- Node5 -->
<g id="node5" class="node"><title>Node5</title>
<g id="a_node5"><a xlink:href="../../d3/da9/classfl_1_1_operation.html#ac15356602fa5b3064dcfb770234156ba" target="_top" xlink:title="Returns whether &#160;is less than &#160;at the default macheps ">
<polygon fill="white" stroke="black" points="138.995,-0.5 138.995,-18.5 220.024,-18.5 220.024,-0.5 138.995,-0.5"/>
<text text-anchor="middle" x="179.509" y="-6.5" font-family="Helvetica,sans-Serif" font-size="10.00">fl::Operation::lt</text>
</a>
</g>
</g>
<!-- Node1&#45;&gt;Node5 -->
<g id="edge4" class="edge"><title>Node1&#45;&gt;Node5</title>
<path fill="none" stroke="midnightblue" d="M88.7133,-34.7248C107.305,-29.5021 128.843,-23.4518 146.165,-18.586"/>
<polygon fill="midnightblue" stroke="midnightblue" points="87.697,-31.3747 79.0162,-37.4488 89.5902,-38.1138 87.697,-31.3747"/>
</g>
<!-- Node3 -->
<g id="node3" class="node"><title>Node3</title>
<g id="a_node3"><a xlink:href="../../d3/da9/classfl_1_1_operation.html#a794e307d963dda1081aa55a2c0d20fa9" target="_top" xlink:title="Linearly interpolates the parameter &#160;in range [fromMin,fromMax] to a new value in the range [toMin...">
<polygon fill="white" stroke="black" points="267.428,-74.5 267.428,-92.5 366.802,-92.5 366.802,-74.5 267.428,-74.5"/>
<text text-anchor="middle" x="317.115" y="-80.5" font-family="Helvetica,sans-Serif" font-size="10.00">fl::Operation::scale</text>
</a>
</g>
</g>
<!-- Node2&#45;&gt;Node3 -->
<g id="edge2" class="edge"><title>Node2&#45;&gt;Node3</title>
<path fill="none" stroke="midnightblue" d="M241.928,-83.5C250.333,-83.5 258.871,-83.5 267.017,-83.5"/>
<polygon fill="midnightblue" stroke="midnightblue" points="241.776,-80.0001 231.776,-83.5 241.776,-87.0001 241.776,-80.0001"/>
</g>
</g>
</svg>
