<?xml version="1.0" encoding="UTF-8" standalone="no"?>
<!DOCTYPE svg PUBLIC "-//W3C//DTD SVG 1.1//EN"
 "http://www.w3.org/Graphics/SVG/1.1/DTD/svg11.dtd">
<!-- Generated by graphviz version 2.38.0 (20140413.2041)
 -->
<!-- Title: fl::Operation::isInf Pages: 1 -->
<svg width="353pt" height="27pt"
 viewBox="0.00 0.00 353.10 27.00" xmlns="http://www.w3.org/2000/svg" xmlns:xlink="http://www.w3.org/1999/xlink">
<g id="graph0" class="graph" transform="scale(1 1) rotate(0) translate(4 23)">
<title>fl::Operation::isInf</title>
<polygon fill="white" stroke="none" points="-4,4 -4,-23 349.103,-23 349.103,4 -4,4"/>
<!-- Node57 -->
<g id="node1" class="node"><title>Node57</title>
<polygon fill="#bfbfbf" stroke="black" points="0,-0.5 0,-18.5 94.3691,-18.5 94.3691,-0.5 0,-0.5"/>
<text text-anchor="middle" x="47.1846" y="-6.5" font-family="Helvetica,sans-Serif" font-size="10.00">fl::Operation::isInf</text>
</g>
<!-- Node58 -->
<g id="node2" class="node"><title>Node58</title>
<g id="a_node2"><a xlink:href="../../d3/da9/classfl_1_1_operation.html#a7bd8c4658e99cd1bc0c317e89695084e" target="_top" xlink:title="Returns a string representation of the given value. ">
<polygon fill="white" stroke="black" points="130.369,-0.5 130.369,-18.5 217.507,-18.5 217.507,-0.5 130.369,-0.5"/>
<text text-anchor="middle" x="173.938" y="-6.5" font-family="Helvetica,sans-Serif" font-size="10.00">fl::Operation::str</text>
</a>
</g>
</g>
<!-- Node57&#45;&gt;Node58 -->
<g id="edge1" class="edge"><title>Node57&#45;&gt;Node58</title>
<path fill="none" stroke="midnightblue" d="M104.887,-9.5C113.381,-9.5 122.017,-9.5 130.158,-9.5"/>
<polygon fill="midnightblue" stroke="midnightblue" points="104.638,-6.0001 94.6381,-9.5 104.638,-13.0001 104.638,-6.0001"/>
</g>
<!-- Node59 -->
<g id="node3" class="node"><title>Node59</title>
<g id="a_node3"><a xlink:href="../../d3/da9/classfl_1_1_operation.html#a6d59606686bb29794d3811004934d5e7" target="_top" xlink:title="Joins a vector of elements by the given separator into a single string. ">
<polygon fill="white" stroke="black" points="253.507,-0.5 253.507,-18.5 345.103,-18.5 345.103,-0.5 253.507,-0.5"/>
<text text-anchor="middle" x="299.305" y="-6.5" font-family="Helvetica,sans-Serif" font-size="10.00">fl::Operation::join</text>
</a>
</g>
</g>
<!-- Node58&#45;&gt;Node59 -->
<g id="edge2" class="edge"><title>Node58&#45;&gt;Node59</title>
<path fill="none" stroke="midnightblue" d="M227.958,-9.5C236.463,-9.5 245.192,-9.5 253.482,-9.5"/>
<polygon fill="midnightblue" stroke="midnightblue" points="227.739,-6.0001 217.739,-9.5 227.739,-13.0001 227.739,-6.0001"/>
</g>
</g>
</svg>
