<?xml version="1.0" encoding="UTF-8" standalone="no"?>
<!DOCTYPE svg PUBLIC "-//W3C//DTD SVG 1.1//EN"
 "http://www.w3.org/Graphics/SVG/1.1/DTD/svg11.dtd">
<!-- Generated by graphviz version 2.38.0 (20140413.2041)
 -->
<!-- Title: fl::Operation::isFinite Pages: 1 -->
<svg width="255pt" height="64pt"
 viewBox="0.00 0.00 254.96 64.00" xmlns="http://www.w3.org/2000/svg" xmlns:xlink="http://www.w3.org/1999/xlink">
<g id="graph0" class="graph" transform="scale(1 1) rotate(0) translate(4 60)">
<title>fl::Operation::isFinite</title>
<polygon fill="white" stroke="none" points="-4,4 -4,-60 250.96,-60 250.96,4 -4,4"/>
<!-- Node1 -->
<g id="node1" class="node"><title>Node1</title>
<polygon fill="#bfbfbf" stroke="black" points="0,-18.5 0,-36.5 107.704,-36.5 107.704,-18.5 0,-18.5"/>
<text text-anchor="middle" x="53.8521" y="-24.5" font-family="Helvetica,sans-Serif" font-size="10.00">fl::Operation::isFinite</text>
</g>
<!-- Node2 -->
<g id="node2" class="node"><title>Node2</title>
<g id="a_node2"><a xlink:href="../../d3/da9/classfl_1_1_operation.html#a0a221a37f9320e0994e1d9aee4af9fec" target="_top" xlink:title="Indicates whether &#160;is infinity. ">
<polygon fill="white" stroke="black" points="148.147,-37.5 148.147,-55.5 242.517,-55.5 242.517,-37.5 148.147,-37.5"/>
<text text-anchor="middle" x="195.332" y="-43.5" font-family="Helvetica,sans-Serif" font-size="10.00">fl::Operation::isInf</text>
</a>
</g>
</g>
<!-- Node1&#45;&gt;Node2 -->
<g id="edge1" class="edge"><title>Node1&#45;&gt;Node2</title>
<path fill="none" stroke="midnightblue" d="M107.981,-34.7373C117.695,-36.0605 127.865,-37.4458 137.676,-38.7824"/>
<polygon fill="midnightblue" stroke="midnightblue" points="137.356,-42.271 147.737,-40.1528 138.301,-35.3351 137.356,-42.271"/>
</g>
<!-- Node3 -->
<g id="node3" class="node"><title>Node3</title>
<g id="a_node3"><a xlink:href="../../d3/da9/classfl_1_1_operation.html#a5deef90b3dd234797cba4ef52be483e0" target="_top" xlink:title="Indicates whether &#160;is not&#45;a&#45;number (NaN) ">
<polygon fill="white" stroke="black" points="143.704,-0.5 143.704,-18.5 246.96,-18.5 246.96,-0.5 143.704,-0.5"/>
<text text-anchor="middle" x="195.332" y="-6.5" font-family="Helvetica,sans-Serif" font-size="10.00">fl::Operation::isNaN</text>
</a>
</g>
</g>
<!-- Node1&#45;&gt;Node3 -->
<g id="edge2" class="edge"><title>Node1&#45;&gt;Node3</title>
<path fill="none" stroke="midnightblue" d="M107.981,-20.6436C116.392,-19.5582 125.145,-18.4286 133.711,-17.3231"/>
<polygon fill="midnightblue" stroke="midnightblue" points="134.18,-20.7918 143.65,-16.0406 133.284,-13.8493 134.18,-20.7918"/>
</g>
</g>
</svg>
