<?xml version="1.0" encoding="UTF-8" standalone="no"?>
<!DOCTYPE svg PUBLIC "-//W3C//DTD SVG 1.1//EN"
 "http://www.w3.org/Graphics/SVG/1.1/DTD/svg11.dtd">
<!-- Generated by graphviz version 2.38.0 (20140413.2041)
 -->
<!-- Title: fl::Operation::isLt Pages: 1 -->
<svg width="219pt" height="64pt"
 viewBox="0.00 0.00 219.40 64.00" xmlns="http://www.w3.org/2000/svg" xmlns:xlink="http://www.w3.org/1999/xlink">
<g id="graph0" class="graph" transform="scale(1 1) rotate(0) translate(4 60)">
<title>fl::Operation::isLt</title>
<polygon fill="white" stroke="none" points="-4,4 -4,-60 215.403,-60 215.403,4 -4,4"/>
<!-- Node65 -->
<g id="node1" class="node"><title>Node65</title>
<polygon fill="#bfbfbf" stroke="black" points="0,-18.5 0,-36.5 91.5908,-36.5 91.5908,-18.5 0,-18.5"/>
<text text-anchor="middle" x="45.7954" y="-24.5" font-family="Helvetica,sans-Serif" font-size="10.00">fl::Operation::isLt</text>
</g>
<!-- Node66 -->
<g id="node2" class="node"><title>Node66</title>
<g id="a_node2"><a xlink:href="../../d3/da9/classfl_1_1_operation.html#a1ba6888fa8ec88f19007cf3a31f3111c" target="_top" xlink:title="Indicates whether &#160;is within the boundaries (open or closed) ">
<polygon fill="white" stroke="black" points="127.591,-37.5 127.591,-55.5 211.403,-55.5 211.403,-37.5 127.591,-37.5"/>
<text text-anchor="middle" x="169.497" y="-43.5" font-family="Helvetica,sans-Serif" font-size="10.00">fl::Operation::in</text>
</a>
</g>
</g>
<!-- Node65&#45;&gt;Node66 -->
<g id="edge1" class="edge"><title>Node65&#45;&gt;Node66</title>
<path fill="none" stroke="midnightblue" d="M101.75,-36.0794C110.351,-37.4223 119.112,-38.79 127.334,-40.0737"/>
<polygon fill="midnightblue" stroke="midnightblue" points="102.187,-32.6054 91.7668,-34.5209 101.107,-39.5216 102.187,-32.6054"/>
</g>
<!-- Node67 -->
<g id="node3" class="node"><title>Node67</title>
<g id="a_node3"><a xlink:href="../../d3/da9/classfl_1_1_operation.html#ac15356602fa5b3064dcfb770234156ba" target="_top" xlink:title="Returns whether &#160;is less than &#160;at the default tolerance. ">
<polygon fill="white" stroke="black" points="128.982,-0.5 128.982,-18.5 210.012,-18.5 210.012,-0.5 128.982,-0.5"/>
<text text-anchor="middle" x="169.497" y="-6.5" font-family="Helvetica,sans-Serif" font-size="10.00">fl::Operation::lt</text>
</a>
</g>
</g>
<!-- Node65&#45;&gt;Node67 -->
<g id="edge2" class="edge"><title>Node65&#45;&gt;Node67</title>
<path fill="none" stroke="midnightblue" d="M101.926,-19.3461C111.028,-17.9999 120.302,-16.6282 128.924,-15.353"/>
<polygon fill="midnightblue" stroke="midnightblue" points="101.147,-15.9231 91.7668,-20.8486 102.171,-22.8477 101.147,-15.9231"/>
</g>
</g>
</svg>
