<?xml version="1.0" encoding="UTF-8" standalone="no"?>
<!DOCTYPE svg PUBLIC "-//W3C//DTD SVG 1.1//EN"
 "http://www.w3.org/Graphics/SVG/1.1/DTD/svg11.dtd">
<!-- Generated by graphviz version 2.38.0 (20140413.2041)
 -->
<!-- Title: fl::Operation::min Pages: 1 -->
<svg width="375pt" height="27pt"
 viewBox="0.00 0.00 375.35 27.00" xmlns="http://www.w3.org/2000/svg" xmlns:xlink="http://www.w3.org/1999/xlink">
<g id="graph0" class="graph" transform="scale(1 1) rotate(0) translate(4 23)">
<title>fl::Operation::min</title>
<polygon fill="white" stroke="none" points="-4,4 -4,-23 371.354,-23 371.354,4 -4,4"/>
<!-- Node129 -->
<g id="node1" class="node"><title>Node129</title>
<polygon fill="#bfbfbf" stroke="black" points="0,-0.5 0,-18.5 92.1426,-18.5 92.1426,-0.5 0,-0.5"/>
<text text-anchor="middle" x="46.0713" y="-6.5" font-family="Helvetica,sans-Serif" font-size="10.00">fl::Operation::min</text>
</g>
<!-- Node130 -->
<g id="node2" class="node"><title>Node130</title>
<g id="a_node2"><a xlink:href="../../d3/da9/classfl_1_1_operation.html#a00089eb5294503c9518ee322c3c53001" target="_top" xlink:title="Returns &#160;bounded in . ">
<polygon fill="white" stroke="black" points="128.143,-0.5 128.143,-18.5 231.979,-18.5 231.979,-0.5 128.143,-0.5"/>
<text text-anchor="middle" x="180.061" y="-6.5" font-family="Helvetica,sans-Serif" font-size="10.00">fl::Operation::bound</text>
</a>
</g>
</g>
<!-- Node129&#45;&gt;Node130 -->
<g id="edge1" class="edge"><title>Node129&#45;&gt;Node130</title>
<path fill="none" stroke="midnightblue" d="M102.646,-9.5C111.095,-9.5 119.778,-9.5 128.122,-9.5"/>
<polygon fill="midnightblue" stroke="midnightblue" points="102.495,-6.0001 92.4947,-9.5 102.495,-13.0001 102.495,-6.0001"/>
</g>
<!-- Node131 -->
<g id="node3" class="node"><title>Node131</title>
<g id="a_node3"><a xlink:href="../../d3/da9/classfl_1_1_operation.html#a794e307d963dda1081aa55a2c0d20fa9" target="_top" xlink:title="Linearly interpolates the parameter &#160;in range [fromMin,fromMax] to a new value in the range [toMin...">
<polygon fill="white" stroke="black" points="267.979,-0.5 267.979,-18.5 367.354,-18.5 367.354,-0.5 267.979,-0.5"/>
<text text-anchor="middle" x="317.667" y="-6.5" font-family="Helvetica,sans-Serif" font-size="10.00">fl::Operation::scale</text>
</a>
</g>
</g>
<!-- Node130&#45;&gt;Node131 -->
<g id="edge2" class="edge"><title>Node130&#45;&gt;Node131</title>
<path fill="none" stroke="midnightblue" d="M242.48,-9.5C250.885,-9.5 259.422,-9.5 267.569,-9.5"/>
<polygon fill="midnightblue" stroke="midnightblue" points="242.328,-6.0001 232.328,-9.5 242.328,-13.0001 242.328,-6.0001"/>
</g>
</g>
</svg>
