<?xml version="1.0" encoding="UTF-8" standalone="no"?>
<!DOCTYPE svg PUBLIC "-//W3C//DTD SVG 1.1//EN"
 "http://www.w3.org/Graphics/SVG/1.1/DTD/svg11.dtd">
<!-- Generated by graphviz version 2.38.0 (20140413.2041)
 -->
<!-- Title: fl::Operation::increment Pages: 1 -->
<svg width="398pt" height="64pt"
 viewBox="0.00 0.00 398.11 64.00" xmlns="http://www.w3.org/2000/svg" xmlns:xlink="http://www.w3.org/1999/xlink">
<g id="graph0" class="graph" transform="scale(1 1) rotate(0) translate(4 60)">
<title>fl::Operation::increment</title>
<polygon fill="white" stroke="none" points="-4,4 -4,-60 394.112,-60 394.112,4 -4,4"/>
<!-- Node1 -->
<g id="node1" class="node"><title>Node1</title>
<polygon fill="#bfbfbf" stroke="black" points="0,-18.5 0,-36.5 119.936,-36.5 119.936,-18.5 0,-18.5"/>
<text text-anchor="middle" x="59.9678" y="-24.5" font-family="Helvetica,sans-Serif" font-size="10.00">fl::Operation::increment</text>
</g>
<!-- Node2 -->
<g id="node2" class="node"><title>Node2</title>
<g id="a_node2"><a xlink:href="../../d3/da9/classfl_1_1_operation.html#a8626d08eb181ed5a36acf703d9a2baba" target="_top" xlink:title="Returns the maximum between the two parameters. ">
<polygon fill="white" stroke="black" points="155.936,-37.5 155.936,-55.5 250.856,-55.5 250.856,-37.5 155.936,-37.5"/>
<text text-anchor="middle" x="203.396" y="-43.5" font-family="Helvetica,sans-Serif" font-size="10.00">fl::Operation::max</text>
</a>
</g>
</g>
<!-- Node1&#45;&gt;Node2 -->
<g id="edge1" class="edge"><title>Node1&#45;&gt;Node2</title>
<path fill="none" stroke="midnightblue" d="M120.127,-35.4476C128.521,-36.5754 137.14,-37.7332 145.491,-38.8551"/>
<polygon fill="midnightblue" stroke="midnightblue" points="145.134,-42.3386 155.511,-40.2013 146.066,-35.4009 145.134,-42.3386"/>
</g>
<!-- Node4 -->
<g id="node4" class="node"><title>Node4</title>
<g id="a_node4"><a xlink:href="../../d3/da9/classfl_1_1_operation.html#ad717f0ee307b2423a6859c6df7757d74" target="_top" xlink:title="Returns the minimum between the two parameters. ">
<polygon fill="white" stroke="black" points="157.325,-0.5 157.325,-18.5 249.467,-18.5 249.467,-0.5 157.325,-0.5"/>
<text text-anchor="middle" x="203.396" y="-6.5" font-family="Helvetica,sans-Serif" font-size="10.00">fl::Operation::min</text>
</a>
</g>
</g>
<!-- Node1&#45;&gt;Node4 -->
<g id="edge3" class="edge"><title>Node1&#45;&gt;Node4</title>
<path fill="none" stroke="midnightblue" d="M120.127,-19.9707C129.049,-18.8351 138.224,-17.6674 147.061,-16.5426"/>
<polygon fill="midnightblue" stroke="midnightblue" points="147.768,-19.981 157.246,-15.2464 146.884,-13.037 147.768,-19.981"/>
</g>
<!-- Node3 -->
<g id="node3" class="node"><title>Node3</title>
<g id="a_node3"><a xlink:href="../../d3/da9/classfl_1_1_operation.html#a5deef90b3dd234797cba4ef52be483e0" target="_top" xlink:title="Indicates whether &#160;is not&#45;a&#45;number (NaN) ">
<polygon fill="white" stroke="black" points="286.856,-18.5 286.856,-36.5 390.112,-36.5 390.112,-18.5 286.856,-18.5"/>
<text text-anchor="middle" x="338.484" y="-24.5" font-family="Helvetica,sans-Serif" font-size="10.00">fl::Operation::isNaN</text>
</a>
</g>
</g>
<!-- Node2&#45;&gt;Node3 -->
<g id="edge2" class="edge"><title>Node2&#45;&gt;Node3</title>
<path fill="none" stroke="midnightblue" d="M250.944,-39.8547C259.241,-38.6702 267.995,-37.4205 276.621,-36.189"/>
<polygon fill="midnightblue" stroke="midnightblue" points="277.248,-39.635 286.653,-34.7568 276.259,-32.7053 277.248,-39.635"/>
</g>
<!-- Node4&#45;&gt;Node3 -->
<g id="edge4" class="edge"><title>Node4&#45;&gt;Node3</title>
<path fill="none" stroke="midnightblue" d="M249.825,-15.6442C258.47,-16.8134 267.644,-18.0543 276.677,-19.2759"/>
<polygon fill="midnightblue" stroke="midnightblue" points="276.4,-22.7703 286.779,-20.6422 277.339,-15.8334 276.4,-22.7703"/>
</g>
</g>
</svg>
