<?xml version="1.0" encoding="UTF-8" standalone="no"?>
<!DOCTYPE svg PUBLIC "-//W3C//DTD SVG 1.1//EN"
 "http://www.w3.org/Graphics/SVG/1.1/DTD/svg11.dtd">
<!-- Generated by graphviz version 2.38.0 (20140413.2041)
 -->
<!-- Title: fl::Operation::findReplace Pages: 1 -->
<svg width="301pt" height="64pt"
 viewBox="0.00 0.00 301.11 64.00" xmlns="http://www.w3.org/2000/svg" xmlns:xlink="http://www.w3.org/1999/xlink">
<g id="graph0" class="graph" transform="scale(1 1) rotate(0) translate(4 60)">
<title>fl::Operation::findReplace</title>
<polygon fill="white" stroke="none" points="-4,4 -4,-60 297.107,-60 297.107,4 -4,4"/>
<!-- Node14 -->
<g id="node1" class="node"><title>Node14</title>
<polygon fill="#bfbfbf" stroke="black" points="0,-18.5 0,-36.5 128.842,-36.5 128.842,-18.5 0,-18.5"/>
<text text-anchor="middle" x="64.4209" y="-24.5" font-family="Helvetica,sans-Serif" font-size="10.00">fl::Operation::findReplace</text>
</g>
<!-- Node15 -->
<g id="node2" class="node"><title>Node15</title>
<g id="a_node2"><a xlink:href="../../d3/da9/classfl_1_1_operation.html#a32de7e6de191faa7862d26fc8231e1ac" target="_top" xlink:title="Replaces the every substring that is equal to the given expression. ">
<polygon fill="white" stroke="black" points="169.004,-37.5 169.004,-55.5 288.945,-55.5 288.945,-37.5 169.004,-37.5"/>
<text text-anchor="middle" x="228.975" y="-43.5" font-family="Helvetica,sans-Serif" font-size="10.00">fl::Operation::replaceAll</text>
</a>
</g>
</g>
<!-- Node14&#45;&gt;Node15 -->
<g id="edge1" class="edge"><title>Node14&#45;&gt;Node15</title>
<path fill="none" stroke="midnightblue" d="M139.414,-36.1487C149.29,-37.303 159.31,-38.4742 168.886,-39.5934"/>
<polygon fill="midnightblue" stroke="midnightblue" points="139.539,-32.6395 129.2,-34.9548 138.726,-39.5921 139.539,-32.6395"/>
</g>
<!-- Node16 -->
<g id="node3" class="node"><title>Node16</title>
<g id="a_node3"><a xlink:href="../../d3/da9/classfl_1_1_operation.html#ab4c3a4ba097cb2dba21673d3b0dd5370" target="_top" xlink:title="Replaces the first substring that is equal to the given expression. ">
<polygon fill="white" stroke="black" points="164.842,-0.5 164.842,-18.5 293.107,-18.5 293.107,-0.5 164.842,-0.5"/>
<text text-anchor="middle" x="228.975" y="-6.5" font-family="Helvetica,sans-Serif" font-size="10.00">fl::Operation::replaceFirst</text>
</a>
</g>
</g>
<!-- Node14&#45;&gt;Node16 -->
<g id="edge2" class="edge"><title>Node14&#45;&gt;Node16</title>
<path fill="none" stroke="midnightblue" d="M139.406,-19.3074C147.836,-18.374 156.372,-17.4288 164.646,-16.5125"/>
<polygon fill="midnightblue" stroke="midnightblue" points="138.754,-15.8582 129.2,-20.4376 139.524,-22.8156 138.754,-15.8582"/>
</g>
</g>
</svg>
