<?xml version="1.0" encoding="UTF-8" standalone="no"?>
<!DOCTYPE svg PUBLIC "-//W3C//DTD SVG 1.1//EN"
 "http://www.w3.org/Graphics/SVG/1.1/DTD/svg11.dtd">
<!-- Generated by graphviz version 2.38.0 (20140413.2041)
 -->
<!-- Title: fl::Operation::isLt Pages: 1 -->
<svg width="370pt" height="27pt"
 viewBox="0.00 0.00 370.33 27.00" xmlns="http://www.w3.org/2000/svg" xmlns:xlink="http://www.w3.org/1999/xlink">
<g id="graph0" class="graph" transform="scale(1 1) rotate(0) translate(4 23)">
<title>fl::Operation::isLt</title>
<polygon fill="white" stroke="none" points="-4,4 -4,-23 366.329,-23 366.329,4 -4,4"/>
<!-- Node1 -->
<g id="node1" class="node"><title>Node1</title>
<polygon fill="#bfbfbf" stroke="black" points="0,-0.5 0,-18.5 91.5908,-18.5 91.5908,-0.5 0,-0.5"/>
<text text-anchor="middle" x="45.7954" y="-6.5" font-family="Helvetica,sans-Serif" font-size="10.00">fl::Operation::isLt</text>
</g>
<!-- Node2 -->
<g id="node2" class="node"><title>Node2</title>
<g id="a_node2"><a xlink:href="../../d3/da9/classfl_1_1_operation.html#a4e5b51cc68d898bcc6d36fa0b12e6461" target="_top" xlink:title="Returns whether &#160;is equal to &#160;at the given macheps ">
<polygon fill="white" stroke="black" points="127.591,-0.5 127.591,-18.5 223.073,-18.5 223.073,-0.5 127.591,-0.5"/>
<text text-anchor="middle" x="175.332" y="-6.5" font-family="Helvetica,sans-Serif" font-size="10.00">fl::Operation::isEq</text>
</a>
</g>
</g>
<!-- Node1&#45;&gt;Node2 -->
<g id="edge1" class="edge"><title>Node1&#45;&gt;Node2</title>
<path fill="none" stroke="midnightblue" d="M91.7601,-9.5C99.9177,-9.5 108.526,-9.5 116.983,-9.5"/>
<polygon fill="midnightblue" stroke="midnightblue" points="117.182,-13.0001 127.182,-9.5 117.182,-6.0001 117.182,-13.0001"/>
</g>
<!-- Node3 -->
<g id="node3" class="node"><title>Node3</title>
<g id="a_node3"><a xlink:href="../../d3/da9/classfl_1_1_operation.html#a5deef90b3dd234797cba4ef52be483e0" target="_top" xlink:title="Indicates whether &#160;is not&#45;a&#45;number (NaN) ">
<polygon fill="white" stroke="black" points="259.073,-0.5 259.073,-18.5 362.329,-18.5 362.329,-0.5 259.073,-0.5"/>
<text text-anchor="middle" x="310.701" y="-6.5" font-family="Helvetica,sans-Serif" font-size="10.00">fl::Operation::isNaN</text>
</a>
</g>
</g>
<!-- Node2&#45;&gt;Node3 -->
<g id="edge2" class="edge"><title>Node2&#45;&gt;Node3</title>
<path fill="none" stroke="midnightblue" d="M223.353,-9.5C231.654,-9.5 240.402,-9.5 249.015,-9.5"/>
<polygon fill="midnightblue" stroke="midnightblue" points="249.029,-13.0001 259.029,-9.5 249.029,-6.0001 249.029,-13.0001"/>
</g>
</g>
</svg>
