<?xml version="1.0" encoding="UTF-8" standalone="no"?>
<!DOCTYPE svg PUBLIC "-//W3C//DTD SVG 1.1//EN"
 "http://www.w3.org/Graphics/SVG/1.1/DTD/svg11.dtd">
<!-- Generated by graphviz version 2.38.0 (20140413.2041)
 -->
<!-- Title: fl::Operation::isGt Pages: 1 -->
<svg width="222pt" height="64pt"
 viewBox="0.00 0.00 222.18 64.00" xmlns="http://www.w3.org/2000/svg" xmlns:xlink="http://www.w3.org/1999/xlink">
<g id="graph0" class="graph" transform="scale(1 1) rotate(0) translate(4 60)">
<title>fl::Operation::isGt</title>
<polygon fill="white" stroke="none" points="-4,4 -4,-60 218.177,-60 218.177,4 -4,4"/>
<!-- Node53 -->
<g id="node1" class="node"><title>Node53</title>
<polygon fill="#bfbfbf" stroke="black" points="0,-18.5 0,-36.5 93.8076,-36.5 93.8076,-18.5 0,-18.5"/>
<text text-anchor="middle" x="46.9038" y="-24.5" font-family="Helvetica,sans-Serif" font-size="10.00">fl::Operation::isGt</text>
</g>
<!-- Node54 -->
<g id="node2" class="node"><title>Node54</title>
<g id="a_node2"><a xlink:href="../../d3/da9/classfl_1_1_operation.html#afb41c5a5b6fd59b844b19c79f07646af" target="_top" xlink:title="Returns whether &#160;is greater than or equal to &#160;at the default tolerance. ">
<polygon fill="white" stroke="black" points="129.808,-37.5 129.808,-55.5 214.177,-55.5 214.177,-37.5 129.808,-37.5"/>
<text text-anchor="middle" x="171.992" y="-43.5" font-family="Helvetica,sans-Serif" font-size="10.00">fl::Operation::gt</text>
</a>
</g>
</g>
<!-- Node53&#45;&gt;Node54 -->
<g id="edge1" class="edge"><title>Node53&#45;&gt;Node54</title>
<path fill="none" stroke="midnightblue" d="M104.017,-36.1617C112.564,-37.481 121.253,-38.8222 129.415,-40.0822"/>
<polygon fill="midnightblue" stroke="midnightblue" points="104.504,-32.6955 94.0876,-34.629 103.437,-39.6136 104.504,-32.6955"/>
</g>
<!-- Node55 -->
<g id="node3" class="node"><title>Node55</title>
<g id="a_node3"><a xlink:href="../../d3/da9/classfl_1_1_operation.html#a1ba6888fa8ec88f19007cf3a31f3111c" target="_top" xlink:title="Indicates whether &#160;is within the boundaries (open or closed) ">
<polygon fill="white" stroke="black" points="130.086,-0.5 130.086,-18.5 213.898,-18.5 213.898,-0.5 130.086,-0.5"/>
<text text-anchor="middle" x="171.992" y="-6.5" font-family="Helvetica,sans-Serif" font-size="10.00">fl::Operation::in</text>
</a>
</g>
</g>
<!-- Node53&#45;&gt;Node55 -->
<g id="edge2" class="edge"><title>Node53&#45;&gt;Node55</title>
<path fill="none" stroke="midnightblue" d="M104.135,-19.277C112.784,-18.0121 121.575,-16.7267 129.816,-15.5215"/>
<polygon fill="midnightblue" stroke="midnightblue" points="103.476,-15.836 94.0876,-20.7463 104.489,-22.7624 103.476,-15.836"/>
</g>
</g>
</svg>
