<?xml version="1.0" encoding="UTF-8" standalone="no"?>
<!DOCTYPE svg PUBLIC "-//W3C//DTD SVG 1.1//EN"
 "http://www.w3.org/Graphics/SVG/1.1/DTD/svg11.dtd">
<!-- Generated by graphviz version 2.38.0 (20140413.2041)
 -->
<!-- Title: fl::Operation::str Pages: 1 -->
<svg width="234pt" height="101pt"
 viewBox="0.00 0.00 234.39 101.00" xmlns="http://www.w3.org/2000/svg" xmlns:xlink="http://www.w3.org/1999/xlink">
<g id="graph0" class="graph" transform="scale(1 1) rotate(0) translate(4 97)">
<title>fl::Operation::str</title>
<polygon fill="white" stroke="none" points="-4,4 -4,-97 230.394,-97 230.394,4 -4,4"/>
<!-- Node170 -->
<g id="node1" class="node"><title>Node170</title>
<polygon fill="#bfbfbf" stroke="black" points="0,-37.5 0,-55.5 87.1377,-55.5 87.1377,-37.5 0,-37.5"/>
<text text-anchor="middle" x="43.5688" y="-43.5" font-family="Helvetica,sans-Serif" font-size="10.00">fl::Operation::str</text>
</g>
<!-- Node171 -->
<g id="node2" class="node"><title>Node171</title>
<g id="a_node2"><a xlink:href="../../d3/da9/classfl_1_1_operation.html#acafee58f6d275bf6b8e4d16b61e3ea79" target="_top" xlink:title="Returns whether &#160;is equal to &#160;at the given tolerance. ">
<polygon fill="white" stroke="black" points="127.024,-74.5 127.024,-92.5 222.507,-92.5 222.507,-74.5 127.024,-74.5"/>
<text text-anchor="middle" x="174.766" y="-80.5" font-family="Helvetica,sans-Serif" font-size="10.00">fl::Operation::isEq</text>
</a>
</g>
</g>
<!-- Node170&#45;&gt;Node171 -->
<g id="edge1" class="edge"><title>Node170&#45;&gt;Node171</title>
<path fill="none" stroke="midnightblue" d="M76.1739,-55.5512C93.0664,-60.389 114.074,-66.4051 132.266,-71.6151"/>
<polygon fill="midnightblue" stroke="midnightblue" points="131.462,-75.0255 142.039,-74.414 133.389,-68.296 131.462,-75.0255"/>
</g>
<!-- Node172 -->
<g id="node3" class="node"><title>Node172</title>
<g id="a_node3"><a xlink:href="../../d3/da9/classfl_1_1_operation.html#a0a221a37f9320e0994e1d9aee4af9fec" target="_top" xlink:title="Indicates whether &#160;is infinity. ">
<polygon fill="white" stroke="black" points="127.581,-37.5 127.581,-55.5 221.95,-55.5 221.95,-37.5 127.581,-37.5"/>
<text text-anchor="middle" x="174.766" y="-43.5" font-family="Helvetica,sans-Serif" font-size="10.00">fl::Operation::isInf</text>
</a>
</g>
</g>
<!-- Node170&#45;&gt;Node172 -->
<g id="edge2" class="edge"><title>Node170&#45;&gt;Node172</title>
<path fill="none" stroke="midnightblue" d="M87.2308,-46.5C96.7226,-46.5 106.932,-46.5 116.892,-46.5"/>
<polygon fill="midnightblue" stroke="midnightblue" points="117.141,-50.0001 127.141,-46.5 117.141,-43.0001 117.141,-50.0001"/>
</g>
<!-- Node173 -->
<g id="node4" class="node"><title>Node173</title>
<g id="a_node4"><a xlink:href="../../d3/da9/classfl_1_1_operation.html#a5deef90b3dd234797cba4ef52be483e0" target="_top" xlink:title="Indicates whether &#160;is not&#45;a&#45;number (NaN) ">
<polygon fill="white" stroke="black" points="123.138,-0.5 123.138,-18.5 226.394,-18.5 226.394,-0.5 123.138,-0.5"/>
<text text-anchor="middle" x="174.766" y="-6.5" font-family="Helvetica,sans-Serif" font-size="10.00">fl::Operation::isNaN</text>
</a>
</g>
</g>
<!-- Node170&#45;&gt;Node173 -->
<g id="edge3" class="edge"><title>Node170&#45;&gt;Node173</title>
<path fill="none" stroke="midnightblue" d="M76.1739,-37.4488C93.0664,-32.611 114.074,-26.5949 132.266,-21.3849"/>
<polygon fill="midnightblue" stroke="midnightblue" points="133.389,-24.704 142.039,-18.586 131.462,-17.9745 133.389,-24.704"/>
</g>
</g>
</svg>
