<?xml version="1.0" encoding="UTF-8" standalone="no"?>
<!DOCTYPE svg PUBLIC "-//W3C//DTD SVG 1.1//EN"
 "http://www.w3.org/Graphics/SVG/1.1/DTD/svg11.dtd">
<!-- Generated by graphviz version 2.38.0 (20140413.2041)
 -->
<!-- Title: fl::Operation::join Pages: 1 -->
<svg width="362pt" height="101pt"
 viewBox="0.00 0.00 361.99 101.00" xmlns="http://www.w3.org/2000/svg" xmlns:xlink="http://www.w3.org/1999/xlink">
<g id="graph0" class="graph" transform="scale(1 1) rotate(0) translate(4 97)">
<title>fl::Operation::join</title>
<polygon fill="white" stroke="none" points="-4,4 -4,-97 357.989,-97 357.989,4 -4,4"/>
<!-- Node93 -->
<g id="node1" class="node"><title>Node93</title>
<polygon fill="#bfbfbf" stroke="black" points="0,-37.5 0,-55.5 91.5957,-55.5 91.5957,-37.5 0,-37.5"/>
<text text-anchor="middle" x="45.7979" y="-43.5" font-family="Helvetica,sans-Serif" font-size="10.00">fl::Operation::join</text>
</g>
<!-- Node94 -->
<g id="node2" class="node"><title>Node94</title>
<g id="a_node2"><a xlink:href="../../d3/da9/classfl_1_1_operation.html#a7bd8c4658e99cd1bc0c317e89695084e" target="_top" xlink:title="Returns a string representation of the given value. ">
<polygon fill="white" stroke="black" points="127.596,-37.5 127.596,-55.5 214.733,-55.5 214.733,-37.5 127.596,-37.5"/>
<text text-anchor="middle" x="171.165" y="-43.5" font-family="Helvetica,sans-Serif" font-size="10.00">fl::Operation::str</text>
</a>
</g>
</g>
<!-- Node93&#45;&gt;Node94 -->
<g id="edge1" class="edge"><title>Node93&#45;&gt;Node94</title>
<path fill="none" stroke="midnightblue" d="M91.685,-46.5C100.011,-46.5 108.78,-46.5 117.318,-46.5"/>
<polygon fill="midnightblue" stroke="midnightblue" points="117.572,-50.0001 127.572,-46.5 117.572,-43.0001 117.572,-50.0001"/>
</g>
<!-- Node95 -->
<g id="node3" class="node"><title>Node95</title>
<g id="a_node3"><a xlink:href="../../d3/da9/classfl_1_1_operation.html#a5deef90b3dd234797cba4ef52be483e0" target="_top" xlink:title="Indicates whether &#160;is not&#45;a&#45;number (NaN) ">
<polygon fill="white" stroke="black" points="250.733,-74.5 250.733,-92.5 353.989,-92.5 353.989,-74.5 250.733,-74.5"/>
<text text-anchor="middle" x="302.361" y="-80.5" font-family="Helvetica,sans-Serif" font-size="10.00">fl::Operation::isNaN</text>
</a>
</g>
</g>
<!-- Node94&#45;&gt;Node95 -->
<g id="edge2" class="edge"><title>Node94&#45;&gt;Node95</title>
<path fill="none" stroke="midnightblue" d="M203.77,-55.5512C220.662,-60.389 241.669,-66.4051 259.862,-71.6151"/>
<polygon fill="midnightblue" stroke="midnightblue" points="259.058,-75.0255 269.635,-74.414 260.985,-68.296 259.058,-75.0255"/>
</g>
<!-- Node96 -->
<g id="node4" class="node"><title>Node96</title>
<g id="a_node4"><a xlink:href="../../d3/da9/classfl_1_1_operation.html#a0a221a37f9320e0994e1d9aee4af9fec" target="_top" xlink:title="Indicates whether &#160;is infinity. ">
<polygon fill="white" stroke="black" points="255.177,-37.5 255.177,-55.5 349.546,-55.5 349.546,-37.5 255.177,-37.5"/>
<text text-anchor="middle" x="302.361" y="-43.5" font-family="Helvetica,sans-Serif" font-size="10.00">fl::Operation::isInf</text>
</a>
</g>
</g>
<!-- Node94&#45;&gt;Node96 -->
<g id="edge3" class="edge"><title>Node94&#45;&gt;Node96</title>
<path fill="none" stroke="midnightblue" d="M214.826,-46.5C224.318,-46.5 234.527,-46.5 244.488,-46.5"/>
<polygon fill="midnightblue" stroke="midnightblue" points="244.737,-50.0001 254.737,-46.5 244.737,-43.0001 244.737,-50.0001"/>
</g>
<!-- Node97 -->
<g id="node5" class="node"><title>Node97</title>
<g id="a_node5"><a xlink:href="../../d3/da9/classfl_1_1_operation.html#acafee58f6d275bf6b8e4d16b61e3ea79" target="_top" xlink:title="Returns whether &#160;is equal to &#160;at the given tolerance. ">
<polygon fill="white" stroke="black" points="254.62,-0.5 254.62,-18.5 350.103,-18.5 350.103,-0.5 254.62,-0.5"/>
<text text-anchor="middle" x="302.361" y="-6.5" font-family="Helvetica,sans-Serif" font-size="10.00">fl::Operation::isEq</text>
</a>
</g>
</g>
<!-- Node94&#45;&gt;Node97 -->
<g id="edge4" class="edge"><title>Node94&#45;&gt;Node97</title>
<path fill="none" stroke="midnightblue" d="M203.77,-37.4488C220.662,-32.611 241.669,-26.5949 259.862,-21.3849"/>
<polygon fill="midnightblue" stroke="midnightblue" points="260.985,-24.704 269.635,-18.586 259.058,-17.9745 260.985,-24.704"/>
</g>
</g>
</svg>
