<?xml version="1.0" encoding="UTF-8" standalone="no"?>
<!DOCTYPE svg PUBLIC "-//W3C//DTD SVG 1.1//EN"
 "http://www.w3.org/Graphics/SVG/1.1/DTD/svg11.dtd">
<!-- Generated by graphviz version 2.38.0 (20140413.2041)
 -->
<!-- Title: fl::Operation::isNaN Pages: 1 -->
<svg width="517pt" height="101pt"
 viewBox="0.00 0.00 517.39 101.00" xmlns="http://www.w3.org/2000/svg" xmlns:xlink="http://www.w3.org/1999/xlink">
<g id="graph0" class="graph" transform="scale(1 1) rotate(0) translate(4 97)">
<title>fl::Operation::isNaN</title>
<polygon fill="white" stroke="none" points="-4,4 -4,-97 513.388,-97 513.388,4 -4,4"/>
<!-- Node69 -->
<g id="node1" class="node"><title>Node69</title>
<polygon fill="#bfbfbf" stroke="black" points="0,-37.5 0,-55.5 103.256,-55.5 103.256,-37.5 0,-37.5"/>
<text text-anchor="middle" x="51.6279" y="-43.5" font-family="Helvetica,sans-Serif" font-size="10.00">fl::Operation::isNaN</text>
</g>
<!-- Node70 -->
<g id="node2" class="node"><title>Node70</title>
<g id="a_node2"><a xlink:href="../../d3/da9/classfl_1_1_operation.html#a8626d08eb181ed5a36acf703d9a2baba" target="_top" xlink:title="Returns the maximum between the two parameters. ">
<polygon fill="white" stroke="black" points="139.256,-74.5 139.256,-92.5 234.177,-92.5 234.177,-74.5 139.256,-74.5"/>
<text text-anchor="middle" x="186.716" y="-80.5" font-family="Helvetica,sans-Serif" font-size="10.00">fl::Operation::max</text>
</a>
</g>
</g>
<!-- Node69&#45;&gt;Node70 -->
<g id="edge1" class="edge"><title>Node69&#45;&gt;Node70</title>
<path fill="none" stroke="midnightblue" d="M94.9832,-58.2752C113.769,-63.4979 135.532,-69.5482 153.034,-74.414"/>
<polygon fill="midnightblue" stroke="midnightblue" points="95.7571,-54.8577 85.185,-55.5512 93.8821,-61.6019 95.7571,-54.8577"/>
</g>
<!-- Node73 -->
<g id="node5" class="node"><title>Node73</title>
<g id="a_node5"><a xlink:href="../../d3/da9/classfl_1_1_operation.html#ad717f0ee307b2423a6859c6df7757d74" target="_top" xlink:title="Returns the minimum between the two parameters. ">
<polygon fill="white" stroke="black" points="140.645,-37.5 140.645,-55.5 232.788,-55.5 232.788,-37.5 140.645,-37.5"/>
<text text-anchor="middle" x="186.716" y="-43.5" font-family="Helvetica,sans-Serif" font-size="10.00">fl::Operation::min</text>
</a>
</g>
</g>
<!-- Node69&#45;&gt;Node73 -->
<g id="edge4" class="edge"><title>Node69&#45;&gt;Node73</title>
<path fill="none" stroke="midnightblue" d="M113.458,-46.5C122.522,-46.5 131.727,-46.5 140.396,-46.5"/>
<polygon fill="midnightblue" stroke="midnightblue" points="113.323,-43.0001 103.323,-46.5 113.323,-50.0001 113.323,-43.0001"/>
</g>
<!-- Node74 -->
<g id="node6" class="node"><title>Node74</title>
<g id="a_node6"><a xlink:href="../../d3/da9/classfl_1_1_operation.html#a7bd8c4658e99cd1bc0c317e89695084e" target="_top" xlink:title="Returns a string representation of the given value. ">
<polygon fill="white" stroke="black" points="143.147,-0.5 143.147,-18.5 230.285,-18.5 230.285,-0.5 143.147,-0.5"/>
<text text-anchor="middle" x="186.716" y="-6.5" font-family="Helvetica,sans-Serif" font-size="10.00">fl::Operation::str</text>
</a>
</g>
</g>
<!-- Node69&#45;&gt;Node74 -->
<g id="edge6" class="edge"><title>Node69&#45;&gt;Node74</title>
<path fill="none" stroke="midnightblue" d="M94.9832,-34.7248C113.769,-29.5021 135.532,-23.4518 153.034,-18.586"/>
<polygon fill="midnightblue" stroke="midnightblue" points="93.8821,-31.3981 85.185,-37.4488 95.7571,-38.1423 93.8821,-31.3981"/>
</g>
<!-- Node71 -->
<g id="node3" class="node"><title>Node71</title>
<g id="a_node3"><a xlink:href="../../d3/da9/classfl_1_1_operation.html#a00089eb5294503c9518ee322c3c53001" target="_top" xlink:title="Returns &#160;bounded in . ">
<polygon fill="white" stroke="black" points="270.177,-55.5 270.177,-73.5 374.014,-73.5 374.014,-55.5 270.177,-55.5"/>
<text text-anchor="middle" x="322.095" y="-61.5" font-family="Helvetica,sans-Serif" font-size="10.00">fl::Operation::bound</text>
</a>
</g>
</g>
<!-- Node70&#45;&gt;Node71 -->
<g id="edge2" class="edge"><title>Node70&#45;&gt;Node71</title>
<path fill="none" stroke="midnightblue" d="M244.302,-75.4392C252.886,-74.2165 261.699,-72.9611 270.153,-71.7568"/>
<polygon fill="midnightblue" stroke="midnightblue" points="243.772,-71.9793 234.366,-76.8547 244.759,-78.9094 243.772,-71.9793"/>
</g>
<!-- Node72 -->
<g id="node4" class="node"><title>Node72</title>
<g id="a_node4"><a xlink:href="../../d3/da9/classfl_1_1_operation.html#a794e307d963dda1081aa55a2c0d20fa9" target="_top" xlink:title="Linearly interpolates the parameter &#160;in range [fromMin,fromMax] to a new value in the range [toMin...">
<polygon fill="white" stroke="black" points="410.014,-55.5 410.014,-73.5 509.388,-73.5 509.388,-55.5 410.014,-55.5"/>
<text text-anchor="middle" x="459.701" y="-61.5" font-family="Helvetica,sans-Serif" font-size="10.00">fl::Operation::scale</text>
</a>
</g>
</g>
<!-- Node71&#45;&gt;Node72 -->
<g id="edge3" class="edge"><title>Node71&#45;&gt;Node72</title>
<path fill="none" stroke="midnightblue" d="M384.514,-64.5C392.919,-64.5 401.457,-64.5 409.603,-64.5"/>
<polygon fill="midnightblue" stroke="midnightblue" points="384.362,-61.0001 374.362,-64.5 384.362,-68.0001 384.362,-61.0001"/>
</g>
<!-- Node73&#45;&gt;Node71 -->
<g id="edge5" class="edge"><title>Node73&#45;&gt;Node71</title>
<path fill="none" stroke="midnightblue" d="M242.863,-53.9422C251.852,-55.1554 261.13,-56.4075 270.016,-57.6067"/>
<polygon fill="midnightblue" stroke="midnightblue" points="243.251,-50.4629 232.872,-52.594 242.314,-57.4 243.251,-50.4629"/>
</g>
<!-- Node75 -->
<g id="node7" class="node"><title>Node75</title>
<g id="a_node7"><a xlink:href="../../d3/da9/classfl_1_1_operation.html#a6d59606686bb29794d3811004934d5e7" target="_top" xlink:title="Joins a vector of elements by the given separator into a single string. ">
<polygon fill="white" stroke="black" points="276.297,-0.5 276.297,-18.5 367.893,-18.5 367.893,-0.5 276.297,-0.5"/>
<text text-anchor="middle" x="322.095" y="-6.5" font-family="Helvetica,sans-Serif" font-size="10.00">fl::Operation::join</text>
</a>
</g>
</g>
<!-- Node74&#45;&gt;Node75 -->
<g id="edge7" class="edge"><title>Node74&#45;&gt;Node75</title>
<path fill="none" stroke="midnightblue" d="M240.713,-9.5C252.376,-9.5 264.623,-9.5 275.942,-9.5"/>
<polygon fill="midnightblue" stroke="midnightblue" points="240.652,-6.0001 230.652,-9.5 240.652,-13.0001 240.652,-6.0001"/>
</g>
</g>
</svg>
