<?xml version="1.0" encoding="UTF-8" standalone="no"?>
<!DOCTYPE svg PUBLIC "-//W3C//DTD SVG 1.1//EN"
 "http://www.w3.org/Graphics/SVG/1.1/DTD/svg11.dtd">
<!-- Generated by graphviz version 2.38.0 (20140413.2041)
 -->
<!-- Title: fl::Operation::bound Pages: 1 -->
<svg width="382pt" height="64pt"
 viewBox="0.00 0.00 382.01 64.00" xmlns="http://www.w3.org/2000/svg" xmlns:xlink="http://www.w3.org/1999/xlink">
<g id="graph0" class="graph" transform="scale(1 1) rotate(0) translate(4 60)">
<title>fl::Operation::bound</title>
<polygon fill="white" stroke="none" points="-4,4 -4,-60 378.014,-60 378.014,4 -4,4"/>
<!-- Node2 -->
<g id="node1" class="node"><title>Node2</title>
<polygon fill="#bfbfbf" stroke="black" points="0,-18.5 0,-36.5 103.837,-36.5 103.837,-18.5 0,-18.5"/>
<text text-anchor="middle" x="51.9185" y="-24.5" font-family="Helvetica,sans-Serif" font-size="10.00">fl::Operation::bound</text>
</g>
<!-- Node3 -->
<g id="node2" class="node"><title>Node3</title>
<g id="a_node2"><a xlink:href="../../d3/da9/classfl_1_1_operation.html#a8626d08eb181ed5a36acf703d9a2baba" target="_top" xlink:title="Returns the maximum between the two parameters. ">
<polygon fill="white" stroke="black" points="139.837,-37.5 139.837,-55.5 234.758,-55.5 234.758,-37.5 139.837,-37.5"/>
<text text-anchor="middle" x="187.297" y="-43.5" font-family="Helvetica,sans-Serif" font-size="10.00">fl::Operation::max</text>
</a>
</g>
</g>
<!-- Node2&#45;&gt;Node3 -->
<g id="edge1" class="edge"><title>Node2&#45;&gt;Node3</title>
<path fill="none" stroke="midnightblue" d="M104.105,-34.7916C112.553,-35.995 121.353,-37.2486 129.92,-38.469"/>
<polygon fill="midnightblue" stroke="midnightblue" points="129.441,-41.9361 139.835,-39.8814 130.429,-35.006 129.441,-41.9361"/>
</g>
<!-- Node5 -->
<g id="node4" class="node"><title>Node5</title>
<g id="a_node4"><a xlink:href="../../d3/da9/classfl_1_1_operation.html#ad717f0ee307b2423a6859c6df7757d74" target="_top" xlink:title="Returns the minimum between the two parameters. ">
<polygon fill="white" stroke="black" points="141.226,-0.5 141.226,-18.5 233.369,-18.5 233.369,-0.5 141.226,-0.5"/>
<text text-anchor="middle" x="187.297" y="-6.5" font-family="Helvetica,sans-Serif" font-size="10.00">fl::Operation::min</text>
</a>
</g>
</g>
<!-- Node2&#45;&gt;Node5 -->
<g id="edge3" class="edge"><title>Node2&#45;&gt;Node5</title>
<path fill="none" stroke="midnightblue" d="M104.105,-20.5922C112.965,-19.3965 122.212,-18.1485 131.172,-16.9394"/>
<polygon fill="midnightblue" stroke="midnightblue" points="131.688,-20.4016 141.13,-15.5955 130.751,-13.4645 131.688,-20.4016"/>
</g>
<!-- Node4 -->
<g id="node3" class="node"><title>Node4</title>
<g id="a_node3"><a xlink:href="../../d3/da9/classfl_1_1_operation.html#a5deef90b3dd234797cba4ef52be483e0" target="_top" xlink:title="Indicates whether &#160;is not&#45;a&#45;number (NaN) ">
<polygon fill="white" stroke="black" points="270.758,-18.5 270.758,-36.5 374.014,-36.5 374.014,-18.5 270.758,-18.5"/>
<text text-anchor="middle" x="322.386" y="-24.5" font-family="Helvetica,sans-Serif" font-size="10.00">fl::Operation::isNaN</text>
</a>
</g>
</g>
<!-- Node3&#45;&gt;Node4 -->
<g id="edge2" class="edge"><title>Node3&#45;&gt;Node4</title>
<path fill="none" stroke="midnightblue" d="M234.845,-39.8547C243.142,-38.6702 251.896,-37.4205 260.522,-36.189"/>
<polygon fill="midnightblue" stroke="midnightblue" points="261.15,-39.635 270.555,-34.7568 260.16,-32.7053 261.15,-39.635"/>
</g>
<!-- Node5&#45;&gt;Node4 -->
<g id="edge4" class="edge"><title>Node5&#45;&gt;Node4</title>
<path fill="none" stroke="midnightblue" d="M233.727,-15.6442C242.371,-16.8134 251.546,-18.0543 260.579,-19.2759"/>
<polygon fill="midnightblue" stroke="midnightblue" points="260.302,-22.7703 270.681,-20.6422 261.24,-15.8334 260.302,-22.7703"/>
</g>
</g>
</svg>
