<?xml version="1.0" encoding="UTF-8" standalone="no"?>
<!DOCTYPE svg PUBLIC "-//W3C//DTD SVG 1.1//EN"
 "http://www.w3.org/Graphics/SVG/1.1/DTD/svg11.dtd">
<!-- Generated by graphviz version 2.38.0 (20140413.2041)
 -->
<!-- Title: fl::Operation::str Pages: 1 -->
<svg width="366pt" height="103pt"
 viewBox="0.00 0.00 365.88 103.00" xmlns="http://www.w3.org/2000/svg" xmlns:xlink="http://www.w3.org/1999/xlink">
<g id="graph0" class="graph" transform="scale(1 1) rotate(0) translate(4 99)">
<title>fl::Operation::str</title>
<polygon fill="white" stroke="none" points="-4,4 -4,-99 361.876,-99 361.876,4 -4,4"/>
<!-- Node1 -->
<g id="node1" class="node"><title>Node1</title>
<polygon fill="#bfbfbf" stroke="black" points="0,-38.5 0,-56.5 87.1377,-56.5 87.1377,-38.5 0,-38.5"/>
<text text-anchor="middle" x="43.5688" y="-44.5" font-family="Helvetica,sans-Serif" font-size="10.00">fl::Operation::str</text>
</g>
<!-- Node2 -->
<g id="node2" class="node"><title>Node2</title>
<g id="a_node2"><a xlink:href="../../d3/da9/classfl_1_1_operation.html#a4e5b51cc68d898bcc6d36fa0b12e6461" target="_top" xlink:title="Returns whether &#160;is equal to &#160;at the given macheps ">
<polygon fill="white" stroke="black" points="123.138,-76.5 123.138,-94.5 218.62,-94.5 218.62,-76.5 123.138,-76.5"/>
<text text-anchor="middle" x="170.879" y="-82.5" font-family="Helvetica,sans-Serif" font-size="10.00">fl::Operation::isEq</text>
</a>
</g>
</g>
<!-- Node1&#45;&gt;Node2 -->
<g id="edge1" class="edge"><title>Node1&#45;&gt;Node2</title>
<path fill="none" stroke="midnightblue" d="M74.2656,-56.5055C90.9977,-61.5795 112.114,-67.9828 130.243,-73.4806"/>
<polygon fill="midnightblue" stroke="midnightblue" points="129.376,-76.8748 139.961,-76.4275 131.407,-70.176 129.376,-76.8748"/>
</g>
<!-- Node3 -->
<g id="node3" class="node"><title>Node3</title>
<g id="a_node3"><a xlink:href="../../d3/da9/classfl_1_1_operation.html#a5deef90b3dd234797cba4ef52be483e0" target="_top" xlink:title="Indicates whether &#160;is not&#45;a&#45;number (NaN) ">
<polygon fill="white" stroke="black" points="254.62,-57.5 254.62,-75.5 357.876,-75.5 357.876,-57.5 254.62,-57.5"/>
<text text-anchor="middle" x="306.248" y="-63.5" font-family="Helvetica,sans-Serif" font-size="10.00">fl::Operation::isNaN</text>
</a>
</g>
</g>
<!-- Node1&#45;&gt;Node3 -->
<g id="edge4" class="edge"><title>Node1&#45;&gt;Node3</title>
<path fill="none" stroke="midnightblue" d="M87.3228,-50.6162C130.07,-53.7319 196.211,-58.5527 244.419,-62.0664"/>
<polygon fill="midnightblue" stroke="midnightblue" points="244.191,-65.559 254.419,-62.7953 244.7,-58.5775 244.191,-65.559"/>
</g>
<!-- Node4 -->
<g id="node4" class="node"><title>Node4</title>
<g id="a_node4"><a xlink:href="../../d3/da9/classfl_1_1_operation.html#a0a221a37f9320e0994e1d9aee4af9fec" target="_top" xlink:title="Indicates whether &#160;is infinity. ">
<polygon fill="white" stroke="black" points="123.694,-0.5 123.694,-18.5 218.063,-18.5 218.063,-0.5 123.694,-0.5"/>
<text text-anchor="middle" x="170.879" y="-6.5" font-family="Helvetica,sans-Serif" font-size="10.00">fl::Operation::isInf</text>
</a>
</g>
</g>
<!-- Node1&#45;&gt;Node4 -->
<g id="edge3" class="edge"><title>Node1&#45;&gt;Node4</title>
<path fill="none" stroke="midnightblue" d="M74.2656,-38.4945C90.9977,-33.4205 112.114,-27.0172 130.243,-21.5194"/>
<polygon fill="midnightblue" stroke="midnightblue" points="131.407,-24.824 139.961,-18.5725 129.376,-18.1252 131.407,-24.824"/>
</g>
<!-- Node2&#45;&gt;Node3 -->
<g id="edge2" class="edge"><title>Node2&#45;&gt;Node3</title>
<path fill="none" stroke="midnightblue" d="M218.9,-78.8013C227.201,-77.6187 235.948,-76.3725 244.561,-75.1455"/>
<polygon fill="midnightblue" stroke="midnightblue" points="245.169,-78.5943 254.576,-73.7189 244.182,-71.6643 245.169,-78.5943"/>
</g>
</g>
</svg>
