<?xml version="1.0" encoding="UTF-8" standalone="no"?>
<!DOCTYPE svg PUBLIC "-//W3C//DTD SVG 1.1//EN"
 "http://www.w3.org/Graphics/SVG/1.1/DTD/svg11.dtd">
<!-- Generated by graphviz version 2.38.0 (20140413.2041)
 -->
<!-- Title: fl::Operation::isGt Pages: 1 -->
<svg width="373pt" height="27pt"
 viewBox="0.00 0.00 372.55 27.00" xmlns="http://www.w3.org/2000/svg" xmlns:xlink="http://www.w3.org/1999/xlink">
<g id="graph0" class="graph" transform="scale(1 1) rotate(0) translate(4 23)">
<title>fl::Operation::isGt</title>
<polygon fill="white" stroke="none" points="-4,4 -4,-23 368.546,-23 368.546,4 -4,4"/>
<!-- Node1 -->
<g id="node1" class="node"><title>Node1</title>
<polygon fill="#bfbfbf" stroke="black" points="0,-0.5 0,-18.5 93.8076,-18.5 93.8076,-0.5 0,-0.5"/>
<text text-anchor="middle" x="46.9038" y="-6.5" font-family="Helvetica,sans-Serif" font-size="10.00">fl::Operation::isGt</text>
</g>
<!-- Node2 -->
<g id="node2" class="node"><title>Node2</title>
<g id="a_node2"><a xlink:href="../../d3/da9/classfl_1_1_operation.html#a4e5b51cc68d898bcc6d36fa0b12e6461" target="_top" xlink:title="Returns whether &#160;is equal to &#160;at the given macheps ">
<polygon fill="white" stroke="black" points="129.808,-0.5 129.808,-18.5 225.29,-18.5 225.29,-0.5 129.808,-0.5"/>
<text text-anchor="middle" x="177.549" y="-6.5" font-family="Helvetica,sans-Serif" font-size="10.00">fl::Operation::isEq</text>
</a>
</g>
</g>
<!-- Node1&#45;&gt;Node2 -->
<g id="edge1" class="edge"><title>Node1&#45;&gt;Node2</title>
<path fill="none" stroke="midnightblue" d="M93.9843,-9.5C102.185,-9.5 110.817,-9.5 119.285,-9.5"/>
<polygon fill="midnightblue" stroke="midnightblue" points="119.491,-13.0001 129.491,-9.5 119.491,-6.0001 119.491,-13.0001"/>
</g>
<!-- Node3 -->
<g id="node3" class="node"><title>Node3</title>
<g id="a_node3"><a xlink:href="../../d3/da9/classfl_1_1_operation.html#a5deef90b3dd234797cba4ef52be483e0" target="_top" xlink:title="Indicates whether &#160;is not&#45;a&#45;number (NaN) ">
<polygon fill="white" stroke="black" points="261.29,-0.5 261.29,-18.5 364.546,-18.5 364.546,-0.5 261.29,-0.5"/>
<text text-anchor="middle" x="312.918" y="-6.5" font-family="Helvetica,sans-Serif" font-size="10.00">fl::Operation::isNaN</text>
</a>
</g>
</g>
<!-- Node2&#45;&gt;Node3 -->
<g id="edge2" class="edge"><title>Node2&#45;&gt;Node3</title>
<path fill="none" stroke="midnightblue" d="M225.57,-9.5C233.871,-9.5 242.618,-9.5 251.231,-9.5"/>
<polygon fill="midnightblue" stroke="midnightblue" points="251.246,-13.0001 261.246,-9.5 251.246,-6.0001 251.246,-13.0001"/>
</g>
</g>
</svg>
