<?xml version="1.0" encoding="UTF-8" standalone="no"?>
<!DOCTYPE svg PUBLIC "-//W3C//DTD SVG 1.1//EN"
 "http://www.w3.org/Graphics/SVG/1.1/DTD/svg11.dtd">
<!-- Generated by graphviz version 2.38.0 (20140413.2041)
 -->
<!-- Title: fl::Operation::sum Pages: 1 -->
<svg width="625pt" height="64pt"
 viewBox="0.00 0.00 625.23 64.00" xmlns="http://www.w3.org/2000/svg" xmlns:xlink="http://www.w3.org/1999/xlink">
<g id="graph0" class="graph" transform="scale(1 1) rotate(0) translate(4 60)">
<title>fl::Operation::sum</title>
<polygon fill="white" stroke="none" points="-4,4 -4,-60 621.234,-60 621.234,4 -4,4"/>
<!-- Node181 -->
<g id="node1" class="node"><title>Node181</title>
<polygon fill="#bfbfbf" stroke="black" points="0,-18.5 0,-36.5 94.9209,-36.5 94.9209,-18.5 0,-18.5"/>
<text text-anchor="middle" x="47.4604" y="-24.5" font-family="Helvetica,sans-Serif" font-size="10.00">fl::Operation::sum</text>
</g>
<!-- Node182 -->
<g id="node2" class="node"><title>Node182</title>
<g id="a_node2"><a xlink:href="../../d3/da9/classfl_1_1_operation.html#a5aad3e2e6d4cb224999bdb6427cc0e51" target="_top" xlink:title="Computes the mean of the vector. ">
<polygon fill="white" stroke="black" points="130.921,-18.5 130.921,-36.5 231.965,-36.5 231.965,-18.5 130.921,-18.5"/>
<text text-anchor="middle" x="181.443" y="-24.5" font-family="Helvetica,sans-Serif" font-size="10.00">fl::Operation::mean</text>
</a>
</g>
</g>
<!-- Node181&#45;&gt;Node182 -->
<g id="edge1" class="edge"><title>Node181&#45;&gt;Node182</title>
<path fill="none" stroke="midnightblue" d="M105.214,-27.5C113.71,-27.5 122.414,-27.5 130.749,-27.5"/>
<polygon fill="midnightblue" stroke="midnightblue" points="104.993,-24.0001 94.9925,-27.5 104.992,-31.0001 104.993,-24.0001"/>
</g>
<!-- Node183 -->
<g id="node3" class="node"><title>Node183</title>
<g id="a_node3"><a xlink:href="../../d3/da9/classfl_1_1_operation.html#aae9957c7c88b5c8ec35f2a75f43adf83" target="_top" xlink:title="Computes the standard deviation of the vector. ">
<polygon fill="white" stroke="black" points="267.965,-37.5 267.965,-55.5 424.6,-55.5 424.6,-37.5 267.965,-37.5"/>
<text text-anchor="middle" x="346.282" y="-43.5" font-family="Helvetica,sans-Serif" font-size="10.00">fl::Operation::standardDeviation</text>
</a>
</g>
</g>
<!-- Node182&#45;&gt;Node183 -->
<g id="edge2" class="edge"><title>Node182&#45;&gt;Node183</title>
<path fill="none" stroke="midnightblue" d="M242.215,-34.4742C250.594,-35.4518 259.303,-36.468 267.95,-37.4769"/>
<polygon fill="midnightblue" stroke="midnightblue" points="242.523,-30.9865 232.185,-33.3039 241.712,-37.9393 242.523,-30.9865"/>
</g>
<!-- Node184 -->
<g id="node4" class="node"><title>Node184</title>
<g id="a_node4"><a xlink:href="../../d3/da9/classfl_1_1_operation.html#a6412f103c47a20be57674bb593fa0ea7" target="_top" xlink:title="Computes the variance of the vector. ">
<polygon fill="white" stroke="black" points="289.369,-0.5 289.369,-18.5 403.196,-18.5 403.196,-0.5 289.369,-0.5"/>
<text text-anchor="middle" x="346.282" y="-6.5" font-family="Helvetica,sans-Serif" font-size="10.00">fl::Operation::variance</text>
</a>
</g>
</g>
<!-- Node182&#45;&gt;Node184 -->
<g id="edge3" class="edge"><title>Node182&#45;&gt;Node184</title>
<path fill="none" stroke="midnightblue" d="M242.129,-20.9024C257.545,-19.1983 274.083,-17.3702 289.303,-15.6879"/>
<polygon fill="midnightblue" stroke="midnightblue" points="241.74,-17.424 232.185,-22.0016 242.509,-24.3816 241.74,-17.424"/>
</g>
<!-- Node185 -->
<g id="node5" class="node"><title>Node185</title>
<g id="a_node5"><a xlink:href="../../d3/da9/classfl_1_1_operation.html#ab71512b4a2e3b3ab58a64b74830316d5" target="_top" xlink:title="Computes the standard deviation of the vector using the given mean. ">
<polygon fill="white" stroke="black" points="460.6,-0.5 460.6,-18.5 617.234,-18.5 617.234,-0.5 460.6,-0.5"/>
<text text-anchor="middle" x="538.917" y="-6.5" font-family="Helvetica,sans-Serif" font-size="10.00">fl::Operation::standardDeviation</text>
</a>
</g>
</g>
<!-- Node184&#45;&gt;Node185 -->
<g id="edge4" class="edge"><title>Node184&#45;&gt;Node185</title>
<path fill="none" stroke="midnightblue" d="M413.667,-9.5C428.704,-9.5 444.802,-9.5 460.258,-9.5"/>
<polygon fill="midnightblue" stroke="midnightblue" points="413.448,-6.0001 403.448,-9.5 413.448,-13.0001 413.448,-6.0001"/>
</g>
</g>
</svg>
