<?xml version="1.0" encoding="UTF-8" standalone="no"?>
<!DOCTYPE svg PUBLIC "-//W3C//DTD SVG 1.1//EN"
 "http://www.w3.org/Graphics/SVG/1.1/DTD/svg11.dtd">
<!-- Generated by graphviz version 2.38.0 (20140413.2041)
 -->
<!-- Title: fl::Operation::isEq Pages: 1 -->
<svg width="389pt" height="212pt"
 viewBox="0.00 0.00 389.25 212.00" xmlns="http://www.w3.org/2000/svg" xmlns:xlink="http://www.w3.org/1999/xlink">
<g id="graph0" class="graph" transform="scale(1 1) rotate(0) translate(4 208)">
<title>fl::Operation::isEq</title>
<polygon fill="white" stroke="none" points="-4,4 -4,-208 385.25,-208 385.25,4 -4,4"/>
<!-- Node38 -->
<g id="node1" class="node"><title>Node38</title>
<polygon fill="#bfbfbf" stroke="black" points="0,-92.5 0,-110.5 95.4824,-110.5 95.4824,-92.5 0,-92.5"/>
<text text-anchor="middle" x="47.7412" y="-98.5" font-family="Helvetica,sans-Serif" font-size="10.00">fl::Operation::isEq</text>
</g>
<!-- Node39 -->
<g id="node2" class="node"><title>Node39</title>
<g id="a_node2"><a xlink:href="../../d3/da9/classfl_1_1_operation.html#a8352d5ffd8ebf256ec706bec8f1d8af8" target="_top" xlink:title="Returns whether &#160;is equal to &#160;at the default tolerance. ">
<polygon fill="white" stroke="black" points="148.992,-185.5 148.992,-203.5 236.145,-203.5 236.145,-185.5 148.992,-185.5"/>
<text text-anchor="middle" x="192.568" y="-191.5" font-family="Helvetica,sans-Serif" font-size="10.00">fl::Operation::eq</text>
</a>
</g>
</g>
<!-- Node38&#45;&gt;Node39 -->
<g id="edge1" class="edge"><title>Node38&#45;&gt;Node39</title>
<path fill="none" stroke="midnightblue" d="M63.0759,-118.305C78.3999,-135.271 104.202,-161.107 131.482,-176.5 137.837,-180.085 144.981,-183.027 152.066,-185.416"/>
<polygon fill="midnightblue" stroke="midnightblue" points="65.6733,-115.958 56.4343,-110.773 60.4229,-120.588 65.6733,-115.958"/>
</g>
<!-- Node40 -->
<g id="node3" class="node"><title>Node40</title>
<g id="a_node3"><a xlink:href="../../d3/da9/classfl_1_1_operation.html#a00a16cb50581466396239084567a69d9" target="_top" xlink:title="Computes the logical AND. ">
<polygon fill="white" stroke="black" points="131.482,-148.5 131.482,-166.5 253.654,-166.5 253.654,-148.5 131.482,-148.5"/>
<text text-anchor="middle" x="192.568" y="-154.5" font-family="Helvetica,sans-Serif" font-size="10.00">fl::Operation::logicalAnd</text>
</a>
</g>
</g>
<!-- Node38&#45;&gt;Node40 -->
<g id="edge2" class="edge"><title>Node38&#45;&gt;Node40</title>
<path fill="none" stroke="midnightblue" d="M75.7796,-115.078C91.7503,-122.804 112.499,-132.337 131.482,-139.5 140.041,-142.729 149.452,-145.777 158.235,-148.415"/>
<polygon fill="midnightblue" stroke="midnightblue" points="77.0316,-111.794 66.5114,-110.538 73.9525,-118.08 77.0316,-111.794"/>
</g>
<!-- Node41 -->
<g id="node4" class="node"><title>Node41</title>
<g id="a_node4"><a xlink:href="../../d3/da9/classfl_1_1_operation.html#a7a9e7189cb217eb2f0ecc787da3b8cac" target="_top" xlink:title="Returns the complement of the value. ">
<polygon fill="white" stroke="black" points="132.598,-111.5 132.598,-129.5 252.539,-129.5 252.539,-111.5 132.598,-111.5"/>
<text text-anchor="middle" x="192.568" y="-117.5" font-family="Helvetica,sans-Serif" font-size="10.00">fl::Operation::logicalNot</text>
</a>
</g>
</g>
<!-- Node38&#45;&gt;Node41 -->
<g id="edge3" class="edge"><title>Node38&#45;&gt;Node41</title>
<path fill="none" stroke="midnightblue" d="M105.67,-109.073C114.476,-110.245 123.588,-111.457 132.441,-112.634"/>
<polygon fill="midnightblue" stroke="midnightblue" points="105.882,-105.571 95.5082,-107.721 104.959,-112.509 105.882,-105.571"/>
</g>
<!-- Node42 -->
<g id="node5" class="node"><title>Node42</title>
<g id="a_node5"><a xlink:href="../../d3/da9/classfl_1_1_operation.html#afbeb97277d6491ed88fe680633a64e15" target="_top" xlink:title="Computes the logical OR. ">
<polygon fill="white" stroke="black" points="134.825,-74.5 134.825,-92.5 250.312,-92.5 250.312,-74.5 134.825,-74.5"/>
<text text-anchor="middle" x="192.568" y="-80.5" font-family="Helvetica,sans-Serif" font-size="10.00">fl::Operation::logicalOr</text>
</a>
</g>
</g>
<!-- Node38&#45;&gt;Node42 -->
<g id="edge4" class="edge"><title>Node38&#45;&gt;Node42</title>
<path fill="none" stroke="midnightblue" d="M105.702,-94.3214C115.258,-93.1171 125.175,-91.8673 134.728,-90.6634"/>
<polygon fill="midnightblue" stroke="midnightblue" points="104.992,-90.8831 95.5082,-95.6061 105.867,-97.8282 104.992,-90.8831"/>
</g>
<!-- Node43 -->
<g id="node6" class="node"><title>Node43</title>
<g id="a_node6"><a xlink:href="../../d3/da9/classfl_1_1_operation.html#a14199e82c13df48e20b38c79ef046497" target="_top" xlink:title="Returns whether &#160;is different from &#160;at the default tolerance. ">
<polygon fill="white" stroke="black" points="146.211,-37.5 146.211,-55.5 238.925,-55.5 238.925,-37.5 146.211,-37.5"/>
<text text-anchor="middle" x="192.568" y="-43.5" font-family="Helvetica,sans-Serif" font-size="10.00">fl::Operation::neq</text>
</a>
</g>
</g>
<!-- Node38&#45;&gt;Node43 -->
<g id="edge5" class="edge"><title>Node38&#45;&gt;Node43</title>
<path fill="none" stroke="midnightblue" d="M77.1423,-88.2703C92.9723,-81.1181 113.137,-72.3701 131.482,-65.5 140.909,-61.97 151.32,-58.5233 160.791,-55.556"/>
<polygon fill="midnightblue" stroke="midnightblue" points="75.5463,-85.1513 67.9011,-92.4862 78.4518,-91.5198 75.5463,-85.1513"/>
</g>
<!-- Node44 -->
<g id="node7" class="node"><title>Node44</title>
<g id="a_node7"><a xlink:href="../../d3/da9/classfl_1_1_operation.html#a7bd8c4658e99cd1bc0c317e89695084e" target="_top" xlink:title="Returns a string representation of the given value. ">
<polygon fill="white" stroke="black" points="149,-0.5 149,-18.5 236.137,-18.5 236.137,-0.5 149,-0.5"/>
<text text-anchor="middle" x="192.568" y="-6.5" font-family="Helvetica,sans-Serif" font-size="10.00">fl::Operation::str</text>
</a>
</g>
</g>
<!-- Node38&#45;&gt;Node44 -->
<g id="edge6" class="edge"><title>Node38&#45;&gt;Node44</title>
<path fill="none" stroke="midnightblue" d="M64.1355,-84.2681C79.6672,-67.833 105.07,-43.4339 131.482,-28.5 138.625,-24.4614 146.74,-21.1583 154.644,-18.5065"/>
<polygon fill="midnightblue" stroke="midnightblue" points="61.1693,-82.3215 56.9601,-92.0443 66.3138,-87.0685 61.1693,-82.3215"/>
</g>
<!-- Node45 -->
<g id="node8" class="node"><title>Node45</title>
<g id="a_node8"><a xlink:href="../../d3/da9/classfl_1_1_operation.html#a6d59606686bb29794d3811004934d5e7" target="_top" xlink:title="Joins a vector of elements by the given separator into a single string. ">
<polygon fill="white" stroke="black" points="289.654,-0.5 289.654,-18.5 381.25,-18.5 381.25,-0.5 289.654,-0.5"/>
<text text-anchor="middle" x="335.452" y="-6.5" font-family="Helvetica,sans-Serif" font-size="10.00">fl::Operation::join</text>
</a>
</g>
</g>
<!-- Node44&#45;&gt;Node45 -->
<g id="edge7" class="edge"><title>Node44&#45;&gt;Node45</title>
<path fill="none" stroke="midnightblue" d="M246.344,-9.5C260.545,-9.5 275.769,-9.5 289.5,-9.5"/>
<polygon fill="midnightblue" stroke="midnightblue" points="246.221,-6.0001 236.22,-9.5 246.22,-13.0001 246.221,-6.0001"/>
</g>
</g>
</svg>
