<?xml version="1.0" encoding="UTF-8" standalone="no"?>
<!DOCTYPE svg PUBLIC "-//W3C//DTD SVG 1.1//EN"
 "http://www.w3.org/Graphics/SVG/1.1/DTD/svg11.dtd">
<!-- Generated by graphviz version 2.38.0 (20140413.2041)
 -->
<!-- Title: fl::Operation::scale Pages: 1 -->
<svg width="517pt" height="64pt"
 viewBox="0.00 0.00 517.39 64.00" xmlns="http://www.w3.org/2000/svg" xmlns:xlink="http://www.w3.org/1999/xlink">
<g id="graph0" class="graph" transform="scale(1 1) rotate(0) translate(4 60)">
<title>fl::Operation::scale</title>
<polygon fill="white" stroke="none" points="-4,4 -4,-60 513.388,-60 513.388,4 -4,4"/>
<!-- Node153 -->
<g id="node1" class="node"><title>Node153</title>
<polygon fill="#bfbfbf" stroke="black" points="0,-18.5 0,-36.5 99.374,-36.5 99.374,-18.5 0,-18.5"/>
<text text-anchor="middle" x="49.687" y="-24.5" font-family="Helvetica,sans-Serif" font-size="10.00">fl::Operation::scale</text>
</g>
<!-- Node154 -->
<g id="node2" class="node"><title>Node154</title>
<g id="a_node2"><a xlink:href="../../d3/da9/classfl_1_1_operation.html#a00089eb5294503c9518ee322c3c53001" target="_top" xlink:title="Returns &#160;bounded in . ">
<polygon fill="white" stroke="black" points="135.374,-18.5 135.374,-36.5 239.211,-36.5 239.211,-18.5 135.374,-18.5"/>
<text text-anchor="middle" x="187.292" y="-24.5" font-family="Helvetica,sans-Serif" font-size="10.00">fl::Operation::bound</text>
</a>
</g>
</g>
<!-- Node153&#45;&gt;Node154 -->
<g id="edge1" class="edge"><title>Node153&#45;&gt;Node154</title>
<path fill="none" stroke="midnightblue" d="M99.6437,-27.5C107.842,-27.5 116.439,-27.5 124.902,-27.5"/>
<polygon fill="midnightblue" stroke="midnightblue" points="125.123,-31.0001 135.122,-27.5 125.122,-24.0001 125.123,-31.0001"/>
</g>
<!-- Node155 -->
<g id="node3" class="node"><title>Node155</title>
<g id="a_node3"><a xlink:href="../../d3/da9/classfl_1_1_operation.html#a8626d08eb181ed5a36acf703d9a2baba" target="_top" xlink:title="Returns the maximum between the two parameters. ">
<polygon fill="white" stroke="black" points="275.211,-37.5 275.211,-55.5 370.132,-55.5 370.132,-37.5 275.211,-37.5"/>
<text text-anchor="middle" x="322.671" y="-43.5" font-family="Helvetica,sans-Serif" font-size="10.00">fl::Operation::max</text>
</a>
</g>
</g>
<!-- Node154&#45;&gt;Node155 -->
<g id="edge2" class="edge"><title>Node154&#45;&gt;Node155</title>
<path fill="none" stroke="midnightblue" d="M239.479,-34.7916C247.927,-35.995 256.727,-37.2486 265.294,-38.469"/>
<polygon fill="midnightblue" stroke="midnightblue" points="264.815,-41.9361 275.209,-39.8814 265.803,-35.006 264.815,-41.9361"/>
</g>
<!-- Node157 -->
<g id="node5" class="node"><title>Node157</title>
<g id="a_node5"><a xlink:href="../../d3/da9/classfl_1_1_operation.html#ad717f0ee307b2423a6859c6df7757d74" target="_top" xlink:title="Returns the minimum between the two parameters. ">
<polygon fill="white" stroke="black" points="276.6,-0.5 276.6,-18.5 368.743,-18.5 368.743,-0.5 276.6,-0.5"/>
<text text-anchor="middle" x="322.671" y="-6.5" font-family="Helvetica,sans-Serif" font-size="10.00">fl::Operation::min</text>
</a>
</g>
</g>
<!-- Node154&#45;&gt;Node157 -->
<g id="edge4" class="edge"><title>Node154&#45;&gt;Node157</title>
<path fill="none" stroke="midnightblue" d="M239.479,-20.5922C248.339,-19.3965 257.586,-18.1485 266.546,-16.9394"/>
<polygon fill="midnightblue" stroke="midnightblue" points="267.062,-20.4016 276.504,-15.5955 266.125,-13.4645 267.062,-20.4016"/>
</g>
<!-- Node156 -->
<g id="node4" class="node"><title>Node156</title>
<g id="a_node4"><a xlink:href="../../d3/da9/classfl_1_1_operation.html#a5deef90b3dd234797cba4ef52be483e0" target="_top" xlink:title="Indicates whether &#160;is not&#45;a&#45;number (NaN) ">
<polygon fill="white" stroke="black" points="406.132,-18.5 406.132,-36.5 509.388,-36.5 509.388,-18.5 406.132,-18.5"/>
<text text-anchor="middle" x="457.76" y="-24.5" font-family="Helvetica,sans-Serif" font-size="10.00">fl::Operation::isNaN</text>
</a>
</g>
</g>
<!-- Node155&#45;&gt;Node156 -->
<g id="edge3" class="edge"><title>Node155&#45;&gt;Node156</title>
<path fill="none" stroke="midnightblue" d="M370.219,-39.8547C378.516,-38.6702 387.27,-37.4205 395.896,-36.189"/>
<polygon fill="midnightblue" stroke="midnightblue" points="396.524,-39.635 405.929,-34.7568 395.534,-32.7053 396.524,-39.635"/>
</g>
<!-- Node157&#45;&gt;Node156 -->
<g id="edge5" class="edge"><title>Node157&#45;&gt;Node156</title>
<path fill="none" stroke="midnightblue" d="M369.101,-15.6442C377.745,-16.8134 386.92,-18.0543 395.953,-19.2759"/>
<polygon fill="midnightblue" stroke="midnightblue" points="395.676,-22.7703 406.055,-20.6422 396.614,-15.8334 395.676,-22.7703"/>
</g>
</g>
</svg>
