<?xml version="1.0" encoding="UTF-8" standalone="no"?>
<!DOCTYPE svg PUBLIC "-//W3C//DTD SVG 1.1//EN"
 "http://www.w3.org/Graphics/SVG/1.1/DTD/svg11.dtd">
<!-- Generated by graphviz version 2.38.0 (20140413.2041)
 -->
<!-- Title: fl::Operation::isLE Pages: 1 -->
<svg width="374pt" height="27pt"
 viewBox="0.00 0.00 374.22 27.00" xmlns="http://www.w3.org/2000/svg" xmlns:xlink="http://www.w3.org/1999/xlink">
<g id="graph0" class="graph" transform="scale(1 1) rotate(0) translate(4 23)">
<title>fl::Operation::isLE</title>
<polygon fill="white" stroke="none" points="-4,4 -4,-23 370.221,-23 370.221,4 -4,4"/>
<!-- Node1 -->
<g id="node1" class="node"><title>Node1</title>
<polygon fill="#bfbfbf" stroke="black" points="0,-0.5 0,-18.5 95.4824,-18.5 95.4824,-0.5 0,-0.5"/>
<text text-anchor="middle" x="47.7412" y="-6.5" font-family="Helvetica,sans-Serif" font-size="10.00">fl::Operation::isLE</text>
</g>
<!-- Node2 -->
<g id="node2" class="node"><title>Node2</title>
<g id="a_node2"><a xlink:href="../../d3/da9/classfl_1_1_operation.html#a4e5b51cc68d898bcc6d36fa0b12e6461" target="_top" xlink:title="Returns whether &#160;is equal to &#160;at the given macheps ">
<polygon fill="white" stroke="black" points="131.482,-0.5 131.482,-18.5 226.965,-18.5 226.965,-0.5 131.482,-0.5"/>
<text text-anchor="middle" x="179.224" y="-6.5" font-family="Helvetica,sans-Serif" font-size="10.00">fl::Operation::isEq</text>
</a>
</g>
</g>
<!-- Node1&#45;&gt;Node2 -->
<g id="edge1" class="edge"><title>Node1&#45;&gt;Node2</title>
<path fill="none" stroke="midnightblue" d="M95.4873,-9.5C103.727,-9.5 112.39,-9.5 120.88,-9.5"/>
<polygon fill="midnightblue" stroke="midnightblue" points="121.111,-13.0001 131.111,-9.5 121.111,-6.0001 121.111,-13.0001"/>
</g>
<!-- Node3 -->
<g id="node3" class="node"><title>Node3</title>
<g id="a_node3"><a xlink:href="../../d3/da9/classfl_1_1_operation.html#a5deef90b3dd234797cba4ef52be483e0" target="_top" xlink:title="Indicates whether &#160;is not&#45;a&#45;number (NaN) ">
<polygon fill="white" stroke="black" points="262.965,-0.5 262.965,-18.5 366.221,-18.5 366.221,-0.5 262.965,-0.5"/>
<text text-anchor="middle" x="314.593" y="-6.5" font-family="Helvetica,sans-Serif" font-size="10.00">fl::Operation::isNaN</text>
</a>
</g>
</g>
<!-- Node2&#45;&gt;Node3 -->
<g id="edge2" class="edge"><title>Node2&#45;&gt;Node3</title>
<path fill="none" stroke="midnightblue" d="M227.245,-9.5C235.546,-9.5 244.293,-9.5 252.906,-9.5"/>
<polygon fill="midnightblue" stroke="midnightblue" points="252.921,-13.0001 262.921,-9.5 252.92,-6.0001 252.921,-13.0001"/>
</g>
</g>
</svg>
