<?xml version="1.0" encoding="UTF-8" standalone="no"?>
<!DOCTYPE svg PUBLIC "-//W3C//DTD SVG 1.1//EN"
 "http://www.w3.org/Graphics/SVG/1.1/DTD/svg11.dtd">
<!-- Generated by graphviz version 2.38.0 (20140413.2041)
 -->
<!-- Title: fl::Operation::isGE Pages: 1 -->
<svg width="376pt" height="27pt"
 viewBox="0.00 0.00 376.44 27.00" xmlns="http://www.w3.org/2000/svg" xmlns:xlink="http://www.w3.org/1999/xlink">
<g id="graph0" class="graph" transform="scale(1 1) rotate(0) translate(4 23)">
<title>fl::Operation::isGE</title>
<polygon fill="white" stroke="none" points="-4,4 -4,-23 372.438,-23 372.438,4 -4,4"/>
<!-- Node1 -->
<g id="node1" class="node"><title>Node1</title>
<polygon fill="#bfbfbf" stroke="black" points="0,-0.5 0,-18.5 97.6992,-18.5 97.6992,-0.5 0,-0.5"/>
<text text-anchor="middle" x="48.8496" y="-6.5" font-family="Helvetica,sans-Serif" font-size="10.00">fl::Operation::isGE</text>
</g>
<!-- Node2 -->
<g id="node2" class="node"><title>Node2</title>
<g id="a_node2"><a xlink:href="../../d3/da9/classfl_1_1_operation.html#a4e5b51cc68d898bcc6d36fa0b12e6461" target="_top" xlink:title="Returns whether &#160;is equal to &#160;at the given macheps ">
<polygon fill="white" stroke="black" points="133.699,-0.5 133.699,-18.5 229.182,-18.5 229.182,-0.5 133.699,-0.5"/>
<text text-anchor="middle" x="181.44" y="-6.5" font-family="Helvetica,sans-Serif" font-size="10.00">fl::Operation::isEq</text>
</a>
</g>
</g>
<!-- Node1&#45;&gt;Node2 -->
<g id="edge1" class="edge"><title>Node1&#45;&gt;Node2</title>
<path fill="none" stroke="midnightblue" d="M97.7353,-9.5C106.016,-9.5 114.699,-9.5 123.197,-9.5"/>
<polygon fill="midnightblue" stroke="midnightblue" points="123.433,-13.0001 133.433,-9.5 123.433,-6.0001 123.433,-13.0001"/>
</g>
<!-- Node3 -->
<g id="node3" class="node"><title>Node3</title>
<g id="a_node3"><a xlink:href="../../d3/da9/classfl_1_1_operation.html#a5deef90b3dd234797cba4ef52be483e0" target="_top" xlink:title="Indicates whether &#160;is not&#45;a&#45;number (NaN) ">
<polygon fill="white" stroke="black" points="265.182,-0.5 265.182,-18.5 368.438,-18.5 368.438,-0.5 265.182,-0.5"/>
<text text-anchor="middle" x="316.81" y="-6.5" font-family="Helvetica,sans-Serif" font-size="10.00">fl::Operation::isNaN</text>
</a>
</g>
</g>
<!-- Node2&#45;&gt;Node3 -->
<g id="edge2" class="edge"><title>Node2&#45;&gt;Node3</title>
<path fill="none" stroke="midnightblue" d="M229.461,-9.5C237.762,-9.5 246.51,-9.5 255.123,-9.5"/>
<polygon fill="midnightblue" stroke="midnightblue" points="255.137,-13.0001 265.137,-9.5 255.137,-6.0001 255.137,-13.0001"/>
</g>
</g>
</svg>
