<?xml version="1.0" encoding="UTF-8" standalone="no"?>
<!DOCTYPE svg PUBLIC "-//W3C//DTD SVG 1.1//EN"
 "http://www.w3.org/Graphics/SVG/1.1/DTD/svg11.dtd">
<!-- Generated by graphviz version 2.38.0 (20140413.2041)
 -->
<!-- Title: fl::Operation::isGt Pages: 1 -->
<svg width="377pt" height="101pt"
 viewBox="0.00 0.00 377.02 101.00" xmlns="http://www.w3.org/2000/svg" xmlns:xlink="http://www.w3.org/1999/xlink">
<g id="graph0" class="graph" transform="scale(1 1) rotate(0) translate(4 97)">
<title>fl::Operation::isGt</title>
<polygon fill="white" stroke="none" points="-4,4 -4,-97 373.019,-97 373.019,4 -4,4"/>
<!-- Node1 -->
<g id="node1" class="node"><title>Node1</title>
<polygon fill="#bfbfbf" stroke="black" points="0,-37.5 0,-55.5 93.8076,-55.5 93.8076,-37.5 0,-37.5"/>
<text text-anchor="middle" x="46.9038" y="-43.5" font-family="Helvetica,sans-Serif" font-size="10.00">fl::Operation::isGt</text>
</g>
<!-- Node2 -->
<g id="node2" class="node"><title>Node2</title>
<g id="a_node2"><a xlink:href="../../d3/da9/classfl_1_1_operation.html#a00089eb5294503c9518ee322c3c53001" target="_top" xlink:title="Returns &#160;bounded in . ">
<polygon fill="white" stroke="black" points="129.808,-74.5 129.808,-92.5 233.645,-92.5 233.645,-74.5 129.808,-74.5"/>
<text text-anchor="middle" x="181.726" y="-80.5" font-family="Helvetica,sans-Serif" font-size="10.00">fl::Operation::bound</text>
</a>
</g>
</g>
<!-- Node1&#45;&gt;Node2 -->
<g id="edge1" class="edge"><title>Node1&#45;&gt;Node2</title>
<path fill="none" stroke="midnightblue" d="M90.1744,-58.2752C108.923,-63.4979 130.642,-69.5482 148.109,-74.414"/>
<polygon fill="midnightblue" stroke="midnightblue" points="90.9683,-54.8632 80.3958,-55.5512 89.0898,-61.6064 90.9683,-54.8632"/>
</g>
<!-- Node4 -->
<g id="node4" class="node"><title>Node4</title>
<g id="a_node4"><a xlink:href="../../d3/da9/classfl_1_1_operation.html#afb41c5a5b6fd59b844b19c79f07646af" target="_top" xlink:title="Returns whether &#160;is greater than or equal to &#160;at the default macheps ">
<polygon fill="white" stroke="black" points="139.542,-37.5 139.542,-55.5 223.911,-55.5 223.911,-37.5 139.542,-37.5"/>
<text text-anchor="middle" x="181.726" y="-43.5" font-family="Helvetica,sans-Serif" font-size="10.00">fl::Operation::gt</text>
</a>
</g>
</g>
<!-- Node1&#45;&gt;Node4 -->
<g id="edge3" class="edge"><title>Node1&#45;&gt;Node4</title>
<path fill="none" stroke="midnightblue" d="M104.155,-46.5C115.898,-46.5 128.075,-46.5 139.17,-46.5"/>
<polygon fill="midnightblue" stroke="midnightblue" points="103.986,-43.0001 93.9858,-46.5 103.986,-50.0001 103.986,-43.0001"/>
</g>
<!-- Node5 -->
<g id="node5" class="node"><title>Node5</title>
<g id="a_node5"><a xlink:href="../../d3/da9/classfl_1_1_operation.html#a1ba6888fa8ec88f19007cf3a31f3111c" target="_top" xlink:title="Indicates whether &#160;is within the boundaries (open or closed) ">
<polygon fill="white" stroke="black" points="139.82,-0.5 139.82,-18.5 223.632,-18.5 223.632,-0.5 139.82,-0.5"/>
<text text-anchor="middle" x="181.726" y="-6.5" font-family="Helvetica,sans-Serif" font-size="10.00">fl::Operation::in</text>
</a>
</g>
</g>
<!-- Node1&#45;&gt;Node5 -->
<g id="edge4" class="edge"><title>Node1&#45;&gt;Node5</title>
<path fill="none" stroke="midnightblue" d="M90.1744,-34.7248C108.923,-29.5021 130.642,-23.4518 148.109,-18.586"/>
<polygon fill="midnightblue" stroke="midnightblue" points="89.0898,-31.3936 80.3958,-37.4488 90.9683,-38.1368 89.0898,-31.3936"/>
</g>
<!-- Node3 -->
<g id="node3" class="node"><title>Node3</title>
<g id="a_node3"><a xlink:href="../../d3/da9/classfl_1_1_operation.html#a794e307d963dda1081aa55a2c0d20fa9" target="_top" xlink:title="Linearly interpolates the parameter &#160;in range [fromMin,fromMax] to a new value in the range [toMin...">
<polygon fill="white" stroke="black" points="269.645,-74.5 269.645,-92.5 369.019,-92.5 369.019,-74.5 269.645,-74.5"/>
<text text-anchor="middle" x="319.332" y="-80.5" font-family="Helvetica,sans-Serif" font-size="10.00">fl::Operation::scale</text>
</a>
</g>
</g>
<!-- Node2&#45;&gt;Node3 -->
<g id="edge2" class="edge"><title>Node2&#45;&gt;Node3</title>
<path fill="none" stroke="midnightblue" d="M244.145,-83.5C252.55,-83.5 261.088,-83.5 269.234,-83.5"/>
<polygon fill="midnightblue" stroke="midnightblue" points="243.993,-80.0001 233.993,-83.5 243.993,-87.0001 243.993,-80.0001"/>
</g>
</g>
</svg>
