<?xml version="1.0" encoding="UTF-8" standalone="no"?>
<!DOCTYPE svg PUBLIC "-//W3C//DTD SVG 1.1//EN"
 "http://www.w3.org/Graphics/SVG/1.1/DTD/svg11.dtd">
<!-- Generated by graphviz version 2.38.0 (20140413.2041)
 -->
<!-- Title: fuzzylite/fl/factory/FunctionFactory.h Pages: 1 -->
<svg width="1100pt" height="477pt"
 viewBox="0.00 0.00 1100.00 477.00" xmlns="http://www.w3.org/2000/svg" xmlns:xlink="http://www.w3.org/1999/xlink">
<g id="graph0" class="graph" transform="scale(1 1) rotate(0) translate(4 473)">
<title>fuzzylite/fl/factory/FunctionFactory.h</title>
<polygon fill="white" stroke="none" points="-4,4 -4,-473 1096,-473 1096,4 -4,4"/>
<!-- Node0 -->
<g id="node1" class="node"><title>Node0</title>
<polygon fill="#bfbfbf" stroke="black" points="231.962,-440.5 231.962,-468.5 330.038,-468.5 330.038,-440.5 231.962,-440.5"/>
<text text-anchor="start" x="239.962" y="-456.5" font-family="Helvetica,sans-Serif" font-size="10.00">fuzzylite/fl/factory</text>
<text text-anchor="middle" x="281" y="-446.5" font-family="Helvetica,sans-Serif" font-size="10.00">/FunctionFactory.h</text>
</g>
<!-- Node1 -->
<g id="node2" class="node"><title>Node1</title>
<g id="a_node2"><a xlink:href="../../d2/d7d/_cloning_factory_8h.html" target="_top" xlink:title="fl/factory/CloningFactory.h">
<polygon fill="white" stroke="black" points="140.29,-220.5 140.29,-238.5 271.71,-238.5 271.71,-220.5 140.29,-220.5"/>
<text text-anchor="middle" x="206" y="-226.5" font-family="Helvetica,sans-Serif" font-size="10.00">fl/factory/CloningFactory.h</text>
</a>
</g>
</g>
<!-- Node0&#45;&gt;Node1 -->
<g id="edge1" class="edge"><title>Node0&#45;&gt;Node1</title>
<path fill="none" stroke="midnightblue" d="M275.996,-440.095C272.32,-430.159 267.246,-416.271 263,-404 243.433,-347.447 221.734,-279.972 211.684,-248.422"/>
<polygon fill="midnightblue" stroke="midnightblue" points="215.002,-247.308 208.637,-238.838 208.331,-249.428 215.002,-247.308"/>
</g>
<!-- Node15 -->
<g id="node16" class="node"><title>Node15</title>
<g id="a_node16"><a xlink:href="../../df/dc1/_function_8h.html" target="_top" xlink:title="fl/term/Function.h">
<polygon fill="white" stroke="black" points="272.375,-385.5 272.375,-403.5 365.625,-403.5 365.625,-385.5 272.375,-385.5"/>
<text text-anchor="middle" x="319" y="-391.5" font-family="Helvetica,sans-Serif" font-size="10.00">fl/term/Function.h</text>
</a>
</g>
</g>
<!-- Node0&#45;&gt;Node15 -->
<g id="edge18" class="edge"><title>Node0&#45;&gt;Node15</title>
<path fill="none" stroke="midnightblue" d="M289.623,-440.339C295.084,-432.004 302.194,-421.151 308.052,-412.211"/>
<polygon fill="midnightblue" stroke="midnightblue" points="311.028,-414.054 313.581,-403.771 305.173,-410.218 311.028,-414.054"/>
</g>
<!-- Node2 -->
<g id="node3" class="node"><title>Node2</title>
<g id="a_node3"><a xlink:href="../../de/d53/fuzzylite_8h.html" target="_top" xlink:title="fl/fuzzylite.h">
<polygon fill="white" stroke="black" points="648.879,-55.5 648.879,-73.5 717.121,-73.5 717.121,-55.5 648.879,-55.5"/>
<text text-anchor="middle" x="683" y="-61.5" font-family="Helvetica,sans-Serif" font-size="10.00">fl/fuzzylite.h</text>
</a>
</g>
</g>
<!-- Node1&#45;&gt;Node2 -->
<g id="edge2" class="edge"><title>Node1&#45;&gt;Node2</title>
<path fill="none" stroke="midnightblue" d="M208.662,-220.085C213.207,-206.879 223.594,-181.133 240,-165 278.125,-127.51 295.969,-125.967 347,-110 448.073,-78.3755 573.105,-69.2228 638.449,-66.5756"/>
<polygon fill="midnightblue" stroke="midnightblue" points="638.93,-70.0603 648.793,-66.1912 638.67,-63.0651 638.93,-70.0603"/>
</g>
<!-- Node10 -->
<g id="node11" class="node"><title>Node10</title>
<polygon fill="white" stroke="#bfbfbf" points="274.273,-165.5 274.273,-183.5 309.727,-183.5 309.727,-165.5 274.273,-165.5"/>
<text text-anchor="middle" x="292" y="-171.5" font-family="Helvetica,sans-Serif" font-size="10.00">map</text>
</g>
<!-- Node1&#45;&gt;Node10 -->
<g id="edge10" class="edge"><title>Node1&#45;&gt;Node10</title>
<path fill="none" stroke="midnightblue" d="M219.062,-220.45C232.574,-212.123 253.916,-198.97 270.03,-189.039"/>
<polygon fill="midnightblue" stroke="midnightblue" points="272.139,-191.851 278.816,-183.625 268.466,-185.892 272.139,-191.851"/>
</g>
<!-- Node11 -->
<g id="node12" class="node"><title>Node11</title>
<polygon fill="white" stroke="#bfbfbf" points="355.773,-110.5 355.773,-128.5 396.227,-128.5 396.227,-110.5 355.773,-110.5"/>
<text text-anchor="middle" x="376" y="-116.5" font-family="Helvetica,sans-Serif" font-size="10.00">string</text>
</g>
<!-- Node1&#45;&gt;Node11 -->
<g id="edge11" class="edge"><title>Node1&#45;&gt;Node11</title>
<path fill="none" stroke="midnightblue" d="M211.646,-220.407C221.236,-207.186 241.926,-180.844 265,-165 289.898,-147.904 322.343,-135.868 345.717,-128.662"/>
<polygon fill="midnightblue" stroke="midnightblue" points="346.851,-131.977 355.444,-125.779 344.862,-125.265 346.851,-131.977"/>
</g>
<!-- Node12 -->
<g id="node13" class="node"><title>Node12</title>
<polygon fill="white" stroke="#bfbfbf" points="54.3843,-55.5 54.3843,-73.5 97.6157,-73.5 97.6157,-55.5 54.3843,-55.5"/>
<text text-anchor="middle" x="76" y="-61.5" font-family="Helvetica,sans-Serif" font-size="10.00">vector</text>
</g>
<!-- Node1&#45;&gt;Node12 -->
<g id="edge12" class="edge"><title>Node1&#45;&gt;Node12</title>
<path fill="none" stroke="midnightblue" d="M157.909,-220.489C135.494,-214.273 110.425,-203.3 95,-184 71.8753,-155.065 71.7051,-109.172 73.7603,-83.827"/>
<polygon fill="midnightblue" stroke="midnightblue" points="77.254,-84.066 74.7868,-73.7625 70.2902,-83.3558 77.254,-84.066"/>
</g>
<!-- Node13 -->
<g id="node14" class="node"><title>Node13</title>
<g id="a_node14"><a xlink:href="../../df/d98/_exception_8h.html" target="_top" xlink:title="fl/Exception.h">
<polygon fill="white" stroke="black" points="103.983,-165.5 103.983,-183.5 180.017,-183.5 180.017,-165.5 103.983,-165.5"/>
<text text-anchor="middle" x="142" y="-171.5" font-family="Helvetica,sans-Serif" font-size="10.00">fl/Exception.h</text>
</a>
</g>
</g>
<!-- Node1&#45;&gt;Node13 -->
<g id="edge13" class="edge"><title>Node1&#45;&gt;Node13</title>
<path fill="none" stroke="midnightblue" d="M196.28,-220.45C186.6,-212.434 171.521,-199.947 159.71,-190.166"/>
<polygon fill="midnightblue" stroke="midnightblue" points="161.746,-187.308 151.812,-183.625 157.281,-192.699 161.746,-187.308"/>
</g>
<!-- Node3 -->
<g id="node4" class="node"><title>Node3</title>
<polygon fill="white" stroke="#bfbfbf" points="920.436,-0.5 920.436,-18.5 977.564,-18.5 977.564,-0.5 920.436,-0.5"/>
<text text-anchor="middle" x="949" y="-6.5" font-family="Helvetica,sans-Serif" font-size="10.00">algorithm</text>
</g>
<!-- Node2&#45;&gt;Node3 -->
<g id="edge3" class="edge"><title>Node2&#45;&gt;Node3</title>
<path fill="none" stroke="midnightblue" d="M717.23,-56.6797C766.824,-46.7983 858.392,-28.5536 910.351,-18.2007"/>
<polygon fill="midnightblue" stroke="midnightblue" points="911.067,-21.6269 920.191,-16.2402 909.699,-14.7619 911.067,-21.6269"/>
</g>
<!-- Node4 -->
<g id="node5" class="node"><title>Node4</title>
<polygon fill="white" stroke="#bfbfbf" points="1032.38,-0.5 1032.38,-18.5 1075.62,-18.5 1075.62,-0.5 1032.38,-0.5"/>
<text text-anchor="middle" x="1054" y="-6.5" font-family="Helvetica,sans-Serif" font-size="10.00">cmath</text>
</g>
<!-- Node2&#45;&gt;Node4 -->
<g id="edge4" class="edge"><title>Node2&#45;&gt;Node4</title>
<path fill="none" stroke="midnightblue" d="M717.238,-58.6089C788.583,-48.4168 952.295,-25.0292 1021.82,-15.0969"/>
<polygon fill="midnightblue" stroke="midnightblue" points="1022.74,-18.5015 1032.14,-13.6224 1021.75,-11.5719 1022.74,-18.5015"/>
</g>
<!-- Node5 -->
<g id="node6" class="node"><title>Node5</title>
<polygon fill="white" stroke="#bfbfbf" points="655.828,-0.5 655.828,-18.5 710.172,-18.5 710.172,-0.5 655.828,-0.5"/>
<text text-anchor="middle" x="683" y="-6.5" font-family="Helvetica,sans-Serif" font-size="10.00">iostream</text>
</g>
<!-- Node2&#45;&gt;Node5 -->
<g id="edge5" class="edge"><title>Node2&#45;&gt;Node5</title>
<path fill="none" stroke="midnightblue" d="M683,-55.2188C683,-48.1769 683,-37.8083 683,-28.8277"/>
<polygon fill="midnightblue" stroke="midnightblue" points="686.5,-28.5495 683,-18.5496 679.5,-28.5496 686.5,-28.5495"/>
</g>
<!-- Node6 -->
<g id="node7" class="node"><title>Node6</title>
<polygon fill="white" stroke="#bfbfbf" points="728.219,-0.5 728.219,-18.5 779.781,-18.5 779.781,-0.5 728.219,-0.5"/>
<text text-anchor="middle" x="754" y="-6.5" font-family="Helvetica,sans-Serif" font-size="10.00">sstream</text>
</g>
<!-- Node2&#45;&gt;Node6 -->
<g id="edge6" class="edge"><title>Node2&#45;&gt;Node6</title>
<path fill="none" stroke="midnightblue" d="M693.783,-55.4504C704.626,-47.3566 721.576,-34.7042 734.733,-24.8822"/>
<polygon fill="midnightblue" stroke="midnightblue" points="737.195,-27.412 743.115,-18.6253 733.008,-21.8025 737.195,-27.412"/>
</g>
<!-- Node7 -->
<g id="node8" class="node"><title>Node7</title>
<polygon fill="white" stroke="#bfbfbf" points="797.613,-0.5 797.613,-18.5 836.387,-18.5 836.387,-0.5 797.613,-0.5"/>
<text text-anchor="middle" x="817" y="-6.5" font-family="Helvetica,sans-Serif" font-size="10.00">limits</text>
</g>
<!-- Node2&#45;&gt;Node7 -->
<g id="edge7" class="edge"><title>Node2&#45;&gt;Node7</title>
<path fill="none" stroke="midnightblue" d="M703.352,-55.4504C725.845,-46.5539 762.263,-32.1498 787.796,-22.0506"/>
<polygon fill="midnightblue" stroke="midnightblue" points="789.32,-25.2121 797.331,-18.2794 786.745,-18.7028 789.32,-25.2121"/>
</g>
<!-- Node8 -->
<g id="node9" class="node"><title>Node8</title>
<polygon fill="white" stroke="#bfbfbf" points="519.943,-0.5 519.943,-18.5 572.057,-18.5 572.057,-0.5 519.943,-0.5"/>
<text text-anchor="middle" x="546" y="-6.5" font-family="Helvetica,sans-Serif" font-size="10.00">memory</text>
</g>
<!-- Node2&#45;&gt;Node8 -->
<g id="edge8" class="edge"><title>Node2&#45;&gt;Node8</title>
<path fill="none" stroke="midnightblue" d="M662.193,-55.4504C639.36,-46.6173 602.492,-32.3546 576.417,-22.267"/>
<polygon fill="midnightblue" stroke="midnightblue" points="577.592,-18.9692 567.003,-18.6253 575.067,-25.4977 577.592,-18.9692"/>
</g>
<!-- Node9 -->
<g id="node10" class="node"><title>Node9</title>
<polygon fill="white" stroke="#bfbfbf" points="589.879,-0.5 589.879,-18.5 638.121,-18.5 638.121,-0.5 589.879,-0.5"/>
<text text-anchor="middle" x="614" y="-6.5" font-family="Helvetica,sans-Serif" font-size="10.00">cstddef</text>
</g>
<!-- Node2&#45;&gt;Node9 -->
<g id="edge9" class="edge"><title>Node2&#45;&gt;Node9</title>
<path fill="none" stroke="midnightblue" d="M672.52,-55.4504C661.983,-47.3566 645.511,-34.7042 632.724,-24.8822"/>
<polygon fill="midnightblue" stroke="midnightblue" points="634.641,-21.9412 624.578,-18.6253 630.377,-27.4926 634.641,-21.9412"/>
</g>
<!-- Node13&#45;&gt;Node2 -->
<g id="edge14" class="edge"><title>Node13&#45;&gt;Node2</title>
<path fill="none" stroke="midnightblue" d="M154.65,-165.29C178.973,-149.659 231.651,-116.59 252,-110 323.134,-86.9616 543.697,-72.8692 638.714,-67.7217"/>
<polygon fill="midnightblue" stroke="midnightblue" points="639.057,-71.2085 648.856,-67.1805 638.684,-64.2184 639.057,-71.2085"/>
</g>
<!-- Node13&#45;&gt;Node11 -->
<g id="edge16" class="edge"><title>Node13&#45;&gt;Node11</title>
<path fill="none" stroke="midnightblue" d="M177.54,-165.45C223.486,-155.044 302.706,-137.101 345.855,-127.328"/>
<polygon fill="midnightblue" stroke="midnightblue" points="346.773,-130.708 355.753,-125.086 345.227,-123.881 346.773,-130.708"/>
</g>
<!-- Node13&#45;&gt;Node12 -->
<g id="edge17" class="edge"><title>Node13&#45;&gt;Node12</title>
<path fill="none" stroke="midnightblue" d="M137.039,-165.382C126.289,-147.791 100.656,-105.846 86.2602,-82.2894"/>
<polygon fill="midnightblue" stroke="midnightblue" points="89.2193,-80.4195 81.0183,-73.7118 83.2463,-84.0697 89.2193,-80.4195"/>
</g>
<!-- Node14 -->
<g id="node15" class="node"><title>Node14</title>
<polygon fill="white" stroke="#bfbfbf" points="141.596,-110.5 141.596,-128.5 200.404,-128.5 200.404,-110.5 141.596,-110.5"/>
<text text-anchor="middle" x="171" y="-116.5" font-family="Helvetica,sans-Serif" font-size="10.00">exception</text>
</g>
<!-- Node13&#45;&gt;Node14 -->
<g id="edge15" class="edge"><title>Node13&#45;&gt;Node14</title>
<path fill="none" stroke="midnightblue" d="M146.531,-165.219C150.598,-157.786 156.694,-146.646 161.783,-137.345"/>
<polygon fill="midnightblue" stroke="midnightblue" points="164.866,-139.002 166.596,-128.55 158.725,-135.642 164.866,-139.002"/>
</g>
<!-- Node15&#45;&gt;Node10 -->
<g id="edge48" class="edge"><title>Node15&#45;&gt;Node10</title>
<path fill="none" stroke="midnightblue" d="M318.007,-385.483C314.121,-354.107 299.884,-239.159 294.284,-193.944"/>
<polygon fill="midnightblue" stroke="midnightblue" points="297.734,-193.317 293.031,-183.823 290.787,-194.177 297.734,-193.317"/>
</g>
<!-- Node15&#45;&gt;Node11 -->
<g id="edge49" class="edge"><title>Node15&#45;&gt;Node11</title>
<path fill="none" stroke="midnightblue" d="M321.406,-385.456C326.519,-367.631 338,-323.386 338,-285.5 338,-285.5 338,-285.5 338,-228.5 338,-194.678 354.788,-158.104 366.047,-137.378"/>
<polygon fill="midnightblue" stroke="midnightblue" points="369.158,-138.986 371.032,-128.559 363.065,-135.542 369.158,-138.986"/>
</g>
<!-- Node16 -->
<g id="node17" class="node"><title>Node16</title>
<g id="a_node17"><a xlink:href="../../d8/d11/_term_8h.html" target="_top" xlink:title="fl/term/Term.h">
<polygon fill="white" stroke="black" points="375.441,-330.5 375.441,-348.5 452.559,-348.5 452.559,-330.5 375.441,-330.5"/>
<text text-anchor="middle" x="414" y="-336.5" font-family="Helvetica,sans-Serif" font-size="10.00">fl/term/Term.h</text>
</a>
</g>
</g>
<!-- Node15&#45;&gt;Node16 -->
<g id="edge19" class="edge"><title>Node15&#45;&gt;Node16</title>
<path fill="none" stroke="midnightblue" d="M333.428,-385.45C348.494,-377.045 372.372,-363.724 390.229,-353.762"/>
<polygon fill="midnightblue" stroke="midnightblue" points="392.408,-356.554 399.436,-348.625 388.998,-350.441 392.408,-356.554"/>
</g>
<!-- Node16&#45;&gt;Node2 -->
<g id="edge20" class="edge"><title>Node16&#45;&gt;Node2</title>
<path fill="none" stroke="midnightblue" d="M452.594,-336.096C590.962,-326.968 1054,-291.841 1054,-230.5 1054,-230.5 1054,-230.5 1054,-173.5 1054,-106.186 826,-78.0398 727.475,-69.0194"/>
<polygon fill="midnightblue" stroke="midnightblue" points="727.509,-65.5087 717.238,-68.1086 726.888,-72.4811 727.509,-65.5087"/>
</g>
<!-- Node16&#45;&gt;Node4 -->
<g id="edge45" class="edge"><title>Node16&#45;&gt;Node4</title>
<path fill="none" stroke="midnightblue" d="M452.864,-339.109C540.299,-339.63 758.64,-336.183 935,-294 1008.2,-276.491 1092,-305.769 1092,-230.5 1092,-230.5 1092,-230.5 1092,-118.5 1092,-84.6784 1075.21,-48.1041 1063.95,-27.3784"/>
<polygon fill="midnightblue" stroke="midnightblue" points="1066.94,-25.542 1058.97,-18.5586 1060.84,-28.9865 1066.94,-25.542"/>
</g>
<!-- Node16&#45;&gt;Node11 -->
<g id="edge46" class="edge"><title>Node16&#45;&gt;Node11</title>
<path fill="none" stroke="midnightblue" d="M411.004,-330.41C407.84,-321.577 402.913,-306.959 400,-294 387.407,-237.983 380.334,-170.216 377.489,-138.504"/>
<polygon fill="midnightblue" stroke="midnightblue" points="380.977,-138.202 376.63,-128.54 374.002,-138.804 380.977,-138.202"/>
</g>
<!-- Node16&#45;&gt;Node12 -->
<g id="edge47" class="edge"><title>Node16&#45;&gt;Node12</title>
<path fill="none" stroke="midnightblue" d="M375.424,-336.659C272.648,-330.711 0,-307.659 0,-230.5 0,-230.5 0,-230.5 0,-173.5 0,-134.06 34.317,-98.8584 56.8312,-80.0079"/>
<polygon fill="midnightblue" stroke="midnightblue" points="59.1877,-82.6042 64.7859,-73.6091 54.8002,-77.1498 59.1877,-82.6042"/>
</g>
<!-- Node17 -->
<g id="node18" class="node"><title>Node17</title>
<g id="a_node18"><a xlink:href="../../d6/dd6/_operation_8h.html" target="_top" xlink:title="fl/Operation.h">
<polygon fill="white" stroke="black" points="611.983,-275.5 611.983,-293.5 688.017,-293.5 688.017,-275.5 611.983,-275.5"/>
<text text-anchor="middle" x="650" y="-281.5" font-family="Helvetica,sans-Serif" font-size="10.00">fl/Operation.h</text>
</a>
</g>
</g>
<!-- Node16&#45;&gt;Node17 -->
<g id="edge21" class="edge"><title>Node16&#45;&gt;Node17</title>
<path fill="none" stroke="midnightblue" d="M449.843,-330.45C491.202,-321.162 559.291,-305.871 604.39,-295.743"/>
<polygon fill="midnightblue" stroke="midnightblue" points="605.217,-299.145 614.207,-293.538 603.683,-292.315 605.217,-299.145"/>
</g>
<!-- Node19 -->
<g id="node20" class="node"><title>Node19</title>
<g id="a_node20"><a xlink:href="../../d5/de4/_complexity_8h.html" target="_top" xlink:title="fl/Complexity.h">
<polygon fill="white" stroke="black" points="519.581,-110.5 519.581,-128.5 600.419,-128.5 600.419,-110.5 519.581,-110.5"/>
<text text-anchor="middle" x="560" y="-116.5" font-family="Helvetica,sans-Serif" font-size="10.00">fl/Complexity.h</text>
</a>
</g>
</g>
<!-- Node16&#45;&gt;Node19 -->
<g id="edge44" class="edge"><title>Node16&#45;&gt;Node19</title>
<path fill="none" stroke="midnightblue" d="M416.936,-330.455C426.793,-304.251 460.863,-219.888 510,-165 519.592,-154.286 531.594,-143.531 541.435,-135.279"/>
<polygon fill="midnightblue" stroke="midnightblue" points="543.9,-137.784 549.412,-128.736 539.46,-132.372 543.9,-137.784"/>
</g>
<!-- Node17&#45;&gt;Node2 -->
<g id="edge22" class="edge"><title>Node17&#45;&gt;Node2</title>
<path fill="none" stroke="midnightblue" d="M688.111,-283.45C758.674,-282.461 905.381,-275.9 937,-239 1005.67,-158.857 816.933,-99.0509 727.299,-75.946"/>
<polygon fill="midnightblue" stroke="midnightblue" points="727.951,-72.5007 717.398,-73.4392 726.233,-79.2866 727.951,-72.5007"/>
</g>
<!-- Node17&#45;&gt;Node3 -->
<g id="edge40" class="edge"><title>Node17&#45;&gt;Node3</title>
<path fill="none" stroke="midnightblue" d="M688.122,-281.08C759.45,-276.046 910.027,-262.88 956,-239 990.457,-221.102 1016,-214.328 1016,-175.5 1016,-175.5 1016,-175.5 1016,-118.5 1016,-80.6835 985.97,-45.0959 966.12,-25.7022"/>
<polygon fill="midnightblue" stroke="midnightblue" points="968.286,-22.9358 958.599,-18.6449 963.496,-28.0402 968.286,-22.9358"/>
</g>
<!-- Node17&#45;&gt;Node11 -->
<g id="edge24" class="edge"><title>Node17&#45;&gt;Node11</title>
<path fill="none" stroke="midnightblue" d="M611.927,-281.109C573.657,-277.163 514.288,-266.706 471,-239 430.416,-213.024 399.364,-163.75 384.916,-137.676"/>
<polygon fill="midnightblue" stroke="midnightblue" points="387.871,-135.782 380.056,-128.628 381.704,-139.094 387.871,-135.782"/>
</g>
<!-- Node17&#45;&gt;Node12 -->
<g id="edge25" class="edge"><title>Node17&#45;&gt;Node12</title>
<path fill="none" stroke="midnightblue" d="M611.858,-282.117C497.624,-277.723 163.51,-262.944 121,-239 74.0478,-212.554 75.31,-182.626 70,-129 68.4963,-113.814 70.3503,-96.5757 72.3828,-83.8958"/>
<polygon fill="midnightblue" stroke="midnightblue" points="75.887,-84.1832 74.2082,-73.7222 68.9971,-82.9469 75.887,-84.1832"/>
</g>
<!-- Node17&#45;&gt;Node13 -->
<g id="edge23" class="edge"><title>Node17&#45;&gt;Node13</title>
<path fill="none" stroke="midnightblue" d="M611.743,-283.132C497.278,-281.638 163.374,-274.268 131,-239 119.676,-226.663 125.353,-207.046 132.023,-192.879"/>
<polygon fill="midnightblue" stroke="midnightblue" points="135.287,-194.191 136.826,-183.708 129.086,-190.943 135.287,-194.191"/>
</g>
<!-- Node18 -->
<g id="node19" class="node"><title>Node18</title>
<g id="a_node19"><a xlink:href="../../d7/d8a/_defuzzifier_8h.html" target="_top" xlink:title="fl/defuzzifier/Defuzzifier.h">
<polygon fill="white" stroke="black" points="619.419,-165.5 619.419,-183.5 746.581,-183.5 746.581,-165.5 619.419,-165.5"/>
<text text-anchor="middle" x="683" y="-171.5" font-family="Helvetica,sans-Serif" font-size="10.00">fl/defuzzifier/Defuzzifier.h</text>
</a>
</g>
</g>
<!-- Node17&#45;&gt;Node18 -->
<g id="edge26" class="edge"><title>Node17&#45;&gt;Node18</title>
<path fill="none" stroke="midnightblue" d="M688.105,-283.056C755.536,-281.376 891.566,-273.662 921,-239 926.466,-232.563 926.395,-226.497 921,-220 900.364,-195.148 818.721,-184.097 756.763,-179.233"/>
<polygon fill="midnightblue" stroke="midnightblue" points="756.845,-175.73 746.612,-178.477 756.325,-182.71 756.845,-175.73"/>
</g>
<!-- Node20 -->
<g id="node21" class="node"><title>Node20</title>
<g id="a_node21"><a xlink:href="../../d7/d72/_norm_8h.html" target="_top" xlink:title="fl/norm/Norm.h">
<polygon fill="white" stroke="black" points="518.938,-165.5 518.938,-183.5 601.062,-183.5 601.062,-165.5 518.938,-165.5"/>
<text text-anchor="middle" x="560" y="-171.5" font-family="Helvetica,sans-Serif" font-size="10.00">fl/norm/Norm.h</text>
</a>
</g>
</g>
<!-- Node17&#45;&gt;Node20 -->
<g id="edge32" class="edge"><title>Node17&#45;&gt;Node20</title>
<path fill="none" stroke="midnightblue" d="M643.235,-275.382C628.446,-257.635 592.998,-215.098 573.471,-191.666"/>
<polygon fill="midnightblue" stroke="midnightblue" points="575.934,-189.153 566.843,-183.712 570.556,-193.635 575.934,-189.153"/>
</g>
<!-- Node21 -->
<g id="node22" class="node"><title>Node21</title>
<g id="a_node22"><a xlink:href="../../de/d44/_s_norm_8h.html" target="_top" xlink:title="fl/norm/SNorm.h">
<polygon fill="white" stroke="black" points="823.604,-220.5 823.604,-238.5 912.396,-238.5 912.396,-220.5 823.604,-220.5"/>
<text text-anchor="middle" x="868" y="-226.5" font-family="Helvetica,sans-Serif" font-size="10.00">fl/norm/SNorm.h</text>
</a>
</g>
</g>
<!-- Node17&#45;&gt;Node21 -->
<g id="edge36" class="edge"><title>Node17&#45;&gt;Node21</title>
<path fill="none" stroke="midnightblue" d="M683.11,-275.45C721.073,-266.221 783.418,-251.063 825.079,-240.935"/>
<polygon fill="midnightblue" stroke="midnightblue" points="826.047,-244.302 834.937,-238.538 824.393,-237.5 826.047,-244.302"/>
</g>
<!-- Node22 -->
<g id="node23" class="node"><title>Node22</title>
<g id="a_node23"><a xlink:href="../../d0/d24/_t_norm_8h.html" target="_top" xlink:title="fl/norm/TNorm.h">
<polygon fill="white" stroke="black" points="479.884,-220.5 479.884,-238.5 568.116,-238.5 568.116,-220.5 479.884,-220.5"/>
<text text-anchor="middle" x="524" y="-226.5" font-family="Helvetica,sans-Serif" font-size="10.00">fl/norm/TNorm.h</text>
</a>
</g>
</g>
<!-- Node17&#45;&gt;Node22 -->
<g id="edge38" class="edge"><title>Node17&#45;&gt;Node22</title>
<path fill="none" stroke="midnightblue" d="M630.863,-275.45C610.049,-266.695 576.553,-252.606 552.611,-242.535"/>
<polygon fill="midnightblue" stroke="midnightblue" points="553.892,-239.276 543.317,-238.625 551.177,-245.729 553.892,-239.276"/>
</g>
<!-- Node23 -->
<g id="node24" class="node"><title>Node23</title>
<polygon fill="white" stroke="#bfbfbf" points="624.49,-220.5 624.49,-238.5 675.51,-238.5 675.51,-220.5 624.49,-220.5"/>
<text text-anchor="middle" x="650" y="-226.5" font-family="Helvetica,sans-Serif" font-size="10.00">iomanip</text>
</g>
<!-- Node17&#45;&gt;Node23 -->
<g id="edge41" class="edge"><title>Node17&#45;&gt;Node23</title>
<path fill="none" stroke="midnightblue" d="M650,-275.219C650,-268.177 650,-257.808 650,-248.828"/>
<polygon fill="midnightblue" stroke="midnightblue" points="653.5,-248.55 650,-238.55 646.5,-248.55 653.5,-248.55"/>
</g>
<!-- Node24 -->
<g id="node25" class="node"><title>Node24</title>
<polygon fill="white" stroke="#bfbfbf" points="693.604,-220.5 693.604,-238.5 742.396,-238.5 742.396,-220.5 693.604,-220.5"/>
<text text-anchor="middle" x="718" y="-226.5" font-family="Helvetica,sans-Serif" font-size="10.00">cstdarg</text>
</g>
<!-- Node17&#45;&gt;Node24 -->
<g id="edge42" class="edge"><title>Node17&#45;&gt;Node24</title>
<path fill="none" stroke="midnightblue" d="M660.328,-275.45C670.712,-267.357 686.946,-254.704 699.547,-244.882"/>
<polygon fill="midnightblue" stroke="midnightblue" points="701.839,-247.533 707.575,-238.625 697.536,-242.012 701.839,-247.533"/>
</g>
<!-- Node25 -->
<g id="node26" class="node"><title>Node25</title>
<polygon fill="white" stroke="#bfbfbf" points="760.549,-220.5 760.549,-238.5 805.451,-238.5 805.451,-220.5 760.549,-220.5"/>
<text text-anchor="middle" x="783" y="-226.5" font-family="Helvetica,sans-Serif" font-size="10.00">cctype</text>
</g>
<!-- Node17&#45;&gt;Node25 -->
<g id="edge43" class="edge"><title>Node17&#45;&gt;Node25</title>
<path fill="none" stroke="midnightblue" d="M670.2,-275.45C692.268,-266.656 727.842,-252.48 753.136,-242.401"/>
<polygon fill="midnightblue" stroke="midnightblue" points="754.616,-245.579 762.61,-238.625 752.025,-239.076 754.616,-245.579"/>
</g>
<!-- Node18&#45;&gt;Node2 -->
<g id="edge27" class="edge"><title>Node18&#45;&gt;Node2</title>
<path fill="none" stroke="midnightblue" d="M683,-165.382C683,-148.182 683,-107.698 683,-83.8866"/>
<polygon fill="midnightblue" stroke="midnightblue" points="686.5,-83.7117 683,-73.7118 679.5,-83.7118 686.5,-83.7117"/>
</g>
<!-- Node18&#45;&gt;Node11 -->
<g id="edge31" class="edge"><title>Node18&#45;&gt;Node11</title>
<path fill="none" stroke="midnightblue" d="M636.373,-165.45C572.685,-154.455 460.267,-135.048 406.418,-125.751"/>
<polygon fill="midnightblue" stroke="midnightblue" points="406.911,-122.285 396.461,-124.032 405.72,-129.183 406.911,-122.285"/>
</g>
<!-- Node18&#45;&gt;Node19 -->
<g id="edge28" class="edge"><title>Node18&#45;&gt;Node19</title>
<path fill="none" stroke="midnightblue" d="M664.319,-165.45C644.09,-156.734 611.592,-142.731 588.242,-132.669"/>
<polygon fill="midnightblue" stroke="midnightblue" points="589.426,-129.368 578.857,-128.625 586.656,-135.797 589.426,-129.368"/>
</g>
<!-- Node19&#45;&gt;Node2 -->
<g id="edge29" class="edge"><title>Node19&#45;&gt;Node2</title>
<path fill="none" stroke="midnightblue" d="M578.681,-110.45C598.91,-101.734 631.408,-87.7306 654.758,-77.6691"/>
<polygon fill="midnightblue" stroke="midnightblue" points="656.344,-80.7969 664.143,-73.6253 653.574,-74.3683 656.344,-80.7969"/>
</g>
<!-- Node19&#45;&gt;Node12 -->
<g id="edge30" class="edge"><title>Node19&#45;&gt;Node12</title>
<path fill="none" stroke="midnightblue" d="M519.567,-114.072C425.335,-103.754 192.692,-78.2783 107.724,-68.9739"/>
<polygon fill="midnightblue" stroke="midnightblue" points="107.976,-65.4807 97.6546,-67.8713 107.214,-72.4391 107.976,-65.4807"/>
</g>
<!-- Node20&#45;&gt;Node2 -->
<g id="edge33" class="edge"><title>Node20&#45;&gt;Node2</title>
<path fill="none" stroke="midnightblue" d="M569.245,-165.382C589.814,-147.322 639.618,-103.591 665.979,-80.4449"/>
<polygon fill="midnightblue" stroke="midnightblue" points="668.443,-82.9398 673.648,-73.7118 663.824,-77.6797 668.443,-82.9398"/>
</g>
<!-- Node20&#45;&gt;Node11 -->
<g id="edge35" class="edge"><title>Node20&#45;&gt;Node11</title>
<path fill="none" stroke="midnightblue" d="M532.054,-165.45C498.016,-155.646 440.753,-139.152 405.867,-129.103"/>
<polygon fill="midnightblue" stroke="midnightblue" points="406.812,-125.733 396.234,-126.328 404.875,-132.46 406.812,-125.733"/>
</g>
<!-- Node20&#45;&gt;Node19 -->
<g id="edge34" class="edge"><title>Node20&#45;&gt;Node19</title>
<path fill="none" stroke="midnightblue" d="M560,-165.219C560,-158.177 560,-147.808 560,-138.828"/>
<polygon fill="midnightblue" stroke="midnightblue" points="563.5,-138.55 560,-128.55 556.5,-138.55 563.5,-138.55"/>
</g>
<!-- Node21&#45;&gt;Node20 -->
<g id="edge37" class="edge"><title>Node21&#45;&gt;Node20</title>
<path fill="none" stroke="midnightblue" d="M823.543,-220.85C767.322,-211.176 670.717,-194.552 611.391,-184.343"/>
<polygon fill="midnightblue" stroke="midnightblue" points="611.933,-180.885 601.484,-182.638 610.745,-187.784 611.933,-180.885"/>
</g>
<!-- Node22&#45;&gt;Node20 -->
<g id="edge39" class="edge"><title>Node22&#45;&gt;Node20</title>
<path fill="none" stroke="midnightblue" d="M529.625,-220.219C534.727,-212.707 542.4,-201.411 548.757,-192.052"/>
<polygon fill="midnightblue" stroke="midnightblue" points="551.809,-193.788 554.532,-183.55 546.018,-189.855 551.809,-193.788"/>
</g>
</g>
</svg>
