<?xml version="1.0" encoding="UTF-8" standalone="no"?>
<!DOCTYPE svg PUBLIC "-//W3C//DTD SVG 1.1//EN"
 "http://www.w3.org/Graphics/SVG/1.1/DTD/svg11.dtd">
<!-- Generated by graphviz version 2.38.0 (20140413.2041)
 -->
<!-- Title: fuzzylite/fl/variable/Variable.h Pages: 1 -->
<svg width="461pt" height="367pt"
 viewBox="0.00 0.00 460.68 367.00" xmlns="http://www.w3.org/2000/svg" xmlns:xlink="http://www.w3.org/1999/xlink">
<g id="graph0" class="graph" transform="scale(1 1) rotate(0) translate(4 363)">
<title>fuzzylite/fl/variable/Variable.h</title>
<polygon fill="white" stroke="none" points="-4,4 -4,-363 456.685,-363 456.685,4 -4,4"/>
<!-- Node0 -->
<g id="node1" class="node"><title>Node0</title>
<polygon fill="#bfbfbf" stroke="black" points="299.714,-330.5 299.714,-358.5 397.414,-358.5 397.414,-330.5 299.714,-330.5"/>
<text text-anchor="start" x="307.714" y="-346.5" font-family="Helvetica,sans-Serif" font-size="10.00">fuzzylite/fl/variable</text>
<text text-anchor="middle" x="348.564" y="-336.5" font-family="Helvetica,sans-Serif" font-size="10.00">/Variable.h</text>
</g>
<!-- Node1 -->
<g id="node2" class="node"><title>Node1</title>
<g id="a_node2"><a xlink:href="../../de/d53/fuzzylite_8h.html" target="_top" xlink:title="fl/fuzzylite.h">
<polygon fill="white" stroke="black" points="200.443,-55.5 200.443,-73.5 268.685,-73.5 268.685,-55.5 200.443,-55.5"/>
<text text-anchor="middle" x="234.564" y="-61.5" font-family="Helvetica,sans-Serif" font-size="10.00">fl/fuzzylite.h</text>
</a>
</g>
</g>
<!-- Node0&#45;&gt;Node1 -->
<g id="edge1" class="edge"><title>Node0&#45;&gt;Node1</title>
<path fill="none" stroke="midnightblue" d="M299.362,-332.451C250.101,-318.139 181.564,-287.911 181.564,-230.5 181.564,-230.5 181.564,-230.5 181.564,-173.5 181.564,-137.658 205.379,-101.339 221.082,-81.2876"/>
<polygon fill="midnightblue" stroke="midnightblue" points="223.816,-83.4732 227.416,-73.5089 218.388,-79.053 223.816,-83.4732"/>
</g>
<!-- Node9 -->
<g id="node10" class="node"><title>Node9</title>
<g id="a_node10"><a xlink:href="../../d4/da3/_centroid_8h.html" target="_top" xlink:title="fl/defuzzifier/Centroid.h">
<polygon fill="white" stroke="black" points="240.429,-275.5 240.429,-293.5 358.699,-293.5 358.699,-275.5 240.429,-275.5"/>
<text text-anchor="middle" x="299.564" y="-281.5" font-family="Helvetica,sans-Serif" font-size="10.00">fl/defuzzifier/Centroid.h</text>
</a>
</g>
</g>
<!-- Node0&#45;&gt;Node9 -->
<g id="edge9" class="edge"><title>Node0&#45;&gt;Node9</title>
<path fill="none" stroke="midnightblue" d="M337.445,-330.339C330.255,-321.829 320.848,-310.693 313.207,-301.649"/>
<polygon fill="midnightblue" stroke="midnightblue" points="315.679,-299.152 306.552,-293.771 310.332,-303.669 315.679,-299.152"/>
</g>
<!-- Node13 -->
<g id="node14" class="node"><title>Node13</title>
<polygon fill="white" stroke="#bfbfbf" points="349.948,-55.5 349.948,-73.5 393.18,-73.5 393.18,-55.5 349.948,-55.5"/>
<text text-anchor="middle" x="371.564" y="-61.5" font-family="Helvetica,sans-Serif" font-size="10.00">vector</text>
</g>
<!-- Node0&#45;&gt;Node13 -->
<g id="edge18" class="edge"><title>Node0&#45;&gt;Node13</title>
<path fill="none" stroke="midnightblue" d="M368.306,-330.378C393.974,-311.566 435.564,-274.323 435.564,-230.5 435.564,-230.5 435.564,-230.5 435.564,-173.5 435.564,-143.632 429.048,-135.541 413.564,-110 406.97,-99.1231 397.356,-88.6861 388.99,-80.6569"/>
<polygon fill="midnightblue" stroke="midnightblue" points="391.221,-77.9533 381.491,-73.7608 386.483,-83.106 391.221,-77.9533"/>
</g>
<!-- Node14 -->
<g id="node15" class="node"><title>Node14</title>
<polygon fill="white" stroke="#bfbfbf" points="364.337,-110.5 364.337,-128.5 404.791,-128.5 404.791,-110.5 364.337,-110.5"/>
<text text-anchor="middle" x="384.564" y="-116.5" font-family="Helvetica,sans-Serif" font-size="10.00">string</text>
</g>
<!-- Node0&#45;&gt;Node14 -->
<g id="edge17" class="edge"><title>Node0&#45;&gt;Node14</title>
<path fill="none" stroke="midnightblue" d="M354.348,-330.264C358.479,-320.412 363.927,-306.555 367.564,-294 383.463,-239.111 385.157,-170.808 384.951,-138.737"/>
<polygon fill="midnightblue" stroke="midnightblue" points="388.45,-138.603 384.812,-128.652 381.45,-138.7 388.45,-138.603"/>
</g>
<!-- Node2 -->
<g id="node3" class="node"><title>Node2</title>
<polygon fill="white" stroke="#bfbfbf" points="0,-0.5 0,-18.5 57.1279,-18.5 57.1279,-0.5 0,-0.5"/>
<text text-anchor="middle" x="28.564" y="-6.5" font-family="Helvetica,sans-Serif" font-size="10.00">algorithm</text>
</g>
<!-- Node1&#45;&gt;Node2 -->
<g id="edge2" class="edge"><title>Node1&#45;&gt;Node2</title>
<path fill="none" stroke="midnightblue" d="M203.277,-55.4504C166.727,-46.0468 106.259,-30.4896 66.916,-20.3673"/>
<polygon fill="midnightblue" stroke="midnightblue" points="67.7083,-16.9572 57.1516,-17.8551 65.9641,-23.7364 67.7083,-16.9572"/>
</g>
<!-- Node3 -->
<g id="node4" class="node"><title>Node3</title>
<polygon fill="white" stroke="#bfbfbf" points="74.9482,-0.5 74.9482,-18.5 118.18,-18.5 118.18,-0.5 74.9482,-0.5"/>
<text text-anchor="middle" x="96.564" y="-6.5" font-family="Helvetica,sans-Serif" font-size="10.00">cmath</text>
</g>
<!-- Node1&#45;&gt;Node3 -->
<g id="edge3" class="edge"><title>Node1&#45;&gt;Node3</title>
<path fill="none" stroke="midnightblue" d="M213.605,-55.4504C190.605,-46.6173 153.468,-32.3546 127.203,-22.267"/>
<polygon fill="midnightblue" stroke="midnightblue" points="128.311,-18.9433 117.72,-18.6253 125.801,-25.478 128.311,-18.9433"/>
</g>
<!-- Node4 -->
<g id="node5" class="node"><title>Node4</title>
<polygon fill="white" stroke="#bfbfbf" points="136.392,-0.5 136.392,-18.5 190.736,-18.5 190.736,-0.5 136.392,-0.5"/>
<text text-anchor="middle" x="163.564" y="-6.5" font-family="Helvetica,sans-Serif" font-size="10.00">iostream</text>
</g>
<!-- Node1&#45;&gt;Node4 -->
<g id="edge4" class="edge"><title>Node1&#45;&gt;Node4</title>
<path fill="none" stroke="midnightblue" d="M223.781,-55.4504C212.938,-47.3566 195.988,-34.7042 182.831,-24.8822"/>
<polygon fill="midnightblue" stroke="midnightblue" points="184.556,-21.8025 174.449,-18.6253 180.369,-27.412 184.556,-21.8025"/>
</g>
<!-- Node5 -->
<g id="node6" class="node"><title>Node5</title>
<polygon fill="white" stroke="#bfbfbf" points="208.783,-0.5 208.783,-18.5 260.345,-18.5 260.345,-0.5 208.783,-0.5"/>
<text text-anchor="middle" x="234.564" y="-6.5" font-family="Helvetica,sans-Serif" font-size="10.00">sstream</text>
</g>
<!-- Node1&#45;&gt;Node5 -->
<g id="edge5" class="edge"><title>Node1&#45;&gt;Node5</title>
<path fill="none" stroke="midnightblue" d="M234.564,-55.2188C234.564,-48.1769 234.564,-37.8083 234.564,-28.8277"/>
<polygon fill="midnightblue" stroke="midnightblue" points="238.064,-28.5495 234.564,-18.5496 231.064,-28.5496 238.064,-28.5495"/>
</g>
<!-- Node6 -->
<g id="node7" class="node"><title>Node6</title>
<polygon fill="white" stroke="#bfbfbf" points="278.177,-0.5 278.177,-18.5 316.951,-18.5 316.951,-0.5 278.177,-0.5"/>
<text text-anchor="middle" x="297.564" y="-6.5" font-family="Helvetica,sans-Serif" font-size="10.00">limits</text>
</g>
<!-- Node1&#45;&gt;Node6 -->
<g id="edge6" class="edge"><title>Node1&#45;&gt;Node6</title>
<path fill="none" stroke="midnightblue" d="M244.132,-55.4504C253.661,-47.4345 268.504,-34.9471 280.13,-25.1663"/>
<polygon fill="midnightblue" stroke="midnightblue" points="282.506,-27.7413 287.906,-18.6253 278,-22.3847 282.506,-27.7413"/>
</g>
<!-- Node7 -->
<g id="node8" class="node"><title>Node7</title>
<polygon fill="white" stroke="#bfbfbf" points="334.507,-0.5 334.507,-18.5 386.621,-18.5 386.621,-0.5 334.507,-0.5"/>
<text text-anchor="middle" x="360.564" y="-6.5" font-family="Helvetica,sans-Serif" font-size="10.00">memory</text>
</g>
<!-- Node1&#45;&gt;Node7 -->
<g id="edge7" class="edge"><title>Node1&#45;&gt;Node7</title>
<path fill="none" stroke="midnightblue" d="M253.701,-55.4504C274.515,-46.6951 308.011,-32.6055 331.953,-22.5346"/>
<polygon fill="midnightblue" stroke="midnightblue" points="333.387,-25.7289 341.247,-18.6253 330.672,-19.2765 333.387,-25.7289"/>
</g>
<!-- Node8 -->
<g id="node9" class="node"><title>Node8</title>
<polygon fill="white" stroke="#bfbfbf" points="404.443,-0.5 404.443,-18.5 452.685,-18.5 452.685,-0.5 404.443,-0.5"/>
<text text-anchor="middle" x="428.564" y="-6.5" font-family="Helvetica,sans-Serif" font-size="10.00">cstddef</text>
</g>
<!-- Node1&#45;&gt;Node8 -->
<g id="edge8" class="edge"><title>Node1&#45;&gt;Node8</title>
<path fill="none" stroke="midnightblue" d="M264.028,-55.4504C299.102,-45.8685 357.562,-29.8973 394.532,-19.7973"/>
<polygon fill="midnightblue" stroke="midnightblue" points="395.628,-23.1262 404.352,-17.1145 393.783,-16.3737 395.628,-23.1262"/>
</g>
<!-- Node10 -->
<g id="node11" class="node"><title>Node10</title>
<g id="a_node11"><a xlink:href="../../d9/d58/_integral_defuzzifier_8h.html" target="_top" xlink:title="fl/defuzzifier/IntegralDefuzzifier.h">
<polygon fill="white" stroke="black" points="209.306,-220.5 209.306,-238.5 369.822,-238.5 369.822,-220.5 209.306,-220.5"/>
<text text-anchor="middle" x="289.564" y="-226.5" font-family="Helvetica,sans-Serif" font-size="10.00">fl/defuzzifier/IntegralDefuzzifier.h</text>
</a>
</g>
</g>
<!-- Node9&#45;&gt;Node10 -->
<g id="edge10" class="edge"><title>Node9&#45;&gt;Node10</title>
<path fill="none" stroke="midnightblue" d="M298.001,-275.219C296.658,-268.099 294.673,-257.577 292.966,-248.529"/>
<polygon fill="midnightblue" stroke="midnightblue" points="296.376,-247.727 291.083,-238.55 289.498,-249.025 296.376,-247.727"/>
</g>
<!-- Node11 -->
<g id="node12" class="node"><title>Node11</title>
<g id="a_node12"><a xlink:href="../../d7/d8a/_defuzzifier_8h.html" target="_top" xlink:title="fl/defuzzifier/Defuzzifier.h">
<polygon fill="white" stroke="black" points="233.983,-165.5 233.983,-183.5 361.145,-183.5 361.145,-165.5 233.983,-165.5"/>
<text text-anchor="middle" x="297.564" y="-171.5" font-family="Helvetica,sans-Serif" font-size="10.00">fl/defuzzifier/Defuzzifier.h</text>
</a>
</g>
</g>
<!-- Node10&#45;&gt;Node11 -->
<g id="edge11" class="edge"><title>Node10&#45;&gt;Node11</title>
<path fill="none" stroke="midnightblue" d="M290.814,-220.219C291.889,-213.099 293.477,-202.577 294.843,-193.529"/>
<polygon fill="midnightblue" stroke="midnightblue" points="298.317,-193.96 296.349,-183.55 291.396,-192.915 298.317,-193.96"/>
</g>
<!-- Node11&#45;&gt;Node1 -->
<g id="edge12" class="edge"><title>Node11&#45;&gt;Node1</title>
<path fill="none" stroke="midnightblue" d="M287.006,-165.42C277.028,-157.256 262.319,-143.765 253.564,-129 245.302,-115.067 240.381,-97.2573 237.625,-84.0468"/>
<polygon fill="midnightblue" stroke="midnightblue" points="240.996,-83.0285 235.731,-73.8345 234.114,-84.3052 240.996,-83.0285"/>
</g>
<!-- Node12 -->
<g id="node13" class="node"><title>Node12</title>
<g id="a_node13"><a xlink:href="../../d5/de4/_complexity_8h.html" target="_top" xlink:title="fl/Complexity.h">
<polygon fill="white" stroke="black" points="262.145,-110.5 262.145,-128.5 342.983,-128.5 342.983,-110.5 262.145,-110.5"/>
<text text-anchor="middle" x="302.564" y="-116.5" font-family="Helvetica,sans-Serif" font-size="10.00">fl/Complexity.h</text>
</a>
</g>
</g>
<!-- Node11&#45;&gt;Node12 -->
<g id="edge13" class="edge"><title>Node11&#45;&gt;Node12</title>
<path fill="none" stroke="midnightblue" d="M298.345,-165.219C299.017,-158.099 300.009,-147.577 300.863,-138.529"/>
<polygon fill="midnightblue" stroke="midnightblue" points="304.35,-138.834 301.805,-128.55 297.381,-138.177 304.35,-138.834"/>
</g>
<!-- Node11&#45;&gt;Node14 -->
<g id="edge16" class="edge"><title>Node11&#45;&gt;Node14</title>
<path fill="none" stroke="midnightblue" d="M310.777,-165.45C324.447,-157.123 346.037,-143.97 362.339,-134.039"/>
<polygon fill="midnightblue" stroke="midnightblue" points="364.507,-136.817 371.226,-128.625 360.865,-130.839 364.507,-136.817"/>
</g>
<!-- Node12&#45;&gt;Node1 -->
<g id="edge14" class="edge"><title>Node12&#45;&gt;Node1</title>
<path fill="none" stroke="midnightblue" d="M292.236,-110.45C281.852,-102.357 265.618,-89.7042 253.017,-79.8822"/>
<polygon fill="midnightblue" stroke="midnightblue" points="255.028,-77.0122 244.989,-73.6253 250.725,-82.5333 255.028,-77.0122"/>
</g>
<!-- Node12&#45;&gt;Node13 -->
<g id="edge15" class="edge"><title>Node12&#45;&gt;Node13</title>
<path fill="none" stroke="midnightblue" d="M313.044,-110.45C323.581,-102.357 340.053,-89.7042 352.84,-79.8822"/>
<polygon fill="midnightblue" stroke="midnightblue" points="355.187,-82.4926 360.986,-73.6253 350.923,-76.9412 355.187,-82.4926"/>
</g>
</g>
</svg>
