<?xml version="1.0" encoding="UTF-8" standalone="no"?>
<!DOCTYPE svg PUBLIC "-//W3C//DTD SVG 1.1//EN"
 "http://www.w3.org/Graphics/SVG/1.1/DTD/svg11.dtd">
<!-- Generated by graphviz version 2.38.0 (20140413.2041)
 -->
<!-- Title: fl::TNorm Pages: 1 -->
<svg width="89pt" height="224pt"
 viewBox="0.00 0.00 88.74 224.00" xmlns="http://www.w3.org/2000/svg" xmlns:xlink="http://www.w3.org/1999/xlink">
<g id="graph0" class="graph" transform="scale(1 1) rotate(0) translate(4 220)">
<title>fl::TNorm</title>
<polygon fill="white" stroke="none" points="-4,4 -4,-220 84.7363,-220 84.7363,4 -4,4"/>
<!-- Node3 -->
<g id="node1" class="node"><title>Node3</title>
<polygon fill="#bfbfbf" stroke="black" points="6.5332,-0.5 6.5332,-74.5 74.2031,-74.5 74.2031,-0.5 6.5332,-0.5"/>
<text text-anchor="middle" x="40.3682" y="-62.5" font-family="Helvetica,sans-Serif" font-size="10.00">fl::TNorm</text>
<polyline fill="none" stroke="black" points="6.5332,-56.5 74.2031,-56.5 "/>
<text text-anchor="middle" x="40.3682" y="-44.5" font-family="Helvetica,sans-Serif" font-size="10.00"> </text>
<polyline fill="none" stroke="black" points="6.5332,-38.5 74.2031,-38.5 "/>
<text text-anchor="start" x="14.5332" y="-26.5" font-family="Helvetica,sans-Serif" font-size="10.00">+ TNorm()</text>
<text text-anchor="start" x="14.5332" y="-16.5" font-family="Helvetica,sans-Serif" font-size="10.00">+ ~TNorm()</text>
<text text-anchor="start" x="14.5332" y="-6.5" font-family="Helvetica,sans-Serif" font-size="10.00">+ clone()</text>
</g>
<!-- Node4 -->
<g id="node2" class="node"><title>Node4</title>
<g id="a_node2"><a xlink:href="../../d5/d22/classfl_1_1_norm.html" target="_top" xlink:title="The Norm class is the abstract class for norms. ">
<polygon fill="white" stroke="black" points="0,-111.5 0,-215.5 80.7363,-215.5 80.7363,-111.5 0,-111.5"/>
<text text-anchor="middle" x="40.3682" y="-203.5" font-family="Helvetica,sans-Serif" font-size="10.00">fl::Norm</text>
<polyline fill="none" stroke="black" points="0,-197.5 80.7363,-197.5 "/>
<text text-anchor="middle" x="40.3682" y="-185.5" font-family="Helvetica,sans-Serif" font-size="10.00"> </text>
<polyline fill="none" stroke="black" points="0,-179.5 80.7363,-179.5 "/>
<text text-anchor="start" x="8" y="-167.5" font-family="Helvetica,sans-Serif" font-size="10.00">+ Norm()</text>
<text text-anchor="start" x="8" y="-157.5" font-family="Helvetica,sans-Serif" font-size="10.00">+ ~Norm()</text>
<text text-anchor="start" x="8" y="-147.5" font-family="Helvetica,sans-Serif" font-size="10.00">+ className()</text>
<text text-anchor="start" x="8" y="-137.5" font-family="Helvetica,sans-Serif" font-size="10.00">+ complexity()</text>
<text text-anchor="start" x="8" y="-127.5" font-family="Helvetica,sans-Serif" font-size="10.00">+ compute()</text>
<text text-anchor="start" x="8" y="-117.5" font-family="Helvetica,sans-Serif" font-size="10.00">+ clone()</text>
</a>
</g>
</g>
<!-- Node4&#45;&gt;Node3 -->
<g id="edge1" class="edge"><title>Node4&#45;&gt;Node3</title>
<path fill="none" stroke="midnightblue" d="M40.3682,-101.189C40.3682,-92.1463 40.3682,-83.0843 40.3682,-74.7723"/>
<polygon fill="none" stroke="midnightblue" points="36.8683,-101.349 40.3682,-111.349 43.8683,-101.349 36.8683,-101.349"/>
</g>
</g>
</svg>
