<?xml version="1.0" encoding="UTF-8" standalone="no"?>
<!DOCTYPE svg PUBLIC "-//W3C//DTD SVG 1.1//EN"
 "http://www.w3.org/Graphics/SVG/1.1/DTD/svg11.dtd">
<!-- Generated by graphviz version 2.38.0 (20140413.2041)
 -->
<!-- Title: fuzzylite/fl/norm/s/SNormFunction.h Pages: 1 -->
<svg width="954pt" height="477pt"
 viewBox="0.00 0.00 953.62 477.00" xmlns="http://www.w3.org/2000/svg" xmlns:xlink="http://www.w3.org/1999/xlink">
<g id="graph0" class="graph" transform="scale(1 1) rotate(0) translate(4 473)">
<title>fuzzylite/fl/norm/s/SNormFunction.h</title>
<polygon fill="white" stroke="none" points="-4,4 -4,-473 949.616,-473 949.616,4 -4,4"/>
<!-- Node0 -->
<g id="node1" class="node"><title>Node0</title>
<polygon fill="#bfbfbf" stroke="black" points="28.707,-440.5 28.707,-468.5 125.293,-468.5 125.293,-440.5 28.707,-440.5"/>
<text text-anchor="start" x="36.707" y="-456.5" font-family="Helvetica,sans-Serif" font-size="10.00">fuzzylite/fl/norm/s</text>
<text text-anchor="middle" x="77" y="-446.5" font-family="Helvetica,sans-Serif" font-size="10.00">/SNormFunction.h</text>
</g>
<!-- Node1 -->
<g id="node2" class="node"><title>Node1</title>
<g id="a_node2"><a xlink:href="../../de/d44/_s_norm_8h.html" target="_top" xlink:title="fl/norm/SNorm.h">
<polygon fill="white" stroke="black" points="273.604,-220.5 273.604,-238.5 362.396,-238.5 362.396,-220.5 273.604,-220.5"/>
<text text-anchor="middle" x="318" y="-226.5" font-family="Helvetica,sans-Serif" font-size="10.00">fl/norm/SNorm.h</text>
</a>
</g>
</g>
<!-- Node0&#45;&gt;Node1 -->
<g id="edge1" class="edge"><title>Node0&#45;&gt;Node1</title>
<path fill="none" stroke="midnightblue" d="M88.1349,-440.493C100.073,-426.618 119.655,-404.058 137,-385 159.642,-360.121 164.05,-352.564 189,-330 225.405,-297.077 271.732,-263.067 297.8,-244.573"/>
<polygon fill="midnightblue" stroke="midnightblue" points="299.969,-247.327 306.127,-238.705 295.936,-241.605 299.969,-247.327"/>
</g>
<!-- Node14 -->
<g id="node15" class="node"><title>Node14</title>
<g id="a_node15"><a xlink:href="../../df/dc1/_function_8h.html" target="_top" xlink:title="fl/term/Function.h">
<polygon fill="white" stroke="black" points="146.375,-385.5 146.375,-403.5 239.625,-403.5 239.625,-385.5 146.375,-385.5"/>
<text text-anchor="middle" x="193" y="-391.5" font-family="Helvetica,sans-Serif" font-size="10.00">fl/term/Function.h</text>
</a>
</g>
</g>
<!-- Node0&#45;&gt;Node14 -->
<g id="edge15" class="edge"><title>Node0&#45;&gt;Node14</title>
<path fill="none" stroke="midnightblue" d="M103.033,-440.484C122.347,-430.826 148.54,-417.73 167.682,-408.159"/>
<polygon fill="midnightblue" stroke="midnightblue" points="169.334,-411.246 176.713,-403.643 166.204,-404.985 169.334,-411.246"/>
</g>
<!-- Node2 -->
<g id="node3" class="node"><title>Node2</title>
<g id="a_node3"><a xlink:href="../../d7/d72/_norm_8h.html" target="_top" xlink:title="fl/norm/Norm.h">
<polygon fill="white" stroke="black" points="377.938,-165.5 377.938,-183.5 460.062,-183.5 460.062,-165.5 377.938,-165.5"/>
<text text-anchor="middle" x="419" y="-171.5" font-family="Helvetica,sans-Serif" font-size="10.00">fl/norm/Norm.h</text>
</a>
</g>
</g>
<!-- Node1&#45;&gt;Node2 -->
<g id="edge2" class="edge"><title>Node1&#45;&gt;Node2</title>
<path fill="none" stroke="midnightblue" d="M333.34,-220.45C349.579,-211.929 375.45,-198.353 394.515,-188.349"/>
<polygon fill="midnightblue" stroke="midnightblue" points="396.287,-191.371 403.516,-183.625 393.035,-185.173 396.287,-191.371"/>
</g>
<!-- Node3 -->
<g id="node4" class="node"><title>Node3</title>
<g id="a_node4"><a xlink:href="../../de/d53/fuzzylite_8h.html" target="_top" xlink:title="fl/fuzzylite.h">
<polygon fill="white" stroke="black" points="643.879,-55.5 643.879,-73.5 712.121,-73.5 712.121,-55.5 643.879,-55.5"/>
<text text-anchor="middle" x="678" y="-61.5" font-family="Helvetica,sans-Serif" font-size="10.00">fl/fuzzylite.h</text>
</a>
</g>
</g>
<!-- Node2&#45;&gt;Node3 -->
<g id="edge3" class="edge"><title>Node2&#45;&gt;Node3</title>
<path fill="none" stroke="midnightblue" d="M436.35,-165.356C462.969,-152.95 515.578,-128.776 561,-110 589.469,-98.2319 622.282,-85.8525 645.901,-77.1469"/>
<polygon fill="midnightblue" stroke="midnightblue" points="647.239,-80.3843 655.42,-73.6533 644.827,-73.8128 647.239,-80.3843"/>
</g>
<!-- Node11 -->
<g id="node12" class="node"><title>Node11</title>
<g id="a_node12"><a xlink:href="../../d5/de4/_complexity_8h.html" target="_top" xlink:title="fl/Complexity.h">
<polygon fill="white" stroke="black" points="569.581,-110.5 569.581,-128.5 650.419,-128.5 650.419,-110.5 569.581,-110.5"/>
<text text-anchor="middle" x="610" y="-116.5" font-family="Helvetica,sans-Serif" font-size="10.00">fl/Complexity.h</text>
</a>
</g>
</g>
<!-- Node2&#45;&gt;Node11 -->
<g id="edge11" class="edge"><title>Node2&#45;&gt;Node11</title>
<path fill="none" stroke="midnightblue" d="M448.009,-165.45C480.918,-156.318 534.741,-141.383 571.231,-131.258"/>
<polygon fill="midnightblue" stroke="midnightblue" points="572.332,-134.585 581.032,-128.538 570.46,-127.84 572.332,-134.585"/>
</g>
<!-- Node13 -->
<g id="node14" class="node"><title>Node13</title>
<polygon fill="white" stroke="#bfbfbf" points="221.773,-110.5 221.773,-128.5 262.227,-128.5 262.227,-110.5 221.773,-110.5"/>
<text text-anchor="middle" x="242" y="-116.5" font-family="Helvetica,sans-Serif" font-size="10.00">string</text>
</g>
<!-- Node2&#45;&gt;Node13 -->
<g id="edge14" class="edge"><title>Node2&#45;&gt;Node13</title>
<path fill="none" stroke="midnightblue" d="M392.118,-165.45C359.777,-155.767 305.644,-139.557 271.981,-129.477"/>
<polygon fill="midnightblue" stroke="midnightblue" points="272.822,-126.076 262.238,-126.56 270.814,-132.781 272.822,-126.076"/>
</g>
<!-- Node4 -->
<g id="node5" class="node"><title>Node4</title>
<polygon fill="white" stroke="#bfbfbf" points="827.436,-0.5 827.436,-18.5 884.564,-18.5 884.564,-0.5 827.436,-0.5"/>
<text text-anchor="middle" x="856" y="-6.5" font-family="Helvetica,sans-Serif" font-size="10.00">algorithm</text>
</g>
<!-- Node3&#45;&gt;Node4 -->
<g id="edge4" class="edge"><title>Node3&#45;&gt;Node4</title>
<path fill="none" stroke="midnightblue" d="M705.034,-55.4504C735.442,-46.3965 785.008,-31.6382 818.994,-21.5185"/>
<polygon fill="midnightblue" stroke="midnightblue" points="820.418,-24.7466 829.003,-18.5383 818.42,-18.0376 820.418,-24.7466"/>
</g>
<!-- Node5 -->
<g id="node6" class="node"><title>Node5</title>
<polygon fill="white" stroke="#bfbfbf" points="902.384,-0.5 902.384,-18.5 945.616,-18.5 945.616,-0.5 902.384,-0.5"/>
<text text-anchor="middle" x="924" y="-6.5" font-family="Helvetica,sans-Serif" font-size="10.00">cmath</text>
</g>
<!-- Node3&#45;&gt;Node5 -->
<g id="edge5" class="edge"><title>Node3&#45;&gt;Node5</title>
<path fill="none" stroke="midnightblue" d="M712.216,-57.2497C752.948,-49.6345 823.229,-35.9462 891.967,-19.3719"/>
<polygon fill="midnightblue" stroke="midnightblue" points="893.206,-22.6726 902.094,-16.906 891.55,-15.8713 893.206,-22.6726"/>
</g>
<!-- Node6 -->
<g id="node7" class="node"><title>Node6</title>
<polygon fill="white" stroke="#bfbfbf" points="685.828,-0.5 685.828,-18.5 740.172,-18.5 740.172,-0.5 685.828,-0.5"/>
<text text-anchor="middle" x="713" y="-6.5" font-family="Helvetica,sans-Serif" font-size="10.00">iostream</text>
</g>
<!-- Node3&#45;&gt;Node6 -->
<g id="edge6" class="edge"><title>Node3&#45;&gt;Node6</title>
<path fill="none" stroke="midnightblue" d="M683.469,-55.2188C688.429,-47.7074 695.889,-36.411 702.07,-27.0515"/>
<polygon fill="midnightblue" stroke="midnightblue" points="705.094,-28.823 707.684,-18.5496 699.253,-24.9655 705.094,-28.823"/>
</g>
<!-- Node7 -->
<g id="node8" class="node"><title>Node7</title>
<polygon fill="white" stroke="#bfbfbf" points="758.219,-0.5 758.219,-18.5 809.781,-18.5 809.781,-0.5 758.219,-0.5"/>
<text text-anchor="middle" x="784" y="-6.5" font-family="Helvetica,sans-Serif" font-size="10.00">sstream</text>
</g>
<!-- Node3&#45;&gt;Node7 -->
<g id="edge7" class="edge"><title>Node3&#45;&gt;Node7</title>
<path fill="none" stroke="midnightblue" d="M694.099,-55.4504C711.221,-46.8897 738.542,-33.2291 758.576,-23.2119"/>
<polygon fill="midnightblue" stroke="midnightblue" points="760.37,-26.228 767.749,-18.6253 757.24,-19.967 760.37,-26.228"/>
</g>
<!-- Node8 -->
<g id="node9" class="node"><title>Node8</title>
<polygon fill="white" stroke="#bfbfbf" points="493.613,-0.5 493.613,-18.5 532.387,-18.5 532.387,-0.5 493.613,-0.5"/>
<text text-anchor="middle" x="513" y="-6.5" font-family="Helvetica,sans-Serif" font-size="10.00">limits</text>
</g>
<!-- Node3&#45;&gt;Node8 -->
<g id="edge8" class="edge"><title>Node3&#45;&gt;Node8</title>
<path fill="none" stroke="midnightblue" d="M652.94,-55.4504C623.166,-45.8868 573.578,-29.9584 542.125,-19.8554"/>
<polygon fill="midnightblue" stroke="midnightblue" points="543.19,-16.5213 532.599,-16.7953 541.049,-23.1859 543.19,-16.5213"/>
</g>
<!-- Node9 -->
<g id="node10" class="node"><title>Node9</title>
<polygon fill="white" stroke="#bfbfbf" points="549.943,-0.5 549.943,-18.5 602.057,-18.5 602.057,-0.5 549.943,-0.5"/>
<text text-anchor="middle" x="576" y="-6.5" font-family="Helvetica,sans-Serif" font-size="10.00">memory</text>
</g>
<!-- Node3&#45;&gt;Node9 -->
<g id="edge9" class="edge"><title>Node3&#45;&gt;Node9</title>
<path fill="none" stroke="midnightblue" d="M662.508,-55.4504C646.108,-46.9286 619.982,-33.3532 600.728,-23.3487"/>
<polygon fill="midnightblue" stroke="midnightblue" points="602.125,-20.1304 591.637,-18.6253 598.897,-26.3419 602.125,-20.1304"/>
</g>
<!-- Node10 -->
<g id="node11" class="node"><title>Node10</title>
<polygon fill="white" stroke="#bfbfbf" points="619.879,-0.5 619.879,-18.5 668.121,-18.5 668.121,-0.5 619.879,-0.5"/>
<text text-anchor="middle" x="644" y="-6.5" font-family="Helvetica,sans-Serif" font-size="10.00">cstddef</text>
</g>
<!-- Node3&#45;&gt;Node10 -->
<g id="edge10" class="edge"><title>Node3&#45;&gt;Node10</title>
<path fill="none" stroke="midnightblue" d="M672.688,-55.2188C667.869,-47.7074 660.622,-36.411 654.618,-27.0515"/>
<polygon fill="midnightblue" stroke="midnightblue" points="657.509,-25.0767 649.164,-18.5496 651.618,-28.8564 657.509,-25.0767"/>
</g>
<!-- Node11&#45;&gt;Node3 -->
<g id="edge12" class="edge"><title>Node11&#45;&gt;Node3</title>
<path fill="none" stroke="midnightblue" d="M620.328,-110.45C630.712,-102.357 646.946,-89.7042 659.547,-79.8822"/>
<polygon fill="midnightblue" stroke="midnightblue" points="661.839,-82.5333 667.575,-73.6253 657.536,-77.0122 661.839,-82.5333"/>
</g>
<!-- Node12 -->
<g id="node13" class="node"><title>Node12</title>
<polygon fill="white" stroke="#bfbfbf" points="73.3843,-55.5 73.3843,-73.5 116.616,-73.5 116.616,-55.5 73.3843,-55.5"/>
<text text-anchor="middle" x="95" y="-61.5" font-family="Helvetica,sans-Serif" font-size="10.00">vector</text>
</g>
<!-- Node11&#45;&gt;Node12 -->
<g id="edge13" class="edge"><title>Node11&#45;&gt;Node12</title>
<path fill="none" stroke="midnightblue" d="M569.158,-114.297C469.597,-104.051 216.016,-77.9541 126.709,-68.7633"/>
<polygon fill="midnightblue" stroke="midnightblue" points="126.96,-65.2707 116.654,-67.7285 126.243,-72.2339 126.96,-65.2707"/>
</g>
<!-- Node14&#45;&gt;Node13 -->
<g id="edge44" class="edge"><title>Node14&#45;&gt;Node13</title>
<path fill="none" stroke="midnightblue" d="M190.087,-385.496C183.898,-367.749 170,-323.649 170,-285.5 170,-285.5 170,-285.5 170,-228.5 170,-189.906 202.225,-154.614 223.558,-135.479"/>
<polygon fill="midnightblue" stroke="midnightblue" points="226.084,-137.922 231.376,-128.743 221.515,-132.618 226.084,-137.922"/>
</g>
<!-- Node15 -->
<g id="node16" class="node"><title>Node15</title>
<g id="a_node16"><a xlink:href="../../d8/d11/_term_8h.html" target="_top" xlink:title="fl/term/Term.h">
<polygon fill="white" stroke="black" points="439.441,-330.5 439.441,-348.5 516.559,-348.5 516.559,-330.5 439.441,-330.5"/>
<text text-anchor="middle" x="478" y="-336.5" font-family="Helvetica,sans-Serif" font-size="10.00">fl/term/Term.h</text>
</a>
</g>
</g>
<!-- Node14&#45;&gt;Node15 -->
<g id="edge16" class="edge"><title>Node14&#45;&gt;Node15</title>
<path fill="none" stroke="midnightblue" d="M236.285,-385.45C288.218,-375.793 375.053,-359.644 429.287,-349.559"/>
<polygon fill="midnightblue" stroke="midnightblue" points="430.157,-352.957 439.348,-347.688 428.877,-346.075 430.157,-352.957"/>
</g>
<!-- Node24 -->
<g id="node25" class="node"><title>Node24</title>
<polygon fill="white" stroke="#bfbfbf" points="198.273,-330.5 198.273,-348.5 233.727,-348.5 233.727,-330.5 198.273,-330.5"/>
<text text-anchor="middle" x="216" y="-336.5" font-family="Helvetica,sans-Serif" font-size="10.00">map</text>
</g>
<!-- Node14&#45;&gt;Node24 -->
<g id="edge43" class="edge"><title>Node14&#45;&gt;Node24</title>
<path fill="none" stroke="midnightblue" d="M196.594,-385.219C199.752,-377.942 204.451,-367.113 208.434,-357.934"/>
<polygon fill="midnightblue" stroke="midnightblue" points="211.737,-359.116 212.507,-348.55 205.315,-356.33 211.737,-359.116"/>
</g>
<!-- Node15&#45;&gt;Node3 -->
<g id="edge17" class="edge"><title>Node15&#45;&gt;Node3</title>
<path fill="none" stroke="midnightblue" d="M516.897,-335.453C611.893,-326.947 848,-298.922 848,-230.5 848,-230.5 848,-230.5 848,-173.5 848,-113.963 772.796,-85.8473 722.426,-73.6929"/>
<polygon fill="midnightblue" stroke="midnightblue" points="722.93,-70.218 712.402,-71.4031 721.371,-77.0422 722.93,-70.218"/>
</g>
<!-- Node15&#45;&gt;Node5 -->
<g id="edge40" class="edge"><title>Node15&#45;&gt;Node5</title>
<path fill="none" stroke="midnightblue" d="M516.799,-337.365C625.308,-333.146 924,-313.953 924,-230.5 924,-230.5 924,-230.5 924,-118.5 924,-87.0176 924,-50.373 924,-28.881"/>
<polygon fill="midnightblue" stroke="midnightblue" points="927.5,-28.6288 924,-18.6289 920.5,-28.6289 927.5,-28.6288"/>
</g>
<!-- Node15&#45;&gt;Node11 -->
<g id="edge39" class="edge"><title>Node15&#45;&gt;Node11</title>
<path fill="none" stroke="midnightblue" d="M516.744,-336.26C574.943,-330.565 683.288,-310.398 732,-239 744.27,-221.015 731.595,-181.592 717,-165 702.326,-148.318 680.401,-137.748 660.212,-131.121"/>
<polygon fill="midnightblue" stroke="midnightblue" points="661.065,-127.722 650.48,-128.175 659.037,-134.422 661.065,-127.722"/>
</g>
<!-- Node15&#45;&gt;Node12 -->
<g id="edge42" class="edge"><title>Node15&#45;&gt;Node12</title>
<path fill="none" stroke="midnightblue" d="M439.288,-337.991C325.493,-335.459 0,-320.364 0,-230.5 0,-230.5 0,-230.5 0,-173.5 0,-130.648 42.6861,-96.7178 70.8317,-79.0029"/>
<polygon fill="midnightblue" stroke="midnightblue" points="72.9843,-81.7918 79.7366,-73.6274 69.3667,-75.799 72.9843,-81.7918"/>
</g>
<!-- Node15&#45;&gt;Node13 -->
<g id="edge41" class="edge"><title>Node15&#45;&gt;Node13</title>
<path fill="none" stroke="midnightblue" d="M439.352,-332.826C387.639,-323.121 296.8,-298.289 248,-239 224.509,-210.46 231.002,-163.706 236.987,-138.296"/>
<polygon fill="midnightblue" stroke="midnightblue" points="240.393,-139.104 239.511,-128.546 233.616,-137.349 240.393,-139.104"/>
</g>
<!-- Node16 -->
<g id="node17" class="node"><title>Node16</title>
<g id="a_node17"><a xlink:href="../../d6/dd6/_operation_8h.html" target="_top" xlink:title="fl/Operation.h">
<polygon fill="white" stroke="black" points="439.983,-275.5 439.983,-293.5 516.017,-293.5 516.017,-275.5 439.983,-275.5"/>
<text text-anchor="middle" x="478" y="-281.5" font-family="Helvetica,sans-Serif" font-size="10.00">fl/Operation.h</text>
</a>
</g>
</g>
<!-- Node15&#45;&gt;Node16 -->
<g id="edge18" class="edge"><title>Node15&#45;&gt;Node16</title>
<path fill="none" stroke="midnightblue" d="M478,-330.219C478,-323.177 478,-312.808 478,-303.828"/>
<polygon fill="midnightblue" stroke="midnightblue" points="481.5,-303.55 478,-293.55 474.5,-303.55 481.5,-303.55"/>
</g>
<!-- Node16&#45;&gt;Node1 -->
<g id="edge32" class="edge"><title>Node16&#45;&gt;Node1</title>
<path fill="none" stroke="midnightblue" d="M453.699,-275.45C426.602,-266.475 382.58,-251.892 352.057,-241.781"/>
<polygon fill="midnightblue" stroke="midnightblue" points="352.86,-238.36 342.267,-238.538 350.659,-245.005 352.86,-238.36"/>
</g>
<!-- Node16&#45;&gt;Node2 -->
<g id="edge31" class="edge"><title>Node16&#45;&gt;Node2</title>
<path fill="none" stroke="midnightblue" d="M454.9,-275.459C438.857,-268.521 418.686,-256.773 409,-239 401.33,-224.927 405.413,-206.66 410.475,-193.334"/>
<polygon fill="midnightblue" stroke="midnightblue" points="413.806,-194.449 414.54,-183.88 407.375,-191.684 413.806,-194.449"/>
</g>
<!-- Node16&#45;&gt;Node3 -->
<g id="edge19" class="edge"><title>Node16&#45;&gt;Node3</title>
<path fill="none" stroke="midnightblue" d="M516.258,-282.579C580.306,-280.141 704.896,-271.265 732,-239 771.861,-191.548 718.748,-114.757 691.879,-81.5962"/>
<polygon fill="midnightblue" stroke="midnightblue" points="694.479,-79.2482 685.39,-73.8036 689.1,-83.7277 694.479,-79.2482"/>
</g>
<!-- Node16&#45;&gt;Node4 -->
<g id="edge35" class="edge"><title>Node16&#45;&gt;Node4</title>
<path fill="none" stroke="midnightblue" d="M516.017,-281.548C617.303,-275.316 886,-251.612 886,-175.5 886,-175.5 886,-175.5 886,-118.5 886,-85.5382 872.867,-48.9143 863.979,-27.9045"/>
<polygon fill="midnightblue" stroke="midnightblue" points="867.154,-26.4287 859.922,-18.6857 860.747,-29.2484 867.154,-26.4287"/>
</g>
<!-- Node16&#45;&gt;Node12 -->
<g id="edge26" class="edge"><title>Node16&#45;&gt;Node12</title>
<path fill="none" stroke="midnightblue" d="M439.923,-280.908C344.436,-273.48 99.399,-248.366 57,-184 38.9079,-156.534 45.6179,-140.857 57,-110 61.1136,-98.8482 69.4044,-88.5948 77.195,-80.748"/>
<polygon fill="midnightblue" stroke="midnightblue" points="79.7466,-83.1533 84.6457,-73.7592 74.9576,-78.0479 79.7466,-83.1533"/>
</g>
<!-- Node16&#45;&gt;Node13 -->
<g id="edge25" class="edge"><title>Node16&#45;&gt;Node13</title>
<path fill="none" stroke="midnightblue" d="M439.594,-280.507C385.008,-275.444 288.936,-263.279 265,-239 238.599,-212.22 237.909,-164.759 239.857,-138.768"/>
<polygon fill="midnightblue" stroke="midnightblue" points="243.345,-139.067 240.821,-128.777 236.377,-138.395 243.345,-139.067"/>
</g>
<!-- Node17 -->
<g id="node18" class="node"><title>Node17</title>
<g id="a_node18"><a xlink:href="../../df/d98/_exception_8h.html" target="_top" xlink:title="fl/Exception.h">
<polygon fill="white" stroke="black" points="65.9829,-165.5 65.9829,-183.5 142.017,-183.5 142.017,-165.5 65.9829,-165.5"/>
<text text-anchor="middle" x="104" y="-171.5" font-family="Helvetica,sans-Serif" font-size="10.00">fl/Exception.h</text>
</a>
</g>
</g>
<!-- Node16&#45;&gt;Node17 -->
<g id="edge20" class="edge"><title>Node16&#45;&gt;Node17</title>
<path fill="none" stroke="midnightblue" d="M439.669,-279.942C390.563,-274.626 303.279,-262.6 232,-239 192.951,-226.071 150.787,-203.25 125.925,-188.776"/>
<polygon fill="midnightblue" stroke="midnightblue" points="127.677,-185.745 117.286,-183.675 124.118,-191.773 127.677,-185.745"/>
</g>
<!-- Node19 -->
<g id="node20" class="node"><title>Node19</title>
<g id="a_node20"><a xlink:href="../../d7/d8a/_defuzzifier_8h.html" target="_top" xlink:title="fl/defuzzifier/Defuzzifier.h">
<polygon fill="white" stroke="black" points="580.419,-165.5 580.419,-183.5 707.581,-183.5 707.581,-165.5 580.419,-165.5"/>
<text text-anchor="middle" x="644" y="-171.5" font-family="Helvetica,sans-Serif" font-size="10.00">fl/defuzzifier/Defuzzifier.h</text>
</a>
</g>
</g>
<!-- Node16&#45;&gt;Node19 -->
<g id="edge27" class="edge"><title>Node16&#45;&gt;Node19</title>
<path fill="none" stroke="midnightblue" d="M516.381,-282.033C576.905,-278.824 690.206,-268.883 715,-239 731.552,-219.051 701.215,-199.724 675.204,-187.737"/>
<polygon fill="midnightblue" stroke="midnightblue" points="676.476,-184.473 665.912,-183.666 673.667,-190.885 676.476,-184.473"/>
</g>
<!-- Node20 -->
<g id="node21" class="node"><title>Node20</title>
<g id="a_node21"><a xlink:href="../../d0/d24/_t_norm_8h.html" target="_top" xlink:title="fl/norm/TNorm.h">
<polygon fill="white" stroke="black" points="617.884,-220.5 617.884,-238.5 706.116,-238.5 706.116,-220.5 617.884,-220.5"/>
<text text-anchor="middle" x="662" y="-226.5" font-family="Helvetica,sans-Serif" font-size="10.00">fl/norm/TNorm.h</text>
</a>
</g>
</g>
<!-- Node16&#45;&gt;Node20 -->
<g id="edge33" class="edge"><title>Node16&#45;&gt;Node20</title>
<path fill="none" stroke="midnightblue" d="M505.946,-275.45C537.514,-266.357 589.057,-251.511 624.2,-241.388"/>
<polygon fill="midnightblue" stroke="midnightblue" points="625.453,-244.67 634.093,-238.538 623.515,-237.943 625.453,-244.67"/>
</g>
<!-- Node21 -->
<g id="node22" class="node"><title>Node21</title>
<polygon fill="white" stroke="#bfbfbf" points="418.49,-220.5 418.49,-238.5 469.51,-238.5 469.51,-220.5 418.49,-220.5"/>
<text text-anchor="middle" x="444" y="-226.5" font-family="Helvetica,sans-Serif" font-size="10.00">iomanip</text>
</g>
<!-- Node16&#45;&gt;Node21 -->
<g id="edge36" class="edge"><title>Node16&#45;&gt;Node21</title>
<path fill="none" stroke="midnightblue" d="M472.688,-275.219C467.869,-267.707 460.622,-256.411 454.618,-247.052"/>
<polygon fill="midnightblue" stroke="midnightblue" points="457.509,-245.077 449.164,-238.55 451.618,-248.856 457.509,-245.077"/>
</g>
<!-- Node22 -->
<g id="node23" class="node"><title>Node22</title>
<polygon fill="white" stroke="#bfbfbf" points="487.604,-220.5 487.604,-238.5 536.396,-238.5 536.396,-220.5 487.604,-220.5"/>
<text text-anchor="middle" x="512" y="-226.5" font-family="Helvetica,sans-Serif" font-size="10.00">cstdarg</text>
</g>
<!-- Node16&#45;&gt;Node22 -->
<g id="edge37" class="edge"><title>Node16&#45;&gt;Node22</title>
<path fill="none" stroke="midnightblue" d="M483.312,-275.219C488.131,-267.707 495.378,-256.411 501.382,-247.052"/>
<polygon fill="midnightblue" stroke="midnightblue" points="504.382,-248.856 506.836,-238.55 498.491,-245.077 504.382,-248.856"/>
</g>
<!-- Node23 -->
<g id="node24" class="node"><title>Node23</title>
<polygon fill="white" stroke="#bfbfbf" points="554.549,-220.5 554.549,-238.5 599.451,-238.5 599.451,-220.5 554.549,-220.5"/>
<text text-anchor="middle" x="577" y="-226.5" font-family="Helvetica,sans-Serif" font-size="10.00">cctype</text>
</g>
<!-- Node16&#45;&gt;Node23 -->
<g id="edge38" class="edge"><title>Node16&#45;&gt;Node23</title>
<path fill="none" stroke="midnightblue" d="M493.036,-275.45C508.954,-266.929 534.312,-253.353 553,-243.349"/>
<polygon fill="midnightblue" stroke="midnightblue" points="554.658,-246.431 561.823,-238.625 551.354,-240.259 554.658,-246.431"/>
</g>
<!-- Node17&#45;&gt;Node3 -->
<g id="edge21" class="edge"><title>Node17&#45;&gt;Node3</title>
<path fill="none" stroke="midnightblue" d="M114.394,-165.335C132.965,-151.251 173.599,-122.684 213,-110 290.54,-85.0373 532.731,-71.8494 633.411,-67.3283"/>
<polygon fill="midnightblue" stroke="midnightblue" points="633.719,-70.8182 643.555,-66.8807 633.41,-63.825 633.719,-70.8182"/>
</g>
<!-- Node17&#45;&gt;Node12 -->
<g id="edge24" class="edge"><title>Node17&#45;&gt;Node12</title>
<path fill="none" stroke="midnightblue" d="M112.146,-165.445C123.145,-153.546 140.55,-130.467 133,-110 128.886,-98.8482 120.596,-88.5948 112.805,-80.748"/>
<polygon fill="midnightblue" stroke="midnightblue" points="115.042,-78.0479 105.354,-73.7592 110.253,-83.1533 115.042,-78.0479"/>
</g>
<!-- Node17&#45;&gt;Node13 -->
<g id="edge23" class="edge"><title>Node17&#45;&gt;Node13</title>
<path fill="none" stroke="midnightblue" d="M124.959,-165.45C148.226,-156.515 185.961,-142.022 212.273,-131.917"/>
<polygon fill="midnightblue" stroke="midnightblue" points="213.664,-135.132 221.744,-128.279 211.154,-128.597 213.664,-135.132"/>
</g>
<!-- Node18 -->
<g id="node19" class="node"><title>Node18</title>
<polygon fill="white" stroke="#bfbfbf" points="65.5962,-110.5 65.5962,-128.5 124.404,-128.5 124.404,-110.5 65.5962,-110.5"/>
<text text-anchor="middle" x="95" y="-116.5" font-family="Helvetica,sans-Serif" font-size="10.00">exception</text>
</g>
<!-- Node17&#45;&gt;Node18 -->
<g id="edge22" class="edge"><title>Node17&#45;&gt;Node18</title>
<path fill="none" stroke="midnightblue" d="M102.594,-165.219C101.385,-158.099 99.5981,-147.577 98.0615,-138.529"/>
<polygon fill="midnightblue" stroke="midnightblue" points="101.492,-137.822 96.3669,-128.55 94.5905,-138.994 101.492,-137.822"/>
</g>
<!-- Node19&#45;&gt;Node3 -->
<g id="edge28" class="edge"><title>Node19&#45;&gt;Node3</title>
<path fill="none" stroke="midnightblue" d="M646.849,-165.326C649.931,-156.421 654.948,-141.742 659,-129 663.855,-113.733 669.049,-96.2917 672.777,-83.5557"/>
<polygon fill="midnightblue" stroke="midnightblue" points="676.198,-84.3274 675.63,-73.7477 669.476,-82.3718 676.198,-84.3274"/>
</g>
<!-- Node19&#45;&gt;Node11 -->
<g id="edge29" class="edge"><title>Node19&#45;&gt;Node11</title>
<path fill="none" stroke="midnightblue" d="M638.688,-165.219C633.869,-157.707 626.622,-146.411 620.618,-137.052"/>
<polygon fill="midnightblue" stroke="midnightblue" points="623.509,-135.077 615.164,-128.55 617.618,-138.856 623.509,-135.077"/>
</g>
<!-- Node19&#45;&gt;Node13 -->
<g id="edge30" class="edge"><title>Node19&#45;&gt;Node13</title>
<path fill="none" stroke="midnightblue" d="M582.945,-165.45C495.767,-153.957 338.863,-133.27 272.725,-124.551"/>
<polygon fill="midnightblue" stroke="midnightblue" points="272.923,-121.047 262.551,-123.209 272.008,-127.987 272.923,-121.047"/>
</g>
<!-- Node20&#45;&gt;Node2 -->
<g id="edge34" class="edge"><title>Node20&#45;&gt;Node2</title>
<path fill="none" stroke="midnightblue" d="M625.094,-220.45C582.419,-211.143 512.104,-195.807 465.67,-185.679"/>
<polygon fill="midnightblue" stroke="midnightblue" points="466.371,-182.25 455.855,-183.538 464.879,-189.089 466.371,-182.25"/>
</g>
</g>
</svg>
