<?xml version="1.0" encoding="UTF-8" standalone="no"?>
<!DOCTYPE svg PUBLIC "-//W3C//DTD SVG 1.1//EN"
 "http://www.w3.org/Graphics/SVG/1.1/DTD/svg11.dtd">
<!-- Generated by graphviz version 2.38.0 (20140413.2041)
 -->
<!-- Title: fuzzylite/fl/term/Linear.h Pages: 1 -->
<svg width="955pt" height="412pt"
 viewBox="0.00 0.00 954.62 412.00" xmlns="http://www.w3.org/2000/svg" xmlns:xlink="http://www.w3.org/1999/xlink">
<g id="graph0" class="graph" transform="scale(1 1) rotate(0) translate(4 408)">
<title>fuzzylite/fl/term/Linear.h</title>
<polygon fill="white" stroke="none" points="-4,4 -4,-408 950.616,-408 950.616,4 -4,4"/>
<!-- Node0 -->
<g id="node1" class="node"><title>Node0</title>
<polygon fill="#bfbfbf" stroke="black" points="718.091,-385.5 718.091,-403.5 839.14,-403.5 839.14,-385.5 718.091,-385.5"/>
<text text-anchor="middle" x="778.616" y="-391.5" font-family="Helvetica,sans-Serif" font-size="10.00">fuzzylite/fl/term/Linear.h</text>
</g>
<!-- Node1 -->
<g id="node2" class="node"><title>Node1</title>
<g id="a_node2"><a xlink:href="../../d8/d11/_term_8h.html" target="_top" xlink:title="fl/term/Term.h">
<polygon fill="white" stroke="black" points="679.057,-330.5 679.057,-348.5 756.175,-348.5 756.175,-330.5 679.057,-330.5"/>
<text text-anchor="middle" x="717.616" y="-336.5" font-family="Helvetica,sans-Serif" font-size="10.00">fl/term/Term.h</text>
</a>
</g>
</g>
<!-- Node0&#45;&gt;Node1 -->
<g id="edge1" class="edge"><title>Node0&#45;&gt;Node1</title>
<path fill="none" stroke="midnightblue" d="M769.351,-385.45C760.215,-377.512 746.031,-365.189 734.825,-355.452"/>
<polygon fill="midnightblue" stroke="midnightblue" points="736.812,-352.542 726.967,-348.625 732.221,-357.826 736.812,-352.542"/>
</g>
<!-- Node23 -->
<g id="node24" class="node"><title>Node23</title>
<g id="a_node24"><a xlink:href="../../de/dcf/_engine_8h.html" target="_top" xlink:title="fl/Engine.h">
<polygon fill="white" stroke="black" points="816.988,-165.5 816.988,-183.5 880.244,-183.5 880.244,-165.5 816.988,-165.5"/>
<text text-anchor="middle" x="848.616" y="-171.5" font-family="Helvetica,sans-Serif" font-size="10.00">fl/Engine.h</text>
</a>
</g>
</g>
<!-- Node0&#45;&gt;Node23 -->
<g id="edge41" class="edge"><title>Node0&#45;&gt;Node23</title>
<path fill="none" stroke="midnightblue" d="M781.19,-385.483C791.308,-353.974 828.489,-238.181 842.877,-193.372"/>
<polygon fill="midnightblue" stroke="midnightblue" points="846.218,-194.414 845.943,-183.823 839.553,-192.274 846.218,-194.414"/>
</g>
<!-- Node2 -->
<g id="node3" class="node"><title>Node2</title>
<g id="a_node3"><a xlink:href="../../de/d53/fuzzylite_8h.html" target="_top" xlink:title="fl/fuzzylite.h">
<polygon fill="white" stroke="black" points="310.495,-55.5 310.495,-73.5 378.736,-73.5 378.736,-55.5 310.495,-55.5"/>
<text text-anchor="middle" x="344.616" y="-61.5" font-family="Helvetica,sans-Serif" font-size="10.00">fl/fuzzylite.h</text>
</a>
</g>
</g>
<!-- Node1&#45;&gt;Node2 -->
<g id="edge2" class="edge"><title>Node1&#45;&gt;Node2</title>
<path fill="none" stroke="midnightblue" d="M678.728,-336.446C534.662,-328.326 39.6157,-295.683 39.6157,-230.5 39.6157,-230.5 39.6157,-230.5 39.6157,-173.5 39.6157,-118.902 215.48,-84.9482 300.125,-71.7678"/>
<polygon fill="midnightblue" stroke="midnightblue" points="300.864,-75.1957 310.221,-70.2271 299.808,-68.2759 300.864,-75.1957"/>
</g>
<!-- Node4 -->
<g id="node5" class="node"><title>Node4</title>
<polygon fill="white" stroke="#bfbfbf" points="0,-0.5 0,-18.5 43.2314,-18.5 43.2314,-0.5 0,-0.5"/>
<text text-anchor="middle" x="21.6157" y="-6.5" font-family="Helvetica,sans-Serif" font-size="10.00">cmath</text>
</g>
<!-- Node1&#45;&gt;Node4 -->
<g id="edge38" class="edge"><title>Node1&#45;&gt;Node4</title>
<path fill="none" stroke="midnightblue" d="M678.695,-337.393C565.488,-333.881 237.842,-321.55 134.616,-294 71.3281,-277.109 1.61572,-296.003 1.61572,-230.5 1.61572,-230.5 1.61572,-230.5 1.61572,-118.5 1.61572,-86.3341 10.2992,-49.6667 16.2228,-28.3958"/>
<polygon fill="midnightblue" stroke="midnightblue" points="19.6587,-29.1137 19.0827,-18.5345 12.9358,-27.1639 19.6587,-29.1137"/>
</g>
<!-- Node10 -->
<g id="node11" class="node"><title>Node10</title>
<g id="a_node11"><a xlink:href="../../d6/dd6/_operation_8h.html" target="_top" xlink:title="fl/Operation.h">
<polygon fill="white" stroke="black" points="387.599,-275.5 387.599,-293.5 463.633,-293.5 463.633,-275.5 387.599,-275.5"/>
<text text-anchor="middle" x="425.616" y="-281.5" font-family="Helvetica,sans-Serif" font-size="10.00">fl/Operation.h</text>
</a>
</g>
</g>
<!-- Node1&#45;&gt;Node10 -->
<g id="edge10" class="edge"><title>Node1&#45;&gt;Node10</title>
<path fill="none" stroke="midnightblue" d="M678.84,-331.462C626.008,-321.873 531.428,-304.706 474.01,-294.284"/>
<polygon fill="midnightblue" stroke="midnightblue" points="474.551,-290.825 464.086,-292.483 473.301,-297.712 474.551,-290.825"/>
</g>
<!-- Node13 -->
<g id="node14" class="node"><title>Node13</title>
<polygon fill="white" stroke="#bfbfbf" points="565.389,-110.5 565.389,-128.5 605.842,-128.5 605.842,-110.5 565.389,-110.5"/>
<text text-anchor="middle" x="585.616" y="-116.5" font-family="Helvetica,sans-Serif" font-size="10.00">string</text>
</g>
<!-- Node1&#45;&gt;Node13 -->
<g id="edge39" class="edge"><title>Node1&#45;&gt;Node13</title>
<path fill="none" stroke="midnightblue" d="M712.702,-330.471C698.717,-307.607 657.518,-240.184 623.616,-184 614.095,-168.222 603.314,-150.19 595.673,-137.383"/>
<polygon fill="midnightblue" stroke="midnightblue" points="598.643,-135.529 590.516,-128.731 592.63,-139.113 598.643,-135.529"/>
</g>
<!-- Node14 -->
<g id="node15" class="node"><title>Node14</title>
<polygon fill="white" stroke="#bfbfbf" points="827,-55.5 827,-73.5 870.231,-73.5 870.231,-55.5 827,-55.5"/>
<text text-anchor="middle" x="848.616" y="-61.5" font-family="Helvetica,sans-Serif" font-size="10.00">vector</text>
</g>
<!-- Node1&#45;&gt;Node14 -->
<g id="edge40" class="edge"><title>Node1&#45;&gt;Node14</title>
<path fill="none" stroke="midnightblue" d="M756.203,-337.268C821.467,-332.903 946.616,-313.688 946.616,-230.5 946.616,-230.5 946.616,-230.5 946.616,-173.5 946.616,-130.092 902.662,-96.3866 873.627,-78.8566"/>
<polygon fill="midnightblue" stroke="midnightblue" points="875.206,-75.7266 864.798,-73.7417 871.696,-81.7834 875.206,-75.7266"/>
</g>
<!-- Node16 -->
<g id="node17" class="node"><title>Node16</title>
<g id="a_node17"><a xlink:href="../../d5/de4/_complexity_8h.html" target="_top" xlink:title="fl/Complexity.h">
<polygon fill="white" stroke="black" points="688.196,-110.5 688.196,-128.5 769.035,-128.5 769.035,-110.5 688.196,-110.5"/>
<text text-anchor="middle" x="728.616" y="-116.5" font-family="Helvetica,sans-Serif" font-size="10.00">fl/Complexity.h</text>
</a>
</g>
</g>
<!-- Node1&#45;&gt;Node16 -->
<g id="edge37" class="edge"><title>Node1&#45;&gt;Node16</title>
<path fill="none" stroke="midnightblue" d="M721.411,-330.369C731.72,-307.779 760.102,-242.093 769.616,-184 770.98,-175.667 772.687,-172.866 769.616,-165 765.099,-153.432 756.01,-143.058 747.536,-135.243"/>
<polygon fill="midnightblue" stroke="midnightblue" points="749.637,-132.433 739.768,-128.578 745.078,-137.746 749.637,-132.433"/>
</g>
<!-- Node3 -->
<g id="node4" class="node"><title>Node3</title>
<polygon fill="white" stroke="#bfbfbf" points="100.052,-0.5 100.052,-18.5 157.18,-18.5 157.18,-0.5 100.052,-0.5"/>
<text text-anchor="middle" x="128.616" y="-6.5" font-family="Helvetica,sans-Serif" font-size="10.00">algorithm</text>
</g>
<!-- Node2&#45;&gt;Node3 -->
<g id="edge3" class="edge"><title>Node2&#45;&gt;Node3</title>
<path fill="none" stroke="midnightblue" d="M311.81,-55.4504C272.969,-45.92 208.369,-30.0691 167.174,-19.961"/>
<polygon fill="midnightblue" stroke="midnightblue" points="167.78,-16.5061 157.234,-17.5222 166.112,-23.3044 167.78,-16.5061"/>
</g>
<!-- Node2&#45;&gt;Node4 -->
<g id="edge4" class="edge"><title>Node2&#45;&gt;Node4</title>
<path fill="none" stroke="midnightblue" d="M310.355,-57.8782C247.558,-47.5741 114.864,-25.8008 53.713,-15.7667"/>
<polygon fill="midnightblue" stroke="midnightblue" points="53.9374,-12.2568 43.5026,-14.0913 52.8038,-19.1644 53.9374,-12.2568"/>
</g>
<!-- Node5 -->
<g id="node6" class="node"><title>Node5</title>
<polygon fill="white" stroke="#bfbfbf" points="386.443,-0.5 386.443,-18.5 440.788,-18.5 440.788,-0.5 386.443,-0.5"/>
<text text-anchor="middle" x="413.616" y="-6.5" font-family="Helvetica,sans-Serif" font-size="10.00">iostream</text>
</g>
<!-- Node2&#45;&gt;Node5 -->
<g id="edge5" class="edge"><title>Node2&#45;&gt;Node5</title>
<path fill="none" stroke="midnightblue" d="M355.095,-55.4504C365.633,-47.3566 382.105,-34.7042 394.892,-24.8822"/>
<polygon fill="midnightblue" stroke="midnightblue" points="397.239,-27.4926 403.037,-18.6253 392.975,-21.9412 397.239,-27.4926"/>
</g>
<!-- Node6 -->
<g id="node7" class="node"><title>Node6</title>
<polygon fill="white" stroke="#bfbfbf" points="458.835,-0.5 458.835,-18.5 510.396,-18.5 510.396,-0.5 458.835,-0.5"/>
<text text-anchor="middle" x="484.616" y="-6.5" font-family="Helvetica,sans-Serif" font-size="10.00">sstream</text>
</g>
<!-- Node2&#45;&gt;Node6 -->
<g id="edge6" class="edge"><title>Node2&#45;&gt;Node6</title>
<path fill="none" stroke="midnightblue" d="M365.879,-55.4504C389.212,-46.6173 426.887,-32.3546 453.533,-22.267"/>
<polygon fill="midnightblue" stroke="midnightblue" points="455.04,-25.4392 463.153,-18.6253 452.561,-18.8926 455.04,-25.4392"/>
</g>
<!-- Node7 -->
<g id="node8" class="node"><title>Node7</title>
<polygon fill="white" stroke="#bfbfbf" points="194.229,-0.5 194.229,-18.5 233.002,-18.5 233.002,-0.5 194.229,-0.5"/>
<text text-anchor="middle" x="213.616" y="-6.5" font-family="Helvetica,sans-Serif" font-size="10.00">limits</text>
</g>
<!-- Node2&#45;&gt;Node7 -->
<g id="edge7" class="edge"><title>Node2&#45;&gt;Node7</title>
<path fill="none" stroke="midnightblue" d="M324.72,-55.4504C302.857,-46.6051 267.536,-32.3151 242.597,-22.2252"/>
<polygon fill="midnightblue" stroke="midnightblue" points="243.853,-18.9577 233.27,-18.4517 241.227,-25.4467 243.853,-18.9577"/>
</g>
<!-- Node8 -->
<g id="node9" class="node"><title>Node8</title>
<polygon fill="white" stroke="#bfbfbf" points="250.559,-0.5 250.559,-18.5 302.672,-18.5 302.672,-0.5 250.559,-0.5"/>
<text text-anchor="middle" x="276.616" y="-6.5" font-family="Helvetica,sans-Serif" font-size="10.00">memory</text>
</g>
<!-- Node2&#45;&gt;Node8 -->
<g id="edge8" class="edge"><title>Node2&#45;&gt;Node8</title>
<path fill="none" stroke="midnightblue" d="M334.288,-55.4504C323.903,-47.3566 307.67,-34.7042 295.068,-24.8822"/>
<polygon fill="midnightblue" stroke="midnightblue" points="297.08,-22.0122 287.041,-18.6253 292.776,-27.5333 297.08,-22.0122"/>
</g>
<!-- Node9 -->
<g id="node10" class="node"><title>Node9</title>
<polygon fill="white" stroke="#bfbfbf" points="320.495,-0.5 320.495,-18.5 368.736,-18.5 368.736,-0.5 320.495,-0.5"/>
<text text-anchor="middle" x="344.616" y="-6.5" font-family="Helvetica,sans-Serif" font-size="10.00">cstddef</text>
</g>
<!-- Node2&#45;&gt;Node9 -->
<g id="edge9" class="edge"><title>Node2&#45;&gt;Node9</title>
<path fill="none" stroke="midnightblue" d="M344.616,-55.2188C344.616,-48.1769 344.616,-37.8083 344.616,-28.8277"/>
<polygon fill="midnightblue" stroke="midnightblue" points="348.116,-28.5495 344.616,-18.5496 341.116,-28.5496 348.116,-28.5495"/>
</g>
<!-- Node10&#45;&gt;Node2 -->
<g id="edge11" class="edge"><title>Node10&#45;&gt;Node2</title>
<path fill="none" stroke="midnightblue" d="M387.357,-282.781C321.882,-280.654 192.668,-272.24 164.616,-239 108.7,-172.744 249.626,-104.254 314.261,-77.3535"/>
<polygon fill="midnightblue" stroke="midnightblue" points="315.643,-80.5696 323.575,-73.5453 312.994,-74.0903 315.643,-80.5696"/>
</g>
<!-- Node10&#45;&gt;Node3 -->
<g id="edge33" class="edge"><title>Node10&#45;&gt;Node3</title>
<path fill="none" stroke="midnightblue" d="M387.221,-283.813C332.224,-282.852 229.009,-275.731 150.616,-239 111.677,-220.755 77.6157,-218.502 77.6157,-175.5 77.6157,-175.5 77.6157,-175.5 77.6157,-118.5 77.6157,-83.0764 100.327,-46.8359 115.438,-26.6438"/>
<polygon fill="midnightblue" stroke="midnightblue" points="118.354,-28.5962 121.738,-18.5562 112.832,-24.2949 118.354,-28.5962"/>
</g>
<!-- Node11 -->
<g id="node12" class="node"><title>Node11</title>
<g id="a_node12"><a xlink:href="../../df/d98/_exception_8h.html" target="_top" xlink:title="fl/Exception.h">
<polygon fill="white" stroke="black" points="362.599,-165.5 362.599,-183.5 438.633,-183.5 438.633,-165.5 362.599,-165.5"/>
<text text-anchor="middle" x="400.616" y="-171.5" font-family="Helvetica,sans-Serif" font-size="10.00">fl/Exception.h</text>
</a>
</g>
</g>
<!-- Node10&#45;&gt;Node11 -->
<g id="edge12" class="edge"><title>Node10&#45;&gt;Node11</title>
<path fill="none" stroke="midnightblue" d="M387.506,-282.555C323.709,-280.08 199.605,-271.151 172.616,-239 167.186,-232.532 167.247,-226.518 172.616,-220 194.916,-192.927 292.167,-182.1 352.225,-177.941"/>
<polygon fill="midnightblue" stroke="midnightblue" points="352.503,-181.43 362.253,-177.284 352.046,-174.445 352.503,-181.43"/>
</g>
<!-- Node10&#45;&gt;Node13 -->
<g id="edge17" class="edge"><title>Node10&#45;&gt;Node13</title>
<path fill="none" stroke="midnightblue" d="M463.91,-280.413C515.501,-275.368 603.132,-263.376 622.616,-239 642.074,-214.656 591.666,-186.467 590.616,-184 584.516,-169.678 583.613,-151.907 584.035,-138.81"/>
<polygon fill="midnightblue" stroke="midnightblue" points="587.536,-138.903 584.651,-128.708 580.549,-138.477 587.536,-138.903"/>
</g>
<!-- Node10&#45;&gt;Node14 -->
<g id="edge18" class="edge"><title>Node10&#45;&gt;Node14</title>
<path fill="none" stroke="midnightblue" d="M463.644,-281.425C564.985,-275.009 837.39,-251.666 889.616,-184 913.901,-152.536 882.691,-105.677 862.792,-81.3866"/>
<polygon fill="midnightblue" stroke="midnightblue" points="865.246,-78.8701 856.096,-73.5289 859.918,-83.4103 865.246,-78.8701"/>
</g>
<!-- Node15 -->
<g id="node16" class="node"><title>Node15</title>
<g id="a_node16"><a xlink:href="../../d7/d8a/_defuzzifier_8h.html" target="_top" xlink:title="fl/defuzzifier/Defuzzifier.h">
<polygon fill="white" stroke="black" points="633.035,-165.5 633.035,-183.5 760.197,-183.5 760.197,-165.5 633.035,-165.5"/>
<text text-anchor="middle" x="696.616" y="-171.5" font-family="Helvetica,sans-Serif" font-size="10.00">fl/defuzzifier/Defuzzifier.h</text>
</a>
</g>
</g>
<!-- Node10&#45;&gt;Node15 -->
<g id="edge19" class="edge"><title>Node10&#45;&gt;Node15</title>
<path fill="none" stroke="midnightblue" d="M464.003,-279.741C521.07,-273.548 624.867,-259.78 655.616,-239 672.064,-227.884 683.39,-207.731 689.904,-193.103"/>
<polygon fill="midnightblue" stroke="midnightblue" points="693.23,-194.216 693.801,-183.637 686.758,-191.552 693.23,-194.216"/>
</g>
<!-- Node17 -->
<g id="node18" class="node"><title>Node17</title>
<g id="a_node18"><a xlink:href="../../d7/d72/_norm_8h.html" target="_top" xlink:title="fl/norm/Norm.h">
<polygon fill="white" stroke="black" points="456.554,-165.5 456.554,-183.5 538.677,-183.5 538.677,-165.5 456.554,-165.5"/>
<text text-anchor="middle" x="497.616" y="-171.5" font-family="Helvetica,sans-Serif" font-size="10.00">fl/norm/Norm.h</text>
</a>
</g>
</g>
<!-- Node10&#45;&gt;Node17 -->
<g id="edge25" class="edge"><title>Node10&#45;&gt;Node17</title>
<path fill="none" stroke="midnightblue" d="M439.312,-275.299C451.337,-267.424 468.452,-254.461 478.616,-239 487.702,-225.178 492.575,-206.856 495.101,-193.447"/>
<polygon fill="midnightblue" stroke="midnightblue" points="498.561,-193.977 496.712,-183.545 491.652,-192.853 498.561,-193.977"/>
</g>
<!-- Node18 -->
<g id="node19" class="node"><title>Node18</title>
<g id="a_node19"><a xlink:href="../../de/d44/_s_norm_8h.html" target="_top" xlink:title="fl/norm/SNorm.h">
<polygon fill="white" stroke="black" points="525.219,-220.5 525.219,-238.5 614.012,-238.5 614.012,-220.5 525.219,-220.5"/>
<text text-anchor="middle" x="569.616" y="-226.5" font-family="Helvetica,sans-Serif" font-size="10.00">fl/norm/SNorm.h</text>
</a>
</g>
</g>
<!-- Node10&#45;&gt;Node18 -->
<g id="edge29" class="edge"><title>Node10&#45;&gt;Node18</title>
<path fill="none" stroke="midnightblue" d="M447.486,-275.45C471.591,-266.578 510.579,-252.229 538.006,-242.134"/>
<polygon fill="midnightblue" stroke="midnightblue" points="539.364,-245.364 547.539,-238.625 536.946,-238.795 539.364,-245.364"/>
</g>
<!-- Node19 -->
<g id="node20" class="node"><title>Node19</title>
<g id="a_node20"><a xlink:href="../../d0/d24/_t_norm_8h.html" target="_top" xlink:title="fl/norm/TNorm.h">
<polygon fill="white" stroke="black" points="381.5,-220.5 381.5,-238.5 469.731,-238.5 469.731,-220.5 381.5,-220.5"/>
<text text-anchor="middle" x="425.616" y="-226.5" font-family="Helvetica,sans-Serif" font-size="10.00">fl/norm/TNorm.h</text>
</a>
</g>
</g>
<!-- Node10&#45;&gt;Node19 -->
<g id="edge31" class="edge"><title>Node10&#45;&gt;Node19</title>
<path fill="none" stroke="midnightblue" d="M425.616,-275.219C425.616,-268.177 425.616,-257.808 425.616,-248.828"/>
<polygon fill="midnightblue" stroke="midnightblue" points="429.116,-248.55 425.616,-238.55 422.116,-248.55 429.116,-248.55"/>
</g>
<!-- Node20 -->
<g id="node21" class="node"><title>Node20</title>
<polygon fill="white" stroke="#bfbfbf" points="182.106,-220.5 182.106,-238.5 233.125,-238.5 233.125,-220.5 182.106,-220.5"/>
<text text-anchor="middle" x="207.616" y="-226.5" font-family="Helvetica,sans-Serif" font-size="10.00">iomanip</text>
</g>
<!-- Node10&#45;&gt;Node20 -->
<g id="edge34" class="edge"><title>Node10&#45;&gt;Node20</title>
<path fill="none" stroke="midnightblue" d="M392.506,-275.45C352.208,-265.653 284.434,-249.176 243.093,-239.125"/>
<polygon fill="midnightblue" stroke="midnightblue" points="243.729,-235.678 233.185,-236.716 242.075,-242.48 243.729,-235.678"/>
</g>
<!-- Node21 -->
<g id="node22" class="node"><title>Node21</title>
<polygon fill="white" stroke="#bfbfbf" points="251.219,-220.5 251.219,-238.5 300.012,-238.5 300.012,-220.5 251.219,-220.5"/>
<text text-anchor="middle" x="275.616" y="-226.5" font-family="Helvetica,sans-Serif" font-size="10.00">cstdarg</text>
</g>
<!-- Node10&#45;&gt;Node21 -->
<g id="edge35" class="edge"><title>Node10&#45;&gt;Node21</title>
<path fill="none" stroke="midnightblue" d="M402.834,-275.45C377.614,-266.539 336.756,-252.103 308.167,-242.001"/>
<polygon fill="midnightblue" stroke="midnightblue" points="309.207,-238.657 298.612,-238.625 306.875,-245.257 309.207,-238.657"/>
</g>
<!-- Node22 -->
<g id="node23" class="node"><title>Node22</title>
<polygon fill="white" stroke="#bfbfbf" points="318.165,-220.5 318.165,-238.5 363.066,-238.5 363.066,-220.5 318.165,-220.5"/>
<text text-anchor="middle" x="340.616" y="-226.5" font-family="Helvetica,sans-Serif" font-size="10.00">cctype</text>
</g>
<!-- Node10&#45;&gt;Node22 -->
<g id="edge36" class="edge"><title>Node10&#45;&gt;Node22</title>
<path fill="none" stroke="midnightblue" d="M412.706,-275.45C399.351,-267.123 378.257,-253.97 362.33,-244.039"/>
<polygon fill="midnightblue" stroke="midnightblue" points="363.984,-240.946 353.647,-238.625 360.281,-246.886 363.984,-240.946"/>
</g>
<!-- Node11&#45;&gt;Node2 -->
<g id="edge13" class="edge"><title>Node11&#45;&gt;Node2</title>
<path fill="none" stroke="midnightblue" d="M392.114,-165.397C383.766,-157.009 371.212,-143.168 363.616,-129 355.961,-114.724 350.98,-96.9488 348.046,-83.8385"/>
<polygon fill="midnightblue" stroke="midnightblue" points="351.411,-82.8205 345.98,-73.7235 344.552,-84.2217 351.411,-82.8205"/>
</g>
<!-- Node12 -->
<g id="node13" class="node"><title>Node12</title>
<polygon fill="white" stroke="#bfbfbf" points="372.212,-110.5 372.212,-128.5 431.02,-128.5 431.02,-110.5 372.212,-110.5"/>
<text text-anchor="middle" x="401.616" y="-116.5" font-family="Helvetica,sans-Serif" font-size="10.00">exception</text>
</g>
<!-- Node11&#45;&gt;Node12 -->
<g id="edge14" class="edge"><title>Node11&#45;&gt;Node12</title>
<path fill="none" stroke="midnightblue" d="M400.772,-165.219C400.905,-158.177 401.1,-147.808 401.27,-138.828"/>
<polygon fill="midnightblue" stroke="midnightblue" points="404.774,-138.614 401.464,-128.55 397.776,-138.482 404.774,-138.614"/>
</g>
<!-- Node11&#45;&gt;Node13 -->
<g id="edge15" class="edge"><title>Node11&#45;&gt;Node13</title>
<path fill="none" stroke="midnightblue" d="M428.713,-165.45C462.937,-155.646 520.511,-139.152 555.586,-129.103"/>
<polygon fill="midnightblue" stroke="midnightblue" points="556.622,-132.447 565.272,-126.328 554.694,-125.718 556.622,-132.447"/>
</g>
<!-- Node11&#45;&gt;Node14 -->
<g id="edge16" class="edge"><title>Node11&#45;&gt;Node14</title>
<path fill="none" stroke="midnightblue" d="M417.016,-165.314C444.959,-151.714 503.9,-124.527 556.616,-110 649.078,-84.5195 762.295,-72.5182 816.587,-67.9011"/>
<polygon fill="midnightblue" stroke="midnightblue" points="816.957,-71.3826 826.636,-67.0743 816.383,-64.4061 816.957,-71.3826"/>
</g>
<!-- Node15&#45;&gt;Node2 -->
<g id="edge20" class="edge"><title>Node15&#45;&gt;Node2</title>
<path fill="none" stroke="midnightblue" d="M688.9,-165.303C675.323,-151.433 645.645,-123.528 614.616,-110 539.952,-77.4477 444.192,-68.5379 389.083,-66.2034"/>
<polygon fill="midnightblue" stroke="midnightblue" points="389.074,-62.7008 378.951,-65.8294 388.815,-69.696 389.074,-62.7008"/>
</g>
<!-- Node15&#45;&gt;Node13 -->
<g id="edge24" class="edge"><title>Node15&#45;&gt;Node13</title>
<path fill="none" stroke="midnightblue" d="M679.757,-165.45C661.665,-156.812 632.697,-142.98 611.668,-132.94"/>
<polygon fill="midnightblue" stroke="midnightblue" points="613.165,-129.776 602.633,-128.625 610.149,-136.093 613.165,-129.776"/>
</g>
<!-- Node15&#45;&gt;Node16 -->
<g id="edge21" class="edge"><title>Node15&#45;&gt;Node16</title>
<path fill="none" stroke="midnightblue" d="M701.616,-165.219C706.104,-157.786 712.829,-146.646 718.445,-137.345"/>
<polygon fill="midnightblue" stroke="midnightblue" points="721.583,-138.919 723.756,-128.55 715.591,-135.301 721.583,-138.919"/>
</g>
<!-- Node16&#45;&gt;Node2 -->
<g id="edge22" class="edge"><title>Node16&#45;&gt;Node2</title>
<path fill="none" stroke="midnightblue" d="M687.996,-112.61C681.839,-111.728 675.56,-110.835 669.616,-110 569.182,-95.8897 451.205,-79.8763 388.696,-71.4359"/>
<polygon fill="midnightblue" stroke="midnightblue" points="389.162,-67.9673 378.784,-70.0983 388.226,-74.9044 389.162,-67.9673"/>
</g>
<!-- Node16&#45;&gt;Node14 -->
<g id="edge23" class="edge"><title>Node16&#45;&gt;Node14</title>
<path fill="none" stroke="midnightblue" d="M746.841,-110.45C766.576,-101.734 798.282,-87.7306 821.063,-77.6691"/>
<polygon fill="midnightblue" stroke="midnightblue" points="822.485,-80.8672 830.219,-73.6253 819.657,-74.4639 822.485,-80.8672"/>
</g>
<!-- Node17&#45;&gt;Node2 -->
<g id="edge26" class="edge"><title>Node17&#45;&gt;Node2</title>
<path fill="none" stroke="midnightblue" d="M491.684,-165.12C482.026,-151.963 461.744,-126.282 439.616,-110 420.753,-96.1205 396.871,-84.957 377.771,-77.2827"/>
<polygon fill="midnightblue" stroke="midnightblue" points="378.86,-73.9509 368.271,-73.5917 376.325,-80.4757 378.86,-73.9509"/>
</g>
<!-- Node17&#45;&gt;Node13 -->
<g id="edge28" class="edge"><title>Node17&#45;&gt;Node13</title>
<path fill="none" stroke="midnightblue" d="M510.981,-165.45C524.807,-157.123 546.646,-143.97 563.135,-134.039"/>
<polygon fill="midnightblue" stroke="midnightblue" points="565.364,-136.783 572.125,-128.625 561.753,-130.786 565.364,-136.783"/>
</g>
<!-- Node17&#45;&gt;Node16 -->
<g id="edge27" class="edge"><title>Node17&#45;&gt;Node16</title>
<path fill="none" stroke="midnightblue" d="M532.7,-165.45C573.097,-156.182 639.549,-140.935 683.694,-130.807"/>
<polygon fill="midnightblue" stroke="midnightblue" points="684.617,-134.186 693.581,-128.538 683.051,-127.363 684.617,-134.186"/>
</g>
<!-- Node18&#45;&gt;Node17 -->
<g id="edge30" class="edge"><title>Node18&#45;&gt;Node17</title>
<path fill="none" stroke="midnightblue" d="M558.68,-220.45C547.579,-212.279 530.166,-199.46 516.77,-189.6"/>
<polygon fill="midnightblue" stroke="midnightblue" points="518.782,-186.735 508.654,-183.625 514.632,-192.372 518.782,-186.735"/>
</g>
<!-- Node19&#45;&gt;Node17 -->
<g id="edge32" class="edge"><title>Node19&#45;&gt;Node17</title>
<path fill="none" stroke="midnightblue" d="M436.551,-220.45C447.652,-212.279 465.066,-199.46 478.462,-189.6"/>
<polygon fill="midnightblue" stroke="midnightblue" points="480.599,-192.372 486.578,-183.625 476.449,-186.735 480.599,-192.372"/>
</g>
<!-- Node23&#45;&gt;Node2 -->
<g id="edge42" class="edge"><title>Node23&#45;&gt;Node2</title>
<path fill="none" stroke="midnightblue" d="M842.268,-165.099C831.014,-150.921 806.053,-122.565 777.616,-110 708.825,-79.6051 485.256,-69.5738 389.171,-66.6146"/>
<polygon fill="midnightblue" stroke="midnightblue" points="389.016,-63.1085 378.917,-66.3109 388.809,-70.1055 389.016,-63.1085"/>
</g>
<!-- Node23&#45;&gt;Node13 -->
<g id="edge44" class="edge"><title>Node23&#45;&gt;Node13</title>
<path fill="none" stroke="midnightblue" d="M816.892,-167.107C765.872,-156.825 666.243,-136.748 616.054,-126.634"/>
<polygon fill="midnightblue" stroke="midnightblue" points="616.624,-123.179 606.13,-124.634 615.241,-130.041 616.624,-123.179"/>
</g>
<!-- Node23&#45;&gt;Node14 -->
<g id="edge45" class="edge"><title>Node23&#45;&gt;Node14</title>
<path fill="none" stroke="midnightblue" d="M848.616,-165.382C848.616,-148.182 848.616,-107.698 848.616,-83.8866"/>
<polygon fill="midnightblue" stroke="midnightblue" points="852.116,-83.7117 848.616,-73.7118 845.116,-83.7118 852.116,-83.7117"/>
</g>
<!-- Node23&#45;&gt;Node16 -->
<g id="edge43" class="edge"><title>Node23&#45;&gt;Node16</title>
<path fill="none" stroke="midnightblue" d="M830.39,-165.45C810.655,-156.734 778.949,-142.731 756.168,-132.669"/>
<polygon fill="midnightblue" stroke="midnightblue" points="757.574,-129.464 747.013,-128.625 754.746,-135.867 757.574,-129.464"/>
</g>
</g>
</svg>
