<?xml version="1.0" encoding="UTF-8" standalone="no"?>
<!DOCTYPE svg PUBLIC "-//W3C//DTD SVG 1.1//EN"
 "http://www.w3.org/Graphics/SVG/1.1/DTD/svg11.dtd">
<!-- Generated by graphviz version 2.38.0 (20140413.2041)
 -->
<!-- Title: fl::Console::Option Pages: 1 -->
<svg width="111pt" height="286pt"
 viewBox="0.00 0.00 111.33 286.00" xmlns="http://www.w3.org/2000/svg" xmlns:xlink="http://www.w3.org/1999/xlink">
<g id="graph0" class="graph" transform="scale(1 1) rotate(0) translate(4 282)">
<title>fl::Console::Option</title>
<polygon fill="white" stroke="none" points="-4,4 -4,-282 107.332,-282 107.332,4 -4,4"/>
<!-- Node1 -->
<g id="node1" class="node"><title>Node1</title>
<polygon fill="#bfbfbf" stroke="black" points="0,-0.5 0,-54.5 98.2656,-54.5 98.2656,-0.5 0,-0.5"/>
<text text-anchor="middle" x="49.1328" y="-42.5" font-family="Helvetica,sans-Serif" font-size="10.00">fl::Console::Option</text>
<polyline fill="none" stroke="black" points="0,-36.5 98.2656,-36.5 "/>
<text text-anchor="middle" x="49.1328" y="-24.5" font-family="Helvetica,sans-Serif" font-size="10.00"> </text>
<polyline fill="none" stroke="black" points="0,-18.5 98.2656,-18.5 "/>
<text text-anchor="start" x="8" y="-6.5" font-family="Helvetica,sans-Serif" font-size="10.00">+ Option()</text>
</g>
<!-- Node2 -->
<g id="node2" class="node"><title>Node2</title>
<g id="a_node2"><a xlink:title="STL class. ">
<polygon fill="white" stroke="#bfbfbf" points="19.458,-121.5 19.458,-175.5 78.8076,-175.5 78.8076,-121.5 19.458,-121.5"/>
<text text-anchor="middle" x="49.1328" y="-163.5" font-family="Helvetica,sans-Serif" font-size="10.00">std::string</text>
<polyline fill="none" stroke="#bfbfbf" points="19.458,-157.5 78.8076,-157.5 "/>
<text text-anchor="middle" x="49.1328" y="-145.5" font-family="Helvetica,sans-Serif" font-size="10.00"> </text>
<polyline fill="none" stroke="#bfbfbf" points="19.458,-139.5 78.8076,-139.5 "/>
<text text-anchor="middle" x="49.1328" y="-127.5" font-family="Helvetica,sans-Serif" font-size="10.00"> </text>
</a>
</g>
</g>
<!-- Node2&#45;&gt;Node1 -->
<g id="edge1" class="edge"><title>Node2&#45;&gt;Node1</title>
<path fill="none" stroke="#404040" d="M49.1328,-121.385C49.1328,-105.342 49.1328,-84.5105 49.1328,-66.6423"/>
<polygon fill="none" stroke="#404040" points="49.1329,-66.5541 45.1329,-60.5542 49.1328,-54.5541 53.1329,-60.5541 49.1329,-66.5541"/>
<text text-anchor="middle" x="76.2324" y="-95" font-family="Helvetica,sans-Serif" font-size="10.00"> +value</text>
<text text-anchor="middle" x="76.2324" y="-85" font-family="Helvetica,sans-Serif" font-size="10.00">+description</text>
<text text-anchor="middle" x="76.2324" y="-75" font-family="Helvetica,sans-Serif" font-size="10.00">+key</text>
</g>
<!-- Node3 -->
<g id="node3" class="node"><title>Node3</title>
<g id="a_node3"><a xlink:title="STL class. ">
<polygon fill="white" stroke="#bfbfbf" points="2.08496,-213.5 2.08496,-277.5 96.1807,-277.5 96.1807,-213.5 2.08496,-213.5"/>
<text text-anchor="start" x="10.085" y="-265.5" font-family="Helvetica,sans-Serif" font-size="10.00">std::basic_string&lt;</text>
<text text-anchor="middle" x="49.1328" y="-255.5" font-family="Helvetica,sans-Serif" font-size="10.00"> char &gt;</text>
<polyline fill="none" stroke="#bfbfbf" points="2.08496,-249.5 96.1807,-249.5 "/>
<text text-anchor="middle" x="49.1328" y="-237.5" font-family="Helvetica,sans-Serif" font-size="10.00"> </text>
<polyline fill="none" stroke="#bfbfbf" points="2.08496,-231.5 96.1807,-231.5 "/>
<text text-anchor="middle" x="49.1328" y="-219.5" font-family="Helvetica,sans-Serif" font-size="10.00"> </text>
</a>
</g>
</g>
<!-- Node3&#45;&gt;Node2 -->
<g id="edge2" class="edge"><title>Node3&#45;&gt;Node2</title>
<path fill="none" stroke="midnightblue" d="M49.1328,-203.37C49.1328,-193.943 49.1328,-184.176 49.1328,-175.589"/>
<polygon fill="none" stroke="midnightblue" points="45.6329,-203.393 49.1328,-213.393 52.6329,-203.393 45.6329,-203.393"/>
</g>
</g>
</svg>
