<?xml version="1.0" encoding="UTF-8" standalone="no"?>
<!DOCTYPE svg PUBLIC "-//W3C//DTD SVG 1.1//EN"
 "http://www.w3.org/Graphics/SVG/1.1/DTD/svg11.dtd">
<!-- Generated by graphviz version 2.38.0 (20140413.2041)
 -->
<!-- Title: fl::TNormFunction Pages: 1 -->
<svg width="108pt" height="375pt"
 viewBox="0.00 0.00 108.01 375.00" xmlns="http://www.w3.org/2000/svg" xmlns:xlink="http://www.w3.org/1999/xlink">
<g id="graph0" class="graph" transform="scale(1 1) rotate(0) translate(4 371)">
<title>fl::TNormFunction</title>
<polygon fill="white" stroke="none" points="-4,4 -4,-371 104.009,-371 104.009,4 -4,4"/>
<!-- Node1 -->
<g id="node1" class="node"><title>Node1</title>
<polygon fill="#bfbfbf" stroke="black" points="0,-0.5 0,-124.5 100.009,-124.5 100.009,-0.5 0,-0.5"/>
<text text-anchor="middle" x="50.0044" y="-112.5" font-family="Helvetica,sans-Serif" font-size="10.00">fl::TNormFunction</text>
<polyline fill="none" stroke="black" points="0,-106.5 100.009,-106.5 "/>
<text text-anchor="middle" x="50.0044" y="-94.5" font-family="Helvetica,sans-Serif" font-size="10.00"> </text>
<polyline fill="none" stroke="black" points="0,-88.5 100.009,-88.5 "/>
<text text-anchor="start" x="8" y="-76.5" font-family="Helvetica,sans-Serif" font-size="10.00">+ TNormFunction()</text>
<text text-anchor="start" x="8" y="-66.5" font-family="Helvetica,sans-Serif" font-size="10.00">+ function()</text>
<text text-anchor="start" x="8" y="-56.5" font-family="Helvetica,sans-Serif" font-size="10.00">+ setFormula()</text>
<text text-anchor="start" x="8" y="-46.5" font-family="Helvetica,sans-Serif" font-size="10.00">+ getFormula()</text>
<text text-anchor="start" x="8" y="-36.5" font-family="Helvetica,sans-Serif" font-size="10.00">+ className()</text>
<text text-anchor="start" x="8" y="-26.5" font-family="Helvetica,sans-Serif" font-size="10.00">+ compute()</text>
<text text-anchor="start" x="8" y="-16.5" font-family="Helvetica,sans-Serif" font-size="10.00">+ clone()</text>
<text text-anchor="start" x="8" y="-6.5" font-family="Helvetica,sans-Serif" font-size="10.00">+ constructor()</text>
</g>
<!-- Node2 -->
<g id="node2" class="node"><title>Node2</title>
<g id="a_node2"><a xlink:href="../../d6/d29/classfl_1_1_t_norm.html" target="_top" xlink:title="The TNorm class is the base class for T&#45;Norms, and it is utilized as the conjunction fuzzy logic oper...">
<polygon fill="white" stroke="black" points="16.1694,-161.5 16.1694,-235.5 83.8394,-235.5 83.8394,-161.5 16.1694,-161.5"/>
<text text-anchor="middle" x="50.0044" y="-223.5" font-family="Helvetica,sans-Serif" font-size="10.00">fl::TNorm</text>
<polyline fill="none" stroke="black" points="16.1694,-217.5 83.8394,-217.5 "/>
<text text-anchor="middle" x="50.0044" y="-205.5" font-family="Helvetica,sans-Serif" font-size="10.00"> </text>
<polyline fill="none" stroke="black" points="16.1694,-199.5 83.8394,-199.5 "/>
<text text-anchor="start" x="24.1694" y="-187.5" font-family="Helvetica,sans-Serif" font-size="10.00">+ TNorm()</text>
<text text-anchor="start" x="24.1694" y="-177.5" font-family="Helvetica,sans-Serif" font-size="10.00">+ ~TNorm()</text>
<text text-anchor="start" x="24.1694" y="-167.5" font-family="Helvetica,sans-Serif" font-size="10.00">+ clone()</text>
</a>
</g>
</g>
<!-- Node2&#45;&gt;Node1 -->
<g id="edge1" class="edge"><title>Node2&#45;&gt;Node1</title>
<path fill="none" stroke="midnightblue" d="M50.0044,-151.093C50.0044,-142.539 50.0044,-133.489 50.0044,-124.58"/>
<polygon fill="none" stroke="midnightblue" points="46.5045,-151.238 50.0044,-161.238 53.5045,-151.238 46.5045,-151.238"/>
</g>
<!-- Node3 -->
<g id="node3" class="node"><title>Node3</title>
<g id="a_node3"><a xlink:href="../../d5/d22/classfl_1_1_norm.html" target="_top" xlink:title="The Norm class is the abstract class for norms. ">
<polygon fill="white" stroke="black" points="9.63623,-272.5 9.63623,-366.5 90.3726,-366.5 90.3726,-272.5 9.63623,-272.5"/>
<text text-anchor="middle" x="50.0044" y="-354.5" font-family="Helvetica,sans-Serif" font-size="10.00">fl::Norm</text>
<polyline fill="none" stroke="black" points="9.63623,-348.5 90.3726,-348.5 "/>
<text text-anchor="middle" x="50.0044" y="-336.5" font-family="Helvetica,sans-Serif" font-size="10.00"> </text>
<polyline fill="none" stroke="black" points="9.63623,-330.5 90.3726,-330.5 "/>
<text text-anchor="start" x="17.6362" y="-318.5" font-family="Helvetica,sans-Serif" font-size="10.00">+ Norm()</text>
<text text-anchor="start" x="17.6362" y="-308.5" font-family="Helvetica,sans-Serif" font-size="10.00">+ ~Norm()</text>
<text text-anchor="start" x="17.6362" y="-298.5" font-family="Helvetica,sans-Serif" font-size="10.00">+ className()</text>
<text text-anchor="start" x="17.6362" y="-288.5" font-family="Helvetica,sans-Serif" font-size="10.00">+ compute()</text>
<text text-anchor="start" x="17.6362" y="-278.5" font-family="Helvetica,sans-Serif" font-size="10.00">+ clone()</text>
</a>
</g>
</g>
<!-- Node3&#45;&gt;Node2 -->
<g id="edge2" class="edge"><title>Node3&#45;&gt;Node2</title>
<path fill="none" stroke="midnightblue" d="M50.0044,-262.379C50.0044,-253.343 50.0044,-244.203 50.0044,-235.796"/>
<polygon fill="none" stroke="midnightblue" points="46.5045,-262.491 50.0044,-272.491 53.5045,-262.492 46.5045,-262.491"/>
</g>
</g>
</svg>
