<?xml version="1.0" encoding="UTF-8" standalone="no"?>
<!DOCTYPE svg PUBLIC "-//W3C//DTD SVG 1.1//EN"
 "http://www.w3.org/Graphics/SVG/1.1/DTD/svg11.dtd">
<!-- Generated by graphviz version 2.38.0 (20140413.2041)
 -->
<!-- Title: fuzzylite/fl/Benchmark.h Pages: 1 -->
<svg width="466pt" height="247pt"
 viewBox="0.00 0.00 466.46 247.00" xmlns="http://www.w3.org/2000/svg" xmlns:xlink="http://www.w3.org/1999/xlink">
<g id="graph0" class="graph" transform="scale(1 1) rotate(0) translate(4 243)">
<title>fuzzylite/fl/Benchmark.h</title>
<polygon fill="white" stroke="none" points="-4,4 -4,-243 462.457,-243 462.457,4 -4,4"/>
<!-- Node0 -->
<g id="node1" class="node"><title>Node0</title>
<polygon fill="#bfbfbf" stroke="black" points="241.766,-220.5 241.766,-238.5 363.362,-238.5 363.362,-220.5 241.766,-220.5"/>
<text text-anchor="middle" x="302.564" y="-226.5" font-family="Helvetica,sans-Serif" font-size="10.00">fuzzylite/fl/Benchmark.h</text>
</g>
<!-- Node1 -->
<g id="node2" class="node"><title>Node1</title>
<g id="a_node2"><a xlink:href="../../de/d53/fuzzylite_8h.html" target="_top" xlink:title="fl/fuzzylite.h">
<polygon fill="white" stroke="black" points="200.443,-55.5 200.443,-73.5 268.685,-73.5 268.685,-55.5 200.443,-55.5"/>
<text text-anchor="middle" x="234.564" y="-61.5" font-family="Helvetica,sans-Serif" font-size="10.00">fl/fuzzylite.h</text>
</a>
</g>
</g>
<!-- Node0&#45;&gt;Node1 -->
<g id="edge1" class="edge"><title>Node0&#45;&gt;Node1</title>
<path fill="none" stroke="midnightblue" d="M243.824,-220.452C221.793,-214.261 198.888,-203.322 185.564,-184 162.502,-150.555 197.217,-104.578 219.057,-80.93"/>
<polygon fill="midnightblue" stroke="midnightblue" points="221.735,-83.1942 226.129,-73.5537 216.682,-78.3497 221.735,-83.1942"/>
</g>
<!-- Node9 -->
<g id="node10" class="node"><title>Node9</title>
<g id="a_node10"><a xlink:href="../../d5/de4/_complexity_8h.html" target="_top" xlink:title="fl/Complexity.h">
<polygon fill="white" stroke="black" points="194.145,-165.5 194.145,-183.5 274.983,-183.5 274.983,-165.5 194.145,-165.5"/>
<text text-anchor="middle" x="234.564" y="-171.5" font-family="Helvetica,sans-Serif" font-size="10.00">fl/Complexity.h</text>
</a>
</g>
</g>
<!-- Node0&#45;&gt;Node9 -->
<g id="edge9" class="edge"><title>Node0&#45;&gt;Node9</title>
<path fill="none" stroke="midnightblue" d="M292.236,-220.45C281.852,-212.357 265.618,-199.704 253.017,-189.882"/>
<polygon fill="midnightblue" stroke="midnightblue" points="255.028,-187.012 244.989,-183.625 250.725,-192.533 255.028,-187.012"/>
</g>
<!-- Node10 -->
<g id="node11" class="node"><title>Node10</title>
<polygon fill="white" stroke="#bfbfbf" points="278.948,-110.5 278.948,-128.5 322.18,-128.5 322.18,-110.5 278.948,-110.5"/>
<text text-anchor="middle" x="300.564" y="-116.5" font-family="Helvetica,sans-Serif" font-size="10.00">vector</text>
</g>
<!-- Node0&#45;&gt;Node10 -->
<g id="edge18" class="edge"><title>Node0&#45;&gt;Node10</title>
<path fill="none" stroke="midnightblue" d="M302.414,-220.382C302.095,-203.182 301.345,-162.698 300.904,-138.887"/>
<polygon fill="midnightblue" stroke="midnightblue" points="304.401,-138.645 300.716,-128.712 297.402,-138.775 304.401,-138.645"/>
</g>
<!-- Node11 -->
<g id="node12" class="node"><title>Node11</title>
<g id="a_node12"><a xlink:href="../../d1/d85/_fld_exporter_8h.html" target="_top" xlink:title="fl/imex/FldExporter.h">
<polygon fill="white" stroke="black" points="330.99,-165.5 330.99,-183.5 438.138,-183.5 438.138,-165.5 330.99,-165.5"/>
<text text-anchor="middle" x="384.564" y="-171.5" font-family="Helvetica,sans-Serif" font-size="10.00">fl/imex/FldExporter.h</text>
</a>
</g>
</g>
<!-- Node0&#45;&gt;Node11 -->
<g id="edge12" class="edge"><title>Node0&#45;&gt;Node11</title>
<path fill="none" stroke="midnightblue" d="M315.018,-220.45C327.781,-212.201 347.872,-199.216 363.184,-189.319"/>
<polygon fill="midnightblue" stroke="midnightblue" points="365.494,-191.993 371.993,-183.625 361.694,-186.114 365.494,-191.993"/>
</g>
<!-- Node13 -->
<g id="node14" class="node"><title>Node13</title>
<polygon fill="white" stroke="#bfbfbf" points="407.337,-55.5 407.337,-73.5 447.791,-73.5 447.791,-55.5 407.337,-55.5"/>
<text text-anchor="middle" x="427.564" y="-61.5" font-family="Helvetica,sans-Serif" font-size="10.00">string</text>
</g>
<!-- Node0&#45;&gt;Node13 -->
<g id="edge17" class="edge"><title>Node0&#45;&gt;Node13</title>
<path fill="none" stroke="midnightblue" d="M363.721,-226.038C394.087,-221.337 428.312,-210.046 447.564,-184 469.908,-153.77 450.893,-107.393 437.669,-82.5729"/>
<polygon fill="midnightblue" stroke="midnightblue" points="440.602,-80.6478 432.656,-73.64 434.498,-84.0736 440.602,-80.6478"/>
</g>
<!-- Node2 -->
<g id="node3" class="node"><title>Node2</title>
<polygon fill="white" stroke="#bfbfbf" points="0,-0.5 0,-18.5 57.1279,-18.5 57.1279,-0.5 0,-0.5"/>
<text text-anchor="middle" x="28.564" y="-6.5" font-family="Helvetica,sans-Serif" font-size="10.00">algorithm</text>
</g>
<!-- Node1&#45;&gt;Node2 -->
<g id="edge2" class="edge"><title>Node1&#45;&gt;Node2</title>
<path fill="none" stroke="midnightblue" d="M203.277,-55.4504C166.727,-46.0468 106.259,-30.4896 66.916,-20.3673"/>
<polygon fill="midnightblue" stroke="midnightblue" points="67.7083,-16.9572 57.1516,-17.8551 65.9641,-23.7364 67.7083,-16.9572"/>
</g>
<!-- Node3 -->
<g id="node4" class="node"><title>Node3</title>
<polygon fill="white" stroke="#bfbfbf" points="74.9482,-0.5 74.9482,-18.5 118.18,-18.5 118.18,-0.5 74.9482,-0.5"/>
<text text-anchor="middle" x="96.564" y="-6.5" font-family="Helvetica,sans-Serif" font-size="10.00">cmath</text>
</g>
<!-- Node1&#45;&gt;Node3 -->
<g id="edge3" class="edge"><title>Node1&#45;&gt;Node3</title>
<path fill="none" stroke="midnightblue" d="M213.605,-55.4504C190.605,-46.6173 153.468,-32.3546 127.203,-22.267"/>
<polygon fill="midnightblue" stroke="midnightblue" points="128.311,-18.9433 117.72,-18.6253 125.801,-25.478 128.311,-18.9433"/>
</g>
<!-- Node4 -->
<g id="node5" class="node"><title>Node4</title>
<polygon fill="white" stroke="#bfbfbf" points="136.392,-0.5 136.392,-18.5 190.736,-18.5 190.736,-0.5 136.392,-0.5"/>
<text text-anchor="middle" x="163.564" y="-6.5" font-family="Helvetica,sans-Serif" font-size="10.00">iostream</text>
</g>
<!-- Node1&#45;&gt;Node4 -->
<g id="edge4" class="edge"><title>Node1&#45;&gt;Node4</title>
<path fill="none" stroke="midnightblue" d="M223.781,-55.4504C212.938,-47.3566 195.988,-34.7042 182.831,-24.8822"/>
<polygon fill="midnightblue" stroke="midnightblue" points="184.556,-21.8025 174.449,-18.6253 180.369,-27.412 184.556,-21.8025"/>
</g>
<!-- Node5 -->
<g id="node6" class="node"><title>Node5</title>
<polygon fill="white" stroke="#bfbfbf" points="208.783,-0.5 208.783,-18.5 260.345,-18.5 260.345,-0.5 208.783,-0.5"/>
<text text-anchor="middle" x="234.564" y="-6.5" font-family="Helvetica,sans-Serif" font-size="10.00">sstream</text>
</g>
<!-- Node1&#45;&gt;Node5 -->
<g id="edge5" class="edge"><title>Node1&#45;&gt;Node5</title>
<path fill="none" stroke="midnightblue" d="M234.564,-55.2188C234.564,-48.1769 234.564,-37.8083 234.564,-28.8277"/>
<polygon fill="midnightblue" stroke="midnightblue" points="238.064,-28.5495 234.564,-18.5496 231.064,-28.5496 238.064,-28.5495"/>
</g>
<!-- Node6 -->
<g id="node7" class="node"><title>Node6</title>
<polygon fill="white" stroke="#bfbfbf" points="278.177,-0.5 278.177,-18.5 316.951,-18.5 316.951,-0.5 278.177,-0.5"/>
<text text-anchor="middle" x="297.564" y="-6.5" font-family="Helvetica,sans-Serif" font-size="10.00">limits</text>
</g>
<!-- Node1&#45;&gt;Node6 -->
<g id="edge6" class="edge"><title>Node1&#45;&gt;Node6</title>
<path fill="none" stroke="midnightblue" d="M244.132,-55.4504C253.661,-47.4345 268.504,-34.9471 280.13,-25.1663"/>
<polygon fill="midnightblue" stroke="midnightblue" points="282.506,-27.7413 287.906,-18.6253 278,-22.3847 282.506,-27.7413"/>
</g>
<!-- Node7 -->
<g id="node8" class="node"><title>Node7</title>
<polygon fill="white" stroke="#bfbfbf" points="334.507,-0.5 334.507,-18.5 386.621,-18.5 386.621,-0.5 334.507,-0.5"/>
<text text-anchor="middle" x="360.564" y="-6.5" font-family="Helvetica,sans-Serif" font-size="10.00">memory</text>
</g>
<!-- Node1&#45;&gt;Node7 -->
<g id="edge7" class="edge"><title>Node1&#45;&gt;Node7</title>
<path fill="none" stroke="midnightblue" d="M253.701,-55.4504C274.515,-46.6951 308.011,-32.6055 331.953,-22.5346"/>
<polygon fill="midnightblue" stroke="midnightblue" points="333.387,-25.7289 341.247,-18.6253 330.672,-19.2765 333.387,-25.7289"/>
</g>
<!-- Node8 -->
<g id="node9" class="node"><title>Node8</title>
<polygon fill="white" stroke="#bfbfbf" points="404.443,-0.5 404.443,-18.5 452.685,-18.5 452.685,-0.5 404.443,-0.5"/>
<text text-anchor="middle" x="428.564" y="-6.5" font-family="Helvetica,sans-Serif" font-size="10.00">cstddef</text>
</g>
<!-- Node1&#45;&gt;Node8 -->
<g id="edge8" class="edge"><title>Node1&#45;&gt;Node8</title>
<path fill="none" stroke="midnightblue" d="M264.028,-55.4504C299.102,-45.8685 357.562,-29.8973 394.532,-19.7973"/>
<polygon fill="midnightblue" stroke="midnightblue" points="395.628,-23.1262 404.352,-17.1145 393.783,-16.3737 395.628,-23.1262"/>
</g>
<!-- Node9&#45;&gt;Node1 -->
<g id="edge10" class="edge"><title>Node9&#45;&gt;Node1</title>
<path fill="none" stroke="midnightblue" d="M234.564,-165.382C234.564,-148.182 234.564,-107.698 234.564,-83.8866"/>
<polygon fill="midnightblue" stroke="midnightblue" points="238.064,-83.7117 234.564,-73.7118 231.064,-83.7118 238.064,-83.7117"/>
</g>
<!-- Node9&#45;&gt;Node10 -->
<g id="edge11" class="edge"><title>Node9&#45;&gt;Node10</title>
<path fill="none" stroke="midnightblue" d="M244.588,-165.45C254.57,-157.434 270.12,-144.947 282.3,-135.166"/>
<polygon fill="midnightblue" stroke="midnightblue" points="284.84,-137.616 290.446,-128.625 280.457,-132.158 284.84,-137.616"/>
</g>
<!-- Node11&#45;&gt;Node10 -->
<g id="edge16" class="edge"><title>Node11&#45;&gt;Node10</title>
<path fill="none" stroke="midnightblue" d="M371.806,-165.45C358.608,-157.123 337.762,-143.97 322.023,-134.039"/>
<polygon fill="midnightblue" stroke="midnightblue" points="323.767,-131.001 313.442,-128.625 320.031,-136.922 323.767,-131.001"/>
</g>
<!-- Node12 -->
<g id="node13" class="node"><title>Node12</title>
<g id="a_node13"><a xlink:href="../../d5/d93/_exporter_8h.html" target="_top" xlink:title="fl/imex/Exporter.h">
<polygon fill="white" stroke="black" points="339.936,-110.5 339.936,-128.5 433.192,-128.5 433.192,-110.5 339.936,-110.5"/>
<text text-anchor="middle" x="386.564" y="-116.5" font-family="Helvetica,sans-Serif" font-size="10.00">fl/imex/Exporter.h</text>
</a>
</g>
</g>
<!-- Node11&#45;&gt;Node12 -->
<g id="edge13" class="edge"><title>Node11&#45;&gt;Node12</title>
<path fill="none" stroke="midnightblue" d="M384.876,-165.219C385.142,-158.177 385.533,-147.808 385.872,-138.828"/>
<polygon fill="midnightblue" stroke="midnightblue" points="389.381,-138.674 386.26,-128.55 382.386,-138.41 389.381,-138.674"/>
</g>
<!-- Node12&#45;&gt;Node1 -->
<g id="edge14" class="edge"><title>Node12&#45;&gt;Node1</title>
<path fill="none" stroke="midnightblue" d="M363.478,-110.45C337.922,-101.539 296.519,-87.1029 267.549,-77.0014"/>
<polygon fill="midnightblue" stroke="midnightblue" points="268.462,-73.613 257.867,-73.6253 266.157,-80.2227 268.462,-73.613"/>
</g>
<!-- Node12&#45;&gt;Node13 -->
<g id="edge15" class="edge"><title>Node12&#45;&gt;Node13</title>
<path fill="none" stroke="midnightblue" d="M392.97,-110.219C398.902,-102.551 407.885,-90.9387 415.21,-81.4691"/>
<polygon fill="midnightblue" stroke="midnightblue" points="417.987,-83.6007 421.337,-73.5496 412.45,-79.3176 417.987,-83.6007"/>
</g>
</g>
</svg>
