<?xml version="1.0" encoding="UTF-8" standalone="no"?>
<!DOCTYPE svg PUBLIC "-//W3C//DTD SVG 1.1//EN"
 "http://www.w3.org/Graphics/SVG/1.1/DTD/svg11.dtd">
<!-- Generated by graphviz version 2.38.0 (20140413.2041)
 -->
<!-- Title: fuzzylite/fl/Operation.h Pages: 1 -->
<svg width="725pt" height="302pt"
 viewBox="0.00 0.00 725.45 302.00" xmlns="http://www.w3.org/2000/svg" xmlns:xlink="http://www.w3.org/1999/xlink">
<g id="graph0" class="graph" transform="scale(1 1) rotate(0) translate(4 298)">
<title>fuzzylite/fl/Operation.h</title>
<polygon fill="white" stroke="none" points="-4,4 -4,-298 721.451,-298 721.451,4 -4,4"/>
<!-- Node0 -->
<g id="node1" class="node"><title>Node0</title>
<polygon fill="#bfbfbf" stroke="black" points="270.532,-275.5 270.532,-293.5 385.468,-293.5 385.468,-275.5 270.532,-275.5"/>
<text text-anchor="middle" x="328" y="-281.5" font-family="Helvetica,sans-Serif" font-size="10.00">fuzzylite/fl/Operation.h</text>
</g>
<!-- Node1 -->
<g id="node2" class="node"><title>Node1</title>
<g id="a_node2"><a xlink:href="../../de/d53/fuzzylite_8h.html" target="_top" xlink:title="fl/fuzzylite.h">
<polygon fill="white" stroke="black" points="285.879,-55.5 285.879,-73.5 354.121,-73.5 354.121,-55.5 285.879,-55.5"/>
<text text-anchor="middle" x="320" y="-61.5" font-family="Helvetica,sans-Serif" font-size="10.00">fl/fuzzylite.h</text>
</a>
</g>
</g>
<!-- Node0&#45;&gt;Node1 -->
<g id="edge1" class="edge"><title>Node0&#45;&gt;Node1</title>
<path fill="none" stroke="midnightblue" d="M383.267,-275.466C424.573,-268.199 476.047,-256.019 489,-239 522.365,-195.162 551.537,-224.123 420,-110 402.564,-94.8725 379.159,-84.0816 359.375,-76.9179"/>
<polygon fill="midnightblue" stroke="midnightblue" points="360.299,-73.5345 349.704,-73.5942 358.024,-80.1545 360.299,-73.5345"/>
</g>
<!-- Node2 -->
<g id="node3" class="node"><title>Node2</title>
<polygon fill="white" stroke="#bfbfbf" points="15.436,-0.5 15.436,-18.5 72.564,-18.5 72.564,-0.5 15.436,-0.5"/>
<text text-anchor="middle" x="44" y="-6.5" font-family="Helvetica,sans-Serif" font-size="10.00">algorithm</text>
</g>
<!-- Node0&#45;&gt;Node2 -->
<g id="edge30" class="edge"><title>Node0&#45;&gt;Node2</title>
<path fill="none" stroke="midnightblue" d="M270.491,-276.565C176.422,-263.599 0,-231.78 0,-175.5 0,-175.5 0,-175.5 0,-118.5 0,-84.0677 19.4182,-47.7207 32.4548,-27.1988"/>
<polygon fill="midnightblue" stroke="midnightblue" points="35.4716,-28.982 38.066,-18.7097 29.6319,-25.1221 35.4716,-28.982"/>
</g>
<!-- Node9 -->
<g id="node10" class="node"><title>Node9</title>
<g id="a_node10"><a xlink:href="../../df/d98/_exception_8h.html" target="_top" xlink:title="fl/Exception.h">
<polygon fill="white" stroke="black" points="77.9829,-165.5 77.9829,-183.5 154.017,-183.5 154.017,-165.5 77.9829,-165.5"/>
<text text-anchor="middle" x="116" y="-171.5" font-family="Helvetica,sans-Serif" font-size="10.00">fl/Exception.h</text>
</a>
</g>
</g>
<!-- Node0&#45;&gt;Node9 -->
<g id="edge9" class="edge"><title>Node0&#45;&gt;Node9</title>
<path fill="none" stroke="midnightblue" d="M270.426,-276.228C238.287,-270.112 198.67,-259.004 168,-239 149.964,-227.236 135.101,-207.232 125.95,-192.816"/>
<polygon fill="midnightblue" stroke="midnightblue" points="128.727,-190.646 120.558,-183.899 122.737,-194.268 128.727,-190.646"/>
</g>
<!-- Node11 -->
<g id="node12" class="node"><title>Node11</title>
<polygon fill="white" stroke="#bfbfbf" points="217.773,-110.5 217.773,-128.5 258.227,-128.5 258.227,-110.5 217.773,-110.5"/>
<text text-anchor="middle" x="238" y="-116.5" font-family="Helvetica,sans-Serif" font-size="10.00">string</text>
</g>
<!-- Node0&#45;&gt;Node11 -->
<g id="edge14" class="edge"><title>Node0&#45;&gt;Node11</title>
<path fill="none" stroke="midnightblue" d="M299.243,-275.416C278.602,-268.456 251.161,-256.701 232,-239 205.807,-214.804 188.88,-198.535 201,-165 205.047,-153.803 213.275,-143.437 220.947,-135.532"/>
<polygon fill="midnightblue" stroke="midnightblue" points="223.471,-137.96 228.257,-128.507 218.621,-132.912 223.471,-137.96"/>
</g>
<!-- Node12 -->
<g id="node13" class="node"><title>Node12</title>
<polygon fill="white" stroke="#bfbfbf" points="130.384,-55.5 130.384,-73.5 173.616,-73.5 173.616,-55.5 130.384,-55.5"/>
<text text-anchor="middle" x="152" y="-61.5" font-family="Helvetica,sans-Serif" font-size="10.00">vector</text>
</g>
<!-- Node0&#45;&gt;Node12 -->
<g id="edge15" class="edge"><title>Node0&#45;&gt;Node12</title>
<path fill="none" stroke="midnightblue" d="M270.353,-280.079C208.256,-272.908 112.516,-250.939 69,-184 50.8402,-156.065 39.1224,-138.116 57,-110 70.8356,-88.2408 98.424,-76.9386 120.322,-71.1822"/>
<polygon fill="midnightblue" stroke="midnightblue" points="121.292,-74.5493 130.22,-68.845 119.684,-67.7367 121.292,-74.5493"/>
</g>
<!-- Node13 -->
<g id="node14" class="node"><title>Node13</title>
<g id="a_node14"><a xlink:href="../../d7/d8a/_defuzzifier_8h.html" target="_top" xlink:title="fl/defuzzifier/Defuzzifier.h">
<polygon fill="white" stroke="black" points="210.419,-165.5 210.419,-183.5 337.581,-183.5 337.581,-165.5 210.419,-165.5"/>
<text text-anchor="middle" x="274" y="-171.5" font-family="Helvetica,sans-Serif" font-size="10.00">fl/defuzzifier/Defuzzifier.h</text>
</a>
</g>
</g>
<!-- Node0&#45;&gt;Node13 -->
<g id="edge16" class="edge"><title>Node0&#45;&gt;Node13</title>
<path fill="none" stroke="midnightblue" d="M292.219,-275.357C272.875,-268.935 250.625,-257.81 239,-239 229.042,-222.888 242.882,-203.779 255.984,-190.762"/>
<polygon fill="midnightblue" stroke="midnightblue" points="258.467,-193.232 263.428,-183.87 253.712,-188.096 258.467,-193.232"/>
</g>
<!-- Node15 -->
<g id="node16" class="node"><title>Node15</title>
<g id="a_node16"><a xlink:href="../../d7/d72/_norm_8h.html" target="_top" xlink:title="fl/norm/Norm.h">
<polygon fill="white" stroke="black" points="355.938,-165.5 355.938,-183.5 438.062,-183.5 438.062,-165.5 355.938,-165.5"/>
<text text-anchor="middle" x="397" y="-171.5" font-family="Helvetica,sans-Serif" font-size="10.00">fl/norm/Norm.h</text>
</a>
</g>
</g>
<!-- Node0&#45;&gt;Node15 -->
<g id="edge22" class="edge"><title>Node0&#45;&gt;Node15</title>
<path fill="none" stroke="midnightblue" d="M333.186,-275.382C344.425,-257.791 371.224,-215.846 386.273,-192.289"/>
<polygon fill="midnightblue" stroke="midnightblue" points="389.319,-194.023 391.754,-183.712 383.42,-190.254 389.319,-194.023"/>
</g>
<!-- Node16 -->
<g id="node17" class="node"><title>Node16</title>
<g id="a_node17"><a xlink:href="../../de/d44/_s_norm_8h.html" target="_top" xlink:title="fl/norm/SNorm.h">
<polygon fill="white" stroke="black" points="391.604,-220.5 391.604,-238.5 480.396,-238.5 480.396,-220.5 391.604,-220.5"/>
<text text-anchor="middle" x="436" y="-226.5" font-family="Helvetica,sans-Serif" font-size="10.00">fl/norm/SNorm.h</text>
</a>
</g>
</g>
<!-- Node0&#45;&gt;Node16 -->
<g id="edge26" class="edge"><title>Node0&#45;&gt;Node16</title>
<path fill="none" stroke="midnightblue" d="M344.403,-275.45C361.927,-266.851 389.937,-253.105 410.374,-243.075"/>
<polygon fill="midnightblue" stroke="midnightblue" points="412.007,-246.173 419.443,-238.625 408.924,-239.889 412.007,-246.173"/>
</g>
<!-- Node17 -->
<g id="node18" class="node"><title>Node17</title>
<g id="a_node18"><a xlink:href="../../d0/d24/_t_norm_8h.html" target="_top" xlink:title="fl/norm/TNorm.h">
<polygon fill="white" stroke="black" points="247.884,-220.5 247.884,-238.5 336.116,-238.5 336.116,-220.5 247.884,-220.5"/>
<text text-anchor="middle" x="292" y="-226.5" font-family="Helvetica,sans-Serif" font-size="10.00">fl/norm/TNorm.h</text>
</a>
</g>
</g>
<!-- Node0&#45;&gt;Node17 -->
<g id="edge28" class="edge"><title>Node0&#45;&gt;Node17</title>
<path fill="none" stroke="midnightblue" d="M322.375,-275.219C317.273,-267.707 309.6,-256.411 303.243,-247.052"/>
<polygon fill="midnightblue" stroke="midnightblue" points="305.982,-244.855 297.468,-238.55 300.191,-248.788 305.982,-244.855"/>
</g>
<!-- Node18 -->
<g id="node19" class="node"><title>Node18</title>
<polygon fill="white" stroke="#bfbfbf" points="536.49,-220.5 536.49,-238.5 587.51,-238.5 587.51,-220.5 536.49,-220.5"/>
<text text-anchor="middle" x="562" y="-226.5" font-family="Helvetica,sans-Serif" font-size="10.00">iomanip</text>
</g>
<!-- Node0&#45;&gt;Node18 -->
<g id="edge31" class="edge"><title>Node0&#45;&gt;Node18</title>
<path fill="none" stroke="midnightblue" d="M363.54,-275.45C407.571,-265.478 482.16,-248.583 526.276,-238.591"/>
<polygon fill="midnightblue" stroke="midnightblue" points="527.288,-241.951 536.268,-236.328 525.741,-235.124 527.288,-241.951"/>
</g>
<!-- Node19 -->
<g id="node20" class="node"><title>Node19</title>
<polygon fill="white" stroke="#bfbfbf" points="605.604,-220.5 605.604,-238.5 654.396,-238.5 654.396,-220.5 605.604,-220.5"/>
<text text-anchor="middle" x="630" y="-226.5" font-family="Helvetica,sans-Serif" font-size="10.00">cstdarg</text>
</g>
<!-- Node0&#45;&gt;Node19 -->
<g id="edge32" class="edge"><title>Node0&#45;&gt;Node19</title>
<path fill="none" stroke="midnightblue" d="M385.472,-275.492C437.882,-267.85 517.643,-255.375 595.563,-239.156"/>
<polygon fill="midnightblue" stroke="midnightblue" points="596.483,-242.539 605.548,-237.054 595.042,-235.689 596.483,-242.539"/>
</g>
<!-- Node20 -->
<g id="node21" class="node"><title>Node20</title>
<polygon fill="white" stroke="#bfbfbf" points="672.549,-220.5 672.549,-238.5 717.451,-238.5 717.451,-220.5 672.549,-220.5"/>
<text text-anchor="middle" x="695" y="-226.5" font-family="Helvetica,sans-Serif" font-size="10.00">cctype</text>
</g>
<!-- Node0&#45;&gt;Node20 -->
<g id="edge33" class="edge"><title>Node0&#45;&gt;Node20</title>
<path fill="none" stroke="midnightblue" d="M385.566,-278.109C450.503,-271.524 559.391,-258.968 662.408,-238.866"/>
<polygon fill="midnightblue" stroke="midnightblue" points="663.228,-242.272 672.358,-236.897 661.869,-235.405 663.228,-242.272"/>
</g>
<!-- Node1&#45;&gt;Node2 -->
<g id="edge2" class="edge"><title>Node1&#45;&gt;Node2</title>
<path fill="none" stroke="midnightblue" d="M285.602,-56.8947C234.015,-46.9884 136.909,-28.3413 82.8403,-17.9585"/>
<polygon fill="midnightblue" stroke="midnightblue" points="83.4268,-14.5072 72.9462,-16.0585 82.1067,-21.3816 83.4268,-14.5072"/>
</g>
<!-- Node3 -->
<g id="node4" class="node"><title>Node3</title>
<polygon fill="white" stroke="#bfbfbf" points="396.384,-0.5 396.384,-18.5 439.616,-18.5 439.616,-0.5 396.384,-0.5"/>
<text text-anchor="middle" x="418" y="-6.5" font-family="Helvetica,sans-Serif" font-size="10.00">cmath</text>
</g>
<!-- Node1&#45;&gt;Node3 -->
<g id="edge3" class="edge"><title>Node1&#45;&gt;Node3</title>
<path fill="none" stroke="midnightblue" d="M334.884,-55.4504C350.57,-46.9675 375.514,-33.477 393.988,-23.486"/>
<polygon fill="midnightblue" stroke="midnightblue" points="395.845,-26.461 402.976,-18.6253 392.515,-20.3038 395.845,-26.461"/>
</g>
<!-- Node4 -->
<g id="node5" class="node"><title>Node4</title>
<polygon fill="white" stroke="#bfbfbf" points="457.828,-0.5 457.828,-18.5 512.172,-18.5 512.172,-0.5 457.828,-0.5"/>
<text text-anchor="middle" x="485" y="-6.5" font-family="Helvetica,sans-Serif" font-size="10.00">iostream</text>
</g>
<!-- Node1&#45;&gt;Node4 -->
<g id="edge4" class="edge"><title>Node1&#45;&gt;Node4</title>
<path fill="none" stroke="midnightblue" d="M345.06,-55.4504C373.125,-46.4355 418.797,-31.7653 450.289,-21.6496"/>
<polygon fill="midnightblue" stroke="midnightblue" points="451.525,-24.9289 459.975,-18.5383 449.384,-18.2643 451.525,-24.9289"/>
</g>
<!-- Node5 -->
<g id="node6" class="node"><title>Node5</title>
<polygon fill="white" stroke="#bfbfbf" points="134.219,-0.5 134.219,-18.5 185.781,-18.5 185.781,-0.5 134.219,-0.5"/>
<text text-anchor="middle" x="160" y="-6.5" font-family="Helvetica,sans-Serif" font-size="10.00">sstream</text>
</g>
<!-- Node1&#45;&gt;Node5 -->
<g id="edge5" class="edge"><title>Node1&#45;&gt;Node5</title>
<path fill="none" stroke="midnightblue" d="M295.699,-55.4504C268.602,-46.4745 224.58,-31.8922 194.057,-21.7813"/>
<polygon fill="midnightblue" stroke="midnightblue" points="194.86,-18.3604 184.267,-18.5383 192.659,-25.0053 194.86,-18.3604"/>
</g>
<!-- Node6 -->
<g id="node7" class="node"><title>Node6</title>
<polygon fill="white" stroke="#bfbfbf" points="203.613,-0.5 203.613,-18.5 242.387,-18.5 242.387,-0.5 203.613,-0.5"/>
<text text-anchor="middle" x="223" y="-6.5" font-family="Helvetica,sans-Serif" font-size="10.00">limits</text>
</g>
<!-- Node1&#45;&gt;Node6 -->
<g id="edge6" class="edge"><title>Node1&#45;&gt;Node6</title>
<path fill="none" stroke="midnightblue" d="M305.268,-55.4504C289.742,-46.9675 265.052,-33.477 246.767,-23.486"/>
<polygon fill="midnightblue" stroke="midnightblue" points="248.325,-20.3488 237.871,-18.6253 244.968,-26.4917 248.325,-20.3488"/>
</g>
<!-- Node7 -->
<g id="node8" class="node"><title>Node7</title>
<polygon fill="white" stroke="#bfbfbf" points="259.943,-0.5 259.943,-18.5 312.057,-18.5 312.057,-0.5 259.943,-0.5"/>
<text text-anchor="middle" x="286" y="-6.5" font-family="Helvetica,sans-Serif" font-size="10.00">memory</text>
</g>
<!-- Node1&#45;&gt;Node7 -->
<g id="edge7" class="edge"><title>Node1&#45;&gt;Node7</title>
<path fill="none" stroke="midnightblue" d="M314.688,-55.2188C309.869,-47.7074 302.622,-36.411 296.618,-27.0515"/>
<polygon fill="midnightblue" stroke="midnightblue" points="299.509,-25.0767 291.164,-18.5496 293.618,-28.8564 299.509,-25.0767"/>
</g>
<!-- Node8 -->
<g id="node9" class="node"><title>Node8</title>
<polygon fill="white" stroke="#bfbfbf" points="329.879,-0.5 329.879,-18.5 378.121,-18.5 378.121,-0.5 329.879,-0.5"/>
<text text-anchor="middle" x="354" y="-6.5" font-family="Helvetica,sans-Serif" font-size="10.00">cstddef</text>
</g>
<!-- Node1&#45;&gt;Node8 -->
<g id="edge8" class="edge"><title>Node1&#45;&gt;Node8</title>
<path fill="none" stroke="midnightblue" d="M325.312,-55.2188C330.131,-47.7074 337.378,-36.411 343.382,-27.0515"/>
<polygon fill="midnightblue" stroke="midnightblue" points="346.382,-28.8564 348.836,-18.5496 340.491,-25.0767 346.382,-28.8564"/>
</g>
<!-- Node9&#45;&gt;Node1 -->
<g id="edge10" class="edge"><title>Node9&#45;&gt;Node1</title>
<path fill="none" stroke="midnightblue" d="M126.129,-165.485C142.733,-152.607 177.09,-127.028 209,-110 233.891,-96.7175 263.633,-84.9974 286.063,-76.9237"/>
<polygon fill="midnightblue" stroke="midnightblue" points="287.24,-80.2199 295.501,-73.5857 284.906,-73.6205 287.24,-80.2199"/>
</g>
<!-- Node10 -->
<g id="node11" class="node"><title>Node10</title>
<polygon fill="white" stroke="#bfbfbf" points="65.5962,-110.5 65.5962,-128.5 124.404,-128.5 124.404,-110.5 65.5962,-110.5"/>
<text text-anchor="middle" x="95" y="-116.5" font-family="Helvetica,sans-Serif" font-size="10.00">exception</text>
</g>
<!-- Node9&#45;&gt;Node10 -->
<g id="edge11" class="edge"><title>Node9&#45;&gt;Node10</title>
<path fill="none" stroke="midnightblue" d="M112.719,-165.219C109.836,-157.942 105.545,-147.113 101.908,-137.934"/>
<polygon fill="midnightblue" stroke="midnightblue" points="105.127,-136.557 98.1894,-128.55 98.6193,-139.136 105.127,-136.557"/>
</g>
<!-- Node9&#45;&gt;Node11 -->
<g id="edge12" class="edge"><title>Node9&#45;&gt;Node11</title>
<path fill="none" stroke="midnightblue" d="M134.529,-165.45C154.593,-156.734 186.828,-142.731 209.988,-132.669"/>
<polygon fill="midnightblue" stroke="midnightblue" points="211.519,-135.82 219.296,-128.625 208.73,-129.4 211.519,-135.82"/>
</g>
<!-- Node9&#45;&gt;Node12 -->
<g id="edge13" class="edge"><title>Node9&#45;&gt;Node12</title>
<path fill="none" stroke="midnightblue" d="M119.317,-165.364C122.884,-156.492 128.633,-141.841 133,-129 138.158,-113.833 143.325,-96.3826 146.966,-83.6179"/>
<polygon fill="midnightblue" stroke="midnightblue" points="150.394,-84.356 149.734,-73.7818 143.656,-82.4598 150.394,-84.356"/>
</g>
<!-- Node13&#45;&gt;Node1 -->
<g id="edge17" class="edge"><title>Node13&#45;&gt;Node1</title>
<path fill="none" stroke="midnightblue" d="M277.457,-165.382C284.883,-147.948 302.499,-106.59 312.58,-82.9219"/>
<polygon fill="midnightblue" stroke="midnightblue" points="315.804,-84.2835 316.502,-73.7118 309.364,-81.5405 315.804,-84.2835"/>
</g>
<!-- Node13&#45;&gt;Node11 -->
<g id="edge21" class="edge"><title>Node13&#45;&gt;Node11</title>
<path fill="none" stroke="midnightblue" d="M268.375,-165.219C263.273,-157.707 255.6,-146.411 249.243,-137.052"/>
<polygon fill="midnightblue" stroke="midnightblue" points="251.982,-134.855 243.468,-128.55 246.191,-138.788 251.982,-134.855"/>
</g>
<!-- Node14 -->
<g id="node15" class="node"><title>Node14</title>
<g id="a_node15"><a xlink:href="../../d5/de4/_complexity_8h.html" target="_top" xlink:title="fl/Complexity.h">
<polygon fill="white" stroke="black" points="313.581,-110.5 313.581,-128.5 394.419,-128.5 394.419,-110.5 313.581,-110.5"/>
<text text-anchor="middle" x="354" y="-116.5" font-family="Helvetica,sans-Serif" font-size="10.00">fl/Complexity.h</text>
</a>
</g>
</g>
<!-- Node13&#45;&gt;Node14 -->
<g id="edge18" class="edge"><title>Node13&#45;&gt;Node14</title>
<path fill="none" stroke="midnightblue" d="M286.15,-165.45C298.602,-157.201 318.203,-144.216 333.142,-134.319"/>
<polygon fill="midnightblue" stroke="midnightblue" points="335.332,-137.066 341.735,-128.625 331.466,-131.231 335.332,-137.066"/>
</g>
<!-- Node14&#45;&gt;Node1 -->
<g id="edge19" class="edge"><title>Node14&#45;&gt;Node1</title>
<path fill="none" stroke="midnightblue" d="M348.688,-110.219C343.869,-102.707 336.622,-91.411 330.618,-82.0515"/>
<polygon fill="midnightblue" stroke="midnightblue" points="333.509,-80.0767 325.164,-73.5496 327.618,-83.8564 333.509,-80.0767"/>
</g>
<!-- Node14&#45;&gt;Node12 -->
<g id="edge20" class="edge"><title>Node14&#45;&gt;Node12</title>
<path fill="none" stroke="midnightblue" d="M323.321,-110.45C285.59,-100.551 221.867,-83.8314 183.682,-73.8127"/>
<polygon fill="midnightblue" stroke="midnightblue" points="184.193,-70.3284 173.633,-71.1759 182.417,-77.0992 184.193,-70.3284"/>
</g>
<!-- Node15&#45;&gt;Node1 -->
<g id="edge23" class="edge"><title>Node15&#45;&gt;Node1</title>
<path fill="none" stroke="midnightblue" d="M400.64,-165.405C405.786,-152.638 413.464,-127.483 403,-110 393.665,-94.4023 376.783,-83.9593 360.67,-77.1357"/>
<polygon fill="midnightblue" stroke="midnightblue" points="361.925,-73.8682 351.335,-73.5247 359.399,-80.3968 361.925,-73.8682"/>
</g>
<!-- Node15&#45;&gt;Node11 -->
<g id="edge25" class="edge"><title>Node15&#45;&gt;Node11</title>
<path fill="none" stroke="midnightblue" d="M372.851,-165.45C344.753,-156.084 298.341,-140.614 267.966,-130.489"/>
<polygon fill="midnightblue" stroke="midnightblue" points="268.923,-127.118 258.329,-127.276 266.709,-133.759 268.923,-127.118"/>
</g>
<!-- Node15&#45;&gt;Node14 -->
<g id="edge24" class="edge"><title>Node15&#45;&gt;Node14</title>
<path fill="none" stroke="midnightblue" d="M390.281,-165.219C384.06,-157.551 374.639,-145.939 366.956,-136.469"/>
<polygon fill="midnightblue" stroke="midnightblue" points="369.549,-134.11 360.531,-128.55 364.113,-138.52 369.549,-134.11"/>
</g>
<!-- Node16&#45;&gt;Node15 -->
<g id="edge27" class="edge"><title>Node16&#45;&gt;Node15</title>
<path fill="none" stroke="midnightblue" d="M429.906,-220.219C424.321,-212.629 415.893,-201.175 408.965,-191.76"/>
<polygon fill="midnightblue" stroke="midnightblue" points="411.669,-189.53 402.923,-183.55 406.031,-193.678 411.669,-189.53"/>
</g>
<!-- Node17&#45;&gt;Node15 -->
<g id="edge29" class="edge"><title>Node17&#45;&gt;Node15</title>
<path fill="none" stroke="midnightblue" d="M307.947,-220.45C324.907,-211.89 351.971,-198.229 371.816,-188.212"/>
<polygon fill="midnightblue" stroke="midnightblue" points="373.553,-191.256 380.903,-183.625 370.398,-185.007 373.553,-191.256"/>
</g>
</g>
</svg>
