<?xml version="1.0" encoding="UTF-8" standalone="no"?>
<!DOCTYPE svg PUBLIC "-//W3C//DTD SVG 1.1//EN"
 "http://www.w3.org/Graphics/SVG/1.1/DTD/svg11.dtd">
<!-- Generated by graphviz version 2.38.0 (20140413.2041)
 -->
<!-- Title: fl::WeightedSum Pages: 1 -->
<svg width="134pt" height="435pt"
 viewBox="0.00 0.00 134.42 435.00" xmlns="http://www.w3.org/2000/svg" xmlns:xlink="http://www.w3.org/1999/xlink">
<g id="graph0" class="graph" transform="scale(1 1) rotate(0) translate(4 431)">
<title>fl::WeightedSum</title>
<polygon fill="white" stroke="none" points="-4,4 -4,-431 130.425,-431 130.425,4 -4,4"/>
<!-- Node3 -->
<g id="node1" class="node"><title>Node3</title>
<polygon fill="#bfbfbf" stroke="black" points="13.3374,-0.5 13.3374,-124.5 113.087,-124.5 113.087,-0.5 13.3374,-0.5"/>
<text text-anchor="middle" x="63.2124" y="-112.5" font-family="Helvetica,sans-Serif" font-size="10.00">fl::WeightedSum</text>
<polyline fill="none" stroke="black" points="13.3374,-106.5 113.087,-106.5 "/>
<text text-anchor="middle" x="63.2124" y="-94.5" font-family="Helvetica,sans-Serif" font-size="10.00"> </text>
<polyline fill="none" stroke="black" points="13.3374,-88.5 113.087,-88.5 "/>
<text text-anchor="start" x="21.3374" y="-76.5" font-family="Helvetica,sans-Serif" font-size="10.00">+ WeightedSum()</text>
<text text-anchor="start" x="21.3374" y="-66.5" font-family="Helvetica,sans-Serif" font-size="10.00">+ WeightedSum()</text>
<text text-anchor="start" x="21.3374" y="-56.5" font-family="Helvetica,sans-Serif" font-size="10.00">+ ~WeightedSum()</text>
<text text-anchor="start" x="21.3374" y="-46.5" font-family="Helvetica,sans-Serif" font-size="10.00">+ className()</text>
<text text-anchor="start" x="21.3374" y="-36.5" font-family="Helvetica,sans-Serif" font-size="10.00">+ complexity()</text>
<text text-anchor="start" x="21.3374" y="-26.5" font-family="Helvetica,sans-Serif" font-size="10.00">+ defuzzify()</text>
<text text-anchor="start" x="21.3374" y="-16.5" font-family="Helvetica,sans-Serif" font-size="10.00">+ clone()</text>
<text text-anchor="start" x="21.3374" y="-6.5" font-family="Helvetica,sans-Serif" font-size="10.00">+ constructor()</text>
</g>
<!-- Node4 -->
<g id="node2" class="node"><title>Node4</title>
<g id="a_node2"><a xlink:href="../../d5/d8d/classfl_1_1_weighted_defuzzifier.html" target="_top" xlink:title="The WeightedDefuzzifier class is the base class for defuzzifiers which compute a weighted function on...">
<polygon fill="white" stroke="black" points="0,-161.5 0,-285.5 126.425,-285.5 126.425,-161.5 0,-161.5"/>
<text text-anchor="middle" x="63.2124" y="-273.5" font-family="Helvetica,sans-Serif" font-size="10.00">fl::WeightedDefuzzifier</text>
<polyline fill="none" stroke="black" points="0,-267.5 126.425,-267.5 "/>
<text text-anchor="middle" x="63.2124" y="-255.5" font-family="Helvetica,sans-Serif" font-size="10.00"> </text>
<polyline fill="none" stroke="black" points="0,-249.5 126.425,-249.5 "/>
<text text-anchor="start" x="8" y="-237.5" font-family="Helvetica,sans-Serif" font-size="10.00">+ WeightedDefuzzifier()</text>
<text text-anchor="start" x="8" y="-227.5" font-family="Helvetica,sans-Serif" font-size="10.00">+ WeightedDefuzzifier()</text>
<text text-anchor="start" x="8" y="-217.5" font-family="Helvetica,sans-Serif" font-size="10.00">+ ~WeightedDefuzzifier()</text>
<text text-anchor="start" x="8" y="-207.5" font-family="Helvetica,sans-Serif" font-size="10.00">+ setType()</text>
<text text-anchor="start" x="8" y="-197.5" font-family="Helvetica,sans-Serif" font-size="10.00">+ getType()</text>
<text text-anchor="start" x="8" y="-187.5" font-family="Helvetica,sans-Serif" font-size="10.00">+ getTypeName()</text>
<text text-anchor="start" x="8" y="-177.5" font-family="Helvetica,sans-Serif" font-size="10.00">+ inferType()</text>
<text text-anchor="start" x="8" y="-167.5" font-family="Helvetica,sans-Serif" font-size="10.00">+ typeName()</text>
</a>
</g>
</g>
<!-- Node4&#45;&gt;Node3 -->
<g id="edge1" class="edge"><title>Node4&#45;&gt;Node3</title>
<path fill="none" stroke="midnightblue" d="M63.2124,-151.457C63.2124,-142.501 63.2124,-133.401 63.2124,-124.618"/>
<polygon fill="none" stroke="midnightblue" points="59.7125,-151.481 63.2124,-161.481 66.7125,-151.481 59.7125,-151.481"/>
</g>
<!-- Node5 -->
<g id="node3" class="node"><title>Node5</title>
<g id="a_node3"><a xlink:href="../../d3/d31/classfl_1_1_defuzzifier.html" target="_top" xlink:title="The Defuzzifier class is the abstract class for defuzzifiers. ">
<polygon fill="white" stroke="black" points="21.0352,-322.5 21.0352,-426.5 105.39,-426.5 105.39,-322.5 21.0352,-322.5"/>
<text text-anchor="middle" x="63.2124" y="-414.5" font-family="Helvetica,sans-Serif" font-size="10.00">fl::Defuzzifier</text>
<polyline fill="none" stroke="black" points="21.0352,-408.5 105.39,-408.5 "/>
<text text-anchor="middle" x="63.2124" y="-396.5" font-family="Helvetica,sans-Serif" font-size="10.00"> </text>
<polyline fill="none" stroke="black" points="21.0352,-390.5 105.39,-390.5 "/>
<text text-anchor="start" x="29.0352" y="-378.5" font-family="Helvetica,sans-Serif" font-size="10.00">+ Defuzzifier()</text>
<text text-anchor="start" x="29.0352" y="-368.5" font-family="Helvetica,sans-Serif" font-size="10.00">+ ~Defuzzifier()</text>
<text text-anchor="start" x="29.0352" y="-358.5" font-family="Helvetica,sans-Serif" font-size="10.00">+ className()</text>
<text text-anchor="start" x="29.0352" y="-348.5" font-family="Helvetica,sans-Serif" font-size="10.00">+ clone()</text>
<text text-anchor="start" x="29.0352" y="-338.5" font-family="Helvetica,sans-Serif" font-size="10.00">+ complexity()</text>
<text text-anchor="start" x="29.0352" y="-328.5" font-family="Helvetica,sans-Serif" font-size="10.00">+ defuzzify()</text>
</a>
</g>
</g>
<!-- Node5&#45;&gt;Node4 -->
<g id="edge2" class="edge"><title>Node5&#45;&gt;Node4</title>
<path fill="none" stroke="midnightblue" d="M63.2124,-312.104C63.2124,-303.362 63.2124,-294.372 63.2124,-285.635"/>
<polygon fill="none" stroke="midnightblue" points="59.7125,-312.223 63.2124,-322.223 66.7125,-312.223 59.7125,-312.223"/>
</g>
</g>
</svg>
