<?xml version="1.0" encoding="UTF-8" standalone="no"?>
<!DOCTYPE svg PUBLIC "-//W3C//DTD SVG 1.1//EN"
 "http://www.w3.org/Graphics/SVG/1.1/DTD/svg11.dtd">
<!-- Generated by graphviz version 2.38.0 (20140413.2041)
 -->
<!-- Title: fl::Variable Pages: 1 -->
<svg width="338pt" height="696pt"
 viewBox="0.00 0.00 338.24 696.00" xmlns="http://www.w3.org/2000/svg" xmlns:xlink="http://www.w3.org/1999/xlink">
<g id="graph0" class="graph" transform="scale(1 1) rotate(0) translate(4 692)">
<title>fl::Variable</title>
<polygon fill="white" stroke="none" points="-4,4 -4,-692 334.242,-692 334.242,4 -4,4"/>
<!-- Node3 -->
<g id="node1" class="node"><title>Node3</title>
<polygon fill="#bfbfbf" stroke="black" points="57.8823,-0.5 57.8823,-244.5 168.213,-244.5 168.213,-0.5 57.8823,-0.5"/>
<text text-anchor="middle" x="113.048" y="-232.5" font-family="Helvetica,sans-Serif" font-size="10.00">fl::Variable</text>
<polyline fill="none" stroke="black" points="57.8823,-226.5 168.213,-226.5 "/>
<text text-anchor="start" x="65.8823" y="-214.5" font-family="Helvetica,sans-Serif" font-size="10.00"># _value</text>
<text text-anchor="start" x="65.8823" y="-204.5" font-family="Helvetica,sans-Serif" font-size="10.00"># _minimum</text>
<text text-anchor="start" x="65.8823" y="-194.5" font-family="Helvetica,sans-Serif" font-size="10.00"># _maximum</text>
<text text-anchor="start" x="65.8823" y="-184.5" font-family="Helvetica,sans-Serif" font-size="10.00"># _enabled</text>
<text text-anchor="start" x="65.8823" y="-174.5" font-family="Helvetica,sans-Serif" font-size="10.00"># _lockValueInRange</text>
<polyline fill="none" stroke="black" points="57.8823,-168.5 168.213,-168.5 "/>
<text text-anchor="start" x="65.8823" y="-156.5" font-family="Helvetica,sans-Serif" font-size="10.00">+ Variable()</text>
<text text-anchor="start" x="65.8823" y="-146.5" font-family="Helvetica,sans-Serif" font-size="10.00">+ Variable()</text>
<text text-anchor="start" x="65.8823" y="-136.5" font-family="Helvetica,sans-Serif" font-size="10.00">+ operator=()</text>
<text text-anchor="start" x="65.8823" y="-126.5" font-family="Helvetica,sans-Serif" font-size="10.00">+ ~Variable()</text>
<text text-anchor="start" x="65.8823" y="-116.5" font-family="Helvetica,sans-Serif" font-size="10.00">+ setName()</text>
<text text-anchor="start" x="65.8823" y="-106.5" font-family="Helvetica,sans-Serif" font-size="10.00">+ getName()</text>
<text text-anchor="start" x="65.8823" y="-96.5" font-family="Helvetica,sans-Serif" font-size="10.00">+ getDescription()</text>
<text text-anchor="start" x="65.8823" y="-86.5" font-family="Helvetica,sans-Serif" font-size="10.00">+ setDescription()</text>
<text text-anchor="start" x="65.8823" y="-76.5" font-family="Helvetica,sans-Serif" font-size="10.00">+ setValue()</text>
<text text-anchor="start" x="65.8823" y="-66.5" font-family="Helvetica,sans-Serif" font-size="10.00">+ getValue()</text>
<text text-anchor="start" x="65.8823" y="-56.5" font-family="Helvetica,sans-Serif" font-size="10.00">+ setRange()</text>
<text text-anchor="start" x="65.8823" y="-46.5" font-family="Helvetica,sans-Serif" font-size="10.00">+ range()</text>
<text text-anchor="start" x="65.8823" y="-36.5" font-family="Helvetica,sans-Serif" font-size="10.00">+ setMinimum()</text>
<text text-anchor="start" x="65.8823" y="-26.5" font-family="Helvetica,sans-Serif" font-size="10.00">+ getMinimum()</text>
<text text-anchor="start" x="65.8823" y="-16.5" font-family="Helvetica,sans-Serif" font-size="10.00">+ setMaximum()</text>
<text text-anchor="start" x="65.8823" y="-6.5" font-family="Helvetica,sans-Serif" font-size="10.00">and 22 more...</text>
</g>
<!-- Node4 -->
<g id="node2" class="node"><title>Node4</title>
<g id="a_node2"><a xlink:title="STL class. ">
<polygon fill="white" stroke="#bfbfbf" points="24.373,-301.5 24.373,-355.5 83.7227,-355.5 83.7227,-301.5 24.373,-301.5"/>
<text text-anchor="middle" x="54.0479" y="-343.5" font-family="Helvetica,sans-Serif" font-size="10.00">std::string</text>
<polyline fill="none" stroke="#bfbfbf" points="24.373,-337.5 83.7227,-337.5 "/>
<text text-anchor="middle" x="54.0479" y="-325.5" font-family="Helvetica,sans-Serif" font-size="10.00"> </text>
<polyline fill="none" stroke="#bfbfbf" points="24.373,-319.5 83.7227,-319.5 "/>
<text text-anchor="middle" x="54.0479" y="-307.5" font-family="Helvetica,sans-Serif" font-size="10.00"> </text>
</a>
</g>
</g>
<!-- Node4&#45;&gt;Node3 -->
<g id="edge1" class="edge"><title>Node4&#45;&gt;Node3</title>
<path fill="none" stroke="#404040" d="M61.6403,-301.248C65.1805,-289.007 69.6851,-273.432 74.5508,-256.608"/>
<polygon fill="none" stroke="#404040" points="74.6356,-256.315 72.4601,-249.44 77.9697,-244.787 80.1452,-251.662 74.6356,-256.315"/>
<text text-anchor="middle" x="101.789" y="-275" font-family="Helvetica,sans-Serif" font-size="10.00"> #_name</text>
<text text-anchor="middle" x="101.789" y="-265" font-family="Helvetica,sans-Serif" font-size="10.00">#_description</text>
</g>
<!-- Node5 -->
<g id="node3" class="node"><title>Node5</title>
<g id="a_node3"><a xlink:title="STL class. ">
<polygon fill="white" stroke="#bfbfbf" points="0,-462.5 0,-526.5 94.0957,-526.5 94.0957,-462.5 0,-462.5"/>
<text text-anchor="start" x="8" y="-514.5" font-family="Helvetica,sans-Serif" font-size="10.00">std::basic_string&lt;</text>
<text text-anchor="middle" x="47.0479" y="-504.5" font-family="Helvetica,sans-Serif" font-size="10.00"> char &gt;</text>
<polyline fill="none" stroke="#bfbfbf" points="0,-498.5 94.0957,-498.5 "/>
<text text-anchor="middle" x="47.0479" y="-486.5" font-family="Helvetica,sans-Serif" font-size="10.00"> </text>
<polyline fill="none" stroke="#bfbfbf" points="0,-480.5 94.0957,-480.5 "/>
<text text-anchor="middle" x="47.0479" y="-468.5" font-family="Helvetica,sans-Serif" font-size="10.00"> </text>
</a>
</g>
</g>
<!-- Node5&#45;&gt;Node4 -->
<g id="edge2" class="edge"><title>Node5&#45;&gt;Node4</title>
<path fill="none" stroke="midnightblue" d="M48.8185,-452.016C50.1097,-421.765 51.8203,-381.689 52.9274,-355.75"/>
<polygon fill="none" stroke="midnightblue" points="45.3107,-452.127 48.381,-462.267 52.3043,-452.425 45.3107,-452.127"/>
</g>
<!-- Node6 -->
<g id="node4" class="node"><title>Node6</title>
<polygon fill="white" stroke="#bfbfbf" points="108.031,-301.5 108.031,-355.5 224.065,-355.5 224.065,-301.5 108.031,-301.5"/>
<text text-anchor="middle" x="166.048" y="-343.5" font-family="Helvetica,sans-Serif" font-size="10.00">std::vector&lt; fl::Term *&gt;</text>
<polyline fill="none" stroke="#bfbfbf" points="108.031,-337.5 224.065,-337.5 "/>
<text text-anchor="middle" x="166.048" y="-325.5" font-family="Helvetica,sans-Serif" font-size="10.00"> </text>
<polyline fill="none" stroke="#bfbfbf" points="108.031,-319.5 224.065,-319.5 "/>
<text text-anchor="middle" x="166.048" y="-307.5" font-family="Helvetica,sans-Serif" font-size="10.00"> </text>
</g>
<!-- Node6&#45;&gt;Node3 -->
<g id="edge3" class="edge"><title>Node6&#45;&gt;Node3</title>
<path fill="none" stroke="#404040" d="M159.228,-301.248C156.047,-289.007 152.001,-273.432 147.63,-256.608"/>
<polygon fill="none" stroke="#404040" points="147.576,-256.402 142.196,-251.6 144.559,-244.787 149.939,-249.589 147.576,-256.402"/>
<text text-anchor="middle" x="172.499" y="-270" font-family="Helvetica,sans-Serif" font-size="10.00"> #_terms</text>
</g>
<!-- Node7 -->
<g id="node5" class="node"><title>Node7</title>
<g id="a_node5"><a xlink:href="../../d4/de6/classfl_1_1_term.html" target="_top" xlink:title="The Term class is the abstract class for linguistic terms. ">
<polygon fill="white" stroke="black" points="112.047,-402.5 112.047,-586.5 220.049,-586.5 220.049,-402.5 112.047,-402.5"/>
<text text-anchor="middle" x="166.048" y="-574.5" font-family="Helvetica,sans-Serif" font-size="10.00">fl::Term</text>
<polyline fill="none" stroke="black" points="112.047,-568.5 220.049,-568.5 "/>
<text text-anchor="start" x="120.047" y="-556.5" font-family="Helvetica,sans-Serif" font-size="10.00"># _height</text>
<polyline fill="none" stroke="black" points="112.047,-550.5 220.049,-550.5 "/>
<text text-anchor="start" x="120.047" y="-538.5" font-family="Helvetica,sans-Serif" font-size="10.00">+ Term()</text>
<text text-anchor="start" x="120.047" y="-528.5" font-family="Helvetica,sans-Serif" font-size="10.00">+ ~Term()</text>
<text text-anchor="start" x="120.047" y="-518.5" font-family="Helvetica,sans-Serif" font-size="10.00">+ setName()</text>
<text text-anchor="start" x="120.047" y="-508.5" font-family="Helvetica,sans-Serif" font-size="10.00">+ getName()</text>
<text text-anchor="start" x="120.047" y="-498.5" font-family="Helvetica,sans-Serif" font-size="10.00">+ setHeight()</text>
<text text-anchor="start" x="120.047" y="-488.5" font-family="Helvetica,sans-Serif" font-size="10.00">+ getHeight()</text>
<text text-anchor="start" x="120.047" y="-478.5" font-family="Helvetica,sans-Serif" font-size="10.00">+ toString()</text>
<text text-anchor="start" x="120.047" y="-468.5" font-family="Helvetica,sans-Serif" font-size="10.00">+ className()</text>
<text text-anchor="start" x="120.047" y="-458.5" font-family="Helvetica,sans-Serif" font-size="10.00">+ parameters()</text>
<text text-anchor="start" x="120.047" y="-448.5" font-family="Helvetica,sans-Serif" font-size="10.00">+ configure()</text>
<text text-anchor="start" x="120.047" y="-438.5" font-family="Helvetica,sans-Serif" font-size="10.00">+ complexity()</text>
<text text-anchor="start" x="120.047" y="-428.5" font-family="Helvetica,sans-Serif" font-size="10.00">+ membership()</text>
<text text-anchor="start" x="120.047" y="-418.5" font-family="Helvetica,sans-Serif" font-size="10.00">+ clone()</text>
<text text-anchor="start" x="120.047" y="-408.5" font-family="Helvetica,sans-Serif" font-size="10.00">+ updateReference()</text>
</a>
</g>
</g>
<!-- Node7&#45;&gt;Node6 -->
<g id="edge4" class="edge"><title>Node7&#45;&gt;Node6</title>
<path fill="none" stroke="#404040" d="M166.048,-402.388C166.048,-390.228 166.048,-378.338 166.048,-367.807"/>
<polygon fill="none" stroke="#404040" points="166.048,-367.707 162.048,-361.707 166.048,-355.707 170.048,-361.707 166.048,-367.707"/>
<text text-anchor="middle" x="190.645" y="-376" font-family="Helvetica,sans-Serif" font-size="10.00"> +elements</text>
</g>
<!-- Node8 -->
<g id="node6" class="node"><title>Node8</title>
<g id="a_node6"><a xlink:title="STL class. ">
<polygon fill="white" stroke="#bfbfbf" points="238.487,-467.5 238.487,-521.5 323.608,-521.5 323.608,-467.5 238.487,-467.5"/>
<text text-anchor="middle" x="281.048" y="-509.5" font-family="Helvetica,sans-Serif" font-size="10.00">std::vector&lt; T &gt;</text>
<polyline fill="none" stroke="#bfbfbf" points="238.487,-503.5 323.608,-503.5 "/>
<text text-anchor="middle" x="281.048" y="-491.5" font-family="Helvetica,sans-Serif" font-size="10.00"> </text>
<polyline fill="none" stroke="#bfbfbf" points="238.487,-485.5 323.608,-485.5 "/>
<text text-anchor="middle" x="281.048" y="-473.5" font-family="Helvetica,sans-Serif" font-size="10.00"> </text>
</a>
</g>
</g>
<!-- Node8&#45;&gt;Node6 -->
<g id="edge5" class="edge"><title>Node8&#45;&gt;Node6</title>
<path fill="none" stroke="orange" d="M266.877,-457.581C256.01,-432.636 239.432,-399.442 219.048,-374 213.864,-367.53 207.625,-361.315 201.275,-355.688"/>
<polygon fill="orange" stroke="orange" points="263.765,-459.207 270.898,-467.041 270.207,-456.469 263.765,-459.207"/>
<text text-anchor="middle" x="253.39" y="-376" font-family="Helvetica,sans-Serif" font-size="10.00"> &lt; fl::Term *&gt;</text>
</g>
<!-- Node9 -->
<g id="node7" class="node"><title>Node9</title>
<polygon fill="white" stroke="#bfbfbf" points="266.548,-633.5 266.548,-687.5 295.548,-687.5 295.548,-633.5 266.548,-633.5"/>
<text text-anchor="middle" x="280.602" y="-675.5" font-family="Helvetica,sans-Serif" font-size="10.00">T</text>
<polyline fill="none" stroke="#bfbfbf" points="266.548,-669.5 294.656,-669.5 "/>
<text text-anchor="middle" x="280.602" y="-657.5" font-family="Helvetica,sans-Serif" font-size="10.00"> </text>
<polyline fill="none" stroke="#bfbfbf" points="266.548,-651.5 294.656,-651.5 "/>
<text text-anchor="middle" x="280.602" y="-639.5" font-family="Helvetica,sans-Serif" font-size="10.00"> </text>
</g>
<!-- Node9&#45;&gt;Node8 -->
<g id="edge6" class="edge"><title>Node9&#45;&gt;Node8</title>
<path fill="none" stroke="#404040" d="M281.048,-633.151C281.048,-606.293 281.048,-564.354 281.048,-533.822"/>
<polygon fill="none" stroke="#404040" points="281.048,-533.513 277.048,-527.513 281.048,-521.513 285.048,-527.513 281.048,-533.513"/>
<text text-anchor="middle" x="305.645" y="-607" font-family="Helvetica,sans-Serif" font-size="10.00"> +elements</text>
</g>
</g>
</svg>
