<?xml version="1.0" encoding="UTF-8" standalone="no"?>
<!DOCTYPE svg PUBLIC "-//W3C//DTD SVG 1.1//EN"
 "http://www.w3.org/Graphics/SVG/1.1/DTD/svg11.dtd">
<!-- Generated by graphviz version 2.38.0 (20140413.2041)
 -->
<!-- Title: fuzzylite/fl/factory/TNormFactory.h Pages: 1 -->
<svg width="1118pt" height="477pt"
 viewBox="0.00 0.00 1118.34 477.00" xmlns="http://www.w3.org/2000/svg" xmlns:xlink="http://www.w3.org/1999/xlink">
<g id="graph0" class="graph" transform="scale(1 1) rotate(0) translate(4 473)">
<title>fuzzylite/fl/factory/TNormFactory.h</title>
<polygon fill="white" stroke="none" points="-4,4 -4,-473 1114.34,-473 1114.34,4 -4,4"/>
<!-- Node0 -->
<g id="node1" class="node"><title>Node0</title>
<polygon fill="#bfbfbf" stroke="black" points="696.382,-440.5 696.382,-468.5 789.071,-468.5 789.071,-440.5 696.382,-440.5"/>
<text text-anchor="start" x="704.382" y="-456.5" font-family="Helvetica,sans-Serif" font-size="10.00">fuzzylite/fl/factory</text>
<text text-anchor="middle" x="742.727" y="-446.5" font-family="Helvetica,sans-Serif" font-size="10.00">/TNormFactory.h</text>
</g>
<!-- Node1 -->
<g id="node2" class="node"><title>Node1</title>
<g id="a_node2"><a xlink:href="../../d7/dd8/_construction_factory_8h.html" target="_top" xlink:title="fl/factory/ConstructionFactory.h">
<polygon fill="white" stroke="black" points="415.903,-385.5 415.903,-403.5 569.55,-403.5 569.55,-385.5 415.903,-385.5"/>
<text text-anchor="middle" x="492.727" y="-391.5" font-family="Helvetica,sans-Serif" font-size="10.00">fl/factory/ConstructionFactory.h</text>
</a>
</g>
</g>
<!-- Node0&#45;&gt;Node1 -->
<g id="edge1" class="edge"><title>Node0&#45;&gt;Node1</title>
<path fill="none" stroke="midnightblue" d="M696.289,-442.727C650.831,-432.18 582.062,-416.226 537.266,-405.833"/>
<polygon fill="midnightblue" stroke="midnightblue" points="537.79,-402.362 527.257,-403.511 536.208,-409.181 537.79,-402.362"/>
</g>
<!-- Node20 -->
<g id="node21" class="node"><title>Node20</title>
<g id="a_node21"><a xlink:href="../../d0/d24/_t_norm_8h.html" target="_top" xlink:title="fl/norm/TNorm.h">
<polygon fill="white" stroke="black" points="907.611,-220.5 907.611,-238.5 995.842,-238.5 995.842,-220.5 907.611,-220.5"/>
<text text-anchor="middle" x="951.727" y="-226.5" font-family="Helvetica,sans-Serif" font-size="10.00">fl/norm/TNorm.h</text>
</a>
</g>
</g>
<!-- Node0&#45;&gt;Node20 -->
<g id="edge54" class="edge"><title>Node0&#45;&gt;Node20</title>
<path fill="none" stroke="midnightblue" d="M755.175,-440.218C791.589,-401.364 897.805,-288.034 936.986,-246.228"/>
<polygon fill="midnightblue" stroke="midnightblue" points="939.603,-248.554 943.887,-238.864 934.495,-243.767 939.603,-248.554"/>
</g>
<!-- Node2 -->
<g id="node3" class="node"><title>Node2</title>
<g id="a_node3"><a xlink:href="../../de/d53/fuzzylite_8h.html" target="_top" xlink:title="fl/fuzzylite.h">
<polygon fill="white" stroke="black" points="709.606,-55.5 709.606,-73.5 777.847,-73.5 777.847,-55.5 709.606,-55.5"/>
<text text-anchor="middle" x="743.727" y="-61.5" font-family="Helvetica,sans-Serif" font-size="10.00">fl/fuzzylite.h</text>
</a>
</g>
</g>
<!-- Node1&#45;&gt;Node2 -->
<g id="edge2" class="edge"><title>Node1&#45;&gt;Node2</title>
<path fill="none" stroke="midnightblue" d="M569.866,-390.473C665.669,-383.777 831.499,-362.355 954.727,-294 988.117,-275.478 1004.53,-273.579 1020.73,-239 1068.29,-137.441 877.327,-89.2856 787.776,-72.6064"/>
<polygon fill="midnightblue" stroke="midnightblue" points="788.357,-69.1548 777.893,-70.8169 787.109,-76.0427 788.357,-69.1548"/>
</g>
<!-- Node10 -->
<g id="node11" class="node"><title>Node10</title>
<polygon fill="white" stroke="#bfbfbf" points="0,-330.5 0,-348.5 35.4531,-348.5 35.4531,-330.5 0,-330.5"/>
<text text-anchor="middle" x="17.7266" y="-336.5" font-family="Helvetica,sans-Serif" font-size="10.00">map</text>
</g>
<!-- Node1&#45;&gt;Node10 -->
<g id="edge10" class="edge"><title>Node1&#45;&gt;Node10</title>
<path fill="none" stroke="midnightblue" d="M415.775,-389.503C327.002,-384.03 176.92,-372.129 49.7266,-349 48.2773,-348.736 46.7976,-348.441 45.308,-348.121"/>
<polygon fill="midnightblue" stroke="midnightblue" points="46.0944,-344.711 35.553,-345.774 44.4565,-351.516 46.0944,-344.711"/>
</g>
<!-- Node11 -->
<g id="node12" class="node"><title>Node11</title>
<polygon fill="white" stroke="#bfbfbf" points="375.5,-110.5 375.5,-128.5 415.953,-128.5 415.953,-110.5 375.5,-110.5"/>
<text text-anchor="middle" x="395.727" y="-116.5" font-family="Helvetica,sans-Serif" font-size="10.00">string</text>
</g>
<!-- Node1&#45;&gt;Node11 -->
<g id="edge11" class="edge"><title>Node1&#45;&gt;Node11</title>
<path fill="none" stroke="midnightblue" d="M475.15,-385.442C460.142,-377.828 438.81,-365.173 424.727,-349 389.214,-308.219 392.316,-289.403 372.727,-239 360.502,-207.546 343.647,-196.509 355.727,-165 360.123,-153.533 368.989,-143.167 377.259,-135.331"/>
<polygon fill="midnightblue" stroke="midnightblue" points="379.659,-137.881 384.84,-128.639 375.027,-132.633 379.659,-137.881"/>
</g>
<!-- Node12 -->
<g id="node13" class="node"><title>Node12</title>
<polygon fill="white" stroke="#bfbfbf" points="132.111,-55.5 132.111,-73.5 175.342,-73.5 175.342,-55.5 132.111,-55.5"/>
<text text-anchor="middle" x="153.727" y="-61.5" font-family="Helvetica,sans-Serif" font-size="10.00">vector</text>
</g>
<!-- Node1&#45;&gt;Node12 -->
<g id="edge12" class="edge"><title>Node1&#45;&gt;Node12</title>
<path fill="none" stroke="midnightblue" d="M415.534,-389.81C292.023,-381.772 63.7266,-357.215 63.7266,-285.5 63.7266,-285.5 63.7266,-285.5 63.7266,-173.5 63.7266,-131.398 104.591,-96.9982 131.248,-79.0369"/>
<polygon fill="midnightblue" stroke="midnightblue" points="133.172,-81.961 139.664,-73.5885 129.368,-76.0848 133.172,-81.961"/>
</g>
<!-- Node13 -->
<g id="node14" class="node"><title>Node13</title>
<g id="a_node14"><a xlink:href="../../df/d98/_exception_8h.html" target="_top" xlink:title="fl/Exception.h">
<polygon fill="white" stroke="black" points="129.709,-165.5 129.709,-183.5 205.744,-183.5 205.744,-165.5 129.709,-165.5"/>
<text text-anchor="middle" x="167.727" y="-171.5" font-family="Helvetica,sans-Serif" font-size="10.00">fl/Exception.h</text>
</a>
</g>
</g>
<!-- Node1&#45;&gt;Node13 -->
<g id="edge13" class="edge"><title>Node1&#45;&gt;Node13</title>
<path fill="none" stroke="midnightblue" d="M415.567,-393.086C333.931,-390.874 212.69,-381.932 181.727,-349 141.567,-306.287 154.235,-228.671 162.726,-193.583"/>
<polygon fill="midnightblue" stroke="midnightblue" points="166.145,-194.341 165.264,-183.783 159.369,-192.586 166.145,-194.341"/>
</g>
<!-- Node15 -->
<g id="node16" class="node"><title>Node15</title>
<g id="a_node16"><a xlink:href="../../d7/d8a/_defuzzifier_8h.html" target="_top" xlink:title="fl/defuzzifier/Defuzzifier.h">
<polygon fill="white" stroke="black" points="376.146,-165.5 376.146,-183.5 503.308,-183.5 503.308,-165.5 376.146,-165.5"/>
<text text-anchor="middle" x="439.727" y="-171.5" font-family="Helvetica,sans-Serif" font-size="10.00">fl/defuzzifier/Defuzzifier.h</text>
</a>
</g>
</g>
<!-- Node1&#45;&gt;Node15 -->
<g id="edge18" class="edge"><title>Node1&#45;&gt;Node15</title>
<path fill="none" stroke="midnightblue" d="M481.715,-385.492C462.029,-370.336 421.739,-335.253 409.727,-294 400.531,-262.423 400.115,-251.453 409.727,-220 412.926,-209.53 419.509,-199.297 425.695,-191.288"/>
<polygon fill="midnightblue" stroke="midnightblue" points="428.403,-193.505 432.072,-183.565 423.006,-189.047 428.403,-193.505"/>
</g>
<!-- Node17 -->
<g id="node18" class="node"><title>Node17</title>
<g id="a_node18"><a xlink:href="../../d2/dd9/_hedge_8h.html" target="_top" xlink:title="fl/hedge/Hedge.h">
<polygon fill="white" stroke="black" points="659.641,-165.5 659.641,-183.5 751.812,-183.5 751.812,-165.5 659.641,-165.5"/>
<text text-anchor="middle" x="705.727" y="-171.5" font-family="Helvetica,sans-Serif" font-size="10.00">fl/hedge/Hedge.h</text>
</a>
</g>
</g>
<!-- Node1&#45;&gt;Node17 -->
<g id="edge24" class="edge"><title>Node1&#45;&gt;Node17</title>
<path fill="none" stroke="midnightblue" d="M546.738,-385.457C666.836,-366.347 949.777,-314.129 1004.73,-239 1009.71,-232.184 1010.24,-226.396 1004.73,-220 974.02,-184.385 839.787,-176.826 762.015,-175.496"/>
<polygon fill="midnightblue" stroke="midnightblue" points="761.944,-171.995 751.895,-175.353 761.844,-178.994 761.944,-171.995"/>
</g>
<!-- Node18 -->
<g id="node19" class="node"><title>Node18</title>
<g id="a_node19"><a xlink:href="../../de/d44/_s_norm_8h.html" target="_top" xlink:title="fl/norm/SNorm.h">
<polygon fill="white" stroke="black" points="763.33,-220.5 763.33,-238.5 852.123,-238.5 852.123,-220.5 763.33,-220.5"/>
<text text-anchor="middle" x="807.727" y="-226.5" font-family="Helvetica,sans-Serif" font-size="10.00">fl/norm/SNorm.h</text>
</a>
</g>
</g>
<!-- Node1&#45;&gt;Node18 -->
<g id="edge28" class="edge"><title>Node1&#45;&gt;Node18</title>
<path fill="none" stroke="midnightblue" d="M508.347,-385.417C559.253,-359.075 720.653,-275.557 782.904,-243.345"/>
<polygon fill="midnightblue" stroke="midnightblue" points="784.739,-246.336 792.011,-238.632 781.521,-240.119 784.739,-246.336"/>
</g>
<!-- Node1&#45;&gt;Node20 -->
<g id="edge33" class="edge"><title>Node1&#45;&gt;Node20</title>
<path fill="none" stroke="midnightblue" d="M515.488,-385.417C590.745,-358.692 831.725,-273.115 919.422,-241.972"/>
<polygon fill="midnightblue" stroke="midnightblue" points="920.846,-245.18 929.099,-238.536 918.504,-238.584 920.846,-245.18"/>
</g>
<!-- Node21 -->
<g id="node22" class="node"><title>Node21</title>
<g id="a_node22"><a xlink:href="../../d8/d11/_term_8h.html" target="_top" xlink:title="fl/term/Term.h">
<polygon fill="white" stroke="black" points="454.167,-330.5 454.167,-348.5 531.286,-348.5 531.286,-330.5 454.167,-330.5"/>
<text text-anchor="middle" x="492.727" y="-336.5" font-family="Helvetica,sans-Serif" font-size="10.00">fl/term/Term.h</text>
</a>
</g>
</g>
<!-- Node1&#45;&gt;Node21 -->
<g id="edge35" class="edge"><title>Node1&#45;&gt;Node21</title>
<path fill="none" stroke="midnightblue" d="M492.727,-385.219C492.727,-378.177 492.727,-367.808 492.727,-358.828"/>
<polygon fill="midnightblue" stroke="midnightblue" points="496.227,-358.55 492.727,-348.55 489.227,-358.55 496.227,-358.55"/>
</g>
<!-- Node3 -->
<g id="node4" class="node"><title>Node3</title>
<polygon fill="white" stroke="#bfbfbf" points="970.163,-0.5 970.163,-18.5 1027.29,-18.5 1027.29,-0.5 970.163,-0.5"/>
<text text-anchor="middle" x="998.727" y="-6.5" font-family="Helvetica,sans-Serif" font-size="10.00">algorithm</text>
</g>
<!-- Node2&#45;&gt;Node3 -->
<g id="edge3" class="edge"><title>Node2&#45;&gt;Node3</title>
<path fill="none" stroke="midnightblue" d="M777.852,-56.4072C825.112,-46.5846 910.259,-28.8874 959.895,-18.571"/>
<polygon fill="midnightblue" stroke="midnightblue" points="960.842,-21.9489 969.921,-16.4871 959.418,-15.0953 960.842,-21.9489"/>
</g>
<!-- Node4 -->
<g id="node5" class="node"><title>Node4</title>
<polygon fill="white" stroke="#bfbfbf" points="1067.11,-0.5 1067.11,-18.5 1110.34,-18.5 1110.34,-0.5 1067.11,-0.5"/>
<text text-anchor="middle" x="1088.73" y="-6.5" font-family="Helvetica,sans-Serif" font-size="10.00">cmath</text>
</g>
<!-- Node2&#45;&gt;Node4 -->
<g id="edge4" class="edge"><title>Node2&#45;&gt;Node4</title>
<path fill="none" stroke="midnightblue" d="M778.028,-58.4188C832.76,-50.2823 943.211,-33.744 1036.73,-19 1043.25,-17.9716 1050.23,-16.8473 1056.89,-15.763"/>
<polygon fill="midnightblue" stroke="midnightblue" points="1057.67,-19.1809 1066.98,-14.1114 1056.54,-12.2728 1057.67,-19.1809"/>
</g>
<!-- Node5 -->
<g id="node6" class="node"><title>Node5</title>
<polygon fill="white" stroke="#bfbfbf" points="785.554,-0.5 785.554,-18.5 839.899,-18.5 839.899,-0.5 785.554,-0.5"/>
<text text-anchor="middle" x="812.727" y="-6.5" font-family="Helvetica,sans-Serif" font-size="10.00">iostream</text>
</g>
<!-- Node2&#45;&gt;Node5 -->
<g id="edge5" class="edge"><title>Node2&#45;&gt;Node5</title>
<path fill="none" stroke="midnightblue" d="M754.206,-55.4504C764.743,-47.3566 781.215,-34.7042 794.003,-24.8822"/>
<polygon fill="midnightblue" stroke="midnightblue" points="796.35,-27.4926 802.148,-18.6253 792.086,-21.9412 796.35,-27.4926"/>
</g>
<!-- Node6 -->
<g id="node7" class="node"><title>Node6</title>
<polygon fill="white" stroke="#bfbfbf" points="857.946,-0.5 857.946,-18.5 909.507,-18.5 909.507,-0.5 857.946,-0.5"/>
<text text-anchor="middle" x="883.727" y="-6.5" font-family="Helvetica,sans-Serif" font-size="10.00">sstream</text>
</g>
<!-- Node2&#45;&gt;Node6 -->
<g id="edge6" class="edge"><title>Node2&#45;&gt;Node6</title>
<path fill="none" stroke="midnightblue" d="M764.99,-55.4504C788.322,-46.6173 825.997,-32.3546 852.644,-22.267"/>
<polygon fill="midnightblue" stroke="midnightblue" points="854.15,-25.4392 862.263,-18.6253 851.672,-18.8926 854.15,-25.4392"/>
</g>
<!-- Node7 -->
<g id="node8" class="node"><title>Node7</title>
<polygon fill="white" stroke="#bfbfbf" points="593.34,-0.5 593.34,-18.5 632.113,-18.5 632.113,-0.5 593.34,-0.5"/>
<text text-anchor="middle" x="612.727" y="-6.5" font-family="Helvetica,sans-Serif" font-size="10.00">limits</text>
</g>
<!-- Node2&#45;&gt;Node7 -->
<g id="edge7" class="edge"><title>Node2&#45;&gt;Node7</title>
<path fill="none" stroke="midnightblue" d="M723.83,-55.4504C701.967,-46.6051 666.647,-32.3151 641.708,-22.2252"/>
<polygon fill="midnightblue" stroke="midnightblue" points="642.963,-18.9577 632.381,-18.4517 640.338,-25.4467 642.963,-18.9577"/>
</g>
<!-- Node8 -->
<g id="node9" class="node"><title>Node8</title>
<polygon fill="white" stroke="#bfbfbf" points="649.67,-0.5 649.67,-18.5 701.783,-18.5 701.783,-0.5 649.67,-0.5"/>
<text text-anchor="middle" x="675.727" y="-6.5" font-family="Helvetica,sans-Serif" font-size="10.00">memory</text>
</g>
<!-- Node2&#45;&gt;Node8 -->
<g id="edge8" class="edge"><title>Node2&#45;&gt;Node8</title>
<path fill="none" stroke="midnightblue" d="M733.399,-55.4504C723.014,-47.3566 706.781,-34.7042 694.179,-24.8822"/>
<polygon fill="midnightblue" stroke="midnightblue" points="696.19,-22.0122 686.151,-18.6253 691.887,-27.5333 696.19,-22.0122"/>
</g>
<!-- Node9 -->
<g id="node10" class="node"><title>Node9</title>
<polygon fill="white" stroke="#bfbfbf" points="719.606,-0.5 719.606,-18.5 767.847,-18.5 767.847,-0.5 719.606,-0.5"/>
<text text-anchor="middle" x="743.727" y="-6.5" font-family="Helvetica,sans-Serif" font-size="10.00">cstddef</text>
</g>
<!-- Node2&#45;&gt;Node9 -->
<g id="edge9" class="edge"><title>Node2&#45;&gt;Node9</title>
<path fill="none" stroke="midnightblue" d="M743.727,-55.2188C743.727,-48.1769 743.727,-37.8083 743.727,-28.8277"/>
<polygon fill="midnightblue" stroke="midnightblue" points="747.227,-28.5495 743.727,-18.5496 740.227,-28.5496 747.227,-28.5495"/>
</g>
<!-- Node13&#45;&gt;Node2 -->
<g id="edge14" class="edge"><title>Node13&#45;&gt;Node2</title>
<path fill="none" stroke="midnightblue" d="M188.285,-165.492C224.005,-151.909 300.092,-124.425 366.727,-110 485.281,-84.3356 628.234,-72.5724 699.223,-67.9876"/>
<polygon fill="midnightblue" stroke="midnightblue" points="699.812,-71.4576 709.573,-67.3374 699.374,-64.4713 699.812,-71.4576"/>
</g>
<!-- Node13&#45;&gt;Node11 -->
<g id="edge16" class="edge"><title>Node13&#45;&gt;Node11</title>
<path fill="none" stroke="midnightblue" d="M203.888,-165.426C242.889,-156.667 306.785,-142.168 361.727,-129 362.958,-128.705 364.214,-128.402 365.482,-128.093"/>
<polygon fill="midnightblue" stroke="midnightblue" points="366.373,-131.479 375.246,-125.689 364.699,-124.682 366.373,-131.479"/>
</g>
<!-- Node13&#45;&gt;Node12 -->
<g id="edge17" class="edge"><title>Node13&#45;&gt;Node12</title>
<path fill="none" stroke="midnightblue" d="M166.674,-165.382C164.445,-148.182 159.197,-107.698 156.11,-83.8866"/>
<polygon fill="midnightblue" stroke="midnightblue" points="159.548,-83.1788 154.791,-73.7118 152.606,-84.0787 159.548,-83.1788"/>
</g>
<!-- Node14 -->
<g id="node15" class="node"><title>Node14</title>
<polygon fill="white" stroke="#bfbfbf" points="181.323,-110.5 181.323,-128.5 240.13,-128.5 240.13,-110.5 181.323,-110.5"/>
<text text-anchor="middle" x="210.727" y="-116.5" font-family="Helvetica,sans-Serif" font-size="10.00">exception</text>
</g>
<!-- Node13&#45;&gt;Node14 -->
<g id="edge15" class="edge"><title>Node13&#45;&gt;Node14</title>
<path fill="none" stroke="midnightblue" d="M174.445,-165.219C180.666,-157.551 190.088,-145.939 197.77,-136.469"/>
<polygon fill="midnightblue" stroke="midnightblue" points="200.613,-138.52 204.196,-128.55 195.177,-134.11 200.613,-138.52"/>
</g>
<!-- Node15&#45;&gt;Node2 -->
<g id="edge19" class="edge"><title>Node15&#45;&gt;Node2</title>
<path fill="none" stroke="midnightblue" d="M448.424,-165.471C463.671,-151.854 496.752,-124.321 529.727,-110 585.312,-85.8586 654.825,-74.5198 699.258,-69.4051"/>
<polygon fill="midnightblue" stroke="midnightblue" points="699.88,-72.858 709.44,-68.2917 699.119,-65.8995 699.88,-72.858"/>
</g>
<!-- Node15&#45;&gt;Node11 -->
<g id="edge23" class="edge"><title>Node15&#45;&gt;Node11</title>
<path fill="none" stroke="midnightblue" d="M432.852,-165.219C426.486,-157.551 416.845,-145.939 408.984,-136.469"/>
<polygon fill="midnightblue" stroke="midnightblue" points="411.49,-134.008 402.409,-128.55 406.104,-138.479 411.49,-134.008"/>
</g>
<!-- Node16 -->
<g id="node17" class="node"><title>Node16</title>
<g id="a_node17"><a xlink:href="../../d5/de4/_complexity_8h.html" target="_top" xlink:title="fl/Complexity.h">
<polygon fill="white" stroke="black" points="538.307,-110.5 538.307,-128.5 619.146,-128.5 619.146,-110.5 538.307,-110.5"/>
<text text-anchor="middle" x="578.727" y="-116.5" font-family="Helvetica,sans-Serif" font-size="10.00">fl/Complexity.h</text>
</a>
</g>
</g>
<!-- Node15&#45;&gt;Node16 -->
<g id="edge20" class="edge"><title>Node15&#45;&gt;Node16</title>
<path fill="none" stroke="midnightblue" d="M460.838,-165.45C484.004,-156.617 521.41,-142.355 547.866,-132.267"/>
<polygon fill="midnightblue" stroke="midnightblue" points="549.32,-135.458 557.417,-128.625 546.826,-128.918 549.32,-135.458"/>
</g>
<!-- Node16&#45;&gt;Node2 -->
<g id="edge21" class="edge"><title>Node16&#45;&gt;Node2</title>
<path fill="none" stroke="midnightblue" d="M603.787,-110.45C631.852,-101.436 677.523,-86.7653 709.015,-76.6496"/>
<polygon fill="midnightblue" stroke="midnightblue" points="710.251,-79.9289 718.702,-73.5383 708.11,-73.2643 710.251,-79.9289"/>
</g>
<!-- Node16&#45;&gt;Node12 -->
<g id="edge22" class="edge"><title>Node16&#45;&gt;Node12</title>
<path fill="none" stroke="midnightblue" d="M537.976,-113.418C453.644,-102.901 261.52,-78.9425 185.521,-69.465"/>
<polygon fill="midnightblue" stroke="midnightblue" points="185.948,-65.9911 175.591,-68.2267 185.081,-72.9373 185.948,-65.9911"/>
</g>
<!-- Node17&#45;&gt;Node2 -->
<g id="edge25" class="edge"><title>Node17&#45;&gt;Node2</title>
<path fill="none" stroke="midnightblue" d="M708.583,-165.382C714.69,-148.026 729.139,-106.96 737.484,-83.2413"/>
<polygon fill="midnightblue" stroke="midnightblue" points="740.82,-84.3066 740.837,-73.7118 734.217,-81.9832 740.82,-84.3066"/>
</g>
<!-- Node17&#45;&gt;Node11 -->
<g id="edge27" class="edge"><title>Node17&#45;&gt;Node11</title>
<path fill="none" stroke="midnightblue" d="M659.316,-165.565C595.027,-154.574 480.65,-135.019 426.186,-125.708"/>
<polygon fill="midnightblue" stroke="midnightblue" points="426.571,-122.223 416.125,-123.987 425.392,-129.123 426.571,-122.223"/>
</g>
<!-- Node17&#45;&gt;Node16 -->
<g id="edge26" class="edge"><title>Node17&#45;&gt;Node16</title>
<path fill="none" stroke="midnightblue" d="M686.438,-165.45C665.458,-156.695 631.696,-142.606 607.564,-132.535"/>
<polygon fill="midnightblue" stroke="midnightblue" points="608.773,-129.247 598.197,-128.625 606.077,-135.707 608.773,-129.247"/>
</g>
<!-- Node19 -->
<g id="node20" class="node"><title>Node19</title>
<g id="a_node20"><a xlink:href="../../d7/d72/_norm_8h.html" target="_top" xlink:title="fl/norm/Norm.h">
<polygon fill="white" stroke="black" points="559.665,-165.5 559.665,-183.5 641.788,-183.5 641.788,-165.5 559.665,-165.5"/>
<text text-anchor="middle" x="600.727" y="-171.5" font-family="Helvetica,sans-Serif" font-size="10.00">fl/norm/Norm.h</text>
</a>
</g>
</g>
<!-- Node18&#45;&gt;Node19 -->
<g id="edge29" class="edge"><title>Node18&#45;&gt;Node19</title>
<path fill="none" stroke="midnightblue" d="M776.288,-220.45C740.393,-211.26 681.541,-196.192 641.985,-186.064"/>
<polygon fill="midnightblue" stroke="midnightblue" points="642.677,-182.628 632.121,-183.538 640.941,-189.409 642.677,-182.628"/>
</g>
<!-- Node19&#45;&gt;Node2 -->
<g id="edge30" class="edge"><title>Node19&#45;&gt;Node2</title>
<path fill="none" stroke="midnightblue" d="M611.475,-165.382C635.595,-147.166 694.296,-102.832 724.728,-79.8483"/>
<polygon fill="midnightblue" stroke="midnightblue" points="726.983,-82.5315 732.854,-73.7118 722.764,-76.9456 726.983,-82.5315"/>
</g>
<!-- Node19&#45;&gt;Node11 -->
<g id="edge32" class="edge"><title>Node19&#45;&gt;Node11</title>
<path fill="none" stroke="midnightblue" d="M569.591,-165.45C530.789,-155.418 464.897,-138.383 426.339,-128.415"/>
<polygon fill="midnightblue" stroke="midnightblue" points="426.792,-124.916 416.234,-125.802 425.04,-131.694 426.792,-124.916"/>
</g>
<!-- Node19&#45;&gt;Node16 -->
<g id="edge31" class="edge"><title>Node19&#45;&gt;Node16</title>
<path fill="none" stroke="midnightblue" d="M597.289,-165.219C594.269,-157.942 589.774,-147.113 585.964,-137.934"/>
<polygon fill="midnightblue" stroke="midnightblue" points="589.134,-136.444 582.068,-128.55 582.669,-139.127 589.134,-136.444"/>
</g>
<!-- Node20&#45;&gt;Node19 -->
<g id="edge34" class="edge"><title>Node20&#45;&gt;Node19</title>
<path fill="none" stroke="midnightblue" d="M907.562,-222.275C850.802,-214.208 748.944,-199.504 651.896,-184.158"/>
<polygon fill="midnightblue" stroke="midnightblue" points="652.341,-180.685 641.916,-182.575 651.244,-187.598 652.341,-180.685"/>
</g>
<!-- Node21&#45;&gt;Node2 -->
<g id="edge36" class="edge"><title>Node21&#45;&gt;Node2</title>
<path fill="none" stroke="midnightblue" d="M531.296,-337.088C639.915,-332.225 944.391,-312.19 1004.73,-239 1040.5,-195.606 848.315,-109.162 772.996,-77.489"/>
<polygon fill="midnightblue" stroke="midnightblue" points="774.166,-74.1845 763.589,-73.5628 771.47,-80.6445 774.166,-74.1845"/>
</g>
<!-- Node21&#45;&gt;Node4 -->
<g id="edge51" class="edge"><title>Node21&#45;&gt;Node4</title>
<path fill="none" stroke="midnightblue" d="M531.544,-337.976C608.912,-336.19 787.396,-328.346 932.727,-294 1010,-275.737 1099.73,-309.907 1099.73,-230.5 1099.73,-230.5 1099.73,-230.5 1099.73,-118.5 1099.73,-86.7082 1094.95,-49.9219 1091.69,-28.5263"/>
<polygon fill="midnightblue" stroke="midnightblue" points="1095.14,-27.9291 1090.12,-18.6002 1088.23,-29.0248 1095.14,-27.9291"/>
</g>
<!-- Node21&#45;&gt;Node11 -->
<g id="edge52" class="edge"><title>Node21&#45;&gt;Node11</title>
<path fill="none" stroke="midnightblue" d="M480.554,-330.25C451.644,-309.728 379.844,-253.019 360.727,-184 358.472,-175.862 357.964,-172.98 360.727,-165 364.497,-154.108 372.157,-143.857 379.352,-135.946"/>
<polygon fill="midnightblue" stroke="midnightblue" points="382.022,-138.221 386.5,-128.619 377.011,-133.333 382.022,-138.221"/>
</g>
<!-- Node21&#45;&gt;Node12 -->
<g id="edge53" class="edge"><title>Node21&#45;&gt;Node12</title>
<path fill="none" stroke="midnightblue" d="M454.145,-335.864C375.363,-328.156 197.017,-298.294 120.727,-184 99.2798,-151.87 124.618,-105.98 141.333,-81.8188"/>
<polygon fill="midnightblue" stroke="midnightblue" points="144.182,-83.852 147.201,-73.6964 138.508,-79.7525 144.182,-83.852"/>
</g>
<!-- Node21&#45;&gt;Node16 -->
<g id="edge50" class="edge"><title>Node21&#45;&gt;Node16</title>
<path fill="none" stroke="midnightblue" d="M484.149,-330.341C464.39,-310.534 419.115,-258.693 442.727,-220 460.95,-190.137 484.265,-204.343 512.727,-184 532.438,-169.911 552.067,-150.098 564.728,-136.365"/>
<polygon fill="midnightblue" stroke="midnightblue" points="567.541,-138.472 571.649,-128.706 562.348,-133.779 567.541,-138.472"/>
</g>
<!-- Node22 -->
<g id="node23" class="node"><title>Node22</title>
<g id="a_node23"><a xlink:href="../../d6/dd6/_operation_8h.html" target="_top" xlink:title="fl/Operation.h">
<polygon fill="white" stroke="black" points="523.709,-275.5 523.709,-293.5 599.744,-293.5 599.744,-275.5 523.709,-275.5"/>
<text text-anchor="middle" x="561.727" y="-281.5" font-family="Helvetica,sans-Serif" font-size="10.00">fl/Operation.h</text>
</a>
</g>
</g>
<!-- Node21&#45;&gt;Node22 -->
<g id="edge37" class="edge"><title>Node21&#45;&gt;Node22</title>
<path fill="none" stroke="midnightblue" d="M503.206,-330.45C513.743,-322.357 530.215,-309.704 543.003,-299.882"/>
<polygon fill="midnightblue" stroke="midnightblue" points="545.35,-302.493 551.148,-293.625 541.086,-296.941 545.35,-302.493"/>
</g>
<!-- Node22&#45;&gt;Node2 -->
<g id="edge38" class="edge"><title>Node22&#45;&gt;Node2</title>
<path fill="none" stroke="midnightblue" d="M599.825,-279.17C632.994,-273.936 681.198,-262.676 716.727,-239 742.776,-221.64 750.365,-213.539 760.727,-184 772.837,-149.475 760.253,-106.398 751.211,-82.8561"/>
<polygon fill="midnightblue" stroke="midnightblue" points="754.42,-81.4564 747.407,-73.515 747.937,-84.0966 754.42,-81.4564"/>
</g>
<!-- Node22&#45;&gt;Node3 -->
<g id="edge46" class="edge"><title>Node22&#45;&gt;Node3</title>
<path fill="none" stroke="midnightblue" d="M599.755,-281.828C670.422,-278.083 818.631,-267.04 860.727,-239 939.495,-186.531 980.412,-72.3593 993.741,-28.3218"/>
<polygon fill="midnightblue" stroke="midnightblue" points="997.165,-29.0827 996.602,-18.5028 990.444,-27.1248 997.165,-29.0827"/>
</g>
<!-- Node22&#45;&gt;Node11 -->
<g id="edge40" class="edge"><title>Node22&#45;&gt;Node11</title>
<path fill="none" stroke="midnightblue" d="M523.369,-277.457C475.625,-267.554 396.718,-242.726 366.727,-184 358.587,-168.063 369.485,-149.385 380.167,-136.43"/>
<polygon fill="midnightblue" stroke="midnightblue" points="382.904,-138.62 386.953,-128.83 377.682,-133.958 382.904,-138.62"/>
</g>
<!-- Node22&#45;&gt;Node12 -->
<g id="edge41" class="edge"><title>Node22&#45;&gt;Node12</title>
<path fill="none" stroke="midnightblue" d="M523.49,-278.577C488.163,-272.853 435.058,-261.205 393.727,-239 317.742,-198.177 320.755,-157.456 248.727,-110 228.652,-96.7742 204.024,-85.3569 184.874,-77.3991"/>
<polygon fill="midnightblue" stroke="midnightblue" points="185.995,-74.0768 175.412,-73.5618 183.364,-80.5636 185.995,-74.0768"/>
</g>
<!-- Node22&#45;&gt;Node13 -->
<g id="edge39" class="edge"><title>Node22&#45;&gt;Node13</title>
<path fill="none" stroke="midnightblue" d="M523.448,-280.656C471.001,-275.964 374.349,-264.457 295.727,-239 256.384,-226.261 214.003,-203.187 189.223,-188.639"/>
<polygon fill="midnightblue" stroke="midnightblue" points="191.013,-185.631 180.631,-183.52 187.431,-191.645 191.013,-185.631"/>
</g>
<!-- Node22&#45;&gt;Node15 -->
<g id="edge42" class="edge"><title>Node22&#45;&gt;Node15</title>
<path fill="none" stroke="midnightblue" d="M555.274,-275.105C545.257,-262.371 525,-237.774 504.727,-220 491.569,-208.465 475.328,-197.344 462.371,-189.105"/>
<polygon fill="midnightblue" stroke="midnightblue" points="463.948,-185.964 453.608,-183.651 460.248,-191.907 463.948,-185.964"/>
</g>
<!-- Node22&#45;&gt;Node18 -->
<g id="edge44" class="edge"><title>Node22&#45;&gt;Node18</title>
<path fill="none" stroke="midnightblue" d="M599.089,-275.45C642.29,-266.143 713.473,-250.807 760.48,-240.679"/>
<polygon fill="midnightblue" stroke="midnightblue" points="761.378,-244.066 770.417,-238.538 759.904,-237.223 761.378,-244.066"/>
</g>
<!-- Node22&#45;&gt;Node19 -->
<g id="edge43" class="edge"><title>Node22&#45;&gt;Node19</title>
<path fill="none" stroke="midnightblue" d="M563.844,-275.165C567.04,-262.918 573.497,-239.41 580.727,-220 584.136,-210.847 588.532,-200.911 592.334,-192.754"/>
<polygon fill="midnightblue" stroke="midnightblue" points="595.569,-194.1 596.713,-183.567 589.25,-191.088 595.569,-194.1"/>
</g>
<!-- Node22&#45;&gt;Node20 -->
<g id="edge45" class="edge"><title>Node22&#45;&gt;Node20</title>
<path fill="none" stroke="midnightblue" d="M599.838,-278.546C661.588,-270.485 787.328,-253.926 893.727,-239 894.835,-238.844 895.956,-238.687 897.085,-238.527"/>
<polygon fill="midnightblue" stroke="midnightblue" points="897.997,-241.932 907.401,-237.053 897.007,-235.003 897.997,-241.932"/>
</g>
<!-- Node23 -->
<g id="node24" class="node"><title>Node23</title>
<polygon fill="white" stroke="#bfbfbf" points="590.217,-220.5 590.217,-238.5 641.236,-238.5 641.236,-220.5 590.217,-220.5"/>
<text text-anchor="middle" x="615.727" y="-226.5" font-family="Helvetica,sans-Serif" font-size="10.00">iomanip</text>
</g>
<!-- Node22&#45;&gt;Node23 -->
<g id="edge47" class="edge"><title>Node22&#45;&gt;Node23</title>
<path fill="none" stroke="midnightblue" d="M570.164,-275.219C578.216,-267.316 590.536,-255.224 600.336,-245.606"/>
<polygon fill="midnightblue" stroke="midnightblue" points="602.84,-248.052 607.525,-238.55 597.937,-243.056 602.84,-248.052"/>
</g>
<!-- Node24 -->
<g id="node25" class="node"><title>Node24</title>
<polygon fill="white" stroke="#bfbfbf" points="659.33,-220.5 659.33,-238.5 708.123,-238.5 708.123,-220.5 659.33,-220.5"/>
<text text-anchor="middle" x="683.727" y="-226.5" font-family="Helvetica,sans-Serif" font-size="10.00">cstdarg</text>
</g>
<!-- Node22&#45;&gt;Node24 -->
<g id="edge48" class="edge"><title>Node22&#45;&gt;Node24</title>
<path fill="none" stroke="midnightblue" d="M580.256,-275.45C600.32,-266.734 632.554,-252.731 655.715,-242.669"/>
<polygon fill="midnightblue" stroke="midnightblue" points="657.246,-245.82 665.023,-238.625 654.457,-239.4 657.246,-245.82"/>
</g>
<!-- Node25 -->
<g id="node26" class="node"><title>Node25</title>
<polygon fill="white" stroke="#bfbfbf" points="451.276,-220.5 451.276,-238.5 496.177,-238.5 496.177,-220.5 451.276,-220.5"/>
<text text-anchor="middle" x="473.727" y="-226.5" font-family="Helvetica,sans-Serif" font-size="10.00">cctype</text>
</g>
<!-- Node22&#45;&gt;Node25 -->
<g id="edge49" class="edge"><title>Node22&#45;&gt;Node25</title>
<path fill="none" stroke="midnightblue" d="M548.361,-275.45C534.535,-267.123 512.696,-253.97 496.207,-244.039"/>
<polygon fill="midnightblue" stroke="midnightblue" points="497.59,-240.786 487.218,-238.625 493.978,-246.783 497.59,-240.786"/>
</g>
</g>
</svg>
