<?xml version="1.0" encoding="UTF-8" standalone="no"?>
<!DOCTYPE svg PUBLIC "-//W3C//DTD SVG 1.1//EN"
 "http://www.w3.org/Graphics/SVG/1.1/DTD/svg11.dtd">
<!-- Generated by graphviz version 2.38.0 (20140413.2041)
 -->
<!-- Title: fuzzylite/fl/term/Activated.h Pages: 1 -->
<svg width="191pt" height="202pt"
 viewBox="0.00 0.00 191.28 202.00" xmlns="http://www.w3.org/2000/svg" xmlns:xlink="http://www.w3.org/1999/xlink">
<g id="graph0" class="graph" transform="scale(1 1) rotate(0) translate(4 198)">
<title>fuzzylite/fl/term/Activated.h</title>
<polygon fill="white" stroke="none" points="-4,4 -4,-198 187.281,-198 187.281,4 -4,4"/>
<!-- Node23 -->
<g id="node1" class="node"><title>Node23</title>
<polygon fill="#bfbfbf" stroke="black" points="21.9659,-175.5 21.9659,-193.5 156.897,-193.5 156.897,-175.5 21.9659,-175.5"/>
<text text-anchor="middle" x="89.4312" y="-181.5" font-family="Helvetica,sans-Serif" font-size="10.00">fuzzylite/fl/term/Activated.h</text>
</g>
<!-- Node24 -->
<g id="node2" class="node"><title>Node24</title>
<g id="a_node2"><a xlink:href="../../db/d5f/_headers_8h.html" target="_top" xlink:title="fuzzylite/fl/Headers.h">
<polygon fill="white" stroke="black" points="3.0225,-0.5 3.0225,-18.5 111.84,-18.5 111.84,-0.5 3.0225,-0.5"/>
<text text-anchor="middle" x="57.4312" y="-6.5" font-family="Helvetica,sans-Serif" font-size="10.00">fuzzylite/fl/Headers.h</text>
</a>
</g>
</g>
<!-- Node23&#45;&gt;Node24 -->
<g id="edge1" class="edge"><title>Node23&#45;&gt;Node24</title>
<path fill="none" stroke="midnightblue" d="M48.7908,-171.554C33.0056,-164.707 16.5542,-154.331 7.43119,-139 -17.6643,-96.8285 29.4948,-39.7966 49.2807,-18.7466"/>
<polygon fill="midnightblue" stroke="midnightblue" points="47.8752,-174.955 58.4618,-175.374 50.4468,-168.445 47.8752,-174.955"/>
</g>
<!-- Node25 -->
<g id="node3" class="node"><title>Node25</title>
<g id="a_node3"><a xlink:href="../../d1/d59/_aggregated_8h.html" target="_top" xlink:title="fuzzylite/fl/term/Aggregated.h">
<polygon fill="white" stroke="black" points="16.6778,-120.5 16.6778,-138.5 162.185,-138.5 162.185,-120.5 16.6778,-120.5"/>
<text text-anchor="middle" x="89.4312" y="-126.5" font-family="Helvetica,sans-Serif" font-size="10.00">fuzzylite/fl/term/Aggregated.h</text>
</a>
</g>
</g>
<!-- Node23&#45;&gt;Node25 -->
<g id="edge2" class="edge"><title>Node23&#45;&gt;Node25</title>
<path fill="none" stroke="midnightblue" d="M89.4312,-165.175C89.4312,-156.094 89.4312,-145.595 89.4312,-138.55"/>
<polygon fill="midnightblue" stroke="midnightblue" points="85.9313,-165.219 89.4312,-175.219 92.9313,-165.219 85.9313,-165.219"/>
</g>
<!-- Node26 -->
<g id="node4" class="node"><title>Node26</title>
<g id="a_node4"><a xlink:href="../../dd/d9b/_output_variable_8h.html" target="_top" xlink:title="fuzzylite/fl/variable\l/OutputVariable.h">
<polygon fill="white" stroke="black" points="85.5816,-55.5 85.5816,-83.5 183.281,-83.5 183.281,-55.5 85.5816,-55.5"/>
<text text-anchor="start" x="93.5816" y="-71.5" font-family="Helvetica,sans-Serif" font-size="10.00">fuzzylite/fl/variable</text>
<text text-anchor="middle" x="134.431" y="-61.5" font-family="Helvetica,sans-Serif" font-size="10.00">/OutputVariable.h</text>
</a>
</g>
</g>
<!-- Node23&#45;&gt;Node26 -->
<g id="edge6" class="edge"><title>Node23&#45;&gt;Node26</title>
<path fill="none" stroke="midnightblue" d="M130.072,-171.554C145.857,-164.707 162.308,-154.331 171.431,-139 182.698,-120.067 164.617,-97.4734 149.993,-83.5563"/>
<polygon fill="midnightblue" stroke="midnightblue" points="128.416,-168.445 120.401,-175.374 130.987,-174.955 128.416,-168.445"/>
</g>
<!-- Node25&#45;&gt;Node24 -->
<g id="edge3" class="edge"><title>Node25&#45;&gt;Node24</title>
<path fill="none" stroke="midnightblue" d="M84.0373,-110.511C81.6481,-102.424 78.8394,-92.7494 76.4312,-84 69.9256,-60.3644 62.8435,-32.2741 59.4568,-18.6795"/>
<polygon fill="midnightblue" stroke="midnightblue" points="80.7497,-111.735 86.9583,-120.32 87.4585,-109.737 80.7497,-111.735"/>
</g>
<!-- Node25&#45;&gt;Node26 -->
<g id="edge4" class="edge"><title>Node25&#45;&gt;Node26</title>
<path fill="none" stroke="midnightblue" d="M101.989,-112.315C108.951,-103.341 117.504,-92.3179 124.079,-83.8428"/>
<polygon fill="midnightblue" stroke="midnightblue" points="99.0529,-110.389 95.6882,-120.435 104.584,-114.68 99.0529,-110.389"/>
</g>
<!-- Node26&#45;&gt;Node24 -->
<g id="edge5" class="edge"><title>Node26&#45;&gt;Node24</title>
<path fill="none" stroke="midnightblue" d="M108.807,-49.1983C95.0846,-38.8623 78.8965,-26.6687 68.4123,-18.7715"/>
<polygon fill="midnightblue" stroke="midnightblue" points="106.865,-52.1179 116.959,-55.3389 111.077,-46.5266 106.865,-52.1179"/>
</g>
</g>
</svg>
