<?xml version="1.0" encoding="UTF-8" standalone="no"?>
<!DOCTYPE svg PUBLIC "-//W3C//DTD SVG 1.1//EN"
 "http://www.w3.org/Graphics/SVG/1.1/DTD/svg11.dtd">
<!-- Generated by graphviz version 2.38.0 (20140413.2041)
 -->
<!-- Title: fl::Activation Pages: 1 -->
<svg width="925pt" height="424pt"
 viewBox="0.00 0.00 925.00 424.00" xmlns="http://www.w3.org/2000/svg" xmlns:xlink="http://www.w3.org/1999/xlink">
<g id="graph0" class="graph" transform="scale(1 1) rotate(0) translate(4 420)">
<title>fl::Activation</title>
<polygon fill="white" stroke="none" points="-4,4 -4,-420 920.997,-420 920.997,4 -4,4"/>
<!-- Node0 -->
<g id="node1" class="node"><title>Node0</title>
<polygon fill="#bfbfbf" stroke="black" points="386.507,-291.5 386.507,-415.5 468.362,-415.5 468.362,-291.5 386.507,-291.5"/>
<text text-anchor="middle" x="427.435" y="-403.5" font-family="Helvetica,sans-Serif" font-size="10.00">fl::Activation</text>
<polyline fill="none" stroke="black" points="386.507,-397.5 468.362,-397.5 "/>
<text text-anchor="middle" x="427.435" y="-385.5" font-family="Helvetica,sans-Serif" font-size="10.00"> </text>
<polyline fill="none" stroke="black" points="386.507,-379.5 468.362,-379.5 "/>
<text text-anchor="start" x="394.507" y="-367.5" font-family="Helvetica,sans-Serif" font-size="10.00">+ Activation()</text>
<text text-anchor="start" x="394.507" y="-357.5" font-family="Helvetica,sans-Serif" font-size="10.00">+ ~Activation()</text>
<text text-anchor="start" x="394.507" y="-347.5" font-family="Helvetica,sans-Serif" font-size="10.00">+ className()</text>
<text text-anchor="start" x="394.507" y="-337.5" font-family="Helvetica,sans-Serif" font-size="10.00">+ parameters()</text>
<text text-anchor="start" x="394.507" y="-327.5" font-family="Helvetica,sans-Serif" font-size="10.00">+ configure()</text>
<text text-anchor="start" x="394.507" y="-317.5" font-family="Helvetica,sans-Serif" font-size="10.00">+ complexity()</text>
<text text-anchor="start" x="394.507" y="-307.5" font-family="Helvetica,sans-Serif" font-size="10.00">+ activate()</text>
<text text-anchor="start" x="394.507" y="-297.5" font-family="Helvetica,sans-Serif" font-size="10.00">+ clone()</text>
</g>
<!-- Node1 -->
<g id="node2" class="node"><title>Node1</title>
<g id="a_node2"><a xlink:href="../../d6/d0b/classfl_1_1_first.html" target="_top" xlink:title="The First class is a RuleBlock Activation method that activates the first &#160;rules whose activation deg...">
<polygon fill="white" stroke="black" points="0,-40.5 0,-214.5 116.869,-214.5 116.869,-40.5 0,-40.5"/>
<text text-anchor="middle" x="58.4346" y="-202.5" font-family="Helvetica,sans-Serif" font-size="10.00">fl::First</text>
<polyline fill="none" stroke="black" points="0,-196.5 116.869,-196.5 "/>
<text text-anchor="middle" x="58.4346" y="-184.5" font-family="Helvetica,sans-Serif" font-size="10.00"> </text>
<polyline fill="none" stroke="black" points="0,-178.5 116.869,-178.5 "/>
<text text-anchor="start" x="8" y="-166.5" font-family="Helvetica,sans-Serif" font-size="10.00">+ First()</text>
<text text-anchor="start" x="8" y="-156.5" font-family="Helvetica,sans-Serif" font-size="10.00">+ ~First()</text>
<text text-anchor="start" x="8" y="-146.5" font-family="Helvetica,sans-Serif" font-size="10.00">+ className()</text>
<text text-anchor="start" x="8" y="-136.5" font-family="Helvetica,sans-Serif" font-size="10.00">+ parameters()</text>
<text text-anchor="start" x="8" y="-126.5" font-family="Helvetica,sans-Serif" font-size="10.00">+ configure()</text>
<text text-anchor="start" x="8" y="-116.5" font-family="Helvetica,sans-Serif" font-size="10.00">+ setNumberOfRules()</text>
<text text-anchor="start" x="8" y="-106.5" font-family="Helvetica,sans-Serif" font-size="10.00">+ getNumberOfRules()</text>
<text text-anchor="start" x="8" y="-96.5" font-family="Helvetica,sans-Serif" font-size="10.00">+ setThreshold()</text>
<text text-anchor="start" x="8" y="-86.5" font-family="Helvetica,sans-Serif" font-size="10.00">+ getThreshold()</text>
<text text-anchor="start" x="8" y="-76.5" font-family="Helvetica,sans-Serif" font-size="10.00">+ complexity()</text>
<text text-anchor="start" x="8" y="-66.5" font-family="Helvetica,sans-Serif" font-size="10.00">+ activate()</text>
<text text-anchor="start" x="8" y="-56.5" font-family="Helvetica,sans-Serif" font-size="10.00">+ clone()</text>
<text text-anchor="start" x="8" y="-46.5" font-family="Helvetica,sans-Serif" font-size="10.00">+ constructor()</text>
</a>
</g>
</g>
<!-- Node0&#45;&gt;Node1 -->
<g id="edge1" class="edge"><title>Node0&#45;&gt;Node1</title>
<path fill="none" stroke="midnightblue" d="M376.34,-347.785C311.313,-339.373 198.656,-316.424 125.435,-255 112.297,-243.979 101.374,-229.71 92.4264,-214.743"/>
<polygon fill="none" stroke="midnightblue" points="376.003,-351.27 386.355,-349.014 376.855,-344.322 376.003,-351.27"/>
</g>
<!-- Node2 -->
<g id="node3" class="node"><title>Node2</title>
<g id="a_node3"><a xlink:href="../../d8/de2/classfl_1_1_general.html" target="_top" xlink:title="The General class is a RuleBlock Activation method that activates every rule following the order in w...">
<polygon fill="white" stroke="black" points="134.507,-60.5 134.507,-194.5 216.362,-194.5 216.362,-60.5 134.507,-60.5"/>
<text text-anchor="middle" x="175.435" y="-182.5" font-family="Helvetica,sans-Serif" font-size="10.00">fl::General</text>
<polyline fill="none" stroke="black" points="134.507,-176.5 216.362,-176.5 "/>
<text text-anchor="middle" x="175.435" y="-164.5" font-family="Helvetica,sans-Serif" font-size="10.00"> </text>
<polyline fill="none" stroke="black" points="134.507,-158.5 216.362,-158.5 "/>
<text text-anchor="start" x="142.507" y="-146.5" font-family="Helvetica,sans-Serif" font-size="10.00">+ General()</text>
<text text-anchor="start" x="142.507" y="-136.5" font-family="Helvetica,sans-Serif" font-size="10.00">+ ~General()</text>
<text text-anchor="start" x="142.507" y="-126.5" font-family="Helvetica,sans-Serif" font-size="10.00">+ className()</text>
<text text-anchor="start" x="142.507" y="-116.5" font-family="Helvetica,sans-Serif" font-size="10.00">+ parameters()</text>
<text text-anchor="start" x="142.507" y="-106.5" font-family="Helvetica,sans-Serif" font-size="10.00">+ configure()</text>
<text text-anchor="start" x="142.507" y="-96.5" font-family="Helvetica,sans-Serif" font-size="10.00">+ complexity()</text>
<text text-anchor="start" x="142.507" y="-86.5" font-family="Helvetica,sans-Serif" font-size="10.00">+ activate()</text>
<text text-anchor="start" x="142.507" y="-76.5" font-family="Helvetica,sans-Serif" font-size="10.00">+ clone()</text>
<text text-anchor="start" x="142.507" y="-66.5" font-family="Helvetica,sans-Serif" font-size="10.00">+ constructor()</text>
</a>
</g>
</g>
<!-- Node0&#45;&gt;Node2 -->
<g id="edge2" class="edge"><title>Node0&#45;&gt;Node2</title>
<path fill="none" stroke="midnightblue" d="M376.8,-339.499C331.614,-325.512 266.43,-299.115 225.435,-255 209.761,-238.134 198.774,-215.765 191.176,-194.533"/>
<polygon fill="none" stroke="midnightblue" points="375.822,-342.859 386.406,-342.379 377.832,-336.154 375.822,-342.859"/>
</g>
<!-- Node3 -->
<g id="node4" class="node"><title>Node3</title>
<g id="a_node4"><a xlink:href="../../d0/d5f/classfl_1_1_highest.html" target="_top" xlink:title="The Highest class is a RuleBlock Activation method that activates a given number of rules with highes...">
<polygon fill="white" stroke="black" points="234,-50.5 234,-204.5 350.869,-204.5 350.869,-50.5 234,-50.5"/>
<text text-anchor="middle" x="292.435" y="-192.5" font-family="Helvetica,sans-Serif" font-size="10.00">fl::Highest</text>
<polyline fill="none" stroke="black" points="234,-186.5 350.869,-186.5 "/>
<text text-anchor="middle" x="292.435" y="-174.5" font-family="Helvetica,sans-Serif" font-size="10.00"> </text>
<polyline fill="none" stroke="black" points="234,-168.5 350.869,-168.5 "/>
<text text-anchor="start" x="242" y="-156.5" font-family="Helvetica,sans-Serif" font-size="10.00">+ Highest()</text>
<text text-anchor="start" x="242" y="-146.5" font-family="Helvetica,sans-Serif" font-size="10.00">+ ~Highest()</text>
<text text-anchor="start" x="242" y="-136.5" font-family="Helvetica,sans-Serif" font-size="10.00">+ className()</text>
<text text-anchor="start" x="242" y="-126.5" font-family="Helvetica,sans-Serif" font-size="10.00">+ parameters()</text>
<text text-anchor="start" x="242" y="-116.5" font-family="Helvetica,sans-Serif" font-size="10.00">+ configure()</text>
<text text-anchor="start" x="242" y="-106.5" font-family="Helvetica,sans-Serif" font-size="10.00">+ setNumberOfRules()</text>
<text text-anchor="start" x="242" y="-96.5" font-family="Helvetica,sans-Serif" font-size="10.00">+ getNumberOfRules()</text>
<text text-anchor="start" x="242" y="-86.5" font-family="Helvetica,sans-Serif" font-size="10.00">+ complexity()</text>
<text text-anchor="start" x="242" y="-76.5" font-family="Helvetica,sans-Serif" font-size="10.00">+ activate()</text>
<text text-anchor="start" x="242" y="-66.5" font-family="Helvetica,sans-Serif" font-size="10.00">+ clone()</text>
<text text-anchor="start" x="242" y="-56.5" font-family="Helvetica,sans-Serif" font-size="10.00">+ constructor()</text>
</a>
</g>
</g>
<!-- Node0&#45;&gt;Node3 -->
<g id="edge3" class="edge"><title>Node0&#45;&gt;Node3</title>
<path fill="none" stroke="midnightblue" d="M380.743,-286.624C373.746,-276.167 366.763,-265.377 360.435,-255 350.633,-238.928 340.698,-221.333 331.561,-204.512"/>
<polygon fill="none" stroke="midnightblue" points="377.85,-288.593 386.345,-294.924 383.652,-284.677 377.85,-288.593"/>
</g>
<!-- Node4 -->
<g id="node5" class="node"><title>Node4</title>
<g id="a_node5"><a xlink:href="../../d6/d19/classfl_1_1_last.html" target="_top" xlink:title="The Last class is a RuleBlock Activation method that activates the last &#160;rules whose activation degre...">
<polygon fill="white" stroke="black" points="369,-40.5 369,-214.5 485.869,-214.5 485.869,-40.5 369,-40.5"/>
<text text-anchor="middle" x="427.435" y="-202.5" font-family="Helvetica,sans-Serif" font-size="10.00">fl::Last</text>
<polyline fill="none" stroke="black" points="369,-196.5 485.869,-196.5 "/>
<text text-anchor="middle" x="427.435" y="-184.5" font-family="Helvetica,sans-Serif" font-size="10.00"> </text>
<polyline fill="none" stroke="black" points="369,-178.5 485.869,-178.5 "/>
<text text-anchor="start" x="377" y="-166.5" font-family="Helvetica,sans-Serif" font-size="10.00">+ Last()</text>
<text text-anchor="start" x="377" y="-156.5" font-family="Helvetica,sans-Serif" font-size="10.00">+ ~Last()</text>
<text text-anchor="start" x="377" y="-146.5" font-family="Helvetica,sans-Serif" font-size="10.00">+ className()</text>
<text text-anchor="start" x="377" y="-136.5" font-family="Helvetica,sans-Serif" font-size="10.00">+ parameters()</text>
<text text-anchor="start" x="377" y="-126.5" font-family="Helvetica,sans-Serif" font-size="10.00">+ configure()</text>
<text text-anchor="start" x="377" y="-116.5" font-family="Helvetica,sans-Serif" font-size="10.00">+ setNumberOfRules()</text>
<text text-anchor="start" x="377" y="-106.5" font-family="Helvetica,sans-Serif" font-size="10.00">+ getNumberOfRules()</text>
<text text-anchor="start" x="377" y="-96.5" font-family="Helvetica,sans-Serif" font-size="10.00">+ setThreshold()</text>
<text text-anchor="start" x="377" y="-86.5" font-family="Helvetica,sans-Serif" font-size="10.00">+ getThreshold()</text>
<text text-anchor="start" x="377" y="-76.5" font-family="Helvetica,sans-Serif" font-size="10.00">+ complexity()</text>
<text text-anchor="start" x="377" y="-66.5" font-family="Helvetica,sans-Serif" font-size="10.00">+ activate()</text>
<text text-anchor="start" x="377" y="-56.5" font-family="Helvetica,sans-Serif" font-size="10.00">+ clone()</text>
<text text-anchor="start" x="377" y="-46.5" font-family="Helvetica,sans-Serif" font-size="10.00">+ constructor()</text>
</a>
</g>
</g>
<!-- Node0&#45;&gt;Node4 -->
<g id="edge4" class="edge"><title>Node0&#45;&gt;Node4</title>
<path fill="none" stroke="midnightblue" d="M427.435,-281.135C427.435,-260.051 427.435,-236.744 427.435,-214.824"/>
<polygon fill="none" stroke="midnightblue" points="423.935,-281.291 427.435,-291.291 430.935,-281.291 423.935,-281.291"/>
</g>
<!-- Node5 -->
<g id="node6" class="node"><title>Node5</title>
<g id="a_node6"><a xlink:href="../../d2/db4/classfl_1_1_lowest.html" target="_top" xlink:title="The Lowest class is a RuleBlock Activation method that activates a given number of rules with lowest ...">
<polygon fill="white" stroke="black" points="504,-50.5 504,-204.5 620.869,-204.5 620.869,-50.5 504,-50.5"/>
<text text-anchor="middle" x="562.435" y="-192.5" font-family="Helvetica,sans-Serif" font-size="10.00">fl::Lowest</text>
<polyline fill="none" stroke="black" points="504,-186.5 620.869,-186.5 "/>
<text text-anchor="middle" x="562.435" y="-174.5" font-family="Helvetica,sans-Serif" font-size="10.00"> </text>
<polyline fill="none" stroke="black" points="504,-168.5 620.869,-168.5 "/>
<text text-anchor="start" x="512" y="-156.5" font-family="Helvetica,sans-Serif" font-size="10.00">+ Lowest()</text>
<text text-anchor="start" x="512" y="-146.5" font-family="Helvetica,sans-Serif" font-size="10.00">+ ~Lowest()</text>
<text text-anchor="start" x="512" y="-136.5" font-family="Helvetica,sans-Serif" font-size="10.00">+ className()</text>
<text text-anchor="start" x="512" y="-126.5" font-family="Helvetica,sans-Serif" font-size="10.00">+ parameters()</text>
<text text-anchor="start" x="512" y="-116.5" font-family="Helvetica,sans-Serif" font-size="10.00">+ configure()</text>
<text text-anchor="start" x="512" y="-106.5" font-family="Helvetica,sans-Serif" font-size="10.00">+ setNumberOfRules()</text>
<text text-anchor="start" x="512" y="-96.5" font-family="Helvetica,sans-Serif" font-size="10.00">+ getNumberOfRules()</text>
<text text-anchor="start" x="512" y="-86.5" font-family="Helvetica,sans-Serif" font-size="10.00">+ complexity()</text>
<text text-anchor="start" x="512" y="-76.5" font-family="Helvetica,sans-Serif" font-size="10.00">+ activate()</text>
<text text-anchor="start" x="512" y="-66.5" font-family="Helvetica,sans-Serif" font-size="10.00">+ clone()</text>
<text text-anchor="start" x="512" y="-56.5" font-family="Helvetica,sans-Serif" font-size="10.00">+ constructor()</text>
</a>
</g>
</g>
<!-- Node0&#45;&gt;Node5 -->
<g id="edge5" class="edge"><title>Node0&#45;&gt;Node5</title>
<path fill="none" stroke="midnightblue" d="M474.126,-286.624C481.123,-276.167 488.106,-265.377 494.435,-255 504.236,-238.928 514.171,-221.333 523.308,-204.512"/>
<polygon fill="none" stroke="midnightblue" points="471.217,-284.677 468.524,-294.924 477.019,-288.593 471.217,-284.677"/>
</g>
<!-- Node6 -->
<g id="node7" class="node"><title>Node6</title>
<g id="a_node7"><a xlink:href="../../df/d40/classfl_1_1_proportional.html" target="_top" xlink:title="The Proportional class is a RuleBlock Activation method that activates the rules utilizing activation...">
<polygon fill="white" stroke="black" points="638.915,-60.5 638.915,-194.5 729.954,-194.5 729.954,-60.5 638.915,-60.5"/>
<text text-anchor="middle" x="684.435" y="-182.5" font-family="Helvetica,sans-Serif" font-size="10.00">fl::Proportional</text>
<polyline fill="none" stroke="black" points="638.915,-176.5 729.954,-176.5 "/>
<text text-anchor="middle" x="684.435" y="-164.5" font-family="Helvetica,sans-Serif" font-size="10.00"> </text>
<polyline fill="none" stroke="black" points="638.915,-158.5 729.954,-158.5 "/>
<text text-anchor="start" x="646.915" y="-146.5" font-family="Helvetica,sans-Serif" font-size="10.00">+ Proportional()</text>
<text text-anchor="start" x="646.915" y="-136.5" font-family="Helvetica,sans-Serif" font-size="10.00">+ ~Proportional()</text>
<text text-anchor="start" x="646.915" y="-126.5" font-family="Helvetica,sans-Serif" font-size="10.00">+ className()</text>
<text text-anchor="start" x="646.915" y="-116.5" font-family="Helvetica,sans-Serif" font-size="10.00">+ parameters()</text>
<text text-anchor="start" x="646.915" y="-106.5" font-family="Helvetica,sans-Serif" font-size="10.00">+ configure()</text>
<text text-anchor="start" x="646.915" y="-96.5" font-family="Helvetica,sans-Serif" font-size="10.00">+ complexity()</text>
<text text-anchor="start" x="646.915" y="-86.5" font-family="Helvetica,sans-Serif" font-size="10.00">+ activate()</text>
<text text-anchor="start" x="646.915" y="-76.5" font-family="Helvetica,sans-Serif" font-size="10.00">+ clone()</text>
<text text-anchor="start" x="646.915" y="-66.5" font-family="Helvetica,sans-Serif" font-size="10.00">+ constructor()</text>
</a>
</g>
</g>
<!-- Node0&#45;&gt;Node6 -->
<g id="edge6" class="edge"><title>Node0&#45;&gt;Node6</title>
<path fill="none" stroke="midnightblue" d="M478.412,-338.952C523.334,-324.689 587.914,-298.197 629.435,-255 645.615,-238.166 657.449,-215.806 665.899,-194.57"/>
<polygon fill="none" stroke="midnightblue" points="477.103,-335.693 468.575,-341.981 479.163,-342.383 477.103,-335.693"/>
</g>
<!-- Node7 -->
<g id="node8" class="node"><title>Node7</title>
<g id="a_node8"><a xlink:href="../../df/d4e/classfl_1_1_threshold.html" target="_top" xlink:title="The Threshold class is a RuleBlock Activation method that activates the rules whose activation degree...">
<polygon fill="white" stroke="black" points="747.872,-0.5 747.872,-254.5 916.997,-254.5 916.997,-0.5 747.872,-0.5"/>
<text text-anchor="middle" x="832.435" y="-242.5" font-family="Helvetica,sans-Serif" font-size="10.00">fl::Threshold</text>
<polyline fill="none" stroke="black" points="747.872,-236.5 916.997,-236.5 "/>
<text text-anchor="middle" x="832.435" y="-224.5" font-family="Helvetica,sans-Serif" font-size="10.00"> </text>
<polyline fill="none" stroke="black" points="747.872,-218.5 916.997,-218.5 "/>
<text text-anchor="start" x="755.872" y="-206.5" font-family="Helvetica,sans-Serif" font-size="10.00">+ Threshold()</text>
<text text-anchor="start" x="755.872" y="-196.5" font-family="Helvetica,sans-Serif" font-size="10.00">+ Threshold()</text>
<text text-anchor="start" x="755.872" y="-186.5" font-family="Helvetica,sans-Serif" font-size="10.00">+ ~Threshold()</text>
<text text-anchor="start" x="755.872" y="-176.5" font-family="Helvetica,sans-Serif" font-size="10.00">+ className()</text>
<text text-anchor="start" x="755.872" y="-166.5" font-family="Helvetica,sans-Serif" font-size="10.00">+ parameters()</text>
<text text-anchor="start" x="755.872" y="-156.5" font-family="Helvetica,sans-Serif" font-size="10.00">+ configure()</text>
<text text-anchor="start" x="755.872" y="-146.5" font-family="Helvetica,sans-Serif" font-size="10.00">+ setComparison()</text>
<text text-anchor="start" x="755.872" y="-136.5" font-family="Helvetica,sans-Serif" font-size="10.00">+ getComparison()</text>
<text text-anchor="start" x="755.872" y="-126.5" font-family="Helvetica,sans-Serif" font-size="10.00">+ comparisonOperator()</text>
<text text-anchor="start" x="755.872" y="-116.5" font-family="Helvetica,sans-Serif" font-size="10.00">+ comparisonOperator()</text>
<text text-anchor="start" x="755.872" y="-106.5" font-family="Helvetica,sans-Serif" font-size="10.00">+ availableComparisonOperators()</text>
<text text-anchor="start" x="755.872" y="-96.5" font-family="Helvetica,sans-Serif" font-size="10.00">+ parseComparison()</text>
<text text-anchor="start" x="755.872" y="-86.5" font-family="Helvetica,sans-Serif" font-size="10.00">+ setValue()</text>
<text text-anchor="start" x="755.872" y="-76.5" font-family="Helvetica,sans-Serif" font-size="10.00">+ getValue()</text>
<text text-anchor="start" x="755.872" y="-66.5" font-family="Helvetica,sans-Serif" font-size="10.00">+ setThreshold()</text>
<text text-anchor="start" x="755.872" y="-56.5" font-family="Helvetica,sans-Serif" font-size="10.00">+ setThreshold()</text>
<text text-anchor="start" x="755.872" y="-46.5" font-family="Helvetica,sans-Serif" font-size="10.00">+ activatesWith()</text>
<text text-anchor="start" x="755.872" y="-36.5" font-family="Helvetica,sans-Serif" font-size="10.00">+ complexity()</text>
<text text-anchor="start" x="755.872" y="-26.5" font-family="Helvetica,sans-Serif" font-size="10.00">+ activate()</text>
<text text-anchor="start" x="755.872" y="-16.5" font-family="Helvetica,sans-Serif" font-size="10.00">+ clone()</text>
<text text-anchor="start" x="755.872" y="-6.5" font-family="Helvetica,sans-Serif" font-size="10.00">+ constructor()</text>
</a>
</g>
</g>
<!-- Node0&#45;&gt;Node7 -->
<g id="edge7" class="edge"><title>Node0&#45;&gt;Node7</title>
<path fill="none" stroke="midnightblue" d="M478.554,-346.505C544.197,-336.709 659.196,-312.267 739.435,-255 742.208,-253.021 744.932,-250.933 747.606,-248.752"/>
<polygon fill="none" stroke="midnightblue" points="477.856,-343.069 468.455,-347.954 478.851,-349.998 477.856,-343.069"/>
</g>
</g>
</svg>
