<?xml version="1.0" encoding="UTF-8" standalone="no"?>
<!DOCTYPE svg PUBLIC "-//W3C//DTD SVG 1.1//EN"
 "http://www.w3.org/Graphics/SVG/1.1/DTD/svg11.dtd">
<!-- Generated by graphviz version 2.38.0 (20140413.2041)
 -->
<!-- Title: fl::InputVariable Pages: 1 -->
<svg width="338pt" height="838pt"
 viewBox="0.00 0.00 338.24 838.00" xmlns="http://www.w3.org/2000/svg" xmlns:xlink="http://www.w3.org/1999/xlink">
<g id="graph0" class="graph" transform="scale(1 1) rotate(0) translate(4 834)">
<title>fl::InputVariable</title>
<polygon fill="white" stroke="none" points="-4,4 -4,-834 334.242,-834 334.242,4 -4,4"/>
<!-- Node2 -->
<g id="node1" class="node"><title>Node2</title>
<polygon fill="#bfbfbf" stroke="black" points="62.1987,-0.5 62.1987,-104.5 163.897,-104.5 163.897,-0.5 62.1987,-0.5"/>
<text text-anchor="middle" x="113.048" y="-92.5" font-family="Helvetica,sans-Serif" font-size="10.00">fl::InputVariable</text>
<polyline fill="none" stroke="black" points="62.1987,-86.5 163.897,-86.5 "/>
<text text-anchor="middle" x="113.048" y="-74.5" font-family="Helvetica,sans-Serif" font-size="10.00"> </text>
<polyline fill="none" stroke="black" points="62.1987,-68.5 163.897,-68.5 "/>
<text text-anchor="start" x="70.1987" y="-56.5" font-family="Helvetica,sans-Serif" font-size="10.00">+ InputVariable()</text>
<text text-anchor="start" x="70.1987" y="-46.5" font-family="Helvetica,sans-Serif" font-size="10.00">+ ~InputVariable()</text>
<text text-anchor="start" x="70.1987" y="-36.5" font-family="Helvetica,sans-Serif" font-size="10.00">+ fuzzyInputValue()</text>
<text text-anchor="start" x="70.1987" y="-26.5" font-family="Helvetica,sans-Serif" font-size="10.00">+ type()</text>
<text text-anchor="start" x="70.1987" y="-16.5" font-family="Helvetica,sans-Serif" font-size="10.00">+ toString()</text>
<text text-anchor="start" x="70.1987" y="-6.5" font-family="Helvetica,sans-Serif" font-size="10.00">+ clone()</text>
</g>
<!-- Node3 -->
<g id="node2" class="node"><title>Node3</title>
<g id="a_node2"><a xlink:href="../../d0/d27/classfl_1_1_variable.html" target="_top" xlink:title="The Variable class is the base class for linguistic variables. ">
<polygon fill="white" stroke="black" points="57.8823,-142.5 57.8823,-386.5 168.213,-386.5 168.213,-142.5 57.8823,-142.5"/>
<text text-anchor="middle" x="113.048" y="-374.5" font-family="Helvetica,sans-Serif" font-size="10.00">fl::Variable</text>
<polyline fill="none" stroke="black" points="57.8823,-368.5 168.213,-368.5 "/>
<text text-anchor="start" x="65.8823" y="-356.5" font-family="Helvetica,sans-Serif" font-size="10.00"># _value</text>
<text text-anchor="start" x="65.8823" y="-346.5" font-family="Helvetica,sans-Serif" font-size="10.00"># _minimum</text>
<text text-anchor="start" x="65.8823" y="-336.5" font-family="Helvetica,sans-Serif" font-size="10.00"># _maximum</text>
<text text-anchor="start" x="65.8823" y="-326.5" font-family="Helvetica,sans-Serif" font-size="10.00"># _enabled</text>
<text text-anchor="start" x="65.8823" y="-316.5" font-family="Helvetica,sans-Serif" font-size="10.00"># _lockValueInRange</text>
<polyline fill="none" stroke="black" points="57.8823,-310.5 168.213,-310.5 "/>
<text text-anchor="start" x="65.8823" y="-298.5" font-family="Helvetica,sans-Serif" font-size="10.00">+ Variable()</text>
<text text-anchor="start" x="65.8823" y="-288.5" font-family="Helvetica,sans-Serif" font-size="10.00">+ Variable()</text>
<text text-anchor="start" x="65.8823" y="-278.5" font-family="Helvetica,sans-Serif" font-size="10.00">+ operator=()</text>
<text text-anchor="start" x="65.8823" y="-268.5" font-family="Helvetica,sans-Serif" font-size="10.00">+ ~Variable()</text>
<text text-anchor="start" x="65.8823" y="-258.5" font-family="Helvetica,sans-Serif" font-size="10.00">+ setName()</text>
<text text-anchor="start" x="65.8823" y="-248.5" font-family="Helvetica,sans-Serif" font-size="10.00">+ getName()</text>
<text text-anchor="start" x="65.8823" y="-238.5" font-family="Helvetica,sans-Serif" font-size="10.00">+ getDescription()</text>
<text text-anchor="start" x="65.8823" y="-228.5" font-family="Helvetica,sans-Serif" font-size="10.00">+ setDescription()</text>
<text text-anchor="start" x="65.8823" y="-218.5" font-family="Helvetica,sans-Serif" font-size="10.00">+ setValue()</text>
<text text-anchor="start" x="65.8823" y="-208.5" font-family="Helvetica,sans-Serif" font-size="10.00">+ getValue()</text>
<text text-anchor="start" x="65.8823" y="-198.5" font-family="Helvetica,sans-Serif" font-size="10.00">+ setRange()</text>
<text text-anchor="start" x="65.8823" y="-188.5" font-family="Helvetica,sans-Serif" font-size="10.00">+ range()</text>
<text text-anchor="start" x="65.8823" y="-178.5" font-family="Helvetica,sans-Serif" font-size="10.00">+ setMinimum()</text>
<text text-anchor="start" x="65.8823" y="-168.5" font-family="Helvetica,sans-Serif" font-size="10.00">+ getMinimum()</text>
<text text-anchor="start" x="65.8823" y="-158.5" font-family="Helvetica,sans-Serif" font-size="10.00">+ setMaximum()</text>
<text text-anchor="start" x="65.8823" y="-148.5" font-family="Helvetica,sans-Serif" font-size="10.00">and 22 more...</text>
</a>
</g>
</g>
<!-- Node3&#45;&gt;Node2 -->
<g id="edge1" class="edge"><title>Node3&#45;&gt;Node2</title>
<path fill="none" stroke="midnightblue" d="M113.048,-132.209C113.048,-122.664 113.048,-113.428 113.048,-104.847"/>
<polygon fill="none" stroke="midnightblue" points="109.548,-132.254 113.048,-142.255 116.548,-132.255 109.548,-132.254"/>
</g>
<!-- Node4 -->
<g id="node3" class="node"><title>Node4</title>
<g id="a_node3"><a xlink:title="STL class. ">
<polygon fill="white" stroke="#bfbfbf" points="24.373,-443.5 24.373,-497.5 83.7227,-497.5 83.7227,-443.5 24.373,-443.5"/>
<text text-anchor="middle" x="54.0479" y="-485.5" font-family="Helvetica,sans-Serif" font-size="10.00">std::string</text>
<polyline fill="none" stroke="#bfbfbf" points="24.373,-479.5 83.7227,-479.5 "/>
<text text-anchor="middle" x="54.0479" y="-467.5" font-family="Helvetica,sans-Serif" font-size="10.00"> </text>
<polyline fill="none" stroke="#bfbfbf" points="24.373,-461.5 83.7227,-461.5 "/>
<text text-anchor="middle" x="54.0479" y="-449.5" font-family="Helvetica,sans-Serif" font-size="10.00"> </text>
</a>
</g>
</g>
<!-- Node4&#45;&gt;Node3 -->
<g id="edge2" class="edge"><title>Node4&#45;&gt;Node3</title>
<path fill="none" stroke="#404040" d="M61.6403,-443.248C65.1805,-431.007 69.6851,-415.432 74.5508,-398.608"/>
<polygon fill="none" stroke="#404040" points="74.6356,-398.315 72.4601,-391.44 77.9697,-386.787 80.1452,-393.662 74.6356,-398.315"/>
<text text-anchor="middle" x="101.789" y="-417" font-family="Helvetica,sans-Serif" font-size="10.00"> #_name</text>
<text text-anchor="middle" x="101.789" y="-407" font-family="Helvetica,sans-Serif" font-size="10.00">#_description</text>
</g>
<!-- Node5 -->
<g id="node4" class="node"><title>Node5</title>
<g id="a_node4"><a xlink:title="STL class. ">
<polygon fill="white" stroke="#bfbfbf" points="0,-604.5 0,-668.5 94.0957,-668.5 94.0957,-604.5 0,-604.5"/>
<text text-anchor="start" x="8" y="-656.5" font-family="Helvetica,sans-Serif" font-size="10.00">std::basic_string&lt;</text>
<text text-anchor="middle" x="47.0479" y="-646.5" font-family="Helvetica,sans-Serif" font-size="10.00"> char &gt;</text>
<polyline fill="none" stroke="#bfbfbf" points="0,-640.5 94.0957,-640.5 "/>
<text text-anchor="middle" x="47.0479" y="-628.5" font-family="Helvetica,sans-Serif" font-size="10.00"> </text>
<polyline fill="none" stroke="#bfbfbf" points="0,-622.5 94.0957,-622.5 "/>
<text text-anchor="middle" x="47.0479" y="-610.5" font-family="Helvetica,sans-Serif" font-size="10.00"> </text>
</a>
</g>
</g>
<!-- Node5&#45;&gt;Node4 -->
<g id="edge3" class="edge"><title>Node5&#45;&gt;Node4</title>
<path fill="none" stroke="midnightblue" d="M48.8185,-594.016C50.1097,-563.765 51.8203,-523.689 52.9274,-497.75"/>
<polygon fill="none" stroke="midnightblue" points="45.3107,-594.127 48.381,-604.267 52.3043,-594.425 45.3107,-594.127"/>
</g>
<!-- Node6 -->
<g id="node5" class="node"><title>Node6</title>
<polygon fill="white" stroke="#bfbfbf" points="108.031,-443.5 108.031,-497.5 224.065,-497.5 224.065,-443.5 108.031,-443.5"/>
<text text-anchor="middle" x="166.048" y="-485.5" font-family="Helvetica,sans-Serif" font-size="10.00">std::vector&lt; fl::Term *&gt;</text>
<polyline fill="none" stroke="#bfbfbf" points="108.031,-479.5 224.065,-479.5 "/>
<text text-anchor="middle" x="166.048" y="-467.5" font-family="Helvetica,sans-Serif" font-size="10.00"> </text>
<polyline fill="none" stroke="#bfbfbf" points="108.031,-461.5 224.065,-461.5 "/>
<text text-anchor="middle" x="166.048" y="-449.5" font-family="Helvetica,sans-Serif" font-size="10.00"> </text>
</g>
<!-- Node6&#45;&gt;Node3 -->
<g id="edge4" class="edge"><title>Node6&#45;&gt;Node3</title>
<path fill="none" stroke="#404040" d="M159.228,-443.248C156.047,-431.007 152.001,-415.432 147.63,-398.608"/>
<polygon fill="none" stroke="#404040" points="147.576,-398.402 142.196,-393.6 144.559,-386.787 149.939,-391.589 147.576,-398.402"/>
<text text-anchor="middle" x="172.499" y="-412" font-family="Helvetica,sans-Serif" font-size="10.00"> #_terms</text>
</g>
<!-- Node7 -->
<g id="node6" class="node"><title>Node7</title>
<g id="a_node6"><a xlink:href="../../d4/de6/classfl_1_1_term.html" target="_top" xlink:title="The Term class is the abstract class for linguistic terms. ">
<polygon fill="white" stroke="black" points="112.047,-544.5 112.047,-728.5 220.049,-728.5 220.049,-544.5 112.047,-544.5"/>
<text text-anchor="middle" x="166.048" y="-716.5" font-family="Helvetica,sans-Serif" font-size="10.00">fl::Term</text>
<polyline fill="none" stroke="black" points="112.047,-710.5 220.049,-710.5 "/>
<text text-anchor="start" x="120.047" y="-698.5" font-family="Helvetica,sans-Serif" font-size="10.00"># _height</text>
<polyline fill="none" stroke="black" points="112.047,-692.5 220.049,-692.5 "/>
<text text-anchor="start" x="120.047" y="-680.5" font-family="Helvetica,sans-Serif" font-size="10.00">+ Term()</text>
<text text-anchor="start" x="120.047" y="-670.5" font-family="Helvetica,sans-Serif" font-size="10.00">+ ~Term()</text>
<text text-anchor="start" x="120.047" y="-660.5" font-family="Helvetica,sans-Serif" font-size="10.00">+ setName()</text>
<text text-anchor="start" x="120.047" y="-650.5" font-family="Helvetica,sans-Serif" font-size="10.00">+ getName()</text>
<text text-anchor="start" x="120.047" y="-640.5" font-family="Helvetica,sans-Serif" font-size="10.00">+ setHeight()</text>
<text text-anchor="start" x="120.047" y="-630.5" font-family="Helvetica,sans-Serif" font-size="10.00">+ getHeight()</text>
<text text-anchor="start" x="120.047" y="-620.5" font-family="Helvetica,sans-Serif" font-size="10.00">+ toString()</text>
<text text-anchor="start" x="120.047" y="-610.5" font-family="Helvetica,sans-Serif" font-size="10.00">+ className()</text>
<text text-anchor="start" x="120.047" y="-600.5" font-family="Helvetica,sans-Serif" font-size="10.00">+ parameters()</text>
<text text-anchor="start" x="120.047" y="-590.5" font-family="Helvetica,sans-Serif" font-size="10.00">+ configure()</text>
<text text-anchor="start" x="120.047" y="-580.5" font-family="Helvetica,sans-Serif" font-size="10.00">+ complexity()</text>
<text text-anchor="start" x="120.047" y="-570.5" font-family="Helvetica,sans-Serif" font-size="10.00">+ membership()</text>
<text text-anchor="start" x="120.047" y="-560.5" font-family="Helvetica,sans-Serif" font-size="10.00">+ clone()</text>
<text text-anchor="start" x="120.047" y="-550.5" font-family="Helvetica,sans-Serif" font-size="10.00">+ updateReference()</text>
</a>
</g>
</g>
<!-- Node7&#45;&gt;Node6 -->
<g id="edge5" class="edge"><title>Node7&#45;&gt;Node6</title>
<path fill="none" stroke="#404040" d="M166.048,-544.388C166.048,-532.228 166.048,-520.338 166.048,-509.807"/>
<polygon fill="none" stroke="#404040" points="166.048,-509.707 162.048,-503.707 166.048,-497.707 170.048,-503.707 166.048,-509.707"/>
<text text-anchor="middle" x="190.645" y="-518" font-family="Helvetica,sans-Serif" font-size="10.00"> +elements</text>
</g>
<!-- Node8 -->
<g id="node7" class="node"><title>Node8</title>
<g id="a_node7"><a xlink:title="STL class. ">
<polygon fill="white" stroke="#bfbfbf" points="238.487,-609.5 238.487,-663.5 323.608,-663.5 323.608,-609.5 238.487,-609.5"/>
<text text-anchor="middle" x="281.048" y="-651.5" font-family="Helvetica,sans-Serif" font-size="10.00">std::vector&lt; T &gt;</text>
<polyline fill="none" stroke="#bfbfbf" points="238.487,-645.5 323.608,-645.5 "/>
<text text-anchor="middle" x="281.048" y="-633.5" font-family="Helvetica,sans-Serif" font-size="10.00"> </text>
<polyline fill="none" stroke="#bfbfbf" points="238.487,-627.5 323.608,-627.5 "/>
<text text-anchor="middle" x="281.048" y="-615.5" font-family="Helvetica,sans-Serif" font-size="10.00"> </text>
</a>
</g>
</g>
<!-- Node8&#45;&gt;Node6 -->
<g id="edge6" class="edge"><title>Node8&#45;&gt;Node6</title>
<path fill="none" stroke="orange" d="M266.877,-599.581C256.01,-574.636 239.432,-541.442 219.048,-516 213.864,-509.53 207.625,-503.315 201.275,-497.688"/>
<polygon fill="orange" stroke="orange" points="263.765,-601.207 270.898,-609.041 270.207,-598.469 263.765,-601.207"/>
<text text-anchor="middle" x="253.39" y="-518" font-family="Helvetica,sans-Serif" font-size="10.00"> &lt; fl::Term *&gt;</text>
</g>
<!-- Node9 -->
<g id="node8" class="node"><title>Node9</title>
<polygon fill="white" stroke="#bfbfbf" points="266.548,-775.5 266.548,-829.5 295.548,-829.5 295.548,-775.5 266.548,-775.5"/>
<text text-anchor="middle" x="280.602" y="-817.5" font-family="Helvetica,sans-Serif" font-size="10.00">T</text>
<polyline fill="none" stroke="#bfbfbf" points="266.548,-811.5 294.656,-811.5 "/>
<text text-anchor="middle" x="280.602" y="-799.5" font-family="Helvetica,sans-Serif" font-size="10.00"> </text>
<polyline fill="none" stroke="#bfbfbf" points="266.548,-793.5 294.656,-793.5 "/>
<text text-anchor="middle" x="280.602" y="-781.5" font-family="Helvetica,sans-Serif" font-size="10.00"> </text>
</g>
<!-- Node9&#45;&gt;Node8 -->
<g id="edge7" class="edge"><title>Node9&#45;&gt;Node8</title>
<path fill="none" stroke="#404040" d="M281.048,-775.151C281.048,-748.293 281.048,-706.354 281.048,-675.822"/>
<polygon fill="none" stroke="#404040" points="281.048,-675.513 277.048,-669.513 281.048,-663.513 285.048,-669.513 281.048,-675.513"/>
<text text-anchor="middle" x="305.645" y="-749" font-family="Helvetica,sans-Serif" font-size="10.00"> +elements</text>
</g>
</g>
</svg>
