<?xml version="1.0" encoding="UTF-8" standalone="no"?>
<!DOCTYPE svg PUBLIC "-//W3C//DTD SVG 1.1//EN"
 "http://www.w3.org/Graphics/SVG/1.1/DTD/svg11.dtd">
<!-- Generated by graphviz version 2.38.0 (20140413.2041)
 -->
<!-- Title: fuzzylite/fl/term/Function.h Pages: 1 -->
<svg width="876pt" height="412pt"
 viewBox="0.00 0.00 876.00 412.00" xmlns="http://www.w3.org/2000/svg" xmlns:xlink="http://www.w3.org/1999/xlink">
<g id="graph0" class="graph" transform="scale(1 1) rotate(0) translate(4 408)">
<title>fuzzylite/fl/term/Function.h</title>
<polygon fill="white" stroke="none" points="-4,4 -4,-408 872,-408 872,4 -4,4"/>
<!-- Node0 -->
<g id="node1" class="node"><title>Node0</title>
<polygon fill="#bfbfbf" stroke="black" points="611.924,-385.5 611.924,-403.5 744.076,-403.5 744.076,-385.5 611.924,-385.5"/>
<text text-anchor="middle" x="678" y="-391.5" font-family="Helvetica,sans-Serif" font-size="10.00">fuzzylite/fl/term/Function.h</text>
</g>
<!-- Node1 -->
<g id="node2" class="node"><title>Node1</title>
<g id="a_node2"><a xlink:href="../../d8/d11/_term_8h.html" target="_top" xlink:title="fl/term/Term.h">
<polygon fill="white" stroke="black" points="639.441,-330.5 639.441,-348.5 716.559,-348.5 716.559,-330.5 639.441,-330.5"/>
<text text-anchor="middle" x="678" y="-336.5" font-family="Helvetica,sans-Serif" font-size="10.00">fl/term/Term.h</text>
</a>
</g>
</g>
<!-- Node0&#45;&gt;Node1 -->
<g id="edge1" class="edge"><title>Node0&#45;&gt;Node1</title>
<path fill="none" stroke="midnightblue" d="M678,-385.219C678,-378.177 678,-367.808 678,-358.828"/>
<polygon fill="midnightblue" stroke="midnightblue" points="681.5,-358.55 678,-348.55 674.5,-358.55 681.5,-358.55"/>
</g>
<!-- Node13 -->
<g id="node14" class="node"><title>Node13</title>
<polygon fill="white" stroke="#bfbfbf" points="429.773,-110.5 429.773,-128.5 470.227,-128.5 470.227,-110.5 429.773,-110.5"/>
<text text-anchor="middle" x="450" y="-116.5" font-family="Helvetica,sans-Serif" font-size="10.00">string</text>
</g>
<!-- Node0&#45;&gt;Node13 -->
<g id="edge42" class="edge"><title>Node0&#45;&gt;Node13</title>
<path fill="none" stroke="midnightblue" d="M625.471,-385.461C507.201,-366.176 226.041,-313.313 171,-239 138.551,-195.189 341.393,-144.67 419.91,-127.001"/>
<polygon fill="midnightblue" stroke="midnightblue" points="420.7,-130.411 429.701,-124.823 419.18,-123.578 420.7,-130.411"/>
</g>
<!-- Node23 -->
<g id="node24" class="node"><title>Node23</title>
<polygon fill="white" stroke="#bfbfbf" points="734.273,-330.5 734.273,-348.5 769.727,-348.5 769.727,-330.5 734.273,-330.5"/>
<text text-anchor="middle" x="752" y="-336.5" font-family="Helvetica,sans-Serif" font-size="10.00">map</text>
</g>
<!-- Node0&#45;&gt;Node23 -->
<g id="edge41" class="edge"><title>Node0&#45;&gt;Node23</title>
<path fill="none" stroke="midnightblue" d="M689.239,-385.45C700.648,-377.279 718.546,-364.46 732.314,-354.6"/>
<polygon fill="midnightblue" stroke="midnightblue" points="734.563,-357.294 740.655,-348.625 730.487,-351.603 734.563,-357.294"/>
</g>
<!-- Node2 -->
<g id="node3" class="node"><title>Node2</title>
<g id="a_node3"><a xlink:href="../../de/d53/fuzzylite_8h.html" target="_top" xlink:title="fl/fuzzylite.h">
<polygon fill="white" stroke="black" points="305.879,-55.5 305.879,-73.5 374.121,-73.5 374.121,-55.5 305.879,-55.5"/>
<text text-anchor="middle" x="340" y="-61.5" font-family="Helvetica,sans-Serif" font-size="10.00">fl/fuzzylite.h</text>
</a>
</g>
</g>
<!-- Node1&#45;&gt;Node2 -->
<g id="edge2" class="edge"><title>Node1&#45;&gt;Node2</title>
<path fill="none" stroke="midnightblue" d="M639.113,-336.446C495.046,-328.326 0,-295.683 0,-230.5 0,-230.5 0,-230.5 0,-173.5 0,-112.15 203.626,-81.0745 295.711,-70.1582"/>
<polygon fill="midnightblue" stroke="midnightblue" points="296.312,-73.6121 305.843,-68.9853 295.507,-66.6585 296.312,-73.6121"/>
</g>
<!-- Node4 -->
<g id="node5" class="node"><title>Node4</title>
<polygon fill="white" stroke="#bfbfbf" points="684.384,-0.5 684.384,-18.5 727.616,-18.5 727.616,-0.5 684.384,-0.5"/>
<text text-anchor="middle" x="706" y="-6.5" font-family="Helvetica,sans-Serif" font-size="10.00">cmath</text>
</g>
<!-- Node1&#45;&gt;Node4 -->
<g id="edge38" class="edge"><title>Node1&#45;&gt;Node4</title>
<path fill="none" stroke="midnightblue" d="M710.396,-330.449C745.723,-321.268 799.562,-305.981 817,-294 846.835,-273.502 868,-266.698 868,-230.5 868,-230.5 868,-230.5 868,-118.5 868,-56.5921 785.083,-27.9872 737.891,-16.7202"/>
<polygon fill="midnightblue" stroke="midnightblue" points="738.373,-13.241 727.848,-14.4544 736.833,-20.0694 738.373,-13.241"/>
</g>
<!-- Node10 -->
<g id="node11" class="node"><title>Node10</title>
<g id="a_node11"><a xlink:href="../../d6/dd6/_operation_8h.html" target="_top" xlink:title="fl/Operation.h">
<polygon fill="white" stroke="black" points="418.983,-275.5 418.983,-293.5 495.017,-293.5 495.017,-275.5 418.983,-275.5"/>
<text text-anchor="middle" x="457" y="-281.5" font-family="Helvetica,sans-Serif" font-size="10.00">fl/Operation.h</text>
</a>
</g>
</g>
<!-- Node1&#45;&gt;Node10 -->
<g id="edge10" class="edge"><title>Node1&#45;&gt;Node10</title>
<path fill="none" stroke="midnightblue" d="M644.435,-330.45C605.868,-321.201 542.479,-305.999 500.244,-295.871"/>
<polygon fill="midnightblue" stroke="midnightblue" points="501.059,-292.467 490.518,-293.538 499.426,-299.274 501.059,-292.467"/>
</g>
<!-- Node1&#45;&gt;Node13 -->
<g id="edge39" class="edge"><title>Node1&#45;&gt;Node13</title>
<path fill="none" stroke="midnightblue" d="M677.01,-330.474C674.145,-310.073 664.24,-255.35 637,-220 623.607,-202.62 574.299,-175.439 555,-165 530.495,-151.745 501.205,-139.617 479.795,-131.381"/>
<polygon fill="midnightblue" stroke="midnightblue" points="480.857,-128.041 470.265,-127.773 478.377,-134.587 480.857,-128.041"/>
</g>
<!-- Node14 -->
<g id="node15" class="node"><title>Node14</title>
<polygon fill="white" stroke="#bfbfbf" points="686.384,-55.5 686.384,-73.5 729.616,-73.5 729.616,-55.5 686.384,-55.5"/>
<text text-anchor="middle" x="708" y="-61.5" font-family="Helvetica,sans-Serif" font-size="10.00">vector</text>
</g>
<!-- Node1&#45;&gt;Node14 -->
<g id="edge40" class="edge"><title>Node1&#45;&gt;Node14</title>
<path fill="none" stroke="midnightblue" d="M712.112,-330.471C756.926,-317.66 830,-287.96 830,-230.5 830,-230.5 830,-230.5 830,-173.5 830,-125.148 775.611,-93.2169 739.463,-77.3342"/>
<polygon fill="midnightblue" stroke="midnightblue" points="740.386,-73.9259 729.811,-73.2797 737.675,-80.3796 740.386,-73.9259"/>
</g>
<!-- Node16 -->
<g id="node17" class="node"><title>Node16</title>
<g id="a_node17"><a xlink:href="../../d5/de4/_complexity_8h.html" target="_top" xlink:title="fl/Complexity.h">
<polygon fill="white" stroke="black" points="621.581,-110.5 621.581,-128.5 702.419,-128.5 702.419,-110.5 621.581,-110.5"/>
<text text-anchor="middle" x="662" y="-116.5" font-family="Helvetica,sans-Serif" font-size="10.00">fl/Complexity.h</text>
</a>
</g>
</g>
<!-- Node1&#45;&gt;Node16 -->
<g id="edge37" class="edge"><title>Node1&#45;&gt;Node16</title>
<path fill="none" stroke="midnightblue" d="M685.083,-330.443C706.649,-304.891 768.067,-223.883 735,-165 726.713,-150.243 711.326,-139.804 696.808,-132.763"/>
<polygon fill="midnightblue" stroke="midnightblue" points="698.036,-129.479 687.476,-128.616 695.193,-135.876 698.036,-129.479"/>
</g>
<!-- Node3 -->
<g id="node4" class="node"><title>Node3</title>
<polygon fill="white" stroke="#bfbfbf" points="93.436,-0.5 93.436,-18.5 150.564,-18.5 150.564,-0.5 93.436,-0.5"/>
<text text-anchor="middle" x="122" y="-6.5" font-family="Helvetica,sans-Serif" font-size="10.00">algorithm</text>
</g>
<!-- Node2&#45;&gt;Node3 -->
<g id="edge3" class="edge"><title>Node2&#45;&gt;Node3</title>
<path fill="none" stroke="midnightblue" d="M306.89,-55.4504C267.607,-45.8998 202.215,-30.0019 160.651,-19.8968"/>
<polygon fill="midnightblue" stroke="midnightblue" points="161.427,-16.4837 150.884,-17.5222 159.774,-23.2856 161.427,-16.4837"/>
</g>
<!-- Node2&#45;&gt;Node4 -->
<g id="edge4" class="edge"><title>Node2&#45;&gt;Node4</title>
<path fill="none" stroke="midnightblue" d="M374.432,-58.5139C445.038,-48.2895 605.334,-25.0774 673.907,-15.1474"/>
<polygon fill="midnightblue" stroke="midnightblue" points="674.702,-18.5688 684.097,-13.6717 673.699,-11.6411 674.702,-18.5688"/>
</g>
<!-- Node5 -->
<g id="node6" class="node"><title>Node5</title>
<polygon fill="white" stroke="#bfbfbf" points="381.828,-0.5 381.828,-18.5 436.172,-18.5 436.172,-0.5 381.828,-0.5"/>
<text text-anchor="middle" x="409" y="-6.5" font-family="Helvetica,sans-Serif" font-size="10.00">iostream</text>
</g>
<!-- Node2&#45;&gt;Node5 -->
<g id="edge5" class="edge"><title>Node2&#45;&gt;Node5</title>
<path fill="none" stroke="midnightblue" d="M350.48,-55.4504C361.017,-47.3566 377.489,-34.7042 390.276,-24.8822"/>
<polygon fill="midnightblue" stroke="midnightblue" points="392.623,-27.4926 398.422,-18.6253 388.359,-21.9412 392.623,-27.4926"/>
</g>
<!-- Node6 -->
<g id="node7" class="node"><title>Node6</title>
<polygon fill="white" stroke="#bfbfbf" points="454.219,-0.5 454.219,-18.5 505.781,-18.5 505.781,-0.5 454.219,-0.5"/>
<text text-anchor="middle" x="480" y="-6.5" font-family="Helvetica,sans-Serif" font-size="10.00">sstream</text>
</g>
<!-- Node2&#45;&gt;Node6 -->
<g id="edge6" class="edge"><title>Node2&#45;&gt;Node6</title>
<path fill="none" stroke="midnightblue" d="M361.263,-55.4504C384.596,-46.6173 422.271,-32.3546 448.917,-22.267"/>
<polygon fill="midnightblue" stroke="midnightblue" points="450.424,-25.4392 458.537,-18.6253 447.945,-18.8926 450.424,-25.4392"/>
</g>
<!-- Node7 -->
<g id="node8" class="node"><title>Node7</title>
<polygon fill="white" stroke="#bfbfbf" points="189.613,-0.5 189.613,-18.5 228.387,-18.5 228.387,-0.5 189.613,-0.5"/>
<text text-anchor="middle" x="209" y="-6.5" font-family="Helvetica,sans-Serif" font-size="10.00">limits</text>
</g>
<!-- Node2&#45;&gt;Node7 -->
<g id="edge7" class="edge"><title>Node2&#45;&gt;Node7</title>
<path fill="none" stroke="midnightblue" d="M320.104,-55.4504C298.241,-46.6051 262.92,-32.3151 237.981,-22.2252"/>
<polygon fill="midnightblue" stroke="midnightblue" points="239.237,-18.9577 228.654,-18.4517 236.611,-25.4467 239.237,-18.9577"/>
</g>
<!-- Node8 -->
<g id="node9" class="node"><title>Node8</title>
<polygon fill="white" stroke="#bfbfbf" points="245.943,-0.5 245.943,-18.5 298.057,-18.5 298.057,-0.5 245.943,-0.5"/>
<text text-anchor="middle" x="272" y="-6.5" font-family="Helvetica,sans-Serif" font-size="10.00">memory</text>
</g>
<!-- Node2&#45;&gt;Node8 -->
<g id="edge8" class="edge"><title>Node2&#45;&gt;Node8</title>
<path fill="none" stroke="midnightblue" d="M329.672,-55.4504C319.288,-47.3566 303.054,-34.7042 290.453,-24.8822"/>
<polygon fill="midnightblue" stroke="midnightblue" points="292.464,-22.0122 282.425,-18.6253 288.161,-27.5333 292.464,-22.0122"/>
</g>
<!-- Node9 -->
<g id="node10" class="node"><title>Node9</title>
<polygon fill="white" stroke="#bfbfbf" points="315.879,-0.5 315.879,-18.5 364.121,-18.5 364.121,-0.5 315.879,-0.5"/>
<text text-anchor="middle" x="340" y="-6.5" font-family="Helvetica,sans-Serif" font-size="10.00">cstddef</text>
</g>
<!-- Node2&#45;&gt;Node9 -->
<g id="edge9" class="edge"><title>Node2&#45;&gt;Node9</title>
<path fill="none" stroke="midnightblue" d="M340,-55.2188C340,-48.1769 340,-37.8083 340,-28.8277"/>
<polygon fill="midnightblue" stroke="midnightblue" points="343.5,-28.5495 340,-18.5496 336.5,-28.5496 343.5,-28.5495"/>
</g>
<!-- Node10&#45;&gt;Node2 -->
<g id="edge11" class="edge"><title>Node10&#45;&gt;Node2</title>
<path fill="none" stroke="midnightblue" d="M418.824,-280.854C347.783,-275.454 198.298,-261.72 152,-239 120.397,-223.491 108.762,-216.403 95,-184 59.4699,-100.343 215.67,-75.5002 295.523,-68.3187"/>
<polygon fill="midnightblue" stroke="midnightblue" points="296.121,-71.7808 305.792,-67.4545 295.534,-64.8055 296.121,-71.7808"/>
</g>
<!-- Node10&#45;&gt;Node3 -->
<g id="edge33" class="edge"><title>Node10&#45;&gt;Node3</title>
<path fill="none" stroke="midnightblue" d="M418.737,-281.145C341.516,-275.965 169.809,-262.165 116,-239 74.9411,-221.324 38,-220.202 38,-175.5 38,-175.5 38,-175.5 38,-118.5 38,-77.6697 75.8707,-42.9793 100.756,-24.5915"/>
<polygon fill="midnightblue" stroke="midnightblue" points="103.11,-27.2131 109.242,-18.5735 99.0604,-21.5031 103.11,-27.2131"/>
</g>
<!-- Node11 -->
<g id="node12" class="node"><title>Node11</title>
<g id="a_node12"><a xlink:href="../../df/d98/_exception_8h.html" target="_top" xlink:title="fl/Exception.h">
<polygon fill="white" stroke="black" points="103.983,-165.5 103.983,-183.5 180.017,-183.5 180.017,-165.5 103.983,-165.5"/>
<text text-anchor="middle" x="142" y="-171.5" font-family="Helvetica,sans-Serif" font-size="10.00">fl/Exception.h</text>
</a>
</g>
</g>
<!-- Node10&#45;&gt;Node11 -->
<g id="edge12" class="edge"><title>Node10&#45;&gt;Node11</title>
<path fill="none" stroke="midnightblue" d="M418.717,-281.969C349.995,-278.515 209.3,-268.018 171,-239 156.528,-228.035 149.063,-208.157 145.36,-193.553"/>
<polygon fill="midnightblue" stroke="midnightblue" points="148.751,-192.677 143.207,-183.648 141.911,-194.164 148.751,-192.677"/>
</g>
<!-- Node10&#45;&gt;Node13 -->
<g id="edge17" class="edge"><title>Node10&#45;&gt;Node13</title>
<path fill="none" stroke="midnightblue" d="M495.316,-278.494C538.84,-271.929 605.811,-258.86 621,-239 626.13,-232.292 625.287,-227.275 621,-220 604.234,-191.549 584.613,-200.488 556,-184 526.694,-167.113 493.279,-146.94 471.932,-133.935"/>
<polygon fill="midnightblue" stroke="midnightblue" points="473.66,-130.889 463.301,-128.666 470.012,-136.863 473.66,-130.889"/>
</g>
<!-- Node10&#45;&gt;Node14 -->
<g id="edge18" class="edge"><title>Node10&#45;&gt;Node14</title>
<path fill="none" stroke="midnightblue" d="M495.237,-281.585C539.991,-278.032 615.318,-267.896 673,-239 705.934,-222.502 719.893,-217.595 735,-184 750.371,-149.818 731.413,-106.021 718.365,-82.4083"/>
<polygon fill="midnightblue" stroke="midnightblue" points="721.303,-80.498 713.251,-73.6111 715.251,-84.0156 721.303,-80.498"/>
</g>
<!-- Node15 -->
<g id="node16" class="node"><title>Node15</title>
<g id="a_node16"><a xlink:href="../../d7/d8a/_defuzzifier_8h.html" target="_top" xlink:title="fl/defuzzifier/Defuzzifier.h">
<polygon fill="white" stroke="black" points="598.419,-165.5 598.419,-183.5 725.581,-183.5 725.581,-165.5 598.419,-165.5"/>
<text text-anchor="middle" x="662" y="-171.5" font-family="Helvetica,sans-Serif" font-size="10.00">fl/defuzzifier/Defuzzifier.h</text>
</a>
</g>
</g>
<!-- Node10&#45;&gt;Node15 -->
<g id="edge19" class="edge"><title>Node10&#45;&gt;Node15</title>
<path fill="none" stroke="midnightblue" d="M495.311,-280.014C546.467,-274.525 633.087,-262.043 654,-239 664.96,-226.924 665.982,-207.824 664.86,-193.722"/>
<polygon fill="midnightblue" stroke="midnightblue" points="668.325,-193.221 663.648,-183.714 661.375,-194.062 668.325,-193.221"/>
</g>
<!-- Node17 -->
<g id="node18" class="node"><title>Node17</title>
<g id="a_node18"><a xlink:href="../../d7/d72/_norm_8h.html" target="_top" xlink:title="fl/norm/Norm.h">
<polygon fill="white" stroke="black" points="334.938,-165.5 334.938,-183.5 417.062,-183.5 417.062,-165.5 334.938,-165.5"/>
<text text-anchor="middle" x="376" y="-171.5" font-family="Helvetica,sans-Serif" font-size="10.00">fl/norm/Norm.h</text>
</a>
</g>
</g>
<!-- Node10&#45;&gt;Node17 -->
<g id="edge25" class="edge"><title>Node10&#45;&gt;Node17</title>
<path fill="none" stroke="midnightblue" d="M450.451,-275.374C443.345,-266.509 431.713,-251.865 422,-239 410.119,-223.264 396.957,-205.007 387.766,-192.119"/>
<polygon fill="midnightblue" stroke="midnightblue" points="390.498,-189.92 381.852,-183.796 384.792,-193.975 390.498,-189.92"/>
</g>
<!-- Node18 -->
<g id="node19" class="node"><title>Node18</title>
<g id="a_node19"><a xlink:href="../../de/d44/_s_norm_8h.html" target="_top" xlink:title="fl/norm/SNorm.h">
<polygon fill="white" stroke="black" points="179.604,-220.5 179.604,-238.5 268.396,-238.5 268.396,-220.5 179.604,-220.5"/>
<text text-anchor="middle" x="224" y="-226.5" font-family="Helvetica,sans-Serif" font-size="10.00">fl/norm/SNorm.h</text>
</a>
</g>
</g>
<!-- Node10&#45;&gt;Node18 -->
<g id="edge29" class="edge"><title>Node10&#45;&gt;Node18</title>
<path fill="none" stroke="midnightblue" d="M421.612,-275.45C380.865,-266.182 313.838,-250.935 269.311,-240.807"/>
<polygon fill="midnightblue" stroke="midnightblue" points="269.865,-237.344 259.338,-238.538 268.313,-244.169 269.865,-237.344"/>
</g>
<!-- Node19 -->
<g id="node20" class="node"><title>Node19</title>
<g id="a_node20"><a xlink:href="../../d0/d24/_t_norm_8h.html" target="_top" xlink:title="fl/norm/TNorm.h">
<polygon fill="white" stroke="black" points="286.884,-220.5 286.884,-238.5 375.116,-238.5 375.116,-220.5 286.884,-220.5"/>
<text text-anchor="middle" x="331" y="-226.5" font-family="Helvetica,sans-Serif" font-size="10.00">fl/norm/TNorm.h</text>
</a>
</g>
</g>
<!-- Node10&#45;&gt;Node19 -->
<g id="edge31" class="edge"><title>Node10&#45;&gt;Node19</title>
<path fill="none" stroke="midnightblue" d="M437.863,-275.45C417.049,-266.695 383.553,-252.606 359.611,-242.535"/>
<polygon fill="midnightblue" stroke="midnightblue" points="360.892,-239.276 350.317,-238.625 358.177,-245.729 360.892,-239.276"/>
</g>
<!-- Node20 -->
<g id="node21" class="node"><title>Node20</title>
<polygon fill="white" stroke="#bfbfbf" points="431.49,-220.5 431.49,-238.5 482.51,-238.5 482.51,-220.5 431.49,-220.5"/>
<text text-anchor="middle" x="457" y="-226.5" font-family="Helvetica,sans-Serif" font-size="10.00">iomanip</text>
</g>
<!-- Node10&#45;&gt;Node20 -->
<g id="edge34" class="edge"><title>Node10&#45;&gt;Node20</title>
<path fill="none" stroke="midnightblue" d="M457,-275.219C457,-268.177 457,-257.808 457,-248.828"/>
<polygon fill="midnightblue" stroke="midnightblue" points="460.5,-248.55 457,-238.55 453.5,-248.55 460.5,-248.55"/>
</g>
<!-- Node21 -->
<g id="node22" class="node"><title>Node21</title>
<polygon fill="white" stroke="#bfbfbf" points="500.604,-220.5 500.604,-238.5 549.396,-238.5 549.396,-220.5 500.604,-220.5"/>
<text text-anchor="middle" x="525" y="-226.5" font-family="Helvetica,sans-Serif" font-size="10.00">cstdarg</text>
</g>
<!-- Node10&#45;&gt;Node21 -->
<g id="edge35" class="edge"><title>Node10&#45;&gt;Node21</title>
<path fill="none" stroke="midnightblue" d="M467.328,-275.45C477.712,-267.357 493.946,-254.704 506.547,-244.882"/>
<polygon fill="midnightblue" stroke="midnightblue" points="508.839,-247.533 514.575,-238.625 504.536,-242.012 508.839,-247.533"/>
</g>
<!-- Node22 -->
<g id="node23" class="node"><title>Node22</title>
<polygon fill="white" stroke="#bfbfbf" points="567.549,-220.5 567.549,-238.5 612.451,-238.5 612.451,-220.5 567.549,-220.5"/>
<text text-anchor="middle" x="590" y="-226.5" font-family="Helvetica,sans-Serif" font-size="10.00">cctype</text>
</g>
<!-- Node10&#45;&gt;Node22 -->
<g id="edge36" class="edge"><title>Node10&#45;&gt;Node22</title>
<path fill="none" stroke="midnightblue" d="M477.2,-275.45C499.268,-266.656 534.842,-252.48 560.136,-242.401"/>
<polygon fill="midnightblue" stroke="midnightblue" points="561.616,-245.579 569.61,-238.625 559.025,-239.076 561.616,-245.579"/>
</g>
<!-- Node11&#45;&gt;Node2 -->
<g id="edge13" class="edge"><title>Node11&#45;&gt;Node2</title>
<path fill="none" stroke="midnightblue" d="M142.011,-165.167C142.501,-151.601 145.514,-124.774 161,-110 180.117,-91.762 248.966,-78.5461 295.488,-71.456"/>
<polygon fill="midnightblue" stroke="midnightblue" points="296.251,-74.8813 305.629,-69.9529 295.224,-67.957 296.251,-74.8813"/>
</g>
<!-- Node12 -->
<g id="node13" class="node"><title>Node12</title>
<polygon fill="white" stroke="#bfbfbf" points="169.596,-110.5 169.596,-128.5 228.404,-128.5 228.404,-110.5 169.596,-110.5"/>
<text text-anchor="middle" x="199" y="-116.5" font-family="Helvetica,sans-Serif" font-size="10.00">exception</text>
</g>
<!-- Node11&#45;&gt;Node12 -->
<g id="edge14" class="edge"><title>Node11&#45;&gt;Node12</title>
<path fill="none" stroke="midnightblue" d="M150.906,-165.219C159.405,-157.316 172.41,-145.224 182.754,-135.606"/>
<polygon fill="midnightblue" stroke="midnightblue" points="185.403,-137.922 190.343,-128.55 180.636,-132.796 185.403,-137.922"/>
</g>
<!-- Node11&#45;&gt;Node13 -->
<g id="edge15" class="edge"><title>Node11&#45;&gt;Node13</title>
<path fill="none" stroke="midnightblue" d="M180.076,-166.948C241.918,-156.306 362.959,-135.478 419.517,-125.745"/>
<polygon fill="midnightblue" stroke="midnightblue" points="420.354,-129.153 429.616,-124.008 419.167,-122.254 420.354,-129.153"/>
</g>
<!-- Node11&#45;&gt;Node14 -->
<g id="edge16" class="edge"><title>Node11&#45;&gt;Node14</title>
<path fill="none" stroke="midnightblue" d="M174.067,-165.432C225.797,-152.592 330.976,-127.202 421,-110 513.204,-92.3814 623.087,-76.8536 676.171,-69.6937"/>
<polygon fill="midnightblue" stroke="midnightblue" points="676.863,-73.1324 686.309,-68.3351 675.933,-66.1944 676.863,-73.1324"/>
</g>
<!-- Node15&#45;&gt;Node2 -->
<g id="edge20" class="edge"><title>Node15&#45;&gt;Node2</title>
<path fill="none" stroke="midnightblue" d="M639.237,-165.403C604.687,-153.158 536.902,-129.311 479,-110 443.891,-98.2907 403.596,-85.4567 375.462,-76.5932"/>
<polygon fill="midnightblue" stroke="midnightblue" points="376.269,-73.178 365.679,-73.5168 374.169,-79.8556 376.269,-73.178"/>
</g>
<!-- Node15&#45;&gt;Node13 -->
<g id="edge24" class="edge"><title>Node15&#45;&gt;Node13</title>
<path fill="none" stroke="midnightblue" d="M629.802,-165.45C589.183,-155.296 519.863,-137.966 480.209,-128.052"/>
<polygon fill="midnightblue" stroke="midnightblue" points="480.881,-124.613 470.33,-125.583 479.183,-131.404 480.881,-124.613"/>
</g>
<!-- Node15&#45;&gt;Node16 -->
<g id="edge21" class="edge"><title>Node15&#45;&gt;Node16</title>
<path fill="none" stroke="midnightblue" d="M662,-165.219C662,-158.177 662,-147.808 662,-138.828"/>
<polygon fill="midnightblue" stroke="midnightblue" points="665.5,-138.55 662,-128.55 658.5,-138.55 665.5,-138.55"/>
</g>
<!-- Node16&#45;&gt;Node2 -->
<g id="edge22" class="edge"><title>Node16&#45;&gt;Node2</title>
<path fill="none" stroke="midnightblue" d="M621.545,-111.841C560.903,-101.86 446.875,-83.0913 384.146,-72.7663"/>
<polygon fill="midnightblue" stroke="midnightblue" points="384.601,-69.2941 374.165,-71.1234 383.464,-76.2011 384.601,-69.2941"/>
</g>
<!-- Node16&#45;&gt;Node14 -->
<g id="edge23" class="edge"><title>Node16&#45;&gt;Node14</title>
<path fill="none" stroke="midnightblue" d="M669.188,-110.219C675.911,-102.473 686.127,-90.7013 694.391,-81.1799"/>
<polygon fill="midnightblue" stroke="midnightblue" points="697.102,-83.3959 701.014,-73.5496 691.816,-78.8076 697.102,-83.3959"/>
</g>
<!-- Node17&#45;&gt;Node2 -->
<g id="edge26" class="edge"><title>Node17&#45;&gt;Node2</title>
<path fill="none" stroke="midnightblue" d="M373.294,-165.382C367.509,-148.026 353.82,-106.96 345.914,-83.2413"/>
<polygon fill="midnightblue" stroke="midnightblue" points="349.22,-82.0918 342.737,-73.7118 342.579,-84.3054 349.22,-82.0918"/>
</g>
<!-- Node17&#45;&gt;Node13 -->
<g id="edge28" class="edge"><title>Node17&#45;&gt;Node13</title>
<path fill="none" stroke="midnightblue" d="M387.239,-165.45C398.648,-157.279 416.546,-144.46 430.314,-134.6"/>
<polygon fill="midnightblue" stroke="midnightblue" points="432.563,-137.294 438.655,-128.625 428.487,-131.603 432.563,-137.294"/>
</g>
<!-- Node17&#45;&gt;Node16 -->
<g id="edge27" class="edge"><title>Node17&#45;&gt;Node16</title>
<path fill="none" stroke="midnightblue" d="M417.281,-165.85C468.542,-156.351 555.96,-140.151 611.258,-129.903"/>
<polygon fill="midnightblue" stroke="midnightblue" points="611.999,-133.326 621.194,-128.062 610.724,-126.443 611.999,-133.326"/>
</g>
<!-- Node18&#45;&gt;Node17 -->
<g id="edge30" class="edge"><title>Node18&#45;&gt;Node17</title>
<path fill="none" stroke="midnightblue" d="M247.086,-220.45C272.642,-211.539 314.045,-197.103 343.015,-187.001"/>
<polygon fill="midnightblue" stroke="midnightblue" points="344.407,-190.223 352.697,-183.625 342.102,-183.613 344.407,-190.223"/>
</g>
<!-- Node19&#45;&gt;Node17 -->
<g id="edge32" class="edge"><title>Node19&#45;&gt;Node17</title>
<path fill="none" stroke="midnightblue" d="M338.031,-220.219C344.608,-212.473 354.603,-200.701 362.687,-191.18"/>
<polygon fill="midnightblue" stroke="midnightblue" points="365.361,-193.438 369.165,-183.55 360.025,-188.907 365.361,-193.438"/>
</g>
</g>
</svg>
