<?xml version="1.0" encoding="UTF-8" standalone="no"?>
<!DOCTYPE svg PUBLIC "-//W3C//DTD SVG 1.1//EN"
 "http://www.w3.org/Graphics/SVG/1.1/DTD/svg11.dtd">
<!-- Generated by graphviz version 2.38.0 (20140413.2041)
 -->
<!-- Title: fl::Proposition Pages: 1 -->
<svg width="463pt" height="455pt"
 viewBox="0.00 0.00 462.53 455.00" xmlns="http://www.w3.org/2000/svg" xmlns:xlink="http://www.w3.org/1999/xlink">
<g id="graph0" class="graph" transform="scale(1 1) rotate(0) translate(4 451)">
<title>fl::Proposition</title>
<polygon fill="white" stroke="none" points="-4,4 -4,-451 458.534,-451 458.534,4 -4,4"/>
<!-- Node1 -->
<g id="node1" class="node"><title>Node1</title>
<polygon fill="#bfbfbf" stroke="black" points="160.719,-0.5 160.719,-84.5 247.867,-84.5 247.867,-0.5 160.719,-0.5"/>
<text text-anchor="middle" x="204.293" y="-72.5" font-family="Helvetica,sans-Serif" font-size="10.00">fl::Proposition</text>
<polyline fill="none" stroke="black" points="160.719,-66.5 247.867,-66.5 "/>
<text text-anchor="middle" x="204.293" y="-54.5" font-family="Helvetica,sans-Serif" font-size="10.00"> </text>
<polyline fill="none" stroke="black" points="160.719,-48.5 247.867,-48.5 "/>
<text text-anchor="start" x="168.719" y="-36.5" font-family="Helvetica,sans-Serif" font-size="10.00">+ Proposition()</text>
<text text-anchor="start" x="168.719" y="-26.5" font-family="Helvetica,sans-Serif" font-size="10.00">+ ~Proposition()</text>
<text text-anchor="start" x="168.719" y="-16.5" font-family="Helvetica,sans-Serif" font-size="10.00">+ type()</text>
<text text-anchor="start" x="168.719" y="-6.5" font-family="Helvetica,sans-Serif" font-size="10.00">+ toString()</text>
</g>
<!-- Node2 -->
<g id="node2" class="node"><title>Node2</title>
<g id="a_node2"><a xlink:href="../../d2/d7f/classfl_1_1_expression.html" target="_top" xlink:title="The Expression class is the base class to build an expression tree. ">
<polygon fill="white" stroke="black" points="0,-176.5 0,-260.5 86.5859,-260.5 86.5859,-176.5 0,-176.5"/>
<text text-anchor="middle" x="43.293" y="-248.5" font-family="Helvetica,sans-Serif" font-size="10.00">fl::Expression</text>
<polyline fill="none" stroke="black" points="0,-242.5 86.5859,-242.5 "/>
<text text-anchor="middle" x="43.293" y="-230.5" font-family="Helvetica,sans-Serif" font-size="10.00"> </text>
<polyline fill="none" stroke="black" points="0,-224.5 86.5859,-224.5 "/>
<text text-anchor="start" x="8" y="-212.5" font-family="Helvetica,sans-Serif" font-size="10.00">+ Expression()</text>
<text text-anchor="start" x="8" y="-202.5" font-family="Helvetica,sans-Serif" font-size="10.00">+ ~Expression()</text>
<text text-anchor="start" x="8" y="-192.5" font-family="Helvetica,sans-Serif" font-size="10.00">+ type()</text>
<text text-anchor="start" x="8" y="-182.5" font-family="Helvetica,sans-Serif" font-size="10.00">+ toString()</text>
</a>
</g>
</g>
<!-- Node2&#45;&gt;Node1 -->
<g id="edge1" class="edge"><title>Node2&#45;&gt;Node1</title>
<path fill="none" stroke="midnightblue" d="M69.3655,-167.337C76.923,-154.862 85.7407,-141.939 95.293,-131 114.367,-109.157 139.384,-88.6404 160.641,-72.9714"/>
<polygon fill="none" stroke="midnightblue" points="66.143,-165.913 64.0928,-176.308 72.1776,-169.46 66.143,-165.913"/>
</g>
<!-- Node3 -->
<g id="node3" class="node"><title>Node3</title>
<g id="a_node3"><a xlink:href="../../d4/de6/classfl_1_1_term.html" target="_top" xlink:title="The Term class is the abstract class for linguistic terms. ">
<polygon fill="white" stroke="black" points="104.292,-131.5 104.292,-305.5 212.294,-305.5 212.294,-131.5 104.292,-131.5"/>
<text text-anchor="middle" x="158.293" y="-293.5" font-family="Helvetica,sans-Serif" font-size="10.00">fl::Term</text>
<polyline fill="none" stroke="black" points="104.292,-287.5 212.294,-287.5 "/>
<text text-anchor="start" x="112.292" y="-275.5" font-family="Helvetica,sans-Serif" font-size="10.00"># _height</text>
<polyline fill="none" stroke="black" points="104.292,-269.5 212.294,-269.5 "/>
<text text-anchor="start" x="112.292" y="-257.5" font-family="Helvetica,sans-Serif" font-size="10.00">+ Term()</text>
<text text-anchor="start" x="112.292" y="-247.5" font-family="Helvetica,sans-Serif" font-size="10.00">+ ~Term()</text>
<text text-anchor="start" x="112.292" y="-237.5" font-family="Helvetica,sans-Serif" font-size="10.00">+ setName()</text>
<text text-anchor="start" x="112.292" y="-227.5" font-family="Helvetica,sans-Serif" font-size="10.00">+ getName()</text>
<text text-anchor="start" x="112.292" y="-217.5" font-family="Helvetica,sans-Serif" font-size="10.00">+ setHeight()</text>
<text text-anchor="start" x="112.292" y="-207.5" font-family="Helvetica,sans-Serif" font-size="10.00">+ getHeight()</text>
<text text-anchor="start" x="112.292" y="-197.5" font-family="Helvetica,sans-Serif" font-size="10.00">+ toString()</text>
<text text-anchor="start" x="112.292" y="-187.5" font-family="Helvetica,sans-Serif" font-size="10.00">+ className()</text>
<text text-anchor="start" x="112.292" y="-177.5" font-family="Helvetica,sans-Serif" font-size="10.00">+ parameters()</text>
<text text-anchor="start" x="112.292" y="-167.5" font-family="Helvetica,sans-Serif" font-size="10.00">+ configure()</text>
<text text-anchor="start" x="112.292" y="-157.5" font-family="Helvetica,sans-Serif" font-size="10.00">+ membership()</text>
<text text-anchor="start" x="112.292" y="-147.5" font-family="Helvetica,sans-Serif" font-size="10.00">+ clone()</text>
<text text-anchor="start" x="112.292" y="-137.5" font-family="Helvetica,sans-Serif" font-size="10.00">+ updateReference()</text>
</a>
</g>
</g>
<!-- Node3&#45;&gt;Node1 -->
<g id="edge2" class="edge"><title>Node3&#45;&gt;Node1</title>
<path fill="none" stroke="#404040" d="M181.091,-131.265C184.243,-119.341 187.4,-107.398 190.326,-96.3319"/>
<polygon fill="none" stroke="#404040" points="190.331,-96.312 187.998,-89.4889 193.398,-84.7106 195.732,-91.5337 190.331,-96.312"/>
<text text-anchor="middle" x="202.602" y="-105" font-family="Helvetica,sans-Serif" font-size="10.00"> +term</text>
</g>
<!-- Node4 -->
<g id="node4" class="node"><title>Node4</title>
<polygon fill="white" stroke="#bfbfbf" points="230.264,-191.5 230.264,-245.5 356.322,-245.5 356.322,-191.5 230.264,-191.5"/>
<text text-anchor="middle" x="293.293" y="-233.5" font-family="Helvetica,sans-Serif" font-size="10.00">std::vector&lt; fl::Hedge * &gt;</text>
<polyline fill="none" stroke="#bfbfbf" points="230.264,-227.5 356.322,-227.5 "/>
<text text-anchor="middle" x="293.293" y="-215.5" font-family="Helvetica,sans-Serif" font-size="10.00"> </text>
<polyline fill="none" stroke="#bfbfbf" points="230.264,-209.5 356.322,-209.5 "/>
<text text-anchor="middle" x="293.293" y="-197.5" font-family="Helvetica,sans-Serif" font-size="10.00"> </text>
</g>
<!-- Node4&#45;&gt;Node1 -->
<g id="edge3" class="edge"><title>Node4&#45;&gt;Node1</title>
<path fill="none" stroke="#404040" d="M279.969,-191.45C267.042,-166.178 247.062,-127.117 230.878,-95.4749"/>
<polygon fill="none" stroke="#404040" points="230.794,-95.3106 224.5,-91.7904 225.329,-84.6271 231.623,-88.1473 230.794,-95.3106"/>
<text text-anchor="middle" x="259.006" y="-105" font-family="Helvetica,sans-Serif" font-size="10.00"> +hedges</text>
</g>
<!-- Node5 -->
<g id="node5" class="node"><title>Node5</title>
<g id="a_node5"><a xlink:href="../../d3/dba/classfl_1_1_hedge.html" target="_top" xlink:title="The Hedge class is the abstract class for hedges. ">
<polygon fill="white" stroke="black" points="260,-352.5 260,-446.5 326.586,-446.5 326.586,-352.5 260,-352.5"/>
<text text-anchor="middle" x="293.293" y="-434.5" font-family="Helvetica,sans-Serif" font-size="10.00">fl::Hedge</text>
<polyline fill="none" stroke="black" points="260,-428.5 326.586,-428.5 "/>
<text text-anchor="middle" x="293.293" y="-416.5" font-family="Helvetica,sans-Serif" font-size="10.00"> </text>
<polyline fill="none" stroke="black" points="260,-410.5 326.586,-410.5 "/>
<text text-anchor="start" x="268" y="-398.5" font-family="Helvetica,sans-Serif" font-size="10.00">+ Hedge()</text>
<text text-anchor="start" x="268" y="-388.5" font-family="Helvetica,sans-Serif" font-size="10.00">+ ~Hedge()</text>
<text text-anchor="start" x="268" y="-378.5" font-family="Helvetica,sans-Serif" font-size="10.00">+ name()</text>
<text text-anchor="start" x="268" y="-368.5" font-family="Helvetica,sans-Serif" font-size="10.00">+ hedge()</text>
<text text-anchor="start" x="268" y="-358.5" font-family="Helvetica,sans-Serif" font-size="10.00">+ clone()</text>
</a>
</g>
</g>
<!-- Node5&#45;&gt;Node4 -->
<g id="edge4" class="edge"><title>Node5&#45;&gt;Node4</title>
<path fill="none" stroke="#404040" d="M293.293,-352.403C293.293,-323.161 293.293,-285.763 293.293,-258.092"/>
<polygon fill="none" stroke="#404040" points="293.293,-257.748 289.293,-251.748 293.293,-245.748 297.293,-251.748 293.293,-257.748"/>
<text text-anchor="middle" x="317.89" y="-326" font-family="Helvetica,sans-Serif" font-size="10.00"> +elements</text>
</g>
<!-- Node6 -->
<g id="node6" class="node"><title>Node6</title>
<g id="a_node6"><a xlink:href="../../d0/d27/classfl_1_1_variable.html" target="_top" xlink:title="The Variable class is the base class for linguistic variables. ">
<polygon fill="white" stroke="black" points="374.052,-141.5 374.052,-295.5 454.534,-295.5 454.534,-141.5 374.052,-141.5"/>
<text text-anchor="middle" x="414.293" y="-283.5" font-family="Helvetica,sans-Serif" font-size="10.00">fl::Variable</text>
<polyline fill="none" stroke="black" points="374.052,-277.5 454.534,-277.5 "/>
<text text-anchor="middle" x="414.293" y="-265.5" font-family="Helvetica,sans-Serif" font-size="10.00"> </text>
<polyline fill="none" stroke="black" points="374.052,-259.5 454.534,-259.5 "/>
<text text-anchor="start" x="382.052" y="-247.5" font-family="Helvetica,sans-Serif" font-size="10.00">+ Variable()</text>
<text text-anchor="start" x="382.052" y="-237.5" font-family="Helvetica,sans-Serif" font-size="10.00">+ Variable()</text>
<text text-anchor="start" x="382.052" y="-227.5" font-family="Helvetica,sans-Serif" font-size="10.00">+ operator=()</text>
<text text-anchor="start" x="382.052" y="-217.5" font-family="Helvetica,sans-Serif" font-size="10.00">+ ~Variable()</text>
<text text-anchor="start" x="382.052" y="-207.5" font-family="Helvetica,sans-Serif" font-size="10.00">+ setName()</text>
<text text-anchor="start" x="382.052" y="-197.5" font-family="Helvetica,sans-Serif" font-size="10.00">+ getName()</text>
<text text-anchor="start" x="382.052" y="-187.5" font-family="Helvetica,sans-Serif" font-size="10.00">+ setValue()</text>
<text text-anchor="start" x="382.052" y="-177.5" font-family="Helvetica,sans-Serif" font-size="10.00">+ getValue()</text>
<text text-anchor="start" x="382.052" y="-167.5" font-family="Helvetica,sans-Serif" font-size="10.00">+ setRange()</text>
<text text-anchor="start" x="382.052" y="-157.5" font-family="Helvetica,sans-Serif" font-size="10.00">+ range()</text>
<text text-anchor="start" x="382.052" y="-147.5" font-family="Helvetica,sans-Serif" font-size="10.00">and 23 more...</text>
</a>
</g>
</g>
<!-- Node6&#45;&gt;Node1 -->
<g id="edge5" class="edge"><title>Node6&#45;&gt;Node1</title>
<path fill="none" stroke="#404040" d="M374.458,-141.112C371.55,-137.544 368.494,-134.145 365.293,-131 335.12,-101.353 292.856,-78.8974 259.201,-64.1612"/>
<polygon fill="none" stroke="#404040" points="259.191,-64.1568 252.104,-65.4896 248.148,-59.4604 255.235,-58.1277 259.191,-64.1568"/>
<text text-anchor="middle" x="365.112" y="-105" font-family="Helvetica,sans-Serif" font-size="10.00"> +variable</text>
</g>
</g>
</svg>
