<?xml version="1.0" encoding="UTF-8" standalone="no"?>
<!DOCTYPE svg PUBLIC "-//W3C//DTD SVG 1.1//EN"
 "http://www.w3.org/Graphics/SVG/1.1/DTD/svg11.dtd">
<!-- Generated by graphviz version 2.38.0 (20140413.2041)
 -->
<!-- Title: fl::Console Pages: 1 -->
<svg width="211pt" height="516pt"
 viewBox="0.00 0.00 211.35 516.00" xmlns="http://www.w3.org/2000/svg" xmlns:xlink="http://www.w3.org/1999/xlink">
<g id="graph0" class="graph" transform="scale(1 1) rotate(0) translate(4 512)">
<title>fl::Console</title>
<polygon fill="white" stroke="none" points="-4,4 -4,-512 207.352,-512 207.352,4 -4,4"/>
<!-- Node1 -->
<g id="node1" class="node"><title>Node1</title>
<polygon fill="#bfbfbf" stroke="black" points="0,-0.5 0,-204.5 113.812,-204.5 113.812,-0.5 0,-0.5"/>
<text text-anchor="middle" x="56.9062" y="-192.5" font-family="Helvetica,sans-Serif" font-size="10.00">fl::Console</text>
<polyline fill="none" stroke="black" points="0,-186.5 113.812,-186.5 "/>
<text text-anchor="start" x="8" y="-174.5" font-family="Helvetica,sans-Serif" font-size="10.00">+ KW_INPUT_FILE</text>
<polyline fill="none" stroke="black" points="0,-168.5 113.812,-168.5 "/>
<text text-anchor="start" x="8" y="-156.5" font-family="Helvetica,sans-Serif" font-size="10.00">+ usage()</text>
<text text-anchor="start" x="8" y="-146.5" font-family="Helvetica,sans-Serif" font-size="10.00">+ availableOptions()</text>
<text text-anchor="start" x="8" y="-136.5" font-family="Helvetica,sans-Serif" font-size="10.00">+ mamdani()</text>
<text text-anchor="start" x="8" y="-126.5" font-family="Helvetica,sans-Serif" font-size="10.00">+ takagiSugeno()</text>
<text text-anchor="start" x="8" y="-116.5" font-family="Helvetica,sans-Serif" font-size="10.00">+ hybrid()</text>
<text text-anchor="start" x="8" y="-106.5" font-family="Helvetica,sans-Serif" font-size="10.00">+ main()</text>
<text text-anchor="start" x="8" y="-96.5" font-family="Helvetica,sans-Serif" font-size="10.00"># parse()</text>
<text text-anchor="start" x="8" y="-86.5" font-family="Helvetica,sans-Serif" font-size="10.00"># process()</text>
<text text-anchor="start" x="8" y="-76.5" font-family="Helvetica,sans-Serif" font-size="10.00"># process()</text>
<text text-anchor="start" x="8" y="-66.5" font-family="Helvetica,sans-Serif" font-size="10.00"># readCharacter()</text>
<text text-anchor="start" x="8" y="-56.5" font-family="Helvetica,sans-Serif" font-size="10.00"># interactive()</text>
<text text-anchor="start" x="8" y="-46.5" font-family="Helvetica,sans-Serif" font-size="10.00"># interactiveHelp()</text>
<text text-anchor="start" x="8" y="-36.5" font-family="Helvetica,sans-Serif" font-size="10.00"># exportAllExamples()</text>
<text text-anchor="start" x="8" y="-26.5" font-family="Helvetica,sans-Serif" font-size="10.00"># exportAllExamples()</text>
<text text-anchor="start" x="8" y="-16.5" font-family="Helvetica,sans-Serif" font-size="10.00"># benchmark()</text>
<text text-anchor="start" x="8" y="-6.5" font-family="Helvetica,sans-Serif" font-size="10.00"># benchmarks()</text>
</g>
<!-- Node2 -->
<g id="node2" class="node"><title>Node2</title>
<g id="a_node2"><a xlink:title="STL class. ">
<polygon fill="white" stroke="#bfbfbf" points="27.2314,-351.5 27.2314,-405.5 86.5811,-405.5 86.5811,-351.5 27.2314,-351.5"/>
<text text-anchor="middle" x="56.9062" y="-393.5" font-family="Helvetica,sans-Serif" font-size="10.00">std::string</text>
<polyline fill="none" stroke="#bfbfbf" points="27.2314,-387.5 86.5811,-387.5 "/>
<text text-anchor="middle" x="56.9062" y="-375.5" font-family="Helvetica,sans-Serif" font-size="10.00"> </text>
<polyline fill="none" stroke="#bfbfbf" points="27.2314,-369.5 86.5811,-369.5 "/>
<text text-anchor="middle" x="56.9062" y="-357.5" font-family="Helvetica,sans-Serif" font-size="10.00"> </text>
</a>
</g>
</g>
<!-- Node2&#45;&gt;Node1 -->
<g id="edge1" class="edge"><title>Node2&#45;&gt;Node1</title>
<path fill="none" stroke="#404040" d="M56.9062,-351.228C56.9062,-320.168 56.9062,-266.43 56.9062,-216.926"/>
<polygon fill="none" stroke="#404040" points="56.9063,-216.782 52.9063,-210.782 56.9062,-204.782 60.9063,-210.782 56.9063,-216.782"/>
<text text-anchor="middle" x="130.129" y="-325" font-family="Helvetica,sans-Serif" font-size="10.00"> +KW_DATA_VALUES</text>
<text text-anchor="middle" x="130.129" y="-315" font-family="Helvetica,sans-Serif" font-size="10.00">+KW_OUTPUT_FILE</text>
<text text-anchor="middle" x="130.129" y="-305" font-family="Helvetica,sans-Serif" font-size="10.00">+KW_DATA_EXPORT_INPUTS</text>
<text text-anchor="middle" x="130.129" y="-295" font-family="Helvetica,sans-Serif" font-size="10.00">+KW_DECIMALS</text>
<text text-anchor="middle" x="130.129" y="-285" font-family="Helvetica,sans-Serif" font-size="10.00">+KW_DATA_INPUT_FILE</text>
<text text-anchor="middle" x="130.129" y="-275" font-family="Helvetica,sans-Serif" font-size="10.00">+KW_INPUT_FORMAT</text>
<text text-anchor="middle" x="130.129" y="-265" font-family="Helvetica,sans-Serif" font-size="10.00">+KW_DATA_EXPORT_HEADER</text>
<text text-anchor="middle" x="130.129" y="-255" font-family="Helvetica,sans-Serif" font-size="10.00">+KW_EXAMPLE</text>
<text text-anchor="middle" x="130.129" y="-245" font-family="Helvetica,sans-Serif" font-size="10.00">+KW_DATA_VALUES_SCOPE</text>
<text text-anchor="middle" x="130.129" y="-235" font-family="Helvetica,sans-Serif" font-size="10.00">+KW_OUTPUT_FORMAT</text>
<text text-anchor="middle" x="130.129" y="-225" font-family="Helvetica,sans-Serif" font-size="10.00">...</text>
</g>
<!-- Node3 -->
<g id="node3" class="node"><title>Node3</title>
<g id="a_node3"><a xlink:title="STL class. ">
<polygon fill="white" stroke="#bfbfbf" points="9.8584,-443.5 9.8584,-507.5 103.954,-507.5 103.954,-443.5 9.8584,-443.5"/>
<text text-anchor="start" x="17.8584" y="-495.5" font-family="Helvetica,sans-Serif" font-size="10.00">std::basic_string&lt;</text>
<text text-anchor="middle" x="56.9062" y="-485.5" font-family="Helvetica,sans-Serif" font-size="10.00"> char &gt;</text>
<polyline fill="none" stroke="#bfbfbf" points="9.8584,-479.5 103.954,-479.5 "/>
<text text-anchor="middle" x="56.9062" y="-467.5" font-family="Helvetica,sans-Serif" font-size="10.00"> </text>
<polyline fill="none" stroke="#bfbfbf" points="9.8584,-461.5 103.954,-461.5 "/>
<text text-anchor="middle" x="56.9062" y="-449.5" font-family="Helvetica,sans-Serif" font-size="10.00"> </text>
</a>
</g>
</g>
<!-- Node3&#45;&gt;Node2 -->
<g id="edge2" class="edge"><title>Node3&#45;&gt;Node2</title>
<path fill="none" stroke="midnightblue" d="M56.9062,-433.37C56.9062,-423.943 56.9062,-414.176 56.9062,-405.589"/>
<polygon fill="none" stroke="midnightblue" points="53.4063,-433.393 56.9062,-443.393 60.4063,-433.393 53.4063,-433.393"/>
</g>
</g>
</svg>
