<?xml version="1.0" encoding="UTF-8" standalone="no"?>
<!DOCTYPE svg PUBLIC "-//W3C//DTD SVG 1.1//EN"
 "http://www.w3.org/Graphics/SVG/1.1/DTD/svg11.dtd">
<!-- Generated by graphviz version 2.38.0 (20140413.2041)
 -->
<!-- Title: fuzzylite/fl/factory/FactoryManager.h Pages: 1 -->
<svg width="1630pt" height="532pt"
 viewBox="0.00 0.00 1629.64 532.00" xmlns="http://www.w3.org/2000/svg" xmlns:xlink="http://www.w3.org/1999/xlink">
<g id="graph0" class="graph" transform="scale(1 1) rotate(0) translate(4 528)">
<title>fuzzylite/fl/factory/FactoryManager.h</title>
<polygon fill="white" stroke="none" points="-4,4 -4,-528 1625.64,-528 1625.64,4 -4,4"/>
<!-- Node0 -->
<g id="node1" class="node"><title>Node0</title>
<polygon fill="#bfbfbf" stroke="black" points="437.227,-495.5 437.227,-523.5 536.606,-523.5 536.606,-495.5 437.227,-495.5"/>
<text text-anchor="start" x="445.227" y="-511.5" font-family="Helvetica,sans-Serif" font-size="10.00">fuzzylite/fl/factory</text>
<text text-anchor="middle" x="486.917" y="-501.5" font-family="Helvetica,sans-Serif" font-size="10.00">/FactoryManager.h</text>
</g>
<!-- Node1 -->
<g id="node2" class="node"><title>Node1</title>
<g id="a_node2"><a xlink:href="../../de/d53/fuzzylite_8h.html" target="_top" xlink:title="fl/fuzzylite.h">
<polygon fill="white" stroke="black" points="534.796,-55.5 534.796,-73.5 603.037,-73.5 603.037,-55.5 534.796,-55.5"/>
<text text-anchor="middle" x="568.917" y="-61.5" font-family="Helvetica,sans-Serif" font-size="10.00">fl/fuzzylite.h</text>
</a>
</g>
</g>
<!-- Node0&#45;&gt;Node1 -->
<g id="edge1" class="edge"><title>Node0&#45;&gt;Node1</title>
<path fill="none" stroke="midnightblue" d="M437.152,-506.312C323.371,-500.875 51.5576,-485.265 19.9166,-459 -2.74991,-440.184 0.916638,-424.958 0.916638,-395.5 0.916638,-395.5 0.916638,-395.5 0.916638,-173.5 0.916638,-128.452 38.1481,-126.872 79.9166,-110 159.964,-77.6655 419.449,-68.6403 524.327,-66.281"/>
<polygon fill="midnightblue" stroke="midnightblue" points="524.649,-69.775 534.572,-66.0609 524.499,-62.7766 524.649,-69.775"/>
</g>
<!-- Node9 -->
<g id="node10" class="node"><title>Node9</title>
<g id="a_node10"><a xlink:href="../../d8/d57/_t_norm_factory_8h.html" target="_top" xlink:title="fl/factory/TNormFactory.h">
<polygon fill="white" stroke="black" points="641.886,-440.5 641.886,-458.5 769.947,-458.5 769.947,-440.5 641.886,-440.5"/>
<text text-anchor="middle" x="705.917" y="-446.5" font-family="Helvetica,sans-Serif" font-size="10.00">fl/factory/TNormFactory.h</text>
</a>
</g>
</g>
<!-- Node0&#45;&gt;Node9 -->
<g id="edge9" class="edge"><title>Node0&#45;&gt;Node9</title>
<path fill="none" stroke="midnightblue" d="M536.065,-495.484C575.142,-485.134 629.132,-470.836 665.672,-461.158"/>
<polygon fill="midnightblue" stroke="midnightblue" points="666.717,-464.502 675.488,-458.559 664.925,-457.736 666.717,-464.502"/>
</g>
<!-- Node27 -->
<g id="node28" class="node"><title>Node27</title>
<g id="a_node28"><a xlink:href="../../d8/d70/_s_norm_factory_8h.html" target="_top" xlink:title="fl/factory/SNormFactory.h">
<polygon fill="white" stroke="black" points="495.606,-440.5 495.606,-458.5 624.228,-458.5 624.228,-440.5 495.606,-440.5"/>
<text text-anchor="middle" x="559.917" y="-446.5" font-family="Helvetica,sans-Serif" font-size="10.00">fl/factory/SNormFactory.h</text>
</a>
</g>
</g>
<!-- Node0&#45;&gt;Node27 -->
<g id="edge57" class="edge"><title>Node0&#45;&gt;Node27</title>
<path fill="none" stroke="midnightblue" d="M503.481,-495.339C514.855,-486.302 529.954,-474.306 541.672,-464.995"/>
<polygon fill="midnightblue" stroke="midnightblue" points="543.854,-467.733 549.506,-458.771 539.499,-462.252 543.854,-467.733"/>
</g>
<!-- Node28 -->
<g id="node29" class="node"><title>Node28</title>
<g id="a_node29"><a xlink:href="../../d0/d04/_activation_factory_8h.html" target="_top" xlink:title="fl/factory/ActivationFactory.h">
<polygon fill="white" stroke="black" points="28.485,-440.5 28.485,-458.5 169.348,-458.5 169.348,-440.5 28.485,-440.5"/>
<text text-anchor="middle" x="98.9166" y="-446.5" font-family="Helvetica,sans-Serif" font-size="10.00">fl/factory/ActivationFactory.h</text>
</a>
</g>
</g>
<!-- Node0&#45;&gt;Node28 -->
<g id="edge60" class="edge"><title>Node0&#45;&gt;Node28</title>
<path fill="none" stroke="midnightblue" d="M436.987,-501.036C366.96,-490.568 239.559,-471.524 162.734,-460.04"/>
<polygon fill="midnightblue" stroke="midnightblue" points="163.109,-456.557 152.702,-458.54 162.074,-463.48 163.109,-456.557"/>
</g>
<!-- Node30 -->
<g id="node31" class="node"><title>Node30</title>
<g id="a_node31"><a xlink:href="../../d3/d9c/_defuzzifier_factory_8h.html" target="_top" xlink:title="fl/factory/DefuzzifierFactory.h">
<polygon fill="white" stroke="black" points="187.544,-440.5 187.544,-458.5 332.289,-458.5 332.289,-440.5 187.544,-440.5"/>
<text text-anchor="middle" x="259.917" y="-446.5" font-family="Helvetica,sans-Serif" font-size="10.00">fl/factory/DefuzzifierFactory.h</text>
</a>
</g>
</g>
<!-- Node0&#45;&gt;Node30 -->
<g id="edge66" class="edge"><title>Node0&#45;&gt;Node30</title>
<path fill="none" stroke="midnightblue" d="M437.101,-495.772C396.367,-485.364 339.454,-470.822 301.223,-461.054"/>
<polygon fill="midnightblue" stroke="midnightblue" points="302.002,-457.641 291.446,-458.556 300.269,-464.423 302.002,-457.641"/>
</g>
<!-- Node33 -->
<g id="node34" class="node"><title>Node33</title>
<g id="a_node34"><a xlink:href="../../dd/de7/_term_factory_8h.html" target="_top" xlink:title="fl/factory/TermFactory.h">
<polygon fill="white" stroke="black" points="788.051,-440.5 788.051,-458.5 907.782,-458.5 907.782,-440.5 788.051,-440.5"/>
<text text-anchor="middle" x="847.917" y="-446.5" font-family="Helvetica,sans-Serif" font-size="10.00">fl/factory/TermFactory.h</text>
</a>
</g>
</g>
<!-- Node0&#45;&gt;Node33 -->
<g id="edge73" class="edge"><title>Node0&#45;&gt;Node33</title>
<path fill="none" stroke="midnightblue" d="M536.733,-500.496C602.363,-489.952 717.676,-471.425 787.995,-460.127"/>
<polygon fill="midnightblue" stroke="midnightblue" points="788.714,-463.557 798.032,-458.515 787.604,-456.645 788.714,-463.557"/>
</g>
<!-- Node34 -->
<g id="node35" class="node"><title>Node34</title>
<g id="a_node35"><a xlink:href="../../d0/d3d/_hedge_factory_8h.html" target="_top" xlink:title="fl/factory/HedgeFactory.h">
<polygon fill="white" stroke="black" points="350.428,-440.5 350.428,-458.5 477.405,-458.5 477.405,-440.5 350.428,-440.5"/>
<text text-anchor="middle" x="413.917" y="-446.5" font-family="Helvetica,sans-Serif" font-size="10.00">fl/factory/HedgeFactory.h</text>
</a>
</g>
</g>
<!-- Node0&#45;&gt;Node34 -->
<g id="edge76" class="edge"><title>Node0&#45;&gt;Node34</title>
<path fill="none" stroke="midnightblue" d="M470.352,-495.339C458.978,-486.302 443.879,-474.306 432.161,-464.995"/>
<polygon fill="midnightblue" stroke="midnightblue" points="434.334,-462.252 424.327,-458.771 429.98,-467.733 434.334,-462.252"/>
</g>
<!-- Node35 -->
<g id="node36" class="node"><title>Node35</title>
<g id="a_node36"><a xlink:href="../../d0/d6a/_function_factory_8h.html" target="_top" xlink:title="fl/factory/FunctionFactory.h">
<polygon fill="white" stroke="black" points="1111.98,-440.5 1111.98,-458.5 1247.85,-458.5 1247.85,-440.5 1111.98,-440.5"/>
<text text-anchor="middle" x="1179.92" y="-446.5" font-family="Helvetica,sans-Serif" font-size="10.00">fl/factory/FunctionFactory.h</text>
</a>
</g>
</g>
<!-- Node0&#45;&gt;Node35 -->
<g id="edge79" class="edge"><title>Node0&#45;&gt;Node35</title>
<path fill="none" stroke="midnightblue" d="M536.755,-504.329C655.94,-494.354 958.173,-469.059 1101.81,-457.037"/>
<polygon fill="midnightblue" stroke="midnightblue" points="1102.19,-460.517 1111.87,-456.195 1101.61,-453.542 1102.19,-460.517"/>
</g>
<!-- Node2 -->
<g id="node3" class="node"><title>Node2</title>
<polygon fill="white" stroke="#bfbfbf" points="1251.35,-0.5 1251.35,-18.5 1308.48,-18.5 1308.48,-0.5 1251.35,-0.5"/>
<text text-anchor="middle" x="1279.92" y="-6.5" font-family="Helvetica,sans-Serif" font-size="10.00">algorithm</text>
</g>
<!-- Node1&#45;&gt;Node2 -->
<g id="edge2" class="edge"><title>Node1&#45;&gt;Node2</title>
<path fill="none" stroke="midnightblue" d="M603.21,-60.9437C721.941,-52.0932 1115.09,-22.7867 1240.86,-13.4115"/>
<polygon fill="midnightblue" stroke="midnightblue" points="1241.45,-16.8773 1251.16,-12.6436 1240.93,-9.8967 1241.45,-16.8773"/>
</g>
<!-- Node3 -->
<g id="node4" class="node"><title>Node3</title>
<polygon fill="white" stroke="#bfbfbf" points="913.301,-0.5 913.301,-18.5 956.532,-18.5 956.532,-0.5 913.301,-0.5"/>
<text text-anchor="middle" x="934.917" y="-6.5" font-family="Helvetica,sans-Serif" font-size="10.00">cmath</text>
</g>
<!-- Node1&#45;&gt;Node3 -->
<g id="edge3" class="edge"><title>Node1&#45;&gt;Node3</title>
<path fill="none" stroke="midnightblue" d="M603.349,-58.5139C673.955,-48.2895 834.25,-25.0774 902.824,-15.1474"/>
<polygon fill="midnightblue" stroke="midnightblue" points="903.619,-18.5688 913.014,-13.6717 902.615,-11.6411 903.619,-18.5688"/>
</g>
<!-- Node4 -->
<g id="node5" class="node"><title>Node4</title>
<polygon fill="white" stroke="#bfbfbf" points="541.744,-0.5 541.744,-18.5 596.089,-18.5 596.089,-0.5 541.744,-0.5"/>
<text text-anchor="middle" x="568.917" y="-6.5" font-family="Helvetica,sans-Serif" font-size="10.00">iostream</text>
</g>
<!-- Node1&#45;&gt;Node4 -->
<g id="edge4" class="edge"><title>Node1&#45;&gt;Node4</title>
<path fill="none" stroke="midnightblue" d="M568.917,-55.2188C568.917,-48.1769 568.917,-37.8083 568.917,-28.8277"/>
<polygon fill="midnightblue" stroke="midnightblue" points="572.417,-28.5495 568.917,-18.5496 565.417,-28.5496 572.417,-28.5495"/>
</g>
<!-- Node5 -->
<g id="node6" class="node"><title>Node5</title>
<polygon fill="white" stroke="#bfbfbf" points="614.136,-0.5 614.136,-18.5 665.697,-18.5 665.697,-0.5 614.136,-0.5"/>
<text text-anchor="middle" x="639.917" y="-6.5" font-family="Helvetica,sans-Serif" font-size="10.00">sstream</text>
</g>
<!-- Node1&#45;&gt;Node5 -->
<g id="edge5" class="edge"><title>Node1&#45;&gt;Node5</title>
<path fill="none" stroke="midnightblue" d="M579.7,-55.4504C590.543,-47.3566 607.492,-34.7042 620.65,-24.8822"/>
<polygon fill="midnightblue" stroke="midnightblue" points="623.112,-27.412 629.032,-18.6253 618.925,-21.8025 623.112,-27.412"/>
</g>
<!-- Node6 -->
<g id="node7" class="node"><title>Node6</title>
<polygon fill="white" stroke="#bfbfbf" points="683.53,-0.5 683.53,-18.5 722.303,-18.5 722.303,-0.5 683.53,-0.5"/>
<text text-anchor="middle" x="702.917" y="-6.5" font-family="Helvetica,sans-Serif" font-size="10.00">limits</text>
</g>
<!-- Node1&#45;&gt;Node6 -->
<g id="edge6" class="edge"><title>Node1&#45;&gt;Node6</title>
<path fill="none" stroke="midnightblue" d="M589.268,-55.4504C611.761,-46.5539 648.18,-32.1498 673.713,-22.0506"/>
<polygon fill="midnightblue" stroke="midnightblue" points="675.236,-25.2121 683.248,-18.2794 672.662,-18.7028 675.236,-25.2121"/>
</g>
<!-- Node7 -->
<g id="node8" class="node"><title>Node7</title>
<polygon fill="white" stroke="#bfbfbf" points="405.86,-0.5 405.86,-18.5 457.973,-18.5 457.973,-0.5 405.86,-0.5"/>
<text text-anchor="middle" x="431.917" y="-6.5" font-family="Helvetica,sans-Serif" font-size="10.00">memory</text>
</g>
<!-- Node1&#45;&gt;Node7 -->
<g id="edge7" class="edge"><title>Node1&#45;&gt;Node7</title>
<path fill="none" stroke="midnightblue" d="M548.109,-55.4504C525.276,-46.6173 488.409,-32.3546 462.333,-22.267"/>
<polygon fill="midnightblue" stroke="midnightblue" points="463.509,-18.9692 452.92,-18.6253 460.983,-25.4977 463.509,-18.9692"/>
</g>
<!-- Node8 -->
<g id="node9" class="node"><title>Node8</title>
<polygon fill="white" stroke="#bfbfbf" points="475.796,-0.5 475.796,-18.5 524.037,-18.5 524.037,-0.5 475.796,-0.5"/>
<text text-anchor="middle" x="499.917" y="-6.5" font-family="Helvetica,sans-Serif" font-size="10.00">cstddef</text>
</g>
<!-- Node1&#45;&gt;Node8 -->
<g id="edge8" class="edge"><title>Node1&#45;&gt;Node8</title>
<path fill="none" stroke="midnightblue" d="M558.437,-55.4504C547.9,-47.3566 531.428,-34.7042 518.641,-24.8822"/>
<polygon fill="midnightblue" stroke="midnightblue" points="520.557,-21.9412 510.495,-18.6253 516.293,-27.4926 520.557,-21.9412"/>
</g>
<!-- Node10 -->
<g id="node11" class="node"><title>Node10</title>
<g id="a_node11"><a xlink:href="../../d7/dd8/_construction_factory_8h.html" target="_top" xlink:title="fl/factory/ConstructionFactory.h">
<polygon fill="white" stroke="black" points="492.093,-385.5 492.093,-403.5 645.74,-403.5 645.74,-385.5 492.093,-385.5"/>
<text text-anchor="middle" x="568.917" y="-391.5" font-family="Helvetica,sans-Serif" font-size="10.00">fl/factory/ConstructionFactory.h</text>
</a>
</g>
</g>
<!-- Node9&#45;&gt;Node10 -->
<g id="edge10" class="edge"><title>Node9&#45;&gt;Node10</title>
<path fill="none" stroke="midnightblue" d="M685.109,-440.45C662.276,-431.617 625.409,-417.355 599.333,-407.267"/>
<polygon fill="midnightblue" stroke="midnightblue" points="600.509,-403.969 589.92,-403.625 597.983,-410.498 600.509,-403.969"/>
</g>
<!-- Node21 -->
<g id="node22" class="node"><title>Node21</title>
<g id="a_node22"><a xlink:href="../../d0/d24/_t_norm_8h.html" target="_top" xlink:title="fl/norm/TNorm.h">
<polygon fill="white" stroke="black" points="598.801,-220.5 598.801,-238.5 687.032,-238.5 687.032,-220.5 598.801,-220.5"/>
<text text-anchor="middle" x="642.917" y="-226.5" font-family="Helvetica,sans-Serif" font-size="10.00">fl/norm/TNorm.h</text>
</a>
</g>
</g>
<!-- Node9&#45;&gt;Node21 -->
<g id="edge56" class="edge"><title>Node9&#45;&gt;Node21</title>
<path fill="none" stroke="midnightblue" d="M703.6,-440.483C694.513,-409.041 661.172,-293.67 648.164,-248.657"/>
<polygon fill="midnightblue" stroke="midnightblue" points="651.461,-247.458 645.322,-238.823 644.736,-249.402 651.461,-247.458"/>
</g>
<!-- Node10&#45;&gt;Node1 -->
<g id="edge11" class="edge"><title>Node10&#45;&gt;Node1</title>
<path fill="none" stroke="midnightblue" d="M538.266,-385.482C455.306,-363.69 231.727,-304.311 218.917,-294 169.804,-254.469 126.772,-218.63 159.917,-165 198.375,-102.772 426.827,-77.0206 524.581,-68.7513"/>
<polygon fill="midnightblue" stroke="midnightblue" points="525.052,-72.2245 534.731,-67.9161 524.478,-65.2481 525.052,-72.2245"/>
</g>
<!-- Node11 -->
<g id="node12" class="node"><title>Node11</title>
<polygon fill="white" stroke="#bfbfbf" points="1586.19,-165.5 1586.19,-183.5 1621.64,-183.5 1621.64,-165.5 1586.19,-165.5"/>
<text text-anchor="middle" x="1603.92" y="-171.5" font-family="Helvetica,sans-Serif" font-size="10.00">map</text>
</g>
<!-- Node10&#45;&gt;Node11 -->
<g id="edge12" class="edge"><title>Node10&#45;&gt;Node11</title>
<path fill="none" stroke="midnightblue" d="M646.12,-392.201C868.663,-388.16 1497.92,-374.522 1533.92,-349 1585.8,-312.217 1599.27,-230.199 1602.73,-193.664"/>
<polygon fill="midnightblue" stroke="midnightblue" points="1606.24,-193.762 1603.54,-183.515 1599.26,-193.205 1606.24,-193.762"/>
</g>
<!-- Node12 -->
<g id="node13" class="node"><title>Node12</title>
<polygon fill="white" stroke="#bfbfbf" points="808.69,-110.5 808.69,-128.5 849.143,-128.5 849.143,-110.5 808.69,-110.5"/>
<text text-anchor="middle" x="828.917" y="-116.5" font-family="Helvetica,sans-Serif" font-size="10.00">string</text>
</g>
<!-- Node10&#45;&gt;Node12 -->
<g id="edge13" class="edge"><title>Node10&#45;&gt;Node12</title>
<path fill="none" stroke="midnightblue" d="M576.698,-385.33C612.955,-347.26 765.602,-186.98 814.077,-136.082"/>
<polygon fill="midnightblue" stroke="midnightblue" points="816.804,-138.294 821.166,-128.638 811.735,-133.466 816.804,-138.294"/>
</g>
<!-- Node13 -->
<g id="node14" class="node"><title>Node13</title>
<polygon fill="white" stroke="#bfbfbf" points="1397.3,-55.5 1397.3,-73.5 1440.53,-73.5 1440.53,-55.5 1397.3,-55.5"/>
<text text-anchor="middle" x="1418.92" y="-61.5" font-family="Helvetica,sans-Serif" font-size="10.00">vector</text>
</g>
<!-- Node10&#45;&gt;Node13 -->
<g id="edge14" class="edge"><title>Node10&#45;&gt;Node13</title>
<path fill="none" stroke="midnightblue" d="M645.935,-392.798C872.336,-389.723 1519.92,-373.256 1519.92,-285.5 1519.92,-285.5 1519.92,-285.5 1519.92,-173.5 1519.92,-129.487 1474.62,-95.987 1444.69,-78.6586"/>
<polygon fill="midnightblue" stroke="midnightblue" points="1446.04,-75.4014 1435.59,-73.608 1442.64,-81.5216 1446.04,-75.4014"/>
</g>
<!-- Node14 -->
<g id="node15" class="node"><title>Node14</title>
<g id="a_node15"><a xlink:href="../../df/d98/_exception_8h.html" target="_top" xlink:title="fl/Exception.h">
<polygon fill="white" stroke="black" points="1182.9,-165.5 1182.9,-183.5 1258.93,-183.5 1258.93,-165.5 1182.9,-165.5"/>
<text text-anchor="middle" x="1220.92" y="-171.5" font-family="Helvetica,sans-Serif" font-size="10.00">fl/Exception.h</text>
</a>
</g>
</g>
<!-- Node10&#45;&gt;Node14 -->
<g id="edge15" class="edge"><title>Node10&#45;&gt;Node14</title>
<path fill="none" stroke="midnightblue" d="M645.972,-389.027C786.275,-379.515 1076.31,-353.123 1155.92,-294 1190.04,-268.661 1208.41,-219.858 1216.24,-193.478"/>
<polygon fill="midnightblue" stroke="midnightblue" points="1219.66,-194.252 1218.97,-183.679 1212.92,-192.376 1219.66,-194.252"/>
</g>
<!-- Node16 -->
<g id="node17" class="node"><title>Node16</title>
<g id="a_node17"><a xlink:href="../../d7/d8a/_defuzzifier_8h.html" target="_top" xlink:title="fl/defuzzifier/Defuzzifier.h">
<polygon fill="white" stroke="black" points="232.336,-220.5 232.336,-238.5 359.498,-238.5 359.498,-220.5 232.336,-220.5"/>
<text text-anchor="middle" x="295.917" y="-226.5" font-family="Helvetica,sans-Serif" font-size="10.00">fl/defuzzifier/Defuzzifier.h</text>
</a>
</g>
</g>
<!-- Node10&#45;&gt;Node16 -->
<g id="edge20" class="edge"><title>Node10&#45;&gt;Node16</title>
<path fill="none" stroke="midnightblue" d="M559.628,-385.39C535.689,-364.794 469.386,-309.649 406.917,-275 382.403,-261.403 352.87,-249.77 330.431,-241.812"/>
<polygon fill="midnightblue" stroke="midnightblue" points="331.57,-238.502 320.975,-238.525 329.272,-245.114 331.57,-238.502"/>
</g>
<!-- Node18 -->
<g id="node19" class="node"><title>Node18</title>
<g id="a_node19"><a xlink:href="../../d2/dd9/_hedge_8h.html" target="_top" xlink:title="fl/hedge/Hedge.h">
<polygon fill="white" stroke="black" points="488.831,-165.5 488.831,-183.5 581.003,-183.5 581.003,-165.5 488.831,-165.5"/>
<text text-anchor="middle" x="534.917" y="-171.5" font-family="Helvetica,sans-Serif" font-size="10.00">fl/hedge/Hedge.h</text>
</a>
</g>
</g>
<!-- Node10&#45;&gt;Node18 -->
<g id="edge26" class="edge"><title>Node10&#45;&gt;Node18</title>
<path fill="none" stroke="midnightblue" d="M562.425,-385.446C545.257,-363.562 498.882,-300.507 482.917,-239 480.795,-230.826 479.385,-227.67 482.917,-220 488.74,-207.352 500.128,-196.958 510.767,-189.406"/>
<polygon fill="midnightblue" stroke="midnightblue" points="512.951,-192.159 519.388,-183.743 509.108,-186.308 512.951,-192.159"/>
</g>
<!-- Node19 -->
<g id="node20" class="node"><title>Node19</title>
<g id="a_node20"><a xlink:href="../../de/d44/_s_norm_8h.html" target="_top" xlink:title="fl/norm/SNorm.h">
<polygon fill="white" stroke="black" points="491.52,-220.5 491.52,-238.5 580.313,-238.5 580.313,-220.5 491.52,-220.5"/>
<text text-anchor="middle" x="535.917" y="-226.5" font-family="Helvetica,sans-Serif" font-size="10.00">fl/norm/SNorm.h</text>
</a>
</g>
</g>
<!-- Node10&#45;&gt;Node19 -->
<g id="edge30" class="edge"><title>Node10&#45;&gt;Node19</title>
<path fill="none" stroke="midnightblue" d="M568.607,-385.317C567.716,-365.88 564.489,-315.533 553.917,-275 551.521,-265.815 547.693,-255.993 544.183,-247.92"/>
<polygon fill="midnightblue" stroke="midnightblue" points="547.364,-246.462 540.037,-238.809 540.993,-249.361 547.364,-246.462"/>
</g>
<!-- Node10&#45;&gt;Node21 -->
<g id="edge35" class="edge"><title>Node10&#45;&gt;Node21</title>
<path fill="none" stroke="midnightblue" d="M572.688,-385.193C584.219,-359.794 619.177,-282.791 634.994,-247.952"/>
<polygon fill="midnightblue" stroke="midnightblue" points="638.294,-249.15 639.241,-238.597 631.92,-246.256 638.294,-249.15"/>
</g>
<!-- Node22 -->
<g id="node23" class="node"><title>Node22</title>
<g id="a_node23"><a xlink:href="../../d8/d11/_term_8h.html" target="_top" xlink:title="fl/term/Term.h">
<polygon fill="white" stroke="black" points="809.358,-330.5 809.358,-348.5 886.476,-348.5 886.476,-330.5 809.358,-330.5"/>
<text text-anchor="middle" x="847.917" y="-336.5" font-family="Helvetica,sans-Serif" font-size="10.00">fl/term/Term.h</text>
</a>
</g>
</g>
<!-- Node10&#45;&gt;Node22 -->
<g id="edge37" class="edge"><title>Node10&#45;&gt;Node22</title>
<path fill="none" stroke="midnightblue" d="M611.291,-385.45C661.844,-375.847 746.181,-359.826 799.329,-349.73"/>
<polygon fill="midnightblue" stroke="midnightblue" points="800.027,-353.16 809.198,-347.855 798.721,-346.283 800.027,-353.16"/>
</g>
<!-- Node14&#45;&gt;Node1 -->
<g id="edge16" class="edge"><title>Node14&#45;&gt;Node1</title>
<path fill="none" stroke="midnightblue" d="M1197.48,-165.486C1156.78,-151.893 1070.17,-124.395 994.917,-110 857.324,-83.6812 691.542,-71.9996 613.572,-67.665"/>
<polygon fill="midnightblue" stroke="midnightblue" points="613.339,-64.1473 603.165,-67.1013 612.961,-71.1371 613.339,-64.1473"/>
</g>
<!-- Node14&#45;&gt;Node12 -->
<g id="edge18" class="edge"><title>Node14&#45;&gt;Node12</title>
<path fill="none" stroke="midnightblue" d="M1182.62,-168.322C1104.92,-157.817 930.171,-134.19 859.47,-124.631"/>
<polygon fill="midnightblue" stroke="midnightblue" points="859.811,-121.145 849.432,-123.274 858.873,-128.082 859.811,-121.145"/>
</g>
<!-- Node14&#45;&gt;Node13 -->
<g id="edge19" class="edge"><title>Node14&#45;&gt;Node13</title>
<path fill="none" stroke="midnightblue" d="M1235.8,-165.382C1269.92,-146.768 1354.04,-100.886 1395.31,-78.3754"/>
<polygon fill="midnightblue" stroke="midnightblue" points="1397.03,-81.4256 1404.13,-73.5644 1393.68,-75.2804 1397.03,-81.4256"/>
</g>
<!-- Node15 -->
<g id="node16" class="node"><title>Node15</title>
<polygon fill="white" stroke="#bfbfbf" points="1191.51,-110.5 1191.51,-128.5 1250.32,-128.5 1250.32,-110.5 1191.51,-110.5"/>
<text text-anchor="middle" x="1220.92" y="-116.5" font-family="Helvetica,sans-Serif" font-size="10.00">exception</text>
</g>
<!-- Node14&#45;&gt;Node15 -->
<g id="edge17" class="edge"><title>Node14&#45;&gt;Node15</title>
<path fill="none" stroke="midnightblue" d="M1220.92,-165.219C1220.92,-158.177 1220.92,-147.808 1220.92,-138.828"/>
<polygon fill="midnightblue" stroke="midnightblue" points="1224.42,-138.55 1220.92,-128.55 1217.42,-138.55 1224.42,-138.55"/>
</g>
<!-- Node16&#45;&gt;Node1 -->
<g id="edge21" class="edge"><title>Node16&#45;&gt;Node1</title>
<path fill="none" stroke="midnightblue" d="M299.142,-220.34C308.165,-198.633 335.856,-139.139 378.917,-110 422.667,-80.3938 483.609,-70.3442 524.57,-67.0114"/>
<polygon fill="midnightblue" stroke="midnightblue" points="525.061,-70.4854 534.788,-66.2852 524.565,-63.503 525.061,-70.4854"/>
</g>
<!-- Node16&#45;&gt;Node12 -->
<g id="edge25" class="edge"><title>Node16&#45;&gt;Node12</title>
<path fill="none" stroke="midnightblue" d="M318.495,-220.416C363.994,-204.169 463.751,-168.778 479.917,-165 595.783,-137.924 737.399,-126.287 798.485,-122.271"/>
<polygon fill="midnightblue" stroke="midnightblue" points="798.836,-125.756 808.594,-121.629 798.392,-118.77 798.836,-125.756"/>
</g>
<!-- Node17 -->
<g id="node18" class="node"><title>Node17</title>
<g id="a_node18"><a xlink:href="../../d5/de4/_complexity_8h.html" target="_top" xlink:title="fl/Complexity.h">
<polygon fill="white" stroke="black" points="562.497,-110.5 562.497,-128.5 643.336,-128.5 643.336,-110.5 562.497,-110.5"/>
<text text-anchor="middle" x="602.917" y="-116.5" font-family="Helvetica,sans-Serif" font-size="10.00">fl/Complexity.h</text>
</a>
</g>
</g>
<!-- Node16&#45;&gt;Node17 -->
<g id="edge22" class="edge"><title>Node16&#45;&gt;Node17</title>
<path fill="none" stroke="midnightblue" d="M310.037,-220.464C333.608,-207.325 382.749,-181.098 426.917,-165 468.152,-149.971 516.604,-138.125 552.22,-130.446"/>
<polygon fill="midnightblue" stroke="midnightblue" points="553.315,-133.792 562.372,-128.295 551.864,-126.944 553.315,-133.792"/>
</g>
<!-- Node17&#45;&gt;Node1 -->
<g id="edge23" class="edge"><title>Node17&#45;&gt;Node1</title>
<path fill="none" stroke="midnightblue" d="M597.604,-110.219C592.786,-102.707 585.539,-91.411 579.535,-82.0515"/>
<polygon fill="midnightblue" stroke="midnightblue" points="582.426,-80.0767 574.081,-73.5496 576.534,-83.8564 582.426,-80.0767"/>
</g>
<!-- Node17&#45;&gt;Node13 -->
<g id="edge24" class="edge"><title>Node17&#45;&gt;Node13</title>
<path fill="none" stroke="midnightblue" d="M643.382,-115.872C785.404,-106.647 1259.42,-75.8594 1387.04,-67.5704"/>
<polygon fill="midnightblue" stroke="midnightblue" points="1387.55,-71.0449 1397.3,-66.904 1387.09,-64.0596 1387.55,-71.0449"/>
</g>
<!-- Node18&#45;&gt;Node1 -->
<g id="edge27" class="edge"><title>Node18&#45;&gt;Node1</title>
<path fill="none" stroke="midnightblue" d="M537.286,-165.252C540.796,-153.113 547.639,-129.739 553.917,-110 556.734,-101.141 560.018,-91.3444 562.793,-83.2038"/>
<polygon fill="midnightblue" stroke="midnightblue" points="566.128,-84.2687 566.067,-73.674 559.508,-81.9943 566.128,-84.2687"/>
</g>
<!-- Node18&#45;&gt;Node12 -->
<g id="edge29" class="edge"><title>Node18&#45;&gt;Node12</title>
<path fill="none" stroke="midnightblue" d="M579.569,-165.45C640.133,-154.532 746.71,-135.32 798.694,-125.948"/>
<polygon fill="midnightblue" stroke="midnightblue" points="799.407,-129.376 808.627,-124.158 798.165,-122.487 799.407,-129.376"/>
</g>
<!-- Node18&#45;&gt;Node17 -->
<g id="edge28" class="edge"><title>Node18&#45;&gt;Node17</title>
<path fill="none" stroke="midnightblue" d="M545.244,-165.45C555.629,-157.357 571.862,-144.704 584.464,-134.882"/>
<polygon fill="midnightblue" stroke="midnightblue" points="586.756,-137.533 592.492,-128.625 582.453,-132.012 586.756,-137.533"/>
</g>
<!-- Node20 -->
<g id="node21" class="node"><title>Node20</title>
<g id="a_node21"><a xlink:href="../../d7/d72/_norm_8h.html" target="_top" xlink:title="fl/norm/Norm.h">
<polygon fill="white" stroke="black" points="642.855,-165.5 642.855,-183.5 724.978,-183.5 724.978,-165.5 642.855,-165.5"/>
<text text-anchor="middle" x="683.917" y="-171.5" font-family="Helvetica,sans-Serif" font-size="10.00">fl/norm/Norm.h</text>
</a>
</g>
</g>
<!-- Node19&#45;&gt;Node20 -->
<g id="edge31" class="edge"><title>Node19&#45;&gt;Node20</title>
<path fill="none" stroke="midnightblue" d="M558.395,-220.45C583.278,-211.539 623.592,-197.103 651.8,-187.001"/>
<polygon fill="midnightblue" stroke="midnightblue" points="652.993,-190.292 661.227,-183.625 650.633,-183.702 652.993,-190.292"/>
</g>
<!-- Node20&#45;&gt;Node1 -->
<g id="edge32" class="edge"><title>Node20&#45;&gt;Node1</title>
<path fill="none" stroke="midnightblue" d="M681.51,-165.116C677.367,-151.953 667.774,-126.264 651.917,-110 637.986,-95.7121 618.474,-84.9333 601.868,-77.5652"/>
<polygon fill="midnightblue" stroke="midnightblue" points="603.065,-74.2719 592.49,-73.6204 600.351,-80.7242 603.065,-74.2719"/>
</g>
<!-- Node20&#45;&gt;Node12 -->
<g id="edge34" class="edge"><title>Node20&#45;&gt;Node12</title>
<path fill="none" stroke="midnightblue" d="M705.939,-165.45C730.776,-156.372 771.304,-141.558 798.996,-131.437"/>
<polygon fill="midnightblue" stroke="midnightblue" points="800.373,-134.66 808.564,-127.939 797.97,-128.085 800.373,-134.66"/>
</g>
<!-- Node20&#45;&gt;Node17 -->
<g id="edge33" class="edge"><title>Node20&#45;&gt;Node17</title>
<path fill="none" stroke="midnightblue" d="M671.614,-165.45C659.007,-157.201 639.162,-144.216 624.036,-134.319"/>
<polygon fill="midnightblue" stroke="midnightblue" points="625.619,-131.172 615.335,-128.625 621.786,-137.029 625.619,-131.172"/>
</g>
<!-- Node21&#45;&gt;Node20 -->
<g id="edge36" class="edge"><title>Node21&#45;&gt;Node20</title>
<path fill="none" stroke="midnightblue" d="M649.323,-220.219C655.255,-212.551 664.238,-200.939 671.563,-191.469"/>
<polygon fill="midnightblue" stroke="midnightblue" points="674.339,-193.601 677.69,-183.55 668.803,-189.318 674.339,-193.601"/>
</g>
<!-- Node22&#45;&gt;Node1 -->
<g id="edge38" class="edge"><title>Node22&#45;&gt;Node1</title>
<path fill="none" stroke="midnightblue" d="M809.086,-333.633C723.754,-322.081 524.194,-290.089 482.917,-239 462.23,-213.397 468.171,-195.749 479.917,-165 493.788,-128.684 527.69,-97.242 549.419,-79.8772"/>
<polygon fill="midnightblue" stroke="midnightblue" points="551.593,-82.6202 557.353,-73.7277 547.305,-77.0874 551.593,-82.6202"/>
</g>
<!-- Node22&#45;&gt;Node3 -->
<g id="edge53" class="edge"><title>Node22&#45;&gt;Node3</title>
<path fill="none" stroke="midnightblue" d="M886.654,-332.621C966.488,-319.41 1141.92,-284.265 1141.92,-230.5 1141.92,-230.5 1141.92,-230.5 1141.92,-118.5 1141.92,-40.4635 1024.85,-18.7193 966.791,-12.7339"/>
<polygon fill="midnightblue" stroke="midnightblue" points="966.96,-9.23454 956.678,-11.7896 966.309,-16.2042 966.96,-9.23454"/>
</g>
<!-- Node22&#45;&gt;Node12 -->
<g id="edge54" class="edge"><title>Node22&#45;&gt;Node12</title>
<path fill="none" stroke="midnightblue" d="M847.218,-330.483C844.483,-299.107 834.465,-184.159 830.524,-138.944"/>
<polygon fill="midnightblue" stroke="midnightblue" points="833.997,-138.481 829.642,-128.823 827.024,-139.089 833.997,-138.481"/>
</g>
<!-- Node22&#45;&gt;Node13 -->
<g id="edge55" class="edge"><title>Node22&#45;&gt;Node13</title>
<path fill="none" stroke="midnightblue" d="M886.622,-336.026C1024.27,-326.719 1481.92,-291.212 1481.92,-230.5 1481.92,-230.5 1481.92,-230.5 1481.92,-173.5 1481.92,-136.106 1453.39,-100.134 1434.73,-80.6031"/>
<polygon fill="midnightblue" stroke="midnightblue" points="1437.21,-78.133 1427.68,-73.5056 1432.24,-83.0666 1437.21,-78.133"/>
</g>
<!-- Node22&#45;&gt;Node17 -->
<g id="edge52" class="edge"><title>Node22&#45;&gt;Node17</title>
<path fill="none" stroke="midnightblue" d="M838.307,-330.255C814.8,-310.257 752.202,-258.023 695.917,-220 669.513,-202.163 655.623,-207.327 633.917,-184 621.783,-170.961 613.441,-152.287 608.493,-138.564"/>
<polygon fill="midnightblue" stroke="midnightblue" points="611.728,-137.201 605.245,-128.822 605.088,-139.416 611.728,-137.201"/>
</g>
<!-- Node23 -->
<g id="node24" class="node"><title>Node23</title>
<g id="a_node24"><a xlink:href="../../d6/dd6/_operation_8h.html" target="_top" xlink:title="fl/Operation.h">
<polygon fill="white" stroke="black" points="866.9,-275.5 866.9,-293.5 942.934,-293.5 942.934,-275.5 866.9,-275.5"/>
<text text-anchor="middle" x="904.917" y="-281.5" font-family="Helvetica,sans-Serif" font-size="10.00">fl/Operation.h</text>
</a>
</g>
</g>
<!-- Node22&#45;&gt;Node23 -->
<g id="edge39" class="edge"><title>Node22&#45;&gt;Node23</title>
<path fill="none" stroke="midnightblue" d="M856.823,-330.219C865.322,-322.316 878.327,-310.224 888.671,-300.606"/>
<polygon fill="midnightblue" stroke="midnightblue" points="891.319,-302.922 896.26,-293.55 886.553,-297.796 891.319,-302.922"/>
</g>
<!-- Node23&#45;&gt;Node1 -->
<g id="edge40" class="edge"><title>Node23&#45;&gt;Node1</title>
<path fill="none" stroke="midnightblue" d="M905.557,-275.357C907.268,-247.344 908.769,-154.247 857.917,-110 822.191,-78.914 685.035,-69.5028 613.27,-66.6845"/>
<polygon fill="midnightblue" stroke="midnightblue" points="613.298,-63.1833 603.177,-66.3147 613.042,-70.1786 613.298,-63.1833"/>
</g>
<!-- Node23&#45;&gt;Node2 -->
<g id="edge48" class="edge"><title>Node23&#45;&gt;Node2</title>
<path fill="none" stroke="midnightblue" d="M943.025,-282.495C1050.05,-279.336 1351.69,-268.037 1445.92,-239 1500.6,-222.149 1557.92,-232.722 1557.92,-175.5 1557.92,-175.5 1557.92,-175.5 1557.92,-118.5 1557.92,-67.8116 1395.31,-31.4844 1318.82,-17.2005"/>
<polygon fill="midnightblue" stroke="midnightblue" points="1319.09,-13.6921 1308.62,-15.3321 1317.83,-20.5774 1319.09,-13.6921"/>
</g>
<!-- Node23&#45;&gt;Node12 -->
<g id="edge42" class="edge"><title>Node23&#45;&gt;Node12</title>
<path fill="none" stroke="midnightblue" d="M901.043,-275.193C889.201,-249.794 853.298,-172.791 837.054,-137.952"/>
<polygon fill="midnightblue" stroke="midnightblue" points="840.09,-136.181 832.692,-128.597 833.746,-139.139 840.09,-136.181"/>
</g>
<!-- Node23&#45;&gt;Node13 -->
<g id="edge43" class="edge"><title>Node23&#45;&gt;Node13</title>
<path fill="none" stroke="midnightblue" d="M943.247,-283.138C1057.93,-281.661 1392.48,-274.333 1424.92,-239 1464.63,-195.741 1440.42,-117.825 1426.58,-83.0675"/>
<polygon fill="midnightblue" stroke="midnightblue" points="1429.78,-81.6386 1422.7,-73.7522 1423.31,-84.3293 1429.78,-81.6386"/>
</g>
<!-- Node23&#45;&gt;Node14 -->
<g id="edge41" class="edge"><title>Node23&#45;&gt;Node14</title>
<path fill="none" stroke="midnightblue" d="M943.193,-280.047C987.736,-275.05 1062.85,-263.561 1122.92,-239 1153.37,-226.547 1184.6,-204.362 1203.38,-189.789"/>
<polygon fill="midnightblue" stroke="midnightblue" points="1205.65,-192.459 1211.31,-183.507 1201.3,-186.971 1205.65,-192.459"/>
</g>
<!-- Node23&#45;&gt;Node16 -->
<g id="edge44" class="edge"><title>Node23&#45;&gt;Node16</title>
<path fill="none" stroke="midnightblue" d="M866.821,-280.185C767.816,-271.568 501.035,-248.351 370.248,-236.969"/>
<polygon fill="midnightblue" stroke="midnightblue" points="370.194,-233.451 359.928,-236.071 369.587,-240.425 370.194,-233.451"/>
</g>
<!-- Node23&#45;&gt;Node19 -->
<g id="edge46" class="edge"><title>Node23&#45;&gt;Node19</title>
<path fill="none" stroke="midnightblue" d="M866.582,-278.283C809.044,-270.409 696.676,-254.865 590.344,-239.042"/>
<polygon fill="midnightblue" stroke="midnightblue" points="590.812,-235.573 580.405,-237.56 589.779,-242.497 590.812,-235.573"/>
</g>
<!-- Node23&#45;&gt;Node20 -->
<g id="edge45" class="edge"><title>Node23&#45;&gt;Node20</title>
<path fill="none" stroke="midnightblue" d="M888.306,-275.382C850.056,-256.69 755.535,-210.499 709.684,-188.092"/>
<polygon fill="midnightblue" stroke="midnightblue" points="710.94,-184.811 700.419,-183.564 707.867,-191.1 710.94,-184.811"/>
</g>
<!-- Node23&#45;&gt;Node21 -->
<g id="edge47" class="edge"><title>Node23&#45;&gt;Node21</title>
<path fill="none" stroke="midnightblue" d="M866.82,-275.793C820.879,-266.5 743.532,-250.853 692.853,-240.602"/>
<polygon fill="midnightblue" stroke="midnightblue" points="693.273,-237.116 682.778,-238.564 691.885,-243.977 693.273,-237.116"/>
</g>
<!-- Node24 -->
<g id="node25" class="node"><title>Node24</title>
<polygon fill="white" stroke="#bfbfbf" points="933.407,-220.5 933.407,-238.5 984.426,-238.5 984.426,-220.5 933.407,-220.5"/>
<text text-anchor="middle" x="958.917" y="-226.5" font-family="Helvetica,sans-Serif" font-size="10.00">iomanip</text>
</g>
<!-- Node23&#45;&gt;Node24 -->
<g id="edge49" class="edge"><title>Node23&#45;&gt;Node24</title>
<path fill="none" stroke="midnightblue" d="M913.354,-275.219C921.406,-267.316 933.726,-255.224 943.526,-245.606"/>
<polygon fill="midnightblue" stroke="midnightblue" points="946.03,-248.052 950.715,-238.55 941.127,-243.056 946.03,-248.052"/>
</g>
<!-- Node25 -->
<g id="node26" class="node"><title>Node25</title>
<polygon fill="white" stroke="#bfbfbf" points="1002.52,-220.5 1002.52,-238.5 1051.31,-238.5 1051.31,-220.5 1002.52,-220.5"/>
<text text-anchor="middle" x="1026.92" y="-226.5" font-family="Helvetica,sans-Serif" font-size="10.00">cstdarg</text>
</g>
<!-- Node23&#45;&gt;Node25 -->
<g id="edge50" class="edge"><title>Node23&#45;&gt;Node25</title>
<path fill="none" stroke="midnightblue" d="M923.446,-275.45C943.51,-266.734 975.744,-252.731 998.905,-242.669"/>
<polygon fill="midnightblue" stroke="midnightblue" points="1000.44,-245.82 1008.21,-238.625 997.647,-239.4 1000.44,-245.82"/>
</g>
<!-- Node26 -->
<g id="node27" class="node"><title>Node26</title>
<polygon fill="white" stroke="#bfbfbf" points="1069.47,-220.5 1069.47,-238.5 1114.37,-238.5 1114.37,-220.5 1069.47,-220.5"/>
<text text-anchor="middle" x="1091.92" y="-226.5" font-family="Helvetica,sans-Serif" font-size="10.00">cctype</text>
</g>
<!-- Node23&#45;&gt;Node26 -->
<g id="edge51" class="edge"><title>Node23&#45;&gt;Node26</title>
<path fill="none" stroke="midnightblue" d="M933.318,-275.45C967.261,-265.83 1023.93,-249.77 1059.54,-239.677"/>
<polygon fill="midnightblue" stroke="midnightblue" points="1060.76,-242.969 1069.43,-236.875 1058.85,-236.234 1060.76,-242.969"/>
</g>
<!-- Node27&#45;&gt;Node10 -->
<g id="edge58" class="edge"><title>Node27&#45;&gt;Node10</title>
<path fill="none" stroke="midnightblue" d="M561.323,-440.219C562.532,-433.099 564.319,-422.577 565.855,-413.529"/>
<polygon fill="midnightblue" stroke="midnightblue" points="569.326,-413.994 567.55,-403.55 562.425,-412.822 569.326,-413.994"/>
</g>
<!-- Node27&#45;&gt;Node19 -->
<g id="edge59" class="edge"><title>Node27&#45;&gt;Node19</title>
<path fill="none" stroke="midnightblue" d="M532.324,-440.469C514.798,-433.777 493.489,-422.321 482.917,-404 452.399,-351.115 498.496,-278.83 522.671,-246.856"/>
<polygon fill="midnightblue" stroke="midnightblue" points="525.703,-248.66 529.095,-238.623 520.184,-244.354 525.703,-248.66"/>
</g>
<!-- Node28&#45;&gt;Node1 -->
<g id="edge61" class="edge"><title>Node28&#45;&gt;Node1</title>
<path fill="none" stroke="midnightblue" d="M92.0386,-440.444C78.1177,-423.284 47.9166,-381.349 47.9166,-340.5 47.9166,-340.5 47.9166,-340.5 47.9166,-173.5 47.9166,-76.4637 398.817,-65.9592 524.665,-65.3121"/>
<polygon fill="midnightblue" stroke="midnightblue" points="524.744,-68.812 534.732,-65.2792 524.721,-61.812 524.744,-68.812"/>
</g>
<!-- Node28&#45;&gt;Node10 -->
<g id="edge62" class="edge"><title>Node28&#45;&gt;Node10</title>
<path fill="none" stroke="midnightblue" d="M169.535,-440.537C254.788,-430.923 397.868,-414.788 487.635,-404.666"/>
<polygon fill="midnightblue" stroke="midnightblue" points="488.225,-408.122 497.769,-403.523 487.44,-401.166 488.225,-408.122"/>
</g>
<!-- Node29 -->
<g id="node30" class="node"><title>Node29</title>
<g id="a_node30"><a xlink:href="../../d4/d75/_activation_8h.html" target="_top" xlink:title="fl/activation/Activation.h">
<polygon fill="white" stroke="black" points="168.668,-165.5 168.668,-183.5 289.165,-183.5 289.165,-165.5 168.668,-165.5"/>
<text text-anchor="middle" x="228.917" y="-171.5" font-family="Helvetica,sans-Serif" font-size="10.00">fl/activation/Activation.h</text>
</a>
</g>
</g>
<!-- Node28&#45;&gt;Node29 -->
<g id="edge63" class="edge"><title>Node28&#45;&gt;Node29</title>
<path fill="none" stroke="midnightblue" d="M100.73,-440.221C105.183,-420.578 117.567,-369.817 134.917,-330 158.141,-276.702 196.947,-219.675 216.644,-192.198"/>
<polygon fill="midnightblue" stroke="midnightblue" points="219.721,-193.916 222.757,-183.766 214.054,-189.807 219.721,-193.916"/>
</g>
<!-- Node29&#45;&gt;Node1 -->
<g id="edge64" class="edge"><title>Node29&#45;&gt;Node1</title>
<path fill="none" stroke="midnightblue" d="M235.704,-165.293C247.693,-151.409 274.088,-123.483 302.917,-110 375.434,-76.0839 469.741,-67.6218 524.383,-65.742"/>
<polygon fill="midnightblue" stroke="midnightblue" points="524.541,-69.239 534.437,-65.4555 524.342,-62.2419 524.541,-69.239"/>
</g>
<!-- Node29&#45;&gt;Node17 -->
<g id="edge65" class="edge"><title>Node29&#45;&gt;Node17</title>
<path fill="none" stroke="midnightblue" d="M285.719,-165.45C358.219,-155.176 482.551,-137.557 552.07,-127.706"/>
<polygon fill="midnightblue" stroke="midnightblue" points="552.918,-131.12 562.328,-126.252 551.936,-124.19 552.918,-131.12"/>
</g>
<!-- Node30&#45;&gt;Node10 -->
<g id="edge67" class="edge"><title>Node30&#45;&gt;Node10</title>
<path fill="none" stroke="midnightblue" d="M306.847,-440.45C361.909,-431.006 453.157,-415.355 512.15,-405.237"/>
<polygon fill="midnightblue" stroke="midnightblue" points="512.787,-408.679 522.052,-403.538 511.604,-401.779 512.787,-408.679"/>
</g>
<!-- Node30&#45;&gt;Node16 -->
<g id="edge68" class="edge"><title>Node30&#45;&gt;Node16</title>
<path fill="none" stroke="midnightblue" d="M239.626,-440.45C200.058,-423.434 118.507,-381.138 142.917,-330 165.157,-283.408 221.068,-255.817 258.778,-241.915"/>
<polygon fill="midnightblue" stroke="midnightblue" points="260.151,-245.142 268.415,-238.512 257.82,-238.542 260.151,-245.142"/>
</g>
<!-- Node31 -->
<g id="node32" class="node"><title>Node31</title>
<g id="a_node32"><a xlink:href="../../d9/d58/_integral_defuzzifier_8h.html" target="_top" xlink:title="fl/defuzzifier/IntegralDefuzzifier.h">
<polygon fill="white" stroke="black" points="151.658,-330.5 151.658,-348.5 312.175,-348.5 312.175,-330.5 151.658,-330.5"/>
<text text-anchor="middle" x="231.917" y="-336.5" font-family="Helvetica,sans-Serif" font-size="10.00">fl/defuzzifier/IntegralDefuzzifier.h</text>
</a>
</g>
</g>
<!-- Node30&#45;&gt;Node31 -->
<g id="edge69" class="edge"><title>Node30&#45;&gt;Node31</title>
<path fill="none" stroke="midnightblue" d="M257.812,-440.382C253.332,-423.104 242.761,-382.329 236.6,-358.563"/>
<polygon fill="midnightblue" stroke="midnightblue" points="239.943,-357.513 234.046,-348.712 233.167,-359.27 239.943,-357.513"/>
</g>
<!-- Node32 -->
<g id="node33" class="node"><title>Node32</title>
<g id="a_node33"><a xlink:href="../../df/d9e/_weighted_defuzzifier_8h.html" target="_top" xlink:title="fl/defuzzifier/WeightedDefuzzifier.h">
<polygon fill="white" stroke="black" points="228.3,-275.5 228.3,-293.5 397.533,-293.5 397.533,-275.5 228.3,-275.5"/>
<text text-anchor="middle" x="312.917" y="-281.5" font-family="Helvetica,sans-Serif" font-size="10.00">fl/defuzzifier/WeightedDefuzzifier.h</text>
</a>
</g>
</g>
<!-- Node30&#45;&gt;Node32 -->
<g id="edge71" class="edge"><title>Node30&#45;&gt;Node32</title>
<path fill="none" stroke="midnightblue" d="M267.039,-440.475C280.716,-424.466 310.243,-386.832 320.917,-349 325.117,-334.112 322.383,-316.637 319.014,-303.792"/>
<polygon fill="midnightblue" stroke="midnightblue" points="322.268,-302.455 316.049,-293.877 315.561,-304.461 322.268,-302.455"/>
</g>
<!-- Node31&#45;&gt;Node16 -->
<g id="edge70" class="edge"><title>Node31&#45;&gt;Node16</title>
<path fill="none" stroke="midnightblue" d="M226.72,-330.096C219.569,-317.35 208.68,-292.739 218.917,-275 227.672,-259.828 243.79,-249.364 259.026,-242.414"/>
<polygon fill="midnightblue" stroke="midnightblue" points="260.445,-245.614 268.324,-238.531 257.748,-239.155 260.445,-245.614"/>
</g>
<!-- Node32&#45;&gt;Node16 -->
<g id="edge72" class="edge"><title>Node32&#45;&gt;Node16</title>
<path fill="none" stroke="midnightblue" d="M310.26,-275.219C307.951,-268.02 304.528,-257.346 301.604,-248.231"/>
<polygon fill="midnightblue" stroke="midnightblue" points="304.886,-247.003 298.499,-238.55 298.22,-249.141 304.886,-247.003"/>
</g>
<!-- Node33&#45;&gt;Node10 -->
<g id="edge74" class="edge"><title>Node33&#45;&gt;Node10</title>
<path fill="none" stroke="midnightblue" d="M805.543,-440.45C756.135,-431.065 674.458,-415.549 621.166,-405.425"/>
<polygon fill="midnightblue" stroke="midnightblue" points="621.709,-401.966 611.232,-403.538 620.403,-408.843 621.709,-401.966"/>
</g>
<!-- Node33&#45;&gt;Node22 -->
<g id="edge75" class="edge"><title>Node33&#45;&gt;Node22</title>
<path fill="none" stroke="midnightblue" d="M847.917,-440.382C847.917,-423.182 847.917,-382.698 847.917,-358.887"/>
<polygon fill="midnightblue" stroke="midnightblue" points="851.417,-358.712 847.917,-348.712 844.417,-358.712 851.417,-358.712"/>
</g>
<!-- Node34&#45;&gt;Node10 -->
<g id="edge77" class="edge"><title>Node34&#45;&gt;Node10</title>
<path fill="none" stroke="midnightblue" d="M437.458,-440.45C463.708,-431.475 506.355,-416.892 535.924,-406.781"/>
<polygon fill="midnightblue" stroke="midnightblue" points="537.079,-410.086 545.408,-403.538 534.814,-403.462 537.079,-410.086"/>
</g>
<!-- Node34&#45;&gt;Node18 -->
<g id="edge78" class="edge"><title>Node34&#45;&gt;Node18</title>
<path fill="none" stroke="midnightblue" d="M415.436,-440.405C418.665,-422.478 425.917,-378.042 425.917,-340.5 425.917,-340.5 425.917,-340.5 425.917,-283.5 425.917,-237.917 474.613,-205.02 506.908,-188.214"/>
<polygon fill="midnightblue" stroke="midnightblue" points="508.546,-191.309 515.93,-183.711 505.42,-185.046 508.546,-191.309"/>
</g>
<!-- Node36 -->
<g id="node37" class="node"><title>Node36</title>
<g id="a_node37"><a xlink:href="../../d2/d7d/_cloning_factory_8h.html" target="_top" xlink:title="fl/factory/CloningFactory.h">
<polygon fill="white" stroke="black" points="1284.21,-220.5 1284.21,-238.5 1415.63,-238.5 1415.63,-220.5 1284.21,-220.5"/>
<text text-anchor="middle" x="1349.92" y="-226.5" font-family="Helvetica,sans-Serif" font-size="10.00">fl/factory/CloningFactory.h</text>
</a>
</g>
</g>
<!-- Node35&#45;&gt;Node36 -->
<g id="edge80" class="edge"><title>Node35&#45;&gt;Node36</title>
<path fill="none" stroke="midnightblue" d="M1192.43,-440.297C1204.45,-432.041 1222.68,-418.485 1235.92,-404 1282.64,-352.86 1323.47,-280.713 1340.91,-247.928"/>
<polygon fill="midnightblue" stroke="midnightblue" points="1344.18,-249.225 1345.73,-238.744 1337.98,-245.972 1344.18,-249.225"/>
</g>
<!-- Node37 -->
<g id="node38" class="node"><title>Node37</title>
<g id="a_node38"><a xlink:href="../../df/dc1/_function_8h.html" target="_top" xlink:title="fl/term/Function.h">
<polygon fill="white" stroke="black" points="1133.29,-385.5 1133.29,-403.5 1226.54,-403.5 1226.54,-385.5 1133.29,-385.5"/>
<text text-anchor="middle" x="1179.92" y="-391.5" font-family="Helvetica,sans-Serif" font-size="10.00">fl/term/Function.h</text>
</a>
</g>
</g>
<!-- Node35&#45;&gt;Node37 -->
<g id="edge86" class="edge"><title>Node35&#45;&gt;Node37</title>
<path fill="none" stroke="midnightblue" d="M1179.92,-440.219C1179.92,-433.177 1179.92,-422.808 1179.92,-413.828"/>
<polygon fill="midnightblue" stroke="midnightblue" points="1183.42,-413.55 1179.92,-403.55 1176.42,-413.55 1183.42,-413.55"/>
</g>
<!-- Node36&#45;&gt;Node1 -->
<g id="edge81" class="edge"><title>Node36&#45;&gt;Node1</title>
<path fill="none" stroke="midnightblue" d="M1346.54,-220.243C1336.84,-197.753 1306.52,-135.4 1258.92,-110 1202.22,-79.7466 757.573,-68.9692 613.68,-66.2536"/>
<polygon fill="midnightblue" stroke="midnightblue" points="613.516,-62.7501 603.453,-66.0647 613.386,-69.7489 613.516,-62.7501"/>
</g>
<!-- Node36&#45;&gt;Node11 -->
<g id="edge82" class="edge"><title>Node36&#45;&gt;Node11</title>
<path fill="none" stroke="midnightblue" d="M1388.49,-220.45C1440.14,-209.673 1530.53,-190.814 1576.05,-181.316"/>
<polygon fill="midnightblue" stroke="midnightblue" points="1577.01,-184.69 1586.08,-179.221 1575.58,-177.837 1577.01,-184.69"/>
</g>
<!-- Node36&#45;&gt;Node12 -->
<g id="edge83" class="edge"><title>Node36&#45;&gt;Node12</title>
<path fill="none" stroke="midnightblue" d="M1311.18,-220.471C1211.7,-199.848 948.76,-145.343 859.252,-126.788"/>
<polygon fill="midnightblue" stroke="midnightblue" points="859.721,-123.311 849.219,-124.708 858.3,-130.165 859.721,-123.311"/>
</g>
<!-- Node36&#45;&gt;Node13 -->
<g id="edge84" class="edge"><title>Node36&#45;&gt;Node13</title>
<path fill="none" stroke="midnightblue" d="M1353.43,-220.193C1364.18,-194.794 1396.78,-117.791 1411.53,-82.9517"/>
<polygon fill="midnightblue" stroke="midnightblue" points="1414.81,-84.1704 1415.49,-73.5971 1408.37,-81.4416 1414.81,-84.1704"/>
</g>
<!-- Node36&#45;&gt;Node14 -->
<g id="edge85" class="edge"><title>Node36&#45;&gt;Node14</title>
<path fill="none" stroke="midnightblue" d="M1330.32,-220.45C1309.01,-211.695 1274.72,-197.606 1250.21,-187.535"/>
<polygon fill="midnightblue" stroke="midnightblue" points="1251.27,-184.188 1240.69,-183.625 1248.61,-190.663 1251.27,-184.188"/>
</g>
<!-- Node37&#45;&gt;Node11 -->
<g id="edge88" class="edge"><title>Node37&#45;&gt;Node11</title>
<path fill="none" stroke="midnightblue" d="M1226.85,-394.236C1319.12,-394.732 1519.74,-390.816 1571.92,-349 1618.5,-311.666 1612.7,-230.61 1607.28,-194.049"/>
<polygon fill="midnightblue" stroke="midnightblue" points="1610.68,-193.151 1605.6,-183.853 1603.77,-194.29 1610.68,-193.151"/>
</g>
<!-- Node37&#45;&gt;Node12 -->
<g id="edge89" class="edge"><title>Node37&#45;&gt;Node12</title>
<path fill="none" stroke="midnightblue" d="M1179.69,-385.3C1178.49,-357.884 1170.9,-268.415 1122.92,-220 1103.66,-200.575 930.052,-149.384 859.011,-129.026"/>
<polygon fill="midnightblue" stroke="midnightblue" points="859.881,-125.635 849.305,-126.254 857.959,-132.366 859.881,-125.635"/>
</g>
<!-- Node37&#45;&gt;Node22 -->
<g id="edge87" class="edge"><title>Node37&#45;&gt;Node22</title>
<path fill="none" stroke="midnightblue" d="M1133.05,-386.019C1070.58,-376.045 960.509,-358.474 896.951,-348.328"/>
<polygon fill="midnightblue" stroke="midnightblue" points="897.212,-344.825 886.785,-346.705 896.108,-351.738 897.212,-344.825"/>
</g>
</g>
</svg>
