<?xml version="1.0" encoding="UTF-8" standalone="no"?>
<!DOCTYPE svg PUBLIC "-//W3C//DTD SVG 1.1//EN"
 "http://www.w3.org/Graphics/SVG/1.1/DTD/svg11.dtd">
<!-- Generated by graphviz version 2.38.0 (20140413.2041)
 -->
<!-- Title: fl::Defuzzifier Pages: 1 -->
<svg width="1184pt" height="435pt"
 viewBox="0.00 0.00 1184.47 435.00" xmlns="http://www.w3.org/2000/svg" xmlns:xlink="http://www.w3.org/1999/xlink">
<g id="graph0" class="graph" transform="scale(1 1) rotate(0) translate(4 431)">
<title>fl::Defuzzifier</title>
<polygon fill="white" stroke="none" points="-4,4 -4,-431 1180.47,-431 1180.47,4 -4,4"/>
<!-- Node0 -->
<g id="node1" class="node"><title>Node0</title>
<polygon fill="#bfbfbf" stroke="black" points="572.193,-322.5 572.193,-426.5 656.548,-426.5 656.548,-322.5 572.193,-322.5"/>
<text text-anchor="middle" x="614.371" y="-414.5" font-family="Helvetica,sans-Serif" font-size="10.00">fl::Defuzzifier</text>
<polyline fill="none" stroke="black" points="572.193,-408.5 656.548,-408.5 "/>
<text text-anchor="middle" x="614.371" y="-396.5" font-family="Helvetica,sans-Serif" font-size="10.00"> </text>
<polyline fill="none" stroke="black" points="572.193,-390.5 656.548,-390.5 "/>
<text text-anchor="start" x="580.193" y="-378.5" font-family="Helvetica,sans-Serif" font-size="10.00">+ Defuzzifier()</text>
<text text-anchor="start" x="580.193" y="-368.5" font-family="Helvetica,sans-Serif" font-size="10.00">+ ~Defuzzifier()</text>
<text text-anchor="start" x="580.193" y="-358.5" font-family="Helvetica,sans-Serif" font-size="10.00">+ className()</text>
<text text-anchor="start" x="580.193" y="-348.5" font-family="Helvetica,sans-Serif" font-size="10.00">+ clone()</text>
<text text-anchor="start" x="580.193" y="-338.5" font-family="Helvetica,sans-Serif" font-size="10.00">+ complexity()</text>
<text text-anchor="start" x="580.193" y="-328.5" font-family="Helvetica,sans-Serif" font-size="10.00">+ defuzzify()</text>
</g>
<!-- Node1 -->
<g id="node2" class="node"><title>Node1</title>
<g id="a_node2"><a xlink:href="../../d9/d95/classfl_1_1_integral_defuzzifier.html" target="_top" xlink:title="The IntegralDefuzzifier class is the base class for defuzzifiers which integrate over the fuzzy set...">
<polygon fill="white" stroke="black" points="267.594,-171.5 267.594,-275.5 391.147,-275.5 391.147,-171.5 267.594,-171.5"/>
<text text-anchor="middle" x="329.371" y="-263.5" font-family="Helvetica,sans-Serif" font-size="10.00">fl::IntegralDefuzzifier</text>
<polyline fill="none" stroke="black" points="267.594,-257.5 391.147,-257.5 "/>
<text text-anchor="middle" x="329.371" y="-245.5" font-family="Helvetica,sans-Serif" font-size="10.00"> </text>
<polyline fill="none" stroke="black" points="267.594,-239.5 391.147,-239.5 "/>
<text text-anchor="start" x="275.594" y="-227.5" font-family="Helvetica,sans-Serif" font-size="10.00">+ IntegralDefuzzifier()</text>
<text text-anchor="start" x="275.594" y="-217.5" font-family="Helvetica,sans-Serif" font-size="10.00">+ ~IntegralDefuzzifier()</text>
<text text-anchor="start" x="275.594" y="-207.5" font-family="Helvetica,sans-Serif" font-size="10.00">+ setResolution()</text>
<text text-anchor="start" x="275.594" y="-197.5" font-family="Helvetica,sans-Serif" font-size="10.00">+ getResolution()</text>
<text text-anchor="start" x="275.594" y="-187.5" font-family="Helvetica,sans-Serif" font-size="10.00">+ setDefaultResolution()</text>
<text text-anchor="start" x="275.594" y="-177.5" font-family="Helvetica,sans-Serif" font-size="10.00">+ defaultResolution()</text>
</a>
</g>
</g>
<!-- Node0&#45;&gt;Node1 -->
<g id="edge1" class="edge"><title>Node0&#45;&gt;Node1</title>
<path fill="none" stroke="midnightblue" d="M562.999,-346.643C514.781,-321.434 442.583,-283.688 391.223,-256.837"/>
<polygon fill="none" stroke="midnightblue" points="561.527,-349.823 572.011,-351.354 564.771,-343.619 561.527,-349.823"/>
</g>
<!-- Node7 -->
<g id="node8" class="node"><title>Node7</title>
<g id="a_node8"><a xlink:href="../../d5/d8d/classfl_1_1_weighted_defuzzifier.html" target="_top" xlink:title="The WeightedDefuzzifier class is the base class for defuzzifiers which compute a weighted function on...">
<polygon fill="white" stroke="black" points="768.158,-161.5 768.158,-285.5 894.583,-285.5 894.583,-161.5 768.158,-161.5"/>
<text text-anchor="middle" x="831.371" y="-273.5" font-family="Helvetica,sans-Serif" font-size="10.00">fl::WeightedDefuzzifier</text>
<polyline fill="none" stroke="black" points="768.158,-267.5 894.583,-267.5 "/>
<text text-anchor="middle" x="831.371" y="-255.5" font-family="Helvetica,sans-Serif" font-size="10.00"> </text>
<polyline fill="none" stroke="black" points="768.158,-249.5 894.583,-249.5 "/>
<text text-anchor="start" x="776.158" y="-237.5" font-family="Helvetica,sans-Serif" font-size="10.00">+ WeightedDefuzzifier()</text>
<text text-anchor="start" x="776.158" y="-227.5" font-family="Helvetica,sans-Serif" font-size="10.00">+ WeightedDefuzzifier()</text>
<text text-anchor="start" x="776.158" y="-217.5" font-family="Helvetica,sans-Serif" font-size="10.00">+ ~WeightedDefuzzifier()</text>
<text text-anchor="start" x="776.158" y="-207.5" font-family="Helvetica,sans-Serif" font-size="10.00">+ setType()</text>
<text text-anchor="start" x="776.158" y="-197.5" font-family="Helvetica,sans-Serif" font-size="10.00">+ getType()</text>
<text text-anchor="start" x="776.158" y="-187.5" font-family="Helvetica,sans-Serif" font-size="10.00">+ getTypeName()</text>
<text text-anchor="start" x="776.158" y="-177.5" font-family="Helvetica,sans-Serif" font-size="10.00">+ inferType()</text>
<text text-anchor="start" x="776.158" y="-167.5" font-family="Helvetica,sans-Serif" font-size="10.00">+ typeName()</text>
</a>
</g>
</g>
<!-- Node0&#45;&gt;Node7 -->
<g id="edge7" class="edge"><title>Node0&#45;&gt;Node7</title>
<path fill="none" stroke="midnightblue" d="M665.155,-338.63C695.907,-317.514 735.384,-290.408 768.148,-267.911"/>
<polygon fill="none" stroke="midnightblue" points="662.988,-335.872 656.726,-344.418 666.95,-341.642 662.988,-335.872"/>
</g>
<!-- Node2 -->
<g id="node3" class="node"><title>Node2</title>
<g id="a_node3"><a xlink:href="../../da/d09/classfl_1_1_bisector.html" target="_top" xlink:title="The Bisector class is an IntegralDefuzzifier that computes the bisector of a fuzzy set represented in...">
<polygon fill="white" stroke="black" points="0,-5.5 0,-119.5 80.7412,-119.5 80.7412,-5.5 0,-5.5"/>
<text text-anchor="middle" x="40.3706" y="-107.5" font-family="Helvetica,sans-Serif" font-size="10.00">fl::Bisector</text>
<polyline fill="none" stroke="black" points="0,-101.5 80.7412,-101.5 "/>
<text text-anchor="middle" x="40.3706" y="-89.5" font-family="Helvetica,sans-Serif" font-size="10.00"> </text>
<polyline fill="none" stroke="black" points="0,-83.5 80.7412,-83.5 "/>
<text text-anchor="start" x="8" y="-71.5" font-family="Helvetica,sans-Serif" font-size="10.00">+ Bisector()</text>
<text text-anchor="start" x="8" y="-61.5" font-family="Helvetica,sans-Serif" font-size="10.00">+ ~Bisector()</text>
<text text-anchor="start" x="8" y="-51.5" font-family="Helvetica,sans-Serif" font-size="10.00">+ className()</text>
<text text-anchor="start" x="8" y="-41.5" font-family="Helvetica,sans-Serif" font-size="10.00">+ complexity()</text>
<text text-anchor="start" x="8" y="-31.5" font-family="Helvetica,sans-Serif" font-size="10.00">+ defuzzify()</text>
<text text-anchor="start" x="8" y="-21.5" font-family="Helvetica,sans-Serif" font-size="10.00">+ clone()</text>
<text text-anchor="start" x="8" y="-11.5" font-family="Helvetica,sans-Serif" font-size="10.00">+ constructor()</text>
</a>
</g>
</g>
<!-- Node1&#45;&gt;Node2 -->
<g id="edge2" class="edge"><title>Node1&#45;&gt;Node2</title>
<path fill="none" stroke="midnightblue" d="M257.59,-203.568C207.455,-187.983 140.748,-162.333 90.3706,-125 87.1645,-122.624 84.0431,-119.997 81.0284,-117.207"/>
<polygon fill="none" stroke="midnightblue" points="256.801,-206.986 267.387,-206.551 258.84,-200.29 256.801,-206.986"/>
</g>
<!-- Node3 -->
<g id="node4" class="node"><title>Node3</title>
<g id="a_node4"><a xlink:href="../../df/d91/classfl_1_1_centroid.html" target="_top" xlink:title="The Centroid class is an IntegralDefuzzifier that computes the centroid of a fuzzy set represented in...">
<polygon fill="white" stroke="black" points="99,-5.5 99,-119.5 179.741,-119.5 179.741,-5.5 99,-5.5"/>
<text text-anchor="middle" x="139.371" y="-107.5" font-family="Helvetica,sans-Serif" font-size="10.00">fl::Centroid</text>
<polyline fill="none" stroke="black" points="99,-101.5 179.741,-101.5 "/>
<text text-anchor="middle" x="139.371" y="-89.5" font-family="Helvetica,sans-Serif" font-size="10.00"> </text>
<polyline fill="none" stroke="black" points="99,-83.5 179.741,-83.5 "/>
<text text-anchor="start" x="107" y="-71.5" font-family="Helvetica,sans-Serif" font-size="10.00">+ Centroid()</text>
<text text-anchor="start" x="107" y="-61.5" font-family="Helvetica,sans-Serif" font-size="10.00">+ ~Centroid()</text>
<text text-anchor="start" x="107" y="-51.5" font-family="Helvetica,sans-Serif" font-size="10.00">+ className()</text>
<text text-anchor="start" x="107" y="-41.5" font-family="Helvetica,sans-Serif" font-size="10.00">+ complexity()</text>
<text text-anchor="start" x="107" y="-31.5" font-family="Helvetica,sans-Serif" font-size="10.00">+ defuzzify()</text>
<text text-anchor="start" x="107" y="-21.5" font-family="Helvetica,sans-Serif" font-size="10.00">+ clone()</text>
<text text-anchor="start" x="107" y="-11.5" font-family="Helvetica,sans-Serif" font-size="10.00">+ constructor()</text>
</a>
</g>
</g>
<!-- Node1&#45;&gt;Node3 -->
<g id="edge3" class="edge"><title>Node1&#45;&gt;Node3</title>
<path fill="none" stroke="midnightblue" d="M258.862,-179.045C235.666,-163.309 210.444,-144.563 189.371,-125 186.143,-122.004 182.942,-118.796 179.81,-115.476"/>
<polygon fill="none" stroke="midnightblue" points="257.048,-182.043 267.304,-184.703 260.945,-176.228 257.048,-182.043"/>
</g>
<!-- Node4 -->
<g id="node5" class="node"><title>Node4</title>
<g id="a_node5"><a xlink:href="../../de/d47/classfl_1_1_largest_of_maximum.html" target="_top" xlink:title="The LargestOfMaximum class is an IntegralDefuzzifier that computes the largest value of the maximum m...">
<polygon fill="white" stroke="black" points="198.188,-5.5 198.188,-119.5 322.553,-119.5 322.553,-5.5 198.188,-5.5"/>
<text text-anchor="middle" x="260.371" y="-107.5" font-family="Helvetica,sans-Serif" font-size="10.00">fl::LargestOfMaximum</text>
<polyline fill="none" stroke="black" points="198.188,-101.5 322.553,-101.5 "/>
<text text-anchor="middle" x="260.371" y="-89.5" font-family="Helvetica,sans-Serif" font-size="10.00"> </text>
<polyline fill="none" stroke="black" points="198.188,-83.5 322.553,-83.5 "/>
<text text-anchor="start" x="206.188" y="-71.5" font-family="Helvetica,sans-Serif" font-size="10.00">+ LargestOfMaximum()</text>
<text text-anchor="start" x="206.188" y="-61.5" font-family="Helvetica,sans-Serif" font-size="10.00">+ ~LargestOfMaximum()</text>
<text text-anchor="start" x="206.188" y="-51.5" font-family="Helvetica,sans-Serif" font-size="10.00">+ className()</text>
<text text-anchor="start" x="206.188" y="-41.5" font-family="Helvetica,sans-Serif" font-size="10.00">+ complexity()</text>
<text text-anchor="start" x="206.188" y="-31.5" font-family="Helvetica,sans-Serif" font-size="10.00">+ defuzzify()</text>
<text text-anchor="start" x="206.188" y="-21.5" font-family="Helvetica,sans-Serif" font-size="10.00">+ clone()</text>
<text text-anchor="start" x="206.188" y="-11.5" font-family="Helvetica,sans-Serif" font-size="10.00">+ constructor()</text>
</a>
</g>
</g>
<!-- Node1&#45;&gt;Node4 -->
<g id="edge4" class="edge"><title>Node1&#45;&gt;Node4</title>
<path fill="none" stroke="midnightblue" d="M303.049,-161.847C297.018,-147.948 290.633,-133.234 284.69,-119.54"/>
<polygon fill="none" stroke="midnightblue" points="299.967,-163.536 307.159,-171.316 306.388,-160.749 299.967,-163.536"/>
</g>
<!-- Node5 -->
<g id="node6" class="node"><title>Node5</title>
<g id="a_node6"><a xlink:href="../../dc/d91/classfl_1_1_mean_of_maximum.html" target="_top" xlink:title="The MeanOfMaximum class is an IntegralDefuzzifier that computes the mean value of the maximum members...">
<polygon fill="white" stroke="black" points="340.358,-5.5 340.358,-119.5 456.383,-119.5 456.383,-5.5 340.358,-5.5"/>
<text text-anchor="middle" x="398.371" y="-107.5" font-family="Helvetica,sans-Serif" font-size="10.00">fl::MeanOfMaximum</text>
<polyline fill="none" stroke="black" points="340.358,-101.5 456.383,-101.5 "/>
<text text-anchor="middle" x="398.371" y="-89.5" font-family="Helvetica,sans-Serif" font-size="10.00"> </text>
<polyline fill="none" stroke="black" points="340.358,-83.5 456.383,-83.5 "/>
<text text-anchor="start" x="348.358" y="-71.5" font-family="Helvetica,sans-Serif" font-size="10.00">+ MeanOfMaximum()</text>
<text text-anchor="start" x="348.358" y="-61.5" font-family="Helvetica,sans-Serif" font-size="10.00">+ ~MeanOfMaximum()</text>
<text text-anchor="start" x="348.358" y="-51.5" font-family="Helvetica,sans-Serif" font-size="10.00">+ className()</text>
<text text-anchor="start" x="348.358" y="-41.5" font-family="Helvetica,sans-Serif" font-size="10.00">+ complexity()</text>
<text text-anchor="start" x="348.358" y="-31.5" font-family="Helvetica,sans-Serif" font-size="10.00">+ defuzzify()</text>
<text text-anchor="start" x="348.358" y="-21.5" font-family="Helvetica,sans-Serif" font-size="10.00">+ clone()</text>
<text text-anchor="start" x="348.358" y="-11.5" font-family="Helvetica,sans-Serif" font-size="10.00">+ constructor()</text>
</a>
</g>
</g>
<!-- Node1&#45;&gt;Node5 -->
<g id="edge5" class="edge"><title>Node1&#45;&gt;Node5</title>
<path fill="none" stroke="midnightblue" d="M355.692,-161.847C361.723,-147.948 368.109,-133.234 374.051,-119.54"/>
<polygon fill="none" stroke="midnightblue" points="352.353,-160.749 351.582,-171.316 358.774,-163.536 352.353,-160.749"/>
</g>
<!-- Node6 -->
<g id="node7" class="node"><title>Node6</title>
<g id="a_node7"><a xlink:href="../../dc/dba/classfl_1_1_smallest_of_maximum.html" target="_top" xlink:title="The SmallestOfMaximum class is an IntegralDefuzzifier that computes the smallest value of the maximum...">
<polygon fill="white" stroke="black" points="474.693,-5.5 474.693,-119.5 604.048,-119.5 604.048,-5.5 474.693,-5.5"/>
<text text-anchor="middle" x="539.371" y="-107.5" font-family="Helvetica,sans-Serif" font-size="10.00">fl::SmallestOfMaximum</text>
<polyline fill="none" stroke="black" points="474.693,-101.5 604.048,-101.5 "/>
<text text-anchor="middle" x="539.371" y="-89.5" font-family="Helvetica,sans-Serif" font-size="10.00"> </text>
<polyline fill="none" stroke="black" points="474.693,-83.5 604.048,-83.5 "/>
<text text-anchor="start" x="482.693" y="-71.5" font-family="Helvetica,sans-Serif" font-size="10.00">+ SmallestOfMaximum()</text>
<text text-anchor="start" x="482.693" y="-61.5" font-family="Helvetica,sans-Serif" font-size="10.00">+ ~SmallestOfMaximum()</text>
<text text-anchor="start" x="482.693" y="-51.5" font-family="Helvetica,sans-Serif" font-size="10.00">+ className()</text>
<text text-anchor="start" x="482.693" y="-41.5" font-family="Helvetica,sans-Serif" font-size="10.00">+ complexity()</text>
<text text-anchor="start" x="482.693" y="-31.5" font-family="Helvetica,sans-Serif" font-size="10.00">+ defuzzify()</text>
<text text-anchor="start" x="482.693" y="-21.5" font-family="Helvetica,sans-Serif" font-size="10.00">+ clone()</text>
<text text-anchor="start" x="482.693" y="-11.5" font-family="Helvetica,sans-Serif" font-size="10.00">+ constructor()</text>
</a>
</g>
</g>
<!-- Node1&#45;&gt;Node6 -->
<g id="edge6" class="edge"><title>Node1&#45;&gt;Node6</title>
<path fill="none" stroke="midnightblue" d="M399.699,-173.528C421.026,-158.291 444.363,-141.227 465.371,-125 468.411,-122.651 471.503,-120.228 474.612,-117.763"/>
<polygon fill="none" stroke="midnightblue" points="397.438,-170.841 391.322,-179.492 401.498,-176.543 397.438,-170.841"/>
</g>
<!-- Node8 -->
<g id="node9" class="node"><title>Node8</title>
<g id="a_node9"><a xlink:href="../../d7/dde/classfl_1_1_weighted_average.html" target="_top" xlink:title="The WeightedAverage class is a WeightedDefuzzifier that computes the weighted average of a fuzzy set ...">
<polygon fill="white" stroke="black" points="622.241,-0.5 622.241,-124.5 738.5,-124.5 738.5,-0.5 622.241,-0.5"/>
<text text-anchor="middle" x="680.371" y="-112.5" font-family="Helvetica,sans-Serif" font-size="10.00">fl::WeightedAverage</text>
<polyline fill="none" stroke="black" points="622.241,-106.5 738.5,-106.5 "/>
<text text-anchor="middle" x="680.371" y="-94.5" font-family="Helvetica,sans-Serif" font-size="10.00"> </text>
<polyline fill="none" stroke="black" points="622.241,-88.5 738.5,-88.5 "/>
<text text-anchor="start" x="630.241" y="-76.5" font-family="Helvetica,sans-Serif" font-size="10.00">+ WeightedAverage()</text>
<text text-anchor="start" x="630.241" y="-66.5" font-family="Helvetica,sans-Serif" font-size="10.00">+ WeightedAverage()</text>
<text text-anchor="start" x="630.241" y="-56.5" font-family="Helvetica,sans-Serif" font-size="10.00">+ ~WeightedAverage()</text>
<text text-anchor="start" x="630.241" y="-46.5" font-family="Helvetica,sans-Serif" font-size="10.00">+ className()</text>
<text text-anchor="start" x="630.241" y="-36.5" font-family="Helvetica,sans-Serif" font-size="10.00">+ complexity()</text>
<text text-anchor="start" x="630.241" y="-26.5" font-family="Helvetica,sans-Serif" font-size="10.00">+ defuzzify()</text>
<text text-anchor="start" x="630.241" y="-16.5" font-family="Helvetica,sans-Serif" font-size="10.00">+ clone()</text>
<text text-anchor="start" x="630.241" y="-6.5" font-family="Helvetica,sans-Serif" font-size="10.00">+ constructor()</text>
</a>
</g>
</g>
<!-- Node7&#45;&gt;Node8 -->
<g id="edge8" class="edge"><title>Node7&#45;&gt;Node8</title>
<path fill="none" stroke="midnightblue" d="M766.367,-154.052C757.073,-144.266 747.562,-134.251 738.414,-124.618"/>
<polygon fill="none" stroke="midnightblue" points="763.998,-156.64 773.422,-161.481 769.073,-151.82 763.998,-156.64"/>
</g>
<!-- Node9 -->
<g id="node10" class="node"><title>Node9</title>
<g id="a_node10"><a xlink:href="../../d9/da1/classfl_1_1_weighted_average_custom.html" target="_top" xlink:title="The (experimental) WeightedAverageCustom class is a WeightedDefuzzifier that computes the weighted av...">
<polygon fill="white" stroke="black" points="756.015,-0.5 756.015,-124.5 906.727,-124.5 906.727,-0.5 756.015,-0.5"/>
<text text-anchor="middle" x="831.371" y="-112.5" font-family="Helvetica,sans-Serif" font-size="10.00">fl::WeightedAverageCustom</text>
<polyline fill="none" stroke="black" points="756.015,-106.5 906.727,-106.5 "/>
<text text-anchor="middle" x="831.371" y="-94.5" font-family="Helvetica,sans-Serif" font-size="10.00"> </text>
<polyline fill="none" stroke="black" points="756.015,-88.5 906.727,-88.5 "/>
<text text-anchor="start" x="764.015" y="-76.5" font-family="Helvetica,sans-Serif" font-size="10.00">+ WeightedAverageCustom()</text>
<text text-anchor="start" x="764.015" y="-66.5" font-family="Helvetica,sans-Serif" font-size="10.00">+ WeightedAverageCustom()</text>
<text text-anchor="start" x="764.015" y="-56.5" font-family="Helvetica,sans-Serif" font-size="10.00">+ ~WeightedAverageCustom()</text>
<text text-anchor="start" x="764.015" y="-46.5" font-family="Helvetica,sans-Serif" font-size="10.00">+ className()</text>
<text text-anchor="start" x="764.015" y="-36.5" font-family="Helvetica,sans-Serif" font-size="10.00">+ complexity()</text>
<text text-anchor="start" x="764.015" y="-26.5" font-family="Helvetica,sans-Serif" font-size="10.00">+ defuzzify()</text>
<text text-anchor="start" x="764.015" y="-16.5" font-family="Helvetica,sans-Serif" font-size="10.00">+ clone()</text>
<text text-anchor="start" x="764.015" y="-6.5" font-family="Helvetica,sans-Serif" font-size="10.00">+ constructor()</text>
</a>
</g>
</g>
<!-- Node7&#45;&gt;Node9 -->
<g id="edge9" class="edge"><title>Node7&#45;&gt;Node9</title>
<path fill="none" stroke="midnightblue" d="M831.371,-151.457C831.371,-142.501 831.371,-133.401 831.371,-124.618"/>
<polygon fill="none" stroke="midnightblue" points="827.871,-151.481 831.371,-161.481 834.871,-151.481 827.871,-151.481"/>
</g>
<!-- Node10 -->
<g id="node11" class="node"><title>Node10</title>
<g id="a_node11"><a xlink:href="../../d0/dbb/classfl_1_1_weighted_sum.html" target="_top" xlink:title="The WeightedSum class is a WeightedDefuzzifier that computes the weighted sum of a fuzzy set represen...">
<polygon fill="white" stroke="black" points="924.496,-0.5 924.496,-124.5 1024.25,-124.5 1024.25,-0.5 924.496,-0.5"/>
<text text-anchor="middle" x="974.371" y="-112.5" font-family="Helvetica,sans-Serif" font-size="10.00">fl::WeightedSum</text>
<polyline fill="none" stroke="black" points="924.496,-106.5 1024.25,-106.5 "/>
<text text-anchor="middle" x="974.371" y="-94.5" font-family="Helvetica,sans-Serif" font-size="10.00"> </text>
<polyline fill="none" stroke="black" points="924.496,-88.5 1024.25,-88.5 "/>
<text text-anchor="start" x="932.496" y="-76.5" font-family="Helvetica,sans-Serif" font-size="10.00">+ WeightedSum()</text>
<text text-anchor="start" x="932.496" y="-66.5" font-family="Helvetica,sans-Serif" font-size="10.00">+ WeightedSum()</text>
<text text-anchor="start" x="932.496" y="-56.5" font-family="Helvetica,sans-Serif" font-size="10.00">+ ~WeightedSum()</text>
<text text-anchor="start" x="932.496" y="-46.5" font-family="Helvetica,sans-Serif" font-size="10.00">+ className()</text>
<text text-anchor="start" x="932.496" y="-36.5" font-family="Helvetica,sans-Serif" font-size="10.00">+ complexity()</text>
<text text-anchor="start" x="932.496" y="-26.5" font-family="Helvetica,sans-Serif" font-size="10.00">+ defuzzify()</text>
<text text-anchor="start" x="932.496" y="-16.5" font-family="Helvetica,sans-Serif" font-size="10.00">+ clone()</text>
<text text-anchor="start" x="932.496" y="-6.5" font-family="Helvetica,sans-Serif" font-size="10.00">+ constructor()</text>
</a>
</g>
</g>
<!-- Node7&#45;&gt;Node10 -->
<g id="edge10" class="edge"><title>Node7&#45;&gt;Node10</title>
<path fill="none" stroke="midnightblue" d="M893.06,-153.908C903.502,-142.298 914.228,-130.372 924.325,-119.145"/>
<polygon fill="none" stroke="midnightblue" points="890.334,-151.705 886.249,-161.481 895.539,-156.386 890.334,-151.705"/>
</g>
<!-- Node11 -->
<g id="node12" class="node"><title>Node11</title>
<g id="a_node12"><a xlink:href="../../d9/d53/classfl_1_1_weighted_sum_custom.html" target="_top" xlink:title="The (experimental) WeightedSumCustom class is a WeightedDefuzzifier that computes the weighted sum of...">
<polygon fill="white" stroke="black" points="1042.27,-0.5 1042.27,-124.5 1176.47,-124.5 1176.47,-0.5 1042.27,-0.5"/>
<text text-anchor="middle" x="1109.37" y="-112.5" font-family="Helvetica,sans-Serif" font-size="10.00">fl::WeightedSumCustom</text>
<polyline fill="none" stroke="black" points="1042.27,-106.5 1176.47,-106.5 "/>
<text text-anchor="middle" x="1109.37" y="-94.5" font-family="Helvetica,sans-Serif" font-size="10.00"> </text>
<polyline fill="none" stroke="black" points="1042.27,-88.5 1176.47,-88.5 "/>
<text text-anchor="start" x="1050.27" y="-76.5" font-family="Helvetica,sans-Serif" font-size="10.00">+ WeightedSumCustom()</text>
<text text-anchor="start" x="1050.27" y="-66.5" font-family="Helvetica,sans-Serif" font-size="10.00">+ WeightedSumCustom()</text>
<text text-anchor="start" x="1050.27" y="-56.5" font-family="Helvetica,sans-Serif" font-size="10.00">+ ~WeightedSumCustom()</text>
<text text-anchor="start" x="1050.27" y="-46.5" font-family="Helvetica,sans-Serif" font-size="10.00">+ className()</text>
<text text-anchor="start" x="1050.27" y="-36.5" font-family="Helvetica,sans-Serif" font-size="10.00">+ complexity()</text>
<text text-anchor="start" x="1050.27" y="-26.5" font-family="Helvetica,sans-Serif" font-size="10.00">+ defuzzify()</text>
<text text-anchor="start" x="1050.27" y="-16.5" font-family="Helvetica,sans-Serif" font-size="10.00">+ clone()</text>
<text text-anchor="start" x="1050.27" y="-6.5" font-family="Helvetica,sans-Serif" font-size="10.00">+ constructor()</text>
</a>
</g>
</g>
<!-- Node7&#45;&gt;Node11 -->
<g id="edge11" class="edge"><title>Node7&#45;&gt;Node11</title>
<path fill="none" stroke="midnightblue" d="M904.083,-192.306C943.515,-174.735 992.418,-150.962 1033.37,-125 1036.24,-123.182 1039.12,-121.273 1042,-119.299"/>
<polygon fill="none" stroke="midnightblue" points="902.524,-189.169 894.791,-196.411 905.353,-195.572 902.524,-189.169"/>
</g>
</g>
</svg>
