<?xml version="1.0" standalone="no"?>
<!DOCTYPE svg PUBLIC "-//W3C//DTD SVG 20010904//EN"
 "http://www.w3.org/TR/2001/REC-SVG-20010904/DTD/svg10.dtd">
<svg version="1.0" xmlns="http://www.w3.org/2000/svg"
 width="72.000000pt" height="73.000000pt" viewBox="0 0 72.000000 73.000000"
 preserveAspectRatio="xMidYMid meet">
<metadata>
Created by potrace 1.11, written by Peter Selinger 2001-2013
</metadata>
<g transform="translate(0.000000,73.000000) scale(0.100000,-0.100000)"
fill="#000000" stroke="none">
<path d="M69 713 c-16 -6 -38 -27 -49 -45 -19 -31 -20 -50 -20 -301 0 -382
-25 -357 357 -357 248 0 270 2 300 20 17 10 37 28 43 40 8 14 11 111 11 296 0
382 27 354 -347 357 -188 1 -275 -2 -295 -10z m561 -28 c56 -29 60 -50 60
-313 0 -145 -4 -251 -11 -270 -22 -63 -38 -67 -299 -70 -260 -4 -298 2 -334
51 -20 27 -21 40 -21 281 0 279 3 298 60 322 47 20 506 19 545 -1z"/>
<path d="M477 633 c-3 -4 -13 -37 -22 -73 -9 -36 -21 -83 -27 -105 l-11 -40
-17 65 c-34 128 -41 150 -48 150 -5 0 -19 -44 -31 -97 -13 -54 -27 -104 -31
-112 -4 -8 -18 32 -35 98 -15 62 -31 109 -35 104 -7 -8 -130 -493 -130 -513 0
-6 93 -10 265 -10 246 0 265 1 265 18 0 20 -126 511 -133 518 -3 3 -7 2 -10
-3z m-223 -151 l27 -107 -34 -130 -34 -130 -57 -3 c-52 -3 -57 -1 -52 15 3 10
26 101 51 203 59 237 65 260 69 260 2 0 16 -48 30 -108z m146 -114 c0 -50 -9
-58 -61 -58 -27 0 -49 2 -49 5 0 3 14 63 32 133 l32 127 23 -90 c12 -49 23
-102 23 -117z m129 25 c5 -21 23 -91 39 -155 l30 -118 -179 0 c-98 0 -179 3
-179 8 0 4 8 39 18 77 l18 70 62 3 c70 3 73 6 92 95 l13 57 38 0 c36 0 39 -2
48 -37z"/>
</g>
</svg>
