<?xml version="1.0" encoding="UTF-8" standalone="no"?>
<!DOCTYPE svg PUBLIC "-//W3C//DTD SVG 1.1//EN"
 "http://www.w3.org/Graphics/SVG/1.1/DTD/svg11.dtd">
<!-- Generated by graphviz version 2.38.0 (20140413.2041)
 -->
<!-- Title: fl::Highest Pages: 1 -->
<svg width="125pt" height="324pt"
 viewBox="0.00 0.00 124.87 324.00" xmlns="http://www.w3.org/2000/svg" xmlns:xlink="http://www.w3.org/1999/xlink">
<g id="graph0" class="graph" transform="scale(1 1) rotate(0) translate(4 320)">
<title>fl::Highest</title>
<polygon fill="white" stroke="none" points="-4,4 -4,-320 120.869,-320 120.869,4 -4,4"/>
<!-- Node2 -->
<g id="node1" class="node"><title>Node2</title>
<polygon fill="#bfbfbf" stroke="black" points="0,-0.5 0,-154.5 116.869,-154.5 116.869,-0.5 0,-0.5"/>
<text text-anchor="middle" x="58.4346" y="-142.5" font-family="Helvetica,sans-Serif" font-size="10.00">fl::Highest</text>
<polyline fill="none" stroke="black" points="0,-136.5 116.869,-136.5 "/>
<text text-anchor="middle" x="58.4346" y="-124.5" font-family="Helvetica,sans-Serif" font-size="10.00"> </text>
<polyline fill="none" stroke="black" points="0,-118.5 116.869,-118.5 "/>
<text text-anchor="start" x="8" y="-106.5" font-family="Helvetica,sans-Serif" font-size="10.00">+ Highest()</text>
<text text-anchor="start" x="8" y="-96.5" font-family="Helvetica,sans-Serif" font-size="10.00">+ ~Highest()</text>
<text text-anchor="start" x="8" y="-86.5" font-family="Helvetica,sans-Serif" font-size="10.00">+ className()</text>
<text text-anchor="start" x="8" y="-76.5" font-family="Helvetica,sans-Serif" font-size="10.00">+ parameters()</text>
<text text-anchor="start" x="8" y="-66.5" font-family="Helvetica,sans-Serif" font-size="10.00">+ configure()</text>
<text text-anchor="start" x="8" y="-56.5" font-family="Helvetica,sans-Serif" font-size="10.00">+ setNumberOfRules()</text>
<text text-anchor="start" x="8" y="-46.5" font-family="Helvetica,sans-Serif" font-size="10.00">+ getNumberOfRules()</text>
<text text-anchor="start" x="8" y="-36.5" font-family="Helvetica,sans-Serif" font-size="10.00">+ complexity()</text>
<text text-anchor="start" x="8" y="-26.5" font-family="Helvetica,sans-Serif" font-size="10.00">+ activate()</text>
<text text-anchor="start" x="8" y="-16.5" font-family="Helvetica,sans-Serif" font-size="10.00">+ clone()</text>
<text text-anchor="start" x="8" y="-6.5" font-family="Helvetica,sans-Serif" font-size="10.00">+ constructor()</text>
</g>
<!-- Node3 -->
<g id="node2" class="node"><title>Node3</title>
<g id="a_node2"><a xlink:href="../../df/d4b/classfl_1_1_activation.html" target="_top" xlink:title="The Activation class is the abstract class for RuleBlock activation methods. ">
<polygon fill="white" stroke="black" points="17.5073,-191.5 17.5073,-315.5 99.3618,-315.5 99.3618,-191.5 17.5073,-191.5"/>
<text text-anchor="middle" x="58.4346" y="-303.5" font-family="Helvetica,sans-Serif" font-size="10.00">fl::Activation</text>
<polyline fill="none" stroke="black" points="17.5073,-297.5 99.3618,-297.5 "/>
<text text-anchor="middle" x="58.4346" y="-285.5" font-family="Helvetica,sans-Serif" font-size="10.00"> </text>
<polyline fill="none" stroke="black" points="17.5073,-279.5 99.3618,-279.5 "/>
<text text-anchor="start" x="25.5073" y="-267.5" font-family="Helvetica,sans-Serif" font-size="10.00">+ Activation()</text>
<text text-anchor="start" x="25.5073" y="-257.5" font-family="Helvetica,sans-Serif" font-size="10.00">+ ~Activation()</text>
<text text-anchor="start" x="25.5073" y="-247.5" font-family="Helvetica,sans-Serif" font-size="10.00">+ className()</text>
<text text-anchor="start" x="25.5073" y="-237.5" font-family="Helvetica,sans-Serif" font-size="10.00">+ parameters()</text>
<text text-anchor="start" x="25.5073" y="-227.5" font-family="Helvetica,sans-Serif" font-size="10.00">+ configure()</text>
<text text-anchor="start" x="25.5073" y="-217.5" font-family="Helvetica,sans-Serif" font-size="10.00">+ complexity()</text>
<text text-anchor="start" x="25.5073" y="-207.5" font-family="Helvetica,sans-Serif" font-size="10.00">+ activate()</text>
<text text-anchor="start" x="25.5073" y="-197.5" font-family="Helvetica,sans-Serif" font-size="10.00">+ clone()</text>
</a>
</g>
</g>
<!-- Node3&#45;&gt;Node2 -->
<g id="edge1" class="edge"><title>Node3&#45;&gt;Node2</title>
<path fill="none" stroke="midnightblue" d="M58.4346,-181.022C58.4346,-172.287 58.4346,-163.337 58.4346,-154.539"/>
<polygon fill="none" stroke="midnightblue" points="54.9347,-181.154 58.4346,-191.154 61.9347,-181.154 54.9347,-181.154"/>
</g>
</g>
</svg>
