<?xml version="1.0" encoding="UTF-8" standalone="no"?>
<!DOCTYPE svg PUBLIC "-//W3C//DTD SVG 1.1//EN"
 "http://www.w3.org/Graphics/SVG/1.1/DTD/svg11.dtd">
<!-- Generated by graphviz version 2.38.0 (20140413.2041)
 -->
<!-- Title: fl::Norm Pages: 1 -->
<svg width="189pt" height="675pt"
 viewBox="0.00 0.00 189.02 675.00" xmlns="http://www.w3.org/2000/svg" xmlns:xlink="http://www.w3.org/1999/xlink">
<g id="graph0" class="graph" transform="scale(1 1) rotate(0) translate(4 671)">
<title>fl::Norm</title>
<polygon fill="white" stroke="none" points="-4,4 -4,-671 185.024,-671 185.024,4 -4,4"/>
<!-- Node0 -->
<g id="node1" class="node"><title>Node0</title>
<polygon fill="#bfbfbf" stroke="black" points="63.8211,-562.5 63.8211,-666.5 144.557,-666.5 144.557,-562.5 63.8211,-562.5"/>
<text text-anchor="middle" x="104.189" y="-654.5" font-family="Helvetica,sans-Serif" font-size="10.00">fl::Norm</text>
<polyline fill="none" stroke="black" points="63.8211,-648.5 144.557,-648.5 "/>
<text text-anchor="middle" x="104.189" y="-636.5" font-family="Helvetica,sans-Serif" font-size="10.00"> </text>
<polyline fill="none" stroke="black" points="63.8211,-630.5 144.557,-630.5 "/>
<text text-anchor="start" x="71.8211" y="-618.5" font-family="Helvetica,sans-Serif" font-size="10.00">+ Norm()</text>
<text text-anchor="start" x="71.8211" y="-608.5" font-family="Helvetica,sans-Serif" font-size="10.00">+ ~Norm()</text>
<text text-anchor="start" x="71.8211" y="-598.5" font-family="Helvetica,sans-Serif" font-size="10.00">+ className()</text>
<text text-anchor="start" x="71.8211" y="-588.5" font-family="Helvetica,sans-Serif" font-size="10.00">+ complexity()</text>
<text text-anchor="start" x="71.8211" y="-578.5" font-family="Helvetica,sans-Serif" font-size="10.00">+ compute()</text>
<text text-anchor="start" x="71.8211" y="-568.5" font-family="Helvetica,sans-Serif" font-size="10.00">+ clone()</text>
</g>
<!-- Node1 -->
<g id="node2" class="node"><title>Node1</title>
<g id="a_node2"><a xlink:href="../../d4/df8/classfl_1_1_s_norm.html" target="_top" xlink:title="The SNorm class is the base class for all S&#45;Norms, and it is utilized as the disjunction fuzzy logic ...">
<polygon fill="white" stroke="black" points="27.0735,-451.5 27.0735,-525.5 95.305,-525.5 95.305,-451.5 27.0735,-451.5"/>
<text text-anchor="middle" x="61.1893" y="-513.5" font-family="Helvetica,sans-Serif" font-size="10.00">fl::SNorm</text>
<polyline fill="none" stroke="black" points="27.0735,-507.5 95.305,-507.5 "/>
<text text-anchor="middle" x="61.1893" y="-495.5" font-family="Helvetica,sans-Serif" font-size="10.00"> </text>
<polyline fill="none" stroke="black" points="27.0735,-489.5 95.305,-489.5 "/>
<text text-anchor="start" x="35.0735" y="-477.5" font-family="Helvetica,sans-Serif" font-size="10.00">+ SNorm()</text>
<text text-anchor="start" x="35.0735" y="-467.5" font-family="Helvetica,sans-Serif" font-size="10.00">+ ~SNorm()</text>
<text text-anchor="start" x="35.0735" y="-457.5" font-family="Helvetica,sans-Serif" font-size="10.00">+ clone()</text>
</a>
</g>
</g>
<!-- Node0&#45;&gt;Node1 -->
<g id="edge1" class="edge"><title>Node0&#45;&gt;Node1</title>
<path fill="none" stroke="midnightblue" d="M83.1304,-552.772C79.9277,-543.536 76.7119,-534.263 73.7676,-525.772"/>
<polygon fill="none" stroke="midnightblue" points="79.868,-554.047 86.4513,-562.349 86.4817,-551.754 79.868,-554.047"/>
</g>
<!-- Node3 -->
<g id="node4" class="node"><title>Node3</title>
<g id="a_node4"><a xlink:href="../../d6/d29/classfl_1_1_t_norm.html" target="_top" xlink:title="The TNorm class is the base class for T&#45;Norms, and it is utilized as the conjunction fuzzy logic oper...">
<polygon fill="white" stroke="black" points="113.354,-451.5 113.354,-525.5 181.024,-525.5 181.024,-451.5 113.354,-451.5"/>
<text text-anchor="middle" x="147.189" y="-513.5" font-family="Helvetica,sans-Serif" font-size="10.00">fl::TNorm</text>
<polyline fill="none" stroke="black" points="113.354,-507.5 181.024,-507.5 "/>
<text text-anchor="middle" x="147.189" y="-495.5" font-family="Helvetica,sans-Serif" font-size="10.00"> </text>
<polyline fill="none" stroke="black" points="113.354,-489.5 181.024,-489.5 "/>
<text text-anchor="start" x="121.354" y="-477.5" font-family="Helvetica,sans-Serif" font-size="10.00">+ TNorm()</text>
<text text-anchor="start" x="121.354" y="-467.5" font-family="Helvetica,sans-Serif" font-size="10.00">+ ~TNorm()</text>
<text text-anchor="start" x="121.354" y="-457.5" font-family="Helvetica,sans-Serif" font-size="10.00">+ clone()</text>
</a>
</g>
</g>
<!-- Node0&#45;&gt;Node3 -->
<g id="edge12" class="edge"><title>Node0&#45;&gt;Node3</title>
<path fill="none" stroke="midnightblue" d="M125.248,-552.772C128.451,-543.536 131.667,-534.263 134.611,-525.772"/>
<polygon fill="none" stroke="midnightblue" points="121.897,-551.754 121.927,-562.349 128.51,-554.047 121.897,-551.754"/>
</g>
<!-- Node2 -->
<g id="node3" class="node"><title>Node2</title>
<g id="a_node3"><a xlink:href="../../d0/d96/classfl_1_1_f_l___i_f_i_n_a_l.html" target="_top" xlink:title="The Extremely class is a Hedge located fifth in the ordered set (Not, Seldom, Somewhat, Very, Extremely, Any). ">
<polygon fill="white" stroke="black" points="11.639,-0.5 11.639,-414.5 110.74,-414.5 110.74,-0.5 11.639,-0.5"/>
<text text-anchor="middle" x="61.1893" y="-402.5" font-family="Helvetica,sans-Serif" font-size="10.00">fl::FL_IFINAL</text>
<polyline fill="none" stroke="black" points="11.639,-396.5 110.74,-396.5 "/>
<text text-anchor="start" x="19.639" y="-384.5" font-family="Helvetica,sans-Serif" font-size="10.00">+ variable</text>
<text text-anchor="start" x="19.639" y="-374.5" font-family="Helvetica,sans-Serif" font-size="10.00">+ hedges</text>
<text text-anchor="start" x="19.639" y="-364.5" font-family="Helvetica,sans-Serif" font-size="10.00">+ term</text>
<text text-anchor="start" x="19.639" y="-354.5" font-family="Helvetica,sans-Serif" font-size="10.00">+ name</text>
<text text-anchor="start" x="19.639" y="-344.5" font-family="Helvetica,sans-Serif" font-size="10.00">+ left</text>
<text text-anchor="start" x="19.639" y="-334.5" font-family="Helvetica,sans-Serif" font-size="10.00">+ right</text>
<polyline fill="none" stroke="black" points="11.639,-328.5 110.74,-328.5 "/>
<text text-anchor="start" x="19.639" y="-316.5" font-family="Helvetica,sans-Serif" font-size="10.00">+ name()</text>
<text text-anchor="start" x="19.639" y="-306.5" font-family="Helvetica,sans-Serif" font-size="10.00">+ complexity()</text>
<text text-anchor="start" x="19.639" y="-296.5" font-family="Helvetica,sans-Serif" font-size="10.00">+ hedge()</text>
<text text-anchor="start" x="19.639" y="-286.5" font-family="Helvetica,sans-Serif" font-size="10.00">+ clone()</text>
<text text-anchor="start" x="19.639" y="-276.5" font-family="Helvetica,sans-Serif" font-size="10.00">+ HedgeFunction()</text>
<text text-anchor="start" x="19.639" y="-266.5" font-family="Helvetica,sans-Serif" font-size="10.00">+ name()</text>
<text text-anchor="start" x="19.639" y="-256.5" font-family="Helvetica,sans-Serif" font-size="10.00">+ function()</text>
<text text-anchor="start" x="19.639" y="-246.5" font-family="Helvetica,sans-Serif" font-size="10.00">+ setFormula()</text>
<text text-anchor="start" x="19.639" y="-236.5" font-family="Helvetica,sans-Serif" font-size="10.00">+ getFormula()</text>
<text text-anchor="start" x="19.639" y="-226.5" font-family="Helvetica,sans-Serif" font-size="10.00">+ complexity()</text>
<text text-anchor="start" x="19.639" y="-216.5" font-family="Helvetica,sans-Serif" font-size="10.00">+ hedge()</text>
<text text-anchor="start" x="19.639" y="-206.5" font-family="Helvetica,sans-Serif" font-size="10.00">+ clone()</text>
<text text-anchor="start" x="19.639" y="-196.5" font-family="Helvetica,sans-Serif" font-size="10.00">+ name()</text>
<text text-anchor="start" x="19.639" y="-186.5" font-family="Helvetica,sans-Serif" font-size="10.00">+ complexity()</text>
<text text-anchor="start" x="19.639" y="-176.5" font-family="Helvetica,sans-Serif" font-size="10.00">+ hedge()</text>
<text text-anchor="start" x="19.639" y="-166.5" font-family="Helvetica,sans-Serif" font-size="10.00">and 101 more...</text>
<text text-anchor="start" x="19.639" y="-156.5" font-family="Helvetica,sans-Serif" font-size="10.00">+ constructor()</text>
<text text-anchor="start" x="19.639" y="-146.5" font-family="Helvetica,sans-Serif" font-size="10.00">+ constructor()</text>
<text text-anchor="start" x="19.639" y="-136.5" font-family="Helvetica,sans-Serif" font-size="10.00">+ constructor()</text>
<text text-anchor="start" x="19.639" y="-126.5" font-family="Helvetica,sans-Serif" font-size="10.00">+ constructor()</text>
<text text-anchor="start" x="19.639" y="-116.5" font-family="Helvetica,sans-Serif" font-size="10.00">+ constructor()</text>
<text text-anchor="start" x="19.639" y="-106.5" font-family="Helvetica,sans-Serif" font-size="10.00">+ constructor()</text>
<text text-anchor="start" x="19.639" y="-96.5" font-family="Helvetica,sans-Serif" font-size="10.00">+ constructor()</text>
<text text-anchor="start" x="19.639" y="-86.5" font-family="Helvetica,sans-Serif" font-size="10.00">+ constructor()</text>
<text text-anchor="start" x="19.639" y="-76.5" font-family="Helvetica,sans-Serif" font-size="10.00">+ constructor()</text>
<text text-anchor="start" x="19.639" y="-66.5" font-family="Helvetica,sans-Serif" font-size="10.00">+ constructor()</text>
<text text-anchor="start" x="19.639" y="-56.5" font-family="Helvetica,sans-Serif" font-size="10.00">+ constructor()</text>
<text text-anchor="start" x="19.639" y="-46.5" font-family="Helvetica,sans-Serif" font-size="10.00">+ constructor()</text>
<text text-anchor="start" x="19.639" y="-36.5" font-family="Helvetica,sans-Serif" font-size="10.00">+ constructor()</text>
<text text-anchor="start" x="19.639" y="-26.5" font-family="Helvetica,sans-Serif" font-size="10.00">+ constructor()</text>
<text text-anchor="start" x="19.639" y="-16.5" font-family="Helvetica,sans-Serif" font-size="10.00">+ constructor()</text>
<text text-anchor="start" x="19.639" y="-6.5" font-family="Helvetica,sans-Serif" font-size="10.00">and 9 more...</text>
</a>
</g>
</g>
<!-- Node1&#45;&gt;Node2 -->
<g id="edge2" class="edge"><title>Node1&#45;&gt;Node2</title>
<path fill="none" stroke="midnightblue" d="M21.7345,-457.413C-2.75683,-411.145 -6.12284,-321.795 11.6365,-263.684"/>
<polygon fill="none" stroke="midnightblue" points="18.7766,-459.286 26.9145,-466.071 24.7834,-455.692 18.7766,-459.286"/>
</g>
<!-- Node1&#45;&gt;Node2 -->
<g id="edge3" class="edge"><title>Node1&#45;&gt;Node2</title>
<path fill="none" stroke="midnightblue" d="M25.0935,-441.668C22.7236,-433.417 20.7314,-424.354 19.1168,-414.737"/>
<polygon fill="none" stroke="midnightblue" points="21.7966,-442.849 28.1715,-451.312 28.4651,-440.721 21.7966,-442.849"/>
</g>
<!-- Node1&#45;&gt;Node2 -->
<g id="edge4" class="edge"><title>Node1&#45;&gt;Node2</title>
<path fill="none" stroke="midnightblue" d="M35.3509,-441.396C33.6826,-433.218 32.2781,-424.248 31.1375,-414.737"/>
<polygon fill="none" stroke="midnightblue" points="31.9754,-442.336 37.6052,-451.312 38.8012,-440.785 31.9754,-442.336"/>
</g>
<!-- Node1&#45;&gt;Node2 -->
<g id="edge5" class="edge"><title>Node1&#45;&gt;Node2</title>
<path fill="none" stroke="midnightblue" d="M45.6862,-441.396C44.6852,-433.218 43.8426,-424.248 43.1582,-414.737"/>
<polygon fill="none" stroke="midnightblue" points="42.2193,-441.876 47.0388,-451.312 49.1551,-440.93 42.2193,-441.876"/>
</g>
<!-- Node1&#45;&gt;Node2 -->
<g id="edge6" class="edge"><title>Node1&#45;&gt;Node2</title>
<path fill="none" stroke="midnightblue" d="M56.0105,-441.123C55.6817,-433.018 55.4045,-424.142 55.1789,-414.737"/>
<polygon fill="none" stroke="midnightblue" points="52.523,-441.48 56.4724,-451.312 59.5158,-441.163 52.523,-441.48"/>
</g>
<!-- Node1&#45;&gt;Node2 -->
<g id="edge7" class="edge"><title>Node1&#45;&gt;Node2</title>
<path fill="none" stroke="midnightblue" d="M66.368,-441.123C66.6968,-433.018 66.974,-424.142 67.1996,-414.737"/>
<polygon fill="none" stroke="midnightblue" points="62.8627,-441.163 65.9061,-451.312 69.8555,-441.48 62.8627,-441.163"/>
</g>
<!-- Node1&#45;&gt;Node2 -->
<g id="edge8" class="edge"><title>Node1&#45;&gt;Node2</title>
<path fill="none" stroke="midnightblue" d="M76.6923,-441.396C77.6933,-433.218 78.536,-424.248 79.2203,-414.737"/>
<polygon fill="none" stroke="midnightblue" points="73.2234,-440.93 75.3397,-451.312 80.1592,-441.876 73.2234,-440.93"/>
</g>
<!-- Node1&#45;&gt;Node2 -->
<g id="edge9" class="edge"><title>Node1&#45;&gt;Node2</title>
<path fill="none" stroke="midnightblue" d="M87.0276,-441.396C88.696,-433.218 90.1004,-424.248 91.241,-414.737"/>
<polygon fill="none" stroke="midnightblue" points="83.5773,-440.785 84.7733,-451.312 90.4032,-442.336 83.5773,-440.785"/>
</g>
<!-- Node1&#45;&gt;Node2 -->
<g id="edge10" class="edge"><title>Node1&#45;&gt;Node2</title>
<path fill="none" stroke="midnightblue" d="M97.285,-441.668C99.6549,-433.417 101.647,-424.354 103.262,-414.737"/>
<polygon fill="none" stroke="midnightblue" points="93.9134,-440.721 94.207,-451.312 100.582,-442.849 93.9134,-440.721"/>
</g>
<!-- Node1&#45;&gt;Node2 -->
<g id="edge11" class="edge"><title>Node1&#45;&gt;Node2</title>
<path fill="none" stroke="midnightblue" d="M100.644,-457.413C125.135,-411.145 128.501,-321.795 110.742,-263.684"/>
<polygon fill="none" stroke="midnightblue" points="97.5951,-455.692 95.464,-466.071 103.602,-459.286 97.5951,-455.692"/>
</g>
<!-- Node3&#45;&gt;Node2 -->
<g id="edge13" class="edge"><title>Node3&#45;&gt;Node2</title>
<path fill="none" stroke="midnightblue" d="M106.99,-457.081C98.5666,-445.324 90.3486,-430.821 82.7066,-414.776"/>
<polygon fill="none" stroke="midnightblue" points="104.299,-459.324 113.154,-465.14 109.858,-455.071 104.299,-459.324"/>
</g>
<!-- Node3&#45;&gt;Node2 -->
<g id="edge14" class="edge"><title>Node3&#45;&gt;Node2</title>
<path fill="none" stroke="midnightblue" d="M108.417,-443.864C103.779,-434.997 99.1546,-425.129 94.6496,-414.599"/>
<polygon fill="none" stroke="midnightblue" points="105.391,-445.625 113.252,-452.729 111.536,-442.274 105.391,-445.625"/>
</g>
<!-- Node3&#45;&gt;Node2 -->
<g id="edge15" class="edge"><title>Node3&#45;&gt;Node2</title>
<path fill="none" stroke="midnightblue" d="M117.709,-441.94C114.113,-433.616 110.426,-424.459 106.729,-414.737"/>
<polygon fill="none" stroke="midnightblue" points="114.618,-443.601 121.884,-451.312 121.012,-440.753 114.618,-443.601"/>
</g>
<!-- Node3&#45;&gt;Node2 -->
<g id="edge16" class="edge"><title>Node3&#45;&gt;Node2</title>
<path fill="none" stroke="midnightblue" d="M127.976,-441.87C122.74,-426.887 116.852,-409.208 110.791,-390.392"/>
<polygon fill="none" stroke="midnightblue" points="124.682,-443.052 131.318,-451.312 131.28,-440.717 124.682,-443.052"/>
</g>
<!-- Node3&#45;&gt;Node2 -->
<g id="edge17" class="edge"><title>Node3&#45;&gt;Node2</title>
<path fill="none" stroke="midnightblue" d="M138.152,-441.418C131.212,-415.469 121.281,-381.539 110.828,-347.638"/>
<polygon fill="none" stroke="midnightblue" points="134.825,-442.529 140.751,-451.312 141.595,-440.75 134.825,-442.529"/>
</g>
<!-- Node3&#45;&gt;Node2 -->
<g id="edge18" class="edge"><title>Node3&#45;&gt;Node2</title>
<path fill="none" stroke="midnightblue" d="M148.487,-441.426C141.686,-404.816 126.814,-352.32 110.804,-306.43"/>
<polygon fill="none" stroke="midnightblue" points="145.042,-442.049 150.185,-451.312 151.941,-440.863 145.042,-442.049"/>
</g>
<!-- Node3&#45;&gt;Node2 -->
<g id="edge19" class="edge"><title>Node3&#45;&gt;Node2</title>
<path fill="none" stroke="midnightblue" d="M158.792,-441.16C154.012,-395.743 133.645,-326.06 110.845,-274.789"/>
<polygon fill="none" stroke="midnightblue" points="155.318,-441.629 159.619,-451.312 162.295,-441.06 155.318,-441.629"/>
</g>
<!-- Node3&#45;&gt;Node2 -->
<g id="edge20" class="edge"><title>Node3&#45;&gt;Node2</title>
<path fill="none" stroke="midnightblue" d="M169.142,-441.009C167.843,-388.864 141.799,-304.871 110.848,-253.389"/>
<polygon fill="none" stroke="midnightblue" points="165.64,-441.281 169.052,-451.312 172.64,-441.343 165.64,-441.281"/>
</g>
</g>
</svg>
