<?xml version="1.0" encoding="UTF-8" standalone="no"?>
<!DOCTYPE svg PUBLIC "-//W3C//DTD SVG 1.1//EN"
 "http://www.w3.org/Graphics/SVG/1.1/DTD/svg11.dtd">
<!-- Generated by graphviz version 2.38.0 (20140413.2041)
 -->
<!-- Title: fl::Proposition Pages: 1 -->
<svg width="95pt" height="234pt"
 viewBox="0.00 0.00 95.15 234.00" xmlns="http://www.w3.org/2000/svg" xmlns:xlink="http://www.w3.org/1999/xlink">
<g id="graph0" class="graph" transform="scale(1 1) rotate(0) translate(4 230)">
<title>fl::Proposition</title>
<polygon fill="white" stroke="none" points="-4,4 -4,-230 91.1475,-230 91.1475,4 -4,4"/>
<!-- Node1 -->
<g id="node1" class="node"><title>Node1</title>
<polygon fill="#bfbfbf" stroke="black" points="0,-0.5 0,-104.5 87.1475,-104.5 87.1475,-0.5 0,-0.5"/>
<text text-anchor="middle" x="43.5737" y="-92.5" font-family="Helvetica,sans-Serif" font-size="10.00">fl::Proposition</text>
<polyline fill="none" stroke="black" points="0,-86.5 87.1475,-86.5 "/>
<text text-anchor="start" x="8" y="-74.5" font-family="Helvetica,sans-Serif" font-size="10.00">+ variable</text>
<text text-anchor="start" x="8" y="-64.5" font-family="Helvetica,sans-Serif" font-size="10.00">+ hedges</text>
<text text-anchor="start" x="8" y="-54.5" font-family="Helvetica,sans-Serif" font-size="10.00">+ term</text>
<polyline fill="none" stroke="black" points="0,-48.5 87.1475,-48.5 "/>
<text text-anchor="start" x="8" y="-36.5" font-family="Helvetica,sans-Serif" font-size="10.00">+ Proposition()</text>
<text text-anchor="start" x="8" y="-26.5" font-family="Helvetica,sans-Serif" font-size="10.00">+ ~Proposition()</text>
<text text-anchor="start" x="8" y="-16.5" font-family="Helvetica,sans-Serif" font-size="10.00">+ type()</text>
<text text-anchor="start" x="8" y="-6.5" font-family="Helvetica,sans-Serif" font-size="10.00">+ toString()</text>
</g>
<!-- Node2 -->
<g id="node2" class="node"><title>Node2</title>
<g id="a_node2"><a xlink:href="../../d2/d7f/classfl_1_1_expression.html" target="_top" xlink:title="The Expression class is the base class to build an expression tree. ">
<polygon fill="white" stroke="black" points="0.280762,-141.5 0.280762,-225.5 86.8667,-225.5 86.8667,-141.5 0.280762,-141.5"/>
<text text-anchor="middle" x="43.5737" y="-213.5" font-family="Helvetica,sans-Serif" font-size="10.00">fl::Expression</text>
<polyline fill="none" stroke="black" points="0.280762,-207.5 86.8667,-207.5 "/>
<text text-anchor="middle" x="43.5737" y="-195.5" font-family="Helvetica,sans-Serif" font-size="10.00"> </text>
<polyline fill="none" stroke="black" points="0.280762,-189.5 86.8667,-189.5 "/>
<text text-anchor="start" x="8.28076" y="-177.5" font-family="Helvetica,sans-Serif" font-size="10.00">+ Expression()</text>
<text text-anchor="start" x="8.28076" y="-167.5" font-family="Helvetica,sans-Serif" font-size="10.00">+ ~Expression()</text>
<text text-anchor="start" x="8.28076" y="-157.5" font-family="Helvetica,sans-Serif" font-size="10.00">+ type()</text>
<text text-anchor="start" x="8.28076" y="-147.5" font-family="Helvetica,sans-Serif" font-size="10.00">+ toString()</text>
</a>
</g>
</g>
<!-- Node2&#45;&gt;Node1 -->
<g id="edge1" class="edge"><title>Node2&#45;&gt;Node1</title>
<path fill="none" stroke="midnightblue" d="M43.5737,-131.261C43.5737,-122.517 43.5737,-113.434 43.5737,-104.691"/>
<polygon fill="none" stroke="midnightblue" points="40.0738,-131.329 43.5737,-141.329 47.0738,-131.329 40.0738,-131.329"/>
</g>
</g>
</svg>
