<?xml version="1.0" encoding="UTF-8" standalone="no"?>
<!DOCTYPE svg PUBLIC "-//W3C//DTD SVG 1.1//EN"
 "http://www.w3.org/Graphics/SVG/1.1/DTD/svg11.dtd">
<!-- Generated by graphviz version 2.38.0 (20140413.2041)
 -->
<!-- Title: fuzzylite/fl/variable/OutputVariable.h Pages: 1 -->
<svg width="1206pt" height="532pt"
 viewBox="0.00 0.00 1206.00 532.00" xmlns="http://www.w3.org/2000/svg" xmlns:xlink="http://www.w3.org/1999/xlink">
<g id="graph0" class="graph" transform="scale(1 1) rotate(0) translate(4 528)">
<title>fuzzylite/fl/variable/OutputVariable.h</title>
<polygon fill="white" stroke="none" points="-4,4 -4,-528 1202,-528 1202,4 -4,4"/>
<!-- Node0 -->
<g id="node1" class="node"><title>Node0</title>
<polygon fill="#bfbfbf" stroke="black" points="364.15,-495.5 364.15,-523.5 461.85,-523.5 461.85,-495.5 364.15,-495.5"/>
<text text-anchor="start" x="372.15" y="-511.5" font-family="Helvetica,sans-Serif" font-size="10.00">fuzzylite/fl/variable</text>
<text text-anchor="middle" x="413" y="-501.5" font-family="Helvetica,sans-Serif" font-size="10.00">/OutputVariable.h</text>
</g>
<!-- Node1 -->
<g id="node2" class="node"><title>Node1</title>
<g id="a_node2"><a xlink:href="../../d4/d25/_variable_8h.html" target="_top" xlink:title="fl/variable/Variable.h">
<polygon fill="white" stroke="black" points="93.0659,-330.5 93.0659,-348.5 198.934,-348.5 198.934,-330.5 93.0659,-330.5"/>
<text text-anchor="middle" x="146" y="-336.5" font-family="Helvetica,sans-Serif" font-size="10.00">fl/variable/Variable.h</text>
</a>
</g>
</g>
<!-- Node0&#45;&gt;Node1 -->
<g id="edge1" class="edge"><title>Node0&#45;&gt;Node1</title>
<path fill="none" stroke="midnightblue" d="M364.107,-502.726C327.458,-496.543 277.395,-484.007 240,-459 200.11,-432.324 169.271,-383.35 154.888,-357.505"/>
<polygon fill="midnightblue" stroke="midnightblue" points="157.878,-355.677 150.047,-348.541 151.719,-359.003 157.878,-355.677"/>
</g>
<!-- Node12 -->
<g id="node13" class="node"><title>Node12</title>
<g id="a_node13"><a xlink:href="../../d7/d8a/_defuzzifier_8h.html" target="_top" xlink:title="fl/defuzzifier/Defuzzifier.h">
<polygon fill="white" stroke="black" points="174.419,-165.5 174.419,-183.5 301.581,-183.5 301.581,-165.5 174.419,-165.5"/>
<text text-anchor="middle" x="238" y="-171.5" font-family="Helvetica,sans-Serif" font-size="10.00">fl/defuzzifier/Defuzzifier.h</text>
</a>
</g>
</g>
<!-- Node0&#45;&gt;Node12 -->
<g id="edge53" class="edge"><title>Node0&#45;&gt;Node12</title>
<path fill="none" stroke="midnightblue" d="M363.997,-496.032C317.279,-480.851 254,-450.192 254,-395.5 254,-395.5 254,-395.5 254,-283.5 254,-251.527 247.053,-214.798 242.314,-193.463"/>
<polygon fill="midnightblue" stroke="midnightblue" points="245.689,-192.523 240.026,-183.568 238.869,-194.1 245.689,-192.523"/>
</g>
<!-- Node16 -->
<g id="node17" class="node"><title>Node16</title>
<g id="a_node17"><a xlink:href="../../d4/dd1/_activated_8h.html" target="_top" xlink:title="fl/term/Activated.h">
<polygon fill="white" stroke="black" points="845.985,-385.5 845.985,-403.5 942.015,-403.5 942.015,-385.5 845.985,-385.5"/>
<text text-anchor="middle" x="894" y="-391.5" font-family="Helvetica,sans-Serif" font-size="10.00">fl/term/Activated.h</text>
</a>
</g>
</g>
<!-- Node0&#45;&gt;Node16 -->
<g id="edge20" class="edge"><title>Node0&#45;&gt;Node16</title>
<path fill="none" stroke="midnightblue" d="M462.215,-496.938C556.279,-474.84 760.207,-426.932 850.021,-405.832"/>
<polygon fill="midnightblue" stroke="midnightblue" points="850.949,-409.209 859.883,-403.515 849.348,-402.395 850.949,-409.209"/>
</g>
<!-- Node27 -->
<g id="node28" class="node"><title>Node27</title>
<g id="a_node28"><a xlink:href="../../d1/d59/_aggregated_8h.html" target="_top" xlink:title="fl/term/Aggregated.h">
<polygon fill="white" stroke="black" points="878.697,-440.5 878.697,-458.5 985.303,-458.5 985.303,-440.5 878.697,-440.5"/>
<text text-anchor="middle" x="932" y="-446.5" font-family="Helvetica,sans-Serif" font-size="10.00">fl/term/Aggregated.h</text>
</a>
</g>
</g>
<!-- Node0&#45;&gt;Node27 -->
<g id="edge49" class="edge"><title>Node0&#45;&gt;Node27</title>
<path fill="none" stroke="midnightblue" d="M462.294,-502.991C556.816,-492.428 763.449,-469.336 868.281,-457.621"/>
<polygon fill="midnightblue" stroke="midnightblue" points="868.858,-461.078 878.407,-456.489 868.08,-454.122 868.858,-461.078"/>
</g>
<!-- Node2 -->
<g id="node3" class="node"><title>Node2</title>
<g id="a_node3"><a xlink:href="../../de/d53/fuzzylite_8h.html" target="_top" xlink:title="fl/fuzzylite.h">
<polygon fill="white" stroke="black" points="572.879,-55.5 572.879,-73.5 641.121,-73.5 641.121,-55.5 572.879,-55.5"/>
<text text-anchor="middle" x="607" y="-61.5" font-family="Helvetica,sans-Serif" font-size="10.00">fl/fuzzylite.h</text>
</a>
</g>
</g>
<!-- Node1&#45;&gt;Node2 -->
<g id="edge2" class="edge"><title>Node1&#45;&gt;Node2</title>
<path fill="none" stroke="midnightblue" d="M114.679,-330.492C71.7797,-317.421 0,-287.094 0,-230.5 0,-230.5 0,-230.5 0,-173.5 0,-116.385 421.947,-79.4345 562.247,-68.7268"/>
<polygon fill="midnightblue" stroke="midnightblue" points="562.918,-72.1862 572.626,-67.9435 562.391,-65.2061 562.918,-72.1862"/>
</g>
<!-- Node10 -->
<g id="node11" class="node"><title>Node10</title>
<g id="a_node11"><a xlink:href="../../d4/da3/_centroid_8h.html" target="_top" xlink:title="fl/defuzzifier/Centroid.h">
<polygon fill="white" stroke="black" points="86.8647,-275.5 86.8647,-293.5 205.135,-293.5 205.135,-275.5 86.8647,-275.5"/>
<text text-anchor="middle" x="146" y="-281.5" font-family="Helvetica,sans-Serif" font-size="10.00">fl/defuzzifier/Centroid.h</text>
</a>
</g>
</g>
<!-- Node1&#45;&gt;Node10 -->
<g id="edge10" class="edge"><title>Node1&#45;&gt;Node10</title>
<path fill="none" stroke="midnightblue" d="M146,-330.219C146,-323.177 146,-312.808 146,-303.828"/>
<polygon fill="midnightblue" stroke="midnightblue" points="149.5,-303.55 146,-293.55 142.5,-303.55 149.5,-303.55"/>
</g>
<!-- Node14 -->
<g id="node15" class="node"><title>Node14</title>
<polygon fill="white" stroke="#bfbfbf" points="1024.38,-55.5 1024.38,-73.5 1067.62,-73.5 1067.62,-55.5 1024.38,-55.5"/>
<text text-anchor="middle" x="1046" y="-61.5" font-family="Helvetica,sans-Serif" font-size="10.00">vector</text>
</g>
<!-- Node1&#45;&gt;Node14 -->
<g id="edge19" class="edge"><title>Node1&#45;&gt;Node14</title>
<path fill="none" stroke="midnightblue" d="M198.972,-337.995C360.122,-335.562 841.287,-321.402 970,-239 1019.21,-207.496 1027,-185.472 1042,-129 1045.91,-114.287 1046.77,-97.0128 1046.73,-84.1986"/>
<polygon fill="midnightblue" stroke="midnightblue" points="1050.22,-83.8062 1046.5,-73.8857 1043.22,-83.9604 1050.22,-83.8062"/>
</g>
<!-- Node15 -->
<g id="node16" class="node"><title>Node15</title>
<polygon fill="white" stroke="#bfbfbf" points="323.773,-110.5 323.773,-128.5 364.227,-128.5 364.227,-110.5 323.773,-110.5"/>
<text text-anchor="middle" x="344" y="-116.5" font-family="Helvetica,sans-Serif" font-size="10.00">string</text>
</g>
<!-- Node1&#45;&gt;Node15 -->
<g id="edge18" class="edge"><title>Node1&#45;&gt;Node15</title>
<path fill="none" stroke="midnightblue" d="M127.507,-330.407C112.339,-322.927 91.2748,-310.482 78,-294 56.5555,-267.374 39.134,-249.148 57,-220 111.076,-131.777 250.866,-120.341 313.204,-119.811"/>
<polygon fill="midnightblue" stroke="midnightblue" points="313.557,-123.311 323.56,-119.819 313.563,-116.311 313.557,-123.311"/>
</g>
<!-- Node3 -->
<g id="node4" class="node"><title>Node3</title>
<polygon fill="white" stroke="#bfbfbf" points="846.436,-0.5 846.436,-18.5 903.564,-18.5 903.564,-0.5 846.436,-0.5"/>
<text text-anchor="middle" x="875" y="-6.5" font-family="Helvetica,sans-Serif" font-size="10.00">algorithm</text>
</g>
<!-- Node2&#45;&gt;Node3 -->
<g id="edge3" class="edge"><title>Node2&#45;&gt;Node3</title>
<path fill="none" stroke="midnightblue" d="M641.215,-56.7337C691.221,-46.8443 784.001,-28.496 836.388,-18.1359"/>
<polygon fill="midnightblue" stroke="midnightblue" points="837.171,-21.5489 846.302,-16.1753 835.813,-14.6819 837.171,-21.5489"/>
</g>
<!-- Node4 -->
<g id="node5" class="node"><title>Node4</title>
<polygon fill="white" stroke="#bfbfbf" points="1048.38,-0.5 1048.38,-18.5 1091.62,-18.5 1091.62,-0.5 1048.38,-0.5"/>
<text text-anchor="middle" x="1070" y="-6.5" font-family="Helvetica,sans-Serif" font-size="10.00">cmath</text>
</g>
<!-- Node2&#45;&gt;Node4 -->
<g id="edge4" class="edge"><title>Node2&#45;&gt;Node4</title>
<path fill="none" stroke="midnightblue" d="M641.422,-59.5597C728.055,-49.6427 954.172,-23.7589 1038.07,-14.1555"/>
<polygon fill="midnightblue" stroke="midnightblue" points="1038.72,-17.6039 1048.25,-12.9892 1037.92,-10.6493 1038.72,-17.6039"/>
</g>
<!-- Node5 -->
<g id="node6" class="node"><title>Node5</title>
<polygon fill="white" stroke="#bfbfbf" points="648.828,-0.5 648.828,-18.5 703.172,-18.5 703.172,-0.5 648.828,-0.5"/>
<text text-anchor="middle" x="676" y="-6.5" font-family="Helvetica,sans-Serif" font-size="10.00">iostream</text>
</g>
<!-- Node2&#45;&gt;Node5 -->
<g id="edge5" class="edge"><title>Node2&#45;&gt;Node5</title>
<path fill="none" stroke="midnightblue" d="M617.48,-55.4504C628.017,-47.3566 644.489,-34.7042 657.276,-24.8822"/>
<polygon fill="midnightblue" stroke="midnightblue" points="659.623,-27.4926 665.422,-18.6253 655.359,-21.9412 659.623,-27.4926"/>
</g>
<!-- Node6 -->
<g id="node7" class="node"><title>Node6</title>
<polygon fill="white" stroke="#bfbfbf" points="721.219,-0.5 721.219,-18.5 772.781,-18.5 772.781,-0.5 721.219,-0.5"/>
<text text-anchor="middle" x="747" y="-6.5" font-family="Helvetica,sans-Serif" font-size="10.00">sstream</text>
</g>
<!-- Node2&#45;&gt;Node6 -->
<g id="edge6" class="edge"><title>Node2&#45;&gt;Node6</title>
<path fill="none" stroke="midnightblue" d="M628.263,-55.4504C651.596,-46.6173 689.271,-32.3546 715.917,-22.267"/>
<polygon fill="midnightblue" stroke="midnightblue" points="717.424,-25.4392 725.537,-18.6253 714.945,-18.8926 717.424,-25.4392"/>
</g>
<!-- Node7 -->
<g id="node8" class="node"><title>Node7</title>
<polygon fill="white" stroke="#bfbfbf" points="456.613,-0.5 456.613,-18.5 495.387,-18.5 495.387,-0.5 456.613,-0.5"/>
<text text-anchor="middle" x="476" y="-6.5" font-family="Helvetica,sans-Serif" font-size="10.00">limits</text>
</g>
<!-- Node2&#45;&gt;Node7 -->
<g id="edge7" class="edge"><title>Node2&#45;&gt;Node7</title>
<path fill="none" stroke="midnightblue" d="M587.104,-55.4504C565.241,-46.6051 529.92,-32.3151 504.981,-22.2252"/>
<polygon fill="midnightblue" stroke="midnightblue" points="506.237,-18.9577 495.654,-18.4517 503.611,-25.4467 506.237,-18.9577"/>
</g>
<!-- Node8 -->
<g id="node9" class="node"><title>Node8</title>
<polygon fill="white" stroke="#bfbfbf" points="512.943,-0.5 512.943,-18.5 565.057,-18.5 565.057,-0.5 512.943,-0.5"/>
<text text-anchor="middle" x="539" y="-6.5" font-family="Helvetica,sans-Serif" font-size="10.00">memory</text>
</g>
<!-- Node2&#45;&gt;Node8 -->
<g id="edge8" class="edge"><title>Node2&#45;&gt;Node8</title>
<path fill="none" stroke="midnightblue" d="M596.672,-55.4504C586.288,-47.3566 570.054,-34.7042 557.453,-24.8822"/>
<polygon fill="midnightblue" stroke="midnightblue" points="559.464,-22.0122 549.425,-18.6253 555.161,-27.5333 559.464,-22.0122"/>
</g>
<!-- Node9 -->
<g id="node10" class="node"><title>Node9</title>
<polygon fill="white" stroke="#bfbfbf" points="582.879,-0.5 582.879,-18.5 631.121,-18.5 631.121,-0.5 582.879,-0.5"/>
<text text-anchor="middle" x="607" y="-6.5" font-family="Helvetica,sans-Serif" font-size="10.00">cstddef</text>
</g>
<!-- Node2&#45;&gt;Node9 -->
<g id="edge9" class="edge"><title>Node2&#45;&gt;Node9</title>
<path fill="none" stroke="midnightblue" d="M607,-55.2188C607,-48.1769 607,-37.8083 607,-28.8277"/>
<polygon fill="midnightblue" stroke="midnightblue" points="610.5,-28.5495 607,-18.5496 603.5,-28.5496 610.5,-28.5495"/>
</g>
<!-- Node11 -->
<g id="node12" class="node"><title>Node11</title>
<g id="a_node12"><a xlink:href="../../d9/d58/_integral_defuzzifier_8h.html" target="_top" xlink:title="fl/defuzzifier/IntegralDefuzzifier.h">
<polygon fill="white" stroke="black" points="65.7417,-220.5 65.7417,-238.5 226.258,-238.5 226.258,-220.5 65.7417,-220.5"/>
<text text-anchor="middle" x="146" y="-226.5" font-family="Helvetica,sans-Serif" font-size="10.00">fl/defuzzifier/IntegralDefuzzifier.h</text>
</a>
</g>
</g>
<!-- Node10&#45;&gt;Node11 -->
<g id="edge11" class="edge"><title>Node10&#45;&gt;Node11</title>
<path fill="none" stroke="midnightblue" d="M146,-275.219C146,-268.177 146,-257.808 146,-248.828"/>
<polygon fill="midnightblue" stroke="midnightblue" points="149.5,-248.55 146,-238.55 142.5,-248.55 149.5,-248.55"/>
</g>
<!-- Node11&#45;&gt;Node12 -->
<g id="edge12" class="edge"><title>Node11&#45;&gt;Node12</title>
<path fill="none" stroke="midnightblue" d="M159.973,-220.45C174.563,-212.045 197.686,-198.724 214.979,-188.762"/>
<polygon fill="midnightblue" stroke="midnightblue" points="216.978,-191.65 223.896,-183.625 213.484,-185.584 216.978,-191.65"/>
</g>
<!-- Node12&#45;&gt;Node2 -->
<g id="edge13" class="edge"><title>Node12&#45;&gt;Node2</title>
<path fill="none" stroke="midnightblue" d="M245.118,-165.253C257.675,-151.309 285.261,-123.296 315,-110 396.922,-73.3748 503.286,-66.0279 562.398,-65.0456"/>
<polygon fill="midnightblue" stroke="midnightblue" points="562.559,-68.5441 572.519,-64.9325 562.481,-61.5445 562.559,-68.5441"/>
</g>
<!-- Node13 -->
<g id="node14" class="node"><title>Node13</title>
<g id="a_node14"><a xlink:href="../../d5/de4/_complexity_8h.html" target="_top" xlink:title="fl/Complexity.h">
<polygon fill="white" stroke="black" points="634.581,-110.5 634.581,-128.5 715.419,-128.5 715.419,-110.5 634.581,-110.5"/>
<text text-anchor="middle" x="675" y="-116.5" font-family="Helvetica,sans-Serif" font-size="10.00">fl/Complexity.h</text>
</a>
</g>
</g>
<!-- Node12&#45;&gt;Node13 -->
<g id="edge14" class="edge"><title>Node12&#45;&gt;Node13</title>
<path fill="none" stroke="midnightblue" d="M302.012,-165.737C389.362,-155.143 544.156,-136.369 624.085,-126.675"/>
<polygon fill="midnightblue" stroke="midnightblue" points="624.879,-130.104 634.385,-125.426 624.037,-123.155 624.879,-130.104"/>
</g>
<!-- Node12&#45;&gt;Node15 -->
<g id="edge17" class="edge"><title>Node12&#45;&gt;Node15</title>
<path fill="none" stroke="midnightblue" d="M254.099,-165.45C271.221,-156.89 298.542,-143.229 318.576,-133.212"/>
<polygon fill="midnightblue" stroke="midnightblue" points="320.37,-136.228 327.749,-128.625 317.24,-129.967 320.37,-136.228"/>
</g>
<!-- Node13&#45;&gt;Node2 -->
<g id="edge15" class="edge"><title>Node13&#45;&gt;Node2</title>
<path fill="none" stroke="midnightblue" d="M664.672,-110.45C654.288,-102.357 638.054,-89.7042 625.453,-79.8822"/>
<polygon fill="midnightblue" stroke="midnightblue" points="627.464,-77.0122 617.425,-73.6253 623.161,-82.5333 627.464,-77.0122"/>
</g>
<!-- Node13&#45;&gt;Node14 -->
<g id="edge16" class="edge"><title>Node13&#45;&gt;Node14</title>
<path fill="none" stroke="midnightblue" d="M715.499,-111.92C719.718,-111.259 723.945,-110.609 728,-110 832.358,-94.3315 956.26,-77.5031 1013.74,-69.7975"/>
<polygon fill="midnightblue" stroke="midnightblue" points="1014.56,-73.2197 1024,-68.4241 1013.63,-66.2815 1014.56,-73.2197"/>
</g>
<!-- Node17 -->
<g id="node18" class="node"><title>Node17</title>
<g id="a_node18"><a xlink:href="../../d8/d11/_term_8h.html" target="_top" xlink:title="fl/term/Term.h">
<polygon fill="white" stroke="black" points="931.441,-330.5 931.441,-348.5 1008.56,-348.5 1008.56,-330.5 931.441,-330.5"/>
<text text-anchor="middle" x="970" y="-336.5" font-family="Helvetica,sans-Serif" font-size="10.00">fl/term/Term.h</text>
</a>
</g>
</g>
<!-- Node16&#45;&gt;Node17 -->
<g id="edge21" class="edge"><title>Node16&#45;&gt;Node17</title>
<path fill="none" stroke="midnightblue" d="M905.543,-385.45C917.261,-377.279 935.642,-364.46 949.782,-354.6"/>
<polygon fill="midnightblue" stroke="midnightblue" points="952.148,-357.216 958.349,-348.625 948.144,-351.475 952.148,-357.216"/>
</g>
<!-- Node17&#45;&gt;Node2 -->
<g id="edge22" class="edge"><title>Node17&#45;&gt;Node2</title>
<path fill="none" stroke="midnightblue" d="M968.83,-330.336C966.827,-317.902 962.055,-293.693 953,-275 909.925,-186.075 890.313,-158.095 804,-110 755.999,-83.2528 692.939,-72.5768 651.248,-68.319"/>
<polygon fill="midnightblue" stroke="midnightblue" points="651.414,-64.8193 641.131,-67.3689 650.76,-71.7886 651.414,-64.8193"/>
</g>
<!-- Node17&#45;&gt;Node4 -->
<g id="edge46" class="edge"><title>Node17&#45;&gt;Node4</title>
<path fill="none" stroke="midnightblue" d="M1008.68,-337.19C1073.73,-332.697 1198,-313.281 1198,-230.5 1198,-230.5 1198,-230.5 1198,-118.5 1198,-68.055 1139.21,-36.3803 1101.31,-21.2035"/>
<polygon fill="midnightblue" stroke="midnightblue" points="1102.3,-17.8345 1091.71,-17.5285 1099.8,-24.372 1102.3,-17.8345"/>
</g>
<!-- Node17&#45;&gt;Node13 -->
<g id="edge45" class="edge"><title>Node17&#45;&gt;Node13</title>
<path fill="none" stroke="midnightblue" d="M965.902,-330.291C955.465,-309.926 926.197,-256.13 891,-220 861.401,-189.616 850.951,-183.947 813,-165 783.112,-150.078 747.129,-138.669 719.4,-131.14"/>
<polygon fill="midnightblue" stroke="midnightblue" points="720.147,-127.718 709.584,-128.543 718.356,-134.485 720.147,-127.718"/>
</g>
<!-- Node17&#45;&gt;Node14 -->
<g id="edge48" class="edge"><title>Node17&#45;&gt;Node14</title>
<path fill="none" stroke="midnightblue" d="M1004.11,-330.471C1048.93,-317.66 1122,-287.96 1122,-230.5 1122,-230.5 1122,-230.5 1122,-173.5 1122,-143.329 1115.34,-134.692 1098,-110 1089.68,-98.1482 1077.49,-87.4953 1067.01,-79.586"/>
<polygon fill="midnightblue" stroke="midnightblue" points="1068.89,-76.6247 1058.73,-73.6213 1064.8,-82.3052 1068.89,-76.6247"/>
</g>
<!-- Node17&#45;&gt;Node15 -->
<g id="edge47" class="edge"><title>Node17&#45;&gt;Node15</title>
<path fill="none" stroke="midnightblue" d="M931.228,-336.874C812.929,-331.187 459.356,-308.601 372,-239 342.044,-215.132 340.465,-165.69 342.101,-138.83"/>
<polygon fill="midnightblue" stroke="midnightblue" points="345.616,-138.802 342.957,-128.546 338.64,-138.221 345.616,-138.802"/>
</g>
<!-- Node18 -->
<g id="node19" class="node"><title>Node18</title>
<g id="a_node19"><a xlink:href="../../d6/dd6/_operation_8h.html" target="_top" xlink:title="fl/Operation.h">
<polygon fill="white" stroke="black" points="672.983,-275.5 672.983,-293.5 749.017,-293.5 749.017,-275.5 672.983,-275.5"/>
<text text-anchor="middle" x="711" y="-281.5" font-family="Helvetica,sans-Serif" font-size="10.00">fl/Operation.h</text>
</a>
</g>
</g>
<!-- Node17&#45;&gt;Node18 -->
<g id="edge23" class="edge"><title>Node17&#45;&gt;Node18</title>
<path fill="none" stroke="midnightblue" d="M931.225,-330.565C885.281,-321.164 808.721,-305.497 759.057,-295.334"/>
<polygon fill="midnightblue" stroke="midnightblue" points="759.693,-291.892 749.195,-293.316 758.29,-298.75 759.693,-291.892"/>
</g>
<!-- Node18&#45;&gt;Node2 -->
<g id="edge24" class="edge"><title>Node18&#45;&gt;Node2</title>
<path fill="none" stroke="midnightblue" d="M672.809,-282.669C608.169,-280.368 481.52,-271.694 454,-239 402.293,-177.57 524.673,-106.267 580.758,-77.9812"/>
<polygon fill="midnightblue" stroke="midnightblue" points="582.371,-81.0882 589.78,-73.5143 579.265,-74.815 582.371,-81.0882"/>
</g>
<!-- Node18&#45;&gt;Node3 -->
<g id="edge41" class="edge"><title>Node18&#45;&gt;Node3</title>
<path fill="none" stroke="midnightblue" d="M749.243,-281.703C812.496,-276.451 932,-255.891 932,-175.5 932,-175.5 932,-175.5 932,-118.5 932,-82.3023 906.647,-46.3493 889.758,-26.4152"/>
<polygon fill="midnightblue" stroke="midnightblue" points="892.165,-23.8536 882.926,-18.669 886.915,-28.4839 892.165,-23.8536"/>
</g>
<!-- Node18&#45;&gt;Node12 -->
<g id="edge32" class="edge"><title>Node18&#45;&gt;Node12</title>
<path fill="none" stroke="midnightblue" d="M672.732,-283.393C606.266,-282.192 465.887,-275.141 354,-239 317.87,-227.33 280.012,-204.238 257.735,-189.351"/>
<polygon fill="midnightblue" stroke="midnightblue" points="259.428,-186.269 249.193,-183.531 255.486,-192.054 259.428,-186.269"/>
</g>
<!-- Node18&#45;&gt;Node14 -->
<g id="edge31" class="edge"><title>Node18&#45;&gt;Node14</title>
<path fill="none" stroke="midnightblue" d="M749.394,-280.122C807.664,-274.359 914.939,-261.06 946,-239 1001.25,-199.764 1030.33,-119.702 1041.07,-83.7237"/>
<polygon fill="midnightblue" stroke="midnightblue" points="1044.55,-84.2751 1043.92,-73.699 1037.82,-82.3601 1044.55,-84.2751"/>
</g>
<!-- Node18&#45;&gt;Node15 -->
<g id="edge30" class="edge"><title>Node18&#45;&gt;Node15</title>
<path fill="none" stroke="midnightblue" d="M672.907,-282.842C597.995,-280.817 435.05,-272.568 392,-239 360.437,-214.389 349.524,-165.657 345.829,-138.994"/>
<polygon fill="midnightblue" stroke="midnightblue" points="349.269,-138.277 344.62,-128.757 342.317,-139.099 349.269,-138.277"/>
</g>
<!-- Node19 -->
<g id="node20" class="node"><title>Node19</title>
<g id="a_node20"><a xlink:href="../../df/d98/_exception_8h.html" target="_top" xlink:title="fl/Exception.h">
<polygon fill="white" stroke="black" points="727.983,-165.5 727.983,-183.5 804.017,-183.5 804.017,-165.5 727.983,-165.5"/>
<text text-anchor="middle" x="766" y="-171.5" font-family="Helvetica,sans-Serif" font-size="10.00">fl/Exception.h</text>
</a>
</g>
</g>
<!-- Node18&#45;&gt;Node19 -->
<g id="edge25" class="edge"><title>Node18&#45;&gt;Node19</title>
<path fill="none" stroke="midnightblue" d="M749.316,-278.494C792.84,-271.929 859.811,-258.86 875,-239 895.457,-212.252 852.019,-194.727 814.059,-184.996"/>
<polygon fill="midnightblue" stroke="midnightblue" points="814.606,-181.527 804.063,-182.573 812.957,-188.33 814.606,-181.527"/>
</g>
<!-- Node21 -->
<g id="node22" class="node"><title>Node21</title>
<g id="a_node22"><a xlink:href="../../d7/d72/_norm_8h.html" target="_top" xlink:title="fl/norm/Norm.h">
<polygon fill="white" stroke="black" points="518.938,-165.5 518.938,-183.5 601.062,-183.5 601.062,-165.5 518.938,-165.5"/>
<text text-anchor="middle" x="560" y="-171.5" font-family="Helvetica,sans-Serif" font-size="10.00">fl/norm/Norm.h</text>
</a>
</g>
</g>
<!-- Node18&#45;&gt;Node21 -->
<g id="edge33" class="edge"><title>Node18&#45;&gt;Node21</title>
<path fill="none" stroke="midnightblue" d="M672.885,-282.403C610.119,-279.705 489.313,-270.455 463,-239 443.194,-215.324 481.93,-197.226 516.174,-186.52"/>
<polygon fill="midnightblue" stroke="midnightblue" points="517.533,-189.767 526.124,-183.567 515.541,-183.057 517.533,-189.767"/>
</g>
<!-- Node22 -->
<g id="node23" class="node"><title>Node22</title>
<g id="a_node23"><a xlink:href="../../de/d44/_s_norm_8h.html" target="_top" xlink:title="fl/norm/SNorm.h">
<polygon fill="white" stroke="black" points="471.604,-220.5 471.604,-238.5 560.396,-238.5 560.396,-220.5 471.604,-220.5"/>
<text text-anchor="middle" x="516" y="-226.5" font-family="Helvetica,sans-Serif" font-size="10.00">fl/norm/SNorm.h</text>
</a>
</g>
</g>
<!-- Node18&#45;&gt;Node22 -->
<g id="edge37" class="edge"><title>Node18&#45;&gt;Node22</title>
<path fill="none" stroke="midnightblue" d="M681.384,-275.45C647.785,-266.318 592.835,-251.383 555.581,-241.258"/>
<polygon fill="midnightblue" stroke="midnightblue" points="556.143,-237.784 545.575,-238.538 554.307,-244.539 556.143,-237.784"/>
</g>
<!-- Node23 -->
<g id="node24" class="node"><title>Node23</title>
<g id="a_node24"><a xlink:href="../../d0/d24/_t_norm_8h.html" target="_top" xlink:title="fl/norm/TNorm.h">
<polygon fill="white" stroke="black" points="578.884,-220.5 578.884,-238.5 667.116,-238.5 667.116,-220.5 578.884,-220.5"/>
<text text-anchor="middle" x="623" y="-226.5" font-family="Helvetica,sans-Serif" font-size="10.00">fl/norm/TNorm.h</text>
</a>
</g>
</g>
<!-- Node18&#45;&gt;Node23 -->
<g id="edge39" class="edge"><title>Node18&#45;&gt;Node23</title>
<path fill="none" stroke="midnightblue" d="M697.635,-275.45C683.808,-267.123 661.97,-253.97 645.481,-244.039"/>
<polygon fill="midnightblue" stroke="midnightblue" points="646.863,-240.786 636.491,-238.625 643.252,-246.783 646.863,-240.786"/>
</g>
<!-- Node24 -->
<g id="node25" class="node"><title>Node24</title>
<polygon fill="white" stroke="#bfbfbf" points="685.49,-220.5 685.49,-238.5 736.51,-238.5 736.51,-220.5 685.49,-220.5"/>
<text text-anchor="middle" x="711" y="-226.5" font-family="Helvetica,sans-Serif" font-size="10.00">iomanip</text>
</g>
<!-- Node18&#45;&gt;Node24 -->
<g id="edge42" class="edge"><title>Node18&#45;&gt;Node24</title>
<path fill="none" stroke="midnightblue" d="M711,-275.219C711,-268.177 711,-257.808 711,-248.828"/>
<polygon fill="midnightblue" stroke="midnightblue" points="714.5,-248.55 711,-238.55 707.5,-248.55 714.5,-248.55"/>
</g>
<!-- Node25 -->
<g id="node26" class="node"><title>Node25</title>
<polygon fill="white" stroke="#bfbfbf" points="754.604,-220.5 754.604,-238.5 803.396,-238.5 803.396,-220.5 754.604,-220.5"/>
<text text-anchor="middle" x="779" y="-226.5" font-family="Helvetica,sans-Serif" font-size="10.00">cstdarg</text>
</g>
<!-- Node18&#45;&gt;Node25 -->
<g id="edge43" class="edge"><title>Node18&#45;&gt;Node25</title>
<path fill="none" stroke="midnightblue" d="M721.328,-275.45C731.712,-267.357 747.946,-254.704 760.547,-244.882"/>
<polygon fill="midnightblue" stroke="midnightblue" points="762.839,-247.533 768.575,-238.625 758.536,-242.012 762.839,-247.533"/>
</g>
<!-- Node26 -->
<g id="node27" class="node"><title>Node26</title>
<polygon fill="white" stroke="#bfbfbf" points="821.549,-220.5 821.549,-238.5 866.451,-238.5 866.451,-220.5 821.549,-220.5"/>
<text text-anchor="middle" x="844" y="-226.5" font-family="Helvetica,sans-Serif" font-size="10.00">cctype</text>
</g>
<!-- Node18&#45;&gt;Node26 -->
<g id="edge44" class="edge"><title>Node18&#45;&gt;Node26</title>
<path fill="none" stroke="midnightblue" d="M731.2,-275.45C753.268,-266.656 788.842,-252.48 814.136,-242.401"/>
<polygon fill="midnightblue" stroke="midnightblue" points="815.616,-245.579 823.61,-238.625 813.025,-239.076 815.616,-245.579"/>
</g>
<!-- Node19&#45;&gt;Node2 -->
<g id="edge26" class="edge"><title>Node19&#45;&gt;Node2</title>
<path fill="none" stroke="midnightblue" d="M727.977,-171.002C696.565,-166.94 652.909,-156.371 626,-129 614.16,-116.957 609.651,-97.8514 607.959,-83.7397"/>
<polygon fill="midnightblue" stroke="midnightblue" points="611.442,-83.3961 607.119,-73.7234 604.467,-83.9808 611.442,-83.3961"/>
</g>
<!-- Node19&#45;&gt;Node14 -->
<g id="edge29" class="edge"><title>Node19&#45;&gt;Node14</title>
<path fill="none" stroke="midnightblue" d="M787.046,-165.382C836.117,-146.455 958.286,-99.3325 1015.52,-77.2581"/>
<polygon fill="midnightblue" stroke="midnightblue" points="1017.02,-80.4287 1025.09,-73.5644 1014.5,-73.8977 1017.02,-80.4287"/>
</g>
<!-- Node19&#45;&gt;Node15 -->
<g id="edge28" class="edge"><title>Node19&#45;&gt;Node15</title>
<path fill="none" stroke="midnightblue" d="M727.806,-168.703C645.04,-158.308 450.516,-133.878 374.862,-124.376"/>
<polygon fill="midnightblue" stroke="midnightblue" points="374.949,-120.859 364.59,-123.086 374.076,-127.805 374.949,-120.859"/>
</g>
<!-- Node20 -->
<g id="node21" class="node"><title>Node20</title>
<polygon fill="white" stroke="#bfbfbf" points="736.596,-110.5 736.596,-128.5 795.404,-128.5 795.404,-110.5 736.596,-110.5"/>
<text text-anchor="middle" x="766" y="-116.5" font-family="Helvetica,sans-Serif" font-size="10.00">exception</text>
</g>
<!-- Node19&#45;&gt;Node20 -->
<g id="edge27" class="edge"><title>Node19&#45;&gt;Node20</title>
<path fill="none" stroke="midnightblue" d="M766,-165.219C766,-158.177 766,-147.808 766,-138.828"/>
<polygon fill="midnightblue" stroke="midnightblue" points="769.5,-138.55 766,-128.55 762.5,-138.55 769.5,-138.55"/>
</g>
<!-- Node21&#45;&gt;Node2 -->
<g id="edge34" class="edge"><title>Node21&#45;&gt;Node2</title>
<path fill="none" stroke="midnightblue" d="M563.533,-165.382C571.12,-147.948 589.118,-106.59 599.418,-82.9219"/>
<polygon fill="midnightblue" stroke="midnightblue" points="602.645,-84.2778 603.426,-73.7118 596.227,-81.4845 602.645,-84.2778"/>
</g>
<!-- Node21&#45;&gt;Node13 -->
<g id="edge35" class="edge"><title>Node21&#45;&gt;Node13</title>
<path fill="none" stroke="midnightblue" d="M577.466,-165.45C596.21,-156.812 626.222,-142.98 648.008,-132.94"/>
<polygon fill="midnightblue" stroke="midnightblue" points="649.753,-135.99 657.37,-128.625 646.823,-129.632 649.753,-135.99"/>
</g>
<!-- Node21&#45;&gt;Node15 -->
<g id="edge36" class="edge"><title>Node21&#45;&gt;Node15</title>
<path fill="none" stroke="midnightblue" d="M527.194,-165.45C485.613,-155.248 414.509,-137.801 374.205,-127.911"/>
<polygon fill="midnightblue" stroke="midnightblue" points="374.966,-124.494 364.42,-125.51 373.297,-131.293 374.966,-124.494"/>
</g>
<!-- Node22&#45;&gt;Node21 -->
<g id="edge38" class="edge"><title>Node22&#45;&gt;Node21</title>
<path fill="none" stroke="midnightblue" d="M522.875,-220.219C529.241,-212.551 538.881,-200.939 546.743,-191.469"/>
<polygon fill="midnightblue" stroke="midnightblue" points="549.623,-193.479 553.317,-183.55 544.237,-189.008 549.623,-193.479"/>
</g>
<!-- Node23&#45;&gt;Node21 -->
<g id="edge40" class="edge"><title>Node23&#45;&gt;Node21</title>
<path fill="none" stroke="midnightblue" d="M613.432,-220.45C603.903,-212.434 589.06,-199.947 577.433,-190.166"/>
<polygon fill="midnightblue" stroke="midnightblue" points="579.564,-187.385 569.658,-183.625 575.057,-192.741 579.564,-187.385"/>
</g>
<!-- Node27&#45;&gt;Node14 -->
<g id="edge52" class="edge"><title>Node27&#45;&gt;Node14</title>
<path fill="none" stroke="midnightblue" d="M985.456,-445.981C1052.85,-439.6 1160,-417.368 1160,-340.5 1160,-340.5 1160,-340.5 1160,-173.5 1160,-126.974 1109.34,-94.4854 1075.56,-77.994"/>
<polygon fill="midnightblue" stroke="midnightblue" points="1076.66,-74.6433 1066.12,-73.5797 1073.7,-80.9848 1076.66,-74.6433"/>
</g>
<!-- Node27&#45;&gt;Node16 -->
<g id="edge51" class="edge"><title>Node27&#45;&gt;Node16</title>
<path fill="none" stroke="midnightblue" d="M926.062,-440.219C920.621,-432.629 912.409,-421.175 905.658,-411.76"/>
<polygon fill="midnightblue" stroke="midnightblue" points="908.443,-409.637 899.771,-403.55 902.754,-413.716 908.443,-409.637"/>
</g>
<!-- Node27&#45;&gt;Node17 -->
<g id="edge50" class="edge"><title>Node27&#45;&gt;Node17</title>
<path fill="none" stroke="midnightblue" d="M935.782,-440.409C939.834,-431.574 946.313,-416.955 951,-404 956.45,-388.935 961.592,-371.476 965.148,-358.682"/>
<polygon fill="midnightblue" stroke="midnightblue" points="968.584,-359.385 967.834,-348.817 961.83,-357.546 968.584,-359.385"/>
</g>
</g>
</svg>
