<?xml version="1.0" encoding="UTF-8" standalone="no"?>
<!DOCTYPE svg PUBLIC "-//W3C//DTD SVG 1.1//EN"
 "http://www.w3.org/Graphics/SVG/1.1/DTD/svg11.dtd">
<!-- Generated by graphviz version 2.38.0 (20140413.2041)
 -->
<!-- Title: fuzzylite/fl/term/Aggregated.h Pages: 1 -->
<svg width="169pt" height="147pt"
 viewBox="0.00 0.00 168.60 147.00" xmlns="http://www.w3.org/2000/svg" xmlns:xlink="http://www.w3.org/1999/xlink">
<g id="graph0" class="graph" transform="scale(1 1) rotate(0) translate(4 143)">
<title>fuzzylite/fl/term/Aggregated.h</title>
<polygon fill="white" stroke="none" points="-4,4 -4,-143 164.603,-143 164.603,4 -4,4"/>
<!-- Node24 -->
<g id="node1" class="node"><title>Node24</title>
<polygon fill="#bfbfbf" stroke="black" points="0,-120.5 0,-138.5 145.507,-138.5 145.507,-120.5 0,-120.5"/>
<text text-anchor="middle" x="72.7534" y="-126.5" font-family="Helvetica,sans-Serif" font-size="10.00">fuzzylite/fl/term/Aggregated.h</text>
</g>
<!-- Node25 -->
<g id="node2" class="node"><title>Node25</title>
<g id="a_node2"><a xlink:href="../../db/d5f/_headers_8h.html" target="_top" xlink:title="fuzzylite/fl/Headers.h">
<polygon fill="white" stroke="black" points="18.3447,-0.5 18.3447,-18.5 127.162,-18.5 127.162,-0.5 18.3447,-0.5"/>
<text text-anchor="middle" x="72.7534" y="-6.5" font-family="Helvetica,sans-Serif" font-size="10.00">fuzzylite/fl/Headers.h</text>
</a>
</g>
</g>
<!-- Node24&#45;&gt;Node25 -->
<g id="edge1" class="edge"><title>Node24&#45;&gt;Node25</title>
<path fill="none" stroke="midnightblue" d="M63.463,-111.254C59.6437,-103.217 55.671,-93.3745 53.7534,-84 51.1705,-71.3726 51.1705,-67.6274 53.7534,-55 56.4806,-41.6674 63.3648,-27.3888 68.0526,-18.7005"/>
<polygon fill="midnightblue" stroke="midnightblue" points="60.4065,-112.966 68.0526,-120.3 66.6488,-109.798 60.4065,-112.966"/>
</g>
<!-- Node26 -->
<g id="node3" class="node"><title>Node26</title>
<g id="a_node3"><a xlink:href="../../dd/d9b/_output_variable_8h.html" target="_top" xlink:title="fuzzylite/fl/variable\l/OutputVariable.h">
<polygon fill="white" stroke="black" points="62.9038,-55.5 62.9038,-83.5 160.603,-83.5 160.603,-55.5 62.9038,-55.5"/>
<text text-anchor="start" x="70.9038" y="-71.5" font-family="Helvetica,sans-Serif" font-size="10.00">fuzzylite/fl/variable</text>
<text text-anchor="middle" x="111.753" y="-61.5" font-family="Helvetica,sans-Serif" font-size="10.00">/OutputVariable.h</text>
</a>
</g>
</g>
<!-- Node24&#45;&gt;Node26 -->
<g id="edge2" class="edge"><title>Node24&#45;&gt;Node26</title>
<path fill="none" stroke="midnightblue" d="M83.8255,-112.034C89.8249,-103.112 97.1421,-92.2296 102.782,-83.8428"/>
<polygon fill="midnightblue" stroke="midnightblue" points="80.8518,-110.184 78.1762,-120.435 86.6607,-114.09 80.8518,-110.184"/>
</g>
<!-- Node26&#45;&gt;Node25 -->
<g id="edge3" class="edge"><title>Node26&#45;&gt;Node25</title>
<path fill="none" stroke="midnightblue" d="M97.1815,-46.829C90.6035,-37.0462 83.2247,-26.0727 78.3153,-18.7715"/>
<polygon fill="midnightblue" stroke="midnightblue" points="94.4192,-48.9935 102.904,-55.3389 100.228,-45.0875 94.4192,-48.9935"/>
</g>
</g>
</svg>
