<?xml version="1.0" encoding="UTF-8" standalone="no"?>
<!DOCTYPE svg PUBLIC "-//W3C//DTD SVG 1.1//EN"
 "http://www.w3.org/Graphics/SVG/1.1/DTD/svg11.dtd">
<!-- Generated by graphviz version 2.38.0 (20140413.2041)
 -->
<!-- Title: fl::Somewhat Pages: 1 -->
<svg width="89pt" height="224pt"
 viewBox="0.00 0.00 88.74 224.00" xmlns="http://www.w3.org/2000/svg" xmlns:xlink="http://www.w3.org/1999/xlink">
<g id="graph0" class="graph" transform="scale(1 1) rotate(0) translate(4 220)">
<title>fl::Somewhat</title>
<polygon fill="white" stroke="none" points="-4,4 -4,-220 84.7412,-220 84.7412,4 -4,4"/>
<!-- Node1 -->
<g id="node1" class="node"><title>Node1</title>
<polygon fill="#bfbfbf" stroke="black" points="0,-0.5 0,-84.5 80.7412,-84.5 80.7412,-0.5 0,-0.5"/>
<text text-anchor="middle" x="40.3706" y="-72.5" font-family="Helvetica,sans-Serif" font-size="10.00">fl::Somewhat</text>
<polyline fill="none" stroke="black" points="0,-66.5 80.7412,-66.5 "/>
<text text-anchor="middle" x="40.3706" y="-54.5" font-family="Helvetica,sans-Serif" font-size="10.00"> </text>
<polyline fill="none" stroke="black" points="0,-48.5 80.7412,-48.5 "/>
<text text-anchor="start" x="8" y="-36.5" font-family="Helvetica,sans-Serif" font-size="10.00">+ name()</text>
<text text-anchor="start" x="8" y="-26.5" font-family="Helvetica,sans-Serif" font-size="10.00">+ hedge()</text>
<text text-anchor="start" x="8" y="-16.5" font-family="Helvetica,sans-Serif" font-size="10.00">+ clone()</text>
<text text-anchor="start" x="8" y="-6.5" font-family="Helvetica,sans-Serif" font-size="10.00">+ constructor()</text>
</g>
<!-- Node2 -->
<g id="node2" class="node"><title>Node2</title>
<g id="a_node2"><a xlink:href="../../d3/dba/classfl_1_1_hedge.html" target="_top" xlink:title="The Hedge class is the abstract class for hedges. ">
<polygon fill="white" stroke="black" points="7.07764,-121.5 7.07764,-215.5 73.6636,-215.5 73.6636,-121.5 7.07764,-121.5"/>
<text text-anchor="middle" x="40.3706" y="-203.5" font-family="Helvetica,sans-Serif" font-size="10.00">fl::Hedge</text>
<polyline fill="none" stroke="black" points="7.07764,-197.5 73.6636,-197.5 "/>
<text text-anchor="middle" x="40.3706" y="-185.5" font-family="Helvetica,sans-Serif" font-size="10.00"> </text>
<polyline fill="none" stroke="black" points="7.07764,-179.5 73.6636,-179.5 "/>
<text text-anchor="start" x="15.0776" y="-167.5" font-family="Helvetica,sans-Serif" font-size="10.00">+ Hedge()</text>
<text text-anchor="start" x="15.0776" y="-157.5" font-family="Helvetica,sans-Serif" font-size="10.00">+ ~Hedge()</text>
<text text-anchor="start" x="15.0776" y="-147.5" font-family="Helvetica,sans-Serif" font-size="10.00">+ name()</text>
<text text-anchor="start" x="15.0776" y="-137.5" font-family="Helvetica,sans-Serif" font-size="10.00">+ hedge()</text>
<text text-anchor="start" x="15.0776" y="-127.5" font-family="Helvetica,sans-Serif" font-size="10.00">+ clone()</text>
</a>
</g>
</g>
<!-- Node2&#45;&gt;Node1 -->
<g id="edge1" class="edge"><title>Node2&#45;&gt;Node1</title>
<path fill="none" stroke="midnightblue" d="M40.3706,-111.061C40.3706,-102.219 40.3706,-93.2252 40.3706,-84.8064"/>
<polygon fill="none" stroke="midnightblue" points="36.8707,-111.327 40.3706,-121.327 43.8707,-111.327 36.8707,-111.327"/>
</g>
</g>
</svg>
