<?xml version="1.0" encoding="UTF-8" standalone="no"?>
<!DOCTYPE svg PUBLIC "-//W3C//DTD SVG 1.1//EN"
 "http://www.w3.org/Graphics/SVG/1.1/DTD/svg11.dtd">
<!-- Generated by graphviz version 2.38.0 (20140413.2041)
 -->
<!-- Title: fuzzylite/fl/variable/Variable.h Pages: 1 -->
<svg width="235pt" height="157pt"
 viewBox="0.00 0.00 235.05 157.00" xmlns="http://www.w3.org/2000/svg" xmlns:xlink="http://www.w3.org/1999/xlink">
<g id="graph0" class="graph" transform="scale(1 1) rotate(0) translate(4 153)">
<title>fuzzylite/fl/variable/Variable.h</title>
<polygon fill="white" stroke="none" points="-4,4 -4,-153 231.05,-153 231.05,4 -4,4"/>
<!-- Node15 -->
<g id="node1" class="node"><title>Node15</title>
<polygon fill="#bfbfbf" stroke="black" points="13.3504,-120.5 13.3504,-148.5 111.05,-148.5 111.05,-120.5 13.3504,-120.5"/>
<text text-anchor="start" x="21.3504" y="-136.5" font-family="Helvetica,sans-Serif" font-size="10.00">fuzzylite/fl/variable</text>
<text text-anchor="middle" x="62.2" y="-126.5" font-family="Helvetica,sans-Serif" font-size="10.00">/Variable.h</text>
</g>
<!-- Node16 -->
<g id="node2" class="node"><title>Node16</title>
<g id="a_node2"><a xlink:href="../../db/d5f/_headers_8h.html" target="_top" xlink:title="fuzzylite/fl/Headers.h">
<polygon fill="white" stroke="black" points="7.79132,-0.5 7.79132,-18.5 116.609,-18.5 116.609,-0.5 7.79132,-0.5"/>
<text text-anchor="middle" x="62.2" y="-6.5" font-family="Helvetica,sans-Serif" font-size="10.00">fuzzylite/fl/Headers.h</text>
</a>
</g>
</g>
<!-- Node15&#45;&gt;Node16 -->
<g id="edge1" class="edge"><title>Node15&#45;&gt;Node16</title>
<path fill="none" stroke="midnightblue" d="M30.5606,-114.574C20.1689,-106.568 9.84365,-96.2361 4.20001,-84 -1.19819,-72.296 -1.50091,-66.5595 4.20001,-55 12.5083,-38.1536 30.5954,-25.9127 44.3777,-18.5827"/>
<polygon fill="midnightblue" stroke="midnightblue" points="28.6525,-117.513 38.8206,-120.489 32.728,-111.822 28.6525,-117.513"/>
</g>
<!-- Node17 -->
<g id="node3" class="node"><title>Node17</title>
<g id="a_node3"><a xlink:href="../../d8/dd7/_input_variable_8h.html" target="_top" xlink:title="fuzzylite/fl/variable\l/InputVariable.h">
<polygon fill="white" stroke="black" points="13.3504,-55.5 13.3504,-83.5 111.05,-83.5 111.05,-55.5 13.3504,-55.5"/>
<text text-anchor="start" x="21.3504" y="-71.5" font-family="Helvetica,sans-Serif" font-size="10.00">fuzzylite/fl/variable</text>
<text text-anchor="middle" x="62.2" y="-61.5" font-family="Helvetica,sans-Serif" font-size="10.00">/InputVariable.h</text>
</a>
</g>
</g>
<!-- Node15&#45;&gt;Node17 -->
<g id="edge2" class="edge"><title>Node15&#45;&gt;Node17</title>
<path fill="none" stroke="midnightblue" d="M62.2,-110.164C62.2,-101.169 62.2,-91.2205 62.2,-83.5369"/>
<polygon fill="midnightblue" stroke="midnightblue" points="58.7001,-110.446 62.2,-120.446 65.7001,-110.446 58.7001,-110.446"/>
</g>
<!-- Node18 -->
<g id="node4" class="node"><title>Node18</title>
<g id="a_node4"><a xlink:href="../../dd/d9b/_output_variable_8h.html" target="_top" xlink:title="fuzzylite/fl/variable\l/OutputVariable.h">
<polygon fill="white" stroke="black" points="129.35,-55.5 129.35,-83.5 227.05,-83.5 227.05,-55.5 129.35,-55.5"/>
<text text-anchor="start" x="137.35" y="-71.5" font-family="Helvetica,sans-Serif" font-size="10.00">fuzzylite/fl/variable</text>
<text text-anchor="middle" x="178.2" y="-61.5" font-family="Helvetica,sans-Serif" font-size="10.00">/OutputVariable.h</text>
</a>
</g>
</g>
<!-- Node15&#45;&gt;Node18 -->
<g id="edge4" class="edge"><title>Node15&#45;&gt;Node18</title>
<path fill="none" stroke="midnightblue" d="M95.0773,-115.644C113.898,-105.422 137.094,-92.8248 154.196,-83.5369"/>
<polygon fill="midnightblue" stroke="midnightblue" points="93.3525,-112.598 86.2353,-120.446 96.6933,-118.749 93.3525,-112.598"/>
</g>
<!-- Node17&#45;&gt;Node16 -->
<g id="edge3" class="edge"><title>Node17&#45;&gt;Node16</title>
<path fill="none" stroke="midnightblue" d="M62.2,-45.323C62.2,-35.936 62.2,-25.7002 62.2,-18.7715"/>
<polygon fill="midnightblue" stroke="midnightblue" points="58.7001,-45.3389 62.2,-55.3389 65.7001,-45.3389 58.7001,-45.3389"/>
</g>
<!-- Node18&#45;&gt;Node16 -->
<g id="edge5" class="edge"><title>Node18&#45;&gt;Node16</title>
<path fill="none" stroke="midnightblue" d="M143.015,-50.9076C121.559,-40.1796 95.1477,-26.9738 78.4868,-18.6434"/>
<polygon fill="midnightblue" stroke="midnightblue" points="141.658,-54.142 152.167,-55.4837 144.788,-47.881 141.658,-54.142"/>
</g>
</g>
</svg>
