<?xml version="1.0" encoding="UTF-8" standalone="no"?>
<!DOCTYPE svg PUBLIC "-//W3C//DTD SVG 1.1//EN"
 "http://www.w3.org/Graphics/SVG/1.1/DTD/svg11.dtd">
<!-- Generated by graphviz version 2.38.0 (20140413.2041)
 -->
<!-- Title: fuzzylite/fl/Engine.h Pages: 1 -->
<svg width="168pt" height="137pt"
 viewBox="0.00 0.00 167.93 137.00" xmlns="http://www.w3.org/2000/svg" xmlns:xlink="http://www.w3.org/1999/xlink">
<g id="graph0" class="graph" transform="scale(1 1) rotate(0) translate(4 133)">
<title>fuzzylite/fl/Engine.h</title>
<polygon fill="white" stroke="none" points="-4,4 -4,-133 163.933,-133 163.933,4 -4,4"/>
<!-- Node12 -->
<g id="node1" class="node"><title>Node12</title>
<polygon fill="#bfbfbf" stroke="black" points="3.33008,-110.5 3.33008,-128.5 105.487,-128.5 105.487,-110.5 3.33008,-110.5"/>
<text text-anchor="middle" x="54.4087" y="-116.5" font-family="Helvetica,sans-Serif" font-size="10.00">fuzzylite/fl/Engine.h</text>
</g>
<!-- Node13 -->
<g id="node2" class="node"><title>Node13</title>
<g id="a_node2"><a xlink:href="../../db/d5f/_headers_8h.html" target="_top" xlink:title="fuzzylite/fl/Headers.h">
<polygon fill="white" stroke="black" points="0,-0.5 0,-18.5 108.817,-18.5 108.817,-0.5 0,-0.5"/>
<text text-anchor="middle" x="54.4087" y="-6.5" font-family="Helvetica,sans-Serif" font-size="10.00">fuzzylite/fl/Headers.h</text>
</a>
</g>
</g>
<!-- Node12&#45;&gt;Node13 -->
<g id="edge1" class="edge"><title>Node12&#45;&gt;Node13</title>
<path fill="none" stroke="midnightblue" d="M42.3587,-101.844C37.2953,-93.8399 31.9884,-83.8587 29.4087,-74 24.0101,-53.3684 38.5629,-30.3565 47.6794,-18.5116"/>
<polygon fill="midnightblue" stroke="midnightblue" points="39.512,-103.883 48.0127,-110.207 45.3109,-99.962 39.512,-103.883"/>
</g>
<!-- Node14 -->
<g id="node3" class="node"><title>Node14</title>
<g id="a_node3"><a xlink:href="../../d5/d44/_linear_8h.html" target="_top" xlink:title="fuzzylite/fl/term/Linear.h">
<polygon fill="white" stroke="black" points="38.8843,-55.5 38.8843,-73.5 159.933,-73.5 159.933,-55.5 38.8843,-55.5"/>
<text text-anchor="middle" x="99.4087" y="-61.5" font-family="Helvetica,sans-Serif" font-size="10.00">fuzzylite/fl/term/Linear.h</text>
</a>
</g>
</g>
<!-- Node12&#45;&gt;Node14 -->
<g id="edge2" class="edge"><title>Node12&#45;&gt;Node14</title>
<path fill="none" stroke="midnightblue" d="M67.9655,-102.533C76.0874,-92.9673 86.0663,-81.2143 92.5742,-73.5496"/>
<polygon fill="midnightblue" stroke="midnightblue" points="65.2442,-100.33 61.4399,-110.219 70.5803,-104.861 65.2442,-100.33"/>
</g>
<!-- Node14&#45;&gt;Node13 -->
<g id="edge3" class="edge"><title>Node14&#45;&gt;Node13</title>
<path fill="none" stroke="midnightblue" d="M85.8519,-47.5331C77.7299,-37.9673 67.751,-26.2143 61.2432,-18.5496"/>
<polygon fill="midnightblue" stroke="midnightblue" points="83.2371,-49.8611 92.3774,-55.2188 88.5731,-45.3305 83.2371,-49.8611"/>
</g>
</g>
</svg>
