<?xml version="1.0" encoding="UTF-8" standalone="no"?>
<!DOCTYPE svg PUBLIC "-//W3C//DTD SVG 1.1//EN"
 "http://www.w3.org/Graphics/SVG/1.1/DTD/svg11.dtd">
<!-- Generated by graphviz version 2.38.0 (20140413.2041)
 -->
<!-- Title: fl::SmallestOfMaximum Pages: 1 -->
<svg width="137pt" height="405pt"
 viewBox="0.00 0.00 137.35 405.00" xmlns="http://www.w3.org/2000/svg" xmlns:xlink="http://www.w3.org/1999/xlink">
<g id="graph0" class="graph" transform="scale(1 1) rotate(0) translate(4 401)">
<title>fl::SmallestOfMaximum</title>
<polygon fill="white" stroke="none" points="-4,4 -4,-401 133.354,-401 133.354,4 -4,4"/>
<!-- Node3 -->
<g id="node1" class="node"><title>Node3</title>
<polygon fill="#bfbfbf" stroke="black" points="0,-0.5 0,-114.5 129.354,-114.5 129.354,-0.5 0,-0.5"/>
<text text-anchor="middle" x="64.6772" y="-102.5" font-family="Helvetica,sans-Serif" font-size="10.00">fl::SmallestOfMaximum</text>
<polyline fill="none" stroke="black" points="0,-96.5 129.354,-96.5 "/>
<text text-anchor="middle" x="64.6772" y="-84.5" font-family="Helvetica,sans-Serif" font-size="10.00"> </text>
<polyline fill="none" stroke="black" points="0,-78.5 129.354,-78.5 "/>
<text text-anchor="start" x="8" y="-66.5" font-family="Helvetica,sans-Serif" font-size="10.00">+ SmallestOfMaximum()</text>
<text text-anchor="start" x="8" y="-56.5" font-family="Helvetica,sans-Serif" font-size="10.00">+ ~SmallestOfMaximum()</text>
<text text-anchor="start" x="8" y="-46.5" font-family="Helvetica,sans-Serif" font-size="10.00">+ className()</text>
<text text-anchor="start" x="8" y="-36.5" font-family="Helvetica,sans-Serif" font-size="10.00">+ complexity()</text>
<text text-anchor="start" x="8" y="-26.5" font-family="Helvetica,sans-Serif" font-size="10.00">+ defuzzify()</text>
<text text-anchor="start" x="8" y="-16.5" font-family="Helvetica,sans-Serif" font-size="10.00">+ clone()</text>
<text text-anchor="start" x="8" y="-6.5" font-family="Helvetica,sans-Serif" font-size="10.00">+ constructor()</text>
</g>
<!-- Node4 -->
<g id="node2" class="node"><title>Node4</title>
<g id="a_node2"><a xlink:href="../../d9/d95/classfl_1_1_integral_defuzzifier.html" target="_top" xlink:title="The IntegralDefuzzifier class is the base class for defuzzifiers which integrate over the fuzzy set...">
<polygon fill="white" stroke="black" points="2.90039,-151.5 2.90039,-255.5 126.454,-255.5 126.454,-151.5 2.90039,-151.5"/>
<text text-anchor="middle" x="64.6772" y="-243.5" font-family="Helvetica,sans-Serif" font-size="10.00">fl::IntegralDefuzzifier</text>
<polyline fill="none" stroke="black" points="2.90039,-237.5 126.454,-237.5 "/>
<text text-anchor="middle" x="64.6772" y="-225.5" font-family="Helvetica,sans-Serif" font-size="10.00"> </text>
<polyline fill="none" stroke="black" points="2.90039,-219.5 126.454,-219.5 "/>
<text text-anchor="start" x="10.9004" y="-207.5" font-family="Helvetica,sans-Serif" font-size="10.00">+ IntegralDefuzzifier()</text>
<text text-anchor="start" x="10.9004" y="-197.5" font-family="Helvetica,sans-Serif" font-size="10.00">+ ~IntegralDefuzzifier()</text>
<text text-anchor="start" x="10.9004" y="-187.5" font-family="Helvetica,sans-Serif" font-size="10.00">+ setResolution()</text>
<text text-anchor="start" x="10.9004" y="-177.5" font-family="Helvetica,sans-Serif" font-size="10.00">+ getResolution()</text>
<text text-anchor="start" x="10.9004" y="-167.5" font-family="Helvetica,sans-Serif" font-size="10.00">+ setDefaultResolution()</text>
<text text-anchor="start" x="10.9004" y="-157.5" font-family="Helvetica,sans-Serif" font-size="10.00">+ defaultResolution()</text>
</a>
</g>
</g>
<!-- Node4&#45;&gt;Node3 -->
<g id="edge1" class="edge"><title>Node4&#45;&gt;Node3</title>
<path fill="none" stroke="midnightblue" d="M64.6772,-141.205C64.6772,-132.473 64.6772,-123.526 64.6772,-114.893"/>
<polygon fill="none" stroke="midnightblue" points="61.1773,-141.325 64.6772,-151.326 68.1773,-141.326 61.1773,-141.325"/>
</g>
<!-- Node5 -->
<g id="node3" class="node"><title>Node5</title>
<g id="a_node3"><a xlink:href="../../d3/d31/classfl_1_1_defuzzifier.html" target="_top" xlink:title="The Defuzzifier class is the abstract class for defuzzifiers. ">
<polygon fill="white" stroke="black" points="22.5,-292.5 22.5,-396.5 106.854,-396.5 106.854,-292.5 22.5,-292.5"/>
<text text-anchor="middle" x="64.6772" y="-384.5" font-family="Helvetica,sans-Serif" font-size="10.00">fl::Defuzzifier</text>
<polyline fill="none" stroke="black" points="22.5,-378.5 106.854,-378.5 "/>
<text text-anchor="middle" x="64.6772" y="-366.5" font-family="Helvetica,sans-Serif" font-size="10.00"> </text>
<polyline fill="none" stroke="black" points="22.5,-360.5 106.854,-360.5 "/>
<text text-anchor="start" x="30.5" y="-348.5" font-family="Helvetica,sans-Serif" font-size="10.00">+ Defuzzifier()</text>
<text text-anchor="start" x="30.5" y="-338.5" font-family="Helvetica,sans-Serif" font-size="10.00">+ ~Defuzzifier()</text>
<text text-anchor="start" x="30.5" y="-328.5" font-family="Helvetica,sans-Serif" font-size="10.00">+ className()</text>
<text text-anchor="start" x="30.5" y="-318.5" font-family="Helvetica,sans-Serif" font-size="10.00">+ clone()</text>
<text text-anchor="start" x="30.5" y="-308.5" font-family="Helvetica,sans-Serif" font-size="10.00">+ complexity()</text>
<text text-anchor="start" x="30.5" y="-298.5" font-family="Helvetica,sans-Serif" font-size="10.00">+ defuzzify()</text>
</a>
</g>
</g>
<!-- Node5&#45;&gt;Node4 -->
<g id="edge2" class="edge"><title>Node5&#45;&gt;Node4</title>
<path fill="none" stroke="midnightblue" d="M64.6772,-281.941C64.6772,-273.159 64.6772,-264.206 64.6772,-255.652"/>
<polygon fill="none" stroke="midnightblue" points="61.1773,-282.136 64.6772,-292.136 68.1773,-282.136 61.1773,-282.136"/>
</g>
</g>
</svg>
