<?xml version="1.0" encoding="UTF-8" standalone="no"?>
<!DOCTYPE svg PUBLIC "-//W3C//DTD SVG 1.1//EN"
 "http://www.w3.org/Graphics/SVG/1.1/DTD/svg11.dtd">
<!-- Generated by graphviz version 2.38.0 (20140413.2041)
 -->
<!-- Title: fuzzylite/fl/hedge/Hedge.h Pages: 1 -->
<svg width="1182pt" height="287pt"
 viewBox="0.00 0.00 1182.12 287.00" xmlns="http://www.w3.org/2000/svg" xmlns:xlink="http://www.w3.org/1999/xlink">
<g id="graph0" class="graph" transform="scale(1 1) rotate(0) translate(4 283)">
<title>fuzzylite/fl/hedge/Hedge.h</title>
<polygon fill="white" stroke="none" points="-4,4 -4,-283 1178.12,-283 1178.12,4 -4,4"/>
<!-- Node12 -->
<g id="node1" class="node"><title>Node12</title>
<polygon fill="#bfbfbf" stroke="black" points="737.635,-250.5 737.635,-278.5 828.122,-278.5 828.122,-250.5 737.635,-250.5"/>
<text text-anchor="start" x="745.635" y="-266.5" font-family="Helvetica,sans-Serif" font-size="10.00">fuzzylite/fl/hedge</text>
<text text-anchor="middle" x="782.878" y="-256.5" font-family="Helvetica,sans-Serif" font-size="10.00">/Hedge.h</text>
</g>
<!-- Node13 -->
<g id="node2" class="node"><title>Node13</title>
<g id="a_node2"><a xlink:href="../../d7/dd8/_construction_factory_8h.html" target="_top" xlink:title="fuzzylite/fl/factory\l/ConstructionFactory.h">
<polygon fill="white" stroke="black" points="306.949,-185.5 306.949,-213.5 422.808,-213.5 422.808,-185.5 306.949,-185.5"/>
<text text-anchor="start" x="314.949" y="-201.5" font-family="Helvetica,sans-Serif" font-size="10.00">fuzzylite/fl/factory</text>
<text text-anchor="middle" x="364.878" y="-191.5" font-family="Helvetica,sans-Serif" font-size="10.00">/ConstructionFactory.h</text>
</a>
</g>
</g>
<!-- Node12&#45;&gt;Node13 -->
<g id="edge1" class="edge"><title>Node12&#45;&gt;Node13</title>
<path fill="none" stroke="midnightblue" d="M727.085,-255.091C647.872,-243.152 503.512,-221.395 423.029,-209.264"/>
<polygon fill="midnightblue" stroke="midnightblue" points="726.939,-258.608 737.349,-256.638 727.983,-251.687 726.939,-258.608"/>
</g>
<!-- Node16 -->
<g id="node5" class="node"><title>Node16</title>
<g id="a_node5"><a xlink:href="../../db/d5f/_headers_8h.html" target="_top" xlink:title="fuzzylite/fl/Headers.h">
<polygon fill="white" stroke="black" points="433.47,-0.5 433.47,-18.5 542.287,-18.5 542.287,-0.5 433.47,-0.5"/>
<text text-anchor="middle" x="487.878" y="-6.5" font-family="Helvetica,sans-Serif" font-size="10.00">fuzzylite/fl/Headers.h</text>
</a>
</g>
</g>
<!-- Node12&#45;&gt;Node16 -->
<g id="edge23" class="edge"><title>Node12&#45;&gt;Node16</title>
<path fill="none" stroke="midnightblue" d="M727.414,-259.592C557.666,-247.057 53.9679,-205.357 8.8783,-149 -24.3374,-107.484 49.6892,-62.9507 64.8783,-55 127.602,-22.1677 333.681,-13.5536 433.172,-11.2978"/>
<polygon fill="midnightblue" stroke="midnightblue" points="727.163,-263.083 737.392,-260.324 727.675,-256.102 727.163,-263.083"/>
</g>
<!-- Node18 -->
<g id="node7" class="node"><title>Node18</title>
<g id="a_node7"><a xlink:href="../../d0/d3d/_hedge_factory_8h.html" target="_top" xlink:title="fuzzylite/fl/factory\l/HedgeFactory.h">
<polygon fill="white" stroke="black" points="605.534,-120.5 605.534,-148.5 698.223,-148.5 698.223,-120.5 605.534,-120.5"/>
<text text-anchor="start" x="613.534" y="-136.5" font-family="Helvetica,sans-Serif" font-size="10.00">fuzzylite/fl/factory</text>
<text text-anchor="middle" x="651.878" y="-126.5" font-family="Helvetica,sans-Serif" font-size="10.00">/HedgeFactory.h</text>
</a>
</g>
</g>
<!-- Node12&#45;&gt;Node18 -->
<g id="edge22" class="edge"><title>Node12&#45;&gt;Node18</title>
<path fill="none" stroke="midnightblue" d="M751.768,-244.832C738.742,-236.273 723.873,-225.481 711.878,-214 690.564,-193.599 670.806,-165.176 660.134,-148.719"/>
<polygon fill="midnightblue" stroke="midnightblue" points="750.125,-247.936 760.434,-250.382 753.9,-242.042 750.125,-247.936"/>
</g>
<!-- Node22 -->
<g id="node11" class="node"><title>Node22</title>
<g id="a_node11"><a xlink:href="../../d2/db0/_any_8h.html" target="_top" xlink:title="fuzzylite/fl/hedge\l/Any.h">
<polygon fill="white" stroke="black" points="534.635,-55.5 534.635,-83.5 625.122,-83.5 625.122,-55.5 534.635,-55.5"/>
<text text-anchor="start" x="542.635" y="-71.5" font-family="Helvetica,sans-Serif" font-size="10.00">fuzzylite/fl/hedge</text>
<text text-anchor="middle" x="579.878" y="-61.5" font-family="Helvetica,sans-Serif" font-size="10.00">/Any.h</text>
</a>
</g>
</g>
<!-- Node12&#45;&gt;Node22 -->
<g id="edge24" class="edge"><title>Node12&#45;&gt;Node22</title>
<path fill="none" stroke="midnightblue" d="M773.218,-240.834C757.555,-204.965 726.409,-137.397 706.878,-120 693.935,-108.47 654.215,-93.926 622.603,-83.5933"/>
<polygon fill="midnightblue" stroke="midnightblue" points="770.019,-242.254 777.202,-250.042 776.443,-239.474 770.019,-242.254"/>
</g>
<!-- Node23 -->
<g id="node12" class="node"><title>Node23</title>
<g id="a_node12"><a xlink:href="../../d0/d58/_extremely_8h.html" target="_top" xlink:title="fuzzylite/fl/hedge\l/Extremely.h">
<polygon fill="white" stroke="black" points="642.635,-55.5 642.635,-83.5 733.122,-83.5 733.122,-55.5 642.635,-55.5"/>
<text text-anchor="start" x="650.635" y="-71.5" font-family="Helvetica,sans-Serif" font-size="10.00">fuzzylite/fl/hedge</text>
<text text-anchor="middle" x="687.878" y="-61.5" font-family="Helvetica,sans-Serif" font-size="10.00">/Extremely.h</text>
</a>
</g>
</g>
<!-- Node12&#45;&gt;Node23 -->
<g id="edge26" class="edge"><title>Node12&#45;&gt;Node23</title>
<path fill="none" stroke="midnightblue" d="M779.665,-240.074C774.768,-210.343 763.406,-158.324 739.878,-120 731.075,-105.66 717.096,-92.6788 705.848,-83.611"/>
<polygon fill="midnightblue" stroke="midnightblue" points="776.258,-240.95 781.237,-250.302 783.177,-239.886 776.258,-240.95"/>
</g>
<!-- Node24 -->
<g id="node13" class="node"><title>Node24</title>
<g id="a_node13"><a xlink:href="../../df/d8a/_hedge_function_8h.html" target="_top" xlink:title="fuzzylite/fl/hedge\l/HedgeFunction.h">
<polygon fill="white" stroke="black" points="751.408,-55.5 751.408,-83.5 846.349,-83.5 846.349,-55.5 751.408,-55.5"/>
<text text-anchor="start" x="759.408" y="-71.5" font-family="Helvetica,sans-Serif" font-size="10.00">fuzzylite/fl/hedge</text>
<text text-anchor="middle" x="798.878" y="-61.5" font-family="Helvetica,sans-Serif" font-size="10.00">/HedgeFunction.h</text>
</a>
</g>
</g>
<!-- Node12&#45;&gt;Node24 -->
<g id="edge28" class="edge"><title>Node12&#45;&gt;Node24</title>
<path fill="none" stroke="midnightblue" d="M784.817,-240.115C788.211,-199.174 795.122,-115.807 797.792,-83.6033"/>
<polygon fill="midnightblue" stroke="midnightblue" points="781.316,-239.979 783.978,-250.234 788.292,-240.558 781.316,-239.979"/>
</g>
<!-- Node25 -->
<g id="node14" class="node"><title>Node25</title>
<g id="a_node14"><a xlink:href="../../d7/df0/_not_8h.html" target="_top" xlink:title="fuzzylite/fl/hedge\l/Not.h">
<polygon fill="white" stroke="black" points="864.635,-55.5 864.635,-83.5 955.122,-83.5 955.122,-55.5 864.635,-55.5"/>
<text text-anchor="start" x="872.635" y="-71.5" font-family="Helvetica,sans-Serif" font-size="10.00">fuzzylite/fl/hedge</text>
<text text-anchor="middle" x="909.878" y="-61.5" font-family="Helvetica,sans-Serif" font-size="10.00">/Not.h</text>
</a>
</g>
</g>
<!-- Node12&#45;&gt;Node25 -->
<g id="edge30" class="edge"><title>Node12&#45;&gt;Node25</title>
<path fill="none" stroke="midnightblue" d="M797.246,-241.666C823.798,-201.316 879.794,-116.219 901.256,-83.6033"/>
<polygon fill="midnightblue" stroke="midnightblue" points="794.181,-239.957 791.608,-250.234 800.028,-243.805 794.181,-239.957"/>
</g>
<!-- Node26 -->
<g id="node15" class="node"><title>Node26</title>
<g id="a_node15"><a xlink:href="../../d6/dfa/_seldom_8h.html" target="_top" xlink:title="fuzzylite/fl/hedge\l/Seldom.h">
<polygon fill="white" stroke="black" points="867.635,-185.5 867.635,-213.5 958.122,-213.5 958.122,-185.5 867.635,-185.5"/>
<text text-anchor="start" x="875.635" y="-201.5" font-family="Helvetica,sans-Serif" font-size="10.00">fuzzylite/fl/hedge</text>
<text text-anchor="middle" x="912.878" y="-191.5" font-family="Helvetica,sans-Serif" font-size="10.00">/Seldom.h</text>
</a>
</g>
</g>
<!-- Node12&#45;&gt;Node26 -->
<g id="edge32" class="edge"><title>Node12&#45;&gt;Node26</title>
<path fill="none" stroke="midnightblue" d="M818.863,-246.061C840.106,-235.767 866.55,-222.951 885.977,-213.537"/>
<polygon fill="midnightblue" stroke="midnightblue" points="817.287,-242.936 809.814,-250.446 820.34,-249.235 817.287,-242.936"/>
</g>
<!-- Node27 -->
<g id="node16" class="node"><title>Node27</title>
<g id="a_node16"><a xlink:href="../../db/dad/_somewhat_8h.html" target="_top" xlink:title="fuzzylite/fl/hedge\l/Somewhat.h">
<polygon fill="white" stroke="black" points="975.635,-185.5 975.635,-213.5 1066.12,-213.5 1066.12,-185.5 975.635,-185.5"/>
<text text-anchor="start" x="983.635" y="-201.5" font-family="Helvetica,sans-Serif" font-size="10.00">fuzzylite/fl/hedge</text>
<text text-anchor="middle" x="1020.88" y="-191.5" font-family="Helvetica,sans-Serif" font-size="10.00">/Somewhat.h</text>
</a>
</g>
</g>
<!-- Node12&#45;&gt;Node27 -->
<g id="edge34" class="edge"><title>Node12&#45;&gt;Node27</title>
<path fill="none" stroke="midnightblue" d="M837.924,-248.929C879.6,-237.897 936.165,-222.924 975.316,-212.561"/>
<polygon fill="midnightblue" stroke="midnightblue" points="836.976,-245.559 828.204,-251.502 838.767,-252.326 836.976,-245.559"/>
</g>
<!-- Node28 -->
<g id="node17" class="node"><title>Node28</title>
<g id="a_node17"><a xlink:href="../../d3/dd9/_very_8h.html" target="_top" xlink:title="fuzzylite/fl/hedge\l/Very.h">
<polygon fill="white" stroke="black" points="1083.63,-185.5 1083.63,-213.5 1174.12,-213.5 1174.12,-185.5 1083.63,-185.5"/>
<text text-anchor="start" x="1091.63" y="-201.5" font-family="Helvetica,sans-Serif" font-size="10.00">fuzzylite/fl/hedge</text>
<text text-anchor="middle" x="1128.88" y="-191.5" font-family="Helvetica,sans-Serif" font-size="10.00">/Very.h</text>
</a>
</g>
</g>
<!-- Node12&#45;&gt;Node28 -->
<g id="edge36" class="edge"><title>Node12&#45;&gt;Node28</title>
<path fill="none" stroke="midnightblue" d="M838.817,-255.328C897.771,-246.41 993.221,-231.102 1074.88,-214 1077.72,-213.406 1080.63,-212.765 1083.56,-212.098"/>
<polygon fill="midnightblue" stroke="midnightblue" points="837.972,-251.916 828.603,-256.865 839.013,-258.838 837.972,-251.916"/>
</g>
<!-- Node14 -->
<g id="node3" class="node"><title>Node14</title>
<g id="a_node3"><a xlink:href="../../d0/d04/_activation_factory_8h.html" target="_top" xlink:title="fuzzylite/fl/factory\l/ActivationFactory.h">
<polygon fill="white" stroke="black" points="484.341,-120.5 484.341,-148.5 587.416,-148.5 587.416,-120.5 484.341,-120.5"/>
<text text-anchor="start" x="492.341" y="-136.5" font-family="Helvetica,sans-Serif" font-size="10.00">fuzzylite/fl/factory</text>
<text text-anchor="middle" x="535.878" y="-126.5" font-family="Helvetica,sans-Serif" font-size="10.00">/ActivationFactory.h</text>
</a>
</g>
</g>
<!-- Node13&#45;&gt;Node14 -->
<g id="edge2" class="edge"><title>Node13&#45;&gt;Node14</title>
<path fill="none" stroke="midnightblue" d="M409.972,-181.886C438.276,-171.459 474.251,-158.205 500.492,-148.537"/>
<polygon fill="midnightblue" stroke="midnightblue" points="408.483,-178.705 400.31,-185.446 410.903,-185.273 408.483,-178.705"/>
</g>
<!-- Node13&#45;&gt;Node16 -->
<g id="edge21" class="edge"><title>Node13&#45;&gt;Node16</title>
<path fill="none" stroke="midnightblue" d="M296.485,-198.893C205.836,-197.787 53.2025,-189.721 17.8783,-149 9.4325,-139.264 10.7917,-130.766 17.8783,-120 63.4833,-50.718 319.7,-23.1031 433.457,-14.1464"/>
<polygon fill="midnightblue" stroke="midnightblue" points="296.646,-202.395 306.679,-198.992 296.713,-195.395 296.646,-202.395"/>
</g>
<!-- Node17 -->
<g id="node6" class="node"><title>Node17</title>
<g id="a_node6"><a xlink:href="../../d3/d9c/_defuzzifier_factory_8h.html" target="_top" xlink:title="fuzzylite/fl/factory\l/DefuzzifierFactory.h">
<polygon fill="white" stroke="black" points="26.3998,-120.5 26.3998,-148.5 133.357,-148.5 133.357,-120.5 26.3998,-120.5"/>
<text text-anchor="start" x="34.3998" y="-136.5" font-family="Helvetica,sans-Serif" font-size="10.00">fuzzylite/fl/factory</text>
<text text-anchor="middle" x="79.8783" y="-126.5" font-family="Helvetica,sans-Serif" font-size="10.00">/DefuzzifierFactory.h</text>
</a>
</g>
</g>
<!-- Node13&#45;&gt;Node17 -->
<g id="edge6" class="edge"><title>Node13&#45;&gt;Node17</title>
<path fill="none" stroke="midnightblue" d="M297.088,-183.515C247.027,-172.449 179.813,-157.591 133.479,-147.349"/>
<polygon fill="midnightblue" stroke="midnightblue" points="296.341,-186.934 306.861,-185.675 297.852,-180.099 296.341,-186.934"/>
</g>
<!-- Node13&#45;&gt;Node18 -->
<g id="edge9" class="edge"><title>Node13&#45;&gt;Node18</title>
<path fill="none" stroke="midnightblue" d="M433.064,-184.522C479.352,-174.893 541.903,-161.609 596.878,-149 599.657,-148.363 602.513,-147.696 605.391,-147.016"/>
<polygon fill="midnightblue" stroke="midnightblue" points="432.227,-181.121 423.147,-186.581 433.649,-187.975 432.227,-181.121"/>
</g>
<!-- Node19 -->
<g id="node8" class="node"><title>Node19</title>
<g id="a_node8"><a xlink:href="../../d8/d70/_s_norm_factory_8h.html" target="_top" xlink:title="fuzzylite/fl/factory\l/SNormFactory.h">
<polygon fill="white" stroke="black" points="151.534,-120.5 151.534,-148.5 244.223,-148.5 244.223,-120.5 151.534,-120.5"/>
<text text-anchor="start" x="159.534" y="-136.5" font-family="Helvetica,sans-Serif" font-size="10.00">fuzzylite/fl/factory</text>
<text text-anchor="middle" x="197.878" y="-126.5" font-family="Helvetica,sans-Serif" font-size="10.00">/SNormFactory.h</text>
</a>
</g>
</g>
<!-- Node13&#45;&gt;Node19 -->
<g id="edge12" class="edge"><title>Node13&#45;&gt;Node19</title>
<path fill="none" stroke="midnightblue" d="M320.839,-181.886C293.198,-171.459 258.064,-158.205 232.436,-148.537"/>
<polygon fill="midnightblue" stroke="midnightblue" points="319.684,-185.191 330.276,-185.446 322.155,-178.642 319.684,-185.191"/>
</g>
<!-- Node20 -->
<g id="node9" class="node"><title>Node20</title>
<g id="a_node9"><a xlink:href="../../dd/de7/_term_factory_8h.html" target="_top" xlink:title="fuzzylite/fl/factory\l/TermFactory.h">
<polygon fill="white" stroke="black" points="262.534,-120.5 262.534,-148.5 355.223,-148.5 355.223,-120.5 262.534,-120.5"/>
<text text-anchor="start" x="270.534" y="-136.5" font-family="Helvetica,sans-Serif" font-size="10.00">fuzzylite/fl/factory</text>
<text text-anchor="middle" x="308.878" y="-126.5" font-family="Helvetica,sans-Serif" font-size="10.00">/TermFactory.h</text>
</a>
</g>
</g>
<!-- Node13&#45;&gt;Node20 -->
<g id="edge15" class="edge"><title>Node13&#45;&gt;Node20</title>
<path fill="none" stroke="midnightblue" d="M346.48,-177.802C337.909,-168.159 327.972,-156.98 320.467,-148.537"/>
<polygon fill="midnightblue" stroke="midnightblue" points="344.015,-180.298 353.275,-185.446 349.247,-175.647 344.015,-180.298"/>
</g>
<!-- Node21 -->
<g id="node10" class="node"><title>Node21</title>
<g id="a_node10"><a xlink:href="../../d8/d57/_t_norm_factory_8h.html" target="_top" xlink:title="fuzzylite/fl/factory\l/TNormFactory.h">
<polygon fill="white" stroke="black" points="373.534,-120.5 373.534,-148.5 466.223,-148.5 466.223,-120.5 373.534,-120.5"/>
<text text-anchor="start" x="381.534" y="-136.5" font-family="Helvetica,sans-Serif" font-size="10.00">fuzzylite/fl/factory</text>
<text text-anchor="middle" x="419.878" y="-126.5" font-family="Helvetica,sans-Serif" font-size="10.00">/TNormFactory.h</text>
</a>
</g>
</g>
<!-- Node13&#45;&gt;Node21 -->
<g id="edge18" class="edge"><title>Node13&#45;&gt;Node21</title>
<path fill="none" stroke="midnightblue" d="M382.948,-177.802C391.366,-168.159 401.126,-156.98 408.497,-148.537"/>
<polygon fill="midnightblue" stroke="midnightblue" points="380.214,-175.611 376.274,-185.446 385.488,-180.215 380.214,-175.611"/>
</g>
<!-- Node15 -->
<g id="node4" class="node"><title>Node15</title>
<g id="a_node4"><a xlink:href="../../d8/d89/_factory_manager_8h.html" target="_top" xlink:title="fuzzylite/fl/factory\l/FactoryManager.h">
<polygon fill="white" stroke="black" points="303.189,-55.5 303.189,-83.5 402.568,-83.5 402.568,-55.5 303.189,-55.5"/>
<text text-anchor="start" x="311.189" y="-71.5" font-family="Helvetica,sans-Serif" font-size="10.00">fuzzylite/fl/factory</text>
<text text-anchor="middle" x="352.878" y="-61.5" font-family="Helvetica,sans-Serif" font-size="10.00">/FactoryManager.h</text>
</a>
</g>
</g>
<!-- Node14&#45;&gt;Node15 -->
<g id="edge3" class="edge"><title>Node14&#45;&gt;Node15</title>
<path fill="none" stroke="midnightblue" d="M488.411,-117.159C458.003,-106.691 419.076,-93.2892 390.747,-83.5369"/>
<polygon fill="midnightblue" stroke="midnightblue" points="487.366,-120.501 497.961,-120.446 489.645,-113.882 487.366,-120.501"/>
</g>
<!-- Node14&#45;&gt;Node16 -->
<g id="edge5" class="edge"><title>Node14&#45;&gt;Node16</title>
<path fill="none" stroke="midnightblue" d="M512.969,-113.219C505.198,-104.98 497.356,-94.844 492.878,-84 483.701,-61.775 485.307,-32.5539 486.807,-18.5984"/>
<polygon fill="midnightblue" stroke="midnightblue" points="510.729,-115.928 520.286,-120.5 515.666,-110.966 510.729,-115.928"/>
</g>
<!-- Node15&#45;&gt;Node16 -->
<g id="edge4" class="edge"><title>Node15&#45;&gt;Node16</title>
<path fill="none" stroke="midnightblue" d="M392.488,-51.4825C417.69,-40.6549 449.186,-27.1233 468.924,-18.6434"/>
<polygon fill="midnightblue" stroke="midnightblue" points="390.981,-48.3204 383.175,-55.4837 393.744,-54.752 390.981,-48.3204"/>
</g>
<!-- Node17&#45;&gt;Node15 -->
<g id="edge7" class="edge"><title>Node17&#45;&gt;Node15</title>
<path fill="none" stroke="midnightblue" d="M143.282,-118.868C191.941,-107.639 258.177,-92.3542 303.069,-81.9944"/>
<polygon fill="midnightblue" stroke="midnightblue" points="142.445,-115.469 133.489,-121.128 144.02,-122.29 142.445,-115.469"/>
</g>
<!-- Node17&#45;&gt;Node16 -->
<g id="edge8" class="edge"><title>Node17&#45;&gt;Node16</title>
<path fill="none" stroke="midnightblue" d="M110.488,-115.4C142.108,-97.4746 193.396,-70.5222 240.878,-55 305.279,-33.9469 382.577,-22.0512 433.342,-15.9559"/>
<polygon fill="midnightblue" stroke="midnightblue" points="108.657,-112.415 101.721,-120.425 112.138,-118.488 108.657,-112.415"/>
</g>
<!-- Node18&#45;&gt;Node15 -->
<g id="edge10" class="edge"><title>Node18&#45;&gt;Node15</title>
<path fill="none" stroke="midnightblue" d="M595.23,-119.679C523.11,-103.648 450.202,-89.1854 403.006,-80.0528"/>
<polygon fill="midnightblue" stroke="midnightblue" points="594.876,-123.186 605.399,-121.951 596.403,-116.355 594.876,-123.186"/>
</g>
<!-- Node18&#45;&gt;Node16 -->
<g id="edge11" class="edge"><title>Node18&#45;&gt;Node16</title>
<path fill="none" stroke="midnightblue" d="M599.684,-117.137C570.345,-107.152 537.363,-94.3604 525.878,-84 505.399,-65.5255 494.264,-33.419 489.976,-18.5204"/>
<polygon fill="midnightblue" stroke="midnightblue" points="598.864,-120.553 609.457,-120.408 601.085,-113.915 598.864,-120.553"/>
</g>
<!-- Node19&#45;&gt;Node15 -->
<g id="edge13" class="edge"><title>Node19&#45;&gt;Node15</title>
<path fill="none" stroke="midnightblue" d="M239.427,-116.613C264.977,-106.228 297.225,-93.1203 320.803,-83.5369"/>
<polygon fill="midnightblue" stroke="midnightblue" points="237.941,-113.439 229.994,-120.446 240.576,-119.923 237.941,-113.439"/>
</g>
<!-- Node19&#45;&gt;Node16 -->
<g id="edge14" class="edge"><title>Node19&#45;&gt;Node16</title>
<path fill="none" stroke="midnightblue" d="M214.693,-112.665C230.416,-94.6163 255.526,-69.2299 282.878,-55 330.21,-30.3759 390.504,-19.3617 433.424,-14.4444"/>
<polygon fill="midnightblue" stroke="midnightblue" points="211.953,-110.484 208.155,-120.375 217.292,-115.012 211.953,-110.484"/>
</g>
<!-- Node20&#45;&gt;Node15 -->
<g id="edge16" class="edge"><title>Node20&#45;&gt;Node15</title>
<path fill="none" stroke="midnightblue" d="M323.739,-112.221C330.38,-102.713 337.994,-91.8116 343.773,-83.5369"/>
<polygon fill="midnightblue" stroke="midnightblue" points="320.852,-110.244 317.995,-120.446 326.591,-114.252 320.852,-110.244"/>
</g>
<!-- Node20&#45;&gt;Node16 -->
<g id="edge17" class="edge"><title>Node20&#45;&gt;Node16</title>
<path fill="none" stroke="midnightblue" d="M295.868,-111.059C287.861,-93.9748 281.304,-70.7855 293.878,-55 311.049,-33.4451 382.132,-21.4753 433.282,-15.514"/>
<polygon fill="midnightblue" stroke="midnightblue" points="292.937,-113.012 300.617,-120.31 299.164,-109.815 292.937,-113.012"/>
</g>
<!-- Node21&#45;&gt;Node15 -->
<g id="edge19" class="edge"><title>Node21&#45;&gt;Node15</title>
<path fill="none" stroke="midnightblue" d="M398.479,-113.379C388.088,-103.608 375.902,-92.1493 366.743,-83.5369"/>
<polygon fill="midnightblue" stroke="midnightblue" points="396.313,-116.146 405.996,-120.446 401.108,-111.046 396.313,-116.146"/>
</g>
<!-- Node21&#45;&gt;Node16 -->
<g id="edge20" class="edge"><title>Node21&#45;&gt;Node16</title>
<path fill="none" stroke="midnightblue" d="M432.134,-111.332C447.537,-83.4709 473.198,-37.0548 483.449,-18.5111"/>
<polygon fill="midnightblue" stroke="midnightblue" points="428.931,-109.892 427.155,-120.337 435.057,-113.279 428.931,-109.892"/>
</g>
<!-- Node22&#45;&gt;Node16 -->
<g id="edge25" class="edge"><title>Node22&#45;&gt;Node16</title>
<path fill="none" stroke="midnightblue" d="M550.132,-49.7468C533.438,-39.2226 513.468,-26.6323 500.73,-18.6018"/>
<polygon fill="midnightblue" stroke="midnightblue" points="548.676,-52.9666 559.002,-55.3389 552.409,-47.0451 548.676,-52.9666"/>
</g>
<!-- Node23&#45;&gt;Node16 -->
<g id="edge27" class="edge"><title>Node23&#45;&gt;Node16</title>
<path fill="none" stroke="midnightblue" d="M633.079,-52.6081C595.023,-41.572 545.907,-27.3283 515.667,-18.5587"/>
<polygon fill="midnightblue" stroke="midnightblue" points="632.415,-56.0599 642.994,-55.4837 634.365,-49.3369 632.415,-56.0599"/>
</g>
<!-- Node24&#45;&gt;Node16 -->
<g id="edge29" class="edge"><title>Node24&#45;&gt;Node16</title>
<path fill="none" stroke="midnightblue" d="M741.095,-54.918C664.999,-39.434 588.341,-26.5156 539.13,-18.5657"/>
<polygon fill="midnightblue" stroke="midnightblue" points="740.84,-58.4383 751.339,-57.0188 742.246,-51.5811 740.84,-58.4383"/>
</g>
<!-- Node25&#45;&gt;Node16 -->
<g id="edge31" class="edge"><title>Node25&#45;&gt;Node16</title>
<path fill="none" stroke="midnightblue" d="M854.174,-55.0323C737.529,-34.1521 612.543,-21.3641 542.594,-15.0673"/>
<polygon fill="midnightblue" stroke="midnightblue" points="853.886,-58.5371 864.351,-56.8787 855.136,-51.6496 853.886,-58.5371"/>
</g>
<!-- Node26&#45;&gt;Node16 -->
<g id="edge33" class="edge"><title>Node26&#45;&gt;Node16</title>
<path fill="none" stroke="midnightblue" d="M932.138,-177.406C957.663,-146.879 995.939,-90.1975 963.878,-55 935.968,-24.3584 661.811,-14.4416 542.68,-11.5631"/>
<polygon fill="midnightblue" stroke="midnightblue" points="929.225,-175.424 925.345,-185.283 934.527,-179.995 929.225,-175.424"/>
</g>
<!-- Node27&#45;&gt;Node16 -->
<g id="edge35" class="edge"><title>Node27&#45;&gt;Node16</title>
<path fill="none" stroke="midnightblue" d="M1022.57,-174.931C1023.46,-142.484 1019.64,-84.7046 984.878,-55 951.826,-26.7541 664.988,-15.4432 542.716,-11.8766"/>
<polygon fill="midnightblue" stroke="midnightblue" points="1019.06,-175.116 1022.1,-185.264 1026.05,-175.434 1019.06,-175.116"/>
</g>
<!-- Node28&#45;&gt;Node16 -->
<g id="edge37" class="edge"><title>Node28&#45;&gt;Node16</title>
<path fill="none" stroke="midnightblue" d="M1117.89,-176.319C1100.22,-143.329 1062.09,-82.297 1009.88,-55 929.78,-13.1215 659.42,-9.447 542.503,-9.89792"/>
<polygon fill="midnightblue" stroke="midnightblue" points="1114.8,-177.957 1122.52,-185.21 1121.01,-174.724 1114.8,-177.957"/>
</g>
</g>
</svg>
