<?xml version="1.0" encoding="UTF-8" standalone="no"?>
<!DOCTYPE svg PUBLIC "-//W3C//DTD SVG 1.1//EN"
 "http://www.w3.org/Graphics/SVG/1.1/DTD/svg11.dtd">
<!-- Generated by graphviz version 2.38.0 (20140413.2041)
 -->
<!-- Title: fl::WeightedAverageCustom Pages: 1 -->
<svg width="159pt" height="435pt"
 viewBox="0.00 0.00 158.71 435.00" xmlns="http://www.w3.org/2000/svg" xmlns:xlink="http://www.w3.org/1999/xlink">
<g id="graph0" class="graph" transform="scale(1 1) rotate(0) translate(4 431)">
<title>fl::WeightedAverageCustom</title>
<polygon fill="white" stroke="none" points="-4,4 -4,-431 154.712,-431 154.712,4 -4,4"/>
<!-- Node3 -->
<g id="node1" class="node"><title>Node3</title>
<polygon fill="#bfbfbf" stroke="black" points="0,-0.5 0,-124.5 150.712,-124.5 150.712,-0.5 0,-0.5"/>
<text text-anchor="middle" x="75.356" y="-112.5" font-family="Helvetica,sans-Serif" font-size="10.00">fl::WeightedAverageCustom</text>
<polyline fill="none" stroke="black" points="0,-106.5 150.712,-106.5 "/>
<text text-anchor="middle" x="75.356" y="-94.5" font-family="Helvetica,sans-Serif" font-size="10.00"> </text>
<polyline fill="none" stroke="black" points="0,-88.5 150.712,-88.5 "/>
<text text-anchor="start" x="8" y="-76.5" font-family="Helvetica,sans-Serif" font-size="10.00">+ WeightedAverageCustom()</text>
<text text-anchor="start" x="8" y="-66.5" font-family="Helvetica,sans-Serif" font-size="10.00">+ WeightedAverageCustom()</text>
<text text-anchor="start" x="8" y="-56.5" font-family="Helvetica,sans-Serif" font-size="10.00">+ ~WeightedAverageCustom()</text>
<text text-anchor="start" x="8" y="-46.5" font-family="Helvetica,sans-Serif" font-size="10.00">+ className()</text>
<text text-anchor="start" x="8" y="-36.5" font-family="Helvetica,sans-Serif" font-size="10.00">+ complexity()</text>
<text text-anchor="start" x="8" y="-26.5" font-family="Helvetica,sans-Serif" font-size="10.00">+ defuzzify()</text>
<text text-anchor="start" x="8" y="-16.5" font-family="Helvetica,sans-Serif" font-size="10.00">+ clone()</text>
<text text-anchor="start" x="8" y="-6.5" font-family="Helvetica,sans-Serif" font-size="10.00">+ constructor()</text>
</g>
<!-- Node4 -->
<g id="node2" class="node"><title>Node4</title>
<g id="a_node2"><a xlink:href="../../d5/d8d/classfl_1_1_weighted_defuzzifier.html" target="_top" xlink:title="The WeightedDefuzzifier class is the base class for defuzzifiers which compute a weighted function on...">
<polygon fill="white" stroke="black" points="12.1436,-161.5 12.1436,-285.5 138.568,-285.5 138.568,-161.5 12.1436,-161.5"/>
<text text-anchor="middle" x="75.356" y="-273.5" font-family="Helvetica,sans-Serif" font-size="10.00">fl::WeightedDefuzzifier</text>
<polyline fill="none" stroke="black" points="12.1436,-267.5 138.568,-267.5 "/>
<text text-anchor="middle" x="75.356" y="-255.5" font-family="Helvetica,sans-Serif" font-size="10.00"> </text>
<polyline fill="none" stroke="black" points="12.1436,-249.5 138.568,-249.5 "/>
<text text-anchor="start" x="20.1436" y="-237.5" font-family="Helvetica,sans-Serif" font-size="10.00">+ WeightedDefuzzifier()</text>
<text text-anchor="start" x="20.1436" y="-227.5" font-family="Helvetica,sans-Serif" font-size="10.00">+ WeightedDefuzzifier()</text>
<text text-anchor="start" x="20.1436" y="-217.5" font-family="Helvetica,sans-Serif" font-size="10.00">+ ~WeightedDefuzzifier()</text>
<text text-anchor="start" x="20.1436" y="-207.5" font-family="Helvetica,sans-Serif" font-size="10.00">+ setType()</text>
<text text-anchor="start" x="20.1436" y="-197.5" font-family="Helvetica,sans-Serif" font-size="10.00">+ getType()</text>
<text text-anchor="start" x="20.1436" y="-187.5" font-family="Helvetica,sans-Serif" font-size="10.00">+ getTypeName()</text>
<text text-anchor="start" x="20.1436" y="-177.5" font-family="Helvetica,sans-Serif" font-size="10.00">+ inferType()</text>
<text text-anchor="start" x="20.1436" y="-167.5" font-family="Helvetica,sans-Serif" font-size="10.00">+ typeName()</text>
</a>
</g>
</g>
<!-- Node4&#45;&gt;Node3 -->
<g id="edge1" class="edge"><title>Node4&#45;&gt;Node3</title>
<path fill="none" stroke="midnightblue" d="M75.356,-151.457C75.356,-142.501 75.356,-133.401 75.356,-124.618"/>
<polygon fill="none" stroke="midnightblue" points="71.8561,-151.481 75.356,-161.481 78.8561,-151.481 71.8561,-151.481"/>
</g>
<!-- Node5 -->
<g id="node3" class="node"><title>Node5</title>
<g id="a_node3"><a xlink:href="../../d3/d31/classfl_1_1_defuzzifier.html" target="_top" xlink:title="The Defuzzifier class is the abstract class for defuzzifiers. ">
<polygon fill="white" stroke="black" points="33.1787,-322.5 33.1787,-426.5 117.533,-426.5 117.533,-322.5 33.1787,-322.5"/>
<text text-anchor="middle" x="75.356" y="-414.5" font-family="Helvetica,sans-Serif" font-size="10.00">fl::Defuzzifier</text>
<polyline fill="none" stroke="black" points="33.1787,-408.5 117.533,-408.5 "/>
<text text-anchor="middle" x="75.356" y="-396.5" font-family="Helvetica,sans-Serif" font-size="10.00"> </text>
<polyline fill="none" stroke="black" points="33.1787,-390.5 117.533,-390.5 "/>
<text text-anchor="start" x="41.1787" y="-378.5" font-family="Helvetica,sans-Serif" font-size="10.00">+ Defuzzifier()</text>
<text text-anchor="start" x="41.1787" y="-368.5" font-family="Helvetica,sans-Serif" font-size="10.00">+ ~Defuzzifier()</text>
<text text-anchor="start" x="41.1787" y="-358.5" font-family="Helvetica,sans-Serif" font-size="10.00">+ className()</text>
<text text-anchor="start" x="41.1787" y="-348.5" font-family="Helvetica,sans-Serif" font-size="10.00">+ clone()</text>
<text text-anchor="start" x="41.1787" y="-338.5" font-family="Helvetica,sans-Serif" font-size="10.00">+ complexity()</text>
<text text-anchor="start" x="41.1787" y="-328.5" font-family="Helvetica,sans-Serif" font-size="10.00">+ defuzzify()</text>
</a>
</g>
</g>
<!-- Node5&#45;&gt;Node4 -->
<g id="edge2" class="edge"><title>Node5&#45;&gt;Node4</title>
<path fill="none" stroke="midnightblue" d="M75.356,-312.104C75.356,-303.362 75.356,-294.372 75.356,-285.635"/>
<polygon fill="none" stroke="midnightblue" points="71.8561,-312.223 75.356,-322.223 78.8561,-312.223 71.8561,-312.223"/>
</g>
</g>
</svg>
