<?xml version="1.0" encoding="UTF-8" standalone="no"?>
<svg width="140.758mm" height="87.8417mm"
 viewBox="0 0 399 249"
 xmlns="http://www.w3.org/2000/svg" xmlns:xlink="http://www.w3.org/1999/xlink"  version="1.2" baseProfile="tiny">
<title>qtfuzzylite</title>
<desc>A fuzzy logic controller graphic user interface written in Qt</desc>
<defs>
</defs>
<g fill="none" stroke="black" stroke-width="1" fill-rule="evenodd" stroke-linecap="square" stroke-linejoin="bevel" >

<g fill="#ffffff" fill-opacity="1" stroke="none" transform="matrix(1,0,0,1,0,0)"
font-family="Ubuntu" font-size="11" font-weight="400" font-style="normal" 
>
<path vector-effect="non-scaling-stroke" fill-rule="evenodd" d="M0,0 L399,0 L399,249 L0,249 L0,0"/>
</g>

<g fill="none" stroke="#000000" stroke-opacity="1" stroke-width="1" stroke-linecap="square" stroke-linejoin="bevel" transform="matrix(1,0,0,1,0,0)"
font-family="Ubuntu" font-size="11" font-weight="400" font-style="normal" 
>
</g>

<g fill="none" stroke="#000000" stroke-opacity="1" stroke-width="1" stroke-linecap="square" stroke-linejoin="bevel" transform="matrix(1,0,0,1,0,0)"
font-family="Ubuntu" font-size="11" font-weight="400" font-style="normal" 
>
</g>

<g fill="none" stroke="#000000" stroke-opacity="1" stroke-width="1" stroke-linecap="square" stroke-linejoin="bevel" transform="matrix(1,0,0,1,0,0)"
font-family="Ubuntu" font-size="11" font-weight="400" font-style="normal" 
>
</g>

<g fill="#ffaa00" fill-opacity="0.423529" stroke="#000000" stroke-opacity="1" stroke-width="1" stroke-linecap="square" stroke-linejoin="bevel" transform="matrix(1,0,0,1,0,0)"
font-family="Ubuntu" font-size="11" font-weight="400" font-style="normal" 
>
<path vector-effect="none" fill-rule="evenodd" d="M0,248 L0,247 L0,246 L0,245 L1,244 L1,243 L2,242 L2,241 L2,240 L3,239 L3,238 L4,237 L4,236 L4,235 L5,234 L5,233 L6,232 L6,231 L6,230 L7,229 L7,228 L8,227 L8,226 L8,225 L9,224 L9,223 L10,222 L10,221 L10,220 L11,219 L11,218 L12,217 L12,216 L12,215 L13,214 L13,213 L14,212 L14,211 L14,210 L15,209 L15,208 L16,207 L16,206 L16,205 L17,204 L17,203 L18,202 L18,201 L18,200 L19,199 L19,198 L20,197 L20,196 L20,195 L21,194 L21,193 L22,192 L22,191 L22,190 L23,189 L23,188 L24,187 L24,186 L25,185 L25,184 L26,183 L26,182 L26,181 L27,180 L27,179 L28,178 L28,177 L28,176 L29,175 L29,174 L30,173 L30,172 L30,171 L31,170 L31,169 L32,168 L32,167 L32,166 L33,165 L33,164 L34,163 L34,162 L34,161 L35,160 L35,159 L36,158 L36,157 L36,156 L37,155 L37,154 L38,153 L38,152 L38,151 L39,150 L39,149 L39,148 L40,147 L40,146 L41,145 L41,144 L41,143 L42,142 L42,141 L43,140 L43,139 L43,138 L44,137 L44,136 L45,135 L45,134 L45,133 L46,132 L46,131 L47,130 L47,129 L47,128 L48,127 L48,126 L49,125 L49,124 L49,123 L50,122 L50,121 L51,120 L51,119 L51,118 L52,117 L52,116 L53,115 L53,114 L53,113 L54,112 L54,111 L55,110 L55,109 L55,108 L56,107 L56,106 L57,105 L57,104 L57,103 L58,102 L58,101 L59,100 L59,99 L59,98 L60,97 L60,96 L61,95 L61,94 L61,93 L62,92 L62,91 L63,90 L63,89 L63,88 L64,87 L64,86 L65,85 L65,84 L65,83 L66,82 L66,81 L67,80 L67,79 L67,78 L68,77 L68,76 L69,75 L69,74 L69,73 L70,72 L70,71 L71,70 L71,69 L71,68 L72,67 L72,66 L73,65 L73,64 L73,63 L74,62 L75,61 L75,60 L75,59 L76,58 L76,57 L77,56 L77,55 L77,54 L78,53 L78,52 L79,51 L79,50 L79,49 L80,48 L80,47 L80,46 L81,45 L81,44 L82,43 L82,42 L82,41 L83,40 L83,39 L84,38 L84,37 L84,36 L85,35 L85,34 L86,33 L86,32 L86,31 L87,30 L87,29 L88,28 L88,27 L88,26 L89,25 L89,24 L90,23 L90,22 L90,21 L91,20 L91,19 L92,18 L92,17 L92,16 L93,15 L93,14 L94,13 L94,12 L94,11 L95,10 L95,9 L96,8 L96,7 L96,6 L97,5 L97,4 L98,3 L98,2 L98,1 L99,0 L100,1 L100,2 L100,3 L101,4 L101,5 L102,6 L102,7 L102,8 L103,9 L103,10 L104,11 L104,12 L104,13 L105,14 L105,15 L106,16 L106,17 L106,18 L107,19 L107,20 L108,21 L108,22 L108,23 L109,24 L109,25 L110,26 L110,27 L110,28 L111,29 L111,30 L112,31 L112,32 L112,33 L113,34 L113,35 L114,36 L114,37 L114,38 L115,39 L115,40 L116,41 L116,42 L116,43 L117,44 L117,45 L118,46 L118,47 L118,48 L119,49 L119,50 L119,51 L120,52 L120,53 L121,54 L121,55 L121,56 L122,57 L122,58 L123,59 L123,60 L123,61 L124,62 L125,63 L125,64 L125,65 L126,66 L126,67 L127,68 L127,69 L127,70 L128,71 L128,72 L129,73 L129,74 L129,75 L130,76 L130,77 L131,78 L131,79 L131,80 L132,81 L132,82 L133,83 L133,84 L133,85 L134,86 L134,87 L135,88 L135,89 L135,90 L136,91 L136,92 L137,93 L137,94 L137,95 L138,96 L138,97 L139,98 L139,99 L139,100 L140,101 L140,102 L141,103 L141,104 L141,105 L142,106 L142,107 L143,108 L143,109 L143,110 L144,111 L144,112 L145,113 L145,114 L145,115 L146,116 L146,117 L147,118 L147,119 L147,120 L148,121 L148,122 L149,123 L149,124 L149,125 L150,126 L150,127 L151,128 L151,129 L151,130 L152,131 L152,132 L153,133 L153,134 L153,135 L154,136 L154,137 L155,138 L155,139 L155,140 L156,141 L156,142 L157,143 L157,144 L157,145 L158,146 L158,147 L159,148 L159,149 L159,150 L160,151 L160,152 L160,153 L161,154 L161,155 L162,156 L162,157 L162,158 L163,159 L163,160 L164,161 L164,162 L164,163 L165,164 L165,165 L166,166 L166,167 L166,168 L167,169 L167,170 L168,171 L168,172 L168,173 L169,174 L169,175 L170,176 L170,177 L170,178 L171,179 L171,180 L172,181 L172,182 L172,183 L173,184 L173,185 L174,186 L174,187 L175,188 L175,189 L176,190 L176,191 L176,192 L177,193 L177,194 L178,195 L178,196 L178,197 L179,198 L179,199 L180,200 L180,201 L180,202 L181,203 L181,204 L182,205 L182,206 L182,207 L183,208 L183,209 L184,210 L184,211 L184,212 L185,213 L185,214 L186,215 L186,216 L186,217 L187,218 L187,219 L188,220 L188,221 L188,222 L189,223 L189,224 L190,225 L190,226 L190,227 L191,228 L191,229 L192,230 L192,231 L192,232 L193,233 L193,234 L194,235 L194,236 L194,237 L195,238 L195,239 L196,240 L196,241 L196,242 L197,243 L197,244 L198,245 L198,246 L198,247 L199,248 L200,248 L201,248 L202,248 L203,248 L204,248 L205,248 L206,248 L207,248 L208,248 L209,248 L210,248 L211,248 L212,248 L213,248 L214,248 L215,248 L216,248 L217,248 L218,248 L219,248 L220,248 L221,248 L222,248 L223,248 L224,248 L225,248 L226,248 L227,248 L228,248 L229,248 L230,248 L231,248 L232,248 L233,248 L234,248 L235,248 L236,248 L237,248 L238,248 L239,248 L240,248 L241,248 L242,248 L243,248 L244,248 L245,248 L246,248 L247,248 L248,248 L249,248 L250,248 L251,248 L252,248 L253,248 L254,248 L255,248 L256,248 L257,248 L258,248 L259,248 L260,248 L261,248 L262,248 L263,248 L264,248 L265,248 L266,248 L267,248 L268,248 L269,248 L270,248 L271,248 L272,248 L273,248 L274,248 L275,248 L276,248 L277,248 L278,248 L279,248 L280,248 L281,248 L282,248 L283,248 L284,248 L285,248 L286,248 L287,248 L288,248 L289,248 L290,248 L291,248 L292,248 L293,248 L294,248 L295,248 L296,248 L297,248 L298,248 L299,248 L300,248 L301,248 L302,248 L303,248 L304,248 L305,248 L306,248 L307,248 L308,248 L309,248 L310,248 L311,248 L312,248 L313,248 L314,248 L315,248 L316,248 L317,248 L318,248 L319,248 L320,248 L321,248 L322,248 L323,248 L324,248 L325,248 L326,248 L327,248 L328,248 L329,248 L330,248 L331,248 L332,248 L333,248 L334,248 L335,248 L336,248 L337,248 L338,248 L339,248 L340,248 L341,248 L342,248 L343,248 L344,248 L345,248 L346,248 L347,248 L348,248 L349,248 L350,248 L351,248 L352,248 L353,248 L354,248 L355,248 L356,248 L357,248 L358,248 L359,248 L360,248 L361,248 L362,248 L363,248 L364,248 L365,248 L366,248 L367,248 L368,248 L369,248 L370,248 L371,248 L372,248 L373,248 L374,248 L375,248 L376,248 L377,248 L378,248 L379,248 L380,248 L381,248 L382,248 L383,248 L384,248 L385,248 L386,248 L387,248 L388,248 L389,248 L390,248 L391,248 L392,248 L393,248 L394,248 L395,248 L396,248 L397,248 L0,248"/>
</g>

<g fill="none" stroke="#000000" stroke-opacity="1" stroke-width="1" stroke-linecap="square" stroke-linejoin="bevel" transform="matrix(1,0,0,1,0,0)"
font-family="Ubuntu" font-size="11" font-weight="400" font-style="normal" 
>
</g>

<g fill="none" stroke="#000000" stroke-opacity="1" stroke-width="1" stroke-linecap="square" stroke-linejoin="bevel" transform="matrix(1,0,0,1,0,0)"
font-family="Ubuntu" font-size="11" font-weight="400" font-style="normal" 
>
</g>

<g fill="#ff5500" fill-opacity="0.552941" stroke="#000000" stroke-opacity="1" stroke-width="1" stroke-linecap="square" stroke-linejoin="bevel" transform="matrix(1,0,0,1,0,0)"
font-family="Ubuntu" font-size="11" font-weight="400" font-style="normal" 
>
<path vector-effect="none" fill-rule="evenodd" d="M0,248 L1,248 L2,248 L3,248 L4,248 L5,248 L6,248 L7,248 L8,248 L9,248 L10,248 L11,248 L12,248 L13,248 L14,248 L15,248 L16,248 L17,248 L18,248 L19,248 L20,248 L21,248 L22,248 L23,248 L24,248 L25,248 L26,248 L27,248 L28,248 L29,248 L30,248 L31,248 L32,248 L33,248 L34,248 L35,248 L36,248 L37,248 L38,248 L39,248 L40,248 L41,248 L42,248 L43,248 L44,248 L45,248 L46,248 L47,248 L48,248 L49,248 L50,248 L51,248 L52,248 L53,248 L54,248 L55,248 L56,248 L57,248 L58,248 L59,248 L60,248 L61,248 L62,248 L63,248 L64,248 L65,248 L66,248 L67,248 L68,248 L69,248 L70,248 L71,248 L72,248 L73,248 L74,248 L75,248 L76,248 L77,248 L78,248 L79,248 L80,248 L81,248 L82,248 L83,248 L84,248 L85,248 L86,248 L87,248 L88,248 L89,248 L90,248 L91,248 L92,248 L93,248 L94,248 L95,248 L96,248 L97,248 L98,248 L99,248 L99,247 L100,246 L100,245 L100,244 L101,243 L101,242 L102,241 L102,240 L102,239 L103,238 L103,237 L104,236 L104,235 L104,234 L105,233 L105,232 L106,231 L106,230 L106,229 L107,228 L107,227 L108,226 L108,225 L108,224 L109,223 L109,222 L110,221 L110,220 L110,219 L111,218 L111,217 L112,216 L112,215 L112,214 L113,213 L113,212 L114,211 L114,210 L114,209 L115,208 L115,207 L116,206 L116,205 L116,204 L117,203 L117,202 L118,201 L118,200 L118,199 L119,198 L119,197 L119,196 L120,195 L120,194 L121,193 L121,192 L121,191 L122,190 L122,189 L123,188 L123,187 L123,186 L124,186 L124,185 L125,184 L125,183 L125,182 L126,181 L126,180 L127,179 L127,178 L127,177 L128,176 L128,175 L129,174 L129,173 L129,172 L130,171 L130,170 L131,169 L131,168 L131,167 L132,166 L132,165 L133,164 L133,163 L133,162 L134,161 L134,160 L135,159 L135,158 L135,157 L136,156 L136,155 L137,154 L137,153 L137,152 L138,151 L138,150 L139,149 L139,148 L139,147 L140,146 L140,145 L141,144 L141,143 L141,142 L142,141 L142,140 L143,139 L143,138 L143,137 L144,136 L144,135 L145,134 L145,133 L145,132 L146,131 L146,130 L147,129 L147,128 L147,127 L148,126 L148,125 L149,124 L149,123 L149,122 L150,121 L150,120 L151,119 L151,118 L151,117 L152,116 L152,115 L153,114 L153,113 L153,112 L154,111 L154,110 L155,109 L155,108 L155,107 L156,106 L156,105 L157,104 L157,103 L157,102 L158,101 L158,100 L159,99 L159,98 L159,97 L160,96 L160,95 L160,94 L161,93 L161,92 L162,91 L162,90 L162,89 L163,88 L163,87 L164,86 L164,85 L164,84 L165,83 L165,82 L166,81 L166,80 L166,79 L167,78 L167,77 L168,76 L168,75 L168,74 L169,73 L169,72 L170,71 L170,70 L170,69 L171,68 L171,67 L172,66 L172,65 L172,64 L173,63 L173,62 L174,62 L174,61 L174,60 L175,59 L175,58 L176,57 L176,56 L176,55 L177,54 L177,53 L178,52 L178,51 L178,50 L179,49 L179,48 L180,47 L180,46 L180,45 L181,44 L181,43 L182,42 L182,41 L182,40 L183,39 L183,38 L184,37 L184,36 L184,35 L185,34 L185,33 L186,32 L186,31 L186,30 L187,29 L187,28 L188,27 L188,26 L188,25 L189,24 L189,23 L190,22 L190,21 L190,20 L191,19 L191,18 L192,17 L192,16 L192,15 L193,14 L193,13 L194,12 L194,11 L194,10 L195,9 L195,8 L196,7 L196,6 L196,5 L197,4 L197,3 L198,2 L198,1 L198,0 L199,0 L199,1 L199,2 L200,3 L200,4 L201,5 L201,6 L201,7 L202,8 L202,9 L203,10 L203,11 L203,12 L204,13 L204,14 L205,15 L205,16 L205,17 L206,18 L206,19 L207,20 L207,21 L207,22 L208,23 L208,24 L209,25 L209,26 L209,27 L210,28 L210,29 L211,30 L211,31 L211,32 L212,33 L212,34 L213,35 L213,36 L213,37 L214,38 L214,39 L215,40 L215,41 L215,42 L216,43 L216,44 L217,45 L217,46 L217,47 L218,48 L218,49 L219,50 L219,51 L219,52 L220,53 L220,54 L221,55 L221,56 L221,57 L222,58 L222,59 L223,60 L223,61 L223,62 L224,62 L224,63 L225,64 L225,65 L225,66 L226,67 L226,68 L227,69 L227,70 L227,71 L228,72 L228,73 L229,74 L229,75 L229,76 L230,77 L230,78 L231,79 L231,80 L231,81 L232,82 L232,83 L233,84 L233,85 L233,86 L234,87 L234,88 L235,89 L235,90 L235,91 L236,92 L236,93 L237,94 L237,95 L237,96 L238,97 L238,98 L238,99 L239,100 L239,101 L240,102 L240,103 L240,104 L241,105 L241,106 L242,107 L242,108 L242,109 L243,110 L243,111 L244,112 L244,113 L244,114 L245,115 L245,116 L246,117 L246,118 L246,119 L247,120 L247,121 L248,122 L248,123 L248,124 L249,125 L249,126 L250,127 L250,128 L250,129 L251,130 L251,131 L252,132 L252,133 L252,134 L253,135 L253,136 L254,137 L254,138 L254,139 L255,140 L255,141 L256,142 L256,143 L256,144 L257,145 L257,146 L258,147 L258,148 L258,149 L259,150 L259,151 L260,152 L260,153 L260,154 L261,155 L261,156 L262,157 L262,158 L262,159 L263,160 L263,161 L264,162 L264,163 L264,164 L265,165 L265,166 L266,167 L266,168 L266,169 L267,170 L267,171 L268,172 L268,173 L268,174 L269,175 L269,176 L270,177 L270,178 L270,179 L271,180 L271,181 L272,182 L272,183 L272,184 L273,185 L273,186 L274,186 L274,187 L274,188 L275,189 L275,190 L276,191 L276,192 L276,193 L277,194 L277,195 L278,196 L278,197 L278,198 L279,199 L279,200 L279,201 L280,202 L280,203 L281,204 L281,205 L281,206 L282,207 L282,208 L283,209 L283,210 L283,211 L284,212 L284,213 L285,214 L285,215 L285,216 L286,217 L286,218 L287,219 L287,220 L287,221 L288,222 L288,223 L289,224 L289,225 L289,226 L290,227 L290,228 L291,229 L291,230 L291,231 L292,232 L292,233 L293,234 L293,235 L293,236 L294,237 L294,238 L295,239 L295,240 L295,241 L296,242 L296,243 L297,244 L297,245 L297,246 L298,247 L298,248 L299,248 L300,248 L301,248 L302,248 L303,248 L304,248 L305,248 L306,248 L307,248 L308,248 L309,248 L310,248 L311,248 L312,248 L313,248 L314,248 L315,248 L316,248 L317,248 L318,248 L319,248 L320,248 L321,248 L322,248 L323,248 L324,248 L325,248 L326,248 L327,248 L328,248 L329,248 L330,248 L331,248 L332,248 L333,248 L334,248 L335,248 L336,248 L337,248 L338,248 L339,248 L340,248 L341,248 L342,248 L343,248 L344,248 L345,248 L346,248 L347,248 L348,248 L349,248 L350,248 L351,248 L352,248 L353,248 L354,248 L355,248 L356,248 L357,248 L358,248 L359,248 L360,248 L361,248 L362,248 L363,248 L364,248 L365,248 L366,248 L367,248 L368,248 L369,248 L370,248 L371,248 L372,248 L373,248 L374,248 L375,248 L376,248 L377,248 L378,248 L379,248 L380,248 L381,248 L382,248 L383,248 L384,248 L385,248 L386,248 L387,248 L388,248 L389,248 L390,248 L391,248 L392,248 L393,248 L394,248 L395,248 L396,248 L397,248 L0,248"/>
</g>

<g fill="none" stroke="#000000" stroke-opacity="1" stroke-width="1" stroke-linecap="square" stroke-linejoin="bevel" transform="matrix(1,0,0,1,0,0)"
font-family="Ubuntu" font-size="11" font-weight="400" font-style="normal" 
>
</g>

<g fill="none" stroke="#000000" stroke-opacity="1" stroke-width="1" stroke-linecap="square" stroke-linejoin="bevel" transform="matrix(1,0,0,1,0,0)"
font-family="Ubuntu" font-size="11" font-weight="400" font-style="normal" 
>
</g>

<g fill="#ff0000" fill-opacity="0.686275" stroke="#000000" stroke-opacity="1" stroke-width="1" stroke-linecap="square" stroke-linejoin="bevel" transform="matrix(1,0,0,1,0,0)"
font-family="Ubuntu" font-size="11" font-weight="400" font-style="normal" 
>
<path vector-effect="none" fill-rule="evenodd" d="M0,248 L1,248 L2,248 L3,248 L4,248 L5,248 L6,248 L7,248 L8,248 L9,248 L10,248 L11,248 L12,248 L13,248 L14,248 L15,248 L16,248 L17,248 L18,248 L19,248 L20,248 L21,248 L22,248 L23,248 L24,248 L25,248 L26,248 L27,248 L28,248 L29,248 L30,248 L31,248 L32,248 L33,248 L34,248 L35,248 L36,248 L37,248 L38,248 L39,248 L40,248 L41,248 L42,248 L43,248 L44,248 L45,248 L46,248 L47,248 L48,248 L49,248 L50,248 L51,248 L52,248 L53,248 L54,248 L55,248 L56,248 L57,248 L58,248 L59,248 L60,248 L61,248 L62,248 L63,248 L64,248 L65,248 L66,248 L67,248 L68,248 L69,248 L70,248 L71,248 L72,248 L73,248 L74,248 L75,248 L76,248 L77,248 L78,248 L79,248 L80,248 L81,248 L82,248 L83,248 L84,248 L85,248 L86,248 L87,248 L88,248 L89,248 L90,248 L91,248 L92,248 L93,248 L94,248 L95,248 L96,248 L97,248 L98,248 L99,248 L100,248 L101,248 L102,248 L103,248 L104,248 L105,248 L106,248 L107,248 L108,248 L109,248 L110,248 L111,248 L112,248 L113,248 L114,248 L115,248 L116,248 L117,248 L118,248 L119,248 L120,248 L121,248 L122,248 L123,248 L124,248 L125,248 L126,248 L127,248 L128,248 L129,248 L130,248 L131,248 L132,248 L133,248 L134,248 L135,248 L136,248 L137,248 L138,248 L139,248 L140,248 L141,248 L142,248 L143,248 L144,248 L145,248 L146,248 L147,248 L148,248 L149,248 L150,248 L151,248 L152,248 L153,248 L154,248 L155,248 L156,248 L157,248 L158,248 L159,248 L160,248 L161,248 L162,248 L163,248 L164,248 L165,248 L166,248 L167,248 L168,248 L169,248 L170,248 L171,248 L172,248 L173,248 L174,248 L175,248 L176,248 L177,248 L178,248 L179,248 L180,248 L181,248 L182,248 L183,248 L184,248 L185,248 L186,248 L187,248 L188,248 L189,248 L190,248 L191,248 L192,248 L193,248 L194,248 L195,248 L196,248 L197,248 L198,248 L199,247 L199,246 L199,245 L200,244 L200,243 L201,242 L201,241 L201,240 L202,239 L202,238 L203,237 L203,236 L203,235 L204,234 L204,233 L205,232 L205,231 L205,230 L206,229 L206,228 L207,227 L207,226 L207,225 L208,224 L208,223 L209,222 L209,221 L209,220 L210,219 L210,218 L211,217 L211,216 L211,215 L212,214 L212,213 L213,212 L213,211 L213,210 L214,209 L214,208 L215,207 L215,206 L215,205 L216,204 L216,203 L217,202 L217,201 L217,200 L218,199 L218,198 L219,197 L219,196 L219,195 L220,194 L220,193 L221,192 L221,191 L221,190 L222,189 L222,188 L223,187 L223,186 L224,185 L224,184 L225,183 L225,182 L225,181 L226,180 L226,179 L227,178 L227,177 L227,176 L228,175 L228,174 L229,173 L229,172 L229,171 L230,170 L230,169 L231,168 L231,167 L231,166 L232,165 L232,164 L233,163 L233,162 L233,161 L234,160 L234,159 L235,158 L235,157 L235,156 L236,155 L236,154 L237,153 L237,152 L237,151 L238,150 L238,149 L238,148 L239,147 L239,146 L240,145 L240,144 L240,143 L241,142 L241,141 L242,140 L242,139 L242,138 L243,137 L243,136 L244,135 L244,134 L244,133 L245,132 L245,131 L246,130 L246,129 L246,128 L247,127 L247,126 L248,125 L248,124 L248,123 L249,122 L249,121 L250,120 L250,119 L250,118 L251,117 L251,116 L252,115 L252,114 L252,113 L253,112 L253,111 L254,110 L254,109 L254,108 L255,107 L255,106 L256,105 L256,104 L256,103 L257,102 L257,101 L258,100 L258,99 L258,98 L259,97 L259,96 L260,95 L260,94 L260,93 L261,92 L261,91 L262,90 L262,89 L262,88 L263,87 L263,86 L264,85 L264,84 L264,83 L265,82 L265,81 L266,80 L266,79 L266,78 L267,77 L267,76 L268,75 L268,74 L268,73 L269,72 L269,71 L270,70 L270,69 L270,68 L271,67 L271,66 L272,65 L272,64 L272,63 L273,62 L274,61 L274,60 L274,59 L275,58 L275,57 L276,56 L276,55 L276,54 L277,53 L277,52 L278,51 L278,50 L278,49 L279,48 L279,47 L279,46 L280,45 L280,44 L281,43 L281,42 L281,41 L282,40 L282,39 L283,38 L283,37 L283,36 L284,35 L284,34 L285,33 L285,32 L285,31 L286,30 L286,29 L287,28 L287,27 L287,26 L288,25 L288,24 L289,23 L289,22 L289,21 L290,20 L290,19 L291,18 L291,17 L291,16 L292,15 L292,14 L293,13 L293,12 L293,11 L294,10 L294,9 L295,8 L295,7 L295,6 L296,5 L296,4 L297,3 L297,2 L297,1 L298,0 L299,1 L299,2 L299,3 L300,4 L300,5 L301,6 L301,7 L301,8 L302,9 L302,10 L303,11 L303,12 L303,13 L304,14 L304,15 L305,16 L305,17 L305,18 L306,19 L306,20 L307,21 L307,22 L307,23 L308,24 L308,25 L309,26 L309,27 L309,28 L310,29 L310,30 L311,31 L311,32 L311,33 L312,34 L312,35 L313,36 L313,37 L313,38 L314,39 L314,40 L315,41 L315,42 L315,43 L316,44 L316,45 L317,46 L317,47 L317,48 L318,49 L318,50 L318,51 L319,52 L319,53 L320,54 L320,55 L320,56 L321,57 L321,58 L322,59 L322,60 L322,61 L323,62 L324,63 L324,64 L324,65 L325,66 L325,67 L326,68 L326,69 L326,70 L327,71 L327,72 L328,73 L328,74 L328,75 L329,76 L329,77 L330,78 L330,79 L330,80 L331,81 L331,82 L332,83 L332,84 L332,85 L333,86 L333,87 L334,88 L334,89 L334,90 L335,91 L335,92 L336,93 L336,94 L336,95 L337,96 L337,97 L338,98 L338,99 L338,100 L339,101 L339,102 L340,103 L340,104 L340,105 L341,106 L341,107 L342,108 L342,109 L342,110 L343,111 L343,112 L344,113 L344,114 L344,115 L345,116 L345,117 L346,118 L346,119 L346,120 L347,121 L347,122 L348,123 L348,124 L348,125 L349,126 L349,127 L350,128 L350,129 L350,130 L351,131 L351,132 L352,133 L352,134 L352,135 L353,136 L353,137 L354,138 L354,139 L354,140 L355,141 L355,142 L356,143 L356,144 L356,145 L357,146 L357,147 L358,148 L358,149 L358,150 L359,151 L359,152 L359,153 L360,154 L360,155 L361,156 L361,157 L361,158 L362,159 L362,160 L363,161 L363,162 L363,163 L364,164 L364,165 L365,166 L365,167 L365,168 L366,169 L366,170 L367,171 L367,172 L367,173 L368,174 L368,175 L369,176 L369,177 L369,178 L370,179 L370,180 L371,181 L371,182 L371,183 L372,184 L372,185 L373,186 L373,187 L374,188 L374,189 L375,190 L375,191 L375,192 L376,193 L376,194 L377,195 L377,196 L377,197 L378,198 L378,199 L379,200 L379,201 L379,202 L380,203 L380,204 L381,205 L381,206 L381,207 L382,208 L382,209 L383,210 L383,211 L383,212 L384,213 L384,214 L385,215 L385,216 L385,217 L386,218 L386,219 L387,220 L387,221 L387,222 L388,223 L388,224 L389,225 L389,226 L389,227 L390,228 L390,229 L391,230 L391,231 L391,232 L392,233 L392,234 L393,235 L393,236 L393,237 L394,238 L394,239 L395,240 L395,241 L395,242 L396,243 L396,244 L397,245 L397,246 L397,247 L397,248 L0,248"/>
</g>

<g fill="none" stroke="#000000" stroke-opacity="1" stroke-width="1" stroke-linecap="square" stroke-linejoin="bevel" transform="matrix(1,0,0,1,0,0)"
font-family="Ubuntu" font-size="11" font-weight="400" font-style="normal" 
>
</g>

<g fill="none" stroke="#000000" stroke-opacity="1" stroke-width="1" stroke-linecap="square" stroke-linejoin="bevel" transform="matrix(1,0,0,1,0,0)"
font-family="Ubuntu" font-size="11" font-weight="400" font-style="normal" 
>
</g>

<g fill="#00d200" fill-opacity="0.784314" stroke="#000000" stroke-opacity="1" stroke-width="1" stroke-linecap="square" stroke-linejoin="bevel" transform="matrix(1,0,0,1,0,0)"
font-family="Ubuntu" font-size="11" font-weight="400" font-style="normal" 
>
<path vector-effect="none" fill-rule="evenodd" d="M0,248 L1,248 L2,248 L3,248 L4,248 L5,248 L6,248 L7,248 L8,248 L9,248 L10,248 L11,248 L12,248 L13,248 L14,248 L15,248 L16,248 L17,248 L18,248 L19,248 L20,248 L21,248 L22,248 L23,248 L24,248 L25,248 L26,248 L27,248 L28,248 L29,248 L30,248 L31,248 L32,248 L33,248 L34,248 L35,248 L36,248 L37,248 L38,248 L39,248 L40,248 L41,248 L42,248 L43,248 L44,248 L45,248 L46,248 L47,248 L48,248 L49,248 L50,248 L51,248 L52,248 L53,248 L54,248 L55,248 L56,248 L57,248 L58,248 L59,248 L60,248 L61,248 L62,248 L63,248 L64,248 L65,248 L66,248 L67,248 L68,248 L69,248 L70,248 L71,248 L72,248 L73,248 L74,248 L75,248 L76,248 L77,248 L78,248 L79,248 L80,248 L81,248 L82,248 L83,248 L84,248 L85,248 L86,248 L87,248 L88,248 L89,248 L90,248 L91,248 L92,248 L93,248 L94,248 L95,248 L96,248 L97,248 L98,248 L99,248 L99,247 L100,246 L100,245 L100,244 L101,243 L101,242 L102,241 L102,240 L102,239 L103,238 L103,237 L104,236 L104,235 L104,234 L105,233 L105,232 L106,231 L106,230 L106,229 L107,228 L107,227 L108,226 L108,225 L108,224 L109,223 L109,222 L110,221 L110,220 L110,219 L111,218 L111,217 L112,216 L112,215 L112,214 L113,213 L113,212 L114,211 L114,210 L114,209 L115,208 L115,207 L116,206 L116,205 L116,204 L117,203 L117,202 L118,201 L118,200 L118,199 L119,198 L119,197 L119,196 L120,195 L120,194 L121,193 L121,192 L121,191 L122,190 L122,189 L123,188 L123,187 L123,186 L124,186 L124,185 L125,184 L125,183 L125,182 L126,181 L126,180 L127,179 L127,178 L127,177 L128,176 L128,175 L129,174 L129,173 L129,172 L130,171 L130,170 L131,169 L131,168 L131,167 L132,166 L132,165 L133,164 L133,163 L133,162 L134,161 L134,160 L135,159 L135,158 L136,158 L137,158 L138,158 L139,158 L140,158 L141,158 L142,158 L143,158 L144,158 L145,158 L146,158 L147,158 L148,158 L149,158 L150,158 L151,158 L152,158 L153,158 L154,158 L155,158 L156,158 L157,158 L158,158 L159,158 L160,158 L161,158 L162,158 L163,158 L164,158 L165,158 L166,158 L167,158 L168,158 L169,158 L170,158 L171,158 L172,158 L173,158 L174,158 L175,158 L176,158 L177,158 L178,158 L179,158 L180,158 L181,158 L182,158 L183,158 L184,158 L185,158 L186,158 L187,158 L188,158 L189,158 L190,158 L191,158 L192,158 L193,158 L194,158 L195,158 L196,158 L197,158 L198,158 L199,158 L200,158 L201,158 L202,158 L203,158 L204,158 L205,158 L206,158 L207,158 L208,158 L209,158 L210,158 L211,158 L212,158 L213,158 L214,158 L215,158 L216,158 L217,158 L218,158 L219,158 L220,158 L221,158 L222,158 L223,158 L224,158 L225,158 L226,158 L227,158 L228,158 L229,158 L230,158 L231,158 L232,158 L233,158 L234,158 L235,158 L235,157 L235,156 L236,155 L236,154 L237,153 L237,152 L237,151 L238,150 L238,149 L238,148 L239,147 L239,146 L240,145 L240,144 L240,143 L241,142 L241,141 L242,140 L242,139 L242,138 L243,137 L243,136 L244,135 L244,134 L244,133 L245,132 L245,131 L246,130 L246,129 L246,128 L247,127 L247,126 L248,125 L248,124 L248,123 L249,122 L249,121 L250,120 L250,119 L250,118 L251,117 L251,116 L252,115 L252,114 L252,113 L253,112 L253,111 L254,110 L254,109 L254,108 L255,107 L255,106 L256,105 L256,104 L256,103 L257,102 L257,101 L258,100 L258,99 L258,98 L259,97 L259,96 L260,95 L260,94 L260,93 L261,92 L261,91 L262,90 L262,89 L263,89 L264,89 L265,89 L266,89 L267,89 L268,89 L269,89 L270,89 L271,89 L272,89 L273,89 L274,89 L275,89 L276,89 L277,89 L278,89 L279,89 L280,89 L281,89 L282,89 L283,89 L284,89 L285,89 L286,89 L287,89 L288,89 L289,89 L290,89 L291,89 L292,89 L293,89 L294,89 L295,89 L296,89 L297,89 L298,89 L299,89 L300,89 L301,89 L302,89 L303,89 L304,89 L305,89 L306,89 L307,89 L308,89 L309,89 L310,89 L311,89 L312,89 L313,89 L314,89 L315,89 L316,89 L317,89 L318,89 L319,89 L320,89 L321,89 L322,89 L323,89 L324,89 L325,89 L326,89 L327,89 L328,89 L329,89 L330,89 L331,89 L332,89 L333,89 L334,89 L334,90 L335,91 L335,92 L336,93 L336,94 L336,95 L337,96 L337,97 L338,98 L338,99 L338,100 L339,101 L339,102 L340,103 L340,104 L340,105 L341,106 L341,107 L342,108 L342,109 L342,110 L343,111 L343,112 L344,113 L344,114 L344,115 L345,116 L345,117 L346,118 L346,119 L346,120 L347,121 L347,122 L348,123 L348,124 L348,125 L349,126 L349,127 L350,128 L350,129 L350,130 L351,131 L351,132 L352,133 L352,134 L352,135 L353,136 L353,137 L354,138 L354,139 L354,140 L355,141 L355,142 L356,143 L356,144 L356,145 L357,146 L357,147 L358,148 L358,149 L358,150 L359,151 L359,152 L359,153 L360,154 L360,155 L361,156 L361,157 L361,158 L362,159 L362,160 L363,161 L363,162 L363,163 L364,164 L364,165 L365,166 L365,167 L365,168 L366,169 L366,170 L367,171 L367,172 L367,173 L368,174 L368,175 L369,176 L369,177 L369,178 L370,179 L370,180 L371,181 L371,182 L371,183 L372,184 L372,185 L373,186 L373,187 L374,188 L374,189 L375,190 L375,191 L375,192 L376,193 L376,194 L377,195 L377,196 L377,197 L378,198 L378,199 L379,200 L379,201 L379,202 L380,203 L380,204 L381,205 L381,206 L381,207 L382,208 L382,209 L383,210 L383,211 L383,212 L384,213 L384,214 L385,215 L385,216 L385,217 L386,218 L386,219 L387,220 L387,221 L387,222 L388,223 L388,224 L389,225 L389,226 L389,227 L390,228 L390,229 L391,230 L391,231 L391,232 L392,233 L392,234 L393,235 L393,236 L393,237 L394,238 L394,239 L395,240 L395,241 L395,242 L396,243 L396,244 L397,245 L397,246 L397,247 L397,248 L0,248"/>
</g>

<g fill="none" stroke="#000000" stroke-opacity="1" stroke-width="1" stroke-linecap="square" stroke-linejoin="bevel" transform="matrix(1,0,0,1,0,0)"
font-family="Ubuntu" font-size="11" font-weight="400" font-style="normal" 
>
</g>

<g fill="none" stroke="#000000" stroke-opacity="1" stroke-width="1" stroke-linecap="square" stroke-linejoin="bevel" transform="matrix(1,0,0,1,0,0)"
font-family="Ubuntu" font-size="11" font-weight="400" font-style="normal" 
>
</g>

<g fill="none" stroke="#0000ff" stroke-opacity="1" stroke-width="1" stroke-linecap="square" stroke-linejoin="bevel" transform="matrix(1,0,0,1,0,0)"
font-family="Ubuntu" font-size="11" font-weight="400" font-style="normal" 
>
<path vector-effect="non-scaling-stroke" fill-rule="evenodd" d="M102.5,166.834 C102.5,167.662 101.828,168.334 101,168.334 C100.172,168.334 99.5,167.662 99.5,166.834 C99.5,166.005 100.172,165.334 101,165.334 C101.828,165.334 102.5,166.005 102.5,166.834 "/>
</g>

<g fill="none" stroke="#000000" stroke-opacity="1" stroke-width="1" stroke-linecap="square" stroke-linejoin="bevel" transform="matrix(1,0,0,1,0,0)"
font-family="Ubuntu" font-size="11" font-weight="400" font-style="normal" 
>
</g>

<g fill="none" stroke="#000000" stroke-opacity="1" stroke-width="1" stroke-linecap="square" stroke-linejoin="bevel" transform="matrix(1,0,0,1,0,0)"
font-family="Ubuntu" font-size="11" font-weight="400" font-style="normal" 
>
</g>

<g fill="none" stroke="#0000ff" stroke-opacity="1" stroke-width="1" stroke-linecap="square" stroke-linejoin="bevel" transform="matrix(1,0,0,1,0,0)"
font-family="Ubuntu" font-size="11" font-weight="400" font-style="normal" 
>
<path vector-effect="non-scaling-stroke" fill-rule="evenodd" d="M202,166.834 C202,167.662 201.328,168.334 200.5,168.334 C199.672,168.334 199,167.662 199,166.834 C199,166.005 199.672,165.334 200.5,165.334 C201.328,165.334 202,166.005 202,166.834 "/>
</g>

<g fill="none" stroke="#000000" stroke-opacity="1" stroke-width="1" stroke-linecap="square" stroke-linejoin="bevel" transform="matrix(1,0,0,1,0,0)"
font-family="Ubuntu" font-size="11" font-weight="400" font-style="normal" 
>
</g>

<g fill="none" stroke="#000000" stroke-opacity="1" stroke-width="1" stroke-linecap="square" stroke-linejoin="bevel" transform="matrix(1,0,0,1,0,0)"
font-family="Ubuntu" font-size="11" font-weight="400" font-style="normal" 
>
</g>

<g fill="none" stroke="#0000ff" stroke-opacity="1" stroke-width="1" stroke-linecap="square" stroke-linejoin="bevel" transform="matrix(1,0,0,1,0,0)"
font-family="Ubuntu" font-size="11" font-weight="400" font-style="normal" 
>
<path vector-effect="non-scaling-stroke" fill-rule="evenodd" d="M301.5,166.834 C301.5,167.662 300.828,168.334 300,168.334 C299.172,168.334 298.5,167.662 298.5,166.834 C298.5,166.005 299.172,165.334 300,165.334 C300.828,165.334 301.5,166.005 301.5,166.834 "/>
</g>

<g fill="none" stroke="#000000" stroke-opacity="1" stroke-width="1" stroke-linecap="square" stroke-linejoin="bevel" transform="matrix(1,0,0,1,0,0)"
font-family="Ubuntu" font-size="11" font-weight="400" font-style="normal" 
>
</g>

<g fill="none" stroke="#000000" stroke-opacity="1" stroke-width="1" stroke-linecap="square" stroke-linejoin="bevel" transform="matrix(1,0,0,1,0,0)"
font-family="Ubuntu" font-size="11" font-weight="400" font-style="normal" 
>
</g>

<g fill="none" stroke="#0000ff" stroke-opacity="1" stroke-dasharray="4,2" stroke-dashoffset="0" stroke-width="1" stroke-linecap="square" stroke-linejoin="bevel" transform="matrix(1,0,0,1,0,0)"
font-family="Ubuntu" font-size="11" font-weight="400" font-style="normal" 
>
<polyline fill="none" vector-effect="none" points="260.553,248 260.553,94.5826 " />
</g>

<g fill="none" stroke="#000000" stroke-opacity="1" stroke-width="1" stroke-linecap="square" stroke-linejoin="bevel" transform="matrix(1,0,0,1,0,0)"
font-family="Ubuntu" font-size="11" font-weight="400" font-style="normal" 
>
</g>

<g fill="none" stroke="#000000" stroke-opacity="1" stroke-width="1" stroke-linecap="square" stroke-linejoin="bevel" transform="matrix(1,0,0,1,0,0)"
font-family="Ubuntu" font-size="11" font-weight="400" font-style="normal" 
>
</g>

<g fill="none" stroke="#0000ff" stroke-opacity="1" stroke-width="1" stroke-linecap="square" stroke-linejoin="bevel" transform="matrix(1,0,0,1,0,0)"
font-family="Ubuntu" font-size="11" font-weight="400" font-style="normal" 
>
<path vector-effect="non-scaling-stroke" fill-rule="evenodd" d="M263.072,189.105 C263.072,189.934 262.4,190.605 261.572,190.605 C260.743,190.605 260.072,189.934 260.072,189.105 C260.072,188.277 260.743,187.605 261.572,187.605 C262.4,187.605 263.072,188.277 263.072,189.105 "/>
</g>

<g fill="none" stroke="#000000" stroke-opacity="1" stroke-width="1" stroke-linecap="square" stroke-linejoin="bevel" transform="matrix(1,0,0,1,0,0)"
font-family="Ubuntu" font-size="11" font-weight="400" font-style="normal" 
>
</g>

<g fill="none" stroke="#000000" stroke-opacity="1" stroke-width="1" stroke-linecap="square" stroke-linejoin="bevel" transform="matrix(1,0,0,1,0,0)"
font-family="Ubuntu" font-size="11" font-weight="400" font-style="normal" 
>
</g>
</g>
</svg>
