<?xml version="1.0" encoding="UTF-8" standalone="no"?>
<svg width="127.353mm" height="76.2mm"
 viewBox="0 0 361 216"
 xmlns="http://www.w3.org/2000/svg" xmlns:xlink="http://www.w3.org/1999/xlink"  version="1.2" baseProfile="tiny">
<title>qtfuzzylite</title>
<desc>A fuzzy logic controller graphic user interface written in Qt</desc>
<defs>
</defs>
<g fill="none" stroke="black" stroke-width="1" fill-rule="evenodd" stroke-linecap="square" stroke-linejoin="bevel" >

<g fill="none" stroke="#000000" stroke-opacity="1" stroke-width="1" stroke-linecap="square" stroke-linejoin="bevel" transform="matrix(1,0,0,1,0,0)"
font-family="Ubuntu" font-size="11" font-weight="400" font-style="normal" 
>
</g>

<g fill="none" stroke="#000000" stroke-opacity="1" stroke-width="1" stroke-linecap="square" stroke-linejoin="bevel" transform="matrix(1,0,0,1,0,0)"
font-family="Ubuntu" font-size="11" font-weight="400" font-style="normal" 
>
</g>

<g fill="#ffff00" fill-opacity="1" stroke="#000000" stroke-opacity="1" stroke-width="2" stroke-linecap="square" stroke-linejoin="bevel" transform="matrix(1,0,0,1,0,0)"
font-family="Ubuntu" font-size="11" font-weight="400" font-style="normal" 
>
<path vector-effect="none" fill-rule="evenodd" d="M0,215 L0,214 L1,212 L1,210 L2,208 L3,207 L3,205 L4,203 L5,202 L6,200 L6,198 L7,196 L8,195 L9,193 L9,191 L10,190 L11,188 L11,186 L12,184 L13,183 L14,181 L14,179 L15,178 L16,176 L16,174 L17,172 L18,171 L19,169 L19,167 L20,165 L21,164 L21,162 L22,160 L23,159 L24,157 L24,155 L25,153 L26,152 L27,150 L27,148 L28,147 L29,145 L29,143 L30,141 L31,140 L32,138 L32,136 L33,135 L34,133 L34,131 L35,129 L36,128 L37,126 L37,124 L38,122 L39,121 L39,119 L40,117 L41,116 L42,114 L42,112 L43,110 L44,109 L45,107 L45,105 L46,104 L47,102 L47,100 L48,98 L49,97 L50,95 L50,93 L51,92 L52,90 L52,88 L53,86 L54,85 L55,83 L55,81 L56,79 L57,78 L57,76 L58,74 L59,73 L60,71 L60,69 L61,67 L62,66 L63,64 L63,62 L64,61 L65,59 L65,57 L66,55 L67,54 L68,52 L68,50 L69,49 L70,47 L70,45 L71,43 L72,42 L73,40 L73,38 L74,36 L75,35 L75,33 L76,31 L77,30 L78,28 L78,26 L79,24 L80,23 L81,21 L81,19 L82,18 L83,16 L83,14 L84,12 L85,11 L86,9 L86,7 L87,6 L88,4 L88,2 L89,0 L90,0 L91,2 L91,4 L92,6 L93,7 L93,9 L94,11 L95,12 L96,14 L96,16 L97,18 L98,19 L99,21 L99,23 L100,24 L101,26 L101,28 L102,30 L103,31 L104,33 L104,35 L105,36 L106,38 L106,40 L107,42 L108,43 L109,45 L109,47 L110,49 L111,50 L111,52 L112,54 L113,55 L114,57 L114,59 L115,61 L116,62 L117,64 L117,66 L118,67 L119,69 L119,71 L120,73 L121,74 L122,76 L122,78 L123,79 L124,81 L124,83 L125,85 L126,86 L127,88 L127,90 L128,92 L129,93 L129,95 L130,97 L131,98 L132,100 L132,102 L133,104 L134,105 L135,107 L135,109 L136,110 L137,112 L137,114 L138,116 L139,117 L140,119 L140,121 L141,122 L142,124 L142,126 L143,128 L144,129 L145,131 L145,133 L146,135 L147,136 L147,138 L148,140 L149,141 L150,143 L150,145 L151,147 L152,148 L153,150 L153,152 L154,153 L155,155 L155,157 L156,159 L157,160 L158,162 L158,164 L159,165 L160,167 L160,169 L161,171 L162,172 L163,174 L163,176 L164,178 L165,179 L165,181 L166,183 L167,184 L168,186 L168,188 L169,190 L170,191 L171,193 L171,195 L172,196 L173,198 L173,200 L174,202 L175,203 L176,205 L176,207 L177,208 L178,210 L178,212 L179,214 L180,215 L181,215 L182,215 L183,215 L184,215 L185,215 L186,215 L187,215 L188,215 L189,215 L190,215 L191,215 L192,215 L193,215 L194,215 L195,215 L196,215 L197,215 L198,215 L199,215 L200,215 L201,215 L202,215 L203,215 L204,215 L205,215 L206,215 L207,215 L208,215 L209,215 L210,215 L211,215 L212,215 L213,215 L214,215 L215,215 L216,215 L217,215 L218,215 L219,215 L220,215 L221,215 L222,215 L223,215 L224,215 L225,215 L226,215 L227,215 L228,215 L229,215 L230,215 L231,215 L232,215 L233,215 L234,215 L235,215 L236,215 L237,215 L238,215 L239,215 L240,215 L241,215 L242,215 L243,215 L244,215 L245,215 L246,215 L247,215 L248,215 L249,215 L250,215 L251,215 L252,215 L253,215 L254,215 L255,215 L256,215 L257,215 L258,215 L259,215 L260,215 L261,215 L262,215 L263,215 L264,215 L265,215 L266,215 L267,215 L268,215 L269,215 L270,215 L271,215 L272,215 L273,215 L274,215 L275,215 L276,215 L277,215 L278,215 L279,215 L280,215 L281,215 L282,215 L283,215 L284,215 L285,215 L286,215 L287,215 L288,215 L289,215 L290,215 L291,215 L292,215 L293,215 L294,215 L295,215 L296,215 L297,215 L298,215 L299,215 L300,215 L301,215 L302,215 L303,215 L304,215 L305,215 L306,215 L307,215 L308,215 L309,215 L310,215 L311,215 L312,215 L313,215 L314,215 L315,215 L316,215 L317,215 L318,215 L319,215 L320,215 L321,215 L322,215 L323,215 L324,215 L325,215 L326,215 L327,215 L328,215 L329,215 L330,215 L331,215 L332,215 L333,215 L334,215 L335,215 L336,215 L337,215 L338,215 L339,215 L340,215 L341,215 L342,215 L343,215 L344,215 L345,215 L346,215 L347,215 L348,215 L349,215 L350,215 L351,215 L352,215 L353,215 L354,215 L355,215 L356,215 L357,215 L358,215 L359,215 L0,215"/>
</g>

<g fill="none" stroke="#000000" stroke-opacity="1" stroke-width="1" stroke-linecap="square" stroke-linejoin="bevel" transform="matrix(1,0,0,1,0,0)"
font-family="Ubuntu" font-size="11" font-weight="400" font-style="normal" 
>
</g>

<g fill="none" stroke="#000000" stroke-opacity="1" stroke-width="1" stroke-linecap="square" stroke-linejoin="bevel" transform="matrix(1,0,0,1,0,0)"
font-family="Ubuntu" font-size="11" font-weight="400" font-style="normal" 
>
</g>

<g fill="#ff8000" fill-opacity="1" stroke="#000000" stroke-opacity="1" stroke-width="2" stroke-linecap="square" stroke-linejoin="bevel" transform="matrix(1,0,0,1,0,0)"
font-family="Ubuntu" font-size="11" font-weight="400" font-style="normal" 
>
<path vector-effect="none" fill-rule="evenodd" d="M0,215 L1,215 L2,215 L3,215 L4,215 L5,215 L6,215 L7,215 L8,215 L9,215 L10,215 L11,215 L12,215 L13,215 L14,215 L15,215 L16,215 L17,215 L18,215 L19,215 L20,215 L21,215 L22,215 L23,215 L24,215 L25,215 L26,215 L27,215 L28,215 L29,215 L30,215 L31,215 L32,215 L33,215 L34,215 L35,215 L36,215 L37,215 L38,215 L39,215 L40,215 L41,215 L42,215 L43,215 L44,215 L45,215 L46,215 L47,215 L48,215 L49,215 L50,215 L51,215 L52,215 L53,215 L54,215 L55,215 L56,215 L57,215 L58,215 L59,215 L60,215 L61,215 L62,215 L63,215 L64,215 L65,215 L66,215 L67,215 L68,215 L69,215 L70,215 L71,215 L72,215 L73,215 L74,215 L75,215 L76,215 L77,215 L78,215 L79,215 L80,215 L81,215 L82,215 L83,215 L84,215 L85,215 L86,215 L87,215 L88,215 L89,215 L90,214 L91,212 L91,210 L92,208 L93,207 L93,205 L94,203 L95,202 L96,200 L96,198 L97,196 L98,195 L99,193 L99,191 L100,190 L101,188 L101,186 L102,184 L103,183 L104,181 L104,179 L105,178 L106,176 L106,174 L107,172 L108,171 L109,169 L109,167 L110,165 L111,164 L111,162 L112,160 L113,159 L114,157 L114,155 L115,153 L116,152 L117,150 L117,148 L118,147 L119,145 L119,143 L120,141 L121,140 L122,138 L122,136 L123,135 L124,133 L124,131 L125,129 L126,128 L127,126 L127,124 L128,122 L129,121 L129,119 L130,117 L131,116 L132,114 L132,112 L133,110 L134,109 L135,107 L135,105 L136,104 L137,102 L137,100 L138,98 L139,97 L140,95 L140,93 L141,92 L142,90 L142,88 L143,86 L144,85 L145,83 L145,81 L146,79 L147,78 L147,76 L148,74 L149,73 L150,71 L150,69 L151,67 L152,66 L153,64 L153,62 L154,61 L155,59 L155,57 L156,55 L157,54 L158,52 L158,50 L159,49 L160,47 L160,45 L161,43 L162,42 L163,40 L163,38 L164,36 L165,35 L165,33 L166,31 L167,30 L168,28 L168,26 L169,24 L170,23 L171,21 L171,19 L172,18 L173,16 L173,14 L174,12 L175,11 L176,9 L176,7 L177,6 L178,4 L178,2 L179,0 L180,0 L181,2 L181,4 L182,6 L183,7 L183,9 L184,11 L185,12 L186,14 L186,16 L187,18 L188,19 L189,21 L189,23 L190,24 L191,26 L191,28 L192,30 L193,31 L194,33 L194,35 L195,36 L196,38 L196,40 L197,42 L198,43 L199,45 L199,47 L200,49 L201,50 L201,52 L202,54 L203,55 L204,57 L204,59 L205,61 L206,62 L207,64 L207,66 L208,67 L209,69 L209,71 L210,73 L211,74 L212,76 L212,78 L213,79 L214,81 L214,83 L215,85 L216,86 L217,88 L217,90 L218,92 L219,93 L219,95 L220,97 L221,98 L222,100 L222,102 L223,104 L224,105 L225,107 L225,109 L226,110 L227,112 L227,114 L228,116 L229,117 L230,119 L230,121 L231,122 L232,124 L232,126 L233,128 L234,129 L235,131 L235,133 L236,135 L237,136 L237,138 L238,140 L239,141 L240,143 L240,145 L241,147 L242,148 L243,150 L243,152 L244,153 L245,155 L245,157 L246,159 L247,160 L248,162 L248,164 L249,165 L250,167 L250,169 L251,171 L252,172 L253,174 L253,176 L254,178 L255,179 L255,181 L256,183 L257,184 L258,186 L258,188 L259,190 L260,191 L261,193 L261,195 L262,196 L263,198 L263,200 L264,202 L265,203 L266,205 L266,207 L267,208 L268,210 L268,212 L269,214 L270,215 L271,215 L272,215 L273,215 L274,215 L275,215 L276,215 L277,215 L278,215 L279,215 L280,215 L281,215 L282,215 L283,215 L284,215 L285,215 L286,215 L287,215 L288,215 L289,215 L290,215 L291,215 L292,215 L293,215 L294,215 L295,215 L296,215 L297,215 L298,215 L299,215 L300,215 L301,215 L302,215 L303,215 L304,215 L305,215 L306,215 L307,215 L308,215 L309,215 L310,215 L311,215 L312,215 L313,215 L314,215 L315,215 L316,215 L317,215 L318,215 L319,215 L320,215 L321,215 L322,215 L323,215 L324,215 L325,215 L326,215 L327,215 L328,215 L329,215 L330,215 L331,215 L332,215 L333,215 L334,215 L335,215 L336,215 L337,215 L338,215 L339,215 L340,215 L341,215 L342,215 L343,215 L344,215 L345,215 L346,215 L347,215 L348,215 L349,215 L350,215 L351,215 L352,215 L353,215 L354,215 L355,215 L356,215 L357,215 L358,215 L359,215 L0,215"/>
</g>

<g fill="none" stroke="#000000" stroke-opacity="1" stroke-width="1" stroke-linecap="square" stroke-linejoin="bevel" transform="matrix(1,0,0,1,0,0)"
font-family="Ubuntu" font-size="11" font-weight="400" font-style="normal" 
>
</g>

<g fill="none" stroke="#000000" stroke-opacity="1" stroke-width="1" stroke-linecap="square" stroke-linejoin="bevel" transform="matrix(1,0,0,1,0,0)"
font-family="Ubuntu" font-size="11" font-weight="400" font-style="normal" 
>
</g>

<g fill="#ff0000" fill-opacity="1" stroke="#000000" stroke-opacity="1" stroke-width="2" stroke-linecap="square" stroke-linejoin="bevel" transform="matrix(1,0,0,1,0,0)"
font-family="Ubuntu" font-size="11" font-weight="400" font-style="normal" 
>
<path vector-effect="none" fill-rule="evenodd" d="M0,215 L1,215 L2,215 L3,215 L4,215 L5,215 L6,215 L7,215 L8,215 L9,215 L10,215 L11,215 L12,215 L13,215 L14,215 L15,215 L16,215 L17,215 L18,215 L19,215 L20,215 L21,215 L22,215 L23,215 L24,215 L25,215 L26,215 L27,215 L28,215 L29,215 L30,215 L31,215 L32,215 L33,215 L34,215 L35,215 L36,215 L37,215 L38,215 L39,215 L40,215 L41,215 L42,215 L43,215 L44,215 L45,215 L46,215 L47,215 L48,215 L49,215 L50,215 L51,215 L52,215 L53,215 L54,215 L55,215 L56,215 L57,215 L58,215 L59,215 L60,215 L61,215 L62,215 L63,215 L64,215 L65,215 L66,215 L67,215 L68,215 L69,215 L70,215 L71,215 L72,215 L73,215 L74,215 L75,215 L76,215 L77,215 L78,215 L79,215 L80,215 L81,215 L82,215 L83,215 L84,215 L85,215 L86,215 L87,215 L88,215 L89,215 L90,215 L91,215 L92,215 L93,215 L94,215 L95,215 L96,215 L97,215 L98,215 L99,215 L100,215 L101,215 L102,215 L103,215 L104,215 L105,215 L106,215 L107,215 L108,215 L109,215 L110,215 L111,215 L112,215 L113,215 L114,215 L115,215 L116,215 L117,215 L118,215 L119,215 L120,215 L121,215 L122,215 L123,215 L124,215 L125,215 L126,215 L127,215 L128,215 L129,215 L130,215 L131,215 L132,215 L133,215 L134,215 L135,215 L136,215 L137,215 L138,215 L139,215 L140,215 L141,215 L142,215 L143,215 L144,215 L145,215 L146,215 L147,215 L148,215 L149,215 L150,215 L151,215 L152,215 L153,215 L154,215 L155,215 L156,215 L157,215 L158,215 L159,215 L160,215 L161,215 L162,215 L163,215 L164,215 L165,215 L166,215 L167,215 L168,215 L169,215 L170,215 L171,215 L172,215 L173,215 L174,215 L175,215 L176,215 L177,215 L178,215 L179,215 L180,214 L181,212 L181,210 L182,208 L183,207 L183,205 L184,203 L185,202 L186,200 L186,198 L187,196 L188,195 L189,193 L189,191 L190,190 L191,188 L191,186 L192,184 L193,183 L194,181 L194,179 L195,178 L196,176 L196,174 L197,172 L198,171 L199,169 L199,167 L200,165 L201,164 L201,162 L202,160 L203,159 L204,157 L204,155 L205,153 L206,152 L207,150 L207,148 L208,147 L209,145 L209,143 L210,141 L211,140 L212,138 L212,136 L213,135 L214,133 L214,131 L215,129 L216,128 L217,126 L217,124 L218,122 L219,121 L219,119 L220,117 L221,116 L222,114 L222,112 L223,110 L224,109 L225,107 L225,105 L226,104 L227,102 L227,100 L228,98 L229,97 L230,95 L230,93 L231,92 L232,90 L232,88 L233,86 L234,85 L235,83 L235,81 L236,79 L237,78 L237,76 L238,74 L239,73 L240,71 L240,69 L241,67 L242,66 L243,64 L243,62 L244,61 L245,59 L245,57 L246,55 L247,54 L248,52 L248,50 L249,49 L250,47 L250,45 L251,43 L252,42 L253,40 L253,38 L254,36 L255,35 L255,33 L256,31 L257,30 L258,28 L258,26 L259,24 L260,23 L261,21 L261,19 L262,18 L263,16 L263,14 L264,12 L265,11 L266,9 L266,7 L267,6 L268,4 L268,2 L269,0 L270,0 L271,2 L271,4 L272,6 L273,7 L273,9 L274,11 L275,12 L276,14 L276,16 L277,18 L278,19 L279,21 L279,23 L280,24 L281,26 L281,28 L282,30 L283,31 L284,33 L284,35 L285,36 L286,38 L286,40 L287,42 L288,43 L289,45 L289,47 L290,49 L291,50 L291,52 L292,54 L293,55 L294,57 L294,59 L295,61 L296,62 L297,64 L297,66 L298,67 L299,69 L299,71 L300,73 L301,74 L302,76 L302,78 L303,79 L304,81 L304,83 L305,85 L306,86 L307,88 L307,90 L308,92 L309,93 L309,95 L310,97 L311,98 L312,100 L312,102 L313,104 L314,105 L315,107 L315,109 L316,110 L317,112 L317,114 L318,116 L319,117 L320,119 L320,121 L321,122 L322,124 L322,126 L323,128 L324,129 L325,131 L325,133 L326,135 L327,136 L327,138 L328,140 L329,141 L330,143 L330,145 L331,147 L332,148 L333,150 L333,152 L334,153 L335,155 L335,157 L336,159 L337,160 L338,162 L338,164 L339,165 L340,167 L340,169 L341,171 L342,172 L343,174 L343,176 L344,178 L345,179 L345,181 L346,183 L347,184 L348,186 L348,188 L349,190 L350,191 L351,193 L351,195 L352,196 L353,198 L353,200 L354,202 L355,203 L356,205 L356,207 L357,208 L358,210 L358,212 L359,214 L359,215 L0,215"/>
</g>

<g fill="none" stroke="#000000" stroke-opacity="1" stroke-width="1" stroke-linecap="square" stroke-linejoin="bevel" transform="matrix(1,0,0,1,0,0)"
font-family="Ubuntu" font-size="11" font-weight="400" font-style="normal" 
>
</g>

<g fill="none" stroke="#000000" stroke-opacity="1" stroke-width="1" stroke-linecap="square" stroke-linejoin="bevel" transform="matrix(1,0,0,1,0,0)"
font-family="Ubuntu" font-size="11" font-weight="400" font-style="normal" 
>
</g>

<g fill="#00d200" fill-opacity="1" stroke="#000000" stroke-opacity="1" stroke-width="2" stroke-linecap="square" stroke-linejoin="bevel" transform="matrix(1,0,0,1,0,0)"
font-family="Ubuntu" font-size="11" font-weight="400" font-style="normal" 
>
<path vector-effect="none" fill-rule="evenodd" d="M0,215 L1,215 L2,215 L3,215 L4,215 L5,215 L6,215 L7,215 L8,215 L9,215 L10,215 L11,215 L12,215 L13,215 L14,215 L15,215 L16,215 L17,215 L18,215 L19,215 L20,215 L21,215 L22,215 L23,215 L24,215 L25,215 L26,215 L27,215 L28,215 L29,215 L30,215 L31,215 L32,215 L33,215 L34,215 L35,215 L36,215 L37,215 L38,215 L39,215 L40,215 L41,215 L42,215 L43,215 L44,215 L45,215 L46,215 L47,215 L48,215 L49,215 L50,215 L51,215 L52,215 L53,215 L54,215 L55,215 L56,215 L57,215 L58,215 L59,215 L60,215 L61,215 L62,215 L63,215 L64,215 L65,215 L66,215 L67,215 L68,215 L69,215 L70,215 L71,215 L72,215 L73,215 L74,215 L75,215 L76,215 L77,215 L78,215 L79,215 L80,215 L81,215 L82,215 L83,215 L84,215 L85,215 L86,215 L87,215 L88,215 L89,215 L90,214 L91,212 L91,210 L92,208 L93,207 L93,205 L94,203 L95,202 L96,200 L96,198 L97,196 L98,195 L99,193 L99,191 L100,190 L101,188 L101,186 L102,184 L103,183 L104,181 L104,179 L105,178 L106,176 L106,174 L107,172 L108,171 L109,169 L109,167 L110,165 L111,164 L111,162 L112,160 L113,159 L114,157 L114,155 L115,153 L116,152 L117,150 L117,148 L118,147 L119,145 L119,143 L120,141 L121,140 L122,138 L122,137 L123,137 L124,137 L125,137 L126,137 L127,137 L128,137 L129,137 L130,137 L131,137 L132,137 L133,137 L134,137 L135,137 L136,137 L137,137 L138,137 L139,137 L140,137 L141,137 L142,137 L143,137 L144,137 L145,137 L146,137 L147,137 L148,137 L149,137 L150,137 L151,137 L152,137 L153,137 L154,137 L155,137 L156,137 L157,137 L158,137 L159,137 L160,137 L161,137 L162,137 L163,137 L164,137 L165,137 L166,137 L167,137 L168,137 L169,137 L170,137 L171,137 L172,137 L173,137 L174,137 L175,137 L176,137 L177,137 L178,137 L179,137 L180,137 L181,137 L182,137 L183,137 L184,137 L185,137 L186,137 L187,137 L188,137 L189,137 L190,137 L191,137 L192,137 L193,137 L194,137 L195,137 L196,137 L197,137 L198,137 L199,137 L200,137 L201,137 L202,137 L203,137 L204,137 L205,137 L206,137 L207,137 L208,137 L209,137 L210,137 L211,137 L212,137 L212,136 L213,135 L214,133 L214,131 L215,129 L216,128 L217,126 L217,124 L218,122 L219,121 L219,119 L220,117 L221,116 L222,114 L222,112 L223,110 L224,109 L225,107 L225,105 L226,104 L227,102 L227,100 L228,98 L229,97 L230,95 L230,93 L231,92 L232,90 L232,88 L233,86 L234,85 L235,83 L235,81 L236,79 L237,78 L237,77 L238,77 L239,77 L240,77 L241,77 L242,77 L243,77 L244,77 L245,77 L246,77 L247,77 L248,77 L249,77 L250,77 L251,77 L252,77 L253,77 L254,77 L255,77 L256,77 L257,77 L258,77 L259,77 L260,77 L261,77 L262,77 L263,77 L264,77 L265,77 L266,77 L267,77 L268,77 L269,77 L270,77 L271,77 L272,77 L273,77 L274,77 L275,77 L276,77 L277,77 L278,77 L279,77 L280,77 L281,77 L282,77 L283,77 L284,77 L285,77 L286,77 L287,77 L288,77 L289,77 L290,77 L291,77 L292,77 L293,77 L294,77 L295,77 L296,77 L297,77 L298,77 L299,77 L300,77 L301,77 L302,77 L302,78 L303,79 L304,81 L304,83 L305,85 L306,86 L307,88 L307,90 L308,92 L309,93 L309,95 L310,97 L311,98 L312,100 L312,102 L313,104 L314,105 L315,107 L315,109 L316,110 L317,112 L317,114 L318,116 L319,117 L320,119 L320,121 L321,122 L322,124 L322,126 L323,128 L324,129 L325,131 L325,133 L326,135 L327,136 L327,138 L328,140 L329,141 L330,143 L330,145 L331,147 L332,148 L333,150 L333,152 L334,153 L335,155 L335,157 L336,159 L337,160 L338,162 L338,164 L339,165 L340,167 L340,169 L341,171 L342,172 L343,174 L343,176 L344,178 L345,179 L345,181 L346,183 L347,184 L348,186 L348,188 L349,190 L350,191 L351,193 L351,195 L352,196 L353,198 L353,200 L354,202 L355,203 L356,205 L356,207 L357,208 L358,210 L358,212 L359,214 L359,215 L0,215"/>
</g>

<g fill="none" stroke="#000000" stroke-opacity="1" stroke-width="1" stroke-linecap="square" stroke-linejoin="bevel" transform="matrix(1,0,0,1,0,0)"
font-family="Ubuntu" font-size="11" font-weight="400" font-style="normal" 
>
</g>

<g fill="none" stroke="#000000" stroke-opacity="1" stroke-width="1" stroke-linecap="square" stroke-linejoin="bevel" transform="matrix(1,0,0,1,0,0)"
font-family="Ubuntu" font-size="11" font-weight="400" font-style="normal" 
>
</g>
</g>
</svg>
