<?xml version="1.0" encoding="UTF-8" standalone="no"?>
<!DOCTYPE svg PUBLIC "-//W3C//DTD SVG 1.1//EN"
 "http://www.w3.org/Graphics/SVG/1.1/DTD/svg11.dtd">
<!-- Generated by graphviz version 2.38.0 (20140413.2041)
 -->
<!-- Title: fl::EinsteinSum Pages: 1 -->
<svg width="91pt" height="335pt"
 viewBox="0.00 0.00 90.69 335.00" xmlns="http://www.w3.org/2000/svg" xmlns:xlink="http://www.w3.org/1999/xlink">
<g id="graph0" class="graph" transform="scale(1 1) rotate(0) translate(4 331)">
<title>fl::EinsteinSum</title>
<polygon fill="white" stroke="none" points="-4,4 -4,-331 86.6943,-331 86.6943,4 -4,4"/>
<!-- Node1 -->
<g id="node1" class="node"><title>Node1</title>
<polygon fill="#bfbfbf" stroke="black" points="0,-0.5 0,-84.5 82.6943,-84.5 82.6943,-0.5 0,-0.5"/>
<text text-anchor="middle" x="41.3472" y="-72.5" font-family="Helvetica,sans-Serif" font-size="10.00">fl::EinsteinSum</text>
<polyline fill="none" stroke="black" points="0,-66.5 82.6943,-66.5 "/>
<text text-anchor="middle" x="41.3472" y="-54.5" font-family="Helvetica,sans-Serif" font-size="10.00"> </text>
<polyline fill="none" stroke="black" points="0,-48.5 82.6943,-48.5 "/>
<text text-anchor="start" x="8" y="-36.5" font-family="Helvetica,sans-Serif" font-size="10.00">+ className()</text>
<text text-anchor="start" x="8" y="-26.5" font-family="Helvetica,sans-Serif" font-size="10.00">+ compute()</text>
<text text-anchor="start" x="8" y="-16.5" font-family="Helvetica,sans-Serif" font-size="10.00">+ clone()</text>
<text text-anchor="start" x="8" y="-6.5" font-family="Helvetica,sans-Serif" font-size="10.00">+ constructor()</text>
</g>
<!-- Node2 -->
<g id="node2" class="node"><title>Node2</title>
<g id="a_node2"><a xlink:href="../../d4/df8/classfl_1_1_s_norm.html" target="_top" xlink:title="The SNorm class is the base class for all S&#45;Norms, and it is utilized as the disjunction fuzzy logic ...">
<polygon fill="white" stroke="black" points="7.23145,-121.5 7.23145,-195.5 75.4629,-195.5 75.4629,-121.5 7.23145,-121.5"/>
<text text-anchor="middle" x="41.3472" y="-183.5" font-family="Helvetica,sans-Serif" font-size="10.00">fl::SNorm</text>
<polyline fill="none" stroke="black" points="7.23145,-177.5 75.4629,-177.5 "/>
<text text-anchor="middle" x="41.3472" y="-165.5" font-family="Helvetica,sans-Serif" font-size="10.00"> </text>
<polyline fill="none" stroke="black" points="7.23145,-159.5 75.4629,-159.5 "/>
<text text-anchor="start" x="15.2314" y="-147.5" font-family="Helvetica,sans-Serif" font-size="10.00">+ SNorm()</text>
<text text-anchor="start" x="15.2314" y="-137.5" font-family="Helvetica,sans-Serif" font-size="10.00">+ ~SNorm()</text>
<text text-anchor="start" x="15.2314" y="-127.5" font-family="Helvetica,sans-Serif" font-size="10.00">+ clone()</text>
</a>
</g>
</g>
<!-- Node2&#45;&gt;Node1 -->
<g id="edge1" class="edge"><title>Node2&#45;&gt;Node1</title>
<path fill="none" stroke="midnightblue" d="M41.3472,-111.365C41.3472,-102.609 41.3472,-93.4971 41.3472,-84.8984"/>
<polygon fill="none" stroke="midnightblue" points="37.8473,-111.43 41.3472,-121.43 44.8473,-111.43 37.8473,-111.43"/>
</g>
<!-- Node3 -->
<g id="node3" class="node"><title>Node3</title>
<g id="a_node3"><a xlink:href="../../d5/d22/classfl_1_1_norm.html" target="_top" xlink:title="The Norm class is the abstract class for norms. ">
<polygon fill="white" stroke="black" points="0.979004,-232.5 0.979004,-326.5 81.7153,-326.5 81.7153,-232.5 0.979004,-232.5"/>
<text text-anchor="middle" x="41.3472" y="-314.5" font-family="Helvetica,sans-Serif" font-size="10.00">fl::Norm</text>
<polyline fill="none" stroke="black" points="0.979004,-308.5 81.7153,-308.5 "/>
<text text-anchor="middle" x="41.3472" y="-296.5" font-family="Helvetica,sans-Serif" font-size="10.00"> </text>
<polyline fill="none" stroke="black" points="0.979004,-290.5 81.7153,-290.5 "/>
<text text-anchor="start" x="8.979" y="-278.5" font-family="Helvetica,sans-Serif" font-size="10.00">+ Norm()</text>
<text text-anchor="start" x="8.979" y="-268.5" font-family="Helvetica,sans-Serif" font-size="10.00">+ ~Norm()</text>
<text text-anchor="start" x="8.979" y="-258.5" font-family="Helvetica,sans-Serif" font-size="10.00">+ className()</text>
<text text-anchor="start" x="8.979" y="-248.5" font-family="Helvetica,sans-Serif" font-size="10.00">+ compute()</text>
<text text-anchor="start" x="8.979" y="-238.5" font-family="Helvetica,sans-Serif" font-size="10.00">+ clone()</text>
</a>
</g>
</g>
<!-- Node3&#45;&gt;Node2 -->
<g id="edge2" class="edge"><title>Node3&#45;&gt;Node2</title>
<path fill="none" stroke="midnightblue" d="M41.3472,-222.379C41.3472,-213.343 41.3472,-204.203 41.3472,-195.796"/>
<polygon fill="none" stroke="midnightblue" points="37.8473,-222.491 41.3472,-232.491 44.8473,-222.492 37.8473,-222.491"/>
</g>
</g>
</svg>
