<?xml version="1.0" encoding="UTF-8" standalone="no"?>
<!DOCTYPE svg PUBLIC "-//W3C//DTD SVG 1.1//EN"
 "http://www.w3.org/Graphics/SVG/1.1/DTD/svg11.dtd">
<!-- Generated by graphviz version 2.38.0 (20140413.2041)
 -->
<!-- Title: fuzzylite/fl/rule/Antecedent.h Pages: 1 -->
<svg width="176pt" height="137pt"
 viewBox="0.00 0.00 176.05 137.00" xmlns="http://www.w3.org/2000/svg" xmlns:xlink="http://www.w3.org/1999/xlink">
<g id="graph0" class="graph" transform="scale(1 1) rotate(0) translate(4 133)">
<title>fuzzylite/fl/rule/Antecedent.h</title>
<polygon fill="white" stroke="none" points="-4,4 -4,-133 172.054,-133 172.054,4 -4,4"/>
<!-- Node12 -->
<g id="node1" class="node"><title>Node12</title>
<polygon fill="#bfbfbf" stroke="black" points="0,-110.5 0,-128.5 141.068,-128.5 141.068,-110.5 0,-110.5"/>
<text text-anchor="middle" x="70.5342" y="-116.5" font-family="Helvetica,sans-Serif" font-size="10.00">fuzzylite/fl/rule/Antecedent.h</text>
</g>
<!-- Node13 -->
<g id="node2" class="node"><title>Node13</title>
<g id="a_node2"><a xlink:href="../../db/d5f/_headers_8h.html" target="_top" xlink:title="fuzzylite/fl/Headers.h">
<polygon fill="white" stroke="black" points="16.1255,-0.5 16.1255,-18.5 124.943,-18.5 124.943,-0.5 16.1255,-0.5"/>
<text text-anchor="middle" x="70.5342" y="-6.5" font-family="Helvetica,sans-Serif" font-size="10.00">fuzzylite/fl/Headers.h</text>
</a>
</g>
</g>
<!-- Node12&#45;&gt;Node13 -->
<g id="edge1" class="edge"><title>Node12&#45;&gt;Node13</title>
<path fill="none" stroke="midnightblue" d="M59.4596,-101.752C54.793,-93.7147 49.9006,-83.7325 47.5342,-74 42.5477,-53.4922 55.9443,-30.4301 64.338,-18.5444"/>
<polygon fill="midnightblue" stroke="midnightblue" points="56.6072,-103.794 64.8548,-110.444 62.5546,-100.102 56.6072,-103.794"/>
</g>
<!-- Node14 -->
<g id="node3" class="node"><title>Node14</title>
<g id="a_node3"><a xlink:href="../../db/d10/_rule_8h.html" target="_top" xlink:title="fuzzylite/fl/rule/Rule.h">
<polygon fill="white" stroke="black" points="57.0146,-55.5 57.0146,-73.5 168.054,-73.5 168.054,-55.5 57.0146,-55.5"/>
<text text-anchor="middle" x="112.534" y="-61.5" font-family="Helvetica,sans-Serif" font-size="10.00">fuzzylite/fl/rule/Rule.h</text>
</a>
</g>
</g>
<!-- Node12&#45;&gt;Node14 -->
<g id="edge2" class="edge"><title>Node12&#45;&gt;Node14</title>
<path fill="none" stroke="midnightblue" d="M83.4174,-102.243C90.9555,-92.7302 100.143,-81.1369 106.155,-73.5496"/>
<polygon fill="midnightblue" stroke="midnightblue" points="80.5644,-100.207 77.0967,-110.219 86.0507,-104.555 80.5644,-100.207"/>
</g>
<!-- Node14&#45;&gt;Node13 -->
<g id="edge3" class="edge"><title>Node14&#45;&gt;Node13</title>
<path fill="none" stroke="midnightblue" d="M99.6509,-47.2426C92.1129,-37.7302 82.9257,-26.1369 76.9131,-18.5496"/>
<polygon fill="midnightblue" stroke="midnightblue" points="97.0177,-49.5551 105.972,-55.2188 102.504,-45.2075 97.0177,-49.5551"/>
</g>
</g>
</svg>
