<?xml version="1.0" encoding="UTF-8" standalone="no"?>
<!DOCTYPE svg PUBLIC "-//W3C//DTD SVG 1.1//EN"
 "http://www.w3.org/Graphics/SVG/1.1/DTD/svg11.dtd">
<!-- Generated by graphviz version 2.38.0 (20140413.2041)
 -->
<!-- Title: fuzzylite/fl/factory/HedgeFactory.h Pages: 1 -->
<svg width="1104pt" height="477pt"
 viewBox="0.00 0.00 1104.00 477.00" xmlns="http://www.w3.org/2000/svg" xmlns:xlink="http://www.w3.org/1999/xlink">
<g id="graph0" class="graph" transform="scale(1 1) rotate(0) translate(4 473)">
<title>fuzzylite/fl/factory/HedgeFactory.h</title>
<polygon fill="white" stroke="none" points="-4,4 -4,-473 1100,-473 1100,4 -4,4"/>
<!-- Node0 -->
<g id="node1" class="node"><title>Node0</title>
<polygon fill="#bfbfbf" stroke="black" points="892.655,-440.5 892.655,-468.5 985.345,-468.5 985.345,-440.5 892.655,-440.5"/>
<text text-anchor="start" x="900.655" y="-456.5" font-family="Helvetica,sans-Serif" font-size="10.00">fuzzylite/fl/factory</text>
<text text-anchor="middle" x="939" y="-446.5" font-family="Helvetica,sans-Serif" font-size="10.00">/HedgeFactory.h</text>
</g>
<!-- Node1 -->
<g id="node2" class="node"><title>Node1</title>
<g id="a_node2"><a xlink:href="../../d7/dd8/_construction_factory_8h.html" target="_top" xlink:title="fl/factory/ConstructionFactory.h">
<polygon fill="white" stroke="black" points="705.177,-385.5 705.177,-403.5 858.823,-403.5 858.823,-385.5 705.177,-385.5"/>
<text text-anchor="middle" x="782" y="-391.5" font-family="Helvetica,sans-Serif" font-size="10.00">fl/factory/ConstructionFactory.h</text>
</a>
</g>
</g>
<!-- Node0&#45;&gt;Node1 -->
<g id="edge1" class="edge"><title>Node0&#45;&gt;Node1</title>
<path fill="none" stroke="midnightblue" d="M903.766,-440.484C876.67,-430.474 839.572,-416.769 813.467,-407.125"/>
<polygon fill="midnightblue" stroke="midnightblue" points="814.637,-403.826 804.043,-403.643 812.211,-410.392 814.637,-403.826"/>
</g>
<!-- Node17 -->
<g id="node18" class="node"><title>Node17</title>
<g id="a_node18"><a xlink:href="../../d2/dd9/_hedge_8h.html" target="_top" xlink:title="fl/hedge/Hedge.h">
<polygon fill="white" stroke="black" points="913.914,-165.5 913.914,-183.5 1006.09,-183.5 1006.09,-165.5 913.914,-165.5"/>
<text text-anchor="middle" x="960" y="-171.5" font-family="Helvetica,sans-Serif" font-size="10.00">fl/hedge/Hedge.h</text>
</a>
</g>
</g>
<!-- Node0&#45;&gt;Node17 -->
<g id="edge54" class="edge"><title>Node0&#45;&gt;Node17</title>
<path fill="none" stroke="midnightblue" d="M985.68,-441.408C1031.96,-426.273 1096,-395.408 1096,-340.5 1096,-340.5 1096,-340.5 1096,-283.5 1096,-232.806 1037.33,-202.115 997.064,-187.019"/>
<polygon fill="midnightblue" stroke="midnightblue" points="998.116,-183.678 987.522,-183.6 995.755,-190.268 998.116,-183.678"/>
</g>
<!-- Node2 -->
<g id="node3" class="node"><title>Node2</title>
<g id="a_node3"><a xlink:href="../../de/d53/fuzzylite_8h.html" target="_top" xlink:title="fl/fuzzylite.h">
<polygon fill="white" stroke="black" points="658.879,-55.5 658.879,-73.5 727.121,-73.5 727.121,-55.5 658.879,-55.5"/>
<text text-anchor="middle" x="693" y="-61.5" font-family="Helvetica,sans-Serif" font-size="10.00">fl/fuzzylite.h</text>
</a>
</g>
</g>
<!-- Node1&#45;&gt;Node2 -->
<g id="edge2" class="edge"><title>Node1&#45;&gt;Node2</title>
<path fill="none" stroke="midnightblue" d="M827.267,-385.473C905.567,-370.29 1058,-334.446 1058,-285.5 1058,-285.5 1058,-285.5 1058,-173.5 1058,-107.348 834.765,-78.6114 737.457,-69.2274"/>
<polygon fill="midnightblue" stroke="midnightblue" points="737.622,-65.7276 727.338,-68.2778 736.968,-72.6969 737.622,-65.7276"/>
</g>
<!-- Node10 -->
<g id="node11" class="node"><title>Node10</title>
<polygon fill="white" stroke="#bfbfbf" points="764.273,-330.5 764.273,-348.5 799.727,-348.5 799.727,-330.5 764.273,-330.5"/>
<text text-anchor="middle" x="782" y="-336.5" font-family="Helvetica,sans-Serif" font-size="10.00">map</text>
</g>
<!-- Node1&#45;&gt;Node10 -->
<g id="edge10" class="edge"><title>Node1&#45;&gt;Node10</title>
<path fill="none" stroke="midnightblue" d="M782,-385.219C782,-378.177 782,-367.808 782,-358.828"/>
<polygon fill="midnightblue" stroke="midnightblue" points="785.5,-358.55 782,-348.55 778.5,-358.55 785.5,-358.55"/>
</g>
<!-- Node11 -->
<g id="node12" class="node"><title>Node11</title>
<polygon fill="white" stroke="#bfbfbf" points="543.773,-110.5 543.773,-128.5 584.227,-128.5 584.227,-110.5 543.773,-110.5"/>
<text text-anchor="middle" x="564" y="-116.5" font-family="Helvetica,sans-Serif" font-size="10.00">string</text>
</g>
<!-- Node1&#45;&gt;Node11 -->
<g id="edge11" class="edge"><title>Node1&#45;&gt;Node11</title>
<path fill="none" stroke="midnightblue" d="M771.11,-385.216C737.802,-359.303 636.324,-276.015 583,-184 574.878,-169.985 569.944,-152.183 567.147,-138.997"/>
<polygon fill="midnightblue" stroke="midnightblue" points="570.516,-137.98 565.213,-128.808 563.639,-139.285 570.516,-137.98"/>
</g>
<!-- Node12 -->
<g id="node13" class="node"><title>Node12</title>
<polygon fill="white" stroke="#bfbfbf" points="130.384,-55.5 130.384,-73.5 173.616,-73.5 173.616,-55.5 130.384,-55.5"/>
<text text-anchor="middle" x="152" y="-61.5" font-family="Helvetica,sans-Serif" font-size="10.00">vector</text>
</g>
<!-- Node1&#45;&gt;Node12 -->
<g id="edge12" class="edge"><title>Node1&#45;&gt;Node12</title>
<path fill="none" stroke="midnightblue" d="M704.833,-390.297C514.509,-381.372 38,-352.351 38,-285.5 38,-285.5 38,-285.5 38,-173.5 38,-126.974 88.6593,-94.4854 122.437,-77.994"/>
<polygon fill="midnightblue" stroke="midnightblue" points="124.304,-80.9848 131.882,-73.5797 121.34,-74.6433 124.304,-80.9848"/>
</g>
<!-- Node13 -->
<g id="node14" class="node"><title>Node13</title>
<g id="a_node14"><a xlink:href="../../df/d98/_exception_8h.html" target="_top" xlink:title="fl/Exception.h">
<polygon fill="white" stroke="black" points="141.983,-165.5 141.983,-183.5 218.017,-183.5 218.017,-165.5 141.983,-165.5"/>
<text text-anchor="middle" x="180" y="-171.5" font-family="Helvetica,sans-Serif" font-size="10.00">fl/Exception.h</text>
</a>
</g>
</g>
<!-- Node1&#45;&gt;Node13 -->
<g id="edge13" class="edge"><title>Node1&#45;&gt;Node13</title>
<path fill="none" stroke="midnightblue" d="M705.102,-389.294C633.095,-384.064 522.955,-372.74 430,-349 365.227,-332.458 345.233,-331.662 290,-294 247.637,-265.114 209.724,-217.118 191.48,-191.991"/>
<polygon fill="midnightblue" stroke="midnightblue" points="194.133,-189.683 185.482,-183.567 188.431,-193.743 194.133,-189.683"/>
</g>
<!-- Node15 -->
<g id="node16" class="node"><title>Node15</title>
<g id="a_node16"><a xlink:href="../../d7/d8a/_defuzzifier_8h.html" target="_top" xlink:title="fl/defuzzifier/Defuzzifier.h">
<polygon fill="white" stroke="black" points="592.419,-165.5 592.419,-183.5 719.581,-183.5 719.581,-165.5 592.419,-165.5"/>
<text text-anchor="middle" x="656" y="-171.5" font-family="Helvetica,sans-Serif" font-size="10.00">fl/defuzzifier/Defuzzifier.h</text>
</a>
</g>
</g>
<!-- Node1&#45;&gt;Node15 -->
<g id="edge18" class="edge"><title>Node1&#45;&gt;Node15</title>
<path fill="none" stroke="midnightblue" d="M776.958,-385.338C771.484,-376.443 762.517,-361.772 755,-349 721.509,-292.095 683.075,-223.865 665.575,-192.632"/>
<polygon fill="midnightblue" stroke="midnightblue" points="668.599,-190.869 660.661,-183.852 662.491,-194.288 668.599,-190.869"/>
</g>
<!-- Node1&#45;&gt;Node17 -->
<g id="edge24" class="edge"><title>Node1&#45;&gt;Node17</title>
<path fill="none" stroke="midnightblue" d="M805.679,-385.434C853.364,-367.729 959.907,-320.416 1001,-239 1009.85,-221.471 994.345,-202.739 979.935,-190.199"/>
<polygon fill="midnightblue" stroke="midnightblue" points="981.743,-187.16 971.769,-183.587 977.338,-192.6 981.743,-187.16"/>
</g>
<!-- Node18 -->
<g id="node19" class="node"><title>Node18</title>
<g id="a_node19"><a xlink:href="../../de/d44/_s_norm_8h.html" target="_top" xlink:title="fl/norm/SNorm.h">
<polygon fill="white" stroke="black" points="903.604,-220.5 903.604,-238.5 992.396,-238.5 992.396,-220.5 903.604,-220.5"/>
<text text-anchor="middle" x="948" y="-226.5" font-family="Helvetica,sans-Serif" font-size="10.00">fl/norm/SNorm.h</text>
</a>
</g>
</g>
<!-- Node1&#45;&gt;Node18 -->
<g id="edge28" class="edge"><title>Node1&#45;&gt;Node18</title>
<path fill="none" stroke="midnightblue" d="M790.46,-385.193C816.884,-359.247 898.152,-279.448 932.46,-245.759"/>
<polygon fill="midnightblue" stroke="midnightblue" points="935.071,-248.101 939.754,-238.597 930.166,-243.106 935.071,-248.101"/>
</g>
<!-- Node20 -->
<g id="node21" class="node"><title>Node20</title>
<g id="a_node21"><a xlink:href="../../d0/d24/_t_norm_8h.html" target="_top" xlink:title="fl/norm/TNorm.h">
<polygon fill="white" stroke="black" points="796.884,-220.5 796.884,-238.5 885.116,-238.5 885.116,-220.5 796.884,-220.5"/>
<text text-anchor="middle" x="841" y="-226.5" font-family="Helvetica,sans-Serif" font-size="10.00">fl/norm/TNorm.h</text>
</a>
</g>
</g>
<!-- Node1&#45;&gt;Node20 -->
<g id="edge33" class="edge"><title>Node1&#45;&gt;Node20</title>
<path fill="none" stroke="midnightblue" d="M787.917,-385.35C793.956,-376.703 803.238,-362.457 809,-349 823.633,-314.825 833.183,-272.198 837.782,-248.509"/>
<polygon fill="midnightblue" stroke="midnightblue" points="841.252,-248.993 839.643,-238.521 834.37,-247.711 841.252,-248.993"/>
</g>
<!-- Node21 -->
<g id="node22" class="node"><title>Node21</title>
<g id="a_node22"><a xlink:href="../../d8/d11/_term_8h.html" target="_top" xlink:title="fl/term/Term.h">
<polygon fill="white" stroke="black" points="439.441,-330.5 439.441,-348.5 516.559,-348.5 516.559,-330.5 439.441,-330.5"/>
<text text-anchor="middle" x="478" y="-336.5" font-family="Helvetica,sans-Serif" font-size="10.00">fl/term/Term.h</text>
</a>
</g>
</g>
<!-- Node1&#45;&gt;Node21 -->
<g id="edge35" class="edge"><title>Node1&#45;&gt;Node21</title>
<path fill="none" stroke="midnightblue" d="M735.829,-385.45C679.42,-375.616 584.407,-359.051 526.82,-349.011"/>
<polygon fill="midnightblue" stroke="midnightblue" points="527.321,-345.546 516.869,-347.276 526.119,-352.442 527.321,-345.546"/>
</g>
<!-- Node3 -->
<g id="node4" class="node"><title>Node3</title>
<polygon fill="white" stroke="#bfbfbf" points="359.436,-0.5 359.436,-18.5 416.564,-18.5 416.564,-0.5 359.436,-0.5"/>
<text text-anchor="middle" x="388" y="-6.5" font-family="Helvetica,sans-Serif" font-size="10.00">algorithm</text>
</g>
<!-- Node2&#45;&gt;Node3 -->
<g id="edge3" class="edge"><title>Node2&#45;&gt;Node3</title>
<path fill="none" stroke="midnightblue" d="M658.606,-57.5233C601.435,-47.5887 487.205,-27.7389 427.077,-17.2904"/>
<polygon fill="midnightblue" stroke="midnightblue" points="427.307,-13.7781 416.856,-15.5143 426.109,-20.6747 427.307,-13.7781"/>
</g>
<!-- Node4 -->
<g id="node5" class="node"><title>Node4</title>
<polygon fill="white" stroke="#bfbfbf" points="85.3843,-0.5 85.3843,-18.5 128.616,-18.5 128.616,-0.5 85.3843,-0.5"/>
<text text-anchor="middle" x="107" y="-6.5" font-family="Helvetica,sans-Serif" font-size="10.00">cmath</text>
</g>
<!-- Node2&#45;&gt;Node4 -->
<g id="edge4" class="edge"><title>Node2&#45;&gt;Node4</title>
<path fill="none" stroke="midnightblue" d="M658.531,-60.3825C553.786,-50.9089 240.225,-22.5493 138.934,-13.3882"/>
<polygon fill="midnightblue" stroke="midnightblue" points="139.002,-9.88018 128.727,-12.4651 138.371,-16.8517 139.002,-9.88018"/>
</g>
<!-- Node5 -->
<g id="node6" class="node"><title>Node5</title>
<polygon fill="white" stroke="#bfbfbf" points="802.828,-0.5 802.828,-18.5 857.172,-18.5 857.172,-0.5 802.828,-0.5"/>
<text text-anchor="middle" x="830" y="-6.5" font-family="Helvetica,sans-Serif" font-size="10.00">iostream</text>
</g>
<!-- Node2&#45;&gt;Node5 -->
<g id="edge5" class="edge"><title>Node2&#45;&gt;Node5</title>
<path fill="none" stroke="midnightblue" d="M713.807,-55.4504C736.64,-46.6173 773.508,-32.3546 799.583,-22.267"/>
<polygon fill="midnightblue" stroke="midnightblue" points="800.933,-25.4977 808.997,-18.6253 798.408,-18.9692 800.933,-25.4977"/>
</g>
<!-- Node6 -->
<g id="node7" class="node"><title>Node6</title>
<polygon fill="white" stroke="#bfbfbf" points="541.219,-0.5 541.219,-18.5 592.781,-18.5 592.781,-0.5 541.219,-0.5"/>
<text text-anchor="middle" x="567" y="-6.5" font-family="Helvetica,sans-Serif" font-size="10.00">sstream</text>
</g>
<!-- Node2&#45;&gt;Node6 -->
<g id="edge6" class="edge"><title>Node2&#45;&gt;Node6</title>
<path fill="none" stroke="midnightblue" d="M673.863,-55.4504C653.049,-46.6951 619.553,-32.6055 595.611,-22.5346"/>
<polygon fill="midnightblue" stroke="midnightblue" points="596.892,-19.2765 586.317,-18.6253 594.177,-25.7289 596.892,-19.2765"/>
</g>
<!-- Node7 -->
<g id="node8" class="node"><title>Node7</title>
<polygon fill="white" stroke="#bfbfbf" points="610.613,-0.5 610.613,-18.5 649.387,-18.5 649.387,-0.5 610.613,-0.5"/>
<text text-anchor="middle" x="630" y="-6.5" font-family="Helvetica,sans-Serif" font-size="10.00">limits</text>
</g>
<!-- Node2&#45;&gt;Node7 -->
<g id="edge7" class="edge"><title>Node2&#45;&gt;Node7</title>
<path fill="none" stroke="midnightblue" d="M683.432,-55.4504C673.903,-47.4345 659.06,-34.9471 647.433,-25.1663"/>
<polygon fill="midnightblue" stroke="midnightblue" points="649.564,-22.3847 639.658,-18.6253 645.057,-27.7413 649.564,-22.3847"/>
</g>
<!-- Node8 -->
<g id="node9" class="node"><title>Node8</title>
<polygon fill="white" stroke="#bfbfbf" points="666.943,-0.5 666.943,-18.5 719.057,-18.5 719.057,-0.5 666.943,-0.5"/>
<text text-anchor="middle" x="693" y="-6.5" font-family="Helvetica,sans-Serif" font-size="10.00">memory</text>
</g>
<!-- Node2&#45;&gt;Node8 -->
<g id="edge8" class="edge"><title>Node2&#45;&gt;Node8</title>
<path fill="none" stroke="midnightblue" d="M693,-55.2188C693,-48.1769 693,-37.8083 693,-28.8277"/>
<polygon fill="midnightblue" stroke="midnightblue" points="696.5,-28.5495 693,-18.5496 689.5,-28.5496 696.5,-28.5495"/>
</g>
<!-- Node9 -->
<g id="node10" class="node"><title>Node9</title>
<polygon fill="white" stroke="#bfbfbf" points="736.879,-0.5 736.879,-18.5 785.121,-18.5 785.121,-0.5 736.879,-0.5"/>
<text text-anchor="middle" x="761" y="-6.5" font-family="Helvetica,sans-Serif" font-size="10.00">cstddef</text>
</g>
<!-- Node2&#45;&gt;Node9 -->
<g id="edge9" class="edge"><title>Node2&#45;&gt;Node9</title>
<path fill="none" stroke="midnightblue" d="M703.328,-55.4504C713.712,-47.3566 729.946,-34.7042 742.547,-24.8822"/>
<polygon fill="midnightblue" stroke="midnightblue" points="744.839,-27.5333 750.575,-18.6253 740.536,-22.0122 744.839,-27.5333"/>
</g>
<!-- Node13&#45;&gt;Node2 -->
<g id="edge14" class="edge"><title>Node13&#45;&gt;Node2</title>
<path fill="none" stroke="midnightblue" d="M216.637,-165.436C272.228,-153.234 381.239,-129.441 474,-110 534.593,-97.3007 604.736,-83.1433 648.982,-74.2796"/>
<polygon fill="midnightblue" stroke="midnightblue" points="649.715,-77.7025 658.833,-72.3079 648.341,-70.8386 649.715,-77.7025"/>
</g>
<!-- Node13&#45;&gt;Node11 -->
<g id="edge16" class="edge"><title>Node13&#45;&gt;Node11</title>
<path fill="none" stroke="midnightblue" d="M218.036,-167.153C222.735,-166.407 227.476,-165.673 232,-165 343.01,-148.491 475.325,-131.583 533.736,-124.26"/>
<polygon fill="midnightblue" stroke="midnightblue" points="534.272,-127.721 543.761,-123.007 533.404,-120.775 534.272,-127.721"/>
</g>
<!-- Node13&#45;&gt;Node12 -->
<g id="edge17" class="edge"><title>Node13&#45;&gt;Node12</title>
<path fill="none" stroke="midnightblue" d="M177.895,-165.382C173.416,-148.104 162.845,-107.329 156.683,-83.5629"/>
<polygon fill="midnightblue" stroke="midnightblue" points="160.027,-82.5133 154.129,-73.7118 153.251,-84.2701 160.027,-82.5133"/>
</g>
<!-- Node14 -->
<g id="node15" class="node"><title>Node14</title>
<polygon fill="white" stroke="#bfbfbf" points="179.596,-110.5 179.596,-128.5 238.404,-128.5 238.404,-110.5 179.596,-110.5"/>
<text text-anchor="middle" x="209" y="-116.5" font-family="Helvetica,sans-Serif" font-size="10.00">exception</text>
</g>
<!-- Node13&#45;&gt;Node14 -->
<g id="edge15" class="edge"><title>Node13&#45;&gt;Node14</title>
<path fill="none" stroke="midnightblue" d="M184.531,-165.219C188.598,-157.786 194.694,-146.646 199.783,-137.345"/>
<polygon fill="midnightblue" stroke="midnightblue" points="202.866,-139.002 204.596,-128.55 196.725,-135.642 202.866,-139.002"/>
</g>
<!-- Node15&#45;&gt;Node2 -->
<g id="edge19" class="edge"><title>Node15&#45;&gt;Node2</title>
<path fill="none" stroke="midnightblue" d="M658.781,-165.382C664.727,-148.026 678.796,-106.96 686.922,-83.2413"/>
<polygon fill="midnightblue" stroke="midnightblue" points="690.257,-84.3064 690.187,-73.7118 683.635,-82.0376 690.257,-84.3064"/>
</g>
<!-- Node15&#45;&gt;Node11 -->
<g id="edge23" class="edge"><title>Node15&#45;&gt;Node11</title>
<path fill="none" stroke="midnightblue" d="M642.027,-165.45C627.437,-157.045 604.314,-143.724 587.021,-133.762"/>
<polygon fill="midnightblue" stroke="midnightblue" points="588.516,-130.584 578.104,-128.625 585.022,-136.65 588.516,-130.584"/>
</g>
<!-- Node16 -->
<g id="node17" class="node"><title>Node16</title>
<g id="a_node17"><a xlink:href="../../d5/de4/_complexity_8h.html" target="_top" xlink:title="fl/Complexity.h">
<polygon fill="white" stroke="black" points="746.581,-110.5 746.581,-128.5 827.419,-128.5 827.419,-110.5 746.581,-110.5"/>
<text text-anchor="middle" x="787" y="-116.5" font-family="Helvetica,sans-Serif" font-size="10.00">fl/Complexity.h</text>
</a>
</g>
</g>
<!-- Node15&#45;&gt;Node16 -->
<g id="edge20" class="edge"><title>Node15&#45;&gt;Node16</title>
<path fill="none" stroke="midnightblue" d="M675.896,-165.45C697.633,-156.656 732.672,-142.48 757.585,-132.401"/>
<polygon fill="midnightblue" stroke="midnightblue" points="758.959,-135.62 766.917,-128.625 756.334,-129.131 758.959,-135.62"/>
</g>
<!-- Node16&#45;&gt;Node2 -->
<g id="edge21" class="edge"><title>Node16&#45;&gt;Node2</title>
<path fill="none" stroke="midnightblue" d="M772.723,-110.45C757.816,-102.045 734.19,-88.7241 716.521,-78.7618"/>
<polygon fill="midnightblue" stroke="midnightblue" points="717.841,-75.488 707.411,-73.6253 714.403,-81.5856 717.841,-75.488"/>
</g>
<!-- Node16&#45;&gt;Node12 -->
<g id="edge22" class="edge"><title>Node16&#45;&gt;Node12</title>
<path fill="none" stroke="midnightblue" d="M746.312,-115.104C628.678,-105.286 289.827,-77.0037 183.983,-68.1694"/>
<polygon fill="midnightblue" stroke="midnightblue" points="184.177,-64.6736 173.921,-67.3296 183.595,-71.6493 184.177,-64.6736"/>
</g>
<!-- Node17&#45;&gt;Node2 -->
<g id="edge25" class="edge"><title>Node17&#45;&gt;Node2</title>
<path fill="none" stroke="midnightblue" d="M949.029,-165.35C930.659,-152.046 892.129,-125.588 856,-110 817.312,-93.3072 770.722,-81.3371 737.278,-74.0452"/>
<polygon fill="midnightblue" stroke="midnightblue" points="737.854,-70.5894 727.344,-71.9324 736.397,-77.4363 737.854,-70.5894"/>
</g>
<!-- Node17&#45;&gt;Node11 -->
<g id="edge27" class="edge"><title>Node17&#45;&gt;Node11</title>
<path fill="none" stroke="midnightblue" d="M913.798,-166.279C910.822,-165.839 907.87,-165.409 905,-165 790.654,-148.705 654.391,-131.625 594.638,-124.252"/>
<polygon fill="midnightblue" stroke="midnightblue" points="594.746,-120.739 584.394,-122.991 593.891,-127.687 594.746,-120.739"/>
</g>
<!-- Node17&#45;&gt;Node16 -->
<g id="edge26" class="edge"><title>Node17&#45;&gt;Node16</title>
<path fill="none" stroke="midnightblue" d="M933.725,-165.45C904.172,-156.396 855.998,-141.638 822.966,-131.519"/>
<polygon fill="midnightblue" stroke="midnightblue" points="823.825,-128.121 813.238,-128.538 821.774,-134.814 823.825,-128.121"/>
</g>
<!-- Node19 -->
<g id="node20" class="node"><title>Node19</title>
<g id="a_node20"><a xlink:href="../../d7/d72/_norm_8h.html" target="_top" xlink:title="fl/norm/Norm.h">
<polygon fill="white" stroke="black" points="813.938,-165.5 813.938,-183.5 896.062,-183.5 896.062,-165.5 813.938,-165.5"/>
<text text-anchor="middle" x="855" y="-171.5" font-family="Helvetica,sans-Serif" font-size="10.00">fl/norm/Norm.h</text>
</a>
</g>
</g>
<!-- Node18&#45;&gt;Node19 -->
<g id="edge29" class="edge"><title>Node18&#45;&gt;Node19</title>
<path fill="none" stroke="midnightblue" d="M933.875,-220.45C919.127,-212.045 895.752,-198.724 878.271,-188.762"/>
<polygon fill="midnightblue" stroke="midnightblue" points="879.679,-185.536 869.258,-183.625 876.213,-191.618 879.679,-185.536"/>
</g>
<!-- Node19&#45;&gt;Node2 -->
<g id="edge30" class="edge"><title>Node19&#45;&gt;Node2</title>
<path fill="none" stroke="midnightblue" d="M854.891,-165.266C854.261,-151.843 851.051,-125.217 836,-110 810.045,-83.759 768.905,-72.9368 737.401,-68.5024"/>
<polygon fill="midnightblue" stroke="midnightblue" points="737.477,-64.9851 727.123,-67.2303 736.617,-71.9321 737.477,-64.9851"/>
</g>
<!-- Node19&#45;&gt;Node11 -->
<g id="edge32" class="edge"><title>Node19&#45;&gt;Node11</title>
<path fill="none" stroke="midnightblue" d="M813.924,-166.019C754.856,-155.261 647.259,-135.664 594.634,-126.079"/>
<polygon fill="midnightblue" stroke="midnightblue" points="595.039,-122.596 584.574,-124.247 593.785,-129.482 595.039,-122.596"/>
</g>
<!-- Node19&#45;&gt;Node16 -->
<g id="edge31" class="edge"><title>Node19&#45;&gt;Node16</title>
<path fill="none" stroke="midnightblue" d="M844.672,-165.45C834.288,-157.357 818.054,-144.704 805.453,-134.882"/>
<polygon fill="midnightblue" stroke="midnightblue" points="807.464,-132.012 797.425,-128.625 803.161,-137.533 807.464,-132.012"/>
</g>
<!-- Node20&#45;&gt;Node19 -->
<g id="edge34" class="edge"><title>Node20&#45;&gt;Node19</title>
<path fill="none" stroke="midnightblue" d="M843.188,-220.219C845.089,-213.02 847.909,-202.346 850.316,-193.231"/>
<polygon fill="midnightblue" stroke="midnightblue" points="853.704,-194.112 852.874,-183.55 846.936,-192.324 853.704,-194.112"/>
</g>
<!-- Node21&#45;&gt;Node2 -->
<g id="edge36" class="edge"><title>Node21&#45;&gt;Node2</title>
<path fill="none" stroke="midnightblue" d="M508.234,-330.441C563.852,-313.79 681.08,-269.767 729,-184 747.794,-150.362 722.633,-105.748 705.847,-82.0099"/>
<polygon fill="midnightblue" stroke="midnightblue" points="708.488,-79.6941 699.728,-73.7348 702.859,-83.8562 708.488,-79.6941"/>
</g>
<!-- Node21&#45;&gt;Node4 -->
<g id="edge51" class="edge"><title>Node21&#45;&gt;Node4</title>
<path fill="none" stroke="midnightblue" d="M439.288,-337.991C325.493,-335.459 0,-320.364 0,-230.5 0,-230.5 0,-230.5 0,-118.5 0,-73.292 47.8987,-40.2321 79.6011,-23.3019"/>
<polygon fill="midnightblue" stroke="midnightblue" points="81.541,-26.2409 88.8489,-18.5699 78.3523,-20.0093 81.541,-26.2409"/>
</g>
<!-- Node21&#45;&gt;Node11 -->
<g id="edge52" class="edge"><title>Node21&#45;&gt;Node11</title>
<path fill="none" stroke="midnightblue" d="M439.422,-331.498C371.473,-317.412 241.556,-281.618 285,-220 342.607,-138.295 473.609,-123.303 533.318,-120.818"/>
<polygon fill="midnightblue" stroke="midnightblue" points="533.722,-124.307 543.604,-120.487 533.496,-117.311 533.722,-124.307"/>
</g>
<!-- Node21&#45;&gt;Node12 -->
<g id="edge53" class="edge"><title>Node21&#45;&gt;Node12</title>
<path fill="none" stroke="midnightblue" d="M439.225,-335.761C362.196,-327.898 192.227,-297.814 133,-184 115.908,-151.155 131.7,-106.81 142.959,-82.7568"/>
<polygon fill="midnightblue" stroke="midnightblue" points="146.235,-84.0288 147.538,-73.5145 139.962,-80.9211 146.235,-84.0288"/>
</g>
<!-- Node21&#45;&gt;Node16 -->
<g id="edge50" class="edge"><title>Node21&#45;&gt;Node16</title>
<path fill="none" stroke="midnightblue" d="M516.562,-336.613C557.168,-333.08 621.655,-322.957 669,-294 723.615,-260.596 729.17,-238.961 762,-184 770.639,-169.537 777.394,-151.551 781.692,-138.417"/>
<polygon fill="midnightblue" stroke="midnightblue" points="785.084,-139.298 784.713,-128.71 778.4,-137.218 785.084,-139.298"/>
</g>
<!-- Node22 -->
<g id="node23" class="node"><title>Node22</title>
<g id="a_node23"><a xlink:href="../../d6/dd6/_operation_8h.html" target="_top" xlink:title="fl/Operation.h">
<polygon fill="white" stroke="black" points="439.983,-275.5 439.983,-293.5 516.017,-293.5 516.017,-275.5 439.983,-275.5"/>
<text text-anchor="middle" x="478" y="-281.5" font-family="Helvetica,sans-Serif" font-size="10.00">fl/Operation.h</text>
</a>
</g>
</g>
<!-- Node21&#45;&gt;Node22 -->
<g id="edge37" class="edge"><title>Node21&#45;&gt;Node22</title>
<path fill="none" stroke="midnightblue" d="M478,-330.219C478,-323.177 478,-312.808 478,-303.828"/>
<polygon fill="midnightblue" stroke="midnightblue" points="481.5,-303.55 478,-293.55 474.5,-303.55 481.5,-303.55"/>
</g>
<!-- Node22&#45;&gt;Node2 -->
<g id="edge38" class="edge"><title>Node22&#45;&gt;Node2</title>
<path fill="none" stroke="midnightblue" d="M479.657,-275.18C486.039,-243.914 509.93,-134.017 535,-110 565.529,-80.7528 613.736,-70.4592 648.879,-66.9737"/>
<polygon fill="midnightblue" stroke="midnightblue" points="649.205,-70.4588 658.875,-66.1289 648.616,-63.4836 649.205,-70.4588"/>
</g>
<!-- Node22&#45;&gt;Node3 -->
<g id="edge46" class="edge"><title>Node22&#45;&gt;Node3</title>
<path fill="none" stroke="midnightblue" d="M439.596,-281.564C388.076,-277.928 294.45,-267.643 220,-239 177.305,-222.574 157.216,-222.81 133,-184 102.519,-135.149 83.7812,-98.9353 121,-55 149.761,-21.0489 282.071,-12.9767 348.998,-11.0746"/>
<polygon fill="midnightblue" stroke="midnightblue" points="349.243,-14.5697 359.152,-10.8193 349.067,-7.57186 349.243,-14.5697"/>
</g>
<!-- Node22&#45;&gt;Node11 -->
<g id="edge40" class="edge"><title>Node22&#45;&gt;Node11</title>
<path fill="none" stroke="midnightblue" d="M486.724,-275.336C495.337,-266.901 508.428,-253.024 517,-239 527.746,-221.418 547.726,-166.716 557.821,-138.198"/>
<polygon fill="midnightblue" stroke="midnightblue" points="561.152,-139.277 561.167,-128.683 554.548,-136.956 561.152,-139.277"/>
</g>
<!-- Node22&#45;&gt;Node12 -->
<g id="edge41" class="edge"><title>Node22&#45;&gt;Node12</title>
<path fill="none" stroke="midnightblue" d="M439.69,-279.257C389.99,-273 307.028,-259.747 285,-239 241.491,-198.021 285.941,-155.342 247,-110 230.582,-90.8834 204.161,-79.4319 183.345,-72.9441"/>
<polygon fill="midnightblue" stroke="midnightblue" points="184.223,-69.5548 173.645,-70.1461 182.283,-76.2806 184.223,-69.5548"/>
</g>
<!-- Node22&#45;&gt;Node13 -->
<g id="edge39" class="edge"><title>Node22&#45;&gt;Node13</title>
<path fill="none" stroke="midnightblue" d="M439.67,-282.025C393.086,-278.9 313.138,-269.183 252,-239 228.513,-227.405 206.729,-206.115 193.408,-191.404"/>
<polygon fill="midnightblue" stroke="midnightblue" points="195.816,-188.841 186.594,-183.625 190.551,-193.453 195.816,-188.841"/>
</g>
<!-- Node22&#45;&gt;Node15 -->
<g id="edge42" class="edge"><title>Node22&#45;&gt;Node15</title>
<path fill="none" stroke="midnightblue" d="M492.285,-275.456C507.814,-266.661 533.316,-252.076 555,-239 582.84,-222.212 614.51,-202.139 634.847,-189.12"/>
<polygon fill="midnightblue" stroke="midnightblue" points="636.812,-192.018 643.339,-183.672 633.032,-186.126 636.812,-192.018"/>
</g>
<!-- Node22&#45;&gt;Node18 -->
<g id="edge44" class="edge"><title>Node22&#45;&gt;Node18</title>
<path fill="none" stroke="midnightblue" d="M516.216,-280.051C587.935,-273.44 747.81,-258.048 893.509,-238.998"/>
<polygon fill="midnightblue" stroke="midnightblue" points="894.071,-242.454 903.529,-237.679 893.157,-235.514 894.071,-242.454"/>
</g>
<!-- Node22&#45;&gt;Node19 -->
<g id="edge43" class="edge"><title>Node22&#45;&gt;Node19</title>
<path fill="none" stroke="midnightblue" d="M506.028,-275.471C572.769,-256.351 741.174,-208.108 816.981,-186.391"/>
<polygon fill="midnightblue" stroke="midnightblue" points="818.394,-189.627 827.043,-183.509 816.466,-182.898 818.394,-189.627"/>
</g>
<!-- Node22&#45;&gt;Node20 -->
<g id="edge45" class="edge"><title>Node22&#45;&gt;Node20</title>
<path fill="none" stroke="midnightblue" d="M516.041,-277.958C573.755,-269.547 686.898,-253.053 783,-239 784.108,-238.838 785.227,-238.674 786.356,-238.509"/>
<polygon fill="midnightblue" stroke="midnightblue" points="787.279,-241.911 796.667,-237 786.265,-234.985 787.279,-241.911"/>
</g>
<!-- Node23 -->
<g id="node24" class="node"><title>Node23</title>
<polygon fill="white" stroke="#bfbfbf" points="294.49,-220.5 294.49,-238.5 345.51,-238.5 345.51,-220.5 294.49,-220.5"/>
<text text-anchor="middle" x="320" y="-226.5" font-family="Helvetica,sans-Serif" font-size="10.00">iomanip</text>
</g>
<!-- Node22&#45;&gt;Node23 -->
<g id="edge47" class="edge"><title>Node22&#45;&gt;Node23</title>
<path fill="none" stroke="midnightblue" d="M454.003,-275.45C427.245,-266.475 383.773,-251.892 353.631,-241.781"/>
<polygon fill="midnightblue" stroke="midnightblue" points="354.557,-238.4 343.963,-238.538 352.331,-245.037 354.557,-238.4"/>
</g>
<!-- Node24 -->
<g id="node25" class="node"><title>Node24</title>
<polygon fill="white" stroke="#bfbfbf" points="363.604,-220.5 363.604,-238.5 412.396,-238.5 412.396,-220.5 363.604,-220.5"/>
<text text-anchor="middle" x="388" y="-226.5" font-family="Helvetica,sans-Serif" font-size="10.00">cstdarg</text>
</g>
<!-- Node22&#45;&gt;Node24 -->
<g id="edge48" class="edge"><title>Node22&#45;&gt;Node24</title>
<path fill="none" stroke="midnightblue" d="M464.331,-275.45C450.058,-267.045 427.437,-253.724 410.52,-243.762"/>
<polygon fill="midnightblue" stroke="midnightblue" points="412.191,-240.684 401.798,-238.625 408.639,-246.716 412.191,-240.684"/>
</g>
<!-- Node25 -->
<g id="node26" class="node"><title>Node25</title>
<polygon fill="white" stroke="#bfbfbf" points="430.549,-220.5 430.549,-238.5 475.451,-238.5 475.451,-220.5 430.549,-220.5"/>
<text text-anchor="middle" x="453" y="-226.5" font-family="Helvetica,sans-Serif" font-size="10.00">cctype</text>
</g>
<!-- Node22&#45;&gt;Node25 -->
<g id="edge49" class="edge"><title>Node22&#45;&gt;Node25</title>
<path fill="none" stroke="midnightblue" d="M474.094,-275.219C470.624,-267.864 465.443,-256.88 461.084,-247.639"/>
<polygon fill="midnightblue" stroke="midnightblue" points="464.229,-246.101 456.797,-238.55 457.898,-249.087 464.229,-246.101"/>
</g>
</g>
</svg>
