<?xml version="1.0" encoding="UTF-8" standalone="no"?>
<!DOCTYPE svg PUBLIC "-//W3C//DTD SVG 1.1//EN"
 "http://www.w3.org/Graphics/SVG/1.1/DTD/svg11.dtd">
<!-- Generated by graphviz version 2.38.0 (20140413.2041)
 -->
<!-- Title: fl::General Pages: 1 -->
<svg width="90pt" height="304pt"
 viewBox="0.00 0.00 89.85 304.00" xmlns="http://www.w3.org/2000/svg" xmlns:xlink="http://www.w3.org/1999/xlink">
<g id="graph0" class="graph" transform="scale(1 1) rotate(0) translate(4 300)">
<title>fl::General</title>
<polygon fill="white" stroke="none" points="-4,4 -4,-300 85.8545,-300 85.8545,4 -4,4"/>
<!-- Node0 -->
<g id="node1" class="node"><title>Node0</title>
<polygon fill="#bfbfbf" stroke="black" points="0,-0.5 0,-134.5 81.8545,-134.5 81.8545,-0.5 0,-0.5"/>
<text text-anchor="middle" x="40.9272" y="-122.5" font-family="Helvetica,sans-Serif" font-size="10.00">fl::General</text>
<polyline fill="none" stroke="black" points="0,-116.5 81.8545,-116.5 "/>
<text text-anchor="middle" x="40.9272" y="-104.5" font-family="Helvetica,sans-Serif" font-size="10.00"> </text>
<polyline fill="none" stroke="black" points="0,-98.5 81.8545,-98.5 "/>
<text text-anchor="start" x="8" y="-86.5" font-family="Helvetica,sans-Serif" font-size="10.00">+ General()</text>
<text text-anchor="start" x="8" y="-76.5" font-family="Helvetica,sans-Serif" font-size="10.00">+ ~General()</text>
<text text-anchor="start" x="8" y="-66.5" font-family="Helvetica,sans-Serif" font-size="10.00">+ className()</text>
<text text-anchor="start" x="8" y="-56.5" font-family="Helvetica,sans-Serif" font-size="10.00">+ parameters()</text>
<text text-anchor="start" x="8" y="-46.5" font-family="Helvetica,sans-Serif" font-size="10.00">+ configure()</text>
<text text-anchor="start" x="8" y="-36.5" font-family="Helvetica,sans-Serif" font-size="10.00">+ complexity()</text>
<text text-anchor="start" x="8" y="-26.5" font-family="Helvetica,sans-Serif" font-size="10.00">+ activate()</text>
<text text-anchor="start" x="8" y="-16.5" font-family="Helvetica,sans-Serif" font-size="10.00">+ clone()</text>
<text text-anchor="start" x="8" y="-6.5" font-family="Helvetica,sans-Serif" font-size="10.00">+ constructor()</text>
</g>
<!-- Node1 -->
<g id="node2" class="node"><title>Node1</title>
<g id="a_node2"><a xlink:href="../../df/d4b/classfl_1_1_activation.html" target="_top" xlink:title="The Activation class is the abstract class for RuleBlock activation methods. ">
<polygon fill="white" stroke="black" points="0,-171.5 0,-295.5 81.8545,-295.5 81.8545,-171.5 0,-171.5"/>
<text text-anchor="middle" x="40.9272" y="-283.5" font-family="Helvetica,sans-Serif" font-size="10.00">fl::Activation</text>
<polyline fill="none" stroke="black" points="0,-277.5 81.8545,-277.5 "/>
<text text-anchor="middle" x="40.9272" y="-265.5" font-family="Helvetica,sans-Serif" font-size="10.00"> </text>
<polyline fill="none" stroke="black" points="0,-259.5 81.8545,-259.5 "/>
<text text-anchor="start" x="8" y="-247.5" font-family="Helvetica,sans-Serif" font-size="10.00">+ Activation()</text>
<text text-anchor="start" x="8" y="-237.5" font-family="Helvetica,sans-Serif" font-size="10.00">+ ~Activation()</text>
<text text-anchor="start" x="8" y="-227.5" font-family="Helvetica,sans-Serif" font-size="10.00">+ className()</text>
<text text-anchor="start" x="8" y="-217.5" font-family="Helvetica,sans-Serif" font-size="10.00">+ parameters()</text>
<text text-anchor="start" x="8" y="-207.5" font-family="Helvetica,sans-Serif" font-size="10.00">+ configure()</text>
<text text-anchor="start" x="8" y="-197.5" font-family="Helvetica,sans-Serif" font-size="10.00">+ complexity()</text>
<text text-anchor="start" x="8" y="-187.5" font-family="Helvetica,sans-Serif" font-size="10.00">+ activate()</text>
<text text-anchor="start" x="8" y="-177.5" font-family="Helvetica,sans-Serif" font-size="10.00">+ clone()</text>
</a>
</g>
</g>
<!-- Node1&#45;&gt;Node0 -->
<g id="edge1" class="edge"><title>Node1&#45;&gt;Node0</title>
<path fill="none" stroke="midnightblue" d="M40.9272,-161.162C40.9272,-152.326 40.9272,-143.322 40.9272,-134.57"/>
<polygon fill="none" stroke="midnightblue" points="37.4273,-161.432 40.9272,-171.432 44.4273,-161.432 37.4273,-161.432"/>
</g>
</g>
</svg>
