<?xml version="1.0" encoding="UTF-8" standalone="no"?>
<!DOCTYPE svg PUBLIC "-//W3C//DTD SVG 1.1//EN"
 "http://www.w3.org/Graphics/SVG/1.1/DTD/svg11.dtd">
<!-- Generated by graphviz version 2.38.0 (20140413.2041)
 -->
<!-- Title: fuzzylite/fl/rule/RuleBlock.h Pages: 1 -->
<svg width="461pt" height="247pt"
 viewBox="0.00 0.00 460.68 247.00" xmlns="http://www.w3.org/2000/svg" xmlns:xlink="http://www.w3.org/1999/xlink">
<g id="graph0" class="graph" transform="scale(1 1) rotate(0) translate(4 243)">
<title>fuzzylite/fl/rule/RuleBlock.h</title>
<polygon fill="white" stroke="none" points="-4,4 -4,-243 456.685,-243 456.685,4 -4,4"/>
<!-- Node0 -->
<g id="node1" class="node"><title>Node0</title>
<polygon fill="#bfbfbf" stroke="black" points="264.818,-220.5 264.818,-238.5 400.31,-238.5 400.31,-220.5 264.818,-220.5"/>
<text text-anchor="middle" x="332.564" y="-226.5" font-family="Helvetica,sans-Serif" font-size="10.00">fuzzylite/fl/rule/RuleBlock.h</text>
</g>
<!-- Node1 -->
<g id="node2" class="node"><title>Node1</title>
<g id="a_node2"><a xlink:href="../../de/d53/fuzzylite_8h.html" target="_top" xlink:title="fl/fuzzylite.h">
<polygon fill="white" stroke="black" points="200.443,-55.5 200.443,-73.5 268.685,-73.5 268.685,-55.5 200.443,-55.5"/>
<text text-anchor="middle" x="234.564" y="-61.5" font-family="Helvetica,sans-Serif" font-size="10.00">fl/fuzzylite.h</text>
</a>
</g>
</g>
<!-- Node0&#45;&gt;Node1 -->
<g id="edge1" class="edge"><title>Node0&#45;&gt;Node1</title>
<path fill="none" stroke="midnightblue" d="M279.472,-220.426C239.047,-213.067 188.249,-200.78 175.564,-184 150.053,-150.253 191.735,-103.769 217.169,-80.3132"/>
<polygon fill="midnightblue" stroke="midnightblue" points="219.617,-82.8203 224.75,-73.5523 214.958,-77.5959 219.617,-82.8203"/>
</g>
<!-- Node9 -->
<g id="node10" class="node"><title>Node9</title>
<g id="a_node10"><a xlink:href="../../d4/d75/_activation_8h.html" target="_top" xlink:title="fl/activation/Activation.h">
<polygon fill="white" stroke="black" points="184.315,-165.5 184.315,-183.5 304.812,-183.5 304.812,-165.5 184.315,-165.5"/>
<text text-anchor="middle" x="244.564" y="-171.5" font-family="Helvetica,sans-Serif" font-size="10.00">fl/activation/Activation.h</text>
</a>
</g>
</g>
<!-- Node0&#45;&gt;Node9 -->
<g id="edge9" class="edge"><title>Node0&#45;&gt;Node9</title>
<path fill="none" stroke="midnightblue" d="M319.199,-220.45C305.372,-212.123 283.534,-198.97 267.044,-189.039"/>
<polygon fill="midnightblue" stroke="midnightblue" points="268.427,-185.786 258.055,-183.625 264.816,-191.783 268.427,-185.786"/>
</g>
<!-- Node10 -->
<g id="node11" class="node"><title>Node10</title>
<g id="a_node11"><a xlink:href="../../d5/de4/_complexity_8h.html" target="_top" xlink:title="fl/Complexity.h">
<polygon fill="white" stroke="black" points="262.145,-110.5 262.145,-128.5 342.983,-128.5 342.983,-110.5 262.145,-110.5"/>
<text text-anchor="middle" x="302.564" y="-116.5" font-family="Helvetica,sans-Serif" font-size="10.00">fl/Complexity.h</text>
</a>
</g>
</g>
<!-- Node0&#45;&gt;Node10 -->
<g id="edge14" class="edge"><title>Node0&#45;&gt;Node10</title>
<path fill="none" stroke="midnightblue" d="M330.309,-220.382C325.51,-203.104 314.183,-162.329 307.581,-138.563"/>
<polygon fill="midnightblue" stroke="midnightblue" points="310.894,-137.41 304.845,-128.712 304.149,-139.284 310.894,-137.41"/>
</g>
<!-- Node11 -->
<g id="node12" class="node"><title>Node11</title>
<polygon fill="white" stroke="#bfbfbf" points="317.948,-55.5 317.948,-73.5 361.18,-73.5 361.18,-55.5 317.948,-55.5"/>
<text text-anchor="middle" x="339.564" y="-61.5" font-family="Helvetica,sans-Serif" font-size="10.00">vector</text>
</g>
<!-- Node0&#45;&gt;Node11 -->
<g id="edge16" class="edge"><title>Node0&#45;&gt;Node11</title>
<path fill="none" stroke="midnightblue" d="M335.481,-220.476C342.066,-201.383 357.091,-151.724 351.564,-110 350.379,-101.056 347.91,-91.3587 345.518,-83.3061"/>
<polygon fill="midnightblue" stroke="midnightblue" points="348.79,-82.0451 342.432,-73.5704 342.118,-84.1606 348.79,-82.0451"/>
</g>
<!-- Node12 -->
<g id="node13" class="node"><title>Node12</title>
<polygon fill="white" stroke="#bfbfbf" points="398.337,-165.5 398.337,-183.5 438.791,-183.5 438.791,-165.5 398.337,-165.5"/>
<text text-anchor="middle" x="418.564" y="-171.5" font-family="Helvetica,sans-Serif" font-size="10.00">string</text>
</g>
<!-- Node0&#45;&gt;Node12 -->
<g id="edge15" class="edge"><title>Node0&#45;&gt;Node12</title>
<path fill="none" stroke="midnightblue" d="M345.626,-220.45C359.138,-212.123 380.48,-198.97 396.594,-189.039"/>
<polygon fill="midnightblue" stroke="midnightblue" points="398.703,-191.851 405.379,-183.625 395.03,-185.892 398.703,-191.851"/>
</g>
<!-- Node2 -->
<g id="node3" class="node"><title>Node2</title>
<polygon fill="white" stroke="#bfbfbf" points="0,-0.5 0,-18.5 57.1279,-18.5 57.1279,-0.5 0,-0.5"/>
<text text-anchor="middle" x="28.564" y="-6.5" font-family="Helvetica,sans-Serif" font-size="10.00">algorithm</text>
</g>
<!-- Node1&#45;&gt;Node2 -->
<g id="edge2" class="edge"><title>Node1&#45;&gt;Node2</title>
<path fill="none" stroke="midnightblue" d="M203.277,-55.4504C166.727,-46.0468 106.259,-30.4896 66.916,-20.3673"/>
<polygon fill="midnightblue" stroke="midnightblue" points="67.7083,-16.9572 57.1516,-17.8551 65.9641,-23.7364 67.7083,-16.9572"/>
</g>
<!-- Node3 -->
<g id="node4" class="node"><title>Node3</title>
<polygon fill="white" stroke="#bfbfbf" points="74.9482,-0.5 74.9482,-18.5 118.18,-18.5 118.18,-0.5 74.9482,-0.5"/>
<text text-anchor="middle" x="96.564" y="-6.5" font-family="Helvetica,sans-Serif" font-size="10.00">cmath</text>
</g>
<!-- Node1&#45;&gt;Node3 -->
<g id="edge3" class="edge"><title>Node1&#45;&gt;Node3</title>
<path fill="none" stroke="midnightblue" d="M213.605,-55.4504C190.605,-46.6173 153.468,-32.3546 127.203,-22.267"/>
<polygon fill="midnightblue" stroke="midnightblue" points="128.311,-18.9433 117.72,-18.6253 125.801,-25.478 128.311,-18.9433"/>
</g>
<!-- Node4 -->
<g id="node5" class="node"><title>Node4</title>
<polygon fill="white" stroke="#bfbfbf" points="136.392,-0.5 136.392,-18.5 190.736,-18.5 190.736,-0.5 136.392,-0.5"/>
<text text-anchor="middle" x="163.564" y="-6.5" font-family="Helvetica,sans-Serif" font-size="10.00">iostream</text>
</g>
<!-- Node1&#45;&gt;Node4 -->
<g id="edge4" class="edge"><title>Node1&#45;&gt;Node4</title>
<path fill="none" stroke="midnightblue" d="M223.781,-55.4504C212.938,-47.3566 195.988,-34.7042 182.831,-24.8822"/>
<polygon fill="midnightblue" stroke="midnightblue" points="184.556,-21.8025 174.449,-18.6253 180.369,-27.412 184.556,-21.8025"/>
</g>
<!-- Node5 -->
<g id="node6" class="node"><title>Node5</title>
<polygon fill="white" stroke="#bfbfbf" points="208.783,-0.5 208.783,-18.5 260.345,-18.5 260.345,-0.5 208.783,-0.5"/>
<text text-anchor="middle" x="234.564" y="-6.5" font-family="Helvetica,sans-Serif" font-size="10.00">sstream</text>
</g>
<!-- Node1&#45;&gt;Node5 -->
<g id="edge5" class="edge"><title>Node1&#45;&gt;Node5</title>
<path fill="none" stroke="midnightblue" d="M234.564,-55.2188C234.564,-48.1769 234.564,-37.8083 234.564,-28.8277"/>
<polygon fill="midnightblue" stroke="midnightblue" points="238.064,-28.5495 234.564,-18.5496 231.064,-28.5496 238.064,-28.5495"/>
</g>
<!-- Node6 -->
<g id="node7" class="node"><title>Node6</title>
<polygon fill="white" stroke="#bfbfbf" points="278.177,-0.5 278.177,-18.5 316.951,-18.5 316.951,-0.5 278.177,-0.5"/>
<text text-anchor="middle" x="297.564" y="-6.5" font-family="Helvetica,sans-Serif" font-size="10.00">limits</text>
</g>
<!-- Node1&#45;&gt;Node6 -->
<g id="edge6" class="edge"><title>Node1&#45;&gt;Node6</title>
<path fill="none" stroke="midnightblue" d="M244.132,-55.4504C253.661,-47.4345 268.504,-34.9471 280.13,-25.1663"/>
<polygon fill="midnightblue" stroke="midnightblue" points="282.506,-27.7413 287.906,-18.6253 278,-22.3847 282.506,-27.7413"/>
</g>
<!-- Node7 -->
<g id="node8" class="node"><title>Node7</title>
<polygon fill="white" stroke="#bfbfbf" points="334.507,-0.5 334.507,-18.5 386.621,-18.5 386.621,-0.5 334.507,-0.5"/>
<text text-anchor="middle" x="360.564" y="-6.5" font-family="Helvetica,sans-Serif" font-size="10.00">memory</text>
</g>
<!-- Node1&#45;&gt;Node7 -->
<g id="edge7" class="edge"><title>Node1&#45;&gt;Node7</title>
<path fill="none" stroke="midnightblue" d="M253.701,-55.4504C274.515,-46.6951 308.011,-32.6055 331.953,-22.5346"/>
<polygon fill="midnightblue" stroke="midnightblue" points="333.387,-25.7289 341.247,-18.6253 330.672,-19.2765 333.387,-25.7289"/>
</g>
<!-- Node8 -->
<g id="node9" class="node"><title>Node8</title>
<polygon fill="white" stroke="#bfbfbf" points="404.443,-0.5 404.443,-18.5 452.685,-18.5 452.685,-0.5 404.443,-0.5"/>
<text text-anchor="middle" x="428.564" y="-6.5" font-family="Helvetica,sans-Serif" font-size="10.00">cstddef</text>
</g>
<!-- Node1&#45;&gt;Node8 -->
<g id="edge8" class="edge"><title>Node1&#45;&gt;Node8</title>
<path fill="none" stroke="midnightblue" d="M264.028,-55.4504C299.102,-45.8685 357.562,-29.8973 394.532,-19.7973"/>
<polygon fill="midnightblue" stroke="midnightblue" points="395.628,-23.1262 404.352,-17.1145 393.783,-16.3737 395.628,-23.1262"/>
</g>
<!-- Node9&#45;&gt;Node1 -->
<g id="edge10" class="edge"><title>Node9&#45;&gt;Node1</title>
<path fill="none" stroke="midnightblue" d="M243.812,-165.382C242.22,-148.182 238.471,-107.698 236.266,-83.8866"/>
<polygon fill="midnightblue" stroke="midnightblue" points="239.731,-83.3464 235.324,-73.7118 232.761,-83.9919 239.731,-83.3464"/>
</g>
<!-- Node9&#45;&gt;Node10 -->
<g id="edge11" class="edge"><title>Node9&#45;&gt;Node10</title>
<path fill="none" stroke="midnightblue" d="M253.626,-165.219C262.36,-157.238 275.77,-144.984 286.345,-135.321"/>
<polygon fill="midnightblue" stroke="midnightblue" points="288.734,-137.879 293.755,-128.55 284.012,-132.712 288.734,-137.879"/>
</g>
<!-- Node10&#45;&gt;Node1 -->
<g id="edge12" class="edge"><title>Node10&#45;&gt;Node1</title>
<path fill="none" stroke="midnightblue" d="M292.236,-110.45C281.852,-102.357 265.618,-89.7042 253.017,-79.8822"/>
<polygon fill="midnightblue" stroke="midnightblue" points="255.028,-77.0122 244.989,-73.6253 250.725,-82.5333 255.028,-77.0122"/>
</g>
<!-- Node10&#45;&gt;Node11 -->
<g id="edge13" class="edge"><title>Node10&#45;&gt;Node11</title>
<path fill="none" stroke="midnightblue" d="M308.345,-110.219C313.644,-102.629 321.64,-91.1753 328.213,-81.7597"/>
<polygon fill="midnightblue" stroke="midnightblue" points="331.09,-83.7527 333.944,-73.5496 325.35,-79.7457 331.09,-83.7527"/>
</g>
</g>
</svg>
